<svg width="19" height="20" viewBox="0 0 19 20" fill="none" xmlns="http://www.w3.org/2000/svg">
<path d="M9.07706 0C14.0903 0 18.1541 4.0638 18.1541 9.07706C18.1541 14.0903 14.0903 18.1541 9.07706 18.1541C4.0638 18.1541 0 14.0903 0 9.07706C0 4.0638 4.0638 0 9.07706 0ZM9.07706 1.81541C7.15115 1.81541 5.30412 2.58048 3.9423 3.9423C2.58048 5.30412 1.81541 7.15115 1.81541 9.07706C1.81541 11.003 2.58048 12.85 3.9423 14.2118C5.30412 15.5736 7.15115 16.3387 9.07706 16.3387C11.003 16.3387 12.85 15.5736 14.2118 14.2118C15.5736 12.85 16.3387 11.003 16.3387 9.07706C16.3387 7.15115 15.5736 5.30412 14.2118 3.9423C12.85 2.58048 11.003 1.81541 9.07706 1.81541ZM9.06798 7.26165C9.57448 7.26165 9.98477 7.67193 9.98477 8.17843V12.8295C10.1578 12.9294 10.293 13.0836 10.3695 13.2683C10.446 13.4529 10.4594 13.6575 10.4077 13.8505C10.3559 14.0435 10.242 14.2141 10.0835 14.3357C9.92495 14.4574 9.73072 14.5233 9.53091 14.5233H9.08614C8.96574 14.5233 8.84653 14.4996 8.7353 14.4535C8.62407 14.4074 8.52301 14.3399 8.43787 14.2548C8.35274 14.1696 8.28521 14.0686 8.23914 13.9574C8.19307 13.8461 8.16935 13.7269 8.16935 13.6065V9.07706C7.92862 9.07706 7.69774 8.98143 7.52751 8.8112C7.35728 8.64097 7.26165 8.41009 7.26165 8.16935C7.26165 7.92862 7.35728 7.69774 7.52751 7.52751C7.69774 7.35728 7.92862 7.26165 8.16935 7.26165H9.06798ZM9.07706 4.53853C9.3178 4.53853 9.54868 4.63416 9.71891 4.80439C9.88913 4.97462 9.98477 5.2055 9.98477 5.44624C9.98477 5.68698 9.88913 5.91785 9.71891 6.08808C9.54868 6.25831 9.3178 6.35394 9.07706 6.35394C8.83632 6.35394 8.60544 6.25831 8.43522 6.08808C8.26499 5.91785 8.16935 5.68698 8.16935 5.44624C8.16935 5.2055 8.26499 4.97462 8.43522 4.80439C8.60544 4.63416 8.83632 4.53853 9.07706 4.53853Z" fill="#FFDE28"/>
</svg>
