<svg width="488" height="271" viewBox="0 0 488 271" fill="none" xmlns="http://www.w3.org/2000/svg">
<path d="M26.1655 176.417C-18.0957 118.303 46.6938 67.531 90.4196 75.6953L458.263 198.481C466.442 274.99 351.403 289.414 251.098 243.922C150.712 198.392 71.9247 236.498 26.1655 176.417Z" fill="url(#paint0_linear_184_199)" stroke="url(#paint1_linear_184_199)" stroke-width="2.05499" stroke-linecap="round"/>
<path d="M244.78 226.32L330.377 178.295C331.273 177.793 331.158 176.468 330.188 176.127L161.738 116.914C161.449 116.813 161.132 116.826 160.853 116.952L67.9197 158.721C66.9458 159.159 66.9918 160.557 67.9925 160.93L243.779 226.398C244.108 226.52 244.474 226.492 244.78 226.32Z" fill="#222222" stroke="black" stroke-width="2.78688" stroke-linecap="round"/>
<path d="M217.423 13.6415C198.154 24.4705 151.354 75.9874 143.524 92.9741L421.416 185.936C421.425 129.73 406.147 93.1413 406.334 88.091C406.493 83.7913 401.237 76.7228 400.209 72.0991C394.558 59.2554 390.211 49.4988 384.797 45.9953C378.029 41.6159 377.423 37.8337 368.067 45.9953C360.582 52.5245 361.564 60.9913 358.91 61.3231C345.852 51.2903 289.24 29.458 248.828 24.8946C251.767 11.0658 253.445 -0.754258 239.406 3.2569C235.81 4.28439 240.07 -1.55514 217.423 13.6415Z" fill="#F8F8F8"/>
<path d="M421.018 177.377L421.976 185.36L440.924 191.51L448.488 178.571L451.076 143.138L457.048 130.796L482.926 121.042L481.135 105.913L463.418 102.728L442.715 110.094L431.17 130.398L427.388 168.021L421.018 177.377Z" fill="#F8F8F8"/>
<path d="M438.138 183.548L431.767 189.719L438.934 191.51L443.092 186.774L438.138 183.548Z" fill="#FFDE28"/>
<rect width="8.92239" height="6.41895" transform="matrix(-0.975845 -0.218465 -0.218465 0.975845 438.609 137.046)" fill="#FFDE28"/>
<path d="M475.362 112.084L478.237 123.637L471.074 125.245L470.411 114.202L475.362 112.084Z" fill="#FFDE28"/>
<circle cx="4.97657" cy="4.97657" r="3.58313" transform="matrix(-0.969958 -0.243273 -0.243273 0.969958 473.688 110.016)" stroke="black" stroke-width="2.78688"/>
<path d="M470.784 124.227C470.634 122.639 469.961 118.319 468.855 117.193" stroke="black" stroke-width="2.78688" stroke-linecap="round"/>
<path d="M471.902 112.907L475.349 111.936C475.571 111.874 475.8 112.011 475.848 112.237C476.522 115.419 477.834 120.916 477.95 122.435" stroke="black" stroke-width="2.78688" stroke-linecap="round"/>
<path d="M421.746 177.377C425.648 173.356 428.574 167.05 428.468 157.097C428.145 126.764 437.652 106.363 462.143 103.529C475.67 101.964 482.09 105.182 483.222 112.715C484.499 121.221 478.003 125.677 465.776 127.354C448.91 129.668 449.761 147.851 450.063 161.641C450.264 170.794 447.812 182.431 440.127 191.45" stroke="black" stroke-width="3.98126" stroke-linecap="round"/>
<circle cx="4.97657" cy="4.97657" r="3.58313" transform="matrix(-0.983937 0.178516 0.178516 0.983937 454.905 115.101)" stroke="black" stroke-width="2.78688"/>
<circle cx="4.97657" cy="4.97657" r="3.58313" transform="matrix(-0.908377 0.418152 0.418152 0.908377 448.896 138.092)" stroke="black" stroke-width="2.78688"/>
<circle cx="4.97657" cy="4.97657" r="3.58313" transform="matrix(0.653805 -0.756663 -0.756663 -0.653805 439.099 173.301)" stroke="black" stroke-width="2.78688"/>
<path d="M447.567 118.199C446.569 116.956 443.387 114.426 441.851 113.695" stroke="black" stroke-width="2.78688" stroke-linecap="round"/>
<path d="M442.716 144.332C438.734 143.337 433.161 142.541 428.856 142.45" stroke="black" stroke-width="2.78688" stroke-linecap="round"/>
<path d="M437.558 142.158L438.956 137.902C439.028 137.682 438.9 137.448 438.676 137.393C435.66 136.659 431.763 135.981 430.252 135.8" stroke="black" stroke-width="2.78688" stroke-linecap="round"/>
<path d="M442.822 187.056C441.264 185.478 439.858 184.171 438.297 183.465C438.129 183.389 437.933 183.447 437.825 183.596C437.344 184.263 435.987 186.103 434.711 187.484C433.884 188.379 433.51 188.823 432.763 189.52" stroke="black" stroke-width="2.78688" stroke-linecap="round"/>
<path d="M443.402 167.306C444.108 167.459 447.163 167.815 449.086 167.822" stroke="black" stroke-width="2.78688" stroke-linecap="round"/>
<path fill-rule="evenodd" clip-rule="evenodd" d="M425.305 186.849L427.458 188.624C429.133 186.722 429.119 183.824 427.351 181.937C425.472 179.931 422.323 179.828 420.317 181.707C420.12 181.892 419.941 182.089 419.781 182.296L421.934 184.071C422.017 183.953 422.113 183.843 422.222 183.741C423.105 182.914 424.491 182.96 425.317 183.842C426.115 184.694 426.101 186.015 425.305 186.849Z" fill="black"/>
<path d="M404.533 128.235L416.245 128.842L418.094 136.142L404.293 135.101L404.533 128.235Z" fill="#FFDE28"/>
<circle cx="5.22679" cy="5.22679" r="3.8717" transform="matrix(-0.993044 -0.117748 -0.117748 0.993044 399.878 123.529)" stroke="black" stroke-width="2.71019"/>
<circle cx="5.22679" cy="5.22679" r="3.8717" transform="matrix(-0.810774 0.58536 0.58536 0.810774 387.177 140.979)" stroke="black" stroke-width="2.71019"/>
<circle cx="5.22679" cy="5.22679" r="3.8717" transform="matrix(-0.8055 0.592596 0.592596 0.8055 382.843 103.581)" stroke="black" stroke-width="2.71019"/>
<path d="M389.919 148.456C395.877 148.152 410.035 149.009 419.498 149.983" stroke="black" stroke-width="2.71019" stroke-linecap="round"/>
<path d="M386.013 111.243C393.369 110.801 402.834 110.7 412.139 110.865" stroke="black" stroke-width="2.71019" stroke-linecap="round"/>
<path d="M398.577 128.247C402.36 128.135 399.439 128.252 404.29 128.28M404.29 128.28C404.662 131.684 404.582 132.362 404.51 135.278C404.501 135.608 404.754 135.886 405.083 135.907C407.349 136.054 412.95 136.351 416.572 136.533M404.29 128.28C406.146 128.291 411.978 128.293 415.973 128.493" stroke="black" stroke-width="2.71019" stroke-linecap="round"/>
<path d="M382.077 57.7159C379.063 56.5739 377.336 63.8087 376.763 68.1223C376.712 68.509 376.927 68.8777 377.285 69.0334L386.567 73.0728C387.201 73.3489 387.89 72.8267 387.777 72.144C386.931 67.0023 384.936 58.7994 382.077 57.7159Z" fill="#FFDE28" stroke="black" stroke-width="3.0662"/>
<path d="M216.627 14.4379C226.136 7.60185 241.264 -1.555 247.634 3.42158C252.34 7.09814 251.018 15.9623 249.227 24.7209C261.329 26.0484 281.475 29.9355 300.187 36.2666C326.662 45.2244 351.062 55.0593 358.559 60.8196C361.498 55.7751 363.034 52.373 366.873 47.4145C371.65 41.2435 375.035 38.6553 381.803 43.0347C387.217 46.5382 395.14 59.9554 398.524 67.5197C400.159 71.1742 405.156 84.0806 406.374 88.539C407.746 93.5559 422.68 125.862 421.662 185.234" stroke="black" stroke-width="3.98126" stroke-linecap="round"/>
<path d="M86.8101 74.0729L458.043 198.101" stroke="black" stroke-width="2.78688" stroke-linecap="round"/>
<path d="M260.086 159.323L218.806 144.447C218.518 144.343 218.202 144.354 217.922 144.477L194.868 154.578C193.882 155.01 193.926 156.424 194.937 156.794L237.804 172.464C238.893 172.862 240.102 172.765 241.114 172.199L260.264 161.489C261.158 160.989 261.05 159.67 260.086 159.323Z" fill="#4D4D4D" stroke="black" stroke-width="2.78688"/>
<path d="M307.552 143.232L366.674 156.674L363.337 168.712L350.796 180.655L321.135 195.983L299.637 191.006L292.67 177.271L297.447 156.768L302.376 152.096L307.552 143.232Z" fill="#F8F8F8"/>
<path d="M142.775 91.4752H206.475L205.433 114.473L185.374 125.316L157.108 134.075L137.4 126.311L137.002 108.396L137.95 104.122L142.775 91.4752Z" fill="#F8F8F8"/>
<path fill-rule="evenodd" clip-rule="evenodd" d="M164.884 59.4905C165.241 60.1144 165.733 60.6743 166.352 61.1237C168.688 62.8192 171.957 62.2997 173.652 59.9633C175.347 57.627 174.828 54.3586 172.492 52.6632C172.149 52.4143 171.786 52.2132 171.41 52.0585L169.374 54.3772C169.903 54.3668 170.439 54.5223 170.9 54.8567C172.025 55.673 172.275 57.2467 171.459 58.3716C170.642 59.4964 169.069 59.7466 167.944 58.9303C167.347 58.4972 166.996 57.851 166.921 57.1717L164.884 59.4905Z" fill="black"/>
<circle cx="163.394" cy="74.4902" r="3.8717" transform="rotate(76.5454 163.394 74.4902)" stroke="black" stroke-width="2.71019"/>
<circle cx="187.882" cy="51.9928" r="3.8717" transform="rotate(77.2324 187.882 51.9928)" stroke="black" stroke-width="2.71019"/>
<path d="M160.306 72.0691C159.614 71.5768 158.806 71.0519 157.907 70.5051" stroke="black" stroke-width="2.71019" stroke-linecap="round"/>
<path d="M184.47 48.4443C183.855 47.7344 182.038 45.8516 180.915 44.9234" stroke="black" stroke-width="2.71019" stroke-linecap="round"/>
<path d="M216.03 14.836C169.649 44.8945 122.654 107.002 139.391 127.306C151.534 142.037 191.346 127.506 205.48 113.77" stroke="black" stroke-width="3.98126" stroke-linecap="round"/>
<path fill-rule="evenodd" clip-rule="evenodd" d="M149.899 114.188C147.472 114.227 145.473 112.291 145.434 109.865C145.428 109.536 145.459 109.215 145.523 108.906C142.928 107.717 140.224 106.752 137.518 105.97L138.076 104.127C140.846 104.93 143.631 105.922 146.316 107.152C147.103 106.106 148.347 105.422 149.757 105.4C152.184 105.36 154.183 107.296 154.222 109.723C154.261 112.15 152.325 114.149 149.899 114.188ZM141.607 91.8033L141.858 91.6388L140.931 94.6982C141.198 97.0105 143.237 98.7302 145.585 98.5759C148.007 98.4167 149.841 96.3243 149.682 93.9024C149.523 91.4804 147.431 89.6461 145.009 89.8053C143.568 89.9 142.336 90.6784 141.607 91.8033ZM149.871 112.47C148.508 112.492 147.162 111.235 147.14 109.871C147.118 108.507 148.375 107.161 149.739 107.139C151.103 107.117 152.448 108.374 152.47 109.738C152.492 111.102 151.235 112.448 149.871 112.47ZM140.121 124.805C137.699 124.965 135.607 123.13 135.447 120.708C135.288 118.286 137.122 116.194 139.544 116.035C141.966 115.876 144.059 117.71 144.218 120.132C144.377 122.554 142.543 124.646 140.121 124.805ZM139.995 122.884C138.634 122.974 137.458 121.943 137.368 120.582C137.279 119.221 138.31 118.045 139.671 117.956C141.032 117.866 142.208 118.897 142.297 120.258C142.386 121.619 141.356 122.795 139.995 122.884ZM145.459 96.655C144.098 96.7444 142.922 95.7136 142.833 94.3526C142.743 92.9915 143.774 91.8157 145.135 91.7262C146.496 91.6368 147.672 92.6676 147.761 94.0286C147.851 95.3896 146.82 96.5655 145.459 96.655Z" fill="black"/>
<path d="M145.434 109.865L145.095 109.87L145.095 109.87L145.434 109.865ZM149.899 114.188L149.904 114.526L149.904 114.526L149.899 114.188ZM145.523 108.906L145.664 108.598L145.908 108.71L145.854 108.974L145.523 108.906ZM137.518 105.97L137.424 106.295L137.095 106.2L137.194 105.872L137.518 105.97ZM138.076 104.127L137.752 104.029L137.849 103.709L138.17 103.802L138.076 104.127ZM146.316 107.152L146.586 107.355L146.422 107.573L146.175 107.459L146.316 107.152ZM149.757 105.4L149.762 105.738L149.757 105.4ZM154.222 109.723L154.56 109.717L154.56 109.717L154.222 109.723ZM141.607 91.8033L141.792 92.0864L141.323 91.6193L141.607 91.8033ZM141.858 91.6388L141.672 91.3558L142.452 90.8453L142.182 91.7369L141.858 91.6388ZM140.931 94.6982L140.595 94.737L140.587 94.6673L140.608 94.6001L140.931 94.6982ZM145.585 98.5759L145.563 98.2382L145.585 98.5759ZM149.682 93.9024L150.02 93.8802L149.682 93.9024ZM145.009 89.8053L145.031 90.143L145.009 89.8053ZM147.14 109.871L147.478 109.865L147.14 109.871ZM149.871 112.47L149.877 112.808L149.871 112.47ZM149.739 107.139L149.744 107.478L149.744 107.478L149.739 107.139ZM152.47 109.738L152.132 109.744L152.47 109.738ZM135.447 120.708L135.11 120.731L135.11 120.731L135.447 120.708ZM140.121 124.805L140.143 125.143L140.121 124.805ZM139.544 116.035L139.567 116.372L139.544 116.035ZM144.218 120.132L144.556 120.11L144.556 120.11L144.218 120.132ZM137.368 120.582L137.706 120.56L137.706 120.56L137.368 120.582ZM139.995 122.884L139.972 122.547L139.972 122.547L139.995 122.884ZM139.671 117.956L139.693 118.293L139.671 117.956ZM142.297 120.258L141.959 120.28L141.959 120.28L142.297 120.258ZM142.833 94.3526L143.17 94.3304L142.833 94.3526ZM145.459 96.655L145.437 96.3173L145.459 96.655ZM145.135 91.7262L145.157 92.0639L145.157 92.0639L145.135 91.7262ZM147.761 94.0286L148.099 94.0064L147.761 94.0286ZM145.772 109.859C145.808 112.099 147.653 113.886 149.893 113.85L149.904 114.526C147.29 114.568 145.137 112.484 145.095 109.87L145.772 109.859ZM145.854 108.974C145.796 109.259 145.767 109.555 145.772 109.859L145.095 109.87C145.09 109.516 145.123 109.171 145.191 108.838L145.854 108.974ZM137.612 105.645C140.331 106.431 143.051 107.401 145.664 108.598L145.382 109.213C142.804 108.033 140.116 107.074 137.424 106.295L137.612 105.645ZM138.4 104.225L137.842 106.068L137.194 105.872L137.752 104.029L138.4 104.225ZM146.175 107.459C143.508 106.238 140.739 105.251 137.982 104.452L138.17 103.802C140.954 104.608 143.754 105.607 146.457 106.844L146.175 107.459ZM149.762 105.738C148.461 105.759 147.313 106.39 146.586 107.355L146.045 106.948C146.893 105.823 148.233 105.086 149.751 105.061L149.762 105.738ZM153.884 109.728C153.847 107.488 152.002 105.702 149.762 105.738L149.751 105.061C152.365 105.019 154.518 107.104 154.56 109.717L153.884 109.728ZM149.893 113.85C152.133 113.813 153.92 111.968 153.884 109.728L154.56 109.717C154.602 112.331 152.518 114.484 149.904 114.526L149.893 113.85ZM141.421 91.5203L141.672 91.3558L142.043 91.9219L141.792 92.0864L141.421 91.5203ZM142.182 91.7369L141.255 94.7963L140.608 94.6001L141.534 91.5408L142.182 91.7369ZM141.268 94.6594C141.514 96.7934 143.396 98.3807 145.563 98.2382L145.607 98.9136C143.078 99.0798 140.883 97.2276 140.595 94.737L141.268 94.6594ZM145.563 98.2382C147.798 98.0913 149.491 96.16 149.345 93.9246L150.02 93.8802C150.191 96.4886 148.216 98.7421 145.607 98.9136L145.563 98.2382ZM149.345 93.9246C149.198 91.6891 147.266 89.9961 145.031 90.143L144.986 89.4676C147.595 89.2962 149.848 91.2717 150.02 93.8802L149.345 93.9246ZM145.031 90.143C143.702 90.2304 142.564 90.9483 141.891 91.9874L141.323 91.6193C142.107 90.4086 143.435 89.5696 144.986 89.4676L145.031 90.143ZM147.478 109.865C147.488 110.438 147.777 111.011 148.235 111.444C148.693 111.877 149.288 112.141 149.866 112.131L149.877 112.808C149.091 112.821 148.332 112.467 147.77 111.936C147.208 111.405 146.814 110.667 146.802 109.876L147.478 109.865ZM149.744 107.478C149.171 107.487 148.599 107.777 148.166 108.234C147.733 108.692 147.469 109.287 147.478 109.865L146.802 109.876C146.789 109.09 147.143 108.331 147.674 107.769C148.205 107.208 148.943 106.814 149.733 106.801L149.744 107.478ZM152.132 109.744C152.123 109.171 151.833 108.598 151.375 108.165C150.918 107.732 150.322 107.468 149.744 107.478L149.733 106.801C150.519 106.788 151.279 107.142 151.84 107.673C152.402 108.204 152.796 108.942 152.809 109.733L152.132 109.744ZM149.866 112.131C150.439 112.122 151.012 111.832 151.445 111.375C151.878 110.917 152.141 110.322 152.132 109.744L152.809 109.733C152.821 110.519 152.467 111.278 151.936 111.84C151.405 112.401 150.668 112.795 149.877 112.808L149.866 112.131ZM135.785 120.686C135.932 122.922 137.863 124.615 140.099 124.468L140.143 125.143C137.535 125.314 135.281 123.339 135.11 120.731L135.785 120.686ZM139.567 116.372C137.331 116.519 135.638 118.451 135.785 120.686L135.11 120.731C134.938 118.122 136.914 115.869 139.522 115.697L139.567 116.372ZM143.88 120.154C143.733 117.919 141.802 116.226 139.567 116.372L139.522 115.697C142.131 115.526 144.384 117.501 144.556 120.11L143.88 120.154ZM140.099 124.468C142.334 124.321 144.027 122.389 143.88 120.154L144.556 120.11C144.727 122.718 142.751 124.972 140.143 125.143L140.099 124.468ZM137.706 120.56C137.783 121.734 138.798 122.624 139.972 122.547L140.017 123.222C138.469 123.324 137.132 122.152 137.031 120.604L137.706 120.56ZM139.693 118.293C138.518 118.371 137.629 119.385 137.706 120.56L137.031 120.604C136.929 119.057 138.101 117.72 139.648 117.618L139.693 118.293ZM141.959 120.28C141.882 119.106 140.867 118.216 139.693 118.293L139.648 117.618C141.196 117.516 142.533 118.688 142.635 120.236L141.959 120.28ZM139.972 122.547C141.147 122.47 142.036 121.455 141.959 120.28L142.635 120.236C142.736 121.783 141.564 123.12 140.017 123.222L139.972 122.547ZM143.17 94.3304C143.247 95.5049 144.262 96.3945 145.437 96.3173L145.481 96.9926C143.934 97.0943 142.597 95.9223 142.495 94.3748L143.17 94.3304ZM145.157 92.0639C143.983 92.1411 143.093 93.1558 143.17 94.3304L142.495 94.3748C142.393 92.8272 143.565 91.4903 145.113 91.3886L145.157 92.0639ZM147.424 94.0508C147.346 92.8763 146.332 91.9867 145.157 92.0639L145.113 91.3886C146.66 91.2868 147.997 92.4589 148.099 94.0064L147.424 94.0508ZM145.437 96.3173C146.611 96.2401 147.501 95.2253 147.424 94.0508L148.099 94.0064C148.201 95.5539 147.029 96.8909 145.481 96.9926L145.437 96.3173Z" fill="black"/>
<path d="M363.735 166.92C355.064 180.242 320.14 206.392 299.039 190.011C290.233 183.174 291.296 164.998 305.313 147.412C306.821 145.52 308.447 143.656 310.187 141.838" stroke="black" stroke-width="3.98126" stroke-linecap="round"/>
<ellipse cx="216.113" cy="83.3741" rx="6.74425" ry="12.2842" transform="rotate(-69.5962 216.113 83.3741)" fill="#FFDE28"/>
<ellipse cx="318.183" cy="117.511" rx="6.74425" ry="12.2842" transform="rotate(-75.6503 318.183 117.511)" fill="#FFDE28"/>
<ellipse cx="231.974" cy="83.8648" rx="6.74425" ry="12.2842" transform="rotate(-69.7616 231.974 83.8648)" fill="black"/>
<ellipse cx="306.45" cy="108.625" rx="6.74425" ry="12.2842" transform="rotate(109.388 306.45 108.625)" fill="black"/>
<path d="M205.754 128.423L242.793 223.989C243.163 224.942 242.243 225.888 241.28 225.546L67.1106 163.715C66.7898 163.601 66.5328 163.355 66.4042 163.04L28.3797 69.8123C27.993 68.8643 28.9003 67.901 29.8697 68.2303L205.024 127.724C205.359 127.838 205.626 128.094 205.754 128.423Z" fill="#222222" stroke="black" stroke-width="2.78688" stroke-linecap="round"/>
<g filter="url(#filter0_i_184_199)">
<path fill-rule="evenodd" clip-rule="evenodd" d="M131.565 129.658C130.918 129.34 130.15 129.4 129.561 129.816L116.544 139.002C115.976 139.402 115.662 140.072 115.716 140.764L117.002 157.08C117.057 157.772 117.472 158.385 118.095 158.691L132.391 165.725C133.038 166.043 133.806 165.982 134.395 165.567L147.413 156.381C147.98 155.98 148.295 155.31 148.24 154.618L146.954 138.302C146.899 137.61 146.484 136.998 145.861 136.691L131.565 129.658ZM125.695 137.778C126.209 137.367 126.896 137.031 127.514 136.89C128.825 136.588 130.265 136.936 131.325 137.809C132.188 138.519 132.792 139.575 132.97 140.68L133.032 141.065L134.375 140.971L135.718 140.876L135.608 139.485L135.499 138.093L137.76 137.915L140.021 137.736L140.093 138.649L140.165 139.562L138.813 139.669L137.46 139.775L137.717 143.036L137.974 146.297L139.327 146.19L140.679 146.083L140.751 146.996L140.823 147.909L139.471 148.016L138.118 148.123L138.375 151.383L138.632 154.644L139.985 154.537L141.337 154.431L141.409 155.344L141.481 156.257L139.22 156.435L136.958 156.613L136.849 155.221L136.739 153.829L135.398 153.947L134.057 154.064L134.056 154.454C134.052 156.347 132.879 158.087 131.16 158.75C129.884 159.243 128.521 159.14 127.325 158.46C126.615 158.056 125.892 157.29 125.538 156.567C125.429 156.345 125.405 156.324 125.174 156.248C124.425 156.002 123.576 155.387 123.078 154.728C121.94 153.228 121.788 151.233 122.682 149.536C122.761 149.385 122.998 149.057 123.208 148.806L123.59 148.349L123.141 147.958C122.894 147.743 122.609 147.455 122.507 147.319C121.359 145.783 121.196 143.789 122.085 142.129C122.474 141.4 123.216 140.66 123.917 140.299C124.134 140.188 124.153 140.164 124.226 139.927C124.463 139.158 125.057 138.288 125.695 137.778ZM131.162 140.855C130.933 139.793 130.193 139.013 129.137 138.719C128.8 138.625 128.015 138.656 127.666 138.777C127.111 138.969 126.522 139.438 126.221 139.928C125.884 140.477 125.758 141.111 125.85 141.802C125.937 142.454 126.17 142.936 126.627 143.409L126.882 143.673L126.357 144.391C126.069 144.787 125.818 145.111 125.801 145.113C125.743 145.117 125.187 144.573 125.004 144.333C124.641 143.856 124.272 143.119 124.179 142.683C124.156 142.576 124.121 142.489 124.101 142.491C124.033 142.496 123.736 142.913 123.596 143.198C123.368 143.664 123.312 144.014 123.362 144.649C123.41 145.25 123.471 145.445 123.766 145.93C124.211 146.664 125.019 147.146 125.895 147.201C126.092 147.214 126.973 147.164 128.044 147.079L129.858 146.936L129.93 147.849L130.002 148.762L128.188 148.905C127.117 148.99 126.239 149.078 126.046 149.121C125 149.356 124.234 150.138 123.962 151.251C123.871 151.622 123.946 152.479 124.104 152.88C124.243 153.232 124.509 153.624 124.781 153.876C124.997 154.077 125.064 154.097 125.053 153.96C125.04 153.796 125.133 153.332 125.258 152.942C125.406 152.476 125.779 151.771 126.037 151.468L126.228 151.243L126.727 151.72C127.002 151.982 127.298 152.263 127.385 152.345L127.543 152.494L127.367 152.737C126.618 153.773 126.678 155.285 127.508 156.254C127.896 156.707 128.548 157.068 129.156 157.165C129.551 157.229 130.239 157.144 130.577 156.99C131.572 156.538 132.182 155.649 132.242 154.565C132.269 154.085 131.263 141.324 131.162 140.855ZM136.157 146.441L136.009 144.571L135.862 142.701L134.529 142.806C133.501 142.887 133.192 142.924 133.18 142.967C133.171 142.998 133.233 143.835 133.317 144.826L133.471 146.63L134.814 146.535L136.157 146.441ZM136.595 152.006L136.448 150.136L136.3 148.266L134.968 148.371C133.94 148.452 133.631 148.489 133.619 148.532C133.61 148.563 133.672 149.399 133.756 150.391L133.909 152.195L135.252 152.1L136.595 152.006Z" fill="#FFDE28"/>
</g>
<path d="M269.415 47.8889C276.019 49.3118 283.64 51.1434 294.319 54.7337C304.997 58.324 310.229 60.5476 316.194 63.1508" stroke="black" stroke-width="2.78688" stroke-linecap="round"/>
<circle cx="265.526" cy="47.5487" r="3.78219" transform="rotate(15.7532 265.526 47.5487)" stroke="black" stroke-width="2.78688"/>
<circle cx="320.377" cy="65.1255" r="3.78219" transform="rotate(15.7532 320.377 65.1255)" stroke="black" stroke-width="2.78688"/>
<path d="M263.004 36.2924C272.658 38.015 281.399 39.8533 298.064 45.4391C314.729 51.0249 322.658 54.4477 330.147 57.7809" stroke="black" stroke-width="2.78688" stroke-linecap="round"/>
<circle cx="334.413" cy="59.4558" r="3.78219" transform="rotate(16.6093 334.413 59.4558)" stroke="black" stroke-width="2.78688"/>
<circle cx="258.799" cy="35.2992" r="3.78219" transform="rotate(16.6093 258.799 35.2992)" stroke="black" stroke-width="2.78688"/>
<path d="M252.368 77.6165C251.998 78.1261 251.086 78.5504 249.421 78.3339C247.817 78.1252 245.844 77.3383 243.942 75.9582C242.04 74.578 240.68 72.9471 239.983 71.4866C239.261 69.9711 239.381 68.9729 239.751 68.4632C240.121 67.9536 241.032 67.5293 242.697 67.7458C244.302 67.9545 246.274 68.7414 248.177 70.1215C250.079 71.5017 251.439 73.1326 252.135 74.5931C252.858 76.1086 252.737 77.1068 252.368 77.6165Z" stroke="black" stroke-width="2.78688"/>
<path d="M297.268 91.2609C297.24 91.8899 297.688 92.7898 299.125 93.6584C300.51 94.4955 302.543 95.1098 304.891 95.2166C307.238 95.3233 309.319 94.896 310.774 94.188C312.284 93.4534 312.812 92.5978 312.84 91.9688C312.869 91.3398 312.421 90.4399 310.984 89.5713C309.599 88.7342 307.566 88.1199 305.218 88.0132C302.87 87.9064 300.79 88.3337 299.335 89.0417C297.825 89.7763 297.297 90.6319 297.268 91.2609Z" stroke="black" stroke-width="2.78688"/>
<path d="M253.009 102.529C253.009 101.759 252.385 101.135 251.615 101.135C250.846 101.135 250.222 101.759 250.222 102.529L253.009 102.529ZM264.156 105.515L265.549 105.49C265.539 104.933 265.198 104.435 264.682 104.225C264.167 104.014 263.575 104.131 263.178 104.522L264.156 105.515ZM276.44 112.27C277.093 111.863 277.292 111.003 276.884 110.35C276.476 109.698 275.616 109.499 274.964 109.907L276.44 112.27ZM256.77 106.842L256.474 108.203L256.77 106.842ZM268.802 110.794L268.239 112.069L268.802 110.794ZM250.222 102.529C250.222 104.001 251.112 105.274 252.196 106.185C253.311 107.122 254.812 107.842 256.474 108.203L257.066 105.48C255.794 105.204 254.718 104.664 253.989 104.051C253.229 103.413 253.009 102.848 253.009 102.529L250.222 102.529ZM256.474 108.203C257.981 108.531 259.632 108.572 261.133 108.323C262.607 108.078 264.103 107.524 265.134 106.507L263.178 104.522C262.716 104.978 261.855 105.378 260.677 105.574C259.527 105.765 258.231 105.733 257.066 105.48L256.474 108.203ZM262.763 105.54C262.815 108.441 265.318 110.778 268.239 112.069L269.366 109.52C266.793 108.383 265.572 106.744 265.549 105.49L262.763 105.54ZM268.239 112.069C269.754 112.739 271.432 112.988 272.849 112.996C273.563 113 274.24 112.943 274.828 112.834C275.384 112.73 275.976 112.56 276.44 112.27L274.964 109.907C274.967 109.905 274.955 109.913 274.923 109.927C274.892 109.941 274.848 109.958 274.79 109.977C274.672 110.016 274.515 110.057 274.32 110.093C273.927 110.166 273.428 110.212 272.864 110.209C271.726 110.203 270.447 109.998 269.366 109.52L268.239 112.069Z" fill="black"/>
<path fill-rule="evenodd" clip-rule="evenodd" d="M327.602 178.735C328.737 181.134 331.602 182.16 334.002 181.025C334.327 180.872 334.627 180.686 334.899 180.474C337.049 182.225 339.067 184.146 340.946 186.148L342.688 184.929C340.699 182.792 338.546 180.73 336.237 178.849C336.882 177.571 336.952 176.02 336.293 174.626C335.158 172.226 332.293 171.2 329.893 172.335C327.493 173.47 326.468 176.335 327.602 178.735ZM331.067 190.677C331.006 190.377 330.916 190.079 330.795 189.785C329.781 187.332 326.97 186.166 324.517 187.181C322.064 188.195 320.897 191.006 321.912 193.459C321.97 193.599 322.033 193.734 322.102 193.866L324.123 193.147C324.02 192.995 323.93 192.831 323.858 192.654C323.287 191.276 323.943 189.696 325.321 189.126C326.7 188.556 328.279 189.212 328.849 190.59C328.959 190.854 329.023 191.126 329.046 191.396L331.067 190.677ZM329.301 177.931C329.939 179.279 331.822 179.992 333.171 179.354C334.52 178.717 335.232 176.833 334.595 175.484C333.957 174.136 332.073 173.423 330.725 174.061C329.376 174.698 328.664 176.582 329.301 177.931ZM345.004 175.42C346.018 177.873 348.829 179.04 351.282 178.025C353.735 177.011 354.901 174.2 353.887 171.747C352.872 169.294 350.061 168.127 347.608 169.142C345.155 170.156 343.989 172.967 345.004 175.42ZM346.949 174.616C347.519 175.994 349.099 176.65 350.477 176.079C351.856 175.509 352.511 173.93 351.941 172.551C351.371 171.173 349.791 170.517 348.413 171.088C347.034 171.658 346.379 173.237 346.949 174.616Z" fill="black"/>
<path d="M334.002 181.025L334.146 181.331L334.002 181.025ZM327.602 178.735L327.296 178.879L327.296 178.879L327.602 178.735ZM334.899 180.474L335.113 180.212L334.905 180.042L334.692 180.207L334.899 180.474ZM340.946 186.148L340.699 186.38L340.9 186.594L341.14 186.425L340.946 186.148ZM342.688 184.929L342.882 185.206L343.201 184.983L342.936 184.698L342.688 184.929ZM336.237 178.849L335.935 178.696L335.812 178.939L336.023 179.111L336.237 178.849ZM336.293 174.626L336.599 174.481L336.599 174.481L336.293 174.626ZM329.893 172.335L329.748 172.029L329.748 172.029L329.893 172.335ZM330.795 189.785L330.482 189.915L330.482 189.915L330.795 189.785ZM331.067 190.677L331.18 190.996L331.457 190.898L331.399 190.61L331.067 190.677ZM324.517 187.181L324.387 186.868L324.387 186.868L324.517 187.181ZM321.912 193.459L322.225 193.33L322.225 193.33L321.912 193.459ZM322.102 193.866L321.803 194.023L321.94 194.283L322.216 194.185L322.102 193.866ZM324.123 193.147L324.237 193.466L324.65 193.319L324.403 192.956L324.123 193.147ZM323.858 192.654L324.17 192.525L324.17 192.525L323.858 192.654ZM325.321 189.126L325.451 189.439L325.451 189.439L325.321 189.126ZM328.849 190.59L328.537 190.719L328.849 190.59ZM329.046 191.396L328.709 191.424L328.745 191.862L329.159 191.715L329.046 191.396ZM333.171 179.354L333.026 179.048L333.171 179.354ZM329.301 177.931L328.995 178.075L328.995 178.075L329.301 177.931ZM334.595 175.484L334.9 175.34L334.595 175.484ZM330.725 174.061L330.869 174.367L330.869 174.367L330.725 174.061ZM345.004 175.42L345.316 175.291L345.004 175.42ZM353.887 171.747L353.574 171.876L353.887 171.747ZM347.608 169.142L347.479 168.829L347.608 169.142ZM350.477 176.079L350.607 176.392L350.477 176.079ZM346.949 174.616L347.262 174.486L346.949 174.616ZM351.941 172.551L351.628 172.681L351.628 172.681L351.941 172.551ZM348.413 171.088L348.542 171.4L348.413 171.088ZM333.857 180.719C331.626 181.774 328.963 180.821 327.908 178.59L327.296 178.879C328.511 181.448 331.578 182.546 334.146 181.331L333.857 180.719ZM334.692 180.207C334.439 180.404 334.16 180.576 333.857 180.719L334.146 181.331C334.494 181.167 334.815 180.969 335.107 180.742L334.692 180.207ZM341.193 185.917C339.305 183.905 337.276 181.974 335.113 180.212L334.686 180.737C336.822 182.477 338.829 184.387 340.699 186.38L341.193 185.917ZM342.494 184.652L340.752 185.871L341.14 186.425L342.882 185.206L342.494 184.652ZM336.023 179.111C338.319 180.981 340.46 183.032 342.44 185.159L342.936 184.698C340.938 182.552 338.774 180.479 336.451 178.586L336.023 179.111ZM335.987 174.77C336.599 176.066 336.535 177.508 335.935 178.696L336.539 179.001C337.229 177.634 337.304 175.973 336.599 174.481L335.987 174.77ZM330.038 172.641C332.268 171.586 334.932 172.54 335.987 174.77L336.599 174.481C335.384 171.912 332.317 170.815 329.748 172.029L330.038 172.641ZM327.908 178.59C326.853 176.359 327.807 173.696 330.038 172.641L329.748 172.029C327.18 173.244 326.082 176.31 327.296 178.879L327.908 178.59ZM330.482 189.915C330.595 190.188 330.679 190.465 330.735 190.744L331.399 190.61C331.334 190.289 331.237 189.97 331.108 189.656L330.482 189.915ZM324.646 187.493C326.926 186.55 329.539 187.634 330.482 189.915L331.108 189.656C330.022 187.03 327.013 185.782 324.387 186.868L324.646 187.493ZM322.225 193.33C321.282 191.049 322.366 188.436 324.646 187.493L324.387 186.868C321.762 187.954 320.513 190.963 321.599 193.588L322.225 193.33ZM322.402 193.708C322.338 193.586 322.278 193.46 322.225 193.33L321.599 193.588C321.661 193.738 321.729 193.883 321.803 194.023L322.402 193.708ZM324.01 192.828L321.989 193.547L322.216 194.185L324.237 193.466L324.01 192.828ZM324.403 192.956C324.312 192.824 324.234 192.68 324.17 192.525L323.545 192.784C323.627 192.982 323.727 193.167 323.844 193.338L324.403 192.956ZM324.17 192.525C323.672 191.319 324.245 189.938 325.451 189.439L325.192 188.814C323.641 189.455 322.903 191.233 323.545 192.784L324.17 192.525ZM325.451 189.439C326.656 188.94 328.038 189.514 328.537 190.719L329.162 190.461C328.521 188.909 326.743 188.172 325.192 188.814L325.451 189.439ZM328.537 190.719C328.633 190.951 328.689 191.188 328.709 191.424L329.383 191.368C329.357 191.063 329.285 190.757 329.162 190.461L328.537 190.719ZM330.954 190.358L328.932 191.077L329.159 191.715L331.18 190.996L330.954 190.358ZM333.026 179.048C332.451 179.32 331.739 179.312 331.087 179.07C330.435 178.828 329.882 178.366 329.607 177.786L328.995 178.075C329.358 178.844 330.065 179.413 330.852 179.705C331.638 179.996 332.543 180.026 333.316 179.66L333.026 179.048ZM334.289 175.629C334.561 176.205 334.552 176.916 334.31 177.568C334.068 178.22 333.607 178.774 333.026 179.048L333.316 179.66C334.084 179.297 334.653 178.59 334.945 177.804C335.237 177.017 335.266 176.113 334.9 175.34L334.289 175.629ZM330.869 174.367C331.445 174.095 332.156 174.103 332.808 174.345C333.461 174.587 334.014 175.049 334.289 175.629L334.9 175.34C334.537 174.571 333.83 174.002 333.044 173.711C332.258 173.419 331.353 173.39 330.58 173.755L330.869 174.367ZM329.607 177.786C329.335 177.21 329.343 176.499 329.585 175.847C329.828 175.195 330.289 174.641 330.869 174.367L330.58 173.755C329.812 174.118 329.243 174.825 328.951 175.611C328.659 176.398 328.63 177.302 328.995 178.075L329.607 177.786ZM351.153 177.712C348.872 178.655 346.259 177.571 345.316 175.291L344.691 175.55C345.777 178.175 348.786 179.424 351.411 178.338L351.153 177.712ZM353.574 171.876C354.517 174.156 353.433 176.769 351.153 177.712L351.411 178.338C354.037 177.252 355.285 174.243 354.199 171.617L353.574 171.876ZM347.738 169.455C350.018 168.512 352.631 169.596 353.574 171.876L354.199 171.617C353.114 168.992 350.105 167.743 347.479 168.829L347.738 169.455ZM345.316 175.291C344.373 173.011 345.457 170.398 347.738 169.455L347.479 168.829C344.853 169.915 343.605 172.924 344.691 175.55L345.316 175.291ZM350.348 175.767C349.142 176.265 347.761 175.692 347.262 174.486L346.636 174.745C347.278 176.296 349.055 177.034 350.607 176.392L350.348 175.767ZM351.628 172.681C352.127 173.886 351.554 175.268 350.348 175.767L350.607 176.392C352.158 175.751 352.895 173.973 352.254 172.422L351.628 172.681ZM348.542 171.4C349.748 170.902 351.13 171.475 351.628 172.681L352.254 172.422C351.612 170.871 349.835 170.133 348.284 170.775L348.542 171.4ZM347.262 174.486C346.763 173.281 347.336 171.899 348.542 171.4L348.284 170.775C346.732 171.416 345.995 173.194 346.636 174.745L347.262 174.486Z" fill="black"/>
<path d="M234.696 12.856C237.231 13.6738 234.586 19.2617 232.738 22.3185C232.583 22.5745 232.297 22.7168 231.999 22.6943L221.694 21.9195C220.997 21.8671 220.706 21.0282 221.239 20.5759C224.989 17.3924 232.372 12.1064 234.696 12.856Z" fill="#FFDE28" stroke="black" stroke-width="2.78688"/>
<defs>
<filter id="filter0_i_184_199" x="115.71" y="129.456" width="32.5361" height="37.2092" filterUnits="userSpaceOnUse" color-interpolation-filters="sRGB">
<feFlood flood-opacity="0" result="BackgroundImageFix"/>
<feBlend mode="normal" in="SourceGraphic" in2="BackgroundImageFix" result="shape"/>
<feColorMatrix in="SourceAlpha" type="matrix" values="0 0 0 0 0 0 0 0 0 0 0 0 0 0 0 0 0 0 127 0" result="hardAlpha"/>
<feOffset dy="0.738108"/>
<feGaussianBlur stdDeviation="0.430563"/>
<feComposite in2="hardAlpha" operator="arithmetic" k2="-1" k3="1"/>
<feColorMatrix type="matrix" values="0 0 0 0 0 0 0 0 0 0 0 0 0 0 0 0 0 0 0.4 0"/>
<feBlend mode="normal" in2="shape" result="effect1_innerShadow_184_199"/>
</filter>
<linearGradient id="paint0_linear_184_199" x1="558.957" y1="-69.6952" x2="103.777" y2="291.983" gradientUnits="userSpaceOnUse">
<stop stop-color="#FFDE28"/>
<stop offset="1" stop-color="#FFDE28" stop-opacity="0.1"/>
</linearGradient>
<linearGradient id="paint1_linear_184_199" x1="465.969" y1="198.995" x2="68.3285" y2="218.003" gradientUnits="userSpaceOnUse">
<stop stop-color="#FFEF9A"/>
<stop offset="1" stop-color="#423B17"/>
</linearGradient>
</defs>
</svg>
