<svg width="343" height="191" viewBox="0 0 343 191" fill="none" xmlns="http://www.w3.org/2000/svg">
<path d="M18.3614 124.396C-12.6985 83.6146 32.7669 47.9857 63.4512 53.715L321.582 139.879C327.321 193.568 246.594 203.69 176.206 171.766C105.761 139.817 50.4725 166.557 18.3614 124.396Z" fill="url(#paint0_linear_209_90)" stroke="url(#paint1_linear_209_90)" stroke-width="1.44207" stroke-linecap="round"/>
<path d="M171.772 159.415L231.839 125.714C232.468 125.361 232.387 124.431 231.707 124.192L113.498 82.6401C113.295 82.5688 113.073 82.5782 112.877 82.6663L47.6619 111.978C46.9784 112.285 47.0107 113.266 47.713 113.528L171.069 159.469C171.3 159.555 171.557 159.535 171.772 159.415Z" fill="#222222" stroke="black" stroke-width="1.95567" stroke-linecap="round"/>
<path d="M152.575 10.1693C139.053 17.7685 106.211 53.92 100.717 65.8402L295.725 131.076C295.731 91.6337 285.01 65.9576 285.141 62.4136C285.253 59.3963 281.564 54.4361 280.843 51.1914C276.878 42.1785 273.827 35.3318 270.028 32.8733C265.278 29.8001 264.853 27.146 258.288 32.8733C253.035 37.4551 253.725 43.3966 251.862 43.6295C242.698 36.5891 202.972 21.2684 174.613 18.0661C176.675 8.36181 177.853 0.0672169 168.001 2.88201C165.478 3.60304 168.467 -0.494793 152.575 10.1693Z" fill="#F8F8F8"/>
<path d="M295.445 125.069L296.118 130.671L309.414 134.987L314.723 125.907L316.539 101.042L320.729 92.3815L338.889 85.5367L337.632 74.9202L325.199 72.6852L310.671 77.8538L302.569 92.1023L299.915 118.504L295.445 125.069Z" fill="#F8F8F8"/>
<path d="M307.459 129.4L302.989 133.73L308.018 134.987L310.936 131.664L307.459 129.4Z" fill="#FFDE28"/>
<rect width="6.26121" height="4.50444" transform="matrix(-0.975845 -0.218465 -0.218465 0.975845 307.79 96.7673)" fill="#FFDE28"/>
<path d="M333.581 79.2507L335.599 87.3576L330.572 88.4862L330.107 80.7366L333.581 79.2507Z" fill="#FFDE28"/>
<circle cx="3.49226" cy="3.49226" r="2.51443" transform="matrix(-0.969958 -0.243273 -0.243273 0.969958 332.406 77.7994)" stroke="black" stroke-width="1.95567"/>
<path d="M330.368 87.7716C330.263 86.6577 329.791 83.6256 329.015 82.8358" stroke="black" stroke-width="1.95567" stroke-linecap="round"/>
<path d="M331.153 79.8278L333.572 79.147C333.728 79.1031 333.888 79.1994 333.922 79.3578C334.395 81.5906 335.316 85.4483 335.397 86.5145" stroke="black" stroke-width="1.95567" stroke-linecap="round"/>
<path d="M295.956 125.069C298.695 122.247 300.748 117.822 300.674 110.838C300.447 89.5517 307.118 75.2357 324.304 73.2474C333.797 72.1491 338.302 74.407 339.096 79.6936C339.993 85.6624 335.434 88.7894 326.854 89.9663C315.019 91.5897 315.616 104.35 315.828 114.026C315.969 120.45 314.248 128.616 308.856 134.945" stroke="black" stroke-width="2.79381" stroke-linecap="round"/>
<circle cx="3.49226" cy="3.49226" r="2.51443" transform="matrix(-0.983937 0.178516 0.178516 0.983937 319.226 81.3676)" stroke="black" stroke-width="1.95567"/>
<circle cx="3.49226" cy="3.49226" r="2.51443" transform="matrix(-0.908377 0.418152 0.418152 0.908377 315.009 97.5016)" stroke="black" stroke-width="1.95567"/>
<circle cx="3.49226" cy="3.49226" r="2.51443" transform="matrix(0.653805 -0.756663 -0.756663 -0.653805 308.134 122.209)" stroke="black" stroke-width="1.95567"/>
<path d="M314.076 83.542C313.376 82.6691 311.143 80.894 310.065 80.3811" stroke="black" stroke-width="1.95567" stroke-linecap="round"/>
<path d="M310.672 101.88C307.878 101.182 303.967 100.623 300.946 100.559" stroke="black" stroke-width="1.95567" stroke-linecap="round"/>
<path d="M307.052 100.355L308.033 97.3678C308.084 97.2139 307.994 97.0495 307.837 97.0111C305.72 96.4955 302.986 96.0199 301.925 95.8931" stroke="black" stroke-width="1.95567" stroke-linecap="round"/>
<path d="M310.746 131.861C309.653 130.754 308.666 129.837 307.571 129.341C307.453 129.288 307.315 129.329 307.24 129.434C306.902 129.901 305.95 131.193 305.054 132.162C304.474 132.79 304.212 133.101 303.687 133.59" stroke="black" stroke-width="1.95567" stroke-linecap="round"/>
<path d="M311.153 118.002C311.648 118.109 313.792 118.359 315.142 118.364" stroke="black" stroke-width="1.95567" stroke-linecap="round"/>
<path fill-rule="evenodd" clip-rule="evenodd" d="M298.454 131.716L299.965 132.962C301.14 131.627 301.13 129.593 299.89 128.269C298.571 126.862 296.361 126.789 294.954 128.108C294.815 128.237 294.69 128.376 294.577 128.521L296.088 129.766C296.147 129.684 296.214 129.607 296.291 129.535C296.91 128.955 297.882 128.987 298.462 129.606C299.022 130.204 299.012 131.131 298.454 131.716Z" fill="black"/>
<path d="M279.645 89.7274L293.101 95.0649L294.287 101.99L277.558 95.1036L279.645 89.7274Z" fill="#FFDE28"/>
<circle cx="3.77165" cy="3.77165" r="2.79381" transform="matrix(-0.898998 -0.437953 -0.437953 0.898998 274.237 84.144)" stroke="black" stroke-width="1.95567"/>
<circle cx="3.77165" cy="3.77165" r="2.79381" transform="matrix(-0.951235 0.308468 0.308468 0.951235 261.5 92.5493)" stroke="black" stroke-width="1.95567"/>
<circle cx="3.77165" cy="3.77165" r="2.79381" transform="matrix(-0.951235 0.308468 0.308468 0.951235 261.5 92.5493)" stroke="black" stroke-width="1.95567"/>
<circle cx="3.77164" cy="3.77164" r="2.79381" transform="matrix(-0.948435 0.316973 0.316973 0.948435 266.512 68.1679)" stroke="black" stroke-width="1.95567"/>
<path d="M261.729 98.2909C269.647 100.404 284.81 106.218 294.887 110.541" stroke="black" stroke-width="1.95567" stroke-linecap="round"/>
<path d="M261.729 98.2909C269.647 100.404 284.81 106.218 294.887 110.541" stroke="black" stroke-width="1.95567" stroke-linecap="round"/>
<path d="M266.994 74.1318C274.662 76.105 281.89 78.373 290.556 81.6253" stroke="black" stroke-width="1.95567" stroke-linecap="round"/>
<path d="M272.229 87.05C274.956 87.8116 273.793 87.4924 278.962 89.1687M278.962 89.1687C278.407 91.5771 278.451 92.3141 277.74 94.3209C277.66 94.5454 277.764 94.7943 277.984 94.8875C281.591 96.42 288.719 99.0894 293.239 101.366M278.962 89.1687C281.848 90.1931 288.759 92.7414 293.239 94.5351" stroke="black" stroke-width="1.95567" stroke-linecap="round"/>
<path d="M268.498 42.1201C266.576 41.3917 265.475 46.0062 265.109 48.7575C265.076 49.0041 265.214 49.2393 265.442 49.3385L271.362 51.9149C271.767 52.091 272.206 51.758 272.134 51.3225C271.594 48.0431 270.322 42.8112 268.498 42.1201Z" fill="#FFDE28" stroke="black" stroke-width="1.95567"/>
<path d="M152.016 10.7282C158.688 5.93106 169.305 -0.494679 173.775 2.99759C177.077 5.57758 176.15 11.7979 174.892 17.9442C183.385 18.8758 197.522 21.6035 210.653 26.0463C229.232 32.3324 246.354 39.2339 251.615 43.2761C253.678 39.7362 254.756 37.3488 257.45 33.8692C260.802 29.5388 263.177 27.7226 267.926 30.7958C271.726 33.2543 277.286 42.6697 279.66 47.9779C280.808 50.5424 284.314 59.5993 285.169 62.728C286.132 66.2486 296.612 88.9192 295.897 130.583" stroke="black" stroke-width="2.79381" stroke-linecap="round"/>
<path d="M60.918 52.5766L321.428 139.612" stroke="black" stroke-width="1.95567" stroke-linecap="round"/>
<path d="M182.513 112.4L153.545 101.961C153.343 101.888 153.121 101.896 152.924 101.982L136.747 109.07C136.054 109.374 136.085 110.366 136.795 110.625L166.876 121.621C167.641 121.901 168.489 121.833 169.199 121.436L182.638 113.92C183.265 113.569 183.189 112.643 182.513 112.4Z" fill="#4D4D4D" stroke="black" stroke-width="1.95567"/>
<path d="M215.822 101.108L257.31 110.541L254.968 118.988L246.168 127.37L225.354 138.126L210.267 134.634L205.378 124.995L208.731 110.607L212.19 107.328L215.822 101.108Z" fill="#F8F8F8"/>
<path d="M100.191 64.7885H144.892L144.161 80.9269L130.085 88.5359L110.249 94.6822L96.4196 89.2343L96.1401 76.6622L96.8056 73.663L100.191 64.7885Z" fill="#F8F8F8"/>
<path fill-rule="evenodd" clip-rule="evenodd" d="M118.121 38.7646C118.54 39.8769 119.476 40.7741 120.715 41.0919C122.733 41.6095 124.788 40.3935 125.305 38.3758C125.802 36.4419 124.705 34.4735 122.837 33.8575L121.038 35.7295C121.368 35.6103 121.737 35.5856 122.103 35.6795C123.075 35.9287 123.66 36.9183 123.411 37.8898C123.162 38.8613 122.172 39.4468 121.201 39.1976C120.229 38.9483 119.644 37.9588 119.893 36.9873C119.901 36.9552 119.91 36.9235 119.92 36.8923L118.121 38.7646Z" fill="black"/>
<circle cx="122.67" cy="50.1604" r="2.79381" transform="rotate(54.9655 122.67 50.1604)" stroke="black" stroke-width="1.95567"/>
<circle cx="134.452" cy="30.2327" r="2.79381" transform="rotate(55.6524 134.452 30.2327)" stroke="black" stroke-width="1.95567"/>
<path d="M119.955 49.3553C117.858 48.5003 115.236 47.5473 112.319 46.5596" stroke="black" stroke-width="1.95567" stroke-linecap="round"/>
<path d="M131.221 28.7572C130.535 28.3819 129.796 27.9893 129.012 27.5821" stroke="black" stroke-width="1.95567" stroke-linecap="round"/>
<path d="M151.597 11.0076C119.049 32.1009 86.0707 75.6844 97.8161 89.9328C106.337 100.27 134.275 90.0725 144.193 80.4338" stroke="black" stroke-width="2.79381" stroke-linecap="round"/>
<path fill-rule="evenodd" clip-rule="evenodd" d="M105.19 80.727C103.487 80.7544 102.084 79.3961 102.056 77.6931C102.053 77.4624 102.074 77.2372 102.119 77.0202C100.298 76.1861 98.4004 75.5092 96.502 74.9599L96.8935 73.6668C98.8374 74.23 100.791 74.9267 102.675 75.7892C103.228 75.0558 104.101 74.5758 105.09 74.5598C106.793 74.5323 108.196 75.8907 108.224 77.5937C108.251 79.2967 106.893 80.6995 105.19 80.727ZM99.3709 65.0188L99.5472 64.9033L98.8971 67.0502C99.0844 68.6729 100.515 69.8796 102.163 69.7713C103.862 69.6596 105.15 68.1913 105.038 66.4917C104.926 64.7921 103.458 63.5049 101.758 63.6166C100.747 63.6831 99.8825 64.2294 99.3709 65.0188ZM105.171 79.5211C104.214 79.5365 103.269 78.6544 103.254 77.6974C103.238 76.7404 104.121 75.7961 105.078 75.7807C106.035 75.7652 106.979 76.6473 106.994 77.6044C107.01 78.5614 106.128 79.5057 105.171 79.5211ZM98.3282 88.1776C96.6286 88.2893 95.1603 87.0021 95.0486 85.3026C94.9369 83.603 96.2241 82.1347 97.9237 82.023C99.6233 81.9112 101.092 83.1985 101.203 84.898C101.315 86.5976 100.028 88.0659 98.3282 88.1776ZM98.2396 86.8296C97.2845 86.8924 96.4594 86.169 96.3966 85.214C96.3338 84.2589 97.0572 83.4337 98.0123 83.3709C98.9674 83.3082 99.7925 84.0315 99.8553 84.9866C99.9181 85.9417 99.1947 86.7669 98.2396 86.8296ZM102.074 68.4233C101.119 68.4861 100.294 67.7627 100.231 66.8076C100.168 65.8525 100.892 65.0274 101.847 64.9646C102.802 64.9019 103.627 65.6252 103.69 66.5803C103.753 67.5354 103.029 68.3605 102.074 68.4233Z" fill="black"/>
<path d="M102.056 77.6931L101.819 77.6969L102.056 77.6931ZM105.19 80.727L105.194 80.9644L105.19 80.727ZM102.119 77.0202L102.218 76.8043L102.39 76.883L102.352 77.068L102.119 77.0202ZM96.502 74.9599L96.436 75.188L96.205 75.1212L96.2747 74.891L96.502 74.9599ZM96.8935 73.6668L96.6662 73.598L96.7342 73.3735L96.9596 73.4388L96.8935 73.6668ZM102.675 75.7892L102.865 75.9321L102.75 76.0846L102.577 76.0052L102.675 75.7892ZM105.09 74.5598L105.086 74.3224L105.086 74.3224L105.09 74.5598ZM108.224 77.5937L108.461 77.5898L108.461 77.5898L108.224 77.5937ZM99.3709 65.0188L99.5011 65.2174L99.1716 64.8896L99.3709 65.0188ZM99.5472 64.9033L99.4171 64.7047L99.9639 64.3464L99.7745 64.9721L99.5472 64.9033ZM98.8971 67.0502L98.6612 67.0775L98.6555 67.0285L98.6698 66.9814L98.8971 67.0502ZM102.163 69.7713L102.178 70.0083L102.163 69.7713ZM105.038 66.4917L105.275 66.4761L105.038 66.4917ZM101.758 63.6166L101.774 63.8536L101.758 63.6166ZM103.254 77.6974L103.491 77.6936L103.491 77.6936L103.254 77.6974ZM105.171 79.5211L105.174 79.7585L105.174 79.7585L105.171 79.5211ZM105.078 75.7807L105.074 75.5432L105.078 75.7807ZM106.994 77.6044L106.757 77.6082L106.994 77.6044ZM95.0486 85.3026L94.8116 85.3181L95.0486 85.3026ZM98.3282 88.1776L98.3126 87.9407L98.3282 88.1776ZM97.9237 82.023L97.9393 82.2599L97.9237 82.023ZM101.203 84.898L101.44 84.8824L101.203 84.898ZM98.2396 86.8296L98.224 86.5927L98.224 86.5927L98.2396 86.8296ZM98.0123 83.3709L98.0279 83.6079L98.0123 83.3709ZM99.8553 84.9866L99.6183 85.0022L99.6183 85.0022L99.8553 84.9866ZM100.231 66.8076L99.9942 66.8232L99.9942 66.8232L100.231 66.8076ZM102.074 68.4233L102.059 68.1864L102.059 68.1864L102.074 68.4233ZM101.847 64.9646L101.862 65.2016L101.847 64.9646ZM103.69 66.5803L103.453 66.5959L103.69 66.5803ZM102.294 77.6893C102.319 79.2611 103.614 80.5149 105.186 80.4895L105.194 80.9644C103.359 80.994 101.849 79.5311 101.819 77.6969L102.294 77.6893ZM102.352 77.068C102.31 77.2681 102.29 77.476 102.294 77.6893L101.819 77.6969C101.815 77.4488 101.838 77.2063 101.886 76.9724L102.352 77.068ZM96.568 74.7317C98.4756 75.2837 100.384 75.9646 102.218 76.8043L102.02 77.2361C100.211 76.4077 98.3251 75.7346 96.436 75.188L96.568 74.7317ZM97.1208 73.7357L96.7292 75.0287L96.2747 74.891L96.6662 73.598L97.1208 73.7357ZM102.577 76.0052C100.705 75.1482 98.7621 74.4554 96.8274 73.8949L96.9596 73.4388C98.9128 74.0046 100.878 74.7051 102.774 75.5733L102.577 76.0052ZM105.094 74.7972C104.181 74.812 103.376 75.2547 102.865 75.9321L102.486 75.6463C103.081 74.857 104.021 74.3395 105.086 74.3224L105.094 74.7972ZM107.986 77.5975C107.961 76.0256 106.666 74.7719 105.094 74.7972L105.086 74.3224C106.921 74.2928 108.431 75.7557 108.461 77.5898L107.986 77.5975ZM105.186 80.4895C106.758 80.4642 108.011 79.1694 107.986 77.5975L108.461 77.5898C108.491 79.424 107.028 80.9348 105.194 80.9644L105.186 80.4895ZM99.2408 64.8201L99.4171 64.7047L99.6773 65.102L99.5011 65.2174L99.2408 64.8201ZM99.7745 64.9721L99.1244 67.119L98.6698 66.9814L99.3199 64.8345L99.7745 64.9721ZM99.133 67.023C99.3059 68.5205 100.626 69.6343 102.147 69.5343L102.178 70.0083C100.404 70.1249 98.863 68.8252 98.6612 67.0775L99.133 67.023ZM102.147 69.5343C103.716 69.4312 104.904 68.076 104.801 66.5073L105.275 66.4761C105.395 68.3066 104.009 69.888 102.178 70.0083L102.147 69.5343ZM104.801 66.5073C104.698 64.9386 103.342 63.7505 101.774 63.8536L101.743 63.3797C103.573 63.2594 105.154 64.6457 105.275 66.4761L104.801 66.5073ZM101.774 63.8536C100.841 63.9149 100.043 64.4187 99.5702 65.1479L99.1716 64.8896C99.7222 64.04 100.654 63.4512 101.743 63.3797L101.774 63.8536ZM103.491 77.6936C103.498 78.0956 103.701 78.4977 104.022 78.8014C104.343 79.1051 104.761 79.2902 105.167 79.2837L105.174 79.7585C104.623 79.7674 104.09 79.5192 103.696 79.1465C103.302 78.7737 103.025 78.2562 103.016 77.7012L103.491 77.6936ZM105.081 76.0181C104.679 76.0246 104.277 76.228 103.974 76.5491C103.67 76.8703 103.485 77.288 103.491 77.6936L103.016 77.7012C103.008 77.1498 103.256 76.6168 103.629 76.2228C104.001 75.8287 104.519 75.5522 105.074 75.5432L105.081 76.0181ZM106.757 77.6082C106.75 77.2062 106.547 76.8041 106.226 76.5004C105.905 76.1966 105.487 76.0116 105.081 76.0181L105.074 75.5432C105.625 75.5343 106.158 75.7826 106.552 76.1553C106.946 76.528 107.223 77.0455 107.232 77.6005L106.757 77.6082ZM105.167 79.2837C105.569 79.2772 105.971 79.0738 106.275 78.7527C106.578 78.4315 106.763 78.0138 106.757 77.6082L107.232 77.6005C107.241 78.152 106.992 78.6849 106.62 79.079C106.247 79.4731 105.729 79.7496 105.174 79.7585L105.167 79.2837ZM95.2856 85.287C95.3887 86.8557 96.7439 88.0438 98.3126 87.9407L98.3438 88.4146C96.5134 88.5349 94.932 87.1486 94.8116 85.3181L95.2856 85.287ZM97.9393 82.2599C96.3706 82.363 95.1825 83.7183 95.2856 85.287L94.8116 85.3181C94.6913 83.4877 96.0777 81.9063 97.9081 81.786L97.9393 82.2599ZM100.966 84.9136C100.863 83.3449 99.508 82.1568 97.9393 82.2599L97.9081 81.786C99.7385 81.6657 101.32 83.052 101.44 84.8824L100.966 84.9136ZM98.3126 87.9407C99.8813 87.8376 101.069 86.4823 100.966 84.9136L101.44 84.8824C101.561 86.7129 100.174 88.2943 98.3438 88.4146L98.3126 87.9407ZM96.6336 85.1984C96.6877 86.0226 97.3998 86.6469 98.224 86.5927L98.2552 87.0666C97.1692 87.138 96.231 86.3155 96.1596 85.2295L96.6336 85.1984ZM98.0279 83.6079C97.2036 83.6621 96.5794 84.3742 96.6336 85.1984L96.1596 85.2295C96.0883 84.1436 96.9107 83.2054 97.9967 83.134L98.0279 83.6079ZM99.6183 85.0022C99.5642 84.178 98.8521 83.5537 98.0279 83.6079L97.9967 83.134C99.0827 83.0626 100.021 83.8851 100.092 84.971L99.6183 85.0022ZM98.224 86.5927C99.0483 86.5385 99.6725 85.8264 99.6183 85.0022L100.092 84.971C100.164 86.057 99.3412 86.9952 98.2552 87.0666L98.224 86.5927ZM100.468 66.7921C100.522 67.6163 101.234 68.2405 102.059 68.1864L102.09 68.6603C101.004 68.7317 100.066 67.9092 99.9942 66.8232L100.468 66.7921ZM101.862 65.2016C101.038 65.2558 100.414 65.9678 100.468 66.7921L99.9942 66.8232C99.9228 65.7373 100.745 64.799 101.831 64.7277L101.862 65.2016ZM103.453 66.5959C103.399 65.7717 102.687 65.1474 101.862 65.2016L101.831 64.7277C102.917 64.6563 103.855 65.4788 103.927 66.5647L103.453 66.5959ZM102.059 68.1864C102.883 68.1322 103.507 67.4201 103.453 66.5959L103.927 66.5647C103.998 67.6507 103.176 68.5889 102.09 68.6603L102.059 68.1864Z" fill="black"/>
<path d="M255.247 117.731C249.162 127.08 224.655 145.431 209.848 133.935C203.668 129.138 204.414 116.383 214.25 104.041C215.309 102.714 216.449 101.406 217.67 100.13" stroke="black" stroke-width="2.79381" stroke-linecap="round"/>
<ellipse cx="151.655" cy="59.1036" rx="4.73272" ry="8.6203" transform="rotate(-69.5962 151.655 59.1036)" fill="#FFDE28"/>
<ellipse cx="223.282" cy="83.0586" rx="4.73272" ry="8.6203" transform="rotate(-75.6503 223.282 83.0586)" fill="#FFDE28"/>
<ellipse cx="162.786" cy="59.4478" rx="4.73272" ry="8.62031" transform="rotate(-69.7616 162.786 59.4478)" fill="black"/>
<ellipse cx="215.048" cy="76.823" rx="4.73272" ry="8.62031" transform="rotate(109.388 215.048 76.823)" fill="black"/>
<path d="M144.386 90.7166L170.378 157.779C170.637 158.447 169.992 159.111 169.316 158.872L47.0943 115.482C46.8691 115.402 46.6888 115.23 46.5986 115.009L19.9152 49.5868C19.6438 48.9215 20.2805 48.2455 20.9608 48.4766L143.874 90.2259C144.109 90.3056 144.296 90.4853 144.386 90.7166Z" fill="#222222" stroke="black" stroke-width="1.95567" stroke-linecap="round"/>
<path d="M90.5616 111.784C81.7235 109.599 79.5998 98.7762 82.119 94.2454C82.2081 94.0853 82.4254 94.0688 82.5487 94.2043L87.8316 100.011C87.9299 100.119 88.0947 100.134 88.2099 100.044L93.1135 96.2239C93.2363 96.1282 93.4124 96.1494 93.5041 96.2752C97.8422 102.228 99.5508 114.006 90.5616 111.784Z" stroke="#FFDE28" stroke-width="1.39691"/>
<mask id="path-51-outside-1_209_90" maskUnits="userSpaceOnUse" x="83.8237" y="102.539" width="11.454" height="6.09963" fill="black">
<rect fill="white" x="83.8237" y="102.539" width="11.454" height="6.09963"/>
<path d="M87.1413 103.187C87.2525 103.208 87.3452 103.222 87.4194 103.229L87.6447 103.253C87.7207 103.26 87.801 103.261 87.8858 103.255L87.6548 105.5C87.609 105.945 87.4374 106.289 87.1401 106.53C86.8588 106.759 86.5254 106.854 86.14 106.814C85.7184 106.771 85.3886 106.626 85.1506 106.381C84.8846 106.104 84.7755 105.735 84.8231 105.272L85.0596 102.973C85.2089 102.997 85.3495 103.016 85.4816 103.03C85.6155 103.044 85.7266 103.048 85.815 103.042L85.574 105.385C85.5505 105.613 85.6019 105.797 85.7282 105.938C85.8466 106.067 86.0035 106.142 86.1989 106.162C86.4884 106.192 86.6963 106.063 86.8227 105.776C86.8681 105.673 86.8989 105.543 86.9151 105.385L87.1413 103.187ZM90.2532 103.452C90.5915 103.487 90.8741 103.576 91.1008 103.718L91.0154 104.548L91.0094 104.553C90.9241 104.387 90.7212 104.262 90.4007 104.178C90.3065 104.152 90.1861 104.131 90.0395 104.116C89.893 104.101 89.7463 104.114 89.5994 104.156C89.4527 104.196 89.3288 104.262 89.228 104.354C89.0322 104.533 88.9155 104.805 88.8778 105.17C88.8341 105.596 88.9128 105.924 89.1139 106.155C89.2806 106.347 89.5159 106.459 89.8199 106.491C90.1637 106.526 90.4499 106.481 90.6784 106.357C90.7616 106.312 90.8344 106.254 90.8967 106.182L90.9042 106.188L90.8261 106.948C90.5256 107.149 90.141 107.226 89.6724 107.178C89.1206 107.121 88.7062 106.901 88.4293 106.518C88.1634 106.152 88.0588 105.693 88.1156 105.141C88.1757 104.557 88.3878 104.113 88.7517 103.811C89.1194 103.507 89.6199 103.387 90.2532 103.452ZM92.1871 107.436C91.894 107.406 91.6205 107.354 91.3666 107.281L91.7402 103.649C91.9821 103.645 92.2604 103.659 92.5752 103.691C92.8918 103.724 93.1732 103.797 93.4194 103.91C93.6676 104.021 93.8694 104.166 94.0249 104.342C94.3396 104.697 94.4674 105.161 94.4084 105.734C94.3423 106.376 94.0985 106.844 93.677 107.137C93.2989 107.4 92.8023 107.5 92.1871 107.436ZM92.1331 106.762C92.2485 106.795 92.365 106.818 92.4826 106.83C92.6002 106.843 92.7292 106.833 92.8695 106.802C93.0101 106.769 93.1351 106.708 93.2447 106.621C93.4794 106.437 93.6171 106.147 93.6577 105.753C93.7243 105.105 93.5291 104.683 93.0722 104.486C92.9216 104.421 92.7441 104.378 92.5396 104.357L92.4663 104.349C92.4392 104.347 92.4111 104.345 92.3819 104.343L92.1331 106.762Z"/>
</mask>
<path d="M87.1413 103.187C87.2525 103.208 87.3452 103.222 87.4194 103.229L87.6447 103.253C87.7207 103.26 87.801 103.261 87.8858 103.255L87.6548 105.5C87.609 105.945 87.4374 106.289 87.1401 106.53C86.8588 106.759 86.5254 106.854 86.14 106.814C85.7184 106.771 85.3886 106.626 85.1506 106.381C84.8846 106.104 84.7755 105.735 84.8231 105.272L85.0596 102.973C85.2089 102.997 85.3495 103.016 85.4816 103.03C85.6155 103.044 85.7266 103.048 85.815 103.042L85.574 105.385C85.5505 105.613 85.6019 105.797 85.7282 105.938C85.8466 106.067 86.0035 106.142 86.1989 106.162C86.4884 106.192 86.6963 106.063 86.8227 105.776C86.8681 105.673 86.8989 105.543 86.9151 105.385L87.1413 103.187ZM90.2532 103.452C90.5915 103.487 90.8741 103.576 91.1008 103.718L91.0154 104.548L91.0094 104.553C90.9241 104.387 90.7212 104.262 90.4007 104.178C90.3065 104.152 90.1861 104.131 90.0395 104.116C89.893 104.101 89.7463 104.114 89.5994 104.156C89.4527 104.196 89.3288 104.262 89.228 104.354C89.0322 104.533 88.9155 104.805 88.8778 105.17C88.8341 105.596 88.9128 105.924 89.1139 106.155C89.2806 106.347 89.5159 106.459 89.8199 106.491C90.1637 106.526 90.4499 106.481 90.6784 106.357C90.7616 106.312 90.8344 106.254 90.8967 106.182L90.9042 106.188L90.8261 106.948C90.5256 107.149 90.141 107.226 89.6724 107.178C89.1206 107.121 88.7062 106.901 88.4293 106.518C88.1634 106.152 88.0588 105.693 88.1156 105.141C88.1757 104.557 88.3878 104.113 88.7517 103.811C89.1194 103.507 89.6199 103.387 90.2532 103.452ZM92.1871 107.436C91.894 107.406 91.6205 107.354 91.3666 107.281L91.7402 103.649C91.9821 103.645 92.2604 103.659 92.5752 103.691C92.8918 103.724 93.1732 103.797 93.4194 103.91C93.6676 104.021 93.8694 104.166 94.0249 104.342C94.3396 104.697 94.4674 105.161 94.4084 105.734C94.3423 106.376 94.0985 106.844 93.677 107.137C93.2989 107.4 92.8023 107.5 92.1871 107.436ZM92.1331 106.762C92.2485 106.795 92.365 106.818 92.4826 106.83C92.6002 106.843 92.7292 106.833 92.8695 106.802C93.0101 106.769 93.1351 106.708 93.2447 106.621C93.4794 106.437 93.6171 106.147 93.6577 105.753C93.7243 105.105 93.5291 104.683 93.0722 104.486C92.9216 104.421 92.7441 104.378 92.5396 104.357L92.4663 104.349C92.4392 104.347 92.4111 104.345 92.3819 104.343L92.1331 106.762Z" fill="#FFDE28"/>
<path d="M87.1413 103.187L87.1514 103.132L87.0919 103.121L87.0857 103.181L87.1413 103.187ZM87.8858 103.255L87.9413 103.261L87.9481 103.195L87.8819 103.2L87.8858 103.255ZM85.1506 106.381L85.1104 106.419L85.1105 106.419L85.1506 106.381ZM85.0596 102.973L85.0687 102.918L85.0101 102.908L85.0041 102.967L85.0596 102.973ZM85.815 103.042L85.8706 103.048L85.8773 102.982L85.8115 102.987L85.815 103.042ZM85.7282 105.938L85.6866 105.975L85.687 105.976L85.7282 105.938ZM86.8227 105.776L86.8739 105.799L86.8739 105.799L86.8227 105.776ZM87.1311 103.242C87.2432 103.263 87.3375 103.277 87.4137 103.285L87.4251 103.174C87.353 103.166 87.2619 103.153 87.1514 103.132L87.1311 103.242ZM87.4137 103.285L87.639 103.308L87.6504 103.197L87.4251 103.174L87.4137 103.285ZM87.639 103.308C87.7185 103.316 87.8021 103.317 87.8896 103.311L87.8819 103.2C87.8 103.205 87.7229 103.204 87.6504 103.197L87.639 103.308ZM87.8302 103.25L87.5992 105.494L87.7104 105.506L87.9413 103.261L87.8302 103.25ZM87.5992 105.494C87.5547 105.927 87.3888 106.256 87.1049 106.487L87.1754 106.574C87.4861 106.321 87.6634 105.963 87.7104 105.506L87.5992 105.494ZM87.1049 106.487C86.8358 106.706 86.5175 106.797 86.1457 106.759L86.1343 106.87C86.5333 106.911 86.8817 106.813 87.1754 106.574L87.1049 106.487ZM86.1457 106.759C85.734 106.716 85.4176 106.576 85.1907 106.342L85.1105 106.419C85.3597 106.677 85.7028 106.825 86.1343 106.87L86.1457 106.759ZM85.1908 106.342C84.9387 106.08 84.8323 105.728 84.8787 105.277L84.7675 105.266C84.7186 105.742 84.8305 106.129 85.1104 106.419L85.1908 106.342ZM84.8787 105.277L85.1152 102.979L85.0041 102.967L84.7675 105.266L84.8787 105.277ZM85.0506 103.028C85.2008 103.053 85.3426 103.072 85.4759 103.086L85.4873 102.974C85.3565 102.961 85.217 102.942 85.0687 102.918L85.0506 103.028ZM85.4759 103.086C85.6115 103.1 85.7259 103.104 85.8185 103.098L85.8115 102.987C85.7274 102.992 85.6196 102.988 85.4873 102.974L85.4759 103.086ZM85.7594 103.037L85.5184 105.379L85.6296 105.39L85.8706 103.048L85.7594 103.037ZM85.5184 105.379C85.4937 105.619 85.5476 105.82 85.6866 105.975L85.7698 105.901C85.6562 105.774 85.6073 105.606 85.6296 105.39L85.5184 105.379ZM85.687 105.976C85.8158 106.116 85.9859 106.196 86.1931 106.218L86.2046 106.106C86.021 106.088 85.8774 106.018 85.7694 105.9L85.687 105.976ZM86.1931 106.218C86.3477 106.233 86.485 106.207 86.6013 106.135C86.7173 106.064 86.8074 105.95 86.8739 105.799L86.7716 105.754C86.7117 105.89 86.6346 105.984 86.5426 106.04C86.451 106.097 86.3395 106.12 86.2046 106.106L86.1931 106.218ZM86.8739 105.799C86.9223 105.689 86.9541 105.552 86.9707 105.391L86.8595 105.38C86.8437 105.533 86.8139 105.658 86.7716 105.754L86.8739 105.799ZM86.9707 105.391L87.1969 103.193L87.0857 103.181L86.8595 105.38L86.9707 105.391ZM91.1008 103.718L91.1564 103.724L91.16 103.689L91.1305 103.671L91.1008 103.718ZM91.0154 104.548L91.0506 104.592L91.0686 104.577L91.0709 104.554L91.0154 104.548ZM91.0094 104.553L90.9597 104.579L90.9912 104.64L91.0446 104.597L91.0094 104.553ZM90.4007 104.178L90.3858 104.232L90.3865 104.232L90.4007 104.178ZM89.5994 104.156L89.614 104.21L89.6146 104.21L89.5994 104.156ZM89.228 104.354L89.1903 104.312L89.1902 104.312L89.228 104.354ZM89.1139 106.155L89.1562 106.118L89.1561 106.118L89.1139 106.155ZM90.6784 106.357L90.6521 106.308L90.6517 106.308L90.6784 106.357ZM90.8967 106.182L90.9323 106.139L90.8901 106.104L90.8544 106.145L90.8967 106.182ZM90.9042 106.188L90.9598 106.194L90.9629 106.164L90.9398 106.145L90.9042 106.188ZM90.8261 106.948L90.8572 106.994L90.879 106.98L90.8816 106.954L90.8261 106.948ZM88.4293 106.518L88.4746 106.485L88.4745 106.485L88.4293 106.518ZM88.7517 103.811L88.7161 103.768L88.716 103.768L88.7517 103.811ZM90.2475 103.508C90.5796 103.542 90.8533 103.629 91.0711 103.765L91.1305 103.671C90.8948 103.523 90.6035 103.432 90.2589 103.397L90.2475 103.508ZM91.0452 103.712L90.9598 104.543L91.0709 104.554L91.1564 103.724L91.0452 103.712ZM90.9801 104.505L90.9741 104.51L91.0446 104.597L91.0506 104.592L90.9801 104.505ZM91.0591 104.528C90.9625 104.34 90.7396 104.209 90.4149 104.124L90.3865 104.232C90.7028 104.315 90.8856 104.435 90.9597 104.579L91.0591 104.528ZM90.4157 104.124C90.3173 104.097 90.1935 104.076 90.0453 104.061L90.0338 104.172C90.1787 104.187 90.2957 104.207 90.3858 104.232L90.4157 104.124ZM90.0453 104.061C89.8914 104.045 89.7376 104.059 89.5842 104.102L89.6146 104.21C89.7549 104.17 89.8946 104.157 90.0338 104.172L90.0453 104.061ZM89.5847 104.102C89.4304 104.144 89.2985 104.214 89.1903 104.312L89.2656 104.395C89.3592 104.309 89.4749 104.247 89.614 104.21L89.5847 104.102ZM89.1902 104.312C88.981 104.504 88.8607 104.791 88.8223 105.165L88.9334 105.176C88.9702 104.819 89.0833 104.562 89.2657 104.395L89.1902 104.312ZM88.8223 105.165C88.7776 105.599 88.857 105.945 89.0718 106.191L89.1561 106.118C88.9686 105.903 88.8906 105.592 88.9334 105.176L88.8223 105.165ZM89.0717 106.191C89.2495 106.397 89.4991 106.514 89.8142 106.546L89.8256 106.435C89.5328 106.405 89.3118 106.298 89.1562 106.118L89.0717 106.191ZM89.8142 106.546C90.1656 106.582 90.4639 106.537 90.7052 106.406L90.6517 106.308C90.4358 106.425 90.1618 106.47 89.8256 106.435L89.8142 106.546ZM90.7048 106.406C90.7941 106.358 90.8723 106.296 90.939 106.218L90.8544 106.145C90.7965 106.212 90.7292 106.266 90.6521 106.308L90.7048 106.406ZM90.8611 106.225L90.8687 106.231L90.9398 106.145L90.9323 106.139L90.8611 106.225ZM90.8487 106.182L90.7705 106.942L90.8816 106.954L90.9598 106.194L90.8487 106.182ZM90.795 106.902C90.5082 107.094 90.1378 107.169 89.6781 107.122L89.6667 107.233C90.1443 107.282 90.5429 107.205 90.8572 106.994L90.795 106.902ZM89.6781 107.122C89.1391 107.067 88.7405 106.853 88.4746 106.485L88.384 106.55C88.6719 106.949 89.102 107.175 89.6667 107.233L89.6781 107.122ZM88.4745 106.485C88.2184 106.133 88.1155 105.689 88.1712 105.147L88.06 105.136C88.0022 105.698 88.1084 106.171 88.3841 106.551L88.4745 106.485ZM88.1712 105.147C88.2302 104.574 88.4373 104.145 88.7874 103.854L88.716 103.768C88.3383 104.082 88.1213 104.54 88.06 105.136L88.1712 105.147ZM88.7873 103.854C89.14 103.562 89.624 103.444 90.2475 103.508L90.2589 103.397C89.6159 103.331 89.0988 103.451 88.7161 103.768L88.7873 103.854ZM91.3666 107.281L91.311 107.275L91.3062 107.321L91.351 107.334L91.3666 107.281ZM91.7402 103.649L91.7392 103.593L91.6897 103.594L91.6847 103.644L91.7402 103.649ZM93.4194 103.91L93.3961 103.961L93.3965 103.961L93.4194 103.91ZM94.0249 104.342L93.983 104.379L93.9832 104.38L94.0249 104.342ZM93.677 107.137L93.7089 107.183L93.7089 107.183L93.677 107.137ZM92.1331 106.762L92.0775 106.756L92.0728 106.802L92.1174 106.815L92.1331 106.762ZM92.8695 106.802L92.8817 106.856L92.8823 106.856L92.8695 106.802ZM93.2447 106.621L93.2102 106.577L93.2098 106.577L93.2447 106.621ZM93.0722 104.486L93.0943 104.434L93.0943 104.434L93.0722 104.486ZM92.3819 104.343L92.3842 104.288L92.3317 104.285L92.3264 104.338L92.3819 104.343ZM92.1928 107.381C91.9027 107.351 91.6325 107.3 91.3822 107.227L91.351 107.334C91.6085 107.409 91.8853 107.462 92.1814 107.492L92.1928 107.381ZM91.4222 107.286L91.7958 103.655L91.6847 103.644L91.311 107.275L91.4222 107.286ZM91.7413 103.705C91.9803 103.701 92.2562 103.715 92.5695 103.747L92.5809 103.636C92.2645 103.603 91.9839 103.589 91.7392 103.593L91.7413 103.705ZM92.5695 103.747C92.8811 103.779 93.1564 103.851 93.3961 103.961L93.4427 103.859C93.1901 103.743 92.9026 103.669 92.5809 103.636L92.5695 103.747ZM93.3965 103.961C93.6385 104.07 93.8335 104.209 93.983 104.379L94.0669 104.306C93.9054 104.122 93.6967 103.973 93.4423 103.859L93.3965 103.961ZM93.9832 104.38C94.2852 104.72 94.4106 105.167 94.3528 105.728L94.4639 105.74C94.5242 105.154 94.394 104.674 94.0667 104.305L93.9832 104.38ZM94.3528 105.728C94.2879 106.359 94.0499 106.81 93.6451 107.091L93.7089 107.183C94.1471 106.878 94.3966 106.394 94.4639 105.74L94.3528 105.728ZM93.6451 107.091C93.2813 107.344 92.7993 107.443 92.1928 107.381L92.1814 107.492C92.8053 107.556 93.3166 107.456 93.7089 107.183L93.6451 107.091ZM92.1174 106.815C92.236 106.85 92.3558 106.874 92.4769 106.886L92.4883 106.775C92.3741 106.763 92.261 106.741 92.1488 106.708L92.1174 106.815ZM92.4769 106.886C92.6016 106.899 92.7367 106.889 92.8817 106.856L92.8574 106.747C92.7217 106.777 92.5988 106.786 92.4883 106.775L92.4769 106.886ZM92.8823 106.856C93.0307 106.821 93.1633 106.757 93.2795 106.665L93.2098 106.577C93.1069 106.659 92.9895 106.716 92.8567 106.747L92.8823 106.856ZM93.2792 106.665C93.5294 106.468 93.6716 106.163 93.7132 105.759L93.6021 105.747C93.5625 106.132 93.4295 106.405 93.2102 106.577L93.2792 106.665ZM93.7132 105.759C93.7472 105.428 93.7151 105.15 93.612 104.927C93.5082 104.702 93.3345 104.538 93.0943 104.434L93.0501 104.537C93.2669 104.631 93.4192 104.776 93.5105 104.974C93.6026 105.173 93.6348 105.429 93.6021 105.747L93.7132 105.759ZM93.0943 104.434C92.9374 104.367 92.7541 104.323 92.5453 104.301L92.5339 104.413C92.7341 104.433 92.9058 104.475 93.0501 104.537L93.0943 104.434ZM92.5453 104.301L92.4721 104.294L92.4606 104.405L92.5339 104.413L92.5453 104.301ZM92.4721 104.294C92.4437 104.291 92.4144 104.289 92.3842 104.288L92.3797 104.399C92.4077 104.4 92.4347 104.402 92.4606 104.405L92.4721 104.294ZM92.3264 104.338L92.0775 106.756L92.1887 106.767L92.4375 104.349L92.3264 104.338Z" fill="#FFDE28" mask="url(#path-51-outside-1_209_90)"/>
<path d="M189.059 34.2022C193.693 35.2006 199.042 36.486 206.535 39.0054C214.029 41.5249 217.7 43.0853 221.886 44.912" stroke="black" stroke-width="1.95567" stroke-linecap="round"/>
<circle cx="186.331" cy="33.9635" r="2.65412" transform="rotate(15.7532 186.331 33.9635)" stroke="black" stroke-width="1.95567"/>
<circle cx="224.822" cy="46.2978" r="2.65412" transform="rotate(15.7532 224.822 46.2978)" stroke="black" stroke-width="1.95567"/>
<path d="M184.56 26.0645C191.335 27.2733 197.469 28.5633 209.164 32.4831C220.859 36.4029 226.422 38.8048 231.678 41.1438" stroke="black" stroke-width="1.95567" stroke-linecap="round"/>
<circle cx="234.671" cy="42.3191" r="2.65412" transform="rotate(16.6093 234.671 42.3191)" stroke="black" stroke-width="1.95567"/>
<circle cx="181.609" cy="25.3674" r="2.65412" transform="rotate(16.6093 181.609 25.3674)" stroke="black" stroke-width="1.95567"/>
<path d="M177.097 55.0632C176.837 55.4208 176.197 55.7185 175.029 55.5666C173.903 55.4202 172.519 54.868 171.184 53.8995C169.849 52.931 168.895 51.7865 168.406 50.7616C167.899 49.6981 167.984 48.9976 168.243 48.64C168.502 48.2823 169.142 47.9846 170.31 48.1365C171.436 48.2829 172.821 48.8352 174.156 49.8037C175.49 50.7722 176.445 51.9166 176.934 52.9416C177.441 54.005 177.356 54.7055 177.097 55.0632Z" stroke="black" stroke-width="1.95567"/>
<path d="M208.605 64.638C208.585 65.0794 208.9 65.7109 209.908 66.3205C210.88 66.9079 212.306 67.339 213.954 67.4139C215.602 67.4888 217.061 67.1889 218.082 66.6921C219.142 66.1766 219.512 65.5762 219.533 65.1348C219.553 64.6934 219.238 64.0619 218.23 63.4524C217.258 62.8649 215.831 62.4339 214.184 62.3589C212.536 62.284 211.076 62.5839 210.055 63.0807C208.996 63.5962 208.625 64.1966 208.605 64.638Z" stroke="black" stroke-width="1.95567"/>
<path d="M177.547 72.5453C177.547 72.0052 177.109 71.5675 176.569 71.5675C176.029 71.5675 175.591 72.0052 175.591 72.5453L177.547 72.5453ZM185.369 74.6407L186.347 74.6232C186.34 74.2322 186.1 73.8831 185.738 73.7354C185.376 73.5876 184.961 73.6698 184.683 73.9443L185.369 74.6407ZM193.989 79.3813C194.447 79.0952 194.587 78.4919 194.301 78.0339C194.014 77.5759 193.411 77.4366 192.953 77.7227L193.989 79.3813ZM180.186 75.5717L179.978 76.5272L180.186 75.5717ZM188.63 78.3455L188.234 79.2398L188.63 78.3455ZM175.591 72.5453C175.591 73.5785 176.216 74.4718 176.976 75.1109C177.759 75.7681 178.812 76.2739 179.978 76.5272L180.393 74.6162C179.501 74.4222 178.746 74.0434 178.234 73.6135C177.701 73.1656 177.547 72.7693 177.547 72.5453L175.591 72.5453ZM179.978 76.5272C181.036 76.7571 182.195 76.7861 183.248 76.6111C184.282 76.4393 185.332 76.0506 186.055 75.3372L184.683 73.9443C184.358 74.264 183.754 74.5445 182.927 74.6819C182.12 74.8159 181.211 74.7939 180.393 74.6162L179.978 76.5272ZM184.391 74.6583C184.428 76.6939 186.185 78.3338 188.234 79.2398L189.025 77.4511C187.22 76.6531 186.363 75.5033 186.347 74.6232L184.391 74.6583ZM188.234 79.2398C189.298 79.7099 190.475 79.8849 191.469 79.8904C191.97 79.8931 192.445 79.853 192.858 79.7765C193.248 79.7041 193.664 79.5847 193.989 79.3813L192.953 77.7227C192.955 77.7214 192.947 77.7267 192.925 77.7366C192.903 77.7464 192.872 77.7585 192.831 77.7721C192.749 77.7996 192.639 77.8281 192.501 77.8536C192.226 77.9047 191.875 77.9369 191.48 77.9348C190.681 77.9304 189.783 77.7864 189.025 77.4511L188.234 79.2398Z" fill="black"/>
<path fill-rule="evenodd" clip-rule="evenodd" d="M229.892 126.022C230.688 127.706 232.699 128.426 234.383 127.629C234.611 127.522 234.821 127.391 235.013 127.243C236.521 128.472 237.937 129.819 239.256 131.224L240.478 130.369C239.082 128.869 237.572 127.422 235.951 126.102C236.404 125.205 236.453 124.117 235.99 123.139C235.194 121.454 233.183 120.735 231.499 121.531C229.815 122.327 229.096 124.338 229.892 126.022ZM232.323 134.402C232.281 134.192 232.217 133.983 232.132 133.777C231.42 132.055 229.448 131.237 227.727 131.949C226.005 132.661 225.187 134.633 225.899 136.355C225.939 136.453 225.984 136.548 226.032 136.64L227.45 136.136C227.378 136.029 227.315 135.914 227.264 135.79C226.864 134.823 227.324 133.714 228.291 133.314C229.258 132.914 230.367 133.374 230.767 134.341C230.844 134.527 230.889 134.717 230.905 134.907L232.323 134.402ZM231.084 125.458C231.531 126.404 232.853 126.904 233.8 126.457C234.746 126.009 235.246 124.687 234.799 123.741C234.351 122.795 233.029 122.295 232.083 122.742C231.137 123.19 230.637 124.511 231.084 125.458ZM242.103 123.696C242.815 125.417 244.787 126.236 246.509 125.524C248.23 124.812 249.049 122.84 248.337 121.118C247.625 119.397 245.652 118.578 243.931 119.29C242.209 120.002 241.391 121.975 242.103 123.696ZM243.468 123.131C243.868 124.099 244.977 124.559 245.944 124.159C246.912 123.759 247.371 122.65 246.971 121.683C246.571 120.715 245.463 120.256 244.495 120.656C243.528 121.056 243.068 122.164 243.468 123.131Z" fill="black"/>
<path d="M234.383 127.629L234.281 127.415L234.281 127.415L234.383 127.629ZM229.892 126.022L229.677 126.123L229.677 126.123L229.892 126.022ZM235.013 127.243L235.163 127.059L235.016 126.939L234.867 127.055L235.013 127.243ZM239.256 131.224L239.082 131.387L239.223 131.537L239.392 131.419L239.256 131.224ZM240.478 130.369L240.614 130.563L240.838 130.407L240.652 130.207L240.478 130.369ZM235.951 126.102L235.739 125.995L235.653 126.165L235.801 126.286L235.951 126.102ZM235.99 123.139L235.776 123.24L235.99 123.139ZM231.499 121.531L231.398 121.316L231.398 121.316L231.499 121.531ZM232.132 133.777L231.913 133.867L231.913 133.867L232.132 133.777ZM232.323 134.402L232.403 134.626L232.597 134.557L232.556 134.355L232.323 134.402ZM227.727 131.949L227.636 131.729L227.727 131.949ZM225.899 136.355L225.679 136.445L225.679 136.445L225.899 136.355ZM226.032 136.64L225.822 136.751L225.918 136.933L226.112 136.864L226.032 136.64ZM227.45 136.136L227.53 136.359L227.82 136.256L227.647 136.002L227.45 136.136ZM227.264 135.79L227.483 135.699L227.483 135.699L227.264 135.79ZM230.767 134.341L230.548 134.432L230.548 134.432L230.767 134.341ZM230.905 134.907L230.668 134.927L230.694 135.234L230.984 135.131L230.905 134.907ZM233.8 126.457L233.698 126.242L233.8 126.457ZM231.084 125.458L230.869 125.559L230.869 125.559L231.084 125.458ZM234.799 123.741L235.013 123.64L234.799 123.741ZM232.083 122.742L232.184 122.957L232.083 122.742ZM246.509 125.524L246.6 125.743L246.509 125.524ZM242.103 123.696L242.322 123.605L242.103 123.696ZM248.337 121.118L248.556 121.027L248.337 121.118ZM243.931 119.29L243.84 119.071L243.931 119.29ZM245.944 124.159L246.035 124.378L245.944 124.159ZM243.468 123.131L243.688 123.041L243.468 123.131ZM246.971 121.683L247.191 121.592L246.971 121.683ZM244.495 120.656L244.405 120.436L244.495 120.656ZM234.281 127.415C232.716 128.155 230.847 127.486 230.106 125.92L229.677 126.123C230.529 127.926 232.682 128.696 234.484 127.844L234.281 127.415ZM234.867 127.055C234.689 127.193 234.494 127.314 234.281 127.415L234.484 127.844C234.728 127.729 234.953 127.59 235.158 127.43L234.867 127.055ZM239.429 131.062C238.104 129.65 236.68 128.295 235.163 127.059L234.863 127.427C236.362 128.648 237.77 129.988 239.082 131.387L239.429 131.062ZM240.342 130.174L239.119 131.03L239.392 131.419L240.614 130.563L240.342 130.174ZM235.801 126.286C237.412 127.598 238.915 129.038 240.304 130.53L240.652 130.207C239.25 128.701 237.731 127.246 236.101 125.918L235.801 126.286ZM235.776 123.24C236.205 124.149 236.16 125.161 235.739 125.995L236.163 126.209C236.647 125.25 236.7 124.084 236.205 123.037L235.776 123.24ZM231.601 121.746C233.166 121.006 235.035 121.675 235.776 123.24L236.205 123.037C235.353 121.234 233.2 120.464 231.398 121.316L231.601 121.746ZM230.106 125.92C229.366 124.355 230.035 122.486 231.601 121.746L231.398 121.316C229.595 122.169 228.825 124.321 229.677 126.123L230.106 125.92ZM231.913 133.867C231.992 134.059 232.051 134.254 232.09 134.449L232.556 134.355C232.51 134.13 232.443 133.906 232.352 133.686L231.913 133.867ZM227.817 132.168C229.417 131.507 231.251 132.267 231.913 133.867L232.352 133.686C231.59 131.843 229.478 130.967 227.636 131.729L227.817 132.168ZM226.118 136.264C225.456 134.664 226.217 132.83 227.817 132.168L227.636 131.729C225.793 132.491 224.917 134.603 225.679 136.445L226.118 136.264ZM226.243 136.529C226.197 136.444 226.156 136.355 226.118 136.264L225.679 136.445C225.723 136.55 225.77 136.652 225.822 136.751L226.243 136.529ZM227.371 135.912L225.953 136.416L226.112 136.864L227.53 136.359L227.371 135.912ZM227.647 136.002C227.583 135.909 227.528 135.808 227.483 135.699L227.045 135.881C227.102 136.02 227.173 136.15 227.254 136.269L227.647 136.002ZM227.483 135.699C227.133 134.853 227.536 133.884 228.382 133.534L228.2 133.095C227.112 133.545 226.594 134.792 227.045 135.881L227.483 135.699ZM228.382 133.534C229.228 133.184 230.198 133.586 230.548 134.432L230.987 134.251C230.536 133.162 229.289 132.645 228.2 133.095L228.382 133.534ZM230.548 134.432C230.615 134.595 230.654 134.761 230.668 134.927L231.141 134.887C231.123 134.673 231.073 134.459 230.987 134.251L230.548 134.432ZM232.244 134.179L230.825 134.683L230.984 135.131L232.403 134.626L232.244 134.179ZM233.698 126.242C233.294 126.433 232.795 126.427 232.337 126.257C231.88 126.087 231.491 125.763 231.299 125.356L230.869 125.559C231.124 126.098 231.62 126.498 232.172 126.703C232.724 126.907 233.359 126.928 233.901 126.671L233.698 126.242ZM234.584 123.843C234.775 124.247 234.769 124.746 234.599 125.203C234.429 125.661 234.105 126.049 233.698 126.242L233.901 126.671C234.44 126.416 234.84 125.92 235.044 125.369C235.249 124.817 235.27 124.182 235.013 123.64L234.584 123.843ZM232.184 122.957C232.588 122.766 233.088 122.772 233.545 122.942C234.003 123.111 234.391 123.435 234.584 123.843L235.013 123.64C234.758 123.1 234.262 122.701 233.711 122.496C233.159 122.291 232.524 122.271 231.981 122.527L232.184 122.957ZM231.299 125.356C231.108 124.952 231.114 124.453 231.283 123.995C231.453 123.538 231.777 123.149 232.184 122.957L231.981 122.527C231.442 122.782 231.043 123.278 230.838 123.83C230.633 124.382 230.613 125.017 230.869 125.559L231.299 125.356ZM246.418 125.305C244.818 125.966 242.984 125.206 242.322 123.605L241.884 123.787C242.646 125.629 244.757 126.505 246.6 125.743L246.418 125.305ZM248.117 121.209C248.779 122.809 248.018 124.643 246.418 125.305L246.6 125.743C248.442 124.981 249.318 122.87 248.556 121.027L248.117 121.209ZM244.022 119.51C245.622 118.848 247.455 119.609 248.117 121.209L248.556 121.027C247.794 119.185 245.683 118.309 243.84 119.071L244.022 119.51ZM242.322 123.605C241.661 122.005 242.421 120.172 244.022 119.51L243.84 119.071C241.998 119.833 241.122 121.944 241.884 123.787L242.322 123.605ZM245.853 123.939C245.007 124.289 244.038 123.887 243.688 123.041L243.249 123.222C243.699 124.311 244.946 124.828 246.035 124.378L245.853 123.939ZM246.752 121.774C247.102 122.62 246.7 123.589 245.853 123.939L246.035 124.378C247.124 123.928 247.641 122.681 247.191 121.592L246.752 121.774ZM244.586 120.875C245.432 120.525 246.402 120.927 246.752 121.774L247.191 121.592C246.741 120.503 245.493 119.986 244.405 120.436L244.586 120.875ZM243.688 123.041C243.338 122.195 243.74 121.225 244.586 120.875L244.405 120.436C243.316 120.886 242.799 122.134 243.249 123.222L243.688 123.041Z" fill="black"/>
<path d="M164.695 9.6181C166.475 10.192 164.619 14.1133 163.322 16.2584C163.213 16.438 163.013 16.5378 162.803 16.5221L155.572 15.9784C155.083 15.9416 154.878 15.3529 155.252 15.0355C157.884 12.8015 163.065 9.09214 164.695 9.6181Z" fill="#FFDE28" stroke="black" stroke-width="1.95567"/>
<defs>
<linearGradient id="paint0_linear_209_90" x1="392.244" y1="-48.3116" x2="72.8246" y2="205.493" gradientUnits="userSpaceOnUse">
<stop stop-color="#FFDE28"/>
<stop offset="1" stop-color="#FFDE28" stop-opacity="0.1"/>
</linearGradient>
<linearGradient id="paint1_linear_209_90" x1="326.99" y1="140.239" x2="47.9489" y2="153.578" gradientUnits="userSpaceOnUse">
<stop stop-color="#FFEF9A"/>
<stop offset="1" stop-color="#423B17"/>
</linearGradient>
</defs>
</svg>
