<svg width="241" height="134" viewBox="0 0 241 134" fill="none" xmlns="http://www.w3.org/2000/svg">
<path d="M227.427 87.0004C249.251 58.3459 217.306 33.3117 195.746 37.3373L14.3727 97.8793C10.3399 135.604 67.062 142.716 116.52 120.285C166.017 97.8356 204.865 116.625 227.427 87.0004Z" fill="url(#paint0_linear_288_186)" stroke="url(#paint1_linear_288_186)" stroke-width="1.01326" stroke-linecap="round"/>
<path d="M119.634 111.606L77.4291 87.9261C76.9872 87.6782 77.0439 87.0249 77.522 86.8569L160.58 57.6608C160.722 57.6107 160.879 57.6173 161.017 57.6792L206.839 78.2746C207.319 78.4905 207.297 79.1799 206.803 79.3637L120.128 111.644C119.966 111.704 119.785 111.69 119.634 111.606Z" fill="#222222" stroke="black" stroke-width="1.37413" stroke-linecap="round"/>
<path d="M133.123 6.73985C142.625 12.0793 165.7 37.4808 169.561 45.8564L32.5407 91.6935C32.5362 63.9799 40.0693 45.9389 39.9771 43.4488C39.8985 41.3287 42.4903 37.8434 42.997 35.5636C45.7834 29.2307 47.9267 24.42 50.5964 22.6926C53.9336 20.5332 54.2323 18.6683 58.8455 22.6926C62.536 25.9119 62.0518 30.0867 63.3605 30.2503C69.7992 25.3034 97.7128 14.5385 117.639 12.2884C116.189 5.46982 115.362 -0.358286 122.284 1.6195C124.058 2.12612 121.957 -0.753177 133.123 6.73985Z" fill="#F8F8F8"/>
<path d="M32.7373 87.4733L32.2649 91.4093L22.9221 94.4421L19.1923 88.0622L17.9163 70.5911L14.9717 64.5056L2.21202 59.6962L3.09533 52.2366L11.831 50.6662L22.0388 54.2979L27.7316 64.3094L29.5965 82.8602L32.7373 87.4733Z" fill="#F8F8F8"/>
<path d="M24.2955 90.516L27.4365 93.5586L23.9031 94.4419L21.8527 92.1066L24.2955 90.516Z" fill="#FFDE28"/>
<rect x="24.0635" y="67.5869" width="4.39937" height="3.165" transform="rotate(-12.6189 24.0635 67.5869)" fill="#FFDE28"/>
<path d="M5.94149 55.279L4.52385 60.9752L8.05587 61.7682L8.38261 56.323L5.94149 55.279Z" fill="#FFDE28"/>
<circle cx="9.74412" cy="56.0424" r="1.76674" transform="rotate(-14.0798 9.74412 56.0424)" stroke="black" stroke-width="1.37413"/>
<path d="M8.19816 61.2666C8.27216 60.4838 8.6038 58.3534 9.14905 57.7984" stroke="black" stroke-width="1.37413" stroke-linecap="round"/>
<path d="M7.6473 55.6849L5.94783 55.2065C5.83825 55.1756 5.72569 55.2433 5.70208 55.3547C5.36958 56.9235 4.72242 59.634 4.66548 60.3832" stroke="black" stroke-width="1.37413" stroke-linecap="round"/>
<path d="M32.3779 87.473C30.4537 85.4902 29.011 82.3809 29.0633 77.4734C29.2225 62.517 24.535 52.458 12.4593 51.0609C5.7893 50.2892 2.62379 51.8757 2.06589 55.5903C1.43599 59.7842 4.63912 61.9813 10.6678 62.8083C18.984 63.9489 18.5645 72.9147 18.4152 79.7139C18.316 84.2273 19.5254 89.9652 23.3144 94.4118" stroke="black" stroke-width="1.96304" stroke-linecap="round"/>
<circle cx="18.0042" cy="59.619" r="1.76674" transform="rotate(10.2834 18.0042 59.619)" stroke="black" stroke-width="1.37413"/>
<circle cx="20.1936" cy="71.3581" r="1.76674" transform="rotate(24.7179 20.1936 71.3581)" stroke="black" stroke-width="1.37413"/>
<circle cx="24.0737" cy="82.0024" r="1.76674" transform="rotate(-130.829 24.0737 82.0024)" stroke="black" stroke-width="1.37413"/>
<path d="M19.6465 58.2942C20.1384 57.6809 21.7075 56.4336 22.4648 56.0732" stroke="black" stroke-width="1.37413" stroke-linecap="round"/>
<path d="M22.0386 71.1795C24.0016 70.6888 26.7499 70.2962 28.8725 70.2513" stroke="black" stroke-width="1.37413" stroke-linecap="round"/>
<path d="M24.5818 70.1077L23.8921 68.0089C23.8565 67.9008 23.9198 67.7852 24.0304 67.7583C25.5174 67.396 27.4388 67.0618 28.1839 66.9727" stroke="black" stroke-width="1.37413" stroke-linecap="round"/>
<path d="M21.986 92.2456C22.7544 91.4674 23.4475 90.8232 24.2175 90.4749C24.3003 90.4374 24.3967 90.466 24.4499 90.5397C24.6873 90.8684 25.3561 91.7758 25.9854 92.4567C26.3934 92.8982 26.5774 93.1167 26.9461 93.4604" stroke="black" stroke-width="1.37413" stroke-linecap="round"/>
<path d="M21.6998 82.5075C21.3519 82.5831 19.8455 82.7584 18.8974 82.7619" stroke="black" stroke-width="1.37413" stroke-linecap="round"/>
<path fill-rule="evenodd" clip-rule="evenodd" d="M30.6232 92.1438L29.5616 93.0188C28.736 92.0814 28.7427 90.6521 29.6142 89.7217C30.5406 88.7326 32.0935 88.6818 33.0825 89.6082C33.1798 89.6994 33.2681 89.7966 33.3472 89.8987L32.2855 90.7738C32.2443 90.716 32.1969 90.6615 32.1432 90.6111C31.708 90.2035 31.0247 90.2258 30.6171 90.661C30.2236 91.0812 30.2308 91.7324 30.6232 92.1438Z" fill="black"/>
<path d="M43.8379 62.6411L34.3826 66.3915L33.5497 71.2576L45.3041 66.4187L43.8379 62.6411Z" fill="#FFDE28"/>
<circle cx="51.1808" cy="59.9396" r="1.96304" transform="rotate(-25.9734 51.1808 59.9396)" stroke="black" stroke-width="1.37413"/>
<circle cx="58.2903" cy="67.9619" r="1.96304" transform="rotate(17.9669 58.2903 67.9619)" stroke="black" stroke-width="1.37413"/>
<circle cx="58.2903" cy="67.9619" r="1.96304" transform="rotate(17.9669 58.2903 67.9619)" stroke="black" stroke-width="1.37413"/>
<circle cx="54.7394" cy="50.8457" r="1.96304" transform="rotate(18.48 54.7394 50.8457)" stroke="black" stroke-width="1.37413"/>
<path d="M56.4265 68.6583C50.8624 70.1433 40.2085 74.228 33.1284 77.2657" stroke="black" stroke-width="1.37413" stroke-linecap="round"/>
<path d="M56.4265 68.6583C50.8624 70.1433 40.2085 74.228 33.1284 77.2657" stroke="black" stroke-width="1.37413" stroke-linecap="round"/>
<path d="M52.727 51.6829C47.3388 53.0694 42.2605 54.663 36.1711 56.9482" stroke="black" stroke-width="1.37413" stroke-linecap="round"/>
<path d="M49.0485 60.7597C47.1327 61.2949 47.9497 61.0705 44.3181 62.2484M44.3181 62.2484C44.7082 63.9407 44.6769 64.4585 45.1767 65.8686C45.2326 66.0263 45.1595 66.2012 45.0054 66.2666C42.471 67.3435 37.4625 69.219 34.2863 70.819M44.3181 62.2484C42.2904 62.9682 37.4345 64.7587 34.2863 66.019" stroke="black" stroke-width="1.37413" stroke-linecap="round"/>
<path d="M51.6707 29.1898C53.0211 28.6781 53.7951 31.9204 54.052 33.8535C54.0751 34.0268 53.9785 34.1921 53.8183 34.2618L49.6586 36.0721C49.3743 36.1958 49.0655 35.9618 49.1159 35.6558C49.4954 33.3516 50.3894 29.6754 51.6707 29.1898Z" fill="#FFDE28" stroke="black" stroke-width="1.37413"/>
<path d="M133.516 7.13279C128.827 3.76212 121.368 -0.75286 118.227 1.70095C115.907 3.51375 116.559 7.88442 117.442 12.203C111.475 12.8576 101.541 14.7742 92.3149 17.8959C79.2607 22.3127 67.23 27.162 63.5332 30.0022C62.084 27.515 61.3267 25.8375 59.4339 23.3926C57.0782 20.3499 55.4096 19.0737 52.0725 21.233C49.4027 22.9605 45.4963 29.5762 43.8277 33.3059C43.0215 35.1078 40.5577 41.4716 39.9569 43.6699C39.2807 46.1436 31.917 62.0728 32.4189 91.3473" stroke="black" stroke-width="1.96304" stroke-linecap="round"/>
<path d="M197.525 36.5371L14.4809 97.6916" stroke="black" stroke-width="1.37413" stroke-linecap="round"/>
<path d="M112.087 78.5712L132.441 71.2364C132.583 71.1853 132.739 71.1905 132.877 71.251L144.245 76.2318C144.731 76.4448 144.709 77.142 144.21 77.3243L123.074 85.0505C122.537 85.2469 121.941 85.1992 121.442 84.9201L111.999 79.6392C111.559 79.3928 111.612 78.7424 112.087 78.5712Z" fill="#4D4D4D" stroke="black" stroke-width="1.37413"/>
<path d="M88.6835 70.6372L59.5323 77.2654L61.1776 83.2007L67.3611 89.0898L81.9858 96.6474L92.5863 94.1936L96.0215 87.4212L93.6659 77.3115L91.2354 75.0079L88.6835 70.6372Z" fill="#F8F8F8"/>
<path d="M169.93 45.1177H138.522L139.036 56.4572L148.926 61.8035L162.863 66.1222L172.581 62.2943L172.777 53.4606L172.309 51.3533L169.93 45.1177Z" fill="#F8F8F8"/>
<path fill-rule="evenodd" clip-rule="evenodd" d="M157.331 26.8324C157.037 27.614 156.379 28.2445 155.509 28.4677C154.091 28.8314 152.647 27.977 152.283 26.5593C151.934 25.2004 152.705 23.8173 154.018 23.3846L155.282 24.7C155.05 24.6161 154.79 24.5988 154.533 24.6648C153.85 24.8399 153.439 25.5352 153.614 26.2178C153.789 26.9004 154.485 27.3118 155.167 27.1367C155.85 26.9616 156.261 26.2663 156.086 25.5837C156.08 25.5611 156.074 25.5387 156.067 25.5167L157.331 26.8324Z" fill="black"/>
<circle cx="2.65011" cy="2.65011" r="1.96304" transform="matrix(-0.57407 0.818806 0.818806 0.57407 153.486 31.1484)" stroke="black" stroke-width="1.37413"/>
<circle cx="2.65011" cy="2.65011" r="1.96304" transform="matrix(-0.564212 0.82563 0.82563 0.564212 145.164 17.1543)" stroke="black" stroke-width="1.37413"/>
<path d="M156.042 34.2738C157.516 33.6731 159.359 33.0034 161.408 32.3095" stroke="black" stroke-width="1.37413" stroke-linecap="round"/>
<path d="M148.127 19.8011C148.609 19.5374 149.128 19.2615 149.679 18.9754" stroke="black" stroke-width="1.37413" stroke-linecap="round"/>
<path d="M133.81 7.3291C156.679 22.1501 179.851 52.7735 171.599 62.7851C165.611 70.0483 145.981 62.8832 139.012 56.1107" stroke="black" stroke-width="1.96304" stroke-linecap="round"/>
<path fill-rule="evenodd" clip-rule="evenodd" d="M166.418 56.3167C167.614 56.3359 168.6 55.3815 168.619 54.1849C168.622 54.0228 168.607 53.8646 168.576 53.7121C169.855 53.1261 171.188 52.6504 172.522 52.2644L172.247 51.3559C170.881 51.7516 169.508 52.2411 168.185 52.8472C167.796 52.3319 167.183 51.9946 166.488 51.9834C165.291 51.9641 164.305 52.9185 164.286 54.1151C164.267 55.3117 165.221 56.2974 166.418 56.3167ZM170.506 45.2792L170.383 45.1983L170.839 46.7064C170.708 47.8467 169.703 48.6949 168.545 48.6188C167.351 48.5403 166.446 47.5086 166.525 46.3144C166.603 45.1202 167.635 44.2158 168.829 44.2943C169.539 44.3409 170.147 44.7247 170.506 45.2792ZM166.431 55.4694C167.104 55.4802 167.767 54.8604 167.778 54.188C167.789 53.5155 167.169 52.852 166.497 52.8412C165.824 52.8304 165.161 53.4502 165.15 54.1226C165.139 54.795 165.759 55.4585 166.431 55.4694ZM171.239 61.5518C172.433 61.6303 173.465 60.7258 173.543 59.5317C173.622 58.3375 172.717 57.3058 171.523 57.2273C170.329 57.1488 169.297 58.0532 169.219 59.2474C169.14 60.4416 170.045 61.4733 171.239 61.5518ZM171.301 60.6046C171.972 60.6487 172.552 60.1405 172.596 59.4694C172.64 58.7983 172.132 58.2185 171.461 58.1744C170.79 58.1303 170.21 58.6386 170.166 59.3097C170.122 59.9807 170.63 60.5605 171.301 60.6046ZM168.607 47.6716C169.278 47.7157 169.858 47.2075 169.902 46.5364C169.946 45.8653 169.438 45.2855 168.767 45.2414C168.096 45.1973 167.516 45.7056 167.472 46.3767C167.428 47.0477 167.936 47.6275 168.607 47.6716Z" fill="black"/>
<path d="M168.619 54.1849L168.453 54.1822L168.619 54.1849ZM166.418 56.3167L166.415 56.4835L166.415 56.4835L166.418 56.3167ZM168.576 53.7121L168.506 53.5604L168.385 53.6157L168.412 53.7457L168.576 53.7121ZM172.522 52.2644L172.569 52.4247L172.731 52.3777L172.682 52.2161L172.522 52.2644ZM172.247 51.3559L172.407 51.3075L172.359 51.1497L172.201 51.1956L172.247 51.3559ZM168.185 52.8472L168.051 52.9476L168.132 53.0548L168.254 52.9989L168.185 52.8472ZM166.488 51.9834L166.485 52.1502L166.488 51.9834ZM164.286 54.1151L164.119 54.1124L164.119 54.1124L164.286 54.1151ZM170.506 45.2792L170.415 45.4188L170.646 45.1885L170.506 45.2792ZM170.383 45.1983L170.474 45.0588L170.09 44.807L170.223 45.2467L170.383 45.1983ZM170.839 46.7064L171.005 46.7255L171.009 46.6911L170.999 46.658L170.839 46.7064ZM168.545 48.6188L168.534 48.7853L168.545 48.6188ZM166.525 46.3144L166.358 46.3035L166.525 46.3144ZM168.829 44.2943L168.84 44.1278L168.829 44.2943ZM167.778 54.188L167.611 54.1853L167.778 54.188ZM166.431 55.4694L166.429 55.6362L166.429 55.6362L166.431 55.4694ZM166.497 52.8412L166.499 52.6744L166.499 52.6744L166.497 52.8412ZM165.15 54.1226L164.983 54.1199L165.15 54.1226ZM173.543 59.5317L173.71 59.5426L173.543 59.5317ZM171.239 61.5518L171.228 61.7183L171.239 61.5518ZM171.523 57.2273L171.512 57.3938L171.523 57.2273ZM169.219 59.2474L169.052 59.2365L169.052 59.2365L169.219 59.2474ZM172.596 59.4694L172.763 59.4803L172.596 59.4694ZM171.301 60.6046L171.312 60.4381L171.312 60.4381L171.301 60.6046ZM171.461 58.1744L171.472 58.0079L171.461 58.1744ZM170.166 59.3097L170.333 59.3206L170.166 59.3097ZM168.607 47.6716L168.618 47.5051L168.607 47.6716ZM168.767 45.2414L168.756 45.4079L168.767 45.2414ZM167.472 46.3767L167.638 46.3876L167.472 46.3767ZM168.453 54.1822C168.435 55.2867 167.525 56.1676 166.421 56.1498L166.415 56.4835C167.704 56.5043 168.766 55.4764 168.786 54.1876L168.453 54.1822ZM168.412 53.7457C168.441 53.8863 168.455 54.0324 168.453 54.1822L168.786 54.1876C168.789 54.0133 168.773 53.8429 168.739 53.6786L168.412 53.7457ZM172.476 52.1041C171.136 52.492 169.794 52.9704 168.506 53.5604L168.645 53.8638C169.916 53.2818 171.241 52.8088 172.569 52.4247L172.476 52.1041ZM172.088 51.4042L172.363 52.3128L172.682 52.2161L172.407 51.3075L172.088 51.4042ZM168.254 52.9989C169.569 52.3968 170.934 51.91 172.294 51.5162L172.201 51.1956C170.828 51.5932 169.448 52.0854 168.115 52.6955L168.254 52.9989ZM166.485 52.1502C167.127 52.1605 167.693 52.4716 168.051 52.9476L168.318 52.7468C167.9 52.1922 167.239 51.8286 166.49 51.8165L166.485 52.1502ZM164.453 54.1178C164.471 53.0133 165.381 52.1324 166.485 52.1502L166.49 51.8165C165.202 51.7958 164.14 52.8236 164.119 54.1124L164.453 54.1178ZM166.421 56.1498C165.316 56.132 164.435 55.2222 164.453 54.1178L164.119 54.1124C164.099 55.4011 165.126 56.4627 166.415 56.4835L166.421 56.1498ZM170.598 45.1396L170.474 45.0588L170.291 45.3379L170.415 45.4188L170.598 45.1396ZM170.223 45.2467L170.68 46.7547L170.999 46.658L170.542 45.15L170.223 45.2467ZM170.674 46.6873C170.552 47.7397 169.624 48.5225 168.556 48.4523L168.534 48.7853C169.781 48.8673 170.864 47.9538 171.005 46.7255L170.674 46.6873ZM168.556 48.4523C167.453 48.3798 166.619 47.4276 166.691 46.3254L166.358 46.3035C166.274 47.5896 167.248 48.7007 168.534 48.7853L168.556 48.4523ZM166.691 46.3254C166.764 45.2231 167.716 44.3883 168.818 44.4608L168.84 44.1278C167.554 44.0432 166.443 45.0173 166.358 46.3035L166.691 46.3254ZM168.818 44.4608C169.473 44.5038 170.034 44.8577 170.366 45.37L170.646 45.1885C170.259 44.5916 169.605 44.178 168.84 44.1278L168.818 44.4608ZM167.611 54.1853C167.607 54.4677 167.464 54.7503 167.238 54.9637C167.012 55.1771 166.719 55.3071 166.434 55.3025L166.429 55.6362C166.816 55.6425 167.191 55.468 167.467 55.2061C167.744 54.9443 167.939 54.5806 167.945 54.1907L167.611 54.1853ZM166.494 53.008C166.776 53.0126 167.059 53.1555 167.272 53.3811C167.486 53.6068 167.616 53.9003 167.611 54.1853L167.945 54.1907C167.951 53.8032 167.777 53.4287 167.515 53.1518C167.253 52.8749 166.889 52.6806 166.499 52.6744L166.494 53.008ZM165.317 54.1253C165.321 53.8428 165.464 53.5603 165.69 53.3469C165.915 53.1335 166.209 53.0034 166.494 53.008L166.499 52.6744C166.112 52.6681 165.737 52.8426 165.461 53.1044C165.184 53.3663 164.989 53.7299 164.983 54.1199L165.317 54.1253ZM166.434 55.3025C166.152 55.298 165.869 55.1551 165.656 54.9294C165.442 54.7038 165.312 54.4103 165.317 54.1253L164.983 54.1199C164.977 54.5074 165.151 54.8818 165.413 55.1587C165.675 55.4356 166.039 55.6299 166.429 55.6362L166.434 55.3025ZM173.377 59.5207C173.304 60.6229 172.352 61.4577 171.25 61.3853L171.228 61.7183C172.514 61.8028 173.625 60.8287 173.71 59.5426L173.377 59.5207ZM171.512 57.3938C172.615 57.4662 173.449 58.4185 173.377 59.5207L173.71 59.5426C173.794 58.2565 172.82 57.1453 171.534 57.0608L171.512 57.3938ZM169.385 59.2584C169.458 58.1561 170.41 57.3213 171.512 57.3938L171.534 57.0608C170.248 56.9762 169.137 57.9503 169.052 59.2365L169.385 59.2584ZM171.25 61.3853C170.148 61.3128 169.313 60.3606 169.385 59.2584L169.052 59.2365C168.968 60.5226 169.942 61.6338 171.228 61.7183L171.25 61.3853ZM172.43 59.4585C172.392 60.0376 171.891 60.4762 171.312 60.4381L171.29 60.7711C172.053 60.8213 172.713 60.2434 172.763 59.4803L172.43 59.4585ZM171.45 58.3409C172.029 58.379 172.468 58.8793 172.43 59.4585L172.763 59.4803C172.813 58.7173 172.235 58.0581 171.472 58.0079L171.45 58.3409ZM170.333 59.3206C170.371 58.7415 170.871 58.3029 171.45 58.3409L171.472 58.0079C170.709 57.9578 170.05 58.5357 170 59.2987L170.333 59.3206ZM171.312 60.4381C170.733 60.4001 170.294 59.8997 170.333 59.3206L170 59.2987C169.949 60.0618 170.527 60.721 171.29 60.7711L171.312 60.4381ZM169.735 46.5254C169.697 47.1046 169.197 47.5432 168.618 47.5051L168.596 47.8381C169.359 47.8883 170.018 47.3104 170.068 46.5473L169.735 46.5254ZM168.756 45.4079C169.335 45.446 169.774 45.9463 169.735 46.5254L170.068 46.5473C170.119 45.7843 169.541 45.1251 168.778 45.0749L168.756 45.4079ZM167.638 46.3876C167.676 45.8085 168.177 45.3699 168.756 45.4079L168.778 45.0749C168.015 45.0248 167.355 45.6027 167.305 46.3657L167.638 46.3876ZM168.618 47.5051C168.039 47.4671 167.6 46.9667 167.638 46.3876L167.305 46.3657C167.255 47.1288 167.833 47.788 168.596 47.8381L168.618 47.5051Z" fill="black"/>
<path d="M60.9817 82.3173C65.2571 88.8859 82.4769 101.78 92.8811 93.703C97.2234 90.3319 96.699 81.3697 89.7876 72.6984C89.0441 71.7656 88.2426 70.8463 87.3846 69.9502" stroke="black" stroke-width="1.96304" stroke-linecap="round"/>
<ellipse cx="3.32539" cy="6.05697" rx="3.32539" ry="6.05697" transform="matrix(-0.348635 -0.937259 -0.937259 0.348635 140.606 42.1284)" fill="#FFDE28"/>
<ellipse cx="3.32539" cy="6.05697" rx="3.32539" ry="6.05697" transform="matrix(-0.24784 -0.968801 -0.968801 0.24784 90.1338 59.6753)" fill="#FFDE28"/>
<ellipse cx="3.32539" cy="6.05697" rx="3.32539" ry="6.05697" transform="matrix(-0.345927 -0.938262 -0.938262 0.345927 132.782 42.3901)" fill="black"/>
<ellipse cx="3.32539" cy="6.05697" rx="3.32539" ry="6.05697" transform="matrix(0.331964 0.943292 0.943292 -0.331964 82.4102 52.4473)" fill="black"/>
<path d="M138.877 63.3358L120.614 110.456C120.432 110.926 120.886 111.393 121.36 111.224L207.238 80.7369C207.397 80.6807 207.523 80.5598 207.587 80.4043L226.335 34.4363C226.526 33.9689 226.079 33.4939 225.601 33.6563L139.237 62.991C139.072 63.047 138.94 63.1733 138.877 63.3358Z" fill="#222222" stroke="black" stroke-width="1.37413" stroke-linecap="round"/>
<path d="M176.696 78.1387C182.906 76.6037 184.398 68.9989 182.628 65.8154C182.565 65.7029 182.413 65.6913 182.326 65.7866L178.614 69.8669C178.545 69.9428 178.429 69.9527 178.348 69.8896L174.903 67.2056C174.817 67.1384 174.693 67.1533 174.628 67.2416C171.58 71.4241 170.38 79.7 176.696 78.1387Z" stroke="#FFDE28" stroke-width="0.981521"/>
<mask id="path-51-outside-1_288_186" maskUnits="userSpaceOnUse" x="173.336" y="71.6203" width="8.36714" height="4.7972" fill="black">
<rect fill="white" x="173.336" y="71.6203" width="8.36714" height="4.7972"/>
<path d="M175.514 72.6577C175.593 72.656 175.659 72.6524 175.711 72.6471L175.869 72.6308C175.923 72.6253 175.978 72.6145 176.035 72.5983L176.198 74.1754C176.23 74.4881 176.161 74.7489 175.991 74.9578C175.83 75.1555 175.614 75.2683 175.343 75.2961C175.047 75.3266 174.8 75.2743 174.601 75.1393C174.378 74.9874 174.25 74.7488 174.217 74.4233L174.051 72.8081C174.157 72.8036 174.257 72.7966 174.349 72.7871C174.443 72.7774 174.52 72.7643 174.58 72.7479L174.75 74.3936C174.766 74.5538 174.828 74.6734 174.935 74.7523C175.035 74.8242 175.153 74.8532 175.291 74.839C175.494 74.8181 175.619 74.7 175.665 74.4845C175.681 74.407 175.684 74.313 175.672 74.2024L175.514 72.6577ZM177.692 72.3952C177.93 72.3708 178.137 72.3912 178.313 72.4566L178.373 73.0401L178.37 73.0443C178.287 72.9423 178.13 72.8853 177.897 72.8732C177.829 72.8687 177.743 72.8717 177.64 72.8823C177.537 72.8929 177.438 72.923 177.343 72.9726C177.248 73.021 177.172 73.084 177.116 73.1617C177.007 73.313 176.965 73.517 176.992 73.7738C177.023 74.0726 177.124 74.287 177.295 74.4171C177.437 74.5258 177.615 74.5692 177.829 74.5473C178.07 74.5224 178.261 74.4508 178.4 74.3324C178.451 74.2899 178.493 74.2394 178.525 74.1808L178.531 74.184L178.586 74.718C178.408 74.8994 178.155 75.0071 177.825 75.0409C177.438 75.0808 177.121 74.9887 176.876 74.7647C176.641 74.5512 176.503 74.2506 176.463 73.8628C176.421 73.4522 176.504 73.1167 176.711 72.8565C176.92 72.5947 177.247 72.4409 177.692 72.3952ZM179.592 74.8593C179.386 74.8805 179.191 74.8839 179.006 74.8695L178.743 72.318C178.909 72.2804 179.103 72.2502 179.324 72.2275C179.546 72.2046 179.75 72.2144 179.936 72.257C180.122 72.2982 180.282 72.3686 180.414 72.468C180.681 72.6667 180.836 72.9675 180.877 73.3705C180.923 73.8218 180.823 74.1784 180.575 74.4403C180.352 74.6752 180.025 74.8148 179.592 74.8593ZM179.459 74.4028C179.543 74.4096 179.626 74.4087 179.709 74.4002C179.792 74.3917 179.879 74.3667 179.971 74.3251C180.063 74.2822 180.14 74.2229 180.203 74.147C180.338 73.9867 180.392 73.7679 180.363 73.4908C180.316 73.0356 180.122 72.773 179.779 72.7029C179.666 72.6798 179.538 72.6756 179.394 72.6904L179.343 72.6957C179.324 72.6977 179.304 72.7003 179.284 72.7037L179.459 74.4028Z"/>
</mask>
<path d="M175.514 72.6577C175.593 72.656 175.659 72.6524 175.711 72.6471L175.869 72.6308C175.923 72.6253 175.978 72.6145 176.035 72.5983L176.198 74.1754C176.23 74.4881 176.161 74.7489 175.991 74.9578C175.83 75.1555 175.614 75.2683 175.343 75.2961C175.047 75.3266 174.8 75.2743 174.601 75.1393C174.378 74.9874 174.25 74.7488 174.217 74.4233L174.051 72.8081C174.157 72.8036 174.257 72.7966 174.349 72.7871C174.443 72.7774 174.52 72.7643 174.58 72.7479L174.75 74.3936C174.766 74.5538 174.828 74.6734 174.935 74.7523C175.035 74.8242 175.153 74.8532 175.291 74.839C175.494 74.8181 175.619 74.7 175.665 74.4845C175.681 74.407 175.684 74.313 175.672 74.2024L175.514 72.6577ZM177.692 72.3952C177.93 72.3708 178.137 72.3912 178.313 72.4566L178.373 73.0401L178.37 73.0443C178.287 72.9423 178.13 72.8853 177.897 72.8732C177.829 72.8687 177.743 72.8717 177.64 72.8823C177.537 72.8929 177.438 72.923 177.343 72.9726C177.248 73.021 177.172 73.084 177.116 73.1617C177.007 73.313 176.965 73.517 176.992 73.7738C177.023 74.0726 177.124 74.287 177.295 74.4171C177.437 74.5258 177.615 74.5692 177.829 74.5473C178.07 74.5224 178.261 74.4508 178.4 74.3324C178.451 74.2899 178.493 74.2394 178.525 74.1808L178.531 74.184L178.586 74.718C178.408 74.8994 178.155 75.0071 177.825 75.0409C177.438 75.0808 177.121 74.9887 176.876 74.7647C176.641 74.5512 176.503 74.2506 176.463 73.8628C176.421 73.4522 176.504 73.1167 176.711 72.8565C176.92 72.5947 177.247 72.4409 177.692 72.3952ZM179.592 74.8593C179.386 74.8805 179.191 74.8839 179.006 74.8695L178.743 72.318C178.909 72.2804 179.103 72.2502 179.324 72.2275C179.546 72.2046 179.75 72.2144 179.936 72.257C180.122 72.2982 180.282 72.3686 180.414 72.468C180.681 72.6667 180.836 72.9675 180.877 73.3705C180.923 73.8218 180.823 74.1784 180.575 74.4403C180.352 74.6752 180.025 74.8148 179.592 74.8593ZM179.459 74.4028C179.543 74.4096 179.626 74.4087 179.709 74.4002C179.792 74.3917 179.879 74.3667 179.971 74.3251C180.063 74.2822 180.14 74.2229 180.203 74.147C180.338 73.9867 180.392 73.7679 180.363 73.4908C180.316 73.0356 180.122 72.773 179.779 72.7029C179.666 72.6798 179.538 72.6756 179.394 72.6904L179.343 72.6957C179.324 72.6977 179.304 72.7003 179.284 72.7037L179.459 74.4028Z" fill="#FFDE28"/>
<path d="M175.514 72.6577L175.513 72.6185L175.47 72.6194L175.474 72.6617L175.514 72.6577ZM176.035 72.5983L176.074 72.5943L176.07 72.5478L176.025 72.5605L176.035 72.5983ZM174.601 75.1393L174.579 75.1717L174.579 75.1718L174.601 75.1393ZM174.051 72.8081L174.049 72.7689L174.008 72.7706L174.012 72.8121L174.051 72.8081ZM174.58 72.7479L174.619 72.7439L174.615 72.6978L174.57 72.71L174.58 72.7479ZM174.935 74.7523L174.912 74.7839L174.912 74.7841L174.935 74.7523ZM175.665 74.4845L175.703 74.4927L175.703 74.4927L175.665 74.4845ZM175.514 72.697C175.594 72.6952 175.661 72.6916 175.715 72.6861L175.707 72.608C175.656 72.6132 175.592 72.6167 175.513 72.6185L175.514 72.697ZM175.715 72.6861L175.873 72.6699L175.865 72.5917L175.707 72.608L175.715 72.6861ZM175.873 72.6699C175.929 72.6641 175.987 72.6528 176.046 72.6361L176.025 72.5605C175.969 72.5761 175.916 72.5865 175.865 72.5917L175.873 72.6699ZM175.996 72.6023L176.159 74.1794L176.237 74.1714L176.074 72.5943L175.996 72.6023ZM176.159 74.1794C176.19 74.4836 176.123 74.7336 175.96 74.9331L176.021 74.9826C176.199 74.7643 176.27 74.4926 176.237 74.1714L176.159 74.1794ZM175.96 74.9331C175.807 75.1221 175.601 75.2302 175.339 75.2571L175.347 75.3352C175.628 75.3064 175.853 75.189 176.021 74.9826L175.96 74.9331ZM175.339 75.2571C175.05 75.2868 174.812 75.2355 174.623 75.1068L174.579 75.1718C174.787 75.3131 175.044 75.3663 175.347 75.3352L175.339 75.2571ZM174.623 75.1069C174.412 74.9629 174.289 74.736 174.256 74.4193L174.178 74.4273C174.212 74.7616 174.345 75.012 174.579 75.1717L174.623 75.1069ZM174.256 74.4193L174.09 72.8041L174.012 72.8121L174.178 74.4273L174.256 74.4193ZM174.053 72.8473C174.159 72.8428 174.26 72.8357 174.353 72.8261L174.345 72.748C174.253 72.7575 174.155 72.7644 174.049 72.7689L174.053 72.8473ZM174.353 72.8261C174.449 72.8163 174.528 72.803 174.591 72.7857L174.57 72.71C174.513 72.7257 174.438 72.7385 174.345 72.748L174.353 72.8261ZM174.541 72.7519L174.711 74.3976L174.789 74.3896L174.619 72.7439L174.541 72.7519ZM174.711 74.3976C174.728 74.5663 174.794 74.697 174.912 74.7839L174.958 74.7207C174.862 74.6497 174.804 74.5413 174.789 74.3896L174.711 74.3976ZM174.912 74.7841C175.021 74.8624 175.149 74.8931 175.295 74.8781L175.287 74.8C175.158 74.8132 175.049 74.7861 174.958 74.7204L174.912 74.7841ZM175.295 74.8781C175.403 74.8669 175.494 74.8293 175.564 74.7632C175.633 74.6973 175.679 74.606 175.703 74.4927L175.626 74.4763C175.605 74.5785 175.565 74.654 175.51 74.7062C175.455 74.7583 175.381 74.7902 175.287 74.8L175.295 74.8781ZM175.703 74.4927C175.721 74.4099 175.723 74.3115 175.711 74.1984L175.633 74.2064C175.644 74.3145 175.642 74.4041 175.626 74.4764L175.703 74.4927ZM175.711 74.1984L175.553 72.6537L175.474 72.6617L175.633 74.2064L175.711 74.1984ZM178.313 72.4566L178.352 72.4526L178.35 72.4283L178.327 72.4198L178.313 72.4566ZM178.373 73.0401L178.404 73.0649L178.414 73.0523L178.412 73.0361L178.373 73.0401ZM178.37 73.0443L178.339 73.069L178.37 73.1067L178.4 73.0691L178.37 73.0443ZM177.897 72.8732L177.895 72.9124L177.895 72.9124L177.897 72.8732ZM177.343 72.9726L177.361 73.0076L177.361 73.0074L177.343 72.9726ZM177.116 73.1617L177.084 73.1387L177.084 73.1388L177.116 73.1617ZM177.295 74.4171L177.319 74.3859L177.319 74.3859L177.295 74.4171ZM178.4 74.3324L178.375 74.3023L178.375 74.3025L178.4 74.3324ZM178.525 74.1808L178.544 74.1461L178.51 74.1281L178.491 74.1617L178.525 74.1808ZM178.531 74.184L178.57 74.18L178.568 74.1591L178.55 74.1493L178.531 74.184ZM178.586 74.718L178.614 74.7455L178.627 74.7323L178.625 74.714L178.586 74.718ZM176.876 74.7647L176.902 74.7357L176.902 74.7356L176.876 74.7647ZM176.711 72.8565L176.68 72.832L176.68 72.832L176.711 72.8565ZM177.696 72.4342C177.93 72.4103 178.13 72.4306 178.3 72.4934L178.327 72.4198C178.144 72.3518 177.93 72.3312 177.688 72.3561L177.696 72.4342ZM178.274 72.4606L178.334 73.0442L178.412 73.0361L178.352 72.4526L178.274 72.4606ZM178.343 73.0154L178.339 73.0196L178.4 73.0691L178.404 73.0649L178.343 73.0154ZM178.4 73.0197C178.307 72.9042 178.135 72.8462 177.9 72.834L177.895 72.9124C178.125 72.9243 178.268 72.9804 178.339 73.069L178.4 73.0197ZM177.9 72.834C177.829 72.8293 177.74 72.8326 177.636 72.8433L177.644 72.9214C177.746 72.9109 177.829 72.9081 177.895 72.9124L177.9 72.834ZM177.636 72.8433C177.528 72.8544 177.424 72.886 177.325 72.9378L177.361 73.0074C177.452 72.96 177.546 72.9314 177.644 72.9214L177.636 72.8433ZM177.325 72.9376C177.225 72.9884 177.144 73.0554 177.084 73.1387L177.148 73.1847C177.2 73.1126 177.271 73.0535 177.361 73.0076L177.325 72.9376ZM177.084 73.1388C176.967 73.3004 176.926 73.5151 176.953 73.7778L177.031 73.7698C177.005 73.5189 177.046 73.3256 177.148 73.1847L177.084 73.1388ZM176.953 73.7778C176.984 74.083 177.088 74.3094 177.271 74.4484L177.319 74.3859C177.159 74.2646 177.061 74.0621 177.031 73.7698L176.953 73.7778ZM177.271 74.4483C177.423 74.5643 177.611 74.6091 177.833 74.5863L177.825 74.5082C177.619 74.5294 177.452 74.4874 177.319 74.3859L177.271 74.4483ZM177.833 74.5863C178.08 74.5609 178.278 74.4873 178.426 74.3623L178.375 74.3025C178.243 74.4143 178.061 74.4839 177.825 74.5082L177.833 74.5863ZM178.425 74.3625C178.48 74.3169 178.525 74.2626 178.56 74.1999L178.491 74.1617C178.461 74.2162 178.422 74.2629 178.375 74.3023L178.425 74.3625ZM178.507 74.2155L178.513 74.2187L178.55 74.1493L178.544 74.1461L178.507 74.2155ZM178.492 74.188L178.547 74.722L178.625 74.714L178.57 74.18L178.492 74.188ZM178.558 74.6905C178.388 74.8637 178.144 74.9687 177.821 75.0019L177.83 75.08C178.165 75.0455 178.428 74.9352 178.614 74.7455L178.558 74.6905ZM177.821 75.0019C177.443 75.0408 177.138 74.9509 176.902 74.7357L176.849 74.7937C177.104 75.0266 177.433 75.1208 177.83 75.08L177.821 75.0019ZM176.902 74.7356C176.676 74.53 176.541 74.2392 176.502 73.8588L176.424 73.8668C176.465 74.2619 176.606 74.5724 176.85 74.7938L176.902 74.7356ZM176.502 73.8588C176.461 73.4558 176.542 73.1313 176.741 72.8809L176.68 72.832C176.465 73.1022 176.381 73.4486 176.424 73.8668L176.502 73.8588ZM176.741 72.881C176.942 72.6299 177.258 72.4793 177.696 72.4342L177.688 72.3561C177.236 72.4026 176.898 72.5595 176.68 72.832L176.741 72.881ZM179.006 74.8695L178.967 74.8735L178.97 74.9061L179.003 74.9086L179.006 74.8695ZM178.743 72.318L178.735 72.2797L178.701 72.2874L178.704 72.322L178.743 72.318ZM179.936 72.257L179.927 72.2953L179.927 72.2954L179.936 72.257ZM180.414 72.468L180.391 72.4994L180.391 72.4995L180.414 72.468ZM180.575 74.4403L180.603 74.4673L180.603 74.4673L180.575 74.4403ZM179.459 74.4028L179.42 74.4068L179.423 74.4393L179.456 74.4419L179.459 74.4028ZM179.971 74.3251L179.987 74.3609L179.988 74.3607L179.971 74.3251ZM180.203 74.147L180.173 74.1217L180.173 74.122L180.203 74.147ZM179.779 72.7029L179.787 72.6644L179.787 72.6644L179.779 72.7029ZM179.284 72.7037L179.278 72.665L179.241 72.671L179.245 72.7077L179.284 72.7037ZM179.588 74.8202C179.385 74.8412 179.191 74.8445 179.009 74.8304L179.003 74.9086C179.19 74.9232 179.388 74.9197 179.596 74.8983L179.588 74.8202ZM179.045 74.8655L178.782 72.3139L178.704 72.322L178.967 74.8735L179.045 74.8655ZM178.752 72.3562C178.916 72.3191 179.108 72.2891 179.328 72.2665L179.32 72.1884C179.097 72.2113 178.902 72.2416 178.735 72.2797L178.752 72.3562ZM179.328 72.2665C179.547 72.244 179.746 72.2538 179.927 72.2953L179.945 72.2188C179.754 72.1751 179.546 72.1652 179.32 72.1884L179.328 72.2665ZM179.927 72.2954C180.109 72.3355 180.263 72.4038 180.391 72.4994L180.438 72.4366C180.3 72.3333 180.136 72.2609 179.944 72.2187L179.927 72.2954ZM180.391 72.4995C180.647 72.6902 180.797 72.9799 180.838 73.3745L180.916 73.3665C180.874 72.9551 180.715 72.6431 180.438 72.4365L180.391 72.4995ZM180.838 73.3745C180.884 73.8176 180.784 74.1618 180.546 74.4133L180.603 74.4673C180.861 74.1951 180.963 73.826 180.916 73.3665L180.838 73.3745ZM180.546 74.4133C180.332 74.6393 180.015 74.7764 179.588 74.8202L179.596 74.8983C180.035 74.8533 180.372 74.711 180.603 74.4673L180.546 74.4133ZM179.456 74.4419C179.542 74.4489 179.628 74.448 179.713 74.4393L179.705 74.3611C179.625 74.3694 179.544 74.3702 179.462 74.3637L179.456 74.4419ZM179.713 74.4393C179.801 74.4302 179.892 74.4038 179.987 74.3609L179.955 74.2893C179.866 74.3295 179.783 74.3532 179.705 74.3611L179.713 74.4393ZM179.988 74.3607C180.085 74.3154 180.167 74.2525 180.234 74.1721L180.173 74.122C180.114 74.1932 180.041 74.249 179.955 74.2895L179.988 74.3607ZM180.233 74.1723C180.377 74.0014 180.432 73.7709 180.402 73.4868L180.324 73.4948C180.352 73.765 180.3 73.9719 180.173 74.1217L180.233 74.1723ZM180.402 73.4868C180.378 73.2549 180.317 73.0679 180.214 72.9291C180.11 72.7894 179.967 72.7013 179.787 72.6644L179.771 72.7413C179.934 72.7746 180.059 72.8529 180.151 72.9758C180.242 73.0997 180.301 73.2716 180.324 73.4948L180.402 73.4868ZM179.787 72.6644C179.67 72.6404 179.537 72.6363 179.39 72.6513L179.399 72.7295C179.539 72.715 179.663 72.7192 179.771 72.7413L179.787 72.6644ZM179.39 72.6513L179.339 72.6566L179.347 72.7348L179.399 72.7295L179.39 72.6513ZM179.339 72.6566C179.319 72.6587 179.299 72.6615 179.278 72.665L179.291 72.7424C179.31 72.7392 179.329 72.7366 179.347 72.7348L179.339 72.6566ZM179.245 72.7077L179.42 74.4068L179.498 74.3988L179.323 72.6997L179.245 72.7077Z" fill="#FFDE28" mask="url(#path-51-outside-1_288_186)"/>
<path d="M107.488 23.6263C104.232 24.3278 100.474 25.2309 95.2087 27.0012C89.9435 28.7715 87.3639 29.8679 84.4227 31.1514" stroke="black" stroke-width="1.37413" stroke-linecap="round"/>
<circle cx="2.55195" cy="2.55195" r="1.86489" transform="matrix(-0.96244 0.271494 0.271494 0.96244 111.168 20.3096)" stroke="black" stroke-width="1.37413"/>
<circle cx="2.55195" cy="2.55195" r="1.86489" transform="matrix(-0.96244 0.271494 0.271494 0.96244 84.1235 28.9761)" stroke="black" stroke-width="1.37413"/>
<path d="M110.649 17.909C105.889 18.7584 101.579 19.6648 93.3621 22.419C85.1448 25.1732 81.2355 26.8609 77.5428 28.5044" stroke="black" stroke-width="1.37413" stroke-linecap="round"/>
<circle cx="2.55195" cy="2.55195" r="1.86489" transform="matrix(-0.958276 0.285845 0.285845 0.958276 77.1558 26.1553)" stroke="black" stroke-width="1.37413"/>
<circle cx="2.55195" cy="2.55195" r="1.86489" transform="matrix(-0.958276 0.285845 0.285845 0.958276 114.439 14.2441)" stroke="black" stroke-width="1.37413"/>
<path d="M115.894 38.2843C116.076 38.5356 116.525 38.7448 117.346 38.638C118.137 38.5351 119.11 38.1471 120.048 37.4666C120.986 36.7861 121.657 35.9819 122 35.2618C122.356 34.5146 122.297 34.0224 122.114 33.7711C121.932 33.5198 121.483 33.3106 120.662 33.4173C119.871 33.5202 118.898 33.9082 117.96 34.5887C117.022 35.2692 116.351 36.0734 116.008 36.7936C115.652 37.5408 115.711 38.033 115.894 38.2843Z" stroke="black" stroke-width="1.37413"/>
<path d="M93.7541 45.0122C93.7682 45.3223 93.5472 45.766 92.8388 46.1943C92.156 46.6071 91.1536 46.91 89.9959 46.9626C88.8382 47.0152 87.8124 46.8045 87.095 46.4554C86.3506 46.0932 86.0902 45.6714 86.0761 45.3612C86.062 45.0511 86.2831 44.6073 86.9915 44.1791C87.6743 43.7663 88.6767 43.4634 89.8344 43.4108C90.9921 43.3582 92.0179 43.5689 92.7353 43.9179C93.4797 44.2802 93.74 44.702 93.7541 45.0122Z" stroke="black" stroke-width="1.37413"/>
<path d="M115.578 50.5681C115.578 50.1886 115.885 49.881 116.265 49.881C116.644 49.881 116.952 50.1886 116.952 50.5681L115.578 50.5681ZM110.081 52.0404L109.394 52.0281C109.399 51.7534 109.567 51.5081 109.822 51.4043C110.076 51.3005 110.368 51.3582 110.564 51.5511L110.081 52.0404ZM104.024 55.3714C103.703 55.1703 103.605 54.7464 103.806 54.4246C104.007 54.1028 104.431 54.0049 104.752 54.206L104.024 55.3714ZM113.723 52.6946L113.869 53.366L113.723 52.6946ZM107.79 54.6435L108.068 55.2719L107.79 54.6435ZM116.952 50.5681C116.952 51.2941 116.513 51.9217 115.978 52.3708C115.429 52.8326 114.688 53.188 113.869 53.366L113.577 52.0232C114.205 51.8869 114.735 51.6207 115.094 51.3187C115.469 51.0039 115.578 50.7255 115.578 50.5681L116.952 50.5681ZM113.869 53.366C113.126 53.5275 112.312 53.5478 111.572 53.4249C110.845 53.3042 110.108 53.031 109.599 52.5298L110.564 51.5511C110.792 51.7757 111.216 51.9728 111.797 52.0693C112.364 52.1635 113.003 52.1481 113.577 52.0232L113.869 53.366ZM110.768 52.0528C110.743 53.4831 109.508 54.6354 108.068 55.2719L107.513 54.0151C108.781 53.4544 109.383 52.6465 109.394 52.0281L110.768 52.0528ZM108.068 55.2719C107.321 55.6022 106.494 55.7252 105.795 55.7291C105.443 55.731 105.109 55.7028 104.819 55.649C104.545 55.5982 104.253 55.5143 104.024 55.3714L104.752 54.206C104.751 54.205 104.757 54.2088 104.772 54.2157C104.788 54.2226 104.809 54.2311 104.838 54.2407C104.896 54.2599 104.973 54.28 105.07 54.2979C105.263 54.3338 105.51 54.3565 105.788 54.3549C106.349 54.3519 106.98 54.2507 107.513 54.0151L108.068 55.2719Z" fill="black"/>
<path fill-rule="evenodd" clip-rule="evenodd" d="M78.7974 88.1428C78.238 89.3261 76.8252 89.8318 75.6419 89.2724C75.4817 89.1966 75.3338 89.1051 75.1993 89.0007C74.1394 89.864 73.1443 90.8111 72.218 91.7983L71.359 91.1971C72.3397 90.1434 73.4012 89.1268 74.5398 88.1991C74.2219 87.5691 74.1874 86.8043 74.5124 86.1169C75.0719 84.9336 76.4846 84.4279 77.6679 84.9874C78.8512 85.5468 79.3569 86.9596 78.7974 88.1428ZM77.089 94.0313C77.1189 93.8835 77.1633 93.7363 77.2231 93.5917C77.7233 92.3822 79.1093 91.8072 80.3188 92.3074C81.5283 92.8076 82.1033 94.1936 81.6031 95.4031C81.5746 95.472 81.5432 95.5388 81.5092 95.6036L80.5128 95.2491C80.5638 95.1744 80.6079 95.0933 80.6438 95.0063C80.9249 94.3267 80.6018 93.5478 79.9221 93.2667C79.2424 92.9856 78.4635 93.3087 78.1824 93.9884C78.1286 94.1186 78.0969 94.2525 78.0857 94.3858L77.089 94.0313ZM77.9597 87.7465C77.6453 88.4114 76.7166 88.7628 76.0516 88.4484C75.3867 88.134 75.0353 87.2052 75.3497 86.5403C75.6641 85.8753 76.5928 85.524 77.2578 85.8384C77.9228 86.1528 78.2741 87.0815 77.9597 87.7465ZM70.2173 86.5087C69.7171 87.7182 68.3311 88.2932 67.1216 87.793C65.9121 87.2928 65.3371 85.9068 65.8373 84.6973C66.3375 83.4878 67.7235 82.9128 68.933 83.413C70.1425 83.9132 70.7175 85.2992 70.2173 86.5087ZM69.258 86.112C68.9769 86.7917 68.198 87.1148 67.5183 86.8337C66.8386 86.5526 66.5155 85.7737 66.7966 85.094C67.0777 84.4143 67.8566 84.0912 68.5363 84.3723C69.216 84.6534 69.5391 85.4323 69.258 86.112Z" fill="black"/>
<path d="M75.6419 89.2724L75.5706 89.4232L75.6419 89.2724ZM78.7974 88.1428L78.9483 88.2142L78.9483 88.2142L78.7974 88.1428ZM75.1993 89.0007L75.094 88.8714L75.1969 88.7875L75.3017 88.8689L75.1993 89.0007ZM72.218 91.7983L72.3397 91.9125L72.2408 92.0179L72.1223 91.935L72.218 91.7983ZM71.359 91.1971L71.2634 91.3338L71.1062 91.2238L71.2369 91.0834L71.359 91.1971ZM74.5398 88.1991L74.6888 88.1239L74.7492 88.2437L74.6452 88.3284L74.5398 88.1991ZM74.5124 86.1169L74.6633 86.1882L74.6633 86.1882L74.5124 86.1169ZM77.6679 84.9874L77.7392 84.8365L77.7392 84.8365L77.6679 84.9874ZM77.2231 93.5917L77.3773 93.6555L77.2231 93.5917ZM77.089 94.0313L77.0331 94.1885L76.8969 94.1401L76.9255 93.9983L77.089 94.0313ZM80.3188 92.3074L80.3826 92.1532L80.3188 92.3074ZM81.6031 95.4031L81.7573 95.4668L81.7573 95.4668L81.6031 95.4031ZM81.5092 95.6036L81.6569 95.6813L81.5895 95.8092L81.4533 95.7608L81.5092 95.6036ZM80.5128 95.2491L80.4569 95.4063L80.253 95.3338L80.3749 95.1551L80.5128 95.2491ZM80.6438 95.0063L80.4896 94.9426L80.4896 94.9426L80.6438 95.0063ZM78.1824 93.9884L78.3366 94.0522L78.1824 93.9884ZM78.0857 94.3858L78.2519 94.3998L78.2337 94.6156L78.0297 94.543L78.0857 94.3858ZM76.0516 88.4484L76.1229 88.2975L76.0516 88.4484ZM77.9597 87.7465L78.1105 87.8178L78.1105 87.8178L77.9597 87.7465ZM75.3497 86.5403L75.5006 86.6116L75.5006 86.6116L75.3497 86.5403ZM77.2578 85.8384L77.1865 85.9892L77.2578 85.8384ZM67.1216 87.793L67.0578 87.9472L67.1216 87.793ZM70.2173 86.5087L70.0631 86.4449L70.2173 86.5087ZM65.8373 84.6973L65.6831 84.6335L65.6831 84.6335L65.8373 84.6973ZM68.933 83.413L68.8692 83.5672L68.933 83.413ZM69.258 86.112L69.1038 86.0482L69.258 86.112ZM66.7966 85.094L66.9508 85.1578L66.9508 85.1578L66.7966 85.094ZM75.7133 89.1215C76.8132 89.6416 78.1265 89.1715 78.6466 88.0715L78.9483 88.2142C78.3494 89.4807 76.8372 90.0221 75.5706 89.4232L75.7133 89.1215ZM75.3017 88.8689C75.4266 88.9659 75.5641 89.051 75.7133 89.1215L75.5706 89.4232C75.3993 89.3422 75.241 89.2443 75.097 89.1325L75.3017 88.8689ZM72.0963 91.6841C73.027 90.6924 74.0274 89.7401 75.094 88.8714L75.3047 89.1301C74.2514 89.988 73.2617 90.9299 72.3397 91.9125L72.0963 91.6841ZM71.4547 91.0604L72.3137 91.6616L72.1223 91.935L71.2634 91.3338L71.4547 91.0604ZM74.6452 88.3284C73.5134 89.2506 72.4575 90.2618 71.4812 91.3108L71.2369 91.0834C72.2219 90.025 73.2889 89.003 74.4344 88.0697L74.6452 88.3284ZM74.6633 86.1882C74.3612 86.8271 74.393 87.5378 74.6888 88.1239L74.3908 88.2742C74.0507 87.6003 74.0137 86.7814 74.3616 86.0456L74.6633 86.1882ZM77.5966 85.1382C76.4966 84.6182 75.1833 85.0883 74.6633 86.1882L74.3616 86.0456C74.9604 84.779 76.4726 84.2377 77.7392 84.8365L77.5966 85.1382ZM78.6466 88.0715C79.1666 86.9716 78.6965 85.6583 77.5966 85.1382L77.7392 84.8365C79.0058 85.4354 79.5471 86.9476 78.9483 88.2142L78.6466 88.0715ZM77.3773 93.6555C77.3216 93.7901 77.2803 93.9269 77.2526 94.0643L76.9255 93.9983C76.9574 93.84 77.005 93.6825 77.0689 93.5279L77.3773 93.6555ZM80.255 92.4616C79.1307 91.9966 77.8423 92.5311 77.3773 93.6555L77.0689 93.5279C77.6043 92.2333 79.0879 91.6178 80.3826 92.1532L80.255 92.4616ZM81.4489 95.3393C81.9139 94.215 81.3794 92.9266 80.255 92.4616L80.3826 92.1532C81.6772 92.6886 82.2927 94.1722 81.7573 95.4668L81.4489 95.3393ZM81.3615 95.5259C81.3932 95.4657 81.4224 95.4035 81.4489 95.3393L81.7573 95.4668C81.7269 95.5405 81.6933 95.612 81.6569 95.6813L81.3615 95.5259ZM80.5687 95.0919L81.5651 95.4463L81.4533 95.7608L80.4569 95.4063L80.5687 95.0919ZM80.3749 95.1551C80.4195 95.0898 80.4581 95.0188 80.4896 94.9426L80.798 95.0701C80.7576 95.1677 80.7081 95.259 80.6506 95.3432L80.3749 95.1551ZM80.4896 94.9426C80.7355 94.348 80.4529 93.6668 79.8583 93.4209L79.9859 93.1125C80.7507 93.4288 81.1143 94.3053 80.798 95.0701L80.4896 94.9426ZM79.8583 93.4209C79.2638 93.175 78.5825 93.4576 78.3366 94.0522L78.0282 93.9246C78.3445 93.1598 79.221 92.7962 79.9859 93.1125L79.8583 93.4209ZM78.3366 94.0522C78.2894 94.1664 78.2617 94.2834 78.2519 94.3998L77.9194 94.3718C77.932 94.2216 77.9677 94.0709 78.0282 93.9246L78.3366 94.0522ZM77.145 93.8741L78.1416 94.2286L78.0297 94.543L77.0331 94.1885L77.145 93.8741ZM76.1229 88.2975C76.4068 88.4317 76.7575 88.4276 77.079 88.3082C77.4006 88.1889 77.6736 87.9613 77.8089 87.6751L78.1105 87.8178C77.9315 88.1966 77.5828 88.4772 77.1952 88.6211C76.8075 88.765 76.3614 88.7794 75.9803 88.5992L76.1229 88.2975ZM75.5006 86.6116C75.3663 86.8955 75.3704 87.2462 75.4898 87.5677C75.6092 87.8893 75.8368 88.1622 76.1229 88.2975L75.9803 88.5992C75.6015 88.4201 75.3209 88.0715 75.177 87.6839C75.033 87.2962 75.0187 86.85 75.1989 86.4689L75.5006 86.6116ZM77.1865 85.9892C76.9026 85.855 76.5519 85.8591 76.2304 85.9785C75.9088 86.0979 75.6358 86.3254 75.5006 86.6116L75.1989 86.4689C75.378 86.0901 75.7266 85.8096 76.1142 85.6656C76.5019 85.5217 76.948 85.5073 77.3291 85.6875L77.1865 85.9892ZM77.8089 87.6751C77.9431 87.3913 77.939 87.0406 77.8196 86.719C77.7002 86.3975 77.4726 86.1245 77.1865 85.9892L77.3291 85.6875C77.7079 85.8666 77.9885 86.2152 78.1324 86.6029C78.2764 86.9905 78.2907 87.4367 78.1105 87.8178L77.8089 87.6751ZM67.1854 87.6388C68.3097 88.1038 69.5981 87.5693 70.0631 86.4449L70.3715 86.5725C69.8361 87.8671 68.3525 88.4826 67.0578 87.9472L67.1854 87.6388ZM65.9915 84.7611C65.5265 85.8854 66.061 87.1738 67.1854 87.6388L67.0578 87.9472C65.7632 87.4118 65.1477 85.9282 65.6831 84.6335L65.9915 84.7611ZM68.8692 83.5672C67.7449 83.1022 66.4565 83.6367 65.9915 84.7611L65.6831 84.6335C66.2185 83.3389 67.7021 82.7234 68.9968 83.2588L68.8692 83.5672ZM70.0631 86.4449C70.5281 85.3206 69.9936 84.0322 68.8692 83.5672L68.9968 83.2588C70.2914 83.7942 70.9069 85.2778 70.3715 86.5725L70.0631 86.4449ZM67.5821 86.6795C68.1766 86.9254 68.8579 86.6427 69.1038 86.0482L69.4122 86.1757C69.0959 86.9406 68.2194 87.3042 67.4546 86.9879L67.5821 86.6795ZM66.9508 85.1578C66.7049 85.7523 66.9876 86.4336 67.5821 86.6795L67.4546 86.9879C66.6897 86.6716 66.3261 85.7951 66.6424 85.0303L66.9508 85.1578ZM68.4725 84.5265C67.878 84.2806 67.1967 84.5633 66.9508 85.1578L66.6424 85.0303C66.9587 84.2654 67.8352 83.9018 68.6 84.2181L68.4725 84.5265ZM69.1038 86.0482C69.3497 85.4536 69.067 84.7724 68.4725 84.5265L68.6 84.2181C69.3649 84.5344 69.7285 85.4109 69.4122 86.1757L69.1038 86.0482Z" fill="black"/>
<path d="M124.607 6.35292C123.357 6.75616 124.661 9.51143 125.572 11.0186C125.649 11.1448 125.789 11.215 125.937 11.2039L131.018 10.8219C131.361 10.7961 131.505 10.3824 131.242 10.1594C129.393 8.58971 125.753 5.98336 124.607 6.35292Z" fill="#FFDE28" stroke="black" stroke-width="1.37413"/>
<defs>
<linearGradient id="paint0_linear_288_186" x1="-35.2769" y1="-34.3506" x2="189.159" y2="143.982" gradientUnits="userSpaceOnUse">
<stop stop-color="#FFDE28"/>
<stop offset="1" stop-color="#FFDE28" stop-opacity="0.1"/>
</linearGradient>
<linearGradient id="paint1_linear_288_186" x1="10.573" y1="98.1327" x2="206.638" y2="107.505" gradientUnits="userSpaceOnUse">
<stop stop-color="#FFEF9A"/>
<stop offset="1" stop-color="#423B17"/>
</linearGradient>
</defs>
</svg>
