<svg width="208" height="116" viewBox="0 0 208 116" fill="none" xmlns="http://www.w3.org/2000/svg">
<path d="M11.1426 75.2727C-7.70537 50.5256 19.8842 28.9051 38.5042 32.3818L195.144 84.6681C198.627 117.248 149.64 123.391 106.927 104.018C64.1786 84.6304 30.6284 100.857 11.1426 75.2727Z" fill="url(#paint0_linear_209_650)" stroke="url(#paint1_linear_209_650)" stroke-width="0.875085" stroke-linecap="round"/>
<path d="M104.236 96.5232L140.686 76.0727C141.068 75.8585 141.019 75.2944 140.606 75.1493L68.874 49.9345C68.7509 49.8912 68.6158 49.8969 68.4968 49.9504L28.9228 67.7373C28.508 67.9237 28.5277 68.5192 28.9538 68.6779L103.81 96.5562C103.95 96.6084 104.106 96.5963 104.236 96.5232Z" fill="#222222" stroke="black" stroke-width="1.18675" stroke-linecap="round"/>
<path d="M92.5863 5.9573C84.3808 10.5687 64.4516 32.5063 61.1174 39.7398L179.453 79.3263C179.457 55.3919 172.951 39.811 173.031 37.6604C173.099 35.8295 170.86 32.8195 170.423 30.8505C168.016 25.3812 166.165 21.2265 163.86 19.7346C160.977 17.8697 160.719 16.2592 156.735 19.7346C153.548 22.515 153.966 26.1205 152.836 26.2617C147.275 21.9895 123.168 12.6925 105.96 10.7492C107.211 4.86046 107.926 -0.17291 101.947 1.53518C100.416 1.97272 102.23 -0.513951 92.5863 5.9573Z" fill="#F8F8F8"/>
<path d="M179.284 75.6812L179.692 79.0805L187.761 81.6997L190.982 76.1898L192.084 61.1011L194.627 55.8455L205.647 51.6919L204.884 45.2495L197.339 43.8933L188.523 47.0297L183.607 55.676L181.996 71.6971L179.284 75.6812Z" fill="#F8F8F8"/>
<path d="M186.573 78.3093L183.86 80.937L186.912 81.6999L188.683 79.6831L186.573 78.3093Z" fill="#FFDE28"/>
<rect width="3.79946" height="2.73341" transform="matrix(-0.975845 -0.218465 -0.218465 0.975845 186.774 58.5071)" fill="#FFDE28"/>
<path d="M202.425 47.8778L203.649 52.7973L200.599 53.4821L200.317 48.7794L202.425 47.8778Z" fill="#FFDE28"/>
<circle cx="2.11919" cy="2.11919" r="1.52582" transform="matrix(-0.969958 -0.243273 -0.243273 0.969958 201.712 46.9968)" stroke="black" stroke-width="1.18675"/>
<path d="M200.475 53.0488C200.411 52.3726 200.124 50.5319 199.653 50.0525" stroke="black" stroke-width="1.18675" stroke-linecap="round"/>
<path d="M200.952 48.2279L202.42 47.8148C202.514 47.7881 202.612 47.8465 202.632 47.9427C202.919 49.2976 203.478 51.6386 203.527 52.2856" stroke="black" stroke-width="1.18675" stroke-linecap="round"/>
<path d="M179.593 75.6815C181.255 73.9691 182.501 71.2838 182.456 67.0455C182.318 54.1286 186.367 45.4413 196.796 44.2347C202.556 43.5683 205.29 44.9384 205.772 48.1465C206.316 51.7685 203.549 53.666 198.343 54.3802C191.161 55.3653 191.523 63.1085 191.652 68.9805C191.738 72.8784 190.693 77.8339 187.421 81.6741" stroke="black" stroke-width="1.69535" stroke-linecap="round"/>
<circle cx="2.11919" cy="2.11919" r="1.52582" transform="matrix(-0.983937 0.178516 0.178516 0.983937 193.714 49.1621)" stroke="black" stroke-width="1.18675"/>
<circle cx="2.11919" cy="2.11919" r="1.52582" transform="matrix(-0.908377 0.418152 0.418152 0.908377 191.155 58.9526)" stroke="black" stroke-width="1.18675"/>
<circle cx="2.11919" cy="2.11919" r="1.52582" transform="matrix(0.653805 -0.756663 -0.756663 -0.653805 186.983 73.9456)" stroke="black" stroke-width="1.18675"/>
<path d="M190.589 50.4824C190.164 49.9525 188.808 48.8749 188.154 48.5635" stroke="black" stroke-width="1.18675" stroke-linecap="round"/>
<path d="M188.523 61.6099C186.828 61.1861 184.454 60.847 182.621 60.8082" stroke="black" stroke-width="1.18675" stroke-linecap="round"/>
<path d="M186.327 60.6839L186.922 58.8713C186.953 58.7779 186.898 58.6781 186.803 58.6548C185.518 58.342 183.859 58.0533 183.216 57.9764" stroke="black" stroke-width="1.18675" stroke-linecap="round"/>
<path d="M188.569 79.8029C187.905 79.1308 187.307 78.5744 186.642 78.2737C186.57 78.2413 186.487 78.266 186.441 78.3296C186.236 78.6135 185.658 79.3972 185.115 79.9853C184.762 80.3665 184.603 80.5552 184.285 80.8521" stroke="black" stroke-width="1.18675" stroke-linecap="round"/>
<path d="M188.815 71.3927C189.116 71.458 190.417 71.6095 191.237 71.6125" stroke="black" stroke-width="1.18675" stroke-linecap="round"/>
<path fill-rule="evenodd" clip-rule="evenodd" d="M181.109 79.715L182.026 80.4707C182.739 79.6611 182.733 78.4267 181.981 77.6231C181.181 76.7689 179.84 76.7251 178.985 77.5252C178.901 77.6039 178.825 77.6879 178.757 77.7761L179.674 78.5318C179.709 78.4819 179.75 78.4348 179.797 78.3913C180.173 78.0393 180.763 78.0586 181.115 78.4344C181.455 78.7972 181.448 79.3597 181.109 79.715Z" fill="black"/>
<path d="M169.696 54.2354L177.861 57.4743L178.581 61.6768L168.429 57.4978L169.696 54.2354Z" fill="#FFDE28"/>
<circle cx="2.28873" cy="2.28873" r="1.69535" transform="matrix(-0.898998 -0.437953 -0.437953 0.898998 166.414 50.8469)" stroke="black" stroke-width="1.18675"/>
<circle cx="2.28873" cy="2.28873" r="1.69535" transform="matrix(-0.951235 0.308468 0.308468 0.951235 158.686 55.9475)" stroke="black" stroke-width="1.18675"/>
<circle cx="2.28873" cy="2.28873" r="1.69535" transform="matrix(-0.951235 0.308468 0.308468 0.951235 158.686 55.9475)" stroke="black" stroke-width="1.18675"/>
<circle cx="2.28873" cy="2.28873" r="1.69535" transform="matrix(-0.948435 0.316973 0.316973 0.948435 161.727 41.1523)" stroke="black" stroke-width="1.18675"/>
<path d="M158.824 59.4316C163.629 60.714 172.83 64.2417 178.945 66.8652" stroke="black" stroke-width="1.18675" stroke-linecap="round"/>
<path d="M158.824 59.4316C163.629 60.714 172.83 64.2417 178.945 66.8652" stroke="black" stroke-width="1.18675" stroke-linecap="round"/>
<path d="M162.019 44.7712C166.672 45.9686 171.058 47.3449 176.317 49.3185" stroke="black" stroke-width="1.18675" stroke-linecap="round"/>
<path d="M165.196 52.6103C166.851 53.0725 166.145 52.8788 169.281 53.896M169.281 53.896C168.944 55.3575 168.971 55.8047 168.54 57.0225C168.492 57.1587 168.555 57.3098 168.688 57.3663C170.877 58.2963 175.202 59.9161 177.945 61.2979M169.281 53.896C171.033 54.5177 175.226 56.064 177.945 57.1524" stroke="black" stroke-width="1.18675" stroke-linecap="round"/>
<path d="M162.932 25.346C161.765 24.9039 161.097 27.7041 160.875 29.3737C160.855 29.5233 160.939 29.666 161.077 29.7263L164.669 31.2897C164.915 31.3966 165.182 31.1945 165.138 30.9302C164.81 28.9402 164.038 25.7653 162.932 25.346Z" fill="#FFDE28" stroke="black" stroke-width="1.18675"/>
<path d="M92.2473 6.29675C96.2962 3.38571 102.739 -0.51359 105.451 1.60561C107.455 3.17121 106.892 6.94588 106.129 10.6756C111.283 11.2409 119.862 12.8961 127.83 15.5921C139.104 19.4067 149.494 23.5947 152.687 26.0476C153.938 23.8995 154.592 22.4508 156.227 20.3393C158.261 17.7115 159.702 16.6093 162.585 18.4742C164.89 19.9661 168.264 25.6797 169.705 28.9008C170.401 30.457 172.529 35.953 173.048 37.8515C173.632 39.9879 179.992 53.745 179.558 79.0275" stroke="black" stroke-width="1.69535" stroke-linecap="round"/>
<path d="M36.9666 31.6909L195.05 84.5061" stroke="black" stroke-width="1.18675" stroke-linecap="round"/>
<path d="M110.754 67.9932L93.1755 61.6586C93.053 61.6145 92.9182 61.619 92.7989 61.6713L82.9817 65.9728C82.5617 66.1568 82.5806 66.7589 83.0112 66.9163L101.265 73.589C101.729 73.7586 102.244 73.7174 102.675 73.4764L110.83 68.9156C111.21 68.7028 111.164 68.1411 110.754 67.9932Z" fill="#4D4D4D" stroke="black" stroke-width="1.18675"/>
<path d="M130.966 61.1411L156.142 66.8655L154.721 71.9914L149.381 77.0774L136.751 83.6045L127.596 81.4853L124.629 75.6363L126.663 66.9053L128.762 64.9158L130.966 61.1411Z" fill="#F8F8F8"/>
<path d="M60.7986 39.1016H87.9243L87.4804 48.8948L78.9389 53.5121L66.9019 57.2419L58.5099 53.9359L58.3403 46.3068L58.7441 44.4869L60.7986 39.1016Z" fill="#F8F8F8"/>
<path fill-rule="evenodd" clip-rule="evenodd" d="M71.6791 23.3095C71.9332 23.9846 72.5016 24.5292 73.2533 24.722C74.4777 25.0361 75.7249 24.2982 76.039 23.0738C76.3401 21.9002 75.6745 20.7056 74.5405 20.3319L73.4485 21.4682C73.6494 21.3957 73.8734 21.3806 74.0959 21.4377C74.6854 21.5889 75.0407 22.1894 74.8895 22.7789C74.7382 23.3684 74.1377 23.7237 73.5482 23.5725C72.9587 23.4213 72.6034 22.8208 72.7546 22.2312C72.7597 22.2115 72.7653 22.1921 72.7713 22.1729L71.6791 23.3095Z" fill="black"/>
<circle cx="74.4396" cy="30.225" r="1.69535" transform="rotate(54.9655 74.4396 30.225)" stroke="black" stroke-width="1.18675"/>
<circle cx="81.5899" cy="18.1321" r="1.69535" transform="rotate(55.6524 81.5899 18.1321)" stroke="black" stroke-width="1.18675"/>
<path d="M72.7922 29.7364C71.5195 29.2176 69.928 28.6393 68.1581 28.0399" stroke="black" stroke-width="1.18675" stroke-linecap="round"/>
<path d="M79.6294 17.2372C79.2127 17.0094 78.7643 16.771 78.2883 16.5238" stroke="black" stroke-width="1.18675" stroke-linecap="round"/>
<path d="M91.9931 6.46582C72.2422 19.2657 52.2302 45.7133 59.3575 54.3596C64.5284 60.6324 81.4819 54.4444 87.5004 48.5954" stroke="black" stroke-width="1.69535" stroke-linecap="round"/>
<path fill-rule="evenodd" clip-rule="evenodd" d="M63.8318 48.7735C62.7984 48.7902 61.9472 47.9659 61.9305 46.9325C61.9282 46.7925 61.9414 46.6558 61.9684 46.5241C60.8634 46.018 59.7118 45.6072 58.5597 45.2738L58.7973 44.4892C59.977 44.8309 61.1627 45.2537 62.3061 45.7772C62.6415 45.3321 63.1712 45.0408 63.7715 45.0311C64.805 45.0145 65.6562 45.8387 65.6729 46.8721C65.6895 47.9056 64.8653 48.7568 63.8318 48.7735ZM60.3011 39.241L60.4076 39.1712L60.0133 40.4736C60.1267 41.4585 60.9949 42.1911 61.995 42.1253C63.0264 42.0575 63.8075 41.1665 63.7397 40.1352C63.6719 39.1039 62.7809 38.3227 61.7495 38.3905C61.1363 38.4308 60.6116 38.7622 60.3011 39.241ZM63.8203 48.0418C63.2395 48.0511 62.6665 47.5158 62.6572 46.9351C62.6478 46.3543 63.1831 45.7813 63.7638 45.772C64.3446 45.7626 64.9176 46.2979 64.9269 46.8786C64.9363 47.4594 64.401 48.0324 63.8203 48.0418ZM59.6681 53.2947C58.6368 53.3625 57.7458 52.5814 57.678 51.5501C57.6102 50.5187 58.3913 49.6277 59.4227 49.5599C60.454 49.4922 61.345 50.2733 61.4128 51.3046C61.4806 52.3359 60.6995 53.227 59.6681 53.2947ZM59.6144 52.4768C59.0348 52.5148 58.5341 52.0759 58.496 51.4963C58.4579 50.9167 58.8968 50.416 59.4764 50.3779C60.056 50.3398 60.5567 50.7788 60.5948 51.3584C60.6329 51.9379 60.1939 52.4387 59.6144 52.4768ZM61.9413 41.3073C61.3617 41.3454 60.861 40.9065 60.8229 40.3269C60.7848 39.7473 61.2237 39.2466 61.8033 39.2085C62.3829 39.1704 62.8836 39.6094 62.9217 40.189C62.9598 40.7685 62.5208 41.2692 61.9413 41.3073Z" fill="black"/>
<path d="M61.9305 46.9325L61.7864 46.9348L61.9305 46.9325ZM63.8318 48.7735L63.8295 48.6294L63.8318 48.7735ZM61.9684 46.5241L62.0285 46.3931L62.1327 46.4409L62.1096 46.5531L61.9684 46.5241ZM58.5597 45.2738L58.5197 45.4122L58.3795 45.3717L58.4218 45.2321L58.5597 45.2738ZM58.7973 44.4892L58.6594 44.4474L58.7007 44.3112L58.8374 44.3508L58.7973 44.4892ZM62.3061 45.7772L62.4212 45.8639L62.3515 45.9564L62.2462 45.9082L62.3061 45.7772ZM63.7715 45.0311L63.7738 45.1752L63.7715 45.0311ZM65.6729 46.8721L65.817 46.8698L65.817 46.8698L65.6729 46.8721ZM60.3011 39.241L60.3801 39.3616L60.1802 39.1626L60.3011 39.241ZM60.4076 39.1712L60.3287 39.0507L60.6605 38.8333L60.5456 39.213L60.4076 39.1712ZM60.0133 40.4736L59.8701 40.4901L59.8667 40.4604L59.8754 40.4318L60.0133 40.4736ZM61.995 42.1253L61.9856 41.9815L61.995 42.1253ZM63.7397 40.1352L63.8835 40.1257L63.7397 40.1352ZM61.7495 38.3905L61.759 38.5343L61.7495 38.3905ZM62.6572 46.9351L62.8012 46.9328L62.6572 46.9351ZM63.8203 48.0418L63.818 47.8977L63.8203 48.0418ZM63.7638 45.772L63.7615 45.6279L63.7638 45.772ZM64.9269 46.8786L64.7829 46.881L64.9269 46.8786ZM57.678 51.5501L57.8218 51.5406L57.678 51.5501ZM59.6681 53.2947L59.6776 53.4385L59.6776 53.4385L59.6681 53.2947ZM59.4227 49.5599L59.4321 49.7037L59.4227 49.5599ZM61.4128 51.3046L61.5566 51.2952L61.4128 51.3046ZM58.496 51.4963L58.3522 51.5058L58.3522 51.5058L58.496 51.4963ZM59.6144 52.4768L59.6049 52.333L59.6049 52.333L59.6144 52.4768ZM59.4764 50.3779L59.4859 50.5217L59.4764 50.3779ZM60.5948 51.3584L60.7386 51.3489L60.5948 51.3584ZM60.8229 40.3269L60.9667 40.3175L60.8229 40.3269ZM61.9413 41.3073L61.9318 41.1635L61.9413 41.3073ZM61.8033 39.2085L61.8128 39.3523L61.8128 39.3523L61.8033 39.2085ZM62.9217 40.189L63.0655 40.1795L62.9217 40.189ZM62.0746 46.9301C62.09 47.884 62.8757 48.6448 63.8295 48.6294L63.8342 48.9176C62.7212 48.9355 61.8044 48.0478 61.7864 46.9348L62.0746 46.9301ZM62.1096 46.5531C62.0847 46.6746 62.0725 46.8007 62.0746 46.9301L61.7864 46.9348C61.784 46.7842 61.7982 46.6371 61.8273 46.4952L62.1096 46.5531ZM58.5998 45.1354C59.7574 45.4703 60.9159 45.8835 62.0285 46.3931L61.9084 46.6552C60.8109 46.1524 59.6661 45.744 58.5197 45.4122L58.5998 45.1354ZM58.9352 44.5309L58.6976 45.3156L58.4218 45.2321L58.6594 44.4474L58.9352 44.5309ZM62.2462 45.9082C61.1102 45.3882 59.9313 44.9677 58.7572 44.6276L58.8374 44.3508C60.0227 44.6942 61.2152 45.1193 62.3661 45.6461L62.2462 45.9082ZM63.7738 45.1752C63.2198 45.1841 62.731 45.4528 62.4212 45.8639L62.191 45.6905C62.5519 45.2114 63.1226 44.8974 63.7692 44.887L63.7738 45.1752ZM65.5288 46.8745C65.5134 45.9206 64.7277 45.1598 63.7738 45.1752L63.7692 44.887C64.8822 44.8691 65.799 45.7568 65.817 46.8698L65.5288 46.8745ZM63.8295 48.6294C64.7834 48.614 65.5442 47.8283 65.5288 46.8745L65.817 46.8698C65.8349 47.9828 64.9472 48.8996 63.8342 48.9176L63.8295 48.6294ZM60.2222 39.1205L60.3287 39.0507L60.4866 39.2918L60.3801 39.3616L60.2222 39.1205ZM60.5456 39.213L60.1512 40.5153L59.8754 40.4318L60.2697 39.1295L60.5456 39.213ZM60.1564 40.4571C60.2611 41.366 61.0625 42.0422 61.9856 41.9815L62.0045 42.2691C60.9273 42.3399 59.9923 41.5509 59.8701 40.4901L60.1564 40.4571ZM61.9856 41.9815C62.9375 41.919 63.6585 41.0966 63.5959 40.1446L63.8835 40.1257C63.9565 41.2365 63.1152 42.1961 62.0045 42.2691L61.9856 41.9815ZM63.5959 40.1446C63.5333 39.1927 62.7109 38.4718 61.759 38.5343L61.7401 38.2467C62.8508 38.1737 63.8105 39.015 63.8835 40.1257L63.5959 40.1446ZM61.759 38.5343C61.1931 38.5715 60.7088 38.8771 60.422 39.3194L60.1802 39.1626C60.5143 38.6473 61.0796 38.2901 61.7401 38.2467L61.759 38.5343ZM62.8012 46.9328C62.8052 47.1767 62.9286 47.4207 63.1235 47.605C63.3184 47.7893 63.5718 47.9016 63.818 47.8977L63.8226 48.1858C63.488 48.1912 63.1646 48.0406 62.9254 47.8144C62.6863 47.5882 62.5185 47.2742 62.5131 46.9374L62.8012 46.9328ZM63.7661 45.9161C63.5222 45.92 63.2782 46.0434 63.0939 46.2383C62.9096 46.4332 62.7973 46.6866 62.8012 46.9328L62.5131 46.9374C62.5077 46.6028 62.6583 46.2794 62.8845 46.0402C63.1107 45.8011 63.4247 45.6333 63.7615 45.6279L63.7661 45.9161ZM64.7829 46.881C64.7789 46.637 64.6555 46.393 64.4606 46.2087C64.2657 46.0244 64.0123 45.9121 63.7661 45.9161L63.7615 45.6279C64.0961 45.6225 64.4195 45.7731 64.6587 45.9993C64.8978 46.2255 65.0656 46.5395 65.071 46.8763L64.7829 46.881ZM63.818 47.8977C64.0619 47.8937 64.3059 47.7703 64.4902 47.5754C64.6745 47.3806 64.7868 47.1271 64.7829 46.881L65.071 46.8763C65.0764 47.2109 64.9258 47.5343 64.6996 47.7735C64.4734 48.0126 64.1594 48.1804 63.8226 48.1858L63.818 47.8977ZM57.8218 51.5406C57.8844 52.4926 58.7068 53.2135 59.6587 53.151L59.6776 53.4385C58.5668 53.5116 57.6072 52.6703 57.5342 51.5595L57.8218 51.5406ZM59.4321 49.7037C58.4802 49.7663 57.7592 50.5887 57.8218 51.5406L57.5342 51.5595C57.4612 50.4488 58.3025 49.4892 59.4132 49.4161L59.4321 49.7037ZM61.269 51.3141C61.2064 50.3621 60.384 49.6412 59.4321 49.7037L59.4132 49.4161C60.524 49.3431 61.4836 50.1844 61.5566 51.2952L61.269 51.3141ZM59.6587 53.151C60.6106 53.0884 61.3316 52.266 61.269 51.3141L61.5566 51.2952C61.6296 52.4059 60.7883 53.3655 59.6776 53.4385L59.6587 53.151ZM58.6398 51.4869C58.6727 51.987 59.1048 52.3658 59.6049 52.333L59.6238 52.6205C58.9648 52.6639 58.3955 52.1648 58.3522 51.5058L58.6398 51.4869ZM59.4859 50.5217C58.9857 50.5546 58.6069 50.9867 58.6398 51.4869L58.3522 51.5058C58.3089 50.8468 58.808 50.2775 59.467 50.2341L59.4859 50.5217ZM60.451 51.3678C60.4181 50.8677 59.986 50.4889 59.4859 50.5217L59.467 50.2341C60.126 50.1908 60.6953 50.6899 60.7386 51.3489L60.451 51.3678ZM59.6049 52.333C60.1051 52.3001 60.4839 51.868 60.451 51.3678L60.7386 51.3489C60.7819 52.0079 60.2828 52.5772 59.6238 52.6205L59.6049 52.333ZM60.9667 40.3175C60.9995 40.8176 61.4316 41.1964 61.9318 41.1635L61.9507 41.4511C61.2917 41.4945 60.7224 40.9953 60.6791 40.3364L60.9667 40.3175ZM61.8128 39.3523C61.3126 39.3852 60.9338 39.8173 60.9667 40.3175L60.6791 40.3364C60.6358 39.6774 61.1349 39.108 61.7939 39.0647L61.8128 39.3523ZM62.7779 40.1984C62.745 39.6983 62.3129 39.3194 61.8128 39.3523L61.7939 39.0647C62.4528 39.0214 63.0222 39.5205 63.0655 40.1795L62.7779 40.1984ZM61.9318 41.1635C62.432 41.1307 62.8108 40.6986 62.7779 40.1984L63.0655 40.1795C63.1088 40.8385 62.6097 41.4078 61.9507 41.4511L61.9318 41.1635Z" fill="black"/>
<path d="M154.89 71.2286C151.198 76.9015 136.326 88.0373 127.341 81.0616C123.591 78.1503 124.044 70.4102 130.012 62.9213C130.655 62.1157 131.347 61.3218 132.088 60.5479" stroke="black" stroke-width="1.69535" stroke-linecap="round"/>
<ellipse cx="92.0278" cy="35.652" rx="2.87193" ry="5.23102" transform="rotate(-69.5962 92.0278 35.652)" fill="#FFDE28"/>
<ellipse cx="135.493" cy="50.1882" rx="2.87193" ry="5.23102" transform="rotate(-75.6503 135.493 50.1882)" fill="#FFDE28"/>
<ellipse cx="98.7824" cy="35.8608" rx="2.87193" ry="5.23102" transform="rotate(-69.7616 98.7824 35.8608)" fill="black"/>
<ellipse cx="130.497" cy="46.4044" rx="2.87193" ry="5.23102" transform="rotate(109.388 130.497 46.4044)" fill="black"/>
<path d="M87.6173 54.8355L103.39 95.5305C103.547 95.9362 103.156 96.3392 102.746 96.1936L28.5782 69.8638C28.4416 69.8153 28.3322 69.7108 28.2774 69.5765L12.0853 29.8769C11.9206 29.4732 12.307 29.063 12.7198 29.2032L87.3066 54.5377C87.4491 54.5861 87.5629 54.6952 87.6173 54.8355Z" fill="#222222" stroke="black" stroke-width="1.18675" stroke-linecap="round"/>
<path d="M54.9551 67.6198C49.5919 66.2941 48.3032 59.7264 49.8319 56.977C49.886 56.8798 50.0179 56.8698 50.0927 56.9521L53.2985 60.476C53.3581 60.5415 53.4582 60.5501 53.5281 60.4956L56.5037 58.1776C56.5782 58.1195 56.6851 58.1324 56.7407 58.2087C59.3732 61.8209 60.41 68.9682 54.9551 67.6198Z" stroke="#FFDE28" stroke-width="0.847677"/>
<mask id="path-51-outside-1_209_650" maskUnits="userSpaceOnUse" x="50.8699" y="61.0145" width="7.37265" height="4.69547" fill="black">
<rect fill="white" x="50.8699" y="61.0145" width="7.37265" height="4.69547"/>
<path d="M53.085 61.9942C53.1525 62.0067 53.2088 62.0153 53.2538 62.0199L53.3905 62.034C53.4366 62.0387 53.4854 62.0393 53.5368 62.0357L53.3966 63.3977C53.3688 63.6678 53.2647 63.8763 53.0843 64.023C52.9135 64.1619 52.7112 64.2193 52.4774 64.1952C52.2216 64.1689 52.0214 64.0812 51.877 63.9321C51.7156 63.7646 51.6494 63.5403 51.6783 63.2592L51.8218 61.8643C51.9124 61.8791 51.9977 61.8907 52.0779 61.8989C52.1591 61.9073 52.2266 61.9098 52.2802 61.9064L52.1339 63.3277C52.1197 63.4661 52.1509 63.578 52.2275 63.6636C52.2993 63.742 52.3945 63.7873 52.5131 63.7995C52.6888 63.8176 52.815 63.7396 52.8917 63.5655C52.9192 63.5028 52.9379 63.4238 52.9477 63.3282L53.085 61.9942ZM54.9734 62.1553C55.1787 62.1764 55.3502 62.2301 55.4877 62.3164L55.4359 62.8203L55.4323 62.8233C55.3805 62.7225 55.2574 62.6466 55.0629 62.5955C55.0057 62.5797 54.9327 62.5672 54.8437 62.558C54.7548 62.5489 54.6658 62.5569 54.5766 62.5821C54.4876 62.6062 54.4125 62.6462 54.3512 62.7021C54.2324 62.8108 54.1616 62.976 54.1388 63.1978C54.1122 63.4558 54.16 63.6549 54.2821 63.7951C54.3832 63.912 54.526 63.98 54.7105 63.9989C54.9191 64.0204 55.0927 63.9933 55.2314 63.9177C55.2819 63.8908 55.3261 63.8553 55.3639 63.8115L55.3685 63.8153L55.321 64.2765C55.1387 64.3986 54.9053 64.4451 54.621 64.4158C54.2861 64.3814 54.0346 64.2479 53.8666 64.0153C53.7052 63.7934 53.6418 63.5151 53.6762 63.1802C53.7127 62.8255 53.8414 62.5564 54.0622 62.3727C54.2854 62.1882 54.5891 62.1157 54.9734 62.1553ZM56.1469 64.5728C55.9691 64.5545 55.8031 64.523 55.649 64.4783L55.8758 62.2747C56.0225 62.2721 56.1914 62.2806 56.3824 62.3002C56.5746 62.32 56.7453 62.3642 56.8947 62.4328C57.0453 62.5005 57.1678 62.588 57.2622 62.6953C57.4531 62.9103 57.5306 63.1918 57.4948 63.5398C57.4547 63.9296 57.3068 64.2134 57.0511 64.3912C56.8216 64.5507 56.5202 64.6112 56.1469 64.5728ZM56.1142 64.1633C56.1842 64.1839 56.2549 64.1978 56.3262 64.2051C56.3976 64.2125 56.4759 64.2067 56.561 64.1877C56.6463 64.1676 56.7222 64.131 56.7887 64.078C56.9311 63.9661 57.0147 63.7905 57.0393 63.5512C57.0797 63.1581 56.9613 62.9018 56.684 62.7823C56.5926 62.7429 56.4849 62.7169 56.3608 62.7041L56.3164 62.6995C56.2999 62.6978 56.2828 62.6966 56.2652 62.6959L56.1142 64.1633Z"/>
</mask>
<path d="M53.085 61.9942C53.1525 62.0067 53.2088 62.0153 53.2538 62.0199L53.3905 62.034C53.4366 62.0387 53.4854 62.0393 53.5368 62.0357L53.3966 63.3977C53.3688 63.6678 53.2647 63.8763 53.0843 64.023C52.9135 64.1619 52.7112 64.2193 52.4774 64.1952C52.2216 64.1689 52.0214 64.0812 51.877 63.9321C51.7156 63.7646 51.6494 63.5403 51.6783 63.2592L51.8218 61.8643C51.9124 61.8791 51.9977 61.8907 52.0779 61.8989C52.1591 61.9073 52.2266 61.9098 52.2802 61.9064L52.1339 63.3277C52.1197 63.4661 52.1509 63.578 52.2275 63.6636C52.2993 63.742 52.3945 63.7873 52.5131 63.7995C52.6888 63.8176 52.815 63.7396 52.8917 63.5655C52.9192 63.5028 52.9379 63.4238 52.9477 63.3282L53.085 61.9942ZM54.9734 62.1553C55.1787 62.1764 55.3502 62.2301 55.4877 62.3164L55.4359 62.8203L55.4323 62.8233C55.3805 62.7225 55.2574 62.6466 55.0629 62.5955C55.0057 62.5797 54.9327 62.5672 54.8437 62.558C54.7548 62.5489 54.6658 62.5569 54.5766 62.5821C54.4876 62.6062 54.4125 62.6462 54.3512 62.7021C54.2324 62.8108 54.1616 62.976 54.1388 63.1978C54.1122 63.4558 54.16 63.6549 54.2821 63.7951C54.3832 63.912 54.526 63.98 54.7105 63.9989C54.9191 64.0204 55.0927 63.9933 55.2314 63.9177C55.2819 63.8908 55.3261 63.8553 55.3639 63.8115L55.3685 63.8153L55.321 64.2765C55.1387 64.3986 54.9053 64.4451 54.621 64.4158C54.2861 64.3814 54.0346 64.2479 53.8666 64.0153C53.7052 63.7934 53.6418 63.5151 53.6762 63.1802C53.7127 62.8255 53.8414 62.5564 54.0622 62.3727C54.2854 62.1882 54.5891 62.1157 54.9734 62.1553ZM56.1469 64.5728C55.9691 64.5545 55.8031 64.523 55.649 64.4783L55.8758 62.2747C56.0225 62.2721 56.1914 62.2806 56.3824 62.3002C56.5746 62.32 56.7453 62.3642 56.8947 62.4328C57.0453 62.5005 57.1678 62.588 57.2622 62.6953C57.4531 62.9103 57.5306 63.1918 57.4948 63.5398C57.4547 63.9296 57.3068 64.2134 57.0511 64.3912C56.8216 64.5507 56.5202 64.6112 56.1469 64.5728ZM56.1142 64.1633C56.1842 64.1839 56.2549 64.1978 56.3262 64.2051C56.3976 64.2125 56.4759 64.2067 56.561 64.1877C56.6463 64.1676 56.7222 64.131 56.7887 64.078C56.9311 63.9661 57.0147 63.7905 57.0393 63.5512C57.0797 63.1581 56.9613 62.9018 56.684 62.7823C56.5926 62.7429 56.4849 62.7169 56.3608 62.7041L56.3164 62.6995C56.2999 62.6978 56.2828 62.6966 56.2652 62.6959L56.1142 64.1633Z" fill="#FFDE28"/>
<path d="M53.085 61.9942L53.0912 61.9609L53.055 61.9542L53.0513 61.9908L53.085 61.9942ZM53.5368 62.0357L53.5705 62.0392L53.5746 61.9991L53.5344 62.0019L53.5368 62.0357ZM51.877 63.9321L51.8526 63.9556L51.8526 63.9557L51.877 63.9321ZM51.8218 61.8643L51.8273 61.8308L51.7918 61.825L51.7881 61.8608L51.8218 61.8643ZM52.2802 61.9064L52.3139 61.9099L52.318 61.8701L52.278 61.8726L52.2802 61.9064ZM52.2275 63.6636L52.2023 63.6862L52.2025 63.6865L52.2275 63.6636ZM52.8917 63.5655L52.9227 63.5792L52.9227 63.5791L52.8917 63.5655ZM53.0788 62.0276C53.1468 62.0402 53.2041 62.0489 53.2503 62.0537L53.2573 61.9862C53.2135 61.9817 53.1582 61.9733 53.0912 61.9609L53.0788 62.0276ZM53.2503 62.0537L53.387 62.0677L53.3939 62.0003L53.2573 61.9862L53.2503 62.0537ZM53.387 62.0677C53.4353 62.0727 53.486 62.0733 53.5391 62.0696L53.5344 62.0019C53.4847 62.0054 53.4379 62.0048 53.3939 62.0003L53.387 62.0677ZM53.503 62.0323L53.3629 63.3943L53.4303 63.4012L53.5705 62.0392L53.503 62.0323ZM53.3629 63.3943C53.3359 63.657 53.2352 63.8566 53.0629 63.9967L53.1057 64.0493C53.2943 63.8959 53.4018 63.6786 53.4303 63.4012L53.3629 63.3943ZM53.0629 63.9967C52.8996 64.1295 52.7064 64.1847 52.4809 64.1615L52.4739 64.229C52.716 64.2539 52.9275 64.1943 53.1057 64.0493L53.0629 63.9967ZM52.4809 64.1615C52.231 64.1358 52.039 64.0506 51.9014 63.9085L51.8526 63.9557C52.0039 64.1118 52.2121 64.202 52.4739 64.229L52.4809 64.1615ZM51.9014 63.9086C51.7484 63.7498 51.6839 63.5362 51.712 63.2627L51.6445 63.2557C51.6148 63.5444 51.6828 63.7794 51.8526 63.9556L51.9014 63.9086ZM51.712 63.2627L51.8555 61.8677L51.7881 61.8608L51.6445 63.2557L51.712 63.2627ZM51.8163 61.8977C51.9075 61.9127 51.9935 61.9243 52.0744 61.9327L52.0813 61.8652C52.002 61.857 51.9173 61.8456 51.8273 61.8308L51.8163 61.8977ZM52.0744 61.9327C52.1567 61.9411 52.2261 61.9438 52.2823 61.9403L52.278 61.8726C52.227 61.8758 52.1616 61.8735 52.0813 61.8652L52.0744 61.9327ZM52.2464 61.903L52.1002 63.3243L52.1676 63.3312L52.3139 61.9099L52.2464 61.903ZM52.1002 63.3243C52.0852 63.4699 52.1179 63.592 52.2023 63.6862L52.2528 63.6409C52.1838 63.564 52.1542 63.4622 52.1676 63.3312L52.1002 63.3243ZM52.2025 63.6865C52.2806 63.7718 52.3839 63.8203 52.5096 63.8332L52.5166 63.7657C52.4052 63.7543 52.318 63.7122 52.2525 63.6407L52.2025 63.6865ZM52.5096 63.8332C52.6035 63.8429 52.6867 63.827 52.7573 63.7834C52.8277 63.7399 52.8824 63.6707 52.9227 63.5792L52.8607 63.5518C52.8243 63.6343 52.7775 63.6912 52.7217 63.7257C52.6661 63.76 52.5984 63.7742 52.5166 63.7657L52.5096 63.8332ZM52.9227 63.5791C52.9521 63.5122 52.9714 63.4294 52.9815 63.3317L52.914 63.3248C52.9044 63.4181 52.8863 63.4934 52.8607 63.5518L52.9227 63.5791ZM52.9815 63.3317L53.1187 61.9977L53.0513 61.9908L52.914 63.3248L52.9815 63.3317ZM55.4877 62.3164L55.5215 62.3198L55.5236 62.2988L55.5058 62.2876L55.4877 62.3164ZM55.4359 62.8203L55.4573 62.8466L55.4682 62.8378L55.4696 62.8238L55.4359 62.8203ZM55.4323 62.8233L55.4021 62.8388L55.4212 62.876L55.4537 62.8496L55.4323 62.8233ZM55.0629 62.5955L55.0538 62.6282L55.0543 62.6283L55.0629 62.5955ZM54.5766 62.5821L54.5855 62.6148L54.5859 62.6147L54.5766 62.5821ZM54.3512 62.7021L54.3284 62.677L54.3284 62.677L54.3512 62.7021ZM54.2821 63.7951L54.3077 63.7729L54.3076 63.7728L54.2821 63.7951ZM55.2314 63.9177L55.2154 63.8878L55.2152 63.888L55.2314 63.9177ZM55.3639 63.8115L55.3855 63.7854L55.3599 63.7642L55.3382 63.7894L55.3639 63.8115ZM55.3685 63.8153L55.4022 63.8188L55.404 63.8007L55.3901 63.7892L55.3685 63.8153ZM55.321 64.2765L55.3399 64.3046L55.3531 64.2958L55.3547 64.2799L55.321 64.2765ZM53.8666 64.0153L53.8941 63.9954L53.894 63.9954L53.8666 64.0153ZM54.0622 62.3727L54.0406 62.3466L54.0406 62.3467L54.0622 62.3727ZM54.9699 62.189C55.1714 62.2097 55.3376 62.2622 55.4697 62.3451L55.5058 62.2876C55.3627 62.198 55.186 62.143 54.9769 62.1215L54.9699 62.189ZM55.454 62.3129L55.4022 62.8168L55.4696 62.8238L55.5215 62.3198L55.454 62.3129ZM55.4145 62.794L55.4109 62.797L55.4537 62.8496L55.4573 62.8466L55.4145 62.794ZM55.4624 62.8078C55.4038 62.6938 55.2685 62.6145 55.0715 62.5627L55.0543 62.6283C55.2462 62.6787 55.3571 62.7513 55.4021 62.8388L55.4624 62.8078ZM55.072 62.5629C55.0123 62.5463 54.9372 62.5335 54.8472 62.5243L54.8403 62.5917C54.9282 62.6008 54.9992 62.613 55.0538 62.6282L55.072 62.5629ZM54.8472 62.5243C54.7539 62.5147 54.6605 62.5231 54.5674 62.5495L54.5859 62.6147C54.671 62.5906 54.7558 62.583 54.8403 62.5917L54.8472 62.5243ZM54.5678 62.5494C54.4741 62.5748 54.394 62.6171 54.3284 62.677L54.3741 62.7271C54.4309 62.6753 54.5011 62.6377 54.5855 62.6148L54.5678 62.5494ZM54.3284 62.677C54.2014 62.7932 54.1284 62.9675 54.1051 63.1943L54.1725 63.2013C54.1948 62.9846 54.2635 62.8283 54.3741 62.7271L54.3284 62.677ZM54.1051 63.1943C54.0779 63.4579 54.1261 63.6677 54.2565 63.8173L54.3076 63.7728C54.1939 63.6422 54.1465 63.4538 54.1725 63.2013L54.1051 63.1943ZM54.2564 63.8173C54.3643 63.942 54.5158 64.013 54.707 64.0327L54.7139 63.9652C54.5362 63.9469 54.4021 63.882 54.3077 63.7729L54.2564 63.8173ZM54.707 64.0327C54.9202 64.0546 55.1012 64.0273 55.2477 63.9475L55.2152 63.888C55.0842 63.9594 54.9179 63.9862 54.7139 63.9652L54.707 64.0327ZM55.2474 63.9476C55.3016 63.9187 55.349 63.8806 55.3895 63.8337L55.3382 63.7894C55.3031 63.8301 55.2622 63.8628 55.2154 63.8878L55.2474 63.9476ZM55.3423 63.8377L55.3469 63.8415L55.3901 63.7892L55.3855 63.7854L55.3423 63.8377ZM55.3347 63.8119L55.2873 64.273L55.3547 64.2799L55.4022 63.8188L55.3347 63.8119ZM55.3021 64.2483C55.1281 64.3649 54.9033 64.4108 54.6244 64.3821L54.6175 64.4495C54.9073 64.4794 55.1492 64.4324 55.3399 64.3046L55.3021 64.2483ZM54.6244 64.3821C54.2973 64.3484 54.0555 64.2188 53.8941 63.9954L53.8391 64.0352C54.0138 64.2769 54.2748 64.4143 54.6175 64.4495L54.6244 64.3821ZM53.894 63.9954C53.7386 63.7817 53.6762 63.5122 53.71 63.1837L53.6425 63.1767C53.6074 63.5179 53.6718 63.8052 53.8392 64.0352L53.894 63.9954ZM53.71 63.1837C53.7458 62.8356 53.8715 62.5755 54.0839 62.3988L54.0406 62.3467C53.8113 62.5373 53.6797 62.8155 53.6425 63.1767L53.71 63.1837ZM54.0838 62.3989C54.2979 62.2219 54.5915 62.1501 54.9699 62.189L54.9769 62.1215C54.5867 62.0814 54.2729 62.1545 54.0406 62.3466L54.0838 62.3989ZM55.649 64.4783L55.6153 64.4748L55.6124 64.503L55.6396 64.5109L55.649 64.4783ZM55.8758 62.2747L55.8751 62.2408L55.8451 62.2414L55.842 62.2713L55.8758 62.2747ZM56.8947 62.4328L56.8806 62.4636L56.8808 62.4638L56.8947 62.4328ZM57.2622 62.6953L57.2367 62.7177L57.2368 62.7179L57.2622 62.6953ZM57.0511 64.3912L57.0704 64.4191L57.0704 64.4191L57.0511 64.3912ZM56.1142 64.1633L56.0804 64.1599L56.0776 64.1879L56.1046 64.1959L56.1142 64.1633ZM56.561 64.1877L56.5684 64.2208L56.5688 64.2207L56.561 64.1877ZM56.7887 64.078L56.7678 64.0513L56.7675 64.0515L56.7887 64.078ZM56.684 62.7823L56.6974 62.7512L56.6974 62.7512L56.684 62.7823ZM56.2652 62.6959L56.2665 62.6621L56.2347 62.6608L56.2314 62.6925L56.2652 62.6959ZM56.1504 64.5391C55.9743 64.521 55.8104 64.4898 55.6585 64.4458L55.6396 64.5109C55.7958 64.5562 55.9638 64.5881 56.1435 64.6066L56.1504 64.5391ZM55.6828 64.4818L55.9095 62.2782L55.842 62.2713L55.6153 64.4748L55.6828 64.4818ZM55.8764 62.3086C56.0214 62.306 56.1889 62.3144 56.379 62.334L56.3859 62.2665C56.1939 62.2467 56.0236 62.2381 55.8751 62.2408L55.8764 62.3086ZM56.379 62.334C56.568 62.3534 56.7351 62.3968 56.8806 62.4636L56.9089 62.402C56.7556 62.3316 56.5811 62.2866 56.3859 62.2665L56.379 62.334ZM56.8808 62.4638C57.0277 62.5297 57.146 62.6145 57.2367 62.7177L57.2876 62.6729C57.1896 62.5614 57.063 62.4712 56.9086 62.4019L56.8808 62.4638ZM57.2368 62.7179C57.4201 62.9242 57.4962 63.1955 57.4611 63.5363L57.5286 63.5433C57.5651 63.188 57.4861 62.8964 57.2875 62.6728L57.2368 62.7179ZM57.4611 63.5363C57.4217 63.919 57.2773 64.1926 57.0317 64.3634L57.0704 64.4191C57.3363 64.2342 57.4877 63.9401 57.5286 63.5433L57.4611 63.5363ZM57.0317 64.3634C56.8109 64.5169 56.5184 64.577 56.1504 64.5391L56.1435 64.6066C56.522 64.6455 56.8323 64.5846 57.0704 64.4191L57.0317 64.3634ZM56.1046 64.1959C56.1766 64.217 56.2493 64.2313 56.3228 64.2389L56.3297 64.1714C56.2604 64.1643 56.1918 64.1508 56.1237 64.1308L56.1046 64.1959ZM56.3228 64.2389C56.3984 64.2467 56.4804 64.2404 56.5684 64.2208L56.5537 64.1546C56.4713 64.1729 56.3968 64.1783 56.3297 64.1714L56.3228 64.2389ZM56.5688 64.2207C56.6588 64.1995 56.7393 64.1608 56.8099 64.1045L56.7675 64.0515C56.7051 64.1013 56.6338 64.1357 56.5533 64.1547L56.5688 64.2207ZM56.8096 64.1046C56.9615 63.9854 57.0478 63.8 57.073 63.5547L57.0056 63.5477C56.9816 63.781 56.9008 63.9468 56.7678 64.0513L56.8096 64.1046ZM57.073 63.5547C57.0936 63.3544 57.0742 63.1854 57.0116 63.0499C56.9486 62.9137 56.8432 62.814 56.6974 62.7512L56.6706 62.8134C56.8021 62.8701 56.8946 62.9584 56.95 63.0784C57.0059 63.1992 57.0254 63.3549 57.0056 63.5477L57.073 63.5547ZM56.6974 62.7512C56.6022 62.7101 56.491 62.6834 56.3643 62.6704L56.3574 62.7378C56.4788 62.7503 56.5831 62.7757 56.6706 62.8134L56.6974 62.7512ZM56.3643 62.6704L56.3199 62.6658L56.3129 62.7333L56.3574 62.7378L56.3643 62.6704ZM56.3199 62.6658C56.3026 62.664 56.2849 62.6628 56.2665 62.6621L56.2638 62.7298C56.2808 62.7305 56.2972 62.7317 56.3129 62.7333L56.3199 62.6658ZM56.2314 62.6925L56.0804 64.1599L56.1479 64.1668L56.2989 62.6994L56.2314 62.6925Z" fill="#FFDE28" mask="url(#path-51-outside-1_209_650)"/>
<path d="M114.726 20.5408C117.538 21.1467 120.784 21.9267 125.331 23.4556C129.878 24.9844 132.106 25.9313 134.646 27.0398" stroke="black" stroke-width="1.18675" stroke-linecap="round"/>
<circle cx="113.07" cy="20.3961" r="1.61059" transform="rotate(15.7532 113.07 20.3961)" stroke="black" stroke-width="1.18675"/>
<circle cx="136.427" cy="27.8809" r="1.61059" transform="rotate(15.7532 136.427 27.8809)" stroke="black" stroke-width="1.18675"/>
<path d="M111.996 15.6032C116.107 16.3367 119.829 17.1195 126.925 19.4982C134.022 21.8768 137.398 23.3343 140.588 24.7537" stroke="black" stroke-width="1.18675" stroke-linecap="round"/>
<circle cx="142.404" cy="25.4668" r="1.61059" transform="rotate(16.6093 142.404 25.4668)" stroke="black" stroke-width="1.18675"/>
<circle cx="110.205" cy="15.18" r="1.61059" transform="rotate(16.6093 110.205 15.18)" stroke="black" stroke-width="1.18675"/>
<path d="M107.467 33.1999C107.31 33.417 106.921 33.5976 106.213 33.5054C105.529 33.4166 104.689 33.0815 103.879 32.4938C103.069 31.906 102.49 31.2115 102.193 30.5896C101.886 29.9443 101.937 29.5192 102.095 29.3022C102.252 29.0851 102.64 28.9045 103.349 28.9967C104.032 29.0855 104.872 29.4206 105.682 30.0083C106.492 30.596 107.072 31.2905 107.368 31.9125C107.676 32.5578 107.625 32.9829 107.467 33.1999Z" stroke="black" stroke-width="1.18675"/>
<path d="M126.587 39.0102C126.575 39.2781 126.766 39.6613 127.378 40.0312C127.967 40.3876 128.833 40.6492 129.833 40.6947C130.833 40.7401 131.719 40.5582 132.338 40.2567C132.981 39.9439 133.206 39.5795 133.218 39.3117C133.23 39.0438 133.04 38.6606 132.428 38.2907C131.838 37.9343 130.972 37.6727 129.973 37.6272C128.973 37.5818 128.087 37.7637 127.467 38.0652C126.824 38.3781 126.599 38.7424 126.587 39.0102Z" stroke="black" stroke-width="1.18675"/>
<path d="M107.74 43.8086C107.74 43.4809 107.474 43.2152 107.146 43.2152C106.819 43.2152 106.553 43.4809 106.553 43.8086L107.74 43.8086ZM112.487 45.0801L113.08 45.0695C113.076 44.8322 112.93 44.6204 112.711 44.5307C112.491 44.4411 112.239 44.491 112.07 44.6575L112.487 45.0801ZM117.718 47.9568C117.996 47.7832 118.08 47.4171 117.907 47.1392C117.733 46.8613 117.367 46.7767 117.089 46.9503L117.718 47.9568ZM109.341 45.6451L109.215 46.2249L109.341 45.6451ZM114.465 47.3283L114.225 47.871L114.465 47.3283ZM106.553 43.8086C106.553 44.4355 106.932 44.9776 107.394 45.3655C107.868 45.7643 108.508 46.0712 109.215 46.2249L109.467 45.0652C108.926 44.9475 108.468 44.7177 108.157 44.4568C107.834 44.185 107.74 43.9445 107.74 43.8086L106.553 43.8086ZM109.215 46.2249C109.857 46.3644 110.56 46.382 111.2 46.2758C111.827 46.1716 112.464 45.9357 112.903 45.5028L112.07 44.6575C111.873 44.8515 111.507 45.0217 111.005 45.1051C110.515 45.1865 109.964 45.1731 109.467 45.0652L109.215 46.2249ZM111.893 45.0908C111.916 46.3261 112.982 47.3212 114.225 47.871L114.705 46.7855C113.61 46.3013 113.09 45.6036 113.08 45.0695L111.893 45.0908ZM114.225 47.871C114.871 48.1562 115.585 48.2625 116.188 48.2658C116.492 48.2674 116.781 48.2431 117.031 48.1966C117.268 48.1527 117.52 48.0803 117.718 47.9568L117.089 46.9503C117.09 46.9496 117.085 46.9528 117.072 46.9588C117.058 46.9647 117.04 46.9721 117.015 46.9803C116.965 46.997 116.898 47.0143 116.815 47.0298C116.648 47.0608 116.435 47.0803 116.195 47.079C115.71 47.0764 115.165 46.989 114.705 46.7855L114.225 47.871Z" fill="black"/>
<path fill-rule="evenodd" clip-rule="evenodd" d="M139.504 76.2594C139.987 77.2813 141.207 77.7181 142.229 77.2349C142.368 77.1694 142.495 77.0905 142.611 77.0003C143.527 77.746 144.386 78.564 145.186 79.4166L145.928 78.8974C145.081 77.9873 144.165 77.1093 143.181 76.3079C143.456 75.7639 143.485 75.1034 143.205 74.5097C142.722 73.4878 141.501 73.0511 140.48 73.5342C139.458 74.0174 139.021 75.2375 139.504 76.2594ZM140.979 81.345C140.954 81.2173 140.915 81.0902 140.864 80.9652C140.432 79.9206 139.235 79.4241 138.19 79.856C137.146 80.288 136.649 81.485 137.081 82.5296C137.106 82.5892 137.133 82.6469 137.162 82.7029L138.023 82.3968C137.979 82.3322 137.94 82.2621 137.909 82.187C137.667 81.6 137.946 80.9273 138.533 80.6845C139.12 80.4418 139.792 80.7208 140.035 81.3079C140.082 81.4204 140.109 81.536 140.119 81.6512L140.979 81.345ZM140.227 75.9171C140.499 76.4913 141.301 76.7948 141.875 76.5233C142.45 76.2517 142.753 75.4496 142.482 74.8754C142.21 74.3011 141.408 73.9977 140.834 74.2692C140.259 74.5407 139.956 75.3428 140.227 75.9171ZM146.914 74.8481C147.346 75.8927 148.543 76.3892 149.588 75.9573C150.632 75.5253 151.129 74.3283 150.697 73.2837C150.265 72.2391 149.068 71.7425 148.023 72.1745C146.979 72.6065 146.482 73.8035 146.914 74.8481ZM147.743 74.5055C147.985 75.0925 148.658 75.3715 149.245 75.1288C149.832 74.886 150.111 74.2133 149.868 73.6263C149.626 73.0393 148.953 72.7602 148.366 73.003C147.779 73.2458 147.5 73.9184 147.743 74.5055Z" fill="black"/>
<path d="M142.229 77.2349L142.168 77.1046L142.229 77.2349ZM139.504 76.2594L139.374 76.321L139.374 76.321L139.504 76.2594ZM142.611 77.0003L142.702 76.8886L142.614 76.8162L142.523 76.8865L142.611 77.0003ZM145.186 79.4166L145.081 79.5152L145.167 79.6063L145.269 79.5347L145.186 79.4166ZM145.928 78.8974L146.011 79.0155L146.147 78.9205L146.034 78.7992L145.928 78.8974ZM143.181 76.3079L143.052 76.243L143 76.3465L143.09 76.4197L143.181 76.3079ZM143.205 74.5097L143.335 74.4481L143.205 74.5097ZM140.48 73.5342L140.418 73.4039L140.48 73.5342ZM140.864 80.9652L140.997 80.9101L140.864 80.9652ZM140.979 81.345L141.028 81.4808L141.145 81.439L141.121 81.3166L140.979 81.345ZM138.19 79.856L138.135 79.7229L138.135 79.7229L138.19 79.856ZM137.081 82.5296L137.214 82.4745L137.214 82.4745L137.081 82.5296ZM137.162 82.7029L137.035 82.77L137.093 82.8805L137.21 82.8386L137.162 82.7029ZM138.023 82.3968L138.071 82.5325L138.247 82.4699L138.142 82.3155L138.023 82.3968ZM137.909 82.187L138.043 82.1319L138.043 82.1319L137.909 82.187ZM138.533 80.6845L138.588 80.8177L138.533 80.6845ZM140.035 81.3079L139.902 81.3629L139.902 81.3629L140.035 81.3079ZM140.119 81.6512L139.975 81.6633L139.991 81.8496L140.167 81.787L140.119 81.6512ZM141.875 76.5233L141.814 76.393L141.875 76.5233ZM140.227 75.9171L140.097 75.9787L140.097 75.9787L140.227 75.9171ZM142.482 74.8754L142.612 74.8138L142.612 74.8138L142.482 74.8754ZM140.834 74.2692L140.895 74.3994L140.834 74.2692ZM149.588 75.9573L149.533 75.8241L149.588 75.9573ZM146.914 74.8481L147.047 74.793L146.914 74.8481ZM150.697 73.2837L150.564 73.3388L150.697 73.2837ZM148.023 72.1745L147.968 72.0414L148.023 72.1745ZM147.743 74.5055L147.609 74.5605L147.609 74.5605L147.743 74.5055ZM149.868 73.6263L149.735 73.6814L149.735 73.6814L149.868 73.6263ZM148.366 73.003L148.421 73.1362L148.366 73.003ZM142.168 77.1046C141.218 77.5538 140.083 77.1478 139.634 76.1978L139.374 76.321C139.891 77.4149 141.197 77.8824 142.291 77.3652L142.168 77.1046ZM142.523 76.8865C142.415 76.9702 142.296 77.0437 142.168 77.1046L142.291 77.3652C142.439 77.2952 142.575 77.2107 142.7 77.1141L142.523 76.8865ZM145.292 79.318C144.488 78.4614 143.624 77.6389 142.702 76.8886L142.52 77.112C143.43 77.8531 144.285 78.6665 145.081 79.5152L145.292 79.318ZM145.846 78.7793L145.104 79.2986L145.269 79.5347L146.011 79.0155L145.846 78.7793ZM143.09 76.4197C144.068 77.2162 144.98 78.0895 145.823 78.9956L146.034 78.7992C145.183 77.8851 144.261 77.0023 143.272 76.1962L143.09 76.4197ZM143.074 74.5713C143.335 75.1231 143.308 75.7369 143.052 76.243L143.31 76.3729C143.603 75.7908 143.635 75.0836 143.335 74.4481L143.074 74.5713ZM140.541 73.6645C141.491 73.2154 142.625 73.6214 143.074 74.5713L143.335 74.4481C142.818 73.3543 141.512 72.8868 140.418 73.4039L140.541 73.6645ZM139.634 76.1978C139.185 75.2478 139.591 74.1136 140.541 73.6645L140.418 73.4039C139.324 73.9211 138.857 75.2271 139.374 76.321L139.634 76.1978ZM140.73 81.0203C140.779 81.1366 140.814 81.2548 140.838 81.3735L141.121 81.3166C141.093 81.1798 141.052 81.0437 140.997 80.9101L140.73 81.0203ZM138.245 79.9892C139.216 79.5876 140.329 80.0493 140.73 81.0203L140.997 80.9101C140.534 79.792 139.253 79.2605 138.135 79.7229L138.245 79.9892ZM137.214 82.4745C136.812 81.5035 137.274 80.3908 138.245 79.9892L138.135 79.7229C137.017 80.1853 136.485 81.4666 136.948 82.5847L137.214 82.4745ZM137.29 82.6357C137.262 82.5837 137.237 82.53 137.214 82.4745L136.948 82.5847C136.974 82.6483 137.003 82.7101 137.035 82.77L137.29 82.6357ZM137.974 82.261L137.114 82.5671L137.21 82.8386L138.071 82.5325L137.974 82.261ZM138.142 82.3155C138.103 82.2591 138.07 82.1978 138.043 82.1319L137.776 82.242C137.811 82.3264 137.854 82.4052 137.904 82.478L138.142 82.3155ZM138.043 82.1319C137.83 81.6184 138.074 81.03 138.588 80.8177L138.478 80.5514C137.817 80.8245 137.503 81.5815 137.776 82.242L138.043 82.1319ZM138.588 80.8177C139.101 80.6054 139.69 80.8495 139.902 81.3629L140.168 81.2528C139.895 80.5922 139.138 80.2782 138.478 80.5514L138.588 80.8177ZM139.902 81.3629C139.943 81.4616 139.967 81.5627 139.975 81.6633L140.262 81.6391C140.251 81.5093 140.221 81.3792 140.168 81.2528L139.902 81.3629ZM140.931 81.2093L140.07 81.5154L140.167 81.787L141.028 81.4808L140.931 81.2093ZM141.814 76.393C141.569 76.5089 141.266 76.5053 140.988 76.4022C140.71 76.2991 140.475 76.1026 140.358 75.8555L140.097 75.9787C140.252 76.3058 140.553 76.5481 140.888 76.6724C141.223 76.7967 141.608 76.8091 141.937 76.6535L141.814 76.393ZM142.351 74.937C142.467 75.1821 142.464 75.485 142.361 75.7627C142.257 76.0404 142.061 76.2761 141.814 76.393L141.937 76.6535C142.264 76.4989 142.506 76.1978 142.631 75.863C142.755 75.5282 142.767 75.1429 142.612 74.8138L142.351 74.937ZM140.895 74.3994C141.14 74.2835 141.443 74.2871 141.721 74.3902C141.999 74.4933 142.234 74.6898 142.351 74.937L142.612 74.8138C142.457 74.4866 142.156 74.2443 141.821 74.12C141.487 73.9957 141.101 73.9833 140.772 74.1389L140.895 74.3994ZM140.358 75.8555C140.242 75.6103 140.245 75.3074 140.349 75.0297C140.452 74.752 140.648 74.5163 140.895 74.3994L140.772 74.1389C140.445 74.2936 140.203 74.5946 140.078 74.9294C139.954 75.2642 139.942 75.6496 140.097 75.9787L140.358 75.8555ZM149.533 75.8241C148.562 76.2257 147.449 75.764 147.047 74.793L146.781 74.9032C147.243 76.0213 148.525 76.5528 149.643 76.0904L149.533 75.8241ZM150.564 73.3388C150.965 74.3098 150.504 75.4225 149.533 75.8241L149.643 76.0904C150.761 75.628 151.292 74.3467 150.83 73.2286L150.564 73.3388ZM148.078 72.3077C149.049 71.9061 150.162 72.3677 150.564 73.3388L150.83 73.2286C150.368 72.1105 149.086 71.5789 147.968 72.0414L148.078 72.3077ZM147.047 74.793C146.646 73.822 147.107 72.7093 148.078 72.3077L147.968 72.0414C146.85 72.5038 146.319 73.785 146.781 74.9032L147.047 74.793ZM149.19 74.9956C148.676 75.2079 148.088 74.9638 147.876 74.4504L147.609 74.5605C147.883 75.2211 148.64 75.5351 149.3 75.2619L149.19 74.9956ZM149.735 73.6814C149.948 74.1949 149.703 74.7833 149.19 74.9956L149.3 75.2619C149.961 74.9888 150.275 74.2318 150.002 73.5713L149.735 73.6814ZM148.421 73.1362C148.934 72.9238 149.523 73.1679 149.735 73.6814L150.002 73.5713C149.728 72.9107 148.971 72.5967 148.311 72.8698L148.421 73.1362ZM147.876 74.4504C147.663 73.9369 147.908 73.3485 148.421 73.1362L148.311 72.8698C147.65 73.143 147.336 73.9 147.609 74.5605L147.876 74.4504Z" fill="black"/>
<path d="M99.9414 5.62275C101.021 5.971 99.8949 8.35055 99.1078 9.65223C99.0419 9.76122 98.9201 9.82182 98.7931 9.81227L94.4049 9.48232C94.1081 9.46 93.9841 9.10278 94.211 8.91015C95.808 7.55452 98.9518 5.30359 99.9414 5.62275Z" fill="#FFDE28" stroke="black" stroke-width="1.18675"/>
<defs>
<linearGradient id="paint0_linear_209_650" x1="238.024" y1="-29.5305" x2="44.1922" y2="124.484" gradientUnits="userSpaceOnUse">
<stop stop-color="#FFDE28"/>
<stop offset="1" stop-color="#FFDE28" stop-opacity="0.1"/>
</linearGradient>
<linearGradient id="paint1_linear_209_650" x1="198.426" y1="84.8869" x2="29.097" y2="92.9814" gradientUnits="userSpaceOnUse">
<stop stop-color="#FFEF9A"/>
<stop offset="1" stop-color="#423B17"/>
</linearGradient>
</defs>
</svg>
