<svg width="208" height="116" viewBox="0 0 208 116" fill="none" xmlns="http://www.w3.org/2000/svg">
<path d="M11.5855 75.2727C-7.2625 50.5256 20.3271 28.9051 38.947 32.3818L195.587 84.6681C199.07 117.248 150.083 123.391 107.369 104.018C64.6215 84.6304 31.0713 100.857 11.5855 75.2727Z" fill="url(#paint0_linear_209_546)" stroke="url(#paint1_linear_209_546)" stroke-width="0.875085" stroke-linecap="round"/>
<path d="M104.679 96.5232L141.129 76.0727C141.51 75.8585 141.461 75.2944 141.049 75.1493L69.3168 49.9345C69.1937 49.8912 69.0587 49.8969 68.9397 49.9504L29.3656 67.7373C28.9509 67.9237 28.9705 68.5192 29.3966 68.6779L104.252 96.5562C104.393 96.6084 104.548 96.5963 104.679 96.5232Z" fill="#222222" stroke="black" stroke-width="1.18675" stroke-linecap="round"/>
<path d="M93.0292 5.9573C84.8236 10.5687 64.8945 32.5063 61.5603 39.7398L179.896 79.3263C179.9 55.3919 173.394 39.811 173.474 37.6604C173.542 35.8295 171.303 32.8195 170.866 30.8505C168.459 25.3812 166.608 21.2265 164.302 19.7346C161.42 17.8697 161.162 16.2592 157.178 19.7346C153.991 22.515 154.409 26.1205 153.279 26.2617C147.718 21.9895 123.611 12.6925 106.402 10.7492C107.654 4.86046 108.369 -0.17291 102.39 1.53518C100.859 1.97272 102.673 -0.513951 93.0292 5.9573Z" fill="#F8F8F8"/>
<path d="M179.727 75.6812L180.135 79.0805L188.204 81.6997L191.425 76.1898L192.527 61.1011L195.07 55.8455L206.09 51.6919L205.327 45.2495L197.782 43.8933L188.966 47.0297L184.05 55.676L182.439 71.6971L179.727 75.6812Z" fill="#F8F8F8"/>
<path d="M187.016 78.3093L184.303 80.937L187.355 81.6999L189.126 79.6831L187.016 78.3093Z" fill="#FFDE28"/>
<rect width="3.79946" height="2.73341" transform="matrix(-0.975845 -0.218465 -0.218465 0.975845 187.217 58.5071)" fill="#FFDE28"/>
<path d="M202.868 47.8778L204.092 52.7973L201.042 53.4821L200.76 48.7794L202.868 47.8778Z" fill="#FFDE28"/>
<circle cx="2.11919" cy="2.11919" r="1.52582" transform="matrix(-0.969958 -0.243273 -0.243273 0.969958 202.155 46.9968)" stroke="black" stroke-width="1.18675"/>
<path d="M200.918 53.0488C200.854 52.3726 200.567 50.5319 200.096 50.0525" stroke="black" stroke-width="1.18675" stroke-linecap="round"/>
<path d="M201.395 48.2279L202.863 47.8148C202.957 47.7881 203.054 47.8465 203.075 47.9427C203.362 49.2976 203.921 51.6386 203.97 52.2856" stroke="black" stroke-width="1.18675" stroke-linecap="round"/>
<path d="M180.036 75.6815C181.698 73.9691 182.944 71.2838 182.899 67.0455C182.761 54.1286 186.809 45.4413 197.239 44.2347C202.999 43.5683 205.733 44.9384 206.215 48.1465C206.759 51.7685 203.992 53.666 198.786 54.3802C191.604 55.3653 191.966 63.1085 192.095 68.9805C192.18 72.8784 191.136 77.8339 187.864 81.6741" stroke="black" stroke-width="1.69535" stroke-linecap="round"/>
<circle cx="2.11919" cy="2.11919" r="1.52582" transform="matrix(-0.983937 0.178516 0.178516 0.983937 194.157 49.1621)" stroke="black" stroke-width="1.18675"/>
<circle cx="2.11919" cy="2.11919" r="1.52582" transform="matrix(-0.908377 0.418152 0.418152 0.908377 191.598 58.9526)" stroke="black" stroke-width="1.18675"/>
<circle cx="2.11919" cy="2.11919" r="1.52582" transform="matrix(0.653805 -0.756663 -0.756663 -0.653805 187.426 73.9456)" stroke="black" stroke-width="1.18675"/>
<path d="M191.032 50.4824C190.607 49.9525 189.251 48.8749 188.597 48.5635" stroke="black" stroke-width="1.18675" stroke-linecap="round"/>
<path d="M188.966 61.6099C187.271 61.1861 184.897 60.847 183.064 60.8082" stroke="black" stroke-width="1.18675" stroke-linecap="round"/>
<path d="M186.769 60.6839L187.365 58.8713C187.396 58.7779 187.341 58.6781 187.246 58.6548C185.961 58.342 184.302 58.0533 183.659 57.9764" stroke="black" stroke-width="1.18675" stroke-linecap="round"/>
<path d="M189.012 79.8029C188.348 79.1308 187.749 78.5744 187.084 78.2737C187.013 78.2413 186.93 78.266 186.884 78.3296C186.679 78.6135 186.101 79.3972 185.558 79.9853C185.205 80.3665 185.046 80.5552 184.728 80.8521" stroke="black" stroke-width="1.18675" stroke-linecap="round"/>
<path d="M189.258 71.3927C189.559 71.458 190.86 71.6095 191.679 71.6125" stroke="black" stroke-width="1.18675" stroke-linecap="round"/>
<path fill-rule="evenodd" clip-rule="evenodd" d="M181.552 79.715L182.469 80.4707C183.182 79.6611 183.176 78.4267 182.424 77.6231C181.624 76.7689 180.282 76.7251 179.428 77.5252C179.344 77.6039 179.268 77.6879 179.2 77.7761L180.117 78.5318C180.152 78.4819 180.193 78.4348 180.24 78.3913C180.615 78.0393 181.205 78.0586 181.558 78.4344C181.897 78.7972 181.891 79.3597 181.552 79.715Z" fill="black"/>
<path d="M170.138 54.2354L178.304 57.4743L179.024 61.6768L168.872 57.4978L170.138 54.2354Z" fill="#FFDE28"/>
<circle cx="2.28873" cy="2.28873" r="1.69535" transform="matrix(-0.898998 -0.437953 -0.437953 0.898998 166.857 50.8469)" stroke="black" stroke-width="1.18675"/>
<circle cx="2.28873" cy="2.28873" r="1.69535" transform="matrix(-0.951235 0.308468 0.308468 0.951235 159.128 55.9475)" stroke="black" stroke-width="1.18675"/>
<circle cx="2.28873" cy="2.28873" r="1.69535" transform="matrix(-0.951235 0.308468 0.308468 0.951235 159.128 55.9475)" stroke="black" stroke-width="1.18675"/>
<circle cx="2.28873" cy="2.28873" r="1.69535" transform="matrix(-0.948435 0.316973 0.316973 0.948435 162.169 41.1523)" stroke="black" stroke-width="1.18675"/>
<path d="M159.267 59.4316C164.072 60.714 173.273 64.2417 179.388 66.8652" stroke="black" stroke-width="1.18675" stroke-linecap="round"/>
<path d="M159.267 59.4316C164.072 60.714 173.273 64.2417 179.388 66.8652" stroke="black" stroke-width="1.18675" stroke-linecap="round"/>
<path d="M162.462 44.7712C167.115 45.9686 171.501 47.3449 176.76 49.3185" stroke="black" stroke-width="1.18675" stroke-linecap="round"/>
<path d="M165.639 52.6103C167.293 53.0725 166.588 52.8788 169.724 53.896M169.724 53.896C169.387 55.3575 169.414 55.8047 168.983 57.0225C168.934 57.1587 168.998 57.3098 169.131 57.3663C171.319 58.2963 175.645 59.9161 178.388 61.2979M169.724 53.896C171.475 54.5177 175.669 56.064 178.388 57.1524" stroke="black" stroke-width="1.18675" stroke-linecap="round"/>
<path d="M163.375 25.346C162.208 24.9039 161.54 27.7041 161.318 29.3737C161.298 29.5233 161.381 29.666 161.52 29.7263L165.112 31.2897C165.358 31.3966 165.625 31.1945 165.581 30.9302C165.253 28.9402 164.481 25.7653 163.375 25.346Z" fill="#FFDE28" stroke="black" stroke-width="1.18675"/>
<path d="M92.6902 6.29675C96.7391 3.38571 103.181 -0.51359 105.894 1.60561C107.898 3.17121 107.335 6.94588 106.572 10.6756C111.726 11.2409 120.304 12.8961 128.273 15.5921C139.547 19.4067 149.937 23.5947 153.13 26.0476C154.381 23.8995 155.035 22.4508 156.67 20.3393C158.704 17.7115 160.145 16.6093 163.027 18.4742C165.333 19.9661 168.707 25.6797 170.148 28.9008C170.844 30.457 172.972 35.953 173.491 37.8515C174.075 39.9879 180.434 53.745 180.001 79.0275" stroke="black" stroke-width="1.69535" stroke-linecap="round"/>
<path d="M37.4094 31.6909L195.493 84.5061" stroke="black" stroke-width="1.18675" stroke-linecap="round"/>
<path d="M111.197 67.9932L93.6183 61.6586C93.4958 61.6145 93.3611 61.619 93.2418 61.6713L83.4246 65.9728C83.0046 66.1568 83.0234 66.7589 83.4541 66.9163L101.708 73.589C102.172 73.7586 102.687 73.7174 103.118 73.4764L111.273 68.9156C111.653 68.7028 111.607 68.1411 111.197 67.9932Z" fill="#4D4D4D" stroke="black" stroke-width="1.18675"/>
<path d="M131.409 61.1411L156.585 66.8655L155.164 71.9914L149.824 77.0774L137.193 83.6045L128.039 81.4853L125.072 75.6363L127.106 66.9053L129.205 64.9158L131.409 61.1411Z" fill="#F8F8F8"/>
<path d="M61.2415 39.1016H88.3671L87.9233 48.8948L79.3818 53.5121L67.3448 57.2419L58.9528 53.9359L58.7832 46.3068L59.187 44.4869L61.2415 39.1016Z" fill="#F8F8F8"/>
<path fill-rule="evenodd" clip-rule="evenodd" d="M72.122 23.3095C72.3761 23.9846 72.9445 24.5292 73.6962 24.722C74.9206 25.0361 76.1678 24.2982 76.4819 23.0738C76.783 21.9002 76.1174 20.7056 74.9833 20.3319L73.8914 21.4682C74.0922 21.3957 74.3163 21.3806 74.5388 21.4377C75.1283 21.5889 75.4836 22.1894 75.3323 22.7789C75.1811 23.3684 74.5806 23.7237 73.9911 23.5725C73.4016 23.4213 73.0463 22.8208 73.1975 22.2312C73.2026 22.2115 73.2081 22.1921 73.2142 22.1729L72.122 23.3095Z" fill="black"/>
<circle cx="74.8825" cy="30.225" r="1.69535" transform="rotate(54.9655 74.8825 30.225)" stroke="black" stroke-width="1.18675"/>
<circle cx="82.0328" cy="18.1321" r="1.69535" transform="rotate(55.6524 82.0328 18.1321)" stroke="black" stroke-width="1.18675"/>
<path d="M73.235 29.7364C71.9624 29.2176 70.3709 28.6393 68.601 28.0399" stroke="black" stroke-width="1.18675" stroke-linecap="round"/>
<path d="M80.0723 17.2372C79.6556 17.0094 79.2071 16.771 78.7312 16.5238" stroke="black" stroke-width="1.18675" stroke-linecap="round"/>
<path d="M92.436 6.46582C72.6851 19.2657 52.673 45.7133 59.8004 54.3596C64.9713 60.6324 81.9248 54.4444 87.9433 48.5954" stroke="black" stroke-width="1.69535" stroke-linecap="round"/>
<path fill-rule="evenodd" clip-rule="evenodd" d="M64.2747 48.7735C63.2413 48.7902 62.39 47.9659 62.3734 46.9325C62.3711 46.7925 62.3843 46.6558 62.4113 46.5241C61.3062 46.018 60.1546 45.6072 59.0026 45.2738L59.2402 44.4892C60.4199 44.8309 61.6056 45.2537 62.749 45.7772C63.0843 45.3321 63.6141 45.0408 64.2144 45.0311C65.2478 45.0145 66.0991 45.8387 66.1157 46.8721C66.1324 47.9056 65.3082 48.7568 64.2747 48.7735ZM60.744 39.241L60.8505 39.1712L60.4561 40.4736C60.5696 41.4585 61.4378 42.1911 62.4379 42.1253C63.4692 42.0575 64.2503 41.1665 64.1826 40.1352C64.1148 39.1039 63.2238 38.3227 62.1924 38.3905C61.5792 38.4308 61.0544 38.7622 60.744 39.241ZM64.2631 48.0418C63.6824 48.0511 63.1094 47.5158 63.1 46.9351C63.0907 46.3543 63.6259 45.7813 64.2067 45.772C64.7874 45.7626 65.3605 46.2979 65.3698 46.8786C65.3792 47.4594 64.8439 48.0324 64.2631 48.0418ZM60.111 53.2947C59.0797 53.3625 58.1886 52.5814 58.1209 51.5501C58.0531 50.5187 58.8342 49.6277 59.8655 49.5599C60.8969 49.4922 61.7879 50.2733 61.8557 51.3046C61.9235 52.3359 61.1423 53.227 60.111 53.2947ZM60.0572 52.4768C59.4777 52.5148 58.977 52.0759 58.9389 51.4963C58.9008 50.9167 59.3397 50.416 59.9193 50.3779C60.4989 50.3398 60.9996 50.7788 61.0377 51.3584C61.0758 51.9379 60.6368 52.4387 60.0572 52.4768ZM62.3841 41.3073C61.8046 41.3454 61.3038 40.9065 61.2657 40.3269C61.2277 39.7473 61.6666 39.2466 62.2462 39.2085C62.8258 39.1704 63.3265 39.6094 63.3646 40.189C63.4027 40.7685 62.9637 41.2692 62.3841 41.3073Z" fill="black"/>
<path d="M62.3734 46.9325L62.2293 46.9348L62.3734 46.9325ZM64.2747 48.7735L64.2724 48.6294L64.2747 48.7735ZM62.4113 46.5241L62.4713 46.3931L62.5755 46.4409L62.5525 46.5531L62.4113 46.5241ZM59.0026 45.2738L58.9625 45.4122L58.8224 45.3717L58.8647 45.2321L59.0026 45.2738ZM59.2402 44.4892L59.1023 44.4474L59.1435 44.3112L59.2803 44.3508L59.2402 44.4892ZM62.749 45.7772L62.8641 45.8639L62.7944 45.9564L62.689 45.9082L62.749 45.7772ZM64.2144 45.0311L64.2167 45.1752L64.2144 45.0311ZM66.1157 46.8721L66.2598 46.8698L66.2598 46.8698L66.1157 46.8721ZM60.744 39.241L60.823 39.3616L60.6231 39.1626L60.744 39.241ZM60.8505 39.1712L60.7715 39.0507L61.1034 38.8333L60.9884 39.213L60.8505 39.1712ZM60.4561 40.4736L60.313 40.4901L60.3096 40.4604L60.3182 40.4318L60.4561 40.4736ZM62.4379 42.1253L62.4284 41.9815L62.4379 42.1253ZM64.1826 40.1352L64.3264 40.1257L64.1826 40.1352ZM62.1924 38.3905L62.2019 38.5343L62.1924 38.3905ZM63.1 46.9351L63.2441 46.9328L63.1 46.9351ZM64.2631 48.0418L64.2608 47.8977L64.2631 48.0418ZM64.2067 45.772L64.2044 45.6279L64.2067 45.772ZM65.3698 46.8786L65.2257 46.881L65.3698 46.8786ZM58.1209 51.5501L58.2647 51.5406L58.1209 51.5501ZM60.111 53.2947L60.1205 53.4385L60.1205 53.4385L60.111 53.2947ZM59.8655 49.5599L59.875 49.7037L59.8655 49.5599ZM61.8557 51.3046L61.9995 51.2952L61.8557 51.3046ZM58.9389 51.4963L58.7951 51.5058L58.7951 51.5058L58.9389 51.4963ZM60.0572 52.4768L60.0478 52.333L60.0478 52.333L60.0572 52.4768ZM59.9193 50.3779L59.9287 50.5217L59.9193 50.3779ZM61.0377 51.3584L61.1815 51.3489L61.0377 51.3584ZM61.2657 40.3269L61.4095 40.3175L61.2657 40.3269ZM62.3841 41.3073L62.3747 41.1635L62.3841 41.3073ZM62.2462 39.2085L62.2556 39.3523L62.2556 39.3523L62.2462 39.2085ZM63.3646 40.189L63.5084 40.1795L63.3646 40.189ZM62.5175 46.9301C62.5328 47.884 63.3185 48.6448 64.2724 48.6294L64.277 48.9176C63.164 48.9355 62.2472 48.0478 62.2293 46.9348L62.5175 46.9301ZM62.5525 46.5531C62.5275 46.6746 62.5154 46.8007 62.5175 46.9301L62.2293 46.9348C62.2269 46.7842 62.241 46.6371 62.2702 46.4952L62.5525 46.5531ZM59.0426 45.1354C60.2003 45.4703 61.3587 45.8835 62.4713 46.3931L62.3513 46.6552C61.2537 46.1524 60.109 45.744 58.9625 45.4122L59.0426 45.1354ZM59.3781 44.5309L59.1405 45.3156L58.8647 45.2321L59.1023 44.4474L59.3781 44.5309ZM62.689 45.9082C61.5531 45.3882 60.3742 44.9677 59.2001 44.6276L59.2803 44.3508C60.4656 44.6942 61.6581 45.1193 62.809 45.6461L62.689 45.9082ZM64.2167 45.1752C63.6627 45.1841 63.1738 45.4528 62.8641 45.8639L62.6339 45.6905C62.9948 45.2114 63.5654 44.8974 64.2121 44.887L64.2167 45.1752ZM65.9717 46.8745C65.9563 45.9206 65.1706 45.1598 64.2167 45.1752L64.2121 44.887C65.3251 44.8691 66.2419 45.7568 66.2598 46.8698L65.9717 46.8745ZM64.2724 48.6294C65.2263 48.614 65.987 47.8283 65.9717 46.8745L66.2598 46.8698C66.2778 47.9828 65.39 48.8996 64.277 48.9176L64.2724 48.6294ZM60.665 39.1205L60.7715 39.0507L60.9295 39.2918L60.823 39.3616L60.665 39.1205ZM60.9884 39.213L60.5941 40.5153L60.3182 40.4318L60.7126 39.1295L60.9884 39.213ZM60.5993 40.4571C60.704 41.366 61.5054 42.0422 62.4284 41.9815L62.4473 42.2691C61.3702 42.3399 60.4352 41.5509 60.313 40.4901L60.5993 40.4571ZM62.4284 41.9815C63.3804 41.919 64.1013 41.0966 64.0388 40.1446L64.3264 40.1257C64.3994 41.2365 63.5581 42.1961 62.4473 42.2691L62.4284 41.9815ZM64.0388 40.1446C63.9762 39.1927 63.1538 38.4718 62.2019 38.5343L62.183 38.2467C63.2937 38.1737 64.2533 39.015 64.3264 40.1257L64.0388 40.1446ZM62.2019 38.5343C61.636 38.5715 61.1517 38.8771 60.8649 39.3194L60.6231 39.1626C60.9572 38.6473 61.5224 38.2901 62.183 38.2467L62.2019 38.5343ZM63.2441 46.9328C63.248 47.1767 63.3714 47.4207 63.5663 47.605C63.7612 47.7893 64.0147 47.9016 64.2608 47.8977L64.2655 48.1858C63.9308 48.1912 63.6074 48.0406 63.3683 47.8144C63.1292 47.5882 62.9614 47.2742 62.9559 46.9374L63.2441 46.9328ZM64.209 45.9161C63.9651 45.92 63.7211 46.0434 63.5368 46.2383C63.3524 46.4332 63.2401 46.6866 63.2441 46.9328L62.9559 46.9374C62.9505 46.6028 63.1012 46.2794 63.3274 46.0402C63.5535 45.8011 63.8676 45.6333 64.2044 45.6279L64.209 45.9161ZM65.2257 46.881C65.2218 46.637 65.0984 46.393 64.9035 46.2087C64.7086 46.0244 64.4551 45.9121 64.209 45.9161L64.2044 45.6279C64.539 45.6225 64.8624 45.7731 65.1015 45.9993C65.3407 46.2255 65.5085 46.5395 65.5139 46.8763L65.2257 46.881ZM64.2608 47.8977C64.5048 47.8937 64.7488 47.7703 64.9331 47.5754C65.1174 47.3806 65.2297 47.1271 65.2257 46.881L65.5139 46.8763C65.5193 47.2109 65.3686 47.5343 65.1425 47.7735C64.9163 48.0126 64.6023 48.1804 64.2655 48.1858L64.2608 47.8977ZM58.2647 51.5406C58.3272 52.4926 59.1496 53.2135 60.1016 53.151L60.1205 53.4385C59.0097 53.5116 58.0501 52.6703 57.9771 51.5595L58.2647 51.5406ZM59.875 49.7037C58.9231 49.7663 58.2021 50.5887 58.2647 51.5406L57.9771 51.5595C57.9041 50.4488 58.7453 49.4892 59.8561 49.4161L59.875 49.7037ZM61.7119 51.3141C61.6493 50.3621 60.8269 49.6412 59.875 49.7037L59.8561 49.4161C60.9668 49.3431 61.9265 50.1844 61.9995 51.2952L61.7119 51.3141ZM60.1016 53.151C61.0535 53.0884 61.7744 52.266 61.7119 51.3141L61.9995 51.2952C62.0725 52.4059 61.2312 53.3655 60.1205 53.4385L60.1016 53.151ZM59.0827 51.4869C59.1155 51.987 59.5476 52.3658 60.0478 52.333L60.0667 52.6205C59.4077 52.6639 58.8384 52.1648 58.7951 51.5058L59.0827 51.4869ZM59.9287 50.5217C59.4286 50.5546 59.0498 50.9867 59.0827 51.4869L58.7951 51.5058C58.7517 50.8468 59.2509 50.2775 59.9098 50.2341L59.9287 50.5217ZM60.8939 51.3678C60.861 50.8677 60.4289 50.4889 59.9287 50.5217L59.9098 50.2341C60.5688 50.1908 61.1382 50.6899 61.1815 51.3489L60.8939 51.3678ZM60.0478 52.333C60.5479 52.3001 60.9268 51.868 60.8939 51.3678L61.1815 51.3489C61.2248 52.0079 60.7257 52.5772 60.0667 52.6205L60.0478 52.333ZM61.4095 40.3175C61.4424 40.8176 61.8745 41.1964 62.3747 41.1635L62.3936 41.4511C61.7346 41.4945 61.1653 40.9953 61.122 40.3364L61.4095 40.3175ZM62.2556 39.3523C61.7555 39.3852 61.3767 39.8173 61.4095 40.3175L61.122 40.3364C61.0786 39.6774 61.5777 39.108 62.2367 39.0647L62.2556 39.3523ZM63.2208 40.1984C63.1879 39.6983 62.7558 39.3194 62.2556 39.3523L62.2367 39.0647C62.8957 39.0214 63.465 39.5205 63.5084 40.1795L63.2208 40.1984ZM62.3747 41.1635C62.8748 41.1307 63.2536 40.6986 63.2208 40.1984L63.5084 40.1795C63.5517 40.8385 63.0526 41.4078 62.3936 41.4511L62.3747 41.1635Z" fill="black"/>
<path d="M155.333 71.2286C151.641 76.9015 136.769 88.0373 127.784 81.0616C124.033 78.1503 124.486 70.4102 130.455 62.9213C131.097 62.1157 131.79 61.3218 132.531 60.5479" stroke="black" stroke-width="1.69535" stroke-linecap="round"/>
<ellipse cx="92.4707" cy="35.652" rx="2.87193" ry="5.23102" transform="rotate(-69.5962 92.4707 35.652)" fill="#FFDE28"/>
<ellipse cx="135.936" cy="50.1882" rx="2.87193" ry="5.23102" transform="rotate(-75.6503 135.936 50.1882)" fill="#FFDE28"/>
<ellipse cx="99.2253" cy="35.8608" rx="2.87193" ry="5.23102" transform="rotate(-69.7616 99.2253 35.8608)" fill="black"/>
<ellipse cx="130.94" cy="46.4044" rx="2.87193" ry="5.23102" transform="rotate(109.388 130.94 46.4044)" fill="black"/>
<path d="M88.0601 54.8355L103.833 95.5305C103.99 95.9362 103.598 96.3392 103.188 96.1936L29.0211 69.8638C28.8845 69.8153 28.7751 69.7108 28.7203 69.5765L12.5281 29.8769C12.3635 29.4732 12.7498 29.063 13.1627 29.2032L87.7495 54.5377C87.892 54.5861 88.0057 54.6952 88.0601 54.8355Z" fill="#222222" stroke="black" stroke-width="1.18675" stroke-linecap="round"/>
<path d="M55.398 67.6198C50.0348 66.2941 48.7461 59.7264 50.2748 56.977C50.3289 56.8798 50.4607 56.8698 50.5356 56.9521L53.7414 60.476C53.801 60.5415 53.901 60.5501 53.971 60.4956L56.9465 58.1776C57.021 58.1195 57.1279 58.1324 57.1836 58.2087C59.816 61.8209 60.8529 68.9682 55.398 67.6198Z" stroke="#FFDE28" stroke-width="0.847677"/>
<mask id="path-51-outside-1_209_546" maskUnits="userSpaceOnUse" x="51.3128" y="61.0145" width="7.37265" height="4.69547" fill="black">
<rect fill="white" x="51.3128" y="61.0145" width="7.37265" height="4.69547"/>
<path d="M53.5279 61.9942C53.5954 62.0067 53.6516 62.0153 53.6967 62.0199L53.8333 62.034C53.8795 62.0387 53.9282 62.0393 53.9796 62.0357L53.8395 63.3977C53.8117 63.6678 53.7076 63.8763 53.5272 64.023C53.3564 64.1619 53.1541 64.2193 52.9203 64.1952C52.6644 64.1689 52.4643 64.0812 52.3199 63.9321C52.1585 63.7646 52.0922 63.5403 52.1211 63.2592L52.2647 61.8643C52.3552 61.8791 52.4406 61.8907 52.5207 61.8989C52.602 61.9073 52.6694 61.9098 52.723 61.9064L52.5768 63.3277C52.5625 63.4661 52.5937 63.578 52.6704 63.6636C52.7422 63.742 52.8374 63.7873 52.956 63.7995C53.1317 63.8176 53.2579 63.7396 53.3346 63.5655C53.3621 63.5028 53.3808 63.4238 53.3906 63.3282L53.5279 61.9942ZM55.4163 62.1553C55.6216 62.1764 55.793 62.2301 55.9306 62.3164L55.8788 62.8203L55.8751 62.8233C55.8234 62.7225 55.7002 62.6466 55.5058 62.5955C55.4486 62.5797 55.3755 62.5672 55.2866 62.558C55.1977 62.5489 55.1086 62.5569 55.0195 62.5821C54.9305 62.6062 54.8553 62.6462 54.7941 62.7021C54.6753 62.8108 54.6045 62.976 54.5817 63.1978C54.5551 63.4558 54.6029 63.6549 54.7249 63.7951C54.8261 63.912 54.9689 63.98 55.1533 63.9989C55.3619 64.0204 55.5356 63.9933 55.6743 63.9177C55.7248 63.8908 55.7689 63.8553 55.8067 63.8115L55.8113 63.8153L55.7639 64.2765C55.5815 64.3986 55.3482 64.4451 55.0638 64.4158C54.729 64.3814 54.4775 64.2479 54.3095 64.0153C54.1481 63.7934 54.0847 63.5151 54.1191 63.1802C54.1556 62.8255 54.2843 62.5564 54.5051 62.3727C54.7283 62.1882 55.032 62.1157 55.4163 62.1553ZM56.5898 64.5728C56.4119 64.5545 56.246 64.523 56.0919 64.4783L56.3186 62.2747C56.4654 62.2721 56.6343 62.2806 56.8253 62.3002C57.0174 62.32 57.1882 62.3642 57.3376 62.4328C57.4882 62.5005 57.6107 62.588 57.705 62.6953C57.896 62.9103 57.9735 63.1918 57.9377 63.5398C57.8976 63.9296 57.7497 64.2134 57.4939 64.3912C57.2645 64.5507 56.9631 64.6112 56.5898 64.5728ZM56.557 64.1633C56.6271 64.1839 56.6977 64.1978 56.7691 64.2051C56.8405 64.2125 56.9187 64.2067 57.0039 64.1877C57.0892 64.1676 57.1651 64.131 57.2316 64.078C57.374 63.9661 57.4575 63.7905 57.4822 63.5512C57.5226 63.1581 57.4042 62.9018 57.1269 62.7823C57.0355 62.7429 56.9278 62.7169 56.8037 62.7041L56.7593 62.6995C56.7428 62.6978 56.7257 62.6966 56.708 62.6959L56.557 64.1633Z"/>
</mask>
<path d="M53.5279 61.9942C53.5954 62.0067 53.6516 62.0153 53.6967 62.0199L53.8333 62.034C53.8795 62.0387 53.9282 62.0393 53.9796 62.0357L53.8395 63.3977C53.8117 63.6678 53.7076 63.8763 53.5272 64.023C53.3564 64.1619 53.1541 64.2193 52.9203 64.1952C52.6644 64.1689 52.4643 64.0812 52.3199 63.9321C52.1585 63.7646 52.0922 63.5403 52.1211 63.2592L52.2647 61.8643C52.3552 61.8791 52.4406 61.8907 52.5207 61.8989C52.602 61.9073 52.6694 61.9098 52.723 61.9064L52.5768 63.3277C52.5625 63.4661 52.5937 63.578 52.6704 63.6636C52.7422 63.742 52.8374 63.7873 52.956 63.7995C53.1317 63.8176 53.2579 63.7396 53.3346 63.5655C53.3621 63.5028 53.3808 63.4238 53.3906 63.3282L53.5279 61.9942ZM55.4163 62.1553C55.6216 62.1764 55.793 62.2301 55.9306 62.3164L55.8788 62.8203L55.8751 62.8233C55.8234 62.7225 55.7002 62.6466 55.5058 62.5955C55.4486 62.5797 55.3755 62.5672 55.2866 62.558C55.1977 62.5489 55.1086 62.5569 55.0195 62.5821C54.9305 62.6062 54.8553 62.6462 54.7941 62.7021C54.6753 62.8108 54.6045 62.976 54.5817 63.1978C54.5551 63.4558 54.6029 63.6549 54.7249 63.7951C54.8261 63.912 54.9689 63.98 55.1533 63.9989C55.3619 64.0204 55.5356 63.9933 55.6743 63.9177C55.7248 63.8908 55.7689 63.8553 55.8067 63.8115L55.8113 63.8153L55.7639 64.2765C55.5815 64.3986 55.3482 64.4451 55.0638 64.4158C54.729 64.3814 54.4775 64.2479 54.3095 64.0153C54.1481 63.7934 54.0847 63.5151 54.1191 63.1802C54.1556 62.8255 54.2843 62.5564 54.5051 62.3727C54.7283 62.1882 55.032 62.1157 55.4163 62.1553ZM56.5898 64.5728C56.4119 64.5545 56.246 64.523 56.0919 64.4783L56.3186 62.2747C56.4654 62.2721 56.6343 62.2806 56.8253 62.3002C57.0174 62.32 57.1882 62.3642 57.3376 62.4328C57.4882 62.5005 57.6107 62.588 57.705 62.6953C57.896 62.9103 57.9735 63.1918 57.9377 63.5398C57.8976 63.9296 57.7497 64.2134 57.4939 64.3912C57.2645 64.5507 56.9631 64.6112 56.5898 64.5728ZM56.557 64.1633C56.6271 64.1839 56.6977 64.1978 56.7691 64.2051C56.8405 64.2125 56.9187 64.2067 57.0039 64.1877C57.0892 64.1676 57.1651 64.131 57.2316 64.078C57.374 63.9661 57.4575 63.7905 57.4822 63.5512C57.5226 63.1581 57.4042 62.9018 57.1269 62.7823C57.0355 62.7429 56.9278 62.7169 56.8037 62.7041L56.7593 62.6995C56.7428 62.6978 56.7257 62.6966 56.708 62.6959L56.557 64.1633Z" fill="#FFDE28"/>
<path d="M53.5279 61.9942L53.534 61.9609L53.4979 61.9542L53.4941 61.9908L53.5279 61.9942ZM53.9796 62.0357L54.0134 62.0392L54.0175 61.9991L53.9773 62.0019L53.9796 62.0357ZM52.3199 63.9321L52.2955 63.9556L52.2955 63.9557L52.3199 63.9321ZM52.2647 61.8643L52.2702 61.8308L52.2346 61.825L52.2309 61.8608L52.2647 61.8643ZM52.723 61.9064L52.7568 61.9099L52.7609 61.8701L52.7209 61.8726L52.723 61.9064ZM52.6704 63.6636L52.6451 63.6862L52.6454 63.6865L52.6704 63.6636ZM53.3346 63.5655L53.3656 63.5792L53.3656 63.5791L53.3346 63.5655ZM53.5217 62.0276C53.5897 62.0402 53.6469 62.0489 53.6932 62.0537L53.7001 61.9862C53.6563 61.9817 53.6011 61.9733 53.534 61.9609L53.5217 62.0276ZM53.6932 62.0537L53.8299 62.0677L53.8368 62.0003L53.7001 61.9862L53.6932 62.0537ZM53.8299 62.0677C53.8781 62.0727 53.9289 62.0733 53.982 62.0696L53.9773 62.0019C53.9276 62.0054 53.8808 62.0048 53.8368 62.0003L53.8299 62.0677ZM53.9459 62.0323L53.8058 63.3943L53.8732 63.4012L54.0134 62.0392L53.9459 62.0323ZM53.8058 63.3943C53.7787 63.657 53.678 63.8566 53.5058 63.9967L53.5486 64.0493C53.7371 63.8959 53.8447 63.6786 53.8732 63.4012L53.8058 63.3943ZM53.5058 63.9967C53.3425 64.1295 53.1493 64.1847 52.9237 64.1615L52.9168 64.229C53.1589 64.2539 53.3703 64.1943 53.5486 64.0493L53.5058 63.9967ZM52.9237 64.1615C52.6739 64.1358 52.4819 64.0506 52.3442 63.9085L52.2955 63.9557C52.4467 64.1118 52.655 64.202 52.9168 64.229L52.9237 64.1615ZM52.3443 63.9086C52.1913 63.7498 52.1267 63.5362 52.1549 63.2627L52.0874 63.2557C52.0577 63.5444 52.1256 63.7794 52.2955 63.9556L52.3443 63.9086ZM52.1549 63.2627L52.2984 61.8677L52.2309 61.8608L52.0874 63.2557L52.1549 63.2627ZM52.2592 61.8977C52.3503 61.9127 52.4364 61.9243 52.5173 61.9327L52.5242 61.8652C52.4448 61.857 52.3602 61.8456 52.2702 61.8308L52.2592 61.8977ZM52.5173 61.9327C52.5995 61.9411 52.669 61.9438 52.7251 61.9403L52.7209 61.8726C52.6699 61.8758 52.6045 61.8735 52.5242 61.8652L52.5173 61.9327ZM52.6893 61.903L52.5431 63.3243L52.6105 63.3312L52.7568 61.9099L52.6893 61.903ZM52.5431 63.3243C52.5281 63.4699 52.5608 63.592 52.6451 63.6862L52.6956 63.6409C52.6267 63.564 52.597 63.4622 52.6105 63.3312L52.5431 63.3243ZM52.6454 63.6865C52.7235 63.7718 52.8267 63.8203 52.9525 63.8332L52.9595 63.7657C52.8481 63.7543 52.7609 63.7122 52.6954 63.6407L52.6454 63.6865ZM52.9525 63.8332C53.0463 63.8429 53.1296 63.827 53.2002 63.7834C53.2706 63.7399 53.3253 63.6707 53.3656 63.5792L53.3035 63.5518C53.2672 63.6343 53.2204 63.6912 53.1646 63.7257C53.109 63.76 53.0413 63.7742 52.9595 63.7657L52.9525 63.8332ZM53.3656 63.5791C53.395 63.5122 53.4143 63.4294 53.4243 63.3317L53.3569 63.3248C53.3473 63.4181 53.3292 63.4934 53.3035 63.5518L53.3656 63.5791ZM53.4243 63.3317L53.5616 61.9977L53.4941 61.9908L53.3569 63.3248L53.4243 63.3317ZM55.9306 62.3164L55.9643 62.3198L55.9665 62.2988L55.9486 62.2876L55.9306 62.3164ZM55.8788 62.8203L55.9002 62.8466L55.9111 62.8378L55.9125 62.8238L55.8788 62.8203ZM55.8751 62.8233L55.845 62.8388L55.8641 62.876L55.8965 62.8496L55.8751 62.8233ZM55.5058 62.5955L55.4967 62.6282L55.4972 62.6283L55.5058 62.5955ZM55.0195 62.5821L55.0284 62.6148L55.0287 62.6147L55.0195 62.5821ZM54.7941 62.7021L54.7713 62.677L54.7712 62.677L54.7941 62.7021ZM54.7249 63.7951L54.7506 63.7729L54.7505 63.7728L54.7249 63.7951ZM55.6743 63.9177L55.6583 63.8878L55.6581 63.888L55.6743 63.9177ZM55.8067 63.8115L55.8283 63.7854L55.8027 63.7642L55.7811 63.7894L55.8067 63.8115ZM55.8113 63.8153L55.8451 63.8188L55.8469 63.8007L55.8329 63.7892L55.8113 63.8153ZM55.7639 64.2765L55.7828 64.3046L55.796 64.2958L55.7976 64.2799L55.7639 64.2765ZM54.3095 64.0153L54.337 63.9954L54.3369 63.9954L54.3095 64.0153ZM54.5051 62.3727L54.4835 62.3466L54.4834 62.3467L54.5051 62.3727ZM55.4128 62.189C55.6143 62.2097 55.7804 62.2622 55.9126 62.3451L55.9486 62.2876C55.8056 62.198 55.6289 62.143 55.4197 62.1215L55.4128 62.189ZM55.8969 62.3129L55.845 62.8168L55.9125 62.8238L55.9643 62.3198L55.8969 62.3129ZM55.8574 62.794L55.8537 62.797L55.8965 62.8496L55.9002 62.8466L55.8574 62.794ZM55.9053 62.8078C55.8467 62.6938 55.7114 62.6145 55.5144 62.5627L55.4972 62.6283C55.6891 62.6787 55.8 62.7513 55.845 62.8388L55.9053 62.8078ZM55.5148 62.5629C55.4552 62.5463 55.3801 62.5335 55.2901 62.5243L55.2831 62.5917C55.371 62.6008 55.442 62.613 55.4967 62.6282L55.5148 62.5629ZM55.2901 62.5243C55.1967 62.5147 55.1034 62.5231 55.0103 62.5495L55.0287 62.6147C55.1139 62.5906 55.1986 62.583 55.2831 62.5917L55.2901 62.5243ZM55.0106 62.5494C54.917 62.5748 54.8369 62.6171 54.7713 62.677L54.817 62.7271C54.8738 62.6753 54.9439 62.6377 55.0284 62.6148L55.0106 62.5494ZM54.7712 62.677C54.6443 62.7932 54.5713 62.9675 54.5479 63.1943L54.6154 63.2013C54.6377 62.9846 54.7063 62.8283 54.817 62.7271L54.7712 62.677ZM54.5479 63.1943C54.5208 63.4579 54.569 63.6677 54.6994 63.8173L54.7505 63.7728C54.6367 63.6422 54.5894 63.4538 54.6154 63.2013L54.5479 63.1943ZM54.6993 63.8173C54.8072 63.942 54.9586 64.013 55.1499 64.0327L55.1568 63.9652C54.9791 63.9469 54.845 63.882 54.7506 63.7729L54.6993 63.8173ZM55.1499 64.0327C55.3631 64.0546 55.5441 64.0273 55.6905 63.9475L55.6581 63.888C55.5271 63.9594 55.3608 63.9862 55.1568 63.9652L55.1499 64.0327ZM55.6903 63.9476C55.7445 63.9187 55.7919 63.8806 55.8324 63.8337L55.7811 63.7894C55.746 63.8301 55.7051 63.8628 55.6583 63.8878L55.6903 63.9476ZM55.7851 63.8377L55.7897 63.8415L55.8329 63.7892L55.8283 63.7854L55.7851 63.8377ZM55.7776 63.8119L55.7302 64.273L55.7976 64.2799L55.8451 63.8188L55.7776 63.8119ZM55.745 64.2483C55.571 64.3649 55.3462 64.4108 55.0673 64.3821L55.0604 64.4495C55.3502 64.4794 55.5921 64.4324 55.7828 64.3046L55.745 64.2483ZM55.0673 64.3821C54.7402 64.3484 54.4983 64.2188 54.337 63.9954L54.282 64.0352C54.4567 64.2769 54.7177 64.4143 55.0604 64.4495L55.0673 64.3821ZM54.3369 63.9954C54.1815 63.7817 54.119 63.5122 54.1528 63.1837L54.0854 63.1767C54.0503 63.5179 54.1147 63.8052 54.2821 64.0352L54.3369 63.9954ZM54.1528 63.1837C54.1887 62.8356 54.3143 62.5755 54.5268 62.3988L54.4834 62.3467C54.2542 62.5373 54.1226 62.8155 54.0854 63.1767L54.1528 63.1837ZM54.5267 62.3989C54.7408 62.2219 55.0344 62.1501 55.4128 62.189L55.4197 62.1215C55.0295 62.0814 54.7158 62.1545 54.4835 62.3466L54.5267 62.3989ZM56.0919 64.4783L56.0582 64.4748L56.0553 64.503L56.0824 64.5109L56.0919 64.4783ZM56.3186 62.2747L56.318 62.2408L56.288 62.2414L56.2849 62.2713L56.3186 62.2747ZM57.3376 62.4328L57.3234 62.4636L57.3237 62.4638L57.3376 62.4328ZM57.705 62.6953L57.6796 62.7177L57.6797 62.7179L57.705 62.6953ZM57.4939 64.3912L57.5133 64.4191L57.5133 64.4191L57.4939 64.3912ZM56.557 64.1633L56.5233 64.1599L56.5204 64.1879L56.5475 64.1959L56.557 64.1633ZM57.0039 64.1877L57.0113 64.2208L57.0117 64.2207L57.0039 64.1877ZM57.2316 64.078L57.2106 64.0513L57.2104 64.0515L57.2316 64.078ZM57.1269 62.7823L57.1403 62.7512L57.1403 62.7512L57.1269 62.7823ZM56.708 62.6959L56.7094 62.6621L56.6776 62.6608L56.6743 62.6925L56.708 62.6959ZM56.5933 64.5391C56.4172 64.521 56.2533 64.4898 56.1013 64.4458L56.0824 64.5109C56.2387 64.5562 56.4067 64.5881 56.5863 64.6066L56.5933 64.5391ZM56.1256 64.4818L56.3524 62.2782L56.2849 62.2713L56.0582 64.4748L56.1256 64.4818ZM56.3192 62.3086C56.4643 62.306 56.6318 62.3144 56.8218 62.334L56.8288 62.2665C56.6368 62.2467 56.4665 62.2381 56.318 62.2408L56.3192 62.3086ZM56.8218 62.334C57.0109 62.3534 57.178 62.3968 57.3234 62.4636L57.3518 62.402C57.1985 62.3316 57.024 62.2866 56.8288 62.2665L56.8218 62.334ZM57.3237 62.4638C57.4706 62.5297 57.5889 62.6145 57.6796 62.7177L57.7305 62.6729C57.6325 62.5614 57.5058 62.4712 57.3515 62.4019L57.3237 62.4638ZM57.6797 62.7179C57.863 62.9242 57.939 63.1955 57.904 63.5363L57.9714 63.5433C58.008 63.188 57.929 62.8964 57.7304 62.6728L57.6797 62.7179ZM57.904 63.5363C57.8646 63.919 57.7202 64.1926 57.4746 64.3634L57.5133 64.4191C57.7792 64.2342 57.9306 63.9401 57.9714 63.5433L57.904 63.5363ZM57.4746 64.3634C57.2538 64.5169 56.9613 64.577 56.5933 64.5391L56.5863 64.6066C56.9649 64.6455 57.2752 64.5846 57.5133 64.4191L57.4746 64.3634ZM56.5475 64.1959C56.6195 64.217 56.6922 64.2313 56.7656 64.2389L56.7726 64.1714C56.7033 64.1643 56.6346 64.1508 56.5666 64.1308L56.5475 64.1959ZM56.7656 64.2389C56.8413 64.2467 56.9233 64.2404 57.0113 64.2208L56.9965 64.1546C56.9142 64.1729 56.8396 64.1783 56.7726 64.1714L56.7656 64.2389ZM57.0117 64.2207C57.1017 64.1995 57.1822 64.1608 57.2527 64.1045L57.2104 64.0515C57.148 64.1013 57.0767 64.1357 56.9961 64.1547L57.0117 64.2207ZM57.2525 64.1046C57.4043 63.9854 57.4906 63.8 57.5159 63.5547L57.4484 63.5477C57.4244 63.781 57.3437 63.9468 57.2106 64.0513L57.2525 64.1046ZM57.5159 63.5547C57.5365 63.3544 57.517 63.1854 57.4545 63.0499C57.3915 62.9137 57.286 62.814 57.1403 62.7512L57.1135 62.8134C57.245 62.8701 57.3374 62.9584 57.3929 63.0784C57.4487 63.1992 57.4683 63.3549 57.4484 63.5477L57.5159 63.5547ZM57.1403 62.7512C57.0451 62.7101 56.9339 62.6834 56.8072 62.6704L56.8002 62.7378C56.9217 62.7503 57.0259 62.7757 57.1135 62.8134L57.1403 62.7512ZM56.8072 62.6704L56.7627 62.6658L56.7558 62.7333L56.8002 62.7378L56.8072 62.6704ZM56.7627 62.6658C56.7455 62.664 56.7277 62.6628 56.7094 62.6621L56.7067 62.7298C56.7237 62.7305 56.7401 62.7317 56.7558 62.7333L56.7627 62.6658ZM56.6743 62.6925L56.5233 64.1599L56.5908 64.1668L56.7418 62.6994L56.6743 62.6925Z" fill="#FFDE28" mask="url(#path-51-outside-1_209_546)"/>
<path d="M115.169 20.5408C117.981 21.1467 121.227 21.9267 125.774 23.4556C130.321 24.9844 132.549 25.9313 135.089 27.0398" stroke="black" stroke-width="1.18675" stroke-linecap="round"/>
<circle cx="113.513" cy="20.3961" r="1.61059" transform="rotate(15.7532 113.513 20.3961)" stroke="black" stroke-width="1.18675"/>
<circle cx="136.87" cy="27.8809" r="1.61059" transform="rotate(15.7532 136.87 27.8809)" stroke="black" stroke-width="1.18675"/>
<path d="M112.438 15.6032C116.55 16.3367 120.272 17.1195 127.368 19.4982C134.465 21.8768 137.841 23.3343 141.03 24.7537" stroke="black" stroke-width="1.18675" stroke-linecap="round"/>
<circle cx="142.847" cy="25.4668" r="1.61059" transform="rotate(16.6093 142.847 25.4668)" stroke="black" stroke-width="1.18675"/>
<circle cx="110.648" cy="15.18" r="1.61059" transform="rotate(16.6093 110.648 15.18)" stroke="black" stroke-width="1.18675"/>
<path d="M107.91 33.1999C107.753 33.417 107.364 33.5976 106.655 33.5054C105.972 33.4166 105.132 33.0815 104.322 32.4938C103.512 31.906 102.933 31.2115 102.636 30.5896C102.329 29.9443 102.38 29.5192 102.537 29.3022C102.695 29.0851 103.083 28.9045 103.792 28.9967C104.475 29.0855 105.315 29.4206 106.125 30.0083C106.935 30.596 107.515 31.2905 107.811 31.9125C108.119 32.5578 108.067 32.9829 107.91 33.1999Z" stroke="black" stroke-width="1.18675"/>
<path d="M127.03 39.0102C127.018 39.2781 127.209 39.6613 127.821 40.0312C128.41 40.3876 129.276 40.6492 130.276 40.6947C131.276 40.7401 132.162 40.5582 132.781 40.2567C133.424 39.9439 133.649 39.5795 133.661 39.3117C133.673 39.0438 133.482 38.6606 132.871 38.2907C132.281 37.9343 131.415 37.6727 130.415 37.6272C129.416 37.5818 128.53 37.7637 127.91 38.0652C127.267 38.3781 127.042 38.7424 127.03 39.0102Z" stroke="black" stroke-width="1.18675"/>
<path d="M108.183 43.8086C108.183 43.4809 107.917 43.2152 107.589 43.2152C107.262 43.2152 106.996 43.4809 106.996 43.8086L108.183 43.8086ZM112.93 45.0801L113.523 45.0695C113.519 44.8322 113.373 44.6204 113.154 44.5307C112.934 44.4411 112.682 44.491 112.513 44.6575L112.93 45.0801ZM118.161 47.9568C118.438 47.7832 118.523 47.4171 118.349 47.1392C118.176 46.8613 117.81 46.7767 117.532 46.9503L118.161 47.9568ZM109.784 45.6451L109.658 46.2249L109.784 45.6451ZM114.908 47.3283L114.668 47.871L114.908 47.3283ZM106.996 43.8086C106.996 44.4355 107.375 44.9776 107.837 45.3655C108.311 45.7643 108.951 46.0712 109.658 46.2249L109.91 45.0652C109.369 44.9475 108.91 44.7177 108.6 44.4568C108.276 44.185 108.183 43.9445 108.183 43.8086L106.996 43.8086ZM109.658 46.2249C110.3 46.3644 111.003 46.382 111.642 46.2758C112.27 46.1716 112.907 45.9357 113.346 45.5028L112.513 44.6575C112.316 44.8515 111.95 45.0217 111.448 45.1051C110.958 45.1865 110.407 45.1731 109.91 45.0652L109.658 46.2249ZM112.336 45.0908C112.358 46.3261 113.424 47.3212 114.668 47.871L115.148 46.7855C114.052 46.3013 113.532 45.6036 113.523 45.0695L112.336 45.0908ZM114.668 47.871C115.313 48.1562 116.028 48.2625 116.631 48.2658C116.935 48.2674 117.224 48.2431 117.474 48.1966C117.711 48.1527 117.963 48.0803 118.161 47.9568L117.532 46.9503C117.533 46.9496 117.528 46.9528 117.514 46.9588C117.501 46.9647 117.483 46.9721 117.458 46.9803C117.408 46.997 117.341 47.0143 117.258 47.0298C117.09 47.0608 116.878 47.0803 116.638 47.079C116.153 47.0764 115.608 46.989 115.148 46.7855L114.668 47.871Z" fill="black"/>
<path fill-rule="evenodd" clip-rule="evenodd" d="M139.947 76.2594C140.43 77.2813 141.65 77.7181 142.672 77.2349C142.81 77.1694 142.938 77.0905 143.054 77.0003C143.97 77.746 144.829 78.564 145.629 79.4166L146.371 78.8974C145.524 77.9873 144.607 77.1093 143.624 76.3079C143.898 75.7639 143.928 75.1034 143.648 74.5097C143.164 73.4878 141.944 73.0511 140.922 73.5342C139.9 74.0174 139.464 75.2375 139.947 76.2594ZM141.422 81.345C141.397 81.2173 141.358 81.0902 141.307 80.9652C140.875 79.9206 139.678 79.4241 138.633 79.856C137.588 80.288 137.092 81.485 137.524 82.5296C137.548 82.5892 137.576 82.6469 137.605 82.7029L138.466 82.3968C138.421 82.3322 138.383 82.2621 138.352 82.187C138.11 81.6 138.389 80.9273 138.976 80.6845C139.563 80.4418 140.235 80.7208 140.478 81.3079C140.525 81.4204 140.552 81.536 140.562 81.6512L141.422 81.345ZM140.67 75.9171C140.942 76.4913 141.744 76.7948 142.318 76.5233C142.893 76.2517 143.196 75.4496 142.924 74.8754C142.653 74.3011 141.851 73.9977 141.277 74.2692C140.702 74.5407 140.399 75.3428 140.67 75.9171ZM147.357 74.8481C147.789 75.8927 148.986 76.3892 150.031 75.9573C151.075 75.5253 151.572 74.3283 151.14 73.2837C150.708 72.2391 149.511 71.7425 148.466 72.1745C147.422 72.6065 146.925 73.8035 147.357 74.8481ZM148.185 74.5055C148.428 75.0925 149.101 75.3715 149.688 75.1288C150.275 74.886 150.554 74.2133 150.311 73.6263C150.068 73.0393 149.396 72.7602 148.809 73.003C148.222 73.2458 147.943 73.9184 148.185 74.5055Z" fill="black"/>
<path d="M142.672 77.2349L142.61 77.1046L142.672 77.2349ZM139.947 76.2594L139.817 76.321L139.817 76.321L139.947 76.2594ZM143.054 77.0003L143.145 76.8886L143.056 76.8162L142.966 76.8865L143.054 77.0003ZM145.629 79.4166L145.524 79.5152L145.61 79.6063L145.712 79.5347L145.629 79.4166ZM146.371 78.8974L146.454 79.0155L146.59 78.9205L146.477 78.7992L146.371 78.8974ZM143.624 76.3079L143.495 76.243L143.443 76.3465L143.533 76.4197L143.624 76.3079ZM143.648 74.5097L143.778 74.4481L143.648 74.5097ZM140.922 73.5342L140.861 73.4039L140.922 73.5342ZM141.307 80.9652L141.44 80.9101L141.307 80.9652ZM141.422 81.345L141.471 81.4808L141.588 81.439L141.564 81.3166L141.422 81.345ZM138.633 79.856L138.578 79.7229L138.578 79.7229L138.633 79.856ZM137.524 82.5296L137.657 82.4745L137.657 82.4745L137.524 82.5296ZM137.605 82.7029L137.477 82.77L137.536 82.8805L137.653 82.8386L137.605 82.7029ZM138.466 82.3968L138.514 82.5325L138.69 82.4699L138.585 82.3155L138.466 82.3968ZM138.352 82.187L138.485 82.1319L138.485 82.1319L138.352 82.187ZM138.976 80.6845L139.031 80.8177L138.976 80.6845ZM140.478 81.3079L140.345 81.3629L140.345 81.3629L140.478 81.3079ZM140.562 81.6512L140.418 81.6633L140.434 81.8496L140.61 81.787L140.562 81.6512ZM142.318 76.5233L142.257 76.393L142.318 76.5233ZM140.67 75.9171L140.54 75.9787L140.54 75.9787L140.67 75.9171ZM142.924 74.8754L143.055 74.8138L143.055 74.8138L142.924 74.8754ZM141.277 74.2692L141.338 74.3994L141.277 74.2692ZM150.031 75.9573L149.975 75.8241L150.031 75.9573ZM147.357 74.8481L147.49 74.793L147.357 74.8481ZM151.14 73.2837L151.007 73.3388L151.14 73.2837ZM148.466 72.1745L148.411 72.0414L148.466 72.1745ZM148.185 74.5055L148.052 74.5605L148.052 74.5605L148.185 74.5055ZM150.311 73.6263L150.178 73.6814L150.178 73.6814L150.311 73.6263ZM148.809 73.003L148.864 73.1362L148.809 73.003ZM142.61 77.1046C141.661 77.5538 140.526 77.1478 140.077 76.1978L139.817 76.321C140.334 77.4149 141.64 77.8824 142.734 77.3652L142.61 77.1046ZM142.966 76.8865C142.858 76.9702 142.739 77.0437 142.61 77.1046L142.734 77.3652C142.882 77.2952 143.018 77.2107 143.143 77.1141L142.966 76.8865ZM145.734 79.318C144.931 78.4614 144.067 77.6389 143.145 76.8886L142.963 77.112C143.873 77.8531 144.728 78.6665 145.524 79.5152L145.734 79.318ZM146.289 78.7793L145.547 79.2986L145.712 79.5347L146.454 79.0155L146.289 78.7793ZM143.533 76.4197C144.51 77.2162 145.422 78.0895 146.266 78.9956L146.477 78.7992C145.626 77.8851 144.704 77.0023 143.715 76.1962L143.533 76.4197ZM143.517 74.5713C143.778 75.1231 143.751 75.7369 143.495 76.243L143.753 76.3729C144.046 75.7908 144.078 75.0836 143.778 74.4481L143.517 74.5713ZM140.984 73.6645C141.934 73.2154 143.068 73.6214 143.517 74.5713L143.778 74.4481C143.261 73.3543 141.955 72.8868 140.861 73.4039L140.984 73.6645ZM140.077 76.1978C139.628 75.2478 140.034 74.1136 140.984 73.6645L140.861 73.4039C139.767 73.9211 139.299 75.2271 139.817 76.321L140.077 76.1978ZM141.173 81.0203C141.221 81.1366 141.257 81.2548 141.281 81.3735L141.564 81.3166C141.536 81.1798 141.495 81.0437 141.44 80.9101L141.173 81.0203ZM138.688 79.9892C139.659 79.5876 140.772 80.0493 141.173 81.0203L141.44 80.9101C140.977 79.792 139.696 79.2605 138.578 79.7229L138.688 79.9892ZM137.657 82.4745C137.255 81.5035 137.717 80.3908 138.688 79.9892L138.578 79.7229C137.46 80.1853 136.928 81.4666 137.391 82.5847L137.657 82.4745ZM137.732 82.6357C137.705 82.5837 137.68 82.53 137.657 82.4745L137.391 82.5847C137.417 82.6483 137.446 82.7101 137.477 82.77L137.732 82.6357ZM138.417 82.261L137.557 82.5671L137.653 82.8386L138.514 82.5325L138.417 82.261ZM138.585 82.3155C138.546 82.2591 138.513 82.1978 138.485 82.1319L138.219 82.242C138.254 82.3264 138.297 82.4052 138.346 82.478L138.585 82.3155ZM138.485 82.1319C138.273 81.6184 138.517 81.03 139.031 80.8177L138.921 80.5514C138.26 80.8245 137.946 81.5815 138.219 82.242L138.485 82.1319ZM139.031 80.8177C139.544 80.6054 140.133 80.8495 140.345 81.3629L140.611 81.2528C140.338 80.5922 139.581 80.2782 138.921 80.5514L139.031 80.8177ZM140.345 81.3629C140.386 81.4616 140.41 81.5627 140.418 81.6633L140.705 81.6391C140.694 81.5093 140.663 81.3792 140.611 81.2528L140.345 81.3629ZM141.374 81.2093L140.513 81.5154L140.61 81.787L141.471 81.4808L141.374 81.2093ZM142.257 76.393C142.012 76.5089 141.709 76.5053 141.431 76.4022C141.153 76.2991 140.917 76.1026 140.801 75.8555L140.54 75.9787C140.695 76.3058 140.996 76.5481 141.331 76.6724C141.665 76.7967 142.051 76.8091 142.38 76.6535L142.257 76.393ZM142.794 74.937C142.91 75.1821 142.907 75.485 142.803 75.7627C142.7 76.0404 142.504 76.2761 142.257 76.393L142.38 76.6535C142.707 76.4989 142.949 76.1978 143.074 75.863C143.198 75.5282 143.21 75.1429 143.055 74.8138L142.794 74.937ZM141.338 74.3994C141.583 74.2835 141.886 74.2871 142.164 74.3902C142.442 74.4933 142.677 74.6898 142.794 74.937L143.055 74.8138C142.9 74.4866 142.599 74.2443 142.264 74.12C141.929 73.9957 141.544 73.9833 141.215 74.1389L141.338 74.3994ZM140.801 75.8555C140.685 75.6103 140.688 75.3074 140.791 75.0297C140.894 74.752 141.091 74.5163 141.338 74.3994L141.215 74.1389C140.888 74.2936 140.645 74.5946 140.521 74.9294C140.397 75.2642 140.384 75.6496 140.54 75.9787L140.801 75.8555ZM149.975 75.8241C149.004 76.2257 147.892 75.764 147.49 74.793L147.224 74.9032C147.686 76.0213 148.967 76.5528 150.086 76.0904L149.975 75.8241ZM151.007 73.3388C151.408 74.3098 150.946 75.4225 149.975 75.8241L150.086 76.0904C151.204 75.628 151.735 74.3467 151.273 73.2286L151.007 73.3388ZM148.521 72.3077C149.492 71.9061 150.605 72.3677 151.007 73.3388L151.273 73.2286C150.81 72.1105 149.529 71.5789 148.411 72.0414L148.521 72.3077ZM147.49 74.793C147.089 73.822 147.55 72.7093 148.521 72.3077L148.411 72.0414C147.293 72.5038 146.761 73.785 147.224 74.9032L147.49 74.793ZM149.633 74.9956C149.119 75.2079 148.531 74.9638 148.319 74.4504L148.052 74.5605C148.325 75.2211 149.082 75.5351 149.743 75.2619L149.633 74.9956ZM150.178 73.6814C150.39 74.1949 150.146 74.7833 149.633 74.9956L149.743 75.2619C150.404 74.9888 150.718 74.2318 150.444 73.5713L150.178 73.6814ZM148.864 73.1362C149.377 72.9238 149.966 73.1679 150.178 73.6814L150.444 73.5713C150.171 72.9107 149.414 72.5967 148.754 72.8698L148.864 73.1362ZM148.319 74.4504C148.106 73.9369 148.35 73.3485 148.864 73.1362L148.754 72.8698C148.093 73.143 147.779 73.9 148.052 74.5605L148.319 74.4504Z" fill="black"/>
<path d="M100.384 5.62275C101.464 5.971 100.338 8.35055 99.5507 9.65223C99.4847 9.76122 99.363 9.82182 99.236 9.81227L94.8478 9.48232C94.551 9.46 94.427 9.10278 94.6539 8.91015C96.2509 7.55452 99.3947 5.30359 100.384 5.62275Z" fill="#FFDE28" stroke="black" stroke-width="1.18675"/>
<defs>
<linearGradient id="paint0_linear_209_546" x1="238.466" y1="-29.5305" x2="44.6351" y2="124.484" gradientUnits="userSpaceOnUse">
<stop stop-color="#FFDE28"/>
<stop offset="1" stop-color="#FFDE28" stop-opacity="0.1"/>
</linearGradient>
<linearGradient id="paint1_linear_209_546" x1="198.869" y1="84.8869" x2="29.5399" y2="92.9814" gradientUnits="userSpaceOnUse">
<stop stop-color="#FFEF9A"/>
<stop offset="1" stop-color="#423B17"/>
</linearGradient>
</defs>
</svg>
