<svg width="249" height="139" viewBox="0 0 249 139" fill="none" xmlns="http://www.w3.org/2000/svg">
<path d="M13.3385 90.9135C-9.22473 61.2883 23.8033 35.4061 46.0936 39.568L233.611 102.161C237.78 141.163 179.136 148.516 128.003 125.325C76.829 102.116 36.6653 121.541 13.3385 90.9135Z" fill="url(#paint0_linear_291_102)" stroke="url(#paint1_linear_291_102)" stroke-width="1.04758" stroke-linecap="round"/>
<path d="M124.782 116.353L168.417 91.871C168.874 91.6146 168.816 90.9393 168.321 90.7656L82.45 60.5804C82.3026 60.5286 82.141 60.5354 81.9985 60.5995L34.6237 81.8926C34.1272 82.1157 34.1507 82.8285 34.6608 83.0185L124.272 116.392C124.44 116.455 124.626 116.44 124.782 116.353Z" fill="#222222" stroke="black" stroke-width="1.42068" stroke-linecap="round"/>
<path d="M110.837 7.9346C101.014 13.455 77.1562 39.7169 73.1648 48.3763L214.827 95.766C214.831 67.1137 207.043 48.4615 207.138 45.887C207.22 43.6951 204.54 40.0918 204.016 37.7347C201.135 31.1874 198.92 26.2137 196.159 24.4277C192.709 22.1952 192.4 20.2671 187.631 24.4277C183.815 27.7562 184.316 32.0723 182.963 32.2414C176.306 27.127 147.447 15.9975 126.846 13.6711C128.344 6.62155 129.2 0.596017 122.043 2.6408C120.21 3.16459 122.381 0.18775 110.837 7.9346Z" fill="#F8F8F8"/>
<path d="M214.624 91.4025L215.112 95.4718L224.771 98.6073L228.627 92.0113L229.947 73.9484L232.991 67.6567L246.183 62.6844L245.27 54.9721L236.238 53.3485L225.685 57.1032L219.799 67.4539L217.871 86.6331L214.624 91.4025Z" fill="#F8F8F8"/>
<path d="M223.351 94.5483L220.104 97.694L223.757 98.6073L225.877 96.1929L223.351 94.5483Z" fill="#FFDE28"/>
<rect width="4.5484" height="3.27221" transform="matrix(-0.975845 -0.218465 -0.218465 0.975845 223.591 70.843)" fill="#FFDE28"/>
<path d="M242.327 58.1183L243.793 64.0075L240.141 64.8273L239.803 59.1977L242.327 58.1183Z" fill="#FFDE28"/>
<circle cx="2.53693" cy="2.53693" r="1.82659" transform="matrix(-0.969958 -0.243273 -0.243273 0.969958 241.473 57.064)" stroke="black" stroke-width="1.42068"/>
<path d="M239.993 64.3082C239.917 63.4989 239.574 61.2963 239.01 60.7225" stroke="black" stroke-width="1.42068" stroke-linecap="round"/>
<path d="M240.564 58.5375L242.321 58.0429C242.434 58.011 242.55 58.081 242.575 58.1961C242.918 59.818 243.587 62.6205 243.646 63.395" stroke="black" stroke-width="1.42068" stroke-linecap="round"/>
<path d="M214.995 91.4028C216.984 89.3528 218.476 86.1382 218.422 81.0644C218.257 65.6014 223.103 55.2016 235.588 53.7572C242.484 52.9594 245.757 54.5996 246.334 58.44C246.985 62.776 243.673 65.0476 237.44 65.9025C228.843 67.0818 229.276 76.3513 229.431 83.3808C229.533 88.0471 228.283 93.9794 224.365 98.5766" stroke="black" stroke-width="2.02954" stroke-linecap="round"/>
<circle cx="2.53693" cy="2.53693" r="1.82659" transform="matrix(-0.983937 0.178516 0.178516 0.983937 231.899 59.656)" stroke="black" stroke-width="1.42068"/>
<circle cx="2.53693" cy="2.53693" r="1.82659" transform="matrix(-0.908377 0.418152 0.418152 0.908377 228.835 71.3765)" stroke="black" stroke-width="1.42068"/>
<circle cx="2.53693" cy="2.53693" r="1.82659" transform="matrix(0.653805 -0.756663 -0.756663 -0.653805 223.841 89.3247)" stroke="black" stroke-width="1.42068"/>
<path d="M228.158 61.2355C227.649 60.6014 226.027 59.3119 225.244 58.9393" stroke="black" stroke-width="1.42068" stroke-linecap="round"/>
<path d="M225.685 74.5573C223.655 74.0499 220.814 73.644 218.619 73.5975" stroke="black" stroke-width="1.42068" stroke-linecap="round"/>
<path d="M223.055 73.4491L223.768 71.2792C223.805 71.1674 223.74 71.0479 223.625 71.02C222.088 70.6455 220.101 70.3 219.331 70.2079" stroke="black" stroke-width="1.42068" stroke-linecap="round"/>
<path d="M225.739 96.3366C224.945 95.5321 224.228 94.866 223.432 94.5059C223.347 94.4672 223.247 94.4968 223.192 94.5729C222.946 94.9127 222.255 95.8509 221.604 96.5549C221.182 97.0113 220.992 97.2372 220.611 97.5926" stroke="black" stroke-width="1.42068" stroke-linecap="round"/>
<path d="M226.035 86.2686C226.394 86.3467 227.952 86.528 228.932 86.5317" stroke="black" stroke-width="1.42068" stroke-linecap="round"/>
<path fill-rule="evenodd" clip-rule="evenodd" d="M216.809 96.2313L217.907 97.136C218.761 96.1668 218.754 94.6891 217.853 93.7272C216.895 92.7046 215.289 92.6521 214.267 93.6099C214.166 93.7042 214.075 93.8046 213.993 93.9102L215.091 94.8149C215.133 94.7552 215.182 94.6988 215.238 94.6468C215.688 94.2254 216.394 94.2485 216.816 94.6984C217.222 95.1327 217.215 95.806 216.809 96.2313Z" fill="black"/>
<path d="M203.146 65.729L212.921 69.6064L213.782 74.6373L201.63 69.6345L203.146 65.729Z" fill="#FFDE28"/>
<circle cx="2.73988" cy="2.73988" r="2.02954" transform="matrix(-0.898998 -0.437953 -0.437953 0.898998 199.217 61.6729)" stroke="black" stroke-width="1.42068"/>
<circle cx="2.73988" cy="2.73988" r="2.02954" transform="matrix(-0.951235 0.308468 0.308468 0.951235 189.965 67.7788)" stroke="black" stroke-width="1.42068"/>
<circle cx="2.73988" cy="2.73988" r="2.02954" transform="matrix(-0.951235 0.308468 0.308468 0.951235 189.965 67.7788)" stroke="black" stroke-width="1.42068"/>
<circle cx="2.73988" cy="2.73988" r="2.02954" transform="matrix(-0.948435 0.316973 0.316973 0.948435 193.605 50.0671)" stroke="black" stroke-width="1.42068"/>
<path d="M190.131 71.9498C195.883 73.4851 206.898 77.7082 214.218 80.8488" stroke="black" stroke-width="1.42068" stroke-linecap="round"/>
<path d="M190.131 71.9498C195.883 73.4851 206.898 77.7082 214.218 80.8488" stroke="black" stroke-width="1.42068" stroke-linecap="round"/>
<path d="M193.955 54.3996C199.526 55.8331 204.777 57.4806 211.072 59.8432" stroke="black" stroke-width="1.42068" stroke-linecap="round"/>
<path d="M197.759 63.7839C199.74 64.3372 198.895 64.1053 202.65 65.323M202.65 65.323C202.246 67.0726 202.278 67.608 201.762 69.0658C201.704 69.2289 201.78 69.4097 201.939 69.4774C204.559 70.5907 209.737 72.5298 213.021 74.184M202.65 65.323C204.746 66.0672 209.766 67.9184 213.021 69.2213" stroke="black" stroke-width="1.42068" stroke-linecap="round"/>
<path d="M195.048 31.145C193.652 30.6159 192.852 33.968 192.586 35.9667C192.562 36.1459 192.662 36.3167 192.828 36.3888L197.129 38.2604C197.422 38.3883 197.742 38.1464 197.69 37.8301C197.297 35.4478 196.373 31.6471 195.048 31.145Z" fill="#FFDE28" stroke="black" stroke-width="1.42068"/>
<path d="M110.431 8.34054C115.278 4.85568 122.99 0.187761 126.237 2.72469C128.636 4.5989 127.962 9.11763 127.049 13.5826C133.219 14.2592 143.488 16.2408 153.027 19.4682C166.524 24.0347 178.962 29.0482 182.784 31.9847C184.282 29.4132 185.065 27.6788 187.022 25.1511C189.458 22.0053 191.183 20.6859 194.633 22.9184C197.393 24.7044 201.432 31.5442 203.157 35.4002C203.99 37.2632 206.538 43.8426 207.159 46.1153C207.858 48.6728 215.471 65.1417 214.952 95.4079" stroke="black" stroke-width="2.02954" stroke-linecap="round"/>
<path d="M44.2534 38.741L233.499 101.967" stroke="black" stroke-width="1.42068" stroke-linecap="round"/>
<path d="M132.585 82.199L111.541 74.6158C111.395 74.5629 111.233 74.5683 111.091 74.6309L99.3383 79.7803C98.8355 80.0006 98.8581 80.7214 99.3736 80.9098L121.226 88.8978C121.781 89.1008 122.397 89.0516 122.913 88.763L132.676 83.3032C133.131 83.0484 133.076 82.376 132.585 82.199Z" fill="#4D4D4D" stroke="black" stroke-width="1.42068"/>
<path d="M156.782 73.9961L186.921 80.8489L185.22 86.9852L178.827 93.0737L163.706 100.887L152.747 98.3505L149.195 91.3486L151.631 80.8965L154.144 78.5149L156.782 73.9961Z" fill="#F8F8F8"/>
<path d="M72.783 47.6121H105.256L104.724 59.3357L94.499 64.8632L80.0893 69.3281L70.0431 65.3705L69.8401 56.2376L70.3235 54.0589L72.783 47.6121Z" fill="#F8F8F8"/>
<path fill-rule="evenodd" clip-rule="evenodd" d="M85.8079 28.7074C86.1122 29.5153 86.7925 30.1671 87.6922 30.3979C89.158 30.7739 90.651 29.8905 91.027 28.4248C91.3874 27.02 90.5909 25.5901 89.2336 25.1426L87.9269 26.5024C88.1671 26.4158 88.4349 26.3979 88.7009 26.4661C89.4066 26.6472 89.8319 27.3661 89.6509 28.0718C89.4699 28.7775 88.751 29.2028 88.0453 29.0218C87.3395 28.8407 86.9142 28.1219 87.0953 27.4162C87.1012 27.3929 87.1078 27.37 87.1149 27.3473L85.8079 28.7074Z" fill="black"/>
<circle cx="89.1127" cy="36.9857" r="2.02954" transform="rotate(54.9655 89.1127 36.9857)" stroke="black" stroke-width="1.42068"/>
<circle cx="97.6719" cy="22.5094" r="2.02954" transform="rotate(55.6524 97.6719 22.5094)" stroke="black" stroke-width="1.42068"/>
<path d="M87.1407 36.4007C85.6171 35.7797 83.7119 35.0873 81.5931 34.3699" stroke="black" stroke-width="1.42068" stroke-linecap="round"/>
<path d="M95.3244 21.4376C94.8258 21.165 94.2891 20.8797 93.7195 20.5839" stroke="black" stroke-width="1.42068" stroke-linecap="round"/>
<path d="M110.126 8.54346C86.4821 23.8665 62.5253 55.5273 71.0576 65.878C77.2477 73.3873 97.5431 65.9795 104.748 58.9775" stroke="black" stroke-width="2.02954" stroke-linecap="round"/>
<path fill-rule="evenodd" clip-rule="evenodd" d="M76.4142 59.1905C75.177 59.2105 74.158 58.2238 74.138 56.9866C74.1353 56.819 74.1511 56.6554 74.1835 56.4978C72.8606 55.8919 71.4822 55.4001 70.1031 55.0011L70.3875 54.0618C71.7997 54.4709 73.219 54.977 74.5877 55.6036C74.9891 55.0708 75.6233 54.722 76.3419 54.7105C77.5791 54.6905 78.5981 55.6773 78.6181 56.9144C78.638 58.1515 77.6513 59.1706 76.4142 59.1905ZM72.1871 47.7796L72.3153 47.6956L71.843 49.2553C71.9791 50.434 73.0183 51.3106 74.2153 51.2319C75.4499 51.1508 76.385 50.0841 76.3038 48.8495C76.2227 47.6148 75.156 46.6797 73.9214 46.7609C73.1871 46.8092 72.5587 47.2061 72.1871 47.7796ZM76.4003 58.3146C75.7051 58.3258 75.0191 57.685 75.0079 56.9897C74.9967 56.2945 75.6375 55.6086 76.3327 55.5974C77.028 55.5861 77.7139 56.2269 77.7251 56.9222C77.7363 57.6174 77.0955 58.3034 76.4003 58.3146ZM71.4297 64.603C70.1951 64.6842 69.1284 63.7491 69.0473 62.5144C68.9661 61.2798 69.9012 60.2132 71.1358 60.132C72.3705 60.0509 73.4371 60.9859 73.5183 62.2206C73.5994 63.4552 72.6643 64.5219 71.4297 64.603ZM71.3653 63.6238C70.6715 63.6694 70.0721 63.1439 70.0265 62.4501C69.9809 61.7563 70.5064 61.1568 71.2002 61.1112C71.894 61.0656 72.4934 61.5911 72.539 62.2849C72.5846 62.9788 72.0592 63.5782 71.3653 63.6238ZM74.1509 50.2527C73.4571 50.2983 72.8577 49.7728 72.8121 49.079C72.7665 48.3852 73.2919 47.7857 73.9858 47.7401C74.6796 47.6945 75.279 48.22 75.3246 48.9138C75.3702 49.6076 74.8447 50.2071 74.1509 50.2527Z" fill="black"/>
<path d="M74.138 56.9866L73.9655 56.9894L73.9655 56.9894L74.138 56.9866ZM76.4142 59.1905L76.4169 59.363L76.4169 59.363L76.4142 59.1905ZM74.1835 56.4978L74.2553 56.341L74.38 56.3981L74.3524 56.5325L74.1835 56.4978ZM70.1031 55.0011L70.0552 55.1668L69.8874 55.1183L69.938 54.9511L70.1031 55.0011ZM70.3875 54.0618L70.2224 54.0118L70.2718 53.8487L70.4355 53.8961L70.3875 54.0618ZM74.5877 55.6036L74.7255 55.7074L74.642 55.8182L74.5159 55.7604L74.5877 55.6036ZM76.3419 54.7105L76.3447 54.883L76.3447 54.883L76.3419 54.7105ZM78.6181 56.9144L78.7906 56.9116L78.7906 56.9116L78.6181 56.9144ZM72.1871 47.7796L72.2816 47.9239L72.0423 47.6858L72.1871 47.7796ZM72.3153 47.6956L72.2207 47.5513L72.618 47.2911L72.4804 47.7456L72.3153 47.6956ZM71.843 49.2553L71.6716 49.2751L71.6675 49.2396L71.6779 49.2054L71.843 49.2553ZM74.2153 51.2319L74.2039 51.0598L74.2153 51.2319ZM76.3038 48.8495L76.476 48.8382L76.3038 48.8495ZM73.9214 46.7609L73.9101 46.5888L73.9101 46.5888L73.9214 46.7609ZM75.0079 56.9897L75.1804 56.987L75.0079 56.9897ZM76.4003 58.3146L76.4031 58.487L76.4031 58.487L76.4003 58.3146ZM77.7251 56.9222L77.5526 56.9249L77.5526 56.9249L77.7251 56.9222ZM69.0473 62.5144L68.8751 62.5258L68.8751 62.5258L69.0473 62.5144ZM71.4297 64.603L71.441 64.7752L71.4297 64.603ZM71.1358 60.132L71.1245 59.9599L71.1245 59.9599L71.1358 60.132ZM73.5183 62.2206L73.6904 62.2093L73.5183 62.2206ZM70.0265 62.4501L70.1986 62.4388L70.1986 62.4388L70.0265 62.4501ZM71.3653 63.6238L71.354 63.4516L71.354 63.4516L71.3653 63.6238ZM71.2002 61.1112L71.2115 61.2834L71.2002 61.1112ZM72.539 62.2849L72.3669 62.2963L72.3669 62.2963L72.539 62.2849ZM72.8121 49.079L72.9842 49.0677L72.8121 49.079ZM74.1509 50.2527L74.1396 50.0805L74.1396 50.0805L74.1509 50.2527ZM73.9858 47.7401L73.9971 47.9123L73.9858 47.7401ZM75.3246 48.9138L75.4967 48.9025L75.3246 48.9138ZM74.3105 56.9838C74.3289 58.1257 75.2695 59.0365 76.4114 59.0181L76.4169 59.363C75.0845 59.3845 73.987 58.3218 73.9655 56.9894L74.3105 56.9838ZM74.3524 56.5325C74.3226 56.6779 74.308 56.8289 74.3105 56.9838L73.9655 56.9894C73.9626 56.8091 73.9796 56.633 74.0145 56.4631L74.3524 56.5325ZM70.1511 54.8354C71.5368 55.2364 72.9235 55.7309 74.2553 56.341L74.1116 56.6546C72.7978 56.0529 71.4275 55.5639 70.0552 55.1668L70.1511 54.8354ZM70.5526 54.1118L70.2682 55.0511L69.938 54.9511L70.2224 54.0118L70.5526 54.1118ZM74.5159 55.7604C73.1562 55.1379 71.745 54.6347 70.3395 54.2275L70.4355 53.8961C71.8544 54.3072 73.2819 54.816 74.6595 55.4467L74.5159 55.7604ZM76.3447 54.883C75.6815 54.8936 75.0963 55.2152 74.7255 55.7074L74.4499 55.4998C74.882 54.9263 75.5651 54.5505 76.3392 54.538L76.3447 54.883ZM78.4456 56.9172C78.4272 55.7753 77.4866 54.8645 76.3447 54.883L76.3392 54.538C77.6716 54.5165 78.7691 55.5792 78.7906 56.9116L78.4456 56.9172ZM76.4114 59.0181C77.5533 58.9996 78.464 58.059 78.4456 56.9172L78.7906 56.9116C78.8121 58.244 77.7493 59.3415 76.4169 59.363L76.4114 59.0181ZM72.0926 47.6353L72.2207 47.5513L72.4098 47.8399L72.2816 47.9239L72.0926 47.6353ZM72.4804 47.7456L72.0081 49.3053L71.6779 49.2054L72.1502 47.6456L72.4804 47.7456ZM72.0143 49.2356C72.14 50.3233 73.0992 51.1324 74.2039 51.0598L74.2266 51.404C72.9373 51.4888 71.8183 50.5447 71.6716 49.2751L72.0143 49.2356ZM74.2039 51.0598C75.3435 50.9849 76.2066 50.0003 76.1317 48.8608L76.476 48.8382C76.5634 50.1679 75.5563 51.3166 74.2266 51.404L74.2039 51.0598ZM76.1317 48.8608C76.0568 47.7212 75.0723 46.8581 73.9327 46.933L73.9101 46.5888C75.2398 46.5014 76.3886 47.5084 76.476 48.8382L76.1317 48.8608ZM73.9327 46.933C73.255 46.9776 72.6751 47.3436 72.3319 47.8734L72.0423 47.6858C72.4423 47.0685 73.1191 46.6407 73.9101 46.5888L73.9327 46.933ZM75.1804 56.987C75.1851 57.279 75.3328 57.5711 75.5661 57.7917C75.7995 58.0124 76.1029 58.1468 76.3975 58.1421L76.4031 58.487C76.0025 58.4935 75.6153 58.3131 75.3291 58.0424C75.0428 57.7716 74.8419 57.3957 74.8354 56.9925L75.1804 56.987ZM76.3355 55.7698C76.0435 55.7746 75.7514 55.9223 75.5307 56.1556C75.3101 56.3889 75.1757 56.6923 75.1804 56.987L74.8354 56.9925C74.829 56.5919 75.0093 56.2048 75.2801 55.9185C75.5508 55.6322 75.9268 55.4314 76.33 55.4249L76.3355 55.7698ZM77.5526 56.9249C77.5479 56.6329 77.4002 56.3408 77.1669 56.1202C76.9336 55.8995 76.6302 55.7651 76.3355 55.7698L76.33 55.4249C76.7305 55.4184 77.1177 55.5988 77.404 55.8695C77.6903 56.1403 77.8911 56.5162 77.8976 56.9194L77.5526 56.9249ZM76.3975 58.1421C76.6896 58.1374 76.9816 57.9896 77.2023 57.7563C77.4229 57.523 77.5574 57.2196 77.5526 56.9249L77.8976 56.9194C77.9041 57.32 77.7237 57.7071 77.453 57.9934C77.1822 58.2797 76.8063 58.4805 76.4031 58.487L76.3975 58.1421ZM69.2194 62.5031C69.2943 63.6427 70.2788 64.5058 71.4184 64.4309L71.441 64.7752C70.1113 64.8626 68.9625 63.8555 68.8751 62.5258L69.2194 62.5031ZM71.1472 60.3041C70.0076 60.379 69.1445 61.3636 69.2194 62.5031L68.8751 62.5258C68.7877 61.1961 69.7948 60.0473 71.1245 59.9599L71.1472 60.3041ZM73.3461 62.2319C73.2712 61.0923 72.2867 60.2292 71.1472 60.3041L71.1245 59.9599C72.4542 59.8725 73.603 60.8796 73.6904 62.2093L73.3461 62.2319ZM71.4184 64.4309C72.558 64.356 73.421 63.3715 73.3461 62.2319L73.6904 62.2093C73.7778 63.539 72.7707 64.6878 71.441 64.7752L71.4184 64.4309ZM70.1986 62.4388C70.238 63.0375 70.7553 63.491 71.354 63.4516L71.3767 63.7959C70.5878 63.8478 69.9062 63.2503 69.8544 62.4614L70.1986 62.4388ZM71.2115 61.2834C70.6128 61.3227 70.1593 61.84 70.1986 62.4388L69.8544 62.4614C69.8025 61.6725 70.4 60.991 71.1889 60.9391L71.2115 61.2834ZM72.3669 62.2963C72.3275 61.6975 71.8103 61.244 71.2115 61.2834L71.1889 60.9391C71.9778 60.8873 72.6593 61.4847 72.7112 62.2736L72.3669 62.2963ZM71.354 63.4516C71.9528 63.4123 72.4063 62.895 72.3669 62.2963L72.7112 62.2736C72.763 63.0625 72.1655 63.7441 71.3767 63.7959L71.354 63.4516ZM72.9842 49.0677C73.0236 49.6664 73.5408 50.1199 74.1396 50.0805L74.1622 50.4248C73.3733 50.4767 72.6918 49.8792 72.6399 49.0903L72.9842 49.0677ZM73.9971 47.9123C73.3983 47.9516 72.9448 48.4689 72.9842 49.0677L72.6399 49.0903C72.5881 48.3014 73.1856 47.6198 73.9744 47.568L73.9971 47.9123ZM75.1525 48.9251C75.1131 48.3264 74.5958 47.8729 73.9971 47.9123L73.9744 47.568C74.7633 47.5161 75.4449 48.1136 75.4967 48.9025L75.1525 48.9251ZM74.1396 50.0805C74.7383 50.0412 75.1918 49.5239 75.1525 48.9251L75.4967 48.9025C75.5486 49.6914 74.9511 50.373 74.1622 50.4248L74.1396 50.0805Z" fill="black"/>
<path d="M185.422 86.072C181.002 92.8631 163.199 106.194 152.442 97.8433C147.953 94.358 148.495 85.0922 155.64 76.1272C156.409 75.1627 157.238 74.2123 158.125 73.2859" stroke="black" stroke-width="2.02954" stroke-linecap="round"/>
<ellipse cx="110.168" cy="43.4824" rx="3.43804" ry="6.26215" transform="rotate(-69.5962 110.168 43.4824)" fill="#FFDE28"/>
<ellipse cx="162.201" cy="60.8843" rx="3.43804" ry="6.26215" transform="rotate(-75.6503 162.201 60.8843)" fill="#FFDE28"/>
<ellipse cx="118.254" cy="43.7325" rx="3.43804" ry="6.26215" transform="rotate(-69.7616 118.254 43.7325)" fill="black"/>
<ellipse cx="156.22" cy="56.3545" rx="3.43804" ry="6.26215" transform="rotate(109.388 156.22 56.3545)" fill="black"/>
<path d="M104.888 66.4475L123.77 115.164C123.958 115.65 123.489 116.132 122.998 115.958L34.2112 84.4381C34.0477 84.38 33.9167 84.2549 33.8512 84.0942L14.4672 36.569C14.2701 36.0858 14.7326 35.5947 15.2268 35.7626L104.516 66.091C104.687 66.1489 104.823 66.2795 104.888 66.4475Z" fill="#222222" stroke="black" stroke-width="1.42068" stroke-linecap="round"/>
<path d="M65.7877 81.7516C59.3673 80.1645 57.8246 72.3022 59.6546 69.0108C59.7193 68.8945 59.8772 68.8825 59.9668 68.981L63.8045 73.1995C63.8759 73.278 63.9957 73.2883 64.0793 73.2231L67.6415 70.4481C67.7307 70.3786 67.8586 70.394 67.9252 70.4854C71.0766 74.8095 72.3178 83.3657 65.7877 81.7516Z" stroke="#FFDE28" stroke-width="1.01477"/>
<mask id="path-51-outside-1_291_102" maskUnits="userSpaceOnUse" x="60.8555" y="75.0354" width="8.3674" height="4.79782" fill="black">
<rect fill="white" x="60.8555" y="75.0354" width="8.3674" height="4.79782"/>
<path d="M63.2981 75.6005C63.3789 75.6155 63.4462 75.6257 63.5001 75.6313L63.6638 75.6481C63.719 75.6538 63.7773 75.6545 63.8389 75.6502L63.6711 77.2807C63.6378 77.604 63.5132 77.8535 63.2972 78.0292C63.0928 78.1955 62.8506 78.2642 62.5707 78.2354C62.2644 78.2039 62.0249 78.0989 61.852 77.9204C61.6587 77.7198 61.5794 77.4513 61.6141 77.1149L61.7859 75.4449C61.8943 75.4627 61.9965 75.4766 62.0924 75.4864C62.1897 75.4965 62.2704 75.4994 62.3346 75.4954L62.1595 77.1969C62.1425 77.3625 62.1798 77.4965 62.2716 77.5989C62.3575 77.6928 62.4715 77.747 62.6135 77.7616C62.8238 77.7833 62.9748 77.6899 63.0667 77.4815C63.0996 77.4065 63.122 77.3119 63.1337 77.1975L63.2981 75.6005ZM65.5587 75.7933C65.8045 75.8186 66.0097 75.8829 66.1744 75.9862L66.1124 76.5895L66.108 76.593C66.046 76.4724 65.8987 76.3815 65.6659 76.3204C65.5974 76.3014 65.51 76.2864 65.4035 76.2754C65.297 76.2645 65.1904 76.2741 65.0837 76.3043C64.9771 76.3332 64.8872 76.381 64.8139 76.4479C64.6717 76.578 64.5869 76.7759 64.5596 77.0414C64.5278 77.3502 64.585 77.5886 64.7311 77.7564C64.8522 77.8963 65.0231 77.9777 65.2439 78.0004C65.4937 78.0261 65.7016 77.9937 65.8676 77.9032C65.928 77.8709 65.9809 77.8285 66.0261 77.776L66.0316 77.7806L65.9748 78.3326C65.7566 78.4789 65.4772 78.5345 65.1368 78.4994C64.7359 78.4582 64.4349 78.2984 64.2337 78.02C64.0406 77.7544 63.9646 77.4211 64.0059 77.0203C64.0495 76.5957 64.2036 76.2735 64.4679 76.0536C64.7351 75.8327 65.0987 75.746 65.5587 75.7933ZM66.9636 78.6874C66.7506 78.6655 66.552 78.6278 66.3675 78.5743L66.6389 75.9363C66.8146 75.9331 67.0168 75.9433 67.2455 75.9669C67.4755 75.9905 67.6799 76.0434 67.8588 76.1256C68.0391 76.2066 68.1857 76.3113 68.2986 76.4398C68.5272 76.6971 68.62 77.0341 68.5772 77.4508C68.5292 77.9174 68.3521 78.2571 68.0459 78.47C67.7712 78.6609 67.4105 78.7334 66.9636 78.6874ZM66.9243 78.1972C67.0082 78.2218 67.0928 78.2385 67.1782 78.2473C67.2636 78.256 67.3573 78.2491 67.4593 78.2264C67.5614 78.2023 67.6522 78.1585 67.7318 78.095C67.9024 77.9611 68.0023 77.7509 68.0318 77.4644C68.0802 76.9938 67.9385 76.687 67.6065 76.544C67.4971 76.4968 67.3682 76.4656 67.2196 76.4504L67.1664 76.4449C67.1467 76.4428 67.1263 76.4414 67.1051 76.4406L66.9243 78.1972Z"/>
</mask>
<path d="M63.2981 75.6005C63.3789 75.6155 63.4462 75.6257 63.5001 75.6313L63.6638 75.6481C63.719 75.6538 63.7773 75.6545 63.8389 75.6502L63.6711 77.2807C63.6378 77.604 63.5132 77.8535 63.2972 78.0292C63.0928 78.1955 62.8506 78.2642 62.5707 78.2354C62.2644 78.2039 62.0249 78.0989 61.852 77.9204C61.6587 77.7198 61.5794 77.4513 61.6141 77.1149L61.7859 75.4449C61.8943 75.4627 61.9965 75.4766 62.0924 75.4864C62.1897 75.4965 62.2704 75.4994 62.3346 75.4954L62.1595 77.1969C62.1425 77.3625 62.1798 77.4965 62.2716 77.5989C62.3575 77.6928 62.4715 77.747 62.6135 77.7616C62.8238 77.7833 62.9748 77.6899 63.0667 77.4815C63.0996 77.4065 63.122 77.3119 63.1337 77.1975L63.2981 75.6005ZM65.5587 75.7933C65.8045 75.8186 66.0097 75.8829 66.1744 75.9862L66.1124 76.5895L66.108 76.593C66.046 76.4724 65.8987 76.3815 65.6659 76.3204C65.5974 76.3014 65.51 76.2864 65.4035 76.2754C65.297 76.2645 65.1904 76.2741 65.0837 76.3043C64.9771 76.3332 64.8872 76.381 64.8139 76.4479C64.6717 76.578 64.5869 76.7759 64.5596 77.0414C64.5278 77.3502 64.585 77.5886 64.7311 77.7564C64.8522 77.8963 65.0231 77.9777 65.2439 78.0004C65.4937 78.0261 65.7016 77.9937 65.8676 77.9032C65.928 77.8709 65.9809 77.8285 66.0261 77.776L66.0316 77.7806L65.9748 78.3326C65.7566 78.4789 65.4772 78.5345 65.1368 78.4994C64.7359 78.4582 64.4349 78.2984 64.2337 78.02C64.0406 77.7544 63.9646 77.4211 64.0059 77.0203C64.0495 76.5957 64.2036 76.2735 64.4679 76.0536C64.7351 75.8327 65.0987 75.746 65.5587 75.7933ZM66.9636 78.6874C66.7506 78.6655 66.552 78.6278 66.3675 78.5743L66.6389 75.9363C66.8146 75.9331 67.0168 75.9433 67.2455 75.9669C67.4755 75.9905 67.6799 76.0434 67.8588 76.1256C68.0391 76.2066 68.1857 76.3113 68.2986 76.4398C68.5272 76.6971 68.62 77.0341 68.5772 77.4508C68.5292 77.9174 68.3521 78.2571 68.0459 78.47C67.7712 78.6609 67.4105 78.7334 66.9636 78.6874ZM66.9243 78.1972C67.0082 78.2218 67.0928 78.2385 67.1782 78.2473C67.2636 78.256 67.3573 78.2491 67.4593 78.2264C67.5614 78.2023 67.6522 78.1585 67.7318 78.095C67.9024 77.9611 68.0023 77.7509 68.0318 77.4644C68.0802 76.9938 67.9385 76.687 67.6065 76.544C67.4971 76.4968 67.3682 76.4656 67.2196 76.4504L67.1664 76.4449C67.1467 76.4428 67.1263 76.4414 67.1051 76.4406L66.9243 78.1972Z" fill="#FFDE28"/>
<path d="M63.2981 75.6005L63.3055 75.5606L63.2622 75.5526L63.2577 75.5964L63.2981 75.6005ZM63.8389 75.6502L63.8793 75.6544L63.8842 75.6064L63.8361 75.6097L63.8389 75.6502ZM63.2972 78.0292L63.3228 78.0607L63.2972 78.0292ZM61.852 77.9204L61.8227 77.9485L61.8228 77.9486L61.852 77.9204ZM61.7859 75.4449L61.7925 75.4049L61.7499 75.3979L61.7455 75.4408L61.7859 75.4449ZM62.3346 75.4954L62.375 75.4996L62.3799 75.4519L62.332 75.4549L62.3346 75.4954ZM62.2716 77.5989L62.2413 77.626L62.2416 77.6263L62.2716 77.5989ZM63.0667 77.4815L63.1038 77.4979L63.1038 77.4978L63.0667 77.4815ZM63.2907 75.6404C63.3721 75.6555 63.4406 75.666 63.496 75.6717L63.5043 75.5909C63.4519 75.5855 63.3857 75.5755 63.3055 75.5606L63.2907 75.6404ZM63.496 75.6717L63.6596 75.6885L63.6679 75.6077L63.5043 75.5909L63.496 75.6717ZM63.6596 75.6885C63.7174 75.6944 63.7781 75.6951 63.8417 75.6907L63.8361 75.6097C63.7766 75.6139 63.7206 75.6132 63.6679 75.6077L63.6596 75.6885ZM63.7985 75.6461L63.6307 77.2765L63.7115 77.2848L63.8793 75.6544L63.7985 75.6461ZM63.6307 77.2765C63.5984 77.5911 63.4779 77.83 63.2716 77.9977L63.3228 78.0607C63.5486 77.8771 63.6773 77.617 63.7115 77.2848L63.6307 77.2765ZM63.2716 77.9977C63.0762 78.1567 62.8449 78.2228 62.5748 78.195L62.5665 78.2758C62.8564 78.3056 63.1095 78.2343 63.3228 78.0607L63.2716 77.9977ZM62.5748 78.195C62.2757 78.1643 62.0459 78.0623 61.8811 77.8921L61.8228 77.9486C62.0038 78.1355 62.2531 78.2435 62.5665 78.2758L62.5748 78.195ZM61.8812 77.8922C61.698 77.7021 61.6207 77.4464 61.6544 77.119L61.5737 77.1107C61.5381 77.4563 61.6194 77.7376 61.8227 77.9485L61.8812 77.8922ZM61.6544 77.119L61.8263 75.4491L61.7455 75.4408L61.5737 77.1107L61.6544 77.119ZM61.7793 75.485C61.8884 75.5029 61.9914 75.5169 62.0883 75.5268L62.0966 75.4461C62.0015 75.4363 61.9002 75.4226 61.7925 75.4049L61.7793 75.485ZM62.0883 75.5268C62.1867 75.537 62.2699 75.5401 62.3371 75.5359L62.332 75.4549C62.2709 75.4587 62.1926 75.456 62.0966 75.4461L62.0883 75.5268ZM62.2942 75.4913L62.1191 77.1927L62.1999 77.201L62.375 75.4996L62.2942 75.4913ZM62.1191 77.1927C62.1012 77.3671 62.1404 77.5133 62.2413 77.626L62.3018 77.5718C62.2193 77.4797 62.1837 77.3579 62.1999 77.201L62.1191 77.1927ZM62.2416 77.6263C62.3351 77.7284 62.4587 77.7865 62.6093 77.802L62.6176 77.7212C62.4843 77.7075 62.3799 77.6571 62.3015 77.5715L62.2416 77.6263ZM62.6093 77.802C62.7216 77.8136 62.8213 77.7946 62.9058 77.7423C62.9901 77.6903 63.0555 77.6075 63.1038 77.4979L63.0295 77.4651C62.986 77.5639 62.93 77.632 62.8631 77.6733C62.7966 77.7144 62.7156 77.7313 62.6176 77.7212L62.6093 77.802ZM63.1038 77.4978C63.139 77.4178 63.1621 77.3187 63.1741 77.2017L63.0934 77.1933C63.0819 77.3051 63.0602 77.3953 63.0295 77.4652L63.1038 77.4978ZM63.1741 77.2017L63.3384 75.6047L63.2577 75.5964L63.0934 77.1933L63.1741 77.2017ZM66.1744 75.9862L66.2148 75.9903L66.2174 75.9652L66.196 75.9518L66.1744 75.9862ZM66.1124 76.5895L66.138 76.6209L66.151 76.6103L66.1527 76.5936L66.1124 76.5895ZM66.108 76.593L66.0719 76.6115L66.0948 76.6561L66.1336 76.6245L66.108 76.593ZM65.6659 76.3204L65.655 76.3595L65.6555 76.3596L65.6659 76.3204ZM65.0837 76.3043L65.0943 76.3435L65.0948 76.3434L65.0837 76.3043ZM64.8139 76.4479L64.7866 76.4179L64.7865 76.4179L64.8139 76.4479ZM64.7311 77.7564L64.7618 77.7298L64.7617 77.7297L64.7311 77.7564ZM65.8676 77.9032L65.8485 77.8674L65.8482 77.8676L65.8676 77.9032ZM66.0261 77.776L66.052 77.7448L66.0214 77.7194L65.9954 77.7495L66.0261 77.776ZM66.0316 77.7806L66.072 77.7848L66.0742 77.7631L66.0575 77.7493L66.0316 77.7806ZM65.9748 78.3326L65.9974 78.3664L66.0133 78.3558L66.0152 78.3368L65.9748 78.3326ZM64.2337 78.02L64.2666 77.9962L64.2666 77.9961L64.2337 78.02ZM64.4679 76.0536L64.4421 76.0224L64.442 76.0224L64.4679 76.0536ZM65.5545 75.8337C65.7958 75.8585 65.9947 75.9213 66.1529 76.0205L66.196 75.9518C66.0248 75.8444 65.8132 75.7787 65.5629 75.7529L65.5545 75.8337ZM66.1341 75.982L66.072 76.5853L66.1527 76.5936L66.2148 75.9903L66.1341 75.982ZM66.0868 76.558L66.0824 76.5615L66.1336 76.6245L66.138 76.6209L66.0868 76.558ZM66.1441 76.5744C66.074 76.438 65.912 76.3431 65.6762 76.2811L65.6555 76.3596C65.8853 76.42 66.0181 76.5068 66.0719 76.6115L66.1441 76.5744ZM65.6767 76.2812C65.6053 76.2614 65.5154 76.2461 65.4076 76.2351L65.3993 76.3158C65.5045 76.3266 65.5895 76.3413 65.655 76.3595L65.6767 76.2812ZM65.4076 76.2351C65.2959 76.2236 65.1841 76.2337 65.0727 76.2652L65.0948 76.3434C65.1967 76.3145 65.2982 76.3054 65.3993 76.3158L65.4076 76.2351ZM65.0731 76.2651C64.961 76.2955 64.8651 76.3462 64.7866 76.4179L64.8413 76.4779C64.9093 76.4159 64.9933 76.3709 65.0943 76.3435L65.0731 76.2651ZM64.7865 76.4179C64.6345 76.557 64.5472 76.7656 64.5192 77.0372L64.6 77.0455C64.6267 76.7861 64.7088 76.5991 64.8413 76.4778L64.7865 76.4179ZM64.5192 77.0372C64.4867 77.3527 64.5444 77.6038 64.7005 77.783L64.7617 77.7297C64.6255 77.5733 64.5689 77.3478 64.6 77.0455L64.5192 77.0372ZM64.7004 77.7829C64.8295 77.9322 65.0109 78.0172 65.2398 78.0408L65.2481 77.96C65.0354 77.9381 64.8748 77.8605 64.7618 77.7298L64.7004 77.7829ZM65.2398 78.0408C65.495 78.067 65.7118 78.0344 65.887 77.9388L65.8482 77.8676C65.6913 77.953 65.4923 77.9852 65.2481 77.96L65.2398 78.0408ZM65.8867 77.939C65.9516 77.9043 66.0084 77.8588 66.0569 77.8026L65.9954 77.7495C65.9534 77.7983 65.9045 77.8375 65.8485 77.8674L65.8867 77.939ZM66.0003 77.8073L66.0058 77.8119L66.0575 77.7493L66.052 77.7448L66.0003 77.8073ZM65.9913 77.7764L65.9345 78.3285L66.0152 78.3368L66.072 77.7848L65.9913 77.7764ZM65.9523 78.2989C65.744 78.4385 65.4748 78.4934 65.1409 78.4591L65.1326 78.5398C65.4796 78.5755 65.7692 78.5193 65.9974 78.3664L65.9523 78.2989ZM65.1409 78.4591C64.7494 78.4188 64.4598 78.2636 64.2666 77.9962L64.2008 78.0438C64.41 78.3332 64.7224 78.4976 65.1326 78.5398L65.1409 78.4591ZM64.2666 77.9961C64.0806 77.7403 64.0058 77.4177 64.0462 77.0244L63.9655 77.0161C63.9235 77.4246 64.0006 77.7684 64.2009 78.0439L64.2666 77.9961ZM64.0462 77.0244C64.0891 76.6077 64.2396 76.2964 64.4939 76.0849L64.442 76.0224C64.1676 76.2506 64.01 76.5837 63.9655 77.0161L64.0462 77.0244ZM64.4938 76.0849C64.7501 75.873 65.1016 75.7871 65.5545 75.8337L65.5629 75.7529C65.0957 75.7049 64.7201 75.7925 64.4421 76.0224L64.4938 76.0849ZM66.3675 78.5743L66.3271 78.5701L66.3237 78.6038L66.3562 78.6133L66.3675 78.5743ZM66.6389 75.9363L66.6382 75.8957L66.6022 75.8964L66.5986 75.9322L66.6389 75.9363ZM67.8588 76.1256L67.8418 76.1625L67.8421 76.1626L67.8588 76.1256ZM68.2986 76.4398L68.2682 76.4666L68.2683 76.4668L68.2986 76.4398ZM68.0459 78.47L68.0691 78.5034L68.0691 78.5034L68.0459 78.47ZM66.9243 78.1972L66.884 78.1931L66.8805 78.2267L66.9129 78.2362L66.9243 78.1972ZM67.4593 78.2264L67.4681 78.266L67.4686 78.2659L67.4593 78.2264ZM67.7318 78.095L67.7068 78.0631L67.7065 78.0633L67.7318 78.095ZM67.6065 76.544L67.6226 76.5067L67.6226 76.5067L67.6065 76.544ZM67.1051 76.4406L67.1067 76.4L67.0686 76.3985L67.0647 76.4364L67.1051 76.4406ZM66.9677 78.647C66.7569 78.6253 66.5607 78.5881 66.3788 78.5353L66.3562 78.6133C66.5432 78.6675 66.7443 78.7057 66.9594 78.7278L66.9677 78.647ZM66.4079 78.5784L66.6793 75.9405L66.5986 75.9322L66.3271 78.5701L66.4079 78.5784ZM66.6397 75.9769C66.8133 75.9738 67.0138 75.9838 67.2413 76.0072L67.2496 75.9265C67.0198 75.9028 66.8159 75.8925 66.6382 75.8957L66.6397 75.9769ZM67.2413 76.0072C67.4677 76.0305 67.6677 76.0825 67.8418 76.1625L67.8757 76.0887C67.6922 76.0044 67.4833 75.9505 67.2496 75.9265L67.2413 76.0072ZM67.8421 76.1626C68.0179 76.2416 68.1596 76.3431 68.2682 76.4666L68.3291 76.413C68.2118 76.2795 68.0602 76.1716 67.8754 76.0886L67.8421 76.1626ZM68.2683 76.4668C68.4877 76.7138 68.5788 77.0386 68.5368 77.4466L68.6175 77.4549C68.6613 77.0296 68.5667 76.6805 68.329 76.4129L68.2683 76.4668ZM68.5368 77.4466C68.4897 77.9047 68.3168 78.2322 68.0227 78.4367L68.0691 78.5034C68.3874 78.282 68.5687 77.93 68.6175 77.4549L68.5368 77.4466ZM68.0227 78.4367C67.7584 78.6204 67.4083 78.6924 66.9677 78.647L66.9594 78.7278C67.4126 78.7744 67.7841 78.7015 68.0691 78.5034L68.0227 78.4367ZM66.9129 78.2362C66.9991 78.2614 67.0861 78.2786 67.1741 78.2876L67.1824 78.2069C67.0994 78.1983 67.0172 78.1821 66.9358 78.1583L66.9129 78.2362ZM67.1741 78.2876C67.2647 78.297 67.3628 78.2894 67.4681 78.266L67.4505 78.1867C67.3519 78.2087 67.2626 78.2151 67.1824 78.2069L67.1741 78.2876ZM67.4686 78.2659C67.5764 78.2405 67.6727 78.1941 67.7572 78.1267L67.7065 78.0633C67.6318 78.123 67.5464 78.1642 67.45 78.1869L67.4686 78.2659ZM67.7569 78.1269C67.9386 77.9842 68.042 77.7623 68.0722 77.4685L67.9915 77.4602C67.9627 77.7396 67.8661 77.938 67.7068 78.0631L67.7569 78.1269ZM68.0722 77.4685C68.0969 77.2288 68.0736 77.0265 67.9987 76.8643C67.9233 76.7012 67.7971 76.5819 67.6226 76.5067L67.5904 76.5812C67.7479 76.6491 67.8586 76.7547 67.925 76.8984C67.9918 77.0431 68.0152 77.2295 67.9915 77.4602L68.0722 77.4685ZM67.6226 76.5067C67.5086 76.4576 67.3754 76.4256 67.2238 76.41L67.2155 76.4907C67.3609 76.5057 67.4857 76.5361 67.5905 76.5812L67.6226 76.5067ZM67.2238 76.41L67.1706 76.4045L67.1623 76.4853L67.2155 76.4907L67.2238 76.41ZM67.1706 76.4045C67.15 76.4024 67.1287 76.4009 67.1067 76.4L67.1035 76.4811C67.1238 76.4819 67.1434 76.4833 67.1623 76.4853L67.1706 76.4045ZM67.0647 76.4364L66.884 78.1931L66.9647 78.2014L67.1455 76.4447L67.0647 76.4364Z" fill="#FFDE28" mask="url(#path-51-outside-1_291_102)"/>
<path d="M137.341 25.3929C140.707 26.1183 144.592 27.052 150.036 28.8822C155.479 30.7124 158.146 31.846 161.187 33.173" stroke="black" stroke-width="1.42068" stroke-linecap="round"/>
<circle cx="135.358" cy="25.2195" r="1.92806" transform="rotate(15.7532 135.358 25.2195)" stroke="black" stroke-width="1.42068"/>
<circle cx="163.32" cy="34.1797" r="1.92806" transform="rotate(15.7532 163.32 34.1797)" stroke="black" stroke-width="1.42068"/>
<path d="M134.072 19.4815C138.994 20.3597 143.45 21.2968 151.945 24.1443C160.441 26.9918 164.483 28.7366 168.3 30.4358" stroke="black" stroke-width="1.42068" stroke-linecap="round"/>
<circle cx="170.475" cy="31.2896" r="1.92806" transform="rotate(16.6093 170.475 31.2896)" stroke="black" stroke-width="1.42068"/>
<circle cx="131.929" cy="18.9751" r="1.92806" transform="rotate(16.6093 131.929 18.9751)" stroke="black" stroke-width="1.42068"/>
<path d="M128.65 40.5472C128.462 40.807 127.997 41.0233 127.148 40.9129C126.33 40.8066 125.325 40.4054 124.355 39.7019C123.385 38.9983 122.692 38.1669 122.337 37.4223C121.969 36.6498 122.03 36.141 122.219 35.8811C122.407 35.6213 122.872 35.4051 123.721 35.5154C124.538 35.6218 125.544 36.0229 126.514 36.7265C127.484 37.4301 128.177 38.2615 128.532 39.006C128.9 39.7786 128.839 40.2874 128.65 40.5472Z" stroke="black" stroke-width="1.42068"/>
<path d="M151.54 47.5028C151.525 47.8235 151.753 48.2823 152.486 48.725C153.192 49.1518 154.228 49.4649 155.425 49.5193C156.622 49.5738 157.683 49.3559 158.424 48.995C159.194 48.6205 159.463 48.1844 159.478 47.8637C159.492 47.5431 159.264 47.0843 158.531 46.6415C157.825 46.2148 156.789 45.9017 155.592 45.8472C154.395 45.7928 153.335 46.0107 152.593 46.3716C151.823 46.7461 151.554 47.1822 151.54 47.5028Z" stroke="black" stroke-width="1.42068"/>
<path d="M128.977 53.2471C128.977 52.8548 128.659 52.5368 128.267 52.5368C127.874 52.5368 127.556 52.8548 127.556 53.2471L128.977 53.2471ZM134.66 54.7694L135.37 54.7566C135.365 54.4726 135.191 54.2189 134.928 54.1117C134.665 54.0044 134.363 54.064 134.161 54.2634L134.66 54.7694ZM140.922 58.2131C141.255 58.0053 141.356 57.567 141.148 57.2343C140.94 56.9016 140.502 56.8004 140.169 57.0082L140.922 58.2131ZM130.894 55.4456L130.744 56.1398L130.894 55.4456ZM137.028 57.4606L136.741 58.1103L137.028 57.4606ZM127.556 53.2471C127.556 53.9977 128.01 54.6466 128.563 55.1109C129.131 55.5883 129.897 55.9558 130.744 56.1398L131.045 54.7515C130.397 54.6106 129.848 54.3355 129.477 54.0232C129.089 53.6978 128.977 53.4099 128.977 53.2471L127.556 53.2471ZM130.744 56.1398C131.512 56.3068 132.354 56.3278 133.119 56.2007C133.87 56.0759 134.632 55.7935 135.158 55.2753L134.161 54.2634C133.925 54.4957 133.487 54.6994 132.886 54.7992C132.3 54.8966 131.639 54.8806 131.045 54.7515L130.744 56.1398ZM133.95 54.7821C133.976 56.2609 135.252 57.4522 136.741 58.1103L137.315 56.8109C136.004 56.2312 135.381 55.396 135.37 54.7566L133.95 54.7821ZM136.741 58.1103C137.514 58.4518 138.369 58.579 139.091 58.5829C139.455 58.5849 139.8 58.5558 140.1 58.5002C140.384 58.4476 140.685 58.3609 140.922 58.2131L140.169 57.0082C140.171 57.0073 140.165 57.0111 140.149 57.0184C140.133 57.0254 140.11 57.0343 140.081 57.0441C140.021 57.0641 139.941 57.0848 139.841 57.1033C139.641 57.1404 139.386 57.1639 139.099 57.1623C138.519 57.1591 137.867 57.0545 137.315 56.8109L136.741 58.1103Z" fill="black"/>
<path fill-rule="evenodd" clip-rule="evenodd" d="M167.003 92.0946C167.581 93.3179 169.042 93.8408 170.265 93.2624C170.431 93.184 170.584 93.0895 170.723 92.9815C171.819 93.8741 172.848 94.8532 173.805 95.8739L174.693 95.2523C173.68 94.1629 172.582 93.1119 171.405 92.1527C171.734 91.5014 171.769 90.7106 171.433 90C170.855 88.7766 169.394 88.2538 168.171 88.8322C166.947 89.4106 166.425 90.8712 167.003 92.0946ZM168.769 98.1825C168.738 98.0297 168.693 97.8775 168.631 97.728C168.114 96.4775 166.681 95.883 165.43 96.4002C164.18 96.9173 163.585 98.3503 164.102 99.6007C164.132 99.672 164.164 99.7411 164.199 99.808L165.23 99.4416C165.177 99.3643 165.131 99.2805 165.094 99.1906C164.803 98.4879 165.138 97.6826 165.84 97.392C166.543 97.1014 167.348 97.4354 167.639 98.1382C167.695 98.2728 167.727 98.4112 167.739 98.549L168.769 98.1825ZM167.869 91.6848C168.194 92.3722 169.154 92.7355 169.842 92.4104C170.529 92.0854 170.893 91.1252 170.568 90.4377C170.243 89.7502 169.282 89.387 168.595 89.712C167.907 90.0371 167.544 90.9973 167.869 91.6848ZM175.874 90.405C176.391 91.6555 177.824 92.25 179.074 91.7329C180.325 91.2157 180.919 89.7828 180.402 88.5323C179.885 87.2818 178.452 86.6873 177.202 87.2045C175.951 87.7216 175.357 89.1546 175.874 90.405ZM176.866 89.9949C177.156 90.6976 177.961 91.0317 178.664 90.7411C179.367 90.4504 179.701 89.6452 179.41 88.9425C179.12 88.2397 178.315 87.9057 177.612 88.1963C176.909 88.4869 176.575 89.2922 176.866 89.9949Z" fill="black"/>
<path d="M170.265 93.2624L170.192 93.1064L170.192 93.1064L170.265 93.2624ZM167.003 92.0946L166.847 92.1683L166.847 92.1683L167.003 92.0946ZM170.723 92.9815L170.832 92.8478L170.726 92.7611L170.617 92.8453L170.723 92.9815ZM173.805 95.8739L173.68 95.9919L173.782 96.1009L173.904 96.0152L173.805 95.8739ZM174.693 95.2523L174.792 95.3936L174.955 95.2799L174.82 95.1348L174.693 95.2523ZM171.405 92.1527L171.251 92.075L171.188 92.1988L171.296 92.2864L171.405 92.1527ZM171.433 90L171.277 90.0737L171.433 90ZM168.171 88.8322L168.097 88.6762L168.097 88.6762L168.171 88.8322ZM168.631 97.728L168.471 97.7939L168.631 97.728ZM168.769 98.1825L168.827 98.3451L168.968 98.295L168.938 98.1484L168.769 98.1825ZM165.43 96.4002L165.364 96.2408L165.43 96.4002ZM164.102 99.6007L163.943 99.6667L163.943 99.6667L164.102 99.6007ZM164.199 99.808L164.047 99.8884L164.116 100.021L164.257 99.9706L164.199 99.808ZM165.23 99.4416L165.287 99.6041L165.498 99.5292L165.372 99.3444L165.23 99.4416ZM165.094 99.1906L165.254 99.1246L165.254 99.1246L165.094 99.1906ZM165.84 97.392L165.774 97.2326L165.84 97.392ZM167.639 98.1382L167.479 98.2041L167.479 98.2041L167.639 98.1382ZM167.739 98.549L167.567 98.5635L167.586 98.7866L167.797 98.7116L167.739 98.549ZM169.842 92.4104L169.768 92.2545L169.842 92.4104ZM167.869 91.6848L167.713 91.7585L167.713 91.7585L167.869 91.6848ZM170.568 90.4377L170.724 90.364L170.724 90.364L170.568 90.4377ZM168.595 89.712L168.669 89.868L168.595 89.712ZM175.874 90.405L176.033 90.3391L175.874 90.405ZM180.402 88.5323L180.562 88.4664L180.562 88.4664L180.402 88.5323ZM177.202 87.2045L177.136 87.0451L177.202 87.2045ZM178.664 90.7411L178.73 90.9005L178.664 90.7411ZM176.866 89.9949L177.025 89.929L177.025 89.929L176.866 89.9949ZM179.41 88.9425L179.251 89.0084L179.251 89.0084L179.41 88.9425ZM177.612 88.1963L177.678 88.3557L177.612 88.1963ZM170.192 93.1064C169.054 93.6441 167.697 93.158 167.159 92.0208L166.847 92.1683C167.466 93.4778 169.03 94.0374 170.339 93.4183L170.192 93.1064ZM170.617 92.8453C170.488 92.9455 170.346 93.0335 170.192 93.1064L170.339 93.4183C170.516 93.3345 170.68 93.2334 170.829 93.1178L170.617 92.8453ZM173.931 95.7559C172.969 94.7305 171.935 93.7459 170.832 92.8478L170.614 93.1153C171.703 94.0023 172.726 94.976 173.68 95.9919L173.931 95.7559ZM174.595 95.111L173.706 95.7326L173.904 96.0152L174.792 95.3936L174.595 95.111ZM171.296 92.2864C172.466 93.2399 173.558 94.2853 174.567 95.3698L174.82 95.1348C173.801 94.0405 172.698 92.9839 171.514 92.0189L171.296 92.2864ZM171.277 90.0737C171.59 90.7343 171.557 91.4691 171.251 92.075L171.559 92.2304C171.911 91.5336 171.949 90.687 171.589 89.9263L171.277 90.0737ZM168.245 88.9882C169.382 88.4505 170.74 88.9365 171.277 90.0737L171.589 89.9263C170.97 88.6168 169.407 88.0571 168.097 88.6762L168.245 88.9882ZM167.159 92.0208C166.621 90.8836 167.107 89.5258 168.245 88.9882L168.097 88.6762C166.788 89.2954 166.228 90.8588 166.847 92.1683L167.159 92.0208ZM168.471 97.7939C168.529 97.9331 168.572 98.0746 168.6 98.2166L168.938 98.1484C168.905 97.9847 168.856 97.8219 168.79 97.6621L168.471 97.7939ZM165.496 96.5596C166.658 96.0789 167.991 96.6315 168.471 97.7939L168.79 97.6621C168.237 96.3235 166.703 95.6872 165.364 96.2408L165.496 96.5596ZM164.262 99.5348C163.781 98.3724 164.334 97.0403 165.496 96.5596L165.364 96.2408C164.026 96.7943 163.389 98.3281 163.943 99.6667L164.262 99.5348ZM164.352 99.7277C164.319 99.6655 164.289 99.6012 164.262 99.5348L163.943 99.6667C163.974 99.7428 164.009 99.8168 164.047 99.8884L164.352 99.7277ZM165.172 99.2791L164.142 99.6455L164.257 99.9706L165.287 99.6041L165.172 99.2791ZM165.372 99.3444C165.326 99.2769 165.286 99.2035 165.254 99.1246L164.935 99.2565C164.976 99.3574 165.028 99.4518 165.087 99.5388L165.372 99.3444ZM165.254 99.1246C164.999 98.51 165.292 97.8056 165.906 97.5514L165.774 97.2326C164.984 97.5596 164.608 98.4657 164.935 99.2565L165.254 99.1246ZM165.906 97.5514C166.521 97.2972 167.225 97.5894 167.479 98.2041L167.798 98.0722C167.471 97.2815 166.565 96.9055 165.774 97.2326L165.906 97.5514ZM167.479 98.2041C167.528 98.3221 167.557 98.4432 167.567 98.5635L167.911 98.5346C167.898 98.3792 167.861 98.2235 167.798 98.0722L167.479 98.2041ZM168.711 98.02L167.681 98.3865L167.797 98.7116L168.827 98.3451L168.711 98.02ZM169.768 92.2545C169.475 92.3932 169.112 92.389 168.78 92.2656C168.447 92.1421 168.165 91.9069 168.025 91.611L167.713 91.7585C167.898 92.1501 168.259 92.4402 168.66 92.589C169.06 92.7378 169.522 92.7527 169.916 92.5664L169.768 92.2545ZM170.412 90.5114C170.55 90.8049 170.546 91.1675 170.423 91.4999C170.299 91.8324 170.064 92.1146 169.768 92.2545L169.916 92.5664C170.307 92.3812 170.597 92.0208 170.746 91.62C170.895 91.2192 170.91 90.758 170.724 90.364L170.412 90.5114ZM168.669 89.868C168.962 89.7292 169.325 89.7335 169.657 89.8569C169.99 89.9803 170.272 90.2156 170.412 90.5114L170.724 90.364C170.538 89.9723 170.178 89.6822 169.777 89.5334C169.376 89.3846 168.915 89.3698 168.521 89.5561L168.669 89.868ZM168.025 91.611C167.886 91.3175 167.891 90.955 168.014 90.6225C168.137 90.2901 168.373 90.0079 168.669 89.868L168.521 89.5561C168.129 89.7412 167.839 90.1016 167.691 90.5024C167.542 90.9032 167.527 91.3645 167.713 91.7585L168.025 91.611ZM179.008 91.5734C177.846 92.0542 176.514 91.5016 176.033 90.3391L175.714 90.471C176.268 91.8095 177.802 92.4458 179.14 91.8923L179.008 91.5734ZM180.243 88.5982C180.724 89.7607 180.171 91.0927 179.008 91.5734L179.14 91.8923C180.479 91.3387 181.115 89.8049 180.562 88.4664L180.243 88.5982ZM177.268 87.3639C178.43 86.8832 179.762 87.4358 180.243 88.5982L180.562 88.4664C180.008 87.1279 178.474 86.4915 177.136 87.0451L177.268 87.3639ZM176.033 90.3391C175.552 89.1767 176.105 87.8446 177.268 87.3639L177.136 87.0451C175.797 87.5986 175.161 89.1325 175.714 90.471L176.033 90.3391ZM178.598 90.5816C177.984 90.8359 177.279 90.5436 177.025 89.929L176.706 90.0608C177.033 90.8516 177.939 91.2275 178.73 90.9005L178.598 90.5816ZM179.251 89.0084C179.505 89.6231 179.213 90.3274 178.598 90.5816L178.73 90.9005C179.521 90.5735 179.897 89.6673 179.57 88.8765L179.251 89.0084ZM177.678 88.3557C178.292 88.1015 178.997 88.3937 179.251 89.0084L179.57 88.8765C179.243 88.0858 178.337 87.7098 177.546 88.0369L177.678 88.3557ZM177.025 89.929C176.771 89.3143 177.063 88.6099 177.678 88.3557L177.546 88.0369C176.755 88.3639 176.379 89.27 176.706 90.0608L177.025 89.929Z" fill="black"/>
<path d="M119.642 7.53406C120.934 7.95096 119.586 10.7996 118.644 12.3578C118.565 12.4883 118.419 12.5608 118.267 12.5494L113.014 12.1544C112.658 12.1277 112.51 11.7001 112.782 11.4695C114.693 9.84662 118.457 7.15198 119.642 7.53406Z" fill="#FFDE28" stroke="black" stroke-width="1.42068"/>
<defs>
<linearGradient id="paint0_linear_291_102" x1="284.942" y1="-34.5483" x2="52.9028" y2="149.826" gradientUnits="userSpaceOnUse">
<stop stop-color="#FFDE28"/>
<stop offset="1" stop-color="#FFDE28" stop-opacity="0.1"/>
</linearGradient>
<linearGradient id="paint1_linear_291_102" x1="237.539" y1="102.423" x2="34.8321" y2="112.113" gradientUnits="userSpaceOnUse">
<stop stop-color="#FFEF9A"/>
<stop offset="1" stop-color="#423B17"/>
</linearGradient>
</defs>
</svg>
