<svg width="561" height="313" viewBox="0 0 561 313" fill="none" xmlns="http://www.w3.org/2000/svg">
<path d="M30.0843 203.736C-20.8057 136.918 53.6869 78.5423 103.961 87.9293L526.894 229.104C536.297 317.071 404.031 333.655 288.703 281.35C173.283 229.002 82.6965 272.815 30.0843 203.736Z" fill="url(#paint0_linear_132_746)" stroke="url(#paint1_linear_132_746)" stroke-width="2.36275" stroke-linecap="round"/>
<path d="M281.439 261.112L379.855 205.895C380.885 205.317 380.753 203.794 379.638 203.402L185.961 135.321C185.628 135.204 185.264 135.22 184.942 135.364L78.0915 183.389C76.9717 183.893 77.0247 185.5 78.1752 185.929L280.288 261.201C280.666 261.342 281.087 261.309 281.439 261.112Z" fill="#222222" stroke="black" stroke-width="3.20425" stroke-linecap="round"/>
<path d="M249.985 16.5822C227.83 29.033 174.021 88.2651 165.019 107.796L484.528 214.68C484.539 150.057 466.973 107.988 467.188 102.181C467.371 97.2378 461.327 89.1107 460.146 83.7945C453.648 69.0273 448.651 57.8095 442.425 53.7813C434.643 48.7461 433.947 44.3975 423.19 53.7813C414.584 61.2884 415.713 71.0233 412.661 71.4047C397.647 59.8694 332.557 34.7674 286.094 29.5206C289.473 13.6207 291.402 0.0305004 275.261 4.64238C271.126 5.82374 276.023 -0.89032 249.985 16.5822Z" fill="#F0F0F0"/>
<path d="M484.07 204.839L485.172 214.017L506.958 221.089L515.655 206.212L518.63 165.473L525.497 151.282L555.25 140.067L553.191 122.673L532.82 119.011L509.017 127.479L495.743 150.825L491.394 194.082L484.07 204.839Z" fill="#F0F0F0"/>
<path d="M503.754 211.934L496.429 219.029L504.669 221.089L509.45 215.643L503.754 211.934Z" fill="#FFDE28"/>
<rect width="10.2586" height="7.38027" transform="matrix(-0.975845 -0.218465 -0.218465 0.975845 504.295 158.468)" fill="#FFDE28"/>
<path d="M546.553 129.768L549.859 143.051L541.623 144.9L540.861 132.202L546.553 129.768Z" fill="#FFDE28"/>
<circle cx="5.72187" cy="5.72187" r="4.11975" transform="matrix(-0.969958 -0.243273 -0.243273 0.969958 544.628 127.39)" stroke="black" stroke-width="3.20425"/>
<path d="M541.289 143.729C541.117 141.904 540.343 136.936 539.072 135.642" stroke="black" stroke-width="3.20425" stroke-linecap="round"/>
<path d="M542.575 130.714L546.538 129.598C546.794 129.526 547.056 129.684 547.111 129.944C547.887 133.602 549.396 139.922 549.528 141.669" stroke="black" stroke-width="3.20425" stroke-linecap="round"/>
<path d="M484.906 204.839C489.393 200.215 492.757 192.965 492.635 181.522C492.264 146.646 503.195 123.19 531.353 119.932C546.907 118.133 554.288 121.832 555.589 130.494C557.058 140.273 549.589 145.397 535.531 147.325C516.139 149.985 517.117 170.892 517.465 186.746C517.696 197.271 514.876 210.65 506.041 221.019" stroke="black" stroke-width="4.5775" stroke-linecap="round"/>
<circle cx="5.72187" cy="5.72187" r="4.11975" transform="matrix(-0.983937 0.178516 0.178516 0.983937 523.032 133.236)" stroke="black" stroke-width="3.20425"/>
<circle cx="5.72187" cy="5.72187" r="4.11975" transform="matrix(-0.908377 0.418152 0.418152 0.908377 516.124 159.671)" stroke="black" stroke-width="3.20425"/>
<circle cx="5.72187" cy="5.72187" r="4.11975" transform="matrix(0.653805 -0.756663 -0.756663 -0.653805 504.859 200.152)" stroke="black" stroke-width="3.20425"/>
<path d="M514.595 136.799C513.448 135.369 509.789 132.46 508.023 131.62" stroke="black" stroke-width="3.20425" stroke-linecap="round"/>
<path d="M509.017 166.846C504.44 165.701 498.031 164.786 493.082 164.681" stroke="black" stroke-width="3.20425" stroke-linecap="round"/>
<path d="M503.087 164.346L504.695 159.452C504.778 159.2 504.63 158.93 504.372 158.867C500.905 158.023 496.425 157.243 494.687 157.036" stroke="black" stroke-width="3.20425" stroke-linecap="round"/>
<path d="M509.14 215.968C507.348 214.153 505.732 212.651 503.936 211.839C503.743 211.751 503.518 211.818 503.394 211.99C502.841 212.756 501.281 214.872 499.814 216.46C498.862 217.489 498.433 217.999 497.574 218.8" stroke="black" stroke-width="3.20425" stroke-linecap="round"/>
<path d="M509.807 193.259C510.618 193.436 514.13 193.845 516.341 193.853" stroke="black" stroke-width="3.20425" stroke-linecap="round"/>
<path fill-rule="evenodd" clip-rule="evenodd" d="M488.999 215.73L491.475 217.77C493.4 215.584 493.384 212.252 491.352 210.082C489.192 207.776 485.571 207.657 483.264 209.818C483.037 210.03 482.832 210.257 482.647 210.495L485.123 212.535C485.219 212.401 485.33 212.273 485.455 212.156C486.469 211.206 488.063 211.258 489.013 212.273C489.931 213.252 489.914 214.77 488.999 215.73Z" fill="black"/>
<path d="M458.182 146.933L480.23 155.679L482.173 167.026L454.763 155.742L458.182 146.933Z" fill="#FFDE28"/>
<circle cx="6.17962" cy="6.17962" r="4.5775" transform="matrix(-0.898998 -0.437953 -0.437953 0.898998 449.321 137.785)" stroke="black" stroke-width="3.20425"/>
<circle cx="6.17962" cy="6.17962" r="4.5775" transform="matrix(-0.951235 0.308468 0.308468 0.951235 428.454 151.557)" stroke="black" stroke-width="3.20425"/>
<circle cx="6.17962" cy="6.17962" r="4.5775" transform="matrix(-0.951235 0.308468 0.308468 0.951235 428.454 151.557)" stroke="black" stroke-width="3.20425"/>
<circle cx="6.17962" cy="6.17962" r="4.5775" transform="matrix(-0.948435 0.316973 0.316973 0.948435 436.665 111.61)" stroke="black" stroke-width="3.20425"/>
<path d="M428.828 160.965C441.802 164.427 466.646 173.952 483.155 181.036" stroke="black" stroke-width="3.20425" stroke-linecap="round"/>
<path d="M428.828 160.964C441.802 164.427 466.646 173.952 483.155 181.036" stroke="black" stroke-width="3.20425" stroke-linecap="round"/>
<path d="M437.454 121.381C450.019 124.614 461.861 128.33 476.06 133.659" stroke="black" stroke-width="3.20425" stroke-linecap="round"/>
<path d="M446.033 142.547C450.5 143.795 448.595 143.271 457.063 146.018M457.063 146.018C456.154 149.964 456.227 151.172 455.061 154.46C454.931 154.827 455.101 155.235 455.46 155.388C461.37 157.899 473.049 162.272 480.456 166.003M457.063 146.018C461.791 147.697 473.115 151.872 480.456 154.81" stroke="black" stroke-width="3.20425" stroke-linecap="round"/>
<path d="M439.919 68.9317C436.77 67.7383 434.965 75.2988 434.366 79.8067C434.313 80.2107 434.538 80.5961 434.912 80.7587L444.611 84.98C445.274 85.2685 445.994 84.7228 445.877 84.0094C444.992 78.6362 442.907 70.064 439.919 68.9317Z" fill="#FFDE28" stroke="black" stroke-width="3.20425"/>
<path d="M249.07 17.4979C260.002 9.63803 277.397 -0.890167 284.721 4.83171C290.132 9.05888 288.611 19.2506 286.552 29.3209C300.466 30.8472 323.629 35.3164 345.144 42.5957C375.584 52.895 403.638 64.2028 412.258 70.8258C415.637 65.0258 417.403 61.1142 421.817 55.4131C427.31 48.318 431.201 45.3422 438.982 50.3774C445.208 54.4056 454.317 69.8322 458.208 78.5293C460.088 82.7312 465.833 97.5704 467.234 102.697C468.811 108.465 485.982 145.609 484.811 213.873" stroke="black" stroke-width="4.5775" stroke-linecap="round"/>
<path d="M99.811 86.064L526.641 228.666" stroke="black" stroke-width="3.20425" stroke-linecap="round"/>
<path d="M299.037 184.081L251.575 166.978C251.244 166.858 250.88 166.871 250.558 167.012L224.052 178.626C222.918 179.123 222.968 180.748 224.131 181.173L273.418 199.19C274.67 199.648 276.06 199.537 277.223 198.886L299.242 186.572C300.27 185.997 300.145 184.48 299.037 184.081Z" fill="#4D4D4D" stroke="black" stroke-width="3.20425"/>
<path d="M353.612 165.58L421.588 181.036L417.751 194.876L403.332 208.608L369.23 226.232L344.511 220.51L336.501 204.718L341.994 181.143L347.661 175.772L353.612 165.58Z" fill="#F0F0F0"/>
<path d="M164.158 106.072H237.398L236.199 132.514L213.137 144.981L180.637 155.052L157.978 146.126L157.52 125.527L158.611 120.613L164.158 106.072Z" fill="#F0F0F0"/>
<path fill-rule="evenodd" clip-rule="evenodd" d="M193.534 63.434C194.221 65.2565 195.755 66.7265 197.784 67.2472C201.09 68.0953 204.458 66.1028 205.306 62.797C206.119 59.6284 204.322 56.4032 201.261 55.3941L198.313 58.4613C198.855 58.2658 199.459 58.2254 200.059 58.3793C201.651 58.7877 202.61 60.409 202.202 62.0007C201.794 63.5925 200.172 64.5518 198.581 64.1434C196.989 63.7351 196.03 62.1137 196.438 60.522C196.452 60.4694 196.466 60.4175 196.482 60.3663L193.534 63.434Z" fill="black"/>
<circle cx="200.988" cy="82.1054" r="4.5775" transform="rotate(54.9655 200.988 82.1054)" stroke="black" stroke-width="3.20425"/>
<circle cx="220.293" cy="49.455" r="4.5775" transform="rotate(55.6524 220.293 49.455)" stroke="black" stroke-width="3.20425"/>
<path d="M196.54 80.7862C193.104 79.3854 188.807 77.8239 184.028 76.2057" stroke="black" stroke-width="3.20425" stroke-linecap="round"/>
<path d="M214.999 47.0374C213.874 46.4225 212.664 45.7791 211.379 45.112" stroke="black" stroke-width="3.20425" stroke-linecap="round"/>
<path d="M248.383 17.9556C195.056 52.5157 141.023 123.925 160.267 147.27C174.228 164.207 220.003 147.499 236.253 131.706" stroke="black" stroke-width="4.5775" stroke-linecap="round"/>
<path fill-rule="evenodd" clip-rule="evenodd" d="M172.348 132.187C169.558 132.232 167.259 130.006 167.214 127.216C167.208 126.838 167.244 126.469 167.317 126.113C164.333 124.747 161.224 123.638 158.113 122.738L158.755 120.619C161.94 121.542 165.141 122.683 168.228 124.097C169.134 122.895 170.564 122.108 172.185 122.082C174.975 122.037 177.274 124.263 177.319 127.053C177.364 129.843 175.138 132.142 172.348 132.187ZM162.814 106.45L163.103 106.261L162.038 109.778C162.345 112.437 164.688 114.414 167.388 114.237C170.173 114.054 172.282 111.648 172.099 108.863C171.916 106.078 169.51 103.969 166.726 104.152C165.07 104.261 163.652 105.156 162.814 106.45ZM172.317 130.211C170.749 130.236 169.201 128.791 169.176 127.223C169.151 125.655 170.596 124.108 172.164 124.083C173.732 124.057 175.279 125.503 175.305 127.071C175.33 128.639 173.885 130.186 172.317 130.211ZM161.106 144.394C158.321 144.577 155.915 142.468 155.732 139.684C155.549 136.899 157.658 134.493 160.443 134.31C163.228 134.127 165.633 136.236 165.816 139.021C165.999 141.805 163.89 144.211 161.106 144.394ZM160.961 142.186C159.396 142.288 158.044 141.103 157.941 139.538C157.838 137.974 159.023 136.622 160.588 136.519C162.153 136.416 163.505 137.601 163.608 139.166C163.711 140.731 162.525 142.083 160.961 142.186ZM167.243 112.028C165.678 112.131 164.326 110.946 164.224 109.381C164.121 107.816 165.306 106.464 166.871 106.361C168.436 106.258 169.788 107.443 169.89 109.008C169.993 110.573 168.808 111.925 167.243 112.028Z" fill="black"/>
<path d="M167.214 127.216L167.603 127.21L167.603 127.21L167.214 127.216ZM172.348 132.187L172.354 132.576L172.354 132.576L172.348 132.187ZM167.317 126.113L167.479 125.76L167.76 125.889L167.698 126.192L167.317 126.113ZM158.113 122.738L158.005 123.111L157.627 123.002L157.741 122.625L158.113 122.738ZM158.755 120.619L158.383 120.506L158.494 120.138L158.863 120.245L158.755 120.619ZM168.228 124.097L168.539 124.331L168.351 124.581L168.066 124.45L168.228 124.097ZM172.185 122.082L172.179 121.693L172.185 122.082ZM177.319 127.053L177.708 127.047L177.708 127.047L177.319 127.053ZM162.814 106.45L163.027 106.775L162.488 106.238L162.814 106.45ZM163.103 106.261L162.89 105.935L163.786 105.348L163.475 106.373L163.103 106.261ZM162.038 109.778L161.651 109.823L161.642 109.742L161.665 109.665L162.038 109.778ZM167.388 114.237L167.363 113.848L167.388 114.237ZM172.099 108.863L171.711 108.889L172.099 108.863ZM166.726 104.152L166.751 104.541L166.726 104.152ZM169.176 127.223L169.565 127.217L169.565 127.217L169.176 127.223ZM172.317 130.211L172.323 130.6L172.323 130.6L172.317 130.211ZM172.164 124.083L172.17 124.472L172.17 124.472L172.164 124.083ZM175.305 127.071L174.916 127.077L175.305 127.071ZM155.732 139.684L155.344 139.709L155.344 139.709L155.732 139.684ZM161.106 144.394L161.131 144.782L161.106 144.394ZM165.816 139.021L166.205 138.995L166.205 138.995L165.816 139.021ZM160.961 142.186L160.935 141.797L160.935 141.797L160.961 142.186ZM160.588 136.519L160.614 136.907L160.614 136.907L160.588 136.519ZM163.608 139.166L163.996 139.14L163.996 139.14L163.608 139.166ZM167.243 112.028L167.218 111.64L167.243 112.028ZM166.871 106.361L166.896 106.749L166.896 106.749L166.871 106.361ZM169.89 109.008L170.279 108.983L169.89 109.008ZM167.603 127.21C167.645 129.785 169.766 131.839 172.342 131.798L172.354 132.576C169.349 132.624 166.874 130.227 166.825 127.222L167.603 127.21ZM167.698 126.192C167.63 126.52 167.598 126.86 167.603 127.21L166.825 127.222C166.819 126.816 166.857 126.418 166.936 126.035L167.698 126.192ZM158.222 122.364C161.347 123.268 164.475 124.384 167.479 125.76L167.155 126.467C164.191 125.11 161.101 124.007 158.005 123.111L158.222 122.364ZM159.127 120.732L158.486 122.85L157.741 122.625L158.383 120.506L159.127 120.732ZM168.066 124.45C165 123.046 161.817 121.911 158.647 120.993L158.863 120.245C162.063 121.173 165.283 122.32 168.39 123.743L168.066 124.45ZM172.191 122.471C170.695 122.495 169.375 123.221 168.539 124.331L167.918 123.862C168.892 122.569 170.433 121.721 172.179 121.693L172.191 122.471ZM176.93 127.059C176.888 124.484 174.767 122.43 172.191 122.471L172.179 121.693C175.184 121.645 177.659 124.042 177.708 127.047L176.93 127.059ZM172.342 131.798C174.917 131.756 176.971 129.635 176.93 127.059L177.708 127.047C177.756 130.052 175.359 132.527 172.354 132.576L172.342 131.798ZM162.601 106.124L162.89 105.935L163.316 106.586L163.027 106.775L162.601 106.124ZM163.475 106.373L162.41 109.891L161.665 109.665L162.73 106.148L163.475 106.373ZM162.424 109.733C162.707 112.187 164.871 114.012 167.363 113.848L167.414 114.625C164.506 114.816 161.982 112.686 161.651 109.823L162.424 109.733ZM167.363 113.848C169.933 113.679 171.88 111.459 171.711 108.889L172.487 108.838C172.684 111.837 170.413 114.428 167.414 114.625L167.363 113.848ZM171.711 108.889C171.542 106.318 169.321 104.372 166.751 104.541L166.7 103.764C169.699 103.567 172.29 105.839 172.487 108.838L171.711 108.889ZM166.751 104.541C165.223 104.641 163.915 105.467 163.141 106.661L162.488 106.238C163.39 104.846 164.916 103.881 166.7 103.764L166.751 104.541ZM169.565 127.217C169.576 127.875 169.909 128.534 170.435 129.032C170.961 129.529 171.646 129.833 172.31 129.822L172.323 130.6C171.419 130.615 170.546 130.208 169.901 129.597C169.255 128.987 168.802 128.139 168.787 127.229L169.565 127.217ZM172.17 124.472C171.512 124.482 170.853 124.815 170.355 125.342C169.858 125.868 169.555 126.552 169.565 127.217L168.787 127.229C168.773 126.326 169.179 125.453 169.79 124.807C170.401 124.161 171.249 123.708 172.158 123.694L172.17 124.472ZM174.916 127.077C174.905 126.418 174.572 125.759 174.046 125.262C173.519 124.764 172.835 124.461 172.17 124.472L172.158 123.694C173.061 123.679 173.935 124.086 174.58 124.696C175.226 125.307 175.679 126.155 175.694 127.064L174.916 127.077ZM172.31 129.822C172.969 129.811 173.628 129.478 174.125 128.952C174.623 128.426 174.926 127.741 174.916 127.077L175.694 127.064C175.708 127.968 175.301 128.841 174.691 129.487C174.08 130.132 173.232 130.585 172.323 130.6L172.31 129.822ZM156.121 139.658C156.29 142.228 158.51 144.175 161.08 144.006L161.131 144.782C158.132 144.98 155.541 142.708 155.344 139.709L156.121 139.658ZM160.468 134.698C157.898 134.867 155.952 137.088 156.121 139.658L155.344 139.709C155.147 136.71 157.418 134.119 160.417 133.922L160.468 134.698ZM165.428 139.046C165.259 136.476 163.039 134.529 160.468 134.698L160.417 133.922C163.417 133.725 166.008 135.996 166.205 138.995L165.428 139.046ZM161.08 144.006C163.65 143.837 165.597 141.617 165.428 139.046L166.205 138.995C166.402 141.994 164.13 144.585 161.131 144.782L161.08 144.006ZM158.329 139.513C158.418 140.863 159.585 141.886 160.935 141.797L160.986 142.574C159.207 142.691 157.67 141.343 157.553 139.564L158.329 139.513ZM160.614 136.907C159.263 136.996 158.24 138.162 158.329 139.513L157.553 139.564C157.436 137.785 158.783 136.247 160.563 136.131L160.614 136.907ZM163.22 139.191C163.131 137.841 161.964 136.818 160.614 136.907L160.563 136.131C162.342 136.014 163.879 137.361 163.996 139.14L163.22 139.191ZM160.935 141.797C162.286 141.709 163.308 140.542 163.22 139.191L163.996 139.14C164.113 140.92 162.765 142.457 160.986 142.574L160.935 141.797ZM164.612 109.355C164.701 110.706 165.867 111.728 167.218 111.64L167.269 112.416C165.489 112.533 163.952 111.186 163.835 109.406L164.612 109.355ZM166.896 106.749C165.546 106.838 164.523 108.005 164.612 109.355L163.835 109.406C163.718 107.627 165.066 106.09 166.845 105.973L166.896 106.749ZM169.502 109.034C169.413 107.683 168.247 106.661 166.896 106.749L166.845 105.973C168.625 105.856 170.162 107.203 170.279 108.983L169.502 109.034ZM167.218 111.64C168.568 111.551 169.591 110.384 169.502 109.034L170.279 108.983C170.396 110.762 169.048 112.299 167.269 112.416L167.218 111.64Z" fill="black"/>
<path d="M418.209 192.816C408.239 208.133 368.085 238.2 343.824 219.365C333.699 211.505 334.922 190.606 351.038 170.386C352.772 168.211 354.641 166.067 356.641 163.978" stroke="black" stroke-width="4.5775" stroke-linecap="round"/>
<ellipse cx="248.478" cy="96.7581" rx="7.75428" ry="14.1239" transform="rotate(-69.5962 248.478 96.7581)" fill="#FFDE28"/>
<ellipse cx="365.835" cy="136.007" rx="7.75428" ry="14.1239" transform="rotate(-75.6503 365.835 136.007)" fill="#FFDE28"/>
<ellipse cx="266.715" cy="97.3223" rx="7.75428" ry="14.1239" transform="rotate(-69.7616 266.715 97.3223)" fill="black"/>
<ellipse cx="352.345" cy="125.79" rx="7.75428" ry="14.1239" transform="rotate(109.388 352.345 125.79)" fill="black"/>
<path d="M236.568 148.554L279.155 258.432C279.579 259.527 278.522 260.615 277.415 260.222L77.1612 189.131C76.7924 189 76.4969 188.718 76.3491 188.355L32.6299 81.1653C32.1853 80.0753 33.2285 78.9678 34.3431 79.3464L235.729 147.75C236.114 147.881 236.421 148.175 236.568 148.554Z" fill="#222222" stroke="black" stroke-width="3.20425" stroke-linecap="round"/>
<path d="M309.764 55.9586C317.356 57.5945 326.119 59.7004 338.397 63.8284C350.674 67.9564 356.689 70.513 363.548 73.5061" stroke="black" stroke-width="3.20425" stroke-linecap="round"/>
<circle cx="305.292" cy="55.5674" r="4.34862" transform="rotate(15.7532 305.292 55.5674)" stroke="black" stroke-width="3.20425"/>
<circle cx="368.357" cy="75.7766" r="4.34862" transform="rotate(15.7532 368.357 75.7766)" stroke="black" stroke-width="3.20425"/>
<path d="M302.392 42.6254C313.492 44.6059 323.542 46.7195 342.703 53.1419C361.864 59.5643 370.98 63.4997 379.591 67.332" stroke="black" stroke-width="3.20425" stroke-linecap="round"/>
<circle cx="384.495" cy="69.2577" r="4.34862" transform="rotate(16.6093 384.495 69.2577)" stroke="black" stroke-width="3.20425"/>
<circle cx="297.557" cy="41.4834" r="4.34862" transform="rotate(16.6093 297.557 41.4834)" stroke="black" stroke-width="3.20425"/>
<path d="M290.163 90.1382C289.738 90.7242 288.69 91.212 286.776 90.9631C284.931 90.7232 282.663 89.8184 280.476 88.2316C278.288 86.6447 276.725 84.7696 275.924 83.0903C275.093 81.3478 275.232 80.2002 275.657 79.6142C276.082 79.0282 277.13 78.5404 279.044 78.7893C280.889 79.0292 283.157 79.934 285.344 81.5208C287.531 83.1077 289.095 84.9828 289.896 86.6621C290.727 88.4046 290.588 89.5522 290.163 90.1382Z" stroke="black" stroke-width="3.20425"/>
<path d="M341.788 105.826C341.755 106.549 342.271 107.584 343.923 108.583C345.515 109.545 347.852 110.251 350.552 110.374C353.251 110.497 355.643 110.006 357.316 109.192C359.052 108.347 359.659 107.363 359.692 106.64C359.725 105.917 359.209 104.882 357.557 103.883C355.965 102.921 353.628 102.215 350.928 102.092C348.229 101.969 345.837 102.461 344.164 103.275C342.428 104.119 341.821 105.103 341.788 105.826Z" stroke="black" stroke-width="3.20425"/>
<path d="M290.9 118.782C290.9 117.897 290.182 117.179 289.298 117.179C288.413 117.179 287.695 117.897 287.695 118.782L290.9 118.782ZM303.717 122.215L305.318 122.186C305.307 121.546 304.915 120.973 304.322 120.731C303.729 120.489 303.048 120.624 302.592 121.074L303.717 122.215ZM317.84 129.982C318.591 129.513 318.819 128.525 318.35 127.774C317.882 127.024 316.893 126.796 316.143 127.265L317.84 129.982ZM295.224 123.74L294.884 125.306L295.224 123.74ZM309.059 128.285L308.411 129.75L309.059 128.285ZM287.695 118.782C287.695 120.474 288.719 121.938 289.966 122.985C291.247 124.062 292.974 124.891 294.884 125.306L295.564 122.175C294.102 121.857 292.865 121.236 292.027 120.532C291.153 119.798 290.9 119.149 290.9 118.782L287.695 118.782ZM294.884 125.306C296.617 125.682 298.515 125.73 300.241 125.443C301.935 125.162 303.655 124.525 304.841 123.356L302.592 121.074C302.06 121.598 301.071 122.057 299.716 122.282C298.394 122.502 296.904 122.466 295.564 122.175L294.884 125.306ZM302.115 122.244C302.175 125.579 305.053 128.266 308.411 129.75L309.706 126.82C306.748 125.512 305.344 123.628 305.318 122.186L302.115 122.244ZM308.411 129.75C310.153 130.52 312.082 130.807 313.711 130.816C314.532 130.821 315.31 130.755 315.986 130.63C316.626 130.511 317.307 130.315 317.84 129.982L316.143 127.265C316.146 127.262 316.133 127.271 316.096 127.287C316.06 127.303 316.01 127.323 315.943 127.345C315.808 127.39 315.627 127.437 315.402 127.479C314.951 127.563 314.377 127.616 313.729 127.612C312.42 127.605 310.949 127.369 309.706 126.82L308.411 129.75Z" fill="black"/>
<path fill-rule="evenodd" clip-rule="evenodd" d="M376.665 206.4C377.969 209.159 381.264 210.338 384.023 209.034C384.397 208.857 384.741 208.644 385.055 208.4C387.527 210.414 389.847 212.622 392.007 214.924L394.01 213.522C391.723 211.065 389.248 208.694 386.593 206.531C387.334 205.062 387.414 203.279 386.657 201.676C385.352 198.917 382.058 197.737 379.299 199.042C376.539 200.347 375.36 203.641 376.665 206.4ZM380.648 220.131C380.579 219.786 380.475 219.443 380.336 219.106C379.169 216.285 375.937 214.945 373.117 216.111C370.297 217.277 368.956 220.509 370.122 223.33C370.189 223.49 370.262 223.646 370.341 223.797L372.665 222.971C372.546 222.796 372.443 222.607 372.359 222.405C371.704 220.82 372.457 219.003 374.042 218.348C375.627 217.693 377.443 218.446 378.099 220.031C378.224 220.335 378.298 220.647 378.324 220.958L380.648 220.131ZM378.618 205.476C379.351 207.026 381.517 207.846 383.068 207.112C384.618 206.379 385.437 204.214 384.704 202.663C383.971 201.113 381.805 200.293 380.255 201.026C378.704 201.759 377.885 203.925 378.618 205.476ZM396.672 202.589C397.839 205.41 401.07 206.751 403.891 205.584C406.711 204.418 408.052 201.186 406.886 198.366C405.719 195.545 402.487 194.204 399.667 195.371C396.847 196.537 395.506 199.769 396.672 202.589ZM398.909 201.664C399.565 203.249 401.381 204.003 402.966 203.347C404.551 202.692 405.304 200.876 404.649 199.291C403.993 197.706 402.177 196.952 400.592 197.608C399.007 198.263 398.254 200.079 398.909 201.664Z" fill="black"/>
<path d="M384.023 209.034L384.189 209.386L384.023 209.034ZM376.665 206.4L376.313 206.566L376.313 206.566L376.665 206.4ZM385.055 208.4L385.301 208.099L385.061 207.903L384.816 208.093L385.055 208.4ZM392.007 214.924L391.723 215.19L391.954 215.436L392.23 215.243L392.007 214.924ZM394.01 213.522L394.233 213.841L394.599 213.584L394.295 213.257L394.01 213.522ZM386.593 206.531L386.245 206.356L386.105 206.635L386.347 206.833L386.593 206.531ZM386.657 201.676L387.008 201.51L387.008 201.51L386.657 201.676ZM379.299 199.042L379.132 198.69L379.132 198.69L379.299 199.042ZM380.336 219.106L380.695 218.957L380.336 219.106ZM380.648 220.131L380.779 220.498L381.096 220.385L381.03 220.054L380.648 220.131ZM373.117 216.111L372.968 215.752L373.117 216.111ZM370.122 223.33L370.482 223.181L370.482 223.181L370.122 223.33ZM370.341 223.797L369.997 223.978L370.154 224.277L370.472 224.164L370.341 223.797ZM372.665 222.971L372.795 223.337L373.271 223.168L372.986 222.751L372.665 222.971ZM372.359 222.405L372.719 222.256L372.719 222.256L372.359 222.405ZM374.042 218.348L374.191 218.708L374.042 218.348ZM378.099 220.031L377.739 220.18L378.099 220.031ZM378.324 220.958L377.937 220.99L377.979 221.493L378.455 221.324L378.324 220.958ZM383.068 207.112L383.234 207.464L383.068 207.112ZM378.618 205.476L378.266 205.642L378.266 205.642L378.618 205.476ZM384.704 202.663L385.056 202.497L384.704 202.663ZM380.255 201.026L380.421 201.378L380.255 201.026ZM403.891 205.584L403.742 205.225L403.891 205.584ZM396.672 202.589L396.313 202.738L396.672 202.589ZM406.886 198.366L406.526 198.514L406.526 198.514L406.886 198.366ZM399.667 195.371L399.518 195.011L399.667 195.371ZM402.966 203.347L402.817 202.988L402.966 203.347ZM398.909 201.664L399.269 201.516L399.269 201.516L398.909 201.664ZM404.649 199.291L404.289 199.439L404.289 199.439L404.649 199.291ZM400.592 197.608L400.443 197.248L400.592 197.608ZM383.857 208.682C381.292 209.895 378.229 208.799 377.017 206.234L376.313 206.566C377.709 209.52 381.236 210.782 384.189 209.386L383.857 208.682ZM384.816 208.093C384.525 208.319 384.204 208.518 383.857 208.682L384.189 209.386C384.589 209.197 384.958 208.969 385.294 208.708L384.816 208.093ZM392.291 214.658C390.121 212.345 387.788 210.124 385.301 208.099L384.809 208.702C387.265 210.703 389.573 212.899 391.723 215.19L392.291 214.658ZM393.787 213.203L391.784 214.605L392.23 215.243L394.233 213.841L393.787 213.203ZM386.347 206.833C388.986 208.983 391.449 211.341 393.725 213.787L394.295 213.257C391.998 210.789 389.51 208.406 386.839 206.229L386.347 206.833ZM386.305 201.842C387.009 203.332 386.935 204.989 386.245 206.356L386.94 206.706C387.733 205.135 387.82 203.225 387.008 201.51L386.305 201.842ZM379.465 199.394C382.03 198.181 385.092 199.277 386.305 201.842L387.008 201.51C385.612 198.556 382.086 197.294 379.132 198.69L379.465 199.394ZM377.017 206.234C375.804 203.669 376.9 200.606 379.465 199.394L379.132 198.69C376.179 200.087 374.917 203.613 376.313 206.566L377.017 206.234ZM379.976 219.255C380.106 219.569 380.202 219.888 380.267 220.208L381.03 220.054C380.955 219.685 380.844 219.318 380.695 218.957L379.976 219.255ZM373.266 216.471C375.888 215.386 378.892 216.633 379.976 219.255L380.695 218.957C379.447 215.938 375.987 214.503 372.968 215.752L373.266 216.471ZM370.482 223.181C369.398 220.559 370.644 217.555 373.266 216.471L372.968 215.752C369.949 217 368.514 220.459 369.763 223.478L370.482 223.181ZM370.686 223.616C370.612 223.476 370.544 223.331 370.482 223.181L369.763 223.478C369.834 223.65 369.912 223.817 369.997 223.978L370.686 223.616ZM372.534 222.604L370.211 223.431L370.472 224.164L372.795 223.337L372.534 222.604ZM372.986 222.751C372.882 222.599 372.792 222.434 372.719 222.256L372 222.553C372.094 222.781 372.209 222.994 372.343 223.19L372.986 222.751ZM372.719 222.256C372.145 220.87 372.805 219.281 374.191 218.708L373.894 217.988C372.11 218.726 371.262 220.77 372 222.553L372.719 222.256ZM374.191 218.708C375.577 218.134 377.166 218.793 377.739 220.18L378.458 219.882C377.721 218.099 375.677 217.251 373.894 217.988L374.191 218.708ZM377.739 220.18C377.849 220.446 377.914 220.719 377.937 220.99L378.712 220.925C378.683 220.575 378.599 220.223 378.458 219.882L377.739 220.18ZM380.518 219.764L378.194 220.591L378.455 221.324L380.779 220.498L380.518 219.764ZM382.901 206.761C382.239 207.074 381.422 207.064 380.672 206.786C379.922 206.507 379.285 205.977 378.97 205.309L378.266 205.642C378.684 206.525 379.497 207.18 380.401 207.515C381.305 207.851 382.345 207.884 383.234 207.464L382.901 206.761ZM384.353 202.829C384.665 203.491 384.656 204.309 384.378 205.059C384.099 205.809 383.569 206.445 382.901 206.761L383.234 207.464C384.117 207.047 384.771 206.234 385.107 205.33C385.443 204.426 385.476 203.385 385.056 202.497L384.353 202.829ZM380.421 201.378C381.083 201.065 381.901 201.075 382.651 201.353C383.401 201.631 384.037 202.162 384.353 202.829L385.056 202.497C384.638 201.613 383.826 200.959 382.922 200.624C382.018 200.288 380.977 200.254 380.089 200.675L380.421 201.378ZM378.97 205.309C378.657 204.647 378.667 203.83 378.945 203.08C379.223 202.33 379.754 201.694 380.421 201.378L380.089 200.675C379.205 201.092 378.551 201.905 378.215 202.809C377.88 203.713 377.846 204.753 378.266 205.642L378.97 205.309ZM403.742 205.225C401.12 206.309 398.116 205.063 397.032 202.441L396.313 202.738C397.561 205.757 401.021 207.192 404.04 205.944L403.742 205.225ZM406.526 198.514C407.61 201.136 406.364 204.14 403.742 205.225L404.04 205.944C407.059 204.695 408.494 201.236 407.245 198.217L406.526 198.514ZM399.816 195.73C402.437 194.646 405.442 195.892 406.526 198.514L407.245 198.217C405.997 195.198 402.537 193.763 399.518 195.011L399.816 195.73ZM397.032 202.441C395.947 199.819 397.194 196.815 399.816 195.73L399.518 195.011C396.499 196.26 395.064 199.719 396.313 202.738L397.032 202.441ZM402.817 202.988C401.431 203.561 399.842 202.902 399.269 201.516L398.55 201.813C399.287 203.597 401.331 204.444 403.114 203.707L402.817 202.988ZM404.289 199.439C404.863 200.826 404.203 202.414 402.817 202.988L403.114 203.707C404.898 202.969 405.746 200.925 405.008 199.142L404.289 199.439ZM400.741 197.967C402.127 197.394 403.716 198.053 404.289 199.439L405.008 199.142C404.271 197.358 402.227 196.511 400.443 197.248L400.741 197.967ZM399.269 201.516C398.695 200.129 399.354 198.541 400.741 197.967L400.443 197.248C398.66 197.986 397.812 200.03 398.55 201.813L399.269 201.516Z" fill="black"/>
<path d="M269.844 15.679C272.76 16.6193 269.719 23.0441 267.594 26.5587C267.416 26.853 267.087 27.0166 266.744 26.9908L254.896 26.0999C254.094 26.0397 253.76 25.0752 254.372 24.5551C258.684 20.8948 267.172 14.8173 269.844 15.679Z" fill="#FFDE28" stroke="black" stroke-width="3.20425"/>
<g filter="url(#filter0_i_132_746)">
<path fill-rule="evenodd" clip-rule="evenodd" d="M140.589 149.046C139.827 148.513 139.044 148.303 138.546 148.498L126.613 153.179C126.134 153.367 125.993 153.903 126.243 154.589L132.632 172.143C132.882 172.83 133.486 173.566 134.22 174.079L152.508 186.857C153.27 187.389 154.053 187.599 154.55 187.404L166.484 182.724C166.963 182.536 167.104 182 166.854 181.313L160.465 163.759C160.215 163.072 159.611 162.337 158.877 161.824L140.589 149.046ZM136.546 155.322C136.998 155.089 137.666 154.999 138.315 155.084C139.692 155.264 141.407 156.163 142.856 157.467C144.034 158.526 145.027 159.847 145.557 161.058L145.742 161.481L147.216 161.887L148.691 162.293L148.151 160.81L147.611 159.326L150.089 159.99L152.566 160.654L152.92 161.627L153.275 162.6L151.793 162.203L150.311 161.806L151.576 165.281L152.84 168.756L154.322 169.153L155.804 169.55L156.158 170.523L156.512 171.496L155.031 171.099L153.549 170.702L154.814 174.177L156.078 177.652L157.56 178.049L159.042 178.446L159.396 179.419L159.75 180.392L157.273 179.728L154.795 179.065L154.256 177.581L153.716 176.098L152.25 175.716L150.784 175.335L150.9 175.739C151.463 177.698 150.672 179.061 148.947 179.104C147.666 179.135 146.11 178.517 144.568 177.364C143.653 176.679 142.613 175.614 142.001 174.732C141.812 174.46 141.78 174.43 141.498 174.265C140.586 173.729 139.452 172.773 138.696 171.903C136.974 169.922 136.206 167.798 136.697 166.375C136.741 166.249 136.907 165.997 137.067 165.815L137.358 165.486L136.738 164.912C136.398 164.596 135.992 164.191 135.837 164.012C134.092 161.989 133.312 159.863 133.809 158.475C134.027 157.867 134.635 157.378 135.312 157.267C135.52 157.233 135.535 157.216 135.546 156.998C135.58 156.289 135.985 155.611 136.546 155.322ZM143.586 160.561C143.011 159.375 141.95 158.289 140.68 157.589C140.275 157.365 139.405 157.103 139.05 157.097C138.487 157.087 137.969 157.353 137.779 157.747C137.566 158.19 137.615 158.799 137.925 159.55C138.218 160.258 138.623 160.845 139.276 161.506L139.641 161.875L139.269 162.423C139.064 162.724 138.881 162.967 138.862 162.962C138.799 162.945 138.013 162.172 137.737 161.854C137.187 161.224 136.554 160.322 136.318 159.835C136.261 159.715 136.196 159.613 136.174 159.607C136.1 159.587 135.892 159.908 135.821 160.151C135.706 160.548 135.747 160.89 135.994 161.566C136.227 162.207 136.355 162.432 136.83 163.045C137.548 163.973 138.597 164.775 139.593 165.161C139.818 165.248 140.788 165.527 141.962 165.841L143.949 166.374L144.304 167.347L144.658 168.32L142.67 167.787C141.497 167.473 140.541 167.235 140.338 167.208C139.237 167.058 138.615 167.581 138.644 168.632C138.654 168.982 138.995 169.899 139.291 170.373C139.552 170.79 139.968 171.296 140.347 171.659C140.649 171.948 140.73 171.995 140.676 171.848C140.613 171.674 140.579 171.228 140.601 170.871C140.627 170.443 140.833 169.853 141.031 169.635L141.177 169.474L141.879 170.155C142.265 170.53 142.681 170.933 142.803 171.05L143.024 171.263L142.9 171.45C142.372 172.242 142.893 173.832 144.112 175.147C144.682 175.762 145.52 176.38 146.229 176.709C146.691 176.924 147.435 177.094 147.767 177.061C148.745 176.966 149.162 176.274 148.904 175.173C148.79 174.686 143.84 161.085 143.586 160.561ZM150.85 168.224L150.124 166.231L149.399 164.238L147.939 163.847C146.813 163.545 146.478 163.467 146.478 163.507C146.477 163.536 146.797 164.426 147.188 165.485L147.9 167.411L149.375 167.818L150.85 168.224ZM153.008 174.155L152.283 172.162L151.558 170.169L150.097 169.777C148.972 169.476 148.637 169.398 148.636 169.438C148.635 169.467 148.955 170.357 149.347 171.416L150.059 173.342L151.534 173.748L153.008 174.155Z" fill="#FFDE28"/>
</g>
<defs>
<filter id="filter0_i_132_746" x="126.121" y="148.427" width="40.854" height="39.8975" filterUnits="userSpaceOnUse" color-interpolation-filters="sRGB">
<feFlood flood-opacity="0" result="BackgroundImageFix"/>
<feBlend mode="normal" in="SourceGraphic" in2="BackgroundImageFix" result="shape"/>
<feColorMatrix in="SourceAlpha" type="matrix" values="0 0 0 0 0 0 0 0 0 0 0 0 0 0 0 0 0 0 127 0" result="hardAlpha"/>
<feOffset dy="0.84865"/>
<feGaussianBlur stdDeviation="0.495046"/>
<feComposite in2="hardAlpha" operator="arithmetic" k2="-1" k3="1"/>
<feColorMatrix type="matrix" values="0 0 0 0 0 0 0 0 0 0 0 0 0 0 0 0 0 0 0.4 0"/>
<feBlend mode="normal" in2="shape" result="effect1_innerShadow_132_746"/>
</filter>
<linearGradient id="paint0_linear_132_746" x1="642.668" y1="-79.2353" x2="119.319" y2="336.609" gradientUnits="userSpaceOnUse">
<stop stop-color="#FFDE28"/>
<stop offset="1" stop-color="#FFDE28" stop-opacity="0.1"/>
</linearGradient>
<linearGradient id="paint1_linear_132_746" x1="535.754" y1="229.694" x2="78.5617" y2="251.55" gradientUnits="userSpaceOnUse">
<stop stop-color="#FFEF9A"/>
<stop offset="1" stop-color="#423B17"/>
</linearGradient>
</defs>
</svg>
