<svg width="475" height="338" viewBox="0 0 475 338" fill="none" xmlns="http://www.w3.org/2000/svg">
<path d="M25.4653 245.527C-17.6115 188.968 45.4443 139.554 88 147.5L446 267C453.96 341.462 342 355.5 244.379 311.225C146.679 266.914 70 304 25.4653 245.527Z" fill="url(#paint0_linear_163_113)" stroke="url(#paint1_linear_163_113)" stroke-width="2" stroke-linecap="round"/>
<ellipse cx="205.052" cy="102.105" rx="32.7414" ry="36.6161" transform="rotate(32.248 205.052 102.105)" fill="#222222"/>
<path d="M238.23 294.094L321.536 247.355C322.408 246.865 322.296 245.576 321.353 245.244L157.41 187.616C157.129 187.517 156.82 187.53 156.548 187.652L66.1022 228.304C65.1543 228.73 65.1992 230.091 66.1731 230.454L237.255 294.17C237.575 294.289 237.932 294.261 238.23 294.094Z" fill="#222222" stroke="black" stroke-width="2.7123" stroke-linecap="round"/>
<path d="M211.605 87.1067C192.852 97.646 147.304 147.784 139.684 164.316L410.139 254.791C410.148 200.089 395.279 164.479 395.461 159.564C395.616 155.379 398.754 149.296 400.304 146.777C403.662 135.476 383.442 118.905 378.173 115.495C371.586 111.233 367.323 110.652 358.218 118.595C350.933 124.949 351.889 133.189 349.306 133.512C336.597 123.748 274.911 103.483 242.17 98.0587C245.03 84.5999 246.663 73.0962 233 77C229.5 78 233.646 72.3167 211.605 87.1067Z" fill="#F8F8F8"/>
<path d="M409.752 246.461L410.684 254.23L429.125 260.216L436.487 247.623L439.006 213.138L444.818 201.126L470.003 191.633L468.26 176.909L451.017 173.81L430.869 180.978L419.632 200.739L415.951 237.355L409.752 246.461Z" fill="#F8F8F8"/>
<path d="M426.413 252.466L420.213 258.472L427.188 260.216L431.235 255.606L426.413 252.466Z" fill="#FFDE28"/>
<rect width="8.68363" height="6.24718" transform="matrix(-0.975845 -0.218465 -0.218465 0.975845 426.872 207.209)" fill="#FFDE28"/>
<path d="M462.642 182.915L465.44 194.159L458.468 195.724L457.823 184.976L462.642 182.915Z" fill="#FFDE28"/>
<circle cx="4.8434" cy="4.8434" r="3.48725" transform="matrix(-0.969958 -0.243273 -0.243273 0.969958 461.012 180.902)" stroke="black" stroke-width="2.7123"/>
<path d="M458.186 194.733C458.04 193.188 457.385 188.983 456.309 187.887" stroke="black" stroke-width="2.7123" stroke-linecap="round"/>
<path d="M459.274 183.716L462.629 182.771C462.845 182.711 463.067 182.844 463.114 183.064C463.77 186.16 465.048 191.511 465.16 192.989" stroke="black" stroke-width="2.7123" stroke-linecap="round"/>
<path d="M410.459 246.461C414.257 242.547 417.105 236.41 417.002 226.723C416.688 197.202 425.94 177.347 449.775 174.589C462.941 173.066 469.189 176.198 470.29 183.53C471.534 191.808 465.211 196.144 453.312 197.777C436.897 200.028 437.725 217.725 438.02 231.145C438.215 240.054 435.828 251.38 428.349 260.157" stroke="black" stroke-width="3.87472" stroke-linecap="round"/>
<circle cx="4.8434" cy="4.8434" r="3.48725" transform="matrix(-0.983937 0.178516 0.178516 0.983937 442.732 185.851)" stroke="black" stroke-width="2.7123"/>
<circle cx="4.8434" cy="4.8434" r="3.48725" transform="matrix(-0.908377 0.418152 0.418152 0.908377 436.884 208.227)" stroke="black" stroke-width="2.7123"/>
<circle cx="4.8434" cy="4.8434" r="3.48725" transform="matrix(0.653805 -0.756663 -0.756663 -0.653805 427.349 242.493)" stroke="black" stroke-width="2.7123"/>
<path d="M435.59 188.867C434.619 187.656 431.522 185.194 430.027 184.483" stroke="black" stroke-width="2.7123" stroke-linecap="round"/>
<path d="M430.869 214.3C426.994 213.332 421.569 212.557 417.38 212.468" stroke="black" stroke-width="2.7123" stroke-linecap="round"/>
<path d="M425.849 212.184L427.21 208.042C427.28 207.828 427.155 207.6 426.937 207.547C424.002 206.832 420.209 206.172 418.739 205.996" stroke="black" stroke-width="2.7123" stroke-linecap="round"/>
<path d="M430.972 255.881C429.456 254.345 428.088 253.073 426.568 252.386C426.404 252.312 426.214 252.368 426.109 252.514C425.641 253.162 424.32 254.953 423.078 256.297C422.273 257.169 421.91 257.6 421.182 258.279" stroke="black" stroke-width="2.7123" stroke-linecap="round"/>
<path d="M431.537 236.659C432.223 236.808 435.197 237.154 437.068 237.161" stroke="black" stroke-width="2.7123" stroke-linecap="round"/>
<path fill-rule="evenodd" clip-rule="evenodd" d="M413.924 255.679L416.02 257.407C417.649 255.556 417.636 252.735 415.915 250.899C414.087 248.946 411.022 248.846 409.069 250.675C408.878 250.855 408.703 251.046 408.547 251.248L410.643 252.975C410.724 252.861 410.818 252.754 410.924 252.654C411.783 251.85 413.131 251.894 413.936 252.753C414.713 253.582 414.698 254.867 413.924 255.679Z" fill="black"/>
<path d="M387.838 197.445L406.501 204.848L408.145 214.453L384.944 204.902L387.838 197.445Z" fill="#FFDE28"/>
<circle cx="5.23087" cy="5.23087" r="3.87472" transform="matrix(-0.898998 -0.437953 -0.437953 0.898998 380.337 189.702)" stroke="black" stroke-width="2.7123"/>
<circle cx="5.23087" cy="5.23087" r="3.87472" transform="matrix(-0.951235 0.308468 0.308468 0.951235 362.674 201.359)" stroke="black" stroke-width="2.7123"/>
<circle cx="5.23087" cy="5.23087" r="3.87472" transform="matrix(-0.951235 0.308468 0.308468 0.951235 362.674 201.359)" stroke="black" stroke-width="2.7123"/>
<circle cx="5.23087" cy="5.23087" r="3.87472" transform="matrix(-0.948435 0.316973 0.316973 0.948435 369.624 167.545)" stroke="black" stroke-width="2.7123"/>
<path d="M362.99 209.322C373.973 212.253 395.002 220.316 408.977 226.312" stroke="black" stroke-width="2.7123" stroke-linecap="round"/>
<path d="M362.99 209.322C373.973 212.253 395.002 220.316 408.977 226.312" stroke="black" stroke-width="2.7123" stroke-linecap="round"/>
<path d="M370.292 175.816C380.928 178.553 390.952 181.698 402.971 186.209" stroke="black" stroke-width="2.7123" stroke-linecap="round"/>
<path d="M377.554 193.732C381.335 194.788 379.723 194.346 386.891 196.67M386.891 196.67C386.121 200.011 386.182 201.033 385.196 203.816C385.086 204.127 385.23 204.473 385.534 204.602C390.537 206.727 400.423 210.429 406.692 213.587M386.891 196.67C390.893 198.091 400.478 201.625 406.692 204.113" stroke="black" stroke-width="2.7123" stroke-linecap="round"/>
<path d="M370.272 130.941C367.992 129.231 364.749 134.956 363.204 138.482C363.065 138.798 363.158 139.164 363.423 139.384L370.321 145.094C370.792 145.484 371.506 145.209 371.578 144.602C372.12 140.024 372.436 132.563 370.272 130.941Z" fill="#FFDE28" stroke="black" stroke-width="2.7123"/>
<path d="M210.831 87.8818C220.084 81.2287 234.808 72.3169 241.008 77.1603C245.588 80.7385 244.301 89.3654 242.557 97.8897C254.336 99.1816 273.943 102.965 292.154 109.126C317.921 117.844 341.667 127.416 348.964 133.022C351.825 128.113 353.32 124.802 357.056 119.976C361.705 113.97 364.999 111.451 371.586 115.713C376.855 119.123 384.566 132.181 387.86 139.543C389.451 143.1 394.841 156.154 394.686 160.339C394.499 165.397 411.369 196.324 410.379 254.107" stroke="black" stroke-width="3.87472" stroke-linecap="round"/>
<path d="M84.4871 145.921L445.786 266.63" stroke="black" stroke-width="2.7123" stroke-linecap="round"/>
<path d="M253.127 228.89L212.951 214.412C212.671 214.311 212.363 214.321 212.09 214.441L189.653 224.272C188.693 224.693 188.736 226.069 189.721 226.428L231.44 241.679C232.5 242.066 233.677 241.972 234.662 241.421L253.3 230.998C254.17 230.511 254.064 229.228 253.127 228.89Z" fill="#4D4D4D" stroke="black" stroke-width="2.7123"/>
<path d="M299.322 213.229L356.862 226.312L353.614 238.027L341.409 249.651L312.542 264.569L291.618 259.725L284.838 246.358L289.487 226.403L294.285 221.856L299.322 213.229Z" fill="#F8F8F8"/>
<path d="M138.955 162.858H200.95L199.936 185.24L180.414 195.793L152.904 204.317L133.724 196.761L133.336 179.325L134.259 175.166L138.955 162.858Z" fill="#F8F8F8"/>
<path d="M371.622 129.584C369.306 128.477 367.452 134.068 366.698 137.477C366.624 137.814 366.786 138.155 367.09 138.319L374.06 142.074C374.599 142.364 375.245 141.955 375.194 141.345C374.851 137.179 373.807 130.629 371.622 129.584Z" fill="#FFDE28" stroke="black" stroke-width="1.30833"/>
<path fill-rule="evenodd" clip-rule="evenodd" d="M163.821 126.765C164.402 128.308 165.701 129.552 167.419 129.993C170.217 130.711 173.068 129.025 173.786 126.226C174.474 123.544 172.953 120.814 170.361 119.96L167.866 122.556C168.325 122.391 168.837 122.356 169.345 122.487C170.692 122.832 171.504 124.205 171.158 125.552C170.813 126.9 169.44 127.712 168.093 127.366C166.746 127.02 165.934 125.648 166.279 124.301C166.291 124.256 166.303 124.212 166.317 124.169L163.821 126.765Z" fill="black"/>
<circle cx="170.131" cy="142.57" r="3.87472" transform="rotate(54.9655 170.131 142.57)" stroke="black" stroke-width="2.7123"/>
<circle cx="186.472" cy="114.933" r="3.87472" transform="rotate(55.6524 186.472 114.933)" stroke="black" stroke-width="2.7123"/>
<path d="M166.366 141.454C163.457 140.268 159.82 138.946 155.775 137.576" stroke="black" stroke-width="2.7123" stroke-linecap="round"/>
<path d="M181.99 112.886C181.038 112.366 180.014 111.821 178.926 111.256" stroke="black" stroke-width="2.7123" stroke-linecap="round"/>
<rect x="341.975" y="127.383" width="77.4944" height="77.4944" rx="38.7472" transform="rotate(-18.2049 341.975 127.383)" fill="#222222"/>
<g filter="url(#filter0_i_163_113)">
<path fill-rule="evenodd" clip-rule="evenodd" d="M390.53 130.916C389.782 130.728 388.991 130.942 388.44 131.48L373.744 145.834C373.17 146.396 372.943 147.224 373.153 148L378.35 167.237C378.56 168.013 379.172 168.614 379.951 168.81L399.876 173.811C400.623 173.999 401.414 173.785 401.966 173.247L416.661 158.893C417.236 158.331 417.462 157.503 417.253 156.727L412.055 137.49C411.846 136.714 411.233 136.113 410.454 135.917L390.53 130.916ZM385.117 142.074C385.677 141.46 386.471 140.893 387.22 140.574C388.81 139.897 390.703 139.962 392.232 140.746C393.475 141.383 394.467 142.494 394.932 143.768L395.094 144.212L396.769 143.774L398.444 143.336L398.003 141.704L397.562 140.072L400.378 139.311L403.195 138.55L403.484 139.621L403.773 140.691L402.088 141.146L400.404 141.601L401.437 145.424L402.47 149.248L404.154 148.793L405.839 148.337L406.128 149.408L406.417 150.478L404.733 150.934L403.048 151.389L404.081 155.212L405.114 159.035L406.798 158.58L408.483 158.125L408.772 159.195L409.061 160.266L406.245 161.027L403.429 161.788L402.988 160.156L402.547 158.524L400.879 158.989L399.211 159.454L399.295 159.919C399.701 162.175 398.598 164.533 396.573 165.74C395.068 166.637 393.325 166.845 391.668 166.324C390.684 166.015 389.604 165.278 389.001 164.503C388.814 164.264 388.78 164.245 388.472 164.21C387.473 164.099 386.268 163.571 385.495 162.908C383.733 161.395 383.108 159.055 383.867 156.817C383.935 156.618 384.162 156.169 384.373 155.819L384.756 155.182L384.104 154.825C383.746 154.628 383.323 154.354 383.165 154.217C381.381 152.665 380.743 150.329 381.504 148.134C381.837 147.172 382.613 146.11 383.42 145.51C383.669 145.325 383.689 145.292 383.729 144.991C383.861 144.017 384.422 142.837 385.117 142.074ZM392.687 144.415C392.167 143.205 391.064 142.455 389.667 142.361C389.221 142.331 388.237 142.558 387.822 142.787C387.163 143.15 386.522 143.852 386.248 144.509C385.942 145.245 385.921 146.03 386.187 146.832C386.438 147.587 386.837 148.105 387.517 148.558L387.896 148.811L387.39 149.795C387.111 150.336 386.865 150.783 386.844 150.789C386.772 150.808 385.951 150.295 385.668 150.053C385.106 149.573 384.481 148.784 384.268 148.287C384.216 148.165 384.153 148.07 384.128 148.077C384.044 148.099 383.759 148.668 383.645 149.042C383.458 149.652 383.463 150.084 383.664 150.827C383.855 151.532 383.975 151.75 384.452 152.257C385.174 153.023 386.298 153.402 387.416 153.255C387.668 153.222 388.769 152.949 390.103 152.589L392.362 151.978L392.652 153.049L392.941 154.119L390.681 154.73C389.347 155.09 388.259 155.408 388.024 155.507C386.754 156.039 385.958 157.157 385.856 158.549C385.822 159.013 386.103 160.017 386.39 160.456C386.641 160.842 387.063 161.244 387.46 161.479C387.776 161.666 387.865 161.674 387.821 161.513C387.77 161.321 387.787 160.746 387.859 160.251C387.946 159.659 388.263 158.729 388.522 158.305L388.715 157.99L389.449 158.437C389.853 158.683 390.287 158.947 390.415 159.023L390.647 159.162L390.478 159.495C389.757 160.911 390.162 162.698 391.42 163.651C392.009 164.098 392.91 164.369 393.698 164.338C394.211 164.318 395.061 164.05 395.455 163.785C396.613 163.004 397.19 161.797 397.03 160.49C396.959 159.913 392.917 144.949 392.687 144.415ZM400.206 149.861L399.614 147.668L399.022 145.475L397.362 145.924C396.082 146.269 395.7 146.388 395.694 146.443C395.689 146.481 395.949 147.464 396.271 148.625L396.856 150.737L398.531 150.299L400.206 149.861ZM401.969 156.385L401.377 154.193L400.784 152L399.125 152.449C397.845 152.794 397.463 152.913 397.457 152.968C397.452 153.006 397.712 153.988 398.034 155.15L398.619 157.262L400.294 156.824L401.969 156.385Z" fill="#FFDE28"/>
</g>
<path d="M207.491 73.0914C207.491 73.0914 234.767 34.6055 312.884 57.2052C374.492 75.0289 397.159 122.47 397.159 122.47L372.748 131.188C372.748 131.188 356.668 92.0775 302.228 74.6413C247.788 57.2052 228.221 75.9974 228.221 75.9974L207.491 73.0914Z" fill="#222222"/>
<path d="M210.249 88.2693C165.109 117.523 119.371 177.969 135.661 197.73C147.479 212.067 186.226 197.924 199.981 184.556" stroke="black" stroke-width="3.87472" stroke-linecap="round"/>
<path fill-rule="evenodd" clip-rule="evenodd" d="M145.888 184.963C143.526 185.001 141.58 183.117 141.542 180.755C141.537 180.435 141.567 180.123 141.629 179.822C139.103 178.665 136.471 177.726 133.839 176.964L134.382 175.171C137.078 175.952 139.787 176.918 142.401 178.115C143.167 177.097 144.378 176.432 145.75 176.409C148.112 176.371 150.057 178.255 150.095 180.617C150.133 182.979 148.249 184.925 145.888 184.963ZM137.818 163.177L138.062 163.017L137.16 165.994C137.42 168.245 139.404 169.919 141.689 169.768C144.047 169.613 145.832 167.577 145.677 165.22C145.522 162.863 143.486 161.078 141.128 161.232C139.727 161.325 138.527 162.082 137.818 163.177ZM145.861 183.29C144.534 183.312 143.224 182.088 143.203 180.761C143.181 179.434 144.405 178.124 145.732 178.103C147.059 178.081 148.369 179.305 148.39 180.632C148.412 181.959 147.188 183.269 145.861 183.29ZM136.371 195.296C134.014 195.451 131.978 193.666 131.823 191.308C131.668 188.951 133.453 186.915 135.81 186.76C138.167 186.605 140.204 188.39 140.359 190.747C140.514 193.105 138.729 195.141 136.371 195.296ZM136.249 193.426C134.924 193.513 133.78 192.51 133.692 191.186C133.605 189.861 134.609 188.717 135.933 188.63C137.258 188.542 138.402 189.546 138.489 190.87C138.576 192.195 137.573 193.339 136.249 193.426ZM141.567 167.899C140.242 167.986 139.098 166.983 139.011 165.658C138.923 164.333 139.927 163.189 141.251 163.102C142.576 163.015 143.72 164.018 143.807 165.343C143.894 166.667 142.891 167.812 141.567 167.899Z" fill="black"/>
<path d="M141.542 180.755L141.871 180.75L141.871 180.75L141.542 180.755ZM145.888 184.963L145.893 185.292L145.893 185.292L145.888 184.963ZM141.629 179.822L141.766 179.522L142.004 179.631L141.951 179.888L141.629 179.822ZM133.839 176.964L133.747 177.281L133.427 177.188L133.523 176.869L133.839 176.964ZM134.382 175.171L134.066 175.076L134.161 174.764L134.473 174.855L134.382 175.171ZM142.401 178.115L142.664 178.313L142.504 178.524L142.263 178.414L142.401 178.115ZM145.75 176.409L145.755 176.739L145.75 176.409ZM150.095 180.617L150.425 180.612L150.425 180.612L150.095 180.617ZM137.818 163.177L137.998 163.452L137.541 162.998L137.818 163.177ZM138.062 163.017L137.881 162.741L138.64 162.245L138.377 163.112L138.062 163.017ZM137.16 165.994L136.833 166.032L136.825 165.964L136.845 165.899L137.16 165.994ZM141.689 169.768L141.711 170.097L141.689 169.768ZM145.677 165.22L146.006 165.198L146.006 165.198L145.677 165.22ZM141.128 161.232L141.15 161.561L141.128 161.232ZM143.203 180.761L143.532 180.756L143.203 180.761ZM145.861 183.29L145.866 183.62L145.866 183.62L145.861 183.29ZM145.732 178.103L145.727 177.773L145.727 177.773L145.732 178.103ZM148.39 180.632L148.061 180.637L148.39 180.632ZM131.823 191.308L131.494 191.33L131.494 191.33L131.823 191.308ZM136.371 195.296L136.393 195.625L136.393 195.625L136.371 195.296ZM140.359 190.747L140.687 190.726L140.687 190.726L140.359 190.747ZM133.692 191.186L134.021 191.164L134.021 191.164L133.692 191.186ZM136.249 193.426L136.227 193.098L136.227 193.098L136.249 193.426ZM135.933 188.63L135.955 188.958L135.933 188.63ZM138.489 190.87L138.818 190.849L138.489 190.87ZM139.011 165.658L138.682 165.68L139.011 165.658ZM141.567 167.899L141.545 167.57L141.545 167.57L141.567 167.899ZM141.251 163.102L141.273 163.431L141.273 163.431L141.251 163.102ZM141.871 180.75C141.906 182.93 143.702 184.668 145.882 184.633L145.893 185.292C143.349 185.333 141.254 183.304 141.213 180.76L141.871 180.75ZM141.951 179.888C141.894 180.166 141.867 180.454 141.871 180.75L141.213 180.76C141.207 180.416 141.24 180.08 141.306 179.756L141.951 179.888ZM133.93 176.648C136.576 177.413 139.223 178.358 141.766 179.522L141.492 180.121C138.983 178.972 136.367 178.039 133.747 177.281L133.93 176.648ZM134.697 175.266L134.154 177.06L133.523 176.869L134.066 175.076L134.697 175.266ZM142.263 178.414C139.667 177.226 136.973 176.265 134.29 175.487L134.473 174.855C137.182 175.639 139.907 176.611 142.538 177.815L142.263 178.414ZM145.755 176.739C144.489 176.759 143.371 177.373 142.664 178.313L142.138 177.916C142.962 176.822 144.266 176.104 145.744 176.08L145.755 176.739ZM149.766 180.622C149.731 178.442 147.935 176.704 145.755 176.739L145.744 176.08C148.288 176.039 150.383 178.068 150.425 180.612L149.766 180.622ZM145.882 184.633C148.062 184.598 149.801 182.802 149.766 180.622L150.425 180.612C150.466 183.156 148.437 185.251 145.893 185.292L145.882 184.633ZM137.637 162.901L137.881 162.741L138.242 163.292L137.998 163.452L137.637 162.901ZM138.377 163.112L137.476 166.09L136.845 165.899L137.747 162.921L138.377 163.112ZM137.488 165.956C137.727 168.033 139.559 169.578 141.668 169.44L141.711 170.097C139.25 170.259 137.113 168.456 136.833 166.032L137.488 165.956ZM141.668 169.44C143.844 169.297 145.491 167.417 145.348 165.241L146.006 165.198C146.172 167.737 144.25 169.93 141.711 170.097L141.668 169.44ZM145.348 165.241C145.205 163.066 143.326 161.418 141.15 161.561L141.107 160.904C143.645 160.737 145.839 162.66 146.006 165.198L145.348 165.241ZM141.15 161.561C139.856 161.646 138.749 162.345 138.094 163.356L137.541 162.998C138.305 161.82 139.597 161.003 141.107 160.904L141.15 161.561ZM143.532 180.756C143.541 181.313 143.823 181.871 144.269 182.292C144.714 182.713 145.293 182.97 145.856 182.961L145.866 183.62C145.102 183.632 144.362 183.288 143.816 182.771C143.269 182.254 142.886 181.536 142.873 180.766L143.532 180.756ZM145.737 178.432C145.18 178.441 144.622 178.723 144.201 179.168C143.78 179.614 143.523 180.193 143.532 180.756L142.873 180.766C142.861 180.001 143.205 179.262 143.722 178.716C144.239 178.169 144.957 177.786 145.727 177.773L145.737 178.432ZM148.061 180.637C148.052 180.08 147.77 179.522 147.325 179.101C146.879 178.68 146.3 178.423 145.737 178.432L145.727 177.773C146.492 177.761 147.231 178.105 147.777 178.622C148.324 179.139 148.707 179.857 148.72 180.627L148.061 180.637ZM145.856 182.961C146.413 182.952 146.971 182.67 147.392 182.224C147.813 181.779 148.07 181.2 148.061 180.637L148.72 180.627C148.732 181.391 148.388 182.131 147.871 182.677C147.354 183.224 146.636 183.607 145.866 183.62L145.856 182.961ZM132.152 191.287C132.295 193.463 134.174 195.11 136.35 194.967L136.393 195.625C133.854 195.791 131.661 193.869 131.494 191.33L132.152 191.287ZM135.832 187.089C133.656 187.232 132.009 189.111 132.152 191.287L131.494 191.33C131.327 188.791 133.25 186.598 135.789 186.431L135.832 187.089ZM140.03 190.769C139.887 188.593 138.008 186.946 135.832 187.089L135.789 186.431C138.327 186.265 140.521 188.187 140.687 190.726L140.03 190.769ZM136.35 194.967C138.525 194.824 140.173 192.945 140.03 190.769L140.687 190.726C140.854 193.264 138.932 195.458 136.393 195.625L136.35 194.967ZM134.021 191.164C134.096 192.307 135.084 193.173 136.227 193.098L136.27 193.755C134.764 193.854 133.463 192.713 133.364 191.207L134.021 191.164ZM135.955 188.958C134.812 189.033 133.946 190.021 134.021 191.164L133.364 191.207C133.265 189.701 134.406 188.4 135.912 188.301L135.955 188.958ZM138.161 190.892C138.086 189.749 137.098 188.883 135.955 188.958L135.912 188.301C137.418 188.202 138.719 189.343 138.818 190.849L138.161 190.892ZM136.227 193.098C137.37 193.023 138.236 192.035 138.161 190.892L138.818 190.849C138.917 192.355 137.776 193.656 136.27 193.755L136.227 193.098ZM139.339 165.636C139.414 166.78 140.402 167.645 141.545 167.57L141.588 168.227C140.082 168.326 138.781 167.186 138.682 165.68L139.339 165.636ZM141.273 163.431C140.13 163.506 139.264 164.493 139.339 165.636L138.682 165.68C138.583 164.173 139.724 162.872 141.23 162.773L141.273 163.431ZM143.479 165.364C143.404 164.221 142.416 163.355 141.273 163.431L141.23 162.773C142.736 162.674 144.037 163.815 144.136 165.321L143.479 165.364ZM141.545 167.57C142.688 167.495 143.554 166.507 143.479 165.364L144.136 165.321C144.235 166.827 143.094 168.128 141.588 168.227L141.545 167.57Z" fill="black"/>
<path d="M354.001 236.284C345.562 249.249 311.573 274.7 291.037 258.757C282.466 252.103 283.501 234.413 297.143 217.297C298.611 215.456 300.193 213.642 301.887 211.873" stroke="black" stroke-width="3.87472" stroke-linecap="round"/>
<ellipse cx="210.329" cy="154.973" rx="6.56377" ry="11.9554" transform="rotate(-69.5962 210.329 154.973)" fill="#FFDE28"/>
<ellipse cx="309.668" cy="188.196" rx="6.56378" ry="11.9554" transform="rotate(-75.6503 309.668 188.196)" fill="#FFDE28"/>
<ellipse cx="225.766" cy="155.451" rx="6.56377" ry="11.9554" transform="rotate(-69.7616 225.766 155.451)" fill="black"/>
<ellipse cx="298.249" cy="179.548" rx="6.56377" ry="11.9554" transform="rotate(109.388 298.249 179.548)" fill="black"/>
<path d="M200.248 198.817L236.296 291.825C236.656 292.752 235.761 293.674 234.824 293.341L65.3147 233.164C65.0025 233.053 64.7524 232.814 64.6273 232.508L27.6202 141.774C27.2439 140.852 28.1269 139.914 29.0704 140.235L199.538 198.137C199.864 198.247 200.124 198.496 200.248 198.817Z" fill="#222222" stroke="black" stroke-width="2.7123" stroke-linecap="round"/>
<path d="M126.145 227.931C113.763 225.455 110.147 210.592 113.355 204.157C113.469 203.93 113.769 203.893 113.948 204.074L121.629 211.79C121.772 211.934 122.001 211.943 122.155 211.812L128.711 206.214C128.876 206.074 129.121 206.092 129.256 206.261C135.637 214.238 138.737 230.45 126.145 227.931Z" stroke="#FFDE28" stroke-width="1.93736"/>
<mask id="path-56-outside-1_163_113" maskUnits="userSpaceOnUse" x="116.597" y="214.511" width="15.3782" height="7.85227" fill="black">
<rect fill="white" x="116.597" y="214.511" width="15.3782" height="7.85227"/>
<path d="M120.774 215.679C120.929 215.701 121.059 215.715 121.162 215.721L121.476 215.739C121.581 215.745 121.693 215.741 121.81 215.728L121.63 218.852C121.594 219.471 121.377 219.958 120.981 220.311C120.605 220.646 120.149 220.798 119.613 220.767C119.026 220.733 118.56 220.553 118.215 220.228C117.829 219.862 117.655 219.356 117.692 218.712L117.877 215.512C118.085 215.537 118.281 215.554 118.465 215.565C118.651 215.576 118.805 215.574 118.927 215.561L118.739 218.821C118.721 219.139 118.804 219.391 118.988 219.579C119.16 219.75 119.382 219.844 119.654 219.86C120.057 219.883 120.337 219.692 120.494 219.286C120.55 219.141 120.585 218.958 120.598 218.739L120.774 215.679ZM125.102 215.853C125.573 215.88 125.97 215.985 126.293 216.168L126.226 217.324L126.218 217.331C126.09 217.107 125.801 216.946 125.352 216.849C125.219 216.819 125.051 216.798 124.847 216.786C124.643 216.774 124.441 216.802 124.24 216.868C124.039 216.933 123.872 217.032 123.738 217.165C123.478 217.426 123.333 217.81 123.304 218.319C123.269 218.911 123.399 219.361 123.692 219.668C123.935 219.925 124.268 220.065 124.691 220.09C125.169 220.117 125.563 220.038 125.872 219.851C125.985 219.784 126.082 219.699 126.164 219.595L126.174 219.603L126.113 220.661C125.71 220.958 125.182 221.088 124.529 221.051C123.761 221.006 123.173 220.727 122.766 220.213C122.375 219.723 122.201 219.094 122.246 218.326C122.293 217.513 122.559 216.885 123.044 216.443C123.535 215.999 124.221 215.802 125.102 215.853ZM128.03 221.252C127.622 221.229 127.239 221.174 126.883 221.088L127.175 216.033C127.509 216.012 127.896 216.014 128.334 216.04C128.775 216.065 129.169 216.148 129.517 216.29C129.868 216.429 130.157 216.616 130.383 216.851C130.841 217.322 131.047 217.957 131.001 218.756C130.95 219.65 130.641 220.313 130.075 220.745C129.568 221.133 128.886 221.302 128.03 221.252ZM127.913 220.321C128.075 220.361 128.238 220.385 128.401 220.395C128.565 220.404 128.743 220.383 128.936 220.331C129.128 220.276 129.298 220.185 129.444 220.057C129.758 219.787 129.931 219.377 129.962 218.828C130.014 217.927 129.718 217.354 129.072 217.109C128.859 217.029 128.611 216.98 128.326 216.964L128.224 216.958C128.186 216.956 128.147 216.955 128.107 216.955L127.913 220.321Z"/>
</mask>
<path d="M120.774 215.679C120.929 215.701 121.059 215.715 121.162 215.721L121.476 215.739C121.581 215.745 121.693 215.741 121.81 215.728L121.63 218.852C121.594 219.471 121.377 219.958 120.981 220.311C120.605 220.646 120.149 220.798 119.613 220.767C119.026 220.733 118.56 220.553 118.215 220.228C117.829 219.862 117.655 219.356 117.692 218.712L117.877 215.512C118.085 215.537 118.281 215.554 118.465 215.565C118.651 215.576 118.805 215.574 118.927 215.561L118.739 218.821C118.721 219.139 118.804 219.391 118.988 219.579C119.16 219.75 119.382 219.844 119.654 219.86C120.057 219.883 120.337 219.692 120.494 219.286C120.55 219.141 120.585 218.958 120.598 218.739L120.774 215.679ZM125.102 215.853C125.573 215.88 125.97 215.985 126.293 216.168L126.226 217.324L126.218 217.331C126.09 217.107 125.801 216.946 125.352 216.849C125.219 216.819 125.051 216.798 124.847 216.786C124.643 216.774 124.441 216.802 124.24 216.868C124.039 216.933 123.872 217.032 123.738 217.165C123.478 217.426 123.333 217.81 123.304 218.319C123.269 218.911 123.399 219.361 123.692 219.668C123.935 219.925 124.268 220.065 124.691 220.09C125.169 220.117 125.563 220.038 125.872 219.851C125.985 219.784 126.082 219.699 126.164 219.595L126.174 219.603L126.113 220.661C125.71 220.958 125.182 221.088 124.529 221.051C123.761 221.006 123.173 220.727 122.766 220.213C122.375 219.723 122.201 219.094 122.246 218.326C122.293 217.513 122.559 216.885 123.044 216.443C123.535 215.999 124.221 215.802 125.102 215.853ZM128.03 221.252C127.622 221.229 127.239 221.174 126.883 221.088L127.175 216.033C127.509 216.012 127.896 216.014 128.334 216.04C128.775 216.065 129.169 216.148 129.517 216.29C129.868 216.429 130.157 216.616 130.383 216.851C130.841 217.322 131.047 217.957 131.001 218.756C130.95 219.65 130.641 220.313 130.075 220.745C129.568 221.133 128.886 221.302 128.03 221.252ZM127.913 220.321C128.075 220.361 128.238 220.385 128.401 220.395C128.565 220.404 128.743 220.383 128.936 220.331C129.128 220.276 129.298 220.185 129.444 220.057C129.758 219.787 129.931 219.377 129.962 218.828C130.014 217.927 129.718 217.354 129.072 217.109C128.859 217.029 128.611 216.98 128.326 216.964L128.224 216.958C128.186 216.956 128.147 216.955 128.107 216.955L127.913 220.321Z" fill="#FFDE28"/>
<path d="M120.774 215.679L120.785 215.602L120.702 215.591L120.697 215.675L120.774 215.679ZM121.81 215.728L121.887 215.732L121.892 215.64L121.801 215.651L121.81 215.728ZM118.215 220.228L118.161 220.284L118.162 220.284L118.215 220.228ZM117.877 215.512L117.886 215.435L117.804 215.425L117.799 215.508L117.877 215.512ZM118.927 215.561L119.005 215.566L119.01 215.474L118.919 215.484L118.927 215.561ZM118.988 219.579L118.932 219.633L118.933 219.633L118.988 219.579ZM120.494 219.286L120.566 219.315L120.566 219.314L120.494 219.286ZM120.763 215.756C120.92 215.778 121.051 215.792 121.158 215.798L121.167 215.643C121.066 215.637 120.939 215.624 120.785 215.602L120.763 215.756ZM121.158 215.798L121.471 215.816L121.48 215.661L121.167 215.643L121.158 215.798ZM121.471 215.816C121.582 215.822 121.698 215.818 121.819 215.805L121.801 215.651C121.688 215.664 121.581 215.667 121.48 215.661L121.471 215.816ZM121.732 215.723L121.552 218.847L121.707 218.856L121.887 215.732L121.732 215.723ZM121.552 218.847C121.517 219.45 121.308 219.916 120.929 220.254L121.032 220.369C121.447 220 121.67 219.492 121.707 218.856L121.552 218.847ZM120.929 220.254C120.57 220.573 120.135 220.719 119.617 220.69L119.608 220.844C120.164 220.876 120.64 220.719 121.032 220.369L120.929 220.254ZM119.617 220.69C119.044 220.656 118.597 220.482 118.268 220.171L118.162 220.284C118.523 220.625 119.008 220.81 119.608 220.844L119.617 220.69ZM118.268 220.171C117.903 219.825 117.733 219.343 117.769 218.716L117.615 218.707C117.576 219.369 117.756 219.899 118.161 220.284L118.268 220.171ZM117.769 218.716L117.954 215.517L117.799 215.508L117.615 218.707L117.769 218.716ZM117.867 215.589C118.077 215.614 118.275 215.632 118.46 215.642L118.469 215.488C118.287 215.477 118.093 215.46 117.886 215.435L117.867 215.589ZM118.46 215.642C118.649 215.653 118.808 215.652 118.936 215.638L118.919 215.484C118.803 215.497 118.653 215.498 118.469 215.488L118.46 215.642ZM118.85 215.557L118.662 218.817L118.817 218.826L119.005 215.566L118.85 215.557ZM118.662 218.817C118.643 219.151 118.73 219.427 118.932 219.633L119.043 219.524C118.878 219.356 118.799 219.126 118.817 218.826L118.662 218.817ZM118.933 219.633C119.12 219.82 119.361 219.92 119.649 219.937L119.658 219.782C119.403 219.767 119.199 219.68 119.042 219.524L118.933 219.633ZM119.649 219.937C119.864 219.949 120.053 219.905 120.21 219.798C120.366 219.691 120.483 219.528 120.566 219.315L120.422 219.258C120.347 219.451 120.246 219.585 120.122 219.67C119.999 219.754 119.846 219.793 119.658 219.782L119.649 219.937ZM120.566 219.314C120.626 219.159 120.662 218.968 120.675 218.744L120.52 218.735C120.508 218.949 120.474 219.123 120.422 219.259L120.566 219.314ZM120.675 218.744L120.851 215.684L120.697 215.675L120.52 218.735L120.675 218.744ZM126.293 216.168L126.37 216.173L126.373 216.124L126.331 216.101L126.293 216.168ZM126.226 217.324L126.278 217.382L126.302 217.361L126.304 217.329L126.226 217.324ZM126.218 217.331L126.151 217.37L126.199 217.453L126.27 217.389L126.218 217.331ZM125.352 216.849L125.334 216.925L125.335 216.925L125.352 216.849ZM124.24 216.868L124.264 216.942L124.264 216.942L124.24 216.868ZM123.738 217.165L123.683 217.111L123.683 217.111L123.738 217.165ZM123.692 219.668L123.748 219.615L123.748 219.615L123.692 219.668ZM125.872 219.851L125.833 219.784L125.832 219.784L125.872 219.851ZM126.164 219.595L126.21 219.533L126.15 219.487L126.103 219.547L126.164 219.595ZM126.174 219.603L126.252 219.607L126.254 219.566L126.221 219.541L126.174 219.603ZM126.113 220.661L126.159 220.723L126.189 220.701L126.191 220.665L126.113 220.661ZM122.766 220.213L122.827 220.165L122.827 220.165L122.766 220.213ZM123.044 216.443L122.992 216.386L122.992 216.386L123.044 216.443ZM125.098 215.93C125.56 215.957 125.945 216.06 126.255 216.236L126.331 216.101C125.995 215.911 125.586 215.803 125.107 215.776L125.098 215.93ZM126.216 216.164L126.149 217.32L126.304 217.329L126.37 216.173L126.216 216.164ZM126.175 217.266L126.167 217.273L126.27 217.389L126.278 217.382L126.175 217.266ZM126.286 217.293C126.14 217.038 125.823 216.871 125.368 216.773L125.335 216.925C125.779 217.02 126.039 217.175 126.151 217.37L126.286 217.293ZM125.369 216.774C125.231 216.742 125.058 216.72 124.852 216.709L124.843 216.863C125.045 216.875 125.208 216.896 125.334 216.925L125.369 216.774ZM124.852 216.709C124.638 216.696 124.426 216.725 124.216 216.795L124.264 216.942C124.456 216.878 124.649 216.852 124.843 216.863L124.852 216.709ZM124.216 216.795C124.005 216.862 123.827 216.967 123.683 217.111L123.792 217.22C123.917 217.096 124.073 217.003 124.264 216.942L124.216 216.795ZM123.683 217.111C123.405 217.389 123.256 217.794 123.226 218.315L123.381 218.324C123.41 217.826 123.55 217.463 123.793 217.22L123.683 217.111ZM123.226 218.315C123.191 218.919 123.323 219.393 123.636 219.722L123.748 219.615C123.475 219.328 123.348 218.903 123.381 218.324L123.226 218.315ZM123.636 219.721C123.895 219.995 124.248 220.142 124.686 220.167L124.695 220.012C124.288 219.989 123.975 219.854 123.748 219.615L123.636 219.721ZM124.686 220.167C125.176 220.195 125.586 220.114 125.912 219.917L125.832 219.784C125.54 219.961 125.163 220.039 124.695 220.012L124.686 220.167ZM125.912 219.917C126.032 219.846 126.137 219.754 126.224 219.643L126.103 219.547C126.027 219.643 125.937 219.722 125.833 219.784L125.912 219.917ZM126.117 219.657L126.128 219.665L126.221 219.541L126.21 219.533L126.117 219.657ZM126.097 219.598L126.036 220.656L126.191 220.665L126.252 219.607L126.097 219.598ZM126.067 220.598C125.682 220.882 125.174 221.01 124.534 220.973L124.525 221.128C125.19 221.166 125.737 221.034 126.159 220.723L126.067 220.598ZM124.534 220.973C123.784 220.93 123.218 220.659 122.827 220.165L122.705 220.262C123.129 220.796 123.739 221.083 124.525 221.128L124.534 220.973ZM122.827 220.165C122.45 219.693 122.28 219.084 122.323 218.331L122.168 218.322C122.123 219.104 122.3 219.754 122.705 220.262L122.827 220.165ZM122.323 218.331C122.369 217.532 122.629 216.926 123.096 216.5L122.992 216.386C122.488 216.845 122.216 217.493 122.168 218.322L122.323 218.331ZM123.096 216.501C123.567 216.074 124.23 215.88 125.098 215.93L125.107 215.776C124.212 215.724 123.503 215.923 122.992 216.386L123.096 216.501ZM126.883 221.088L126.806 221.083L126.802 221.148L126.865 221.163L126.883 221.088ZM127.175 216.033L127.17 215.956L127.101 215.96L127.097 216.029L127.175 216.033ZM129.517 216.29L129.488 216.362L129.489 216.362L129.517 216.29ZM130.383 216.851L130.327 216.905L130.328 216.905L130.383 216.851ZM130.075 220.745L130.122 220.807L130.122 220.807L130.075 220.745ZM127.913 220.321L127.835 220.316L127.832 220.381L127.894 220.396L127.913 220.321ZM128.936 220.331L128.956 220.405L128.957 220.405L128.936 220.331ZM129.444 220.057L129.394 219.998L129.393 219.998L129.444 220.057ZM129.072 217.109L129.1 217.037L129.1 217.037L129.072 217.109ZM128.107 216.955L128.107 216.878L128.034 216.878L128.03 216.951L128.107 216.955ZM128.034 221.175C127.63 221.152 127.253 221.097 126.901 221.012L126.865 221.163C127.226 221.251 127.613 221.306 128.025 221.33L128.034 221.175ZM126.96 221.092L127.252 216.038L127.097 216.029L126.806 221.083L126.96 221.092ZM127.18 216.111C127.51 216.09 127.894 216.092 128.33 216.117L128.339 215.962C127.898 215.937 127.508 215.935 127.17 215.956L127.18 216.111ZM128.33 216.117C128.763 216.142 129.149 216.224 129.488 216.362L129.547 216.218C129.189 216.073 128.786 215.988 128.339 215.962L128.33 216.117ZM129.489 216.362C129.831 216.497 130.11 216.679 130.327 216.905L130.439 216.798C130.204 216.553 129.905 216.36 129.546 216.218L129.489 216.362ZM130.328 216.905C130.767 217.358 130.969 217.969 130.924 218.751L131.078 218.76C131.125 217.945 130.915 217.287 130.439 216.797L130.328 216.905ZM130.924 218.751C130.873 219.629 130.571 220.268 130.028 220.683L130.122 220.807C130.71 220.357 131.026 219.67 131.078 218.76L130.924 218.751ZM130.028 220.683C129.54 221.057 128.878 221.224 128.034 221.175L128.025 221.33C128.893 221.38 129.596 221.209 130.122 220.807L130.028 220.683ZM127.894 220.396C128.061 220.437 128.228 220.462 128.397 220.472L128.406 220.317C128.247 220.308 128.089 220.284 127.931 220.246L127.894 220.396ZM128.397 220.472C128.57 220.482 128.757 220.459 128.956 220.405L128.915 220.256C128.729 220.306 128.56 220.326 128.406 220.317L128.397 220.472ZM128.957 220.405C129.16 220.348 129.34 220.251 129.495 220.115L129.393 219.998C129.256 220.119 129.096 220.205 128.914 220.256L128.957 220.405ZM129.495 220.115C129.829 219.828 130.007 219.396 130.04 218.833L129.885 218.824C129.854 219.359 129.687 219.746 129.394 219.998L129.495 220.115ZM130.04 218.833C130.066 218.373 130.004 217.99 129.848 217.687C129.69 217.382 129.439 217.165 129.1 217.037L129.045 217.182C129.351 217.298 129.571 217.49 129.71 217.758C129.85 218.028 129.91 218.382 129.885 218.824L130.04 218.833ZM129.1 217.037C128.878 216.953 128.621 216.903 128.331 216.887L128.322 217.041C128.6 217.057 128.841 217.105 129.045 217.182L129.1 217.037ZM128.331 216.887L128.229 216.881L128.22 217.035L128.322 217.041L128.331 216.887ZM128.229 216.881C128.189 216.878 128.149 216.877 128.107 216.878L128.107 217.033C128.146 217.032 128.184 217.033 128.22 217.035L128.229 216.881ZM128.03 216.951L127.835 220.316L127.99 220.325L128.184 216.959L128.03 216.951Z" fill="#FFDE28" mask="url(#path-56-outside-1_163_113)"/>
<path d="M262.206 120.438C268.633 121.822 276.051 123.605 286.443 127.099C296.836 130.593 301.927 132.758 307.733 135.291" stroke="black" stroke-width="2.7123" stroke-linecap="round"/>
<circle cx="258.421" cy="120.107" r="3.68098" transform="rotate(15.7532 258.421 120.107)" stroke="black" stroke-width="2.7123"/>
<circle cx="311.804" cy="137.213" r="3.68098" transform="rotate(15.7532 311.804 137.213)" stroke="black" stroke-width="2.7123"/>
<path d="M255.966 109.152C265.362 110.828 273.869 112.617 290.088 118.053C306.307 123.49 314.024 126.821 321.313 130.065" stroke="black" stroke-width="2.7123" stroke-linecap="round"/>
<circle cx="325.464" cy="131.695" r="3.68098" transform="rotate(16.6093 325.464 131.695)" stroke="black" stroke-width="2.7123"/>
<circle cx="251.873" cy="108.185" r="3.68098" transform="rotate(16.6093 251.873 108.185)" stroke="black" stroke-width="2.7123"/>
<path d="M245.614 149.37C245.255 149.866 244.367 150.279 242.747 150.068C241.186 149.865 239.266 149.099 237.414 147.756C235.563 146.413 234.239 144.825 233.562 143.404C232.858 141.929 232.976 140.957 233.336 140.461C233.695 139.965 234.582 139.553 236.203 139.763C237.764 139.966 239.684 140.732 241.536 142.075C243.387 143.419 244.711 145.006 245.388 146.427C246.092 147.902 245.974 148.874 245.614 149.37Z" stroke="black" stroke-width="2.7123"/>
<path d="M289.314 162.649C289.286 163.261 289.722 164.137 291.12 164.982C292.468 165.797 294.447 166.395 296.732 166.499C299.017 166.603 301.042 166.187 302.458 165.498C303.927 164.783 304.441 163.95 304.469 163.338C304.497 162.726 304.06 161.85 302.662 161.005C301.314 160.19 299.336 159.592 297.051 159.488C294.765 159.384 292.741 159.8 291.325 160.489C289.855 161.204 289.341 162.037 289.314 162.649Z" stroke="black" stroke-width="2.7123"/>
<path d="M246.238 173.616C246.238 172.867 245.631 172.259 244.882 172.259C244.133 172.259 243.526 172.867 243.526 173.616L246.238 173.616ZM257.087 176.522L258.443 176.497C258.433 175.955 258.102 175.471 257.6 175.266C257.097 175.061 256.522 175.175 256.135 175.556L257.087 176.522ZM269.043 183.096C269.678 182.7 269.871 181.863 269.474 181.228C269.078 180.593 268.241 180.399 267.606 180.796L269.043 183.096ZM249.899 177.813L249.611 179.138L249.899 177.813ZM261.609 181.66L261.061 182.9L261.609 181.66ZM243.526 173.616C243.526 175.048 244.392 176.287 245.447 177.174C246.532 178.085 247.994 178.787 249.611 179.138L250.187 176.488C248.949 176.219 247.902 175.693 247.192 175.097C246.453 174.476 246.238 173.926 246.238 173.616L243.526 173.616ZM249.611 179.138C251.078 179.457 252.685 179.497 254.146 179.254C255.579 179.016 257.035 178.477 258.039 177.488L256.135 175.556C255.685 175.999 254.848 176.388 253.701 176.579C252.582 176.765 251.321 176.734 250.187 176.488L249.611 179.138ZM255.731 176.546C255.782 179.369 258.218 181.644 261.061 182.9L262.158 180.419C259.654 179.313 258.465 177.718 258.443 176.497L255.731 176.546ZM261.061 182.9C262.536 183.552 264.169 183.795 265.548 183.802C266.242 183.806 266.901 183.751 267.473 183.644C268.015 183.544 268.591 183.379 269.043 183.096L267.606 180.796C267.609 180.794 267.597 180.802 267.566 180.815C267.536 180.829 267.493 180.846 267.437 180.865C267.322 180.903 267.169 180.942 266.979 180.978C266.597 181.048 266.111 181.093 265.562 181.09C264.455 181.084 263.21 180.884 262.158 180.419L261.061 182.9Z" fill="black"/>
<path fill-rule="evenodd" clip-rule="evenodd" d="M318.836 247.782C319.94 250.118 322.729 251.116 325.064 250.012C325.381 249.862 325.672 249.681 325.938 249.475C328.03 251.179 329.994 253.049 331.822 254.997L333.518 253.811C331.582 251.731 329.487 249.724 327.24 247.893C327.867 246.649 327.935 245.14 327.294 243.783C326.189 241.448 323.401 240.449 321.065 241.554C318.73 242.658 317.732 245.446 318.836 247.782ZM322.208 259.405C322.149 259.113 322.061 258.823 321.943 258.537C320.956 256.15 318.22 255.015 315.833 256.002C313.445 256.989 312.31 259.725 313.298 262.113C313.354 262.249 313.416 262.38 313.483 262.508L315.45 261.809C315.349 261.661 315.262 261.501 315.191 261.329C314.636 259.988 315.274 258.45 316.616 257.896C317.957 257.341 319.495 257.979 320.05 259.32C320.156 259.577 320.218 259.841 320.241 260.105L322.208 259.405ZM320.489 247C321.11 248.312 322.943 249.006 324.256 248.385C325.568 247.765 326.262 245.931 325.641 244.619C325.02 243.306 323.187 242.613 321.875 243.233C320.562 243.854 319.869 245.687 320.489 247ZM335.771 244.556C336.759 246.944 339.495 248.079 341.882 247.091C344.269 246.104 345.404 243.368 344.417 240.981C343.43 238.594 340.694 237.459 338.306 238.446C335.919 239.433 334.784 242.169 335.771 244.556ZM337.665 243.773C338.22 245.115 339.757 245.753 341.099 245.198C342.44 244.643 343.078 243.106 342.523 241.764C341.969 240.423 340.431 239.785 339.09 240.34C337.748 240.894 337.11 242.432 337.665 243.773Z" fill="black"/>
<path d="M325.064 250.012L324.923 249.714L325.064 250.012ZM318.836 247.782L318.538 247.923L318.538 247.923L318.836 247.782ZM325.938 249.475L326.146 249.22L325.943 249.055L325.736 249.215L325.938 249.475ZM331.822 254.997L331.582 255.223L331.777 255.431L332.011 255.267L331.822 254.997ZM333.518 253.811L333.707 254.08L334.017 253.863L333.759 253.586L333.518 253.811ZM327.24 247.893L326.946 247.745L326.826 247.981L327.032 248.148L327.24 247.893ZM327.294 243.783L326.996 243.924L326.996 243.924L327.294 243.783ZM321.065 241.554L320.924 241.256L320.924 241.256L321.065 241.554ZM321.943 258.537L321.639 258.663L321.943 258.537ZM322.208 259.405L322.318 259.715L322.587 259.62L322.531 259.34L322.208 259.405ZM315.833 256.002L315.707 255.698L315.833 256.002ZM313.298 262.113L312.993 262.238L312.993 262.238L313.298 262.113ZM313.483 262.508L313.192 262.662L313.325 262.914L313.594 262.819L313.483 262.508ZM315.45 261.809L315.56 262.119L315.963 261.976L315.722 261.623L315.45 261.809ZM315.191 261.329L315.496 261.204L315.496 261.204L315.191 261.329ZM316.616 257.896L316.742 258.2L316.616 257.896ZM320.05 259.32L320.354 259.194L320.05 259.32ZM320.241 260.105L319.912 260.132L319.948 260.558L320.351 260.415L320.241 260.105ZM324.256 248.385L324.115 248.087L324.256 248.385ZM320.489 247L320.192 247.14L320.192 247.14L320.489 247ZM325.641 244.619L325.343 244.76L325.343 244.76L325.641 244.619ZM321.875 243.233L322.015 243.531L321.875 243.233ZM341.882 247.091L342.008 247.396L341.882 247.091ZM335.771 244.556L336.076 244.431L335.771 244.556ZM344.417 240.981L344.721 240.855L344.417 240.981ZM338.306 238.446L338.181 238.142L338.306 238.446ZM341.099 245.198L340.973 244.894L341.099 245.198ZM337.665 243.773L337.969 243.648L337.665 243.773ZM342.523 241.764L342.219 241.89L342.523 241.764ZM339.09 240.34L339.215 240.644L339.09 240.34ZM324.923 249.714C322.752 250.74 320.16 249.812 319.134 247.641L318.538 247.923C319.72 250.423 322.705 251.491 325.205 250.309L324.923 249.714ZM325.736 249.215C325.489 249.407 325.218 249.575 324.923 249.714L325.205 250.309C325.543 250.149 325.856 249.956 326.14 249.735L325.736 249.215ZM332.063 254.772C330.226 252.814 328.251 250.935 326.146 249.22L325.73 249.731C327.809 251.424 329.762 253.283 331.582 255.223L332.063 254.772ZM333.329 253.541L331.634 254.727L332.011 255.267L333.707 254.08L333.329 253.541ZM327.032 248.148C329.266 249.969 331.35 251.964 333.277 254.035L333.759 253.586C331.815 251.497 329.709 249.48 327.448 247.638L327.032 248.148ZM326.996 243.924C327.592 245.185 327.529 246.588 326.946 247.745L327.534 248.041C328.205 246.711 328.278 245.095 327.591 243.642L326.996 243.924ZM321.206 241.851C323.377 240.825 325.969 241.753 326.996 243.924L327.591 243.642C326.409 241.142 323.425 240.074 320.924 241.256L321.206 241.851ZM319.134 247.641C318.107 245.47 319.035 242.878 321.206 241.851L320.924 241.256C318.424 242.438 317.356 245.423 318.538 247.923L319.134 247.641ZM321.639 258.663C321.749 258.929 321.83 259.199 321.885 259.47L322.531 259.34C322.468 259.027 322.374 258.716 322.248 258.411L321.639 258.663ZM315.959 256.306C318.178 255.389 320.721 256.444 321.639 258.663L322.248 258.411C321.191 255.856 318.262 254.641 315.707 255.698L315.959 256.306ZM313.602 261.987C312.684 259.767 313.739 257.224 315.959 256.306L315.707 255.698C313.151 256.755 311.937 259.683 312.993 262.238L313.602 261.987ZM313.775 262.355C313.712 262.236 313.654 262.113 313.602 261.987L312.993 262.238C313.054 262.384 313.12 262.525 313.192 262.662L313.775 262.355ZM315.34 261.498L313.373 262.198L313.594 262.819L315.56 262.119L315.34 261.498ZM315.722 261.623C315.634 261.494 315.558 261.354 315.496 261.204L314.887 261.455C314.967 261.648 315.064 261.828 315.178 261.994L315.722 261.623ZM315.496 261.204C315.01 260.03 315.568 258.685 316.742 258.2L316.49 257.591C314.98 258.216 314.263 259.946 314.887 261.455L315.496 261.204ZM316.742 258.2C317.915 257.715 319.26 258.273 319.745 259.446L320.354 259.194C319.73 257.685 318 256.967 316.49 257.591L316.742 258.2ZM319.745 259.446C319.839 259.671 319.893 259.902 319.912 260.132L320.569 260.077C320.544 259.78 320.473 259.483 320.354 259.194L319.745 259.446ZM322.097 259.095L320.13 259.794L320.351 260.415L322.318 259.715L322.097 259.095ZM324.115 248.087C323.554 248.352 322.862 248.344 322.228 248.108C321.593 247.873 321.054 247.424 320.787 246.859L320.192 247.14C320.545 247.888 321.233 248.442 321.998 248.726C322.763 249.01 323.644 249.038 324.396 248.683L324.115 248.087ZM325.343 244.76C325.608 245.32 325.6 246.012 325.364 246.647C325.129 247.281 324.68 247.82 324.115 248.087L324.396 248.683C325.144 248.329 325.698 247.641 325.982 246.876C326.266 246.111 326.294 245.23 325.939 244.478L325.343 244.76ZM322.015 243.531C322.576 243.266 323.268 243.274 323.903 243.51C324.537 243.746 325.076 244.195 325.343 244.76L325.939 244.478C325.585 243.73 324.897 243.177 324.132 242.892C323.367 242.608 322.486 242.58 321.734 242.936L322.015 243.531ZM320.787 246.859C320.522 246.299 320.53 245.606 320.766 244.972C321.002 244.337 321.451 243.798 322.015 243.531L321.734 242.936C320.986 243.289 320.432 243.977 320.148 244.742C319.864 245.508 319.836 246.388 320.192 247.14L320.787 246.859ZM341.756 246.787C339.537 247.705 336.994 246.65 336.076 244.431L335.467 244.682C336.524 247.238 339.452 248.453 342.008 247.396L341.756 246.787ZM344.113 241.107C345.03 243.326 343.975 245.869 341.756 246.787L342.008 247.396C344.563 246.339 345.778 243.411 344.721 240.855L344.113 241.107ZM338.432 238.75C340.652 237.833 343.195 238.888 344.113 241.107L344.721 240.855C343.664 238.3 340.736 237.085 338.181 238.142L338.432 238.75ZM336.076 244.431C335.158 242.211 336.213 239.668 338.432 238.75L338.181 238.142C335.625 239.199 334.41 242.127 335.467 244.682L336.076 244.431ZM340.973 244.894C339.799 245.379 338.455 244.821 337.969 243.648L337.361 243.899C337.985 245.409 339.715 246.127 341.225 245.502L340.973 244.894ZM342.219 241.89C342.704 243.064 342.146 244.408 340.973 244.894L341.225 245.502C342.734 244.878 343.452 243.148 342.828 241.638L342.219 241.89ZM339.215 240.644C340.389 240.159 341.734 240.717 342.219 241.89L342.828 241.638C342.203 240.129 340.473 239.411 338.964 240.035L339.215 240.644ZM337.969 243.648C337.484 242.474 338.042 241.129 339.215 240.644L338.964 240.035C337.454 240.66 336.736 242.39 337.361 243.899L337.969 243.648Z" fill="black"/>
<path d="M226.75 85.3208C229.218 86.1167 226.644 91.5552 224.845 94.5301C224.694 94.7792 224.416 94.9177 224.126 94.8959L214.096 94.1418C213.418 94.0908 213.135 93.2744 213.653 92.8341C217.303 89.7359 224.488 84.5914 226.75 85.3208Z" fill="#FFDE28" stroke="black" stroke-width="2.7123"/>
<path d="M220.278 62.7988C236.939 55.0492 262.186 48.4855 302.422 58.9242C343.494 69.5797 369.648 97.0901 380.497 115.301" stroke="#B5B5B5" stroke-width="1.93736" stroke-linecap="round"/>
<defs>
<filter id="filter0_i_163_113" x="373.076" y="130.849" width="44.2532" height="43.861" filterUnits="userSpaceOnUse" color-interpolation-filters="sRGB">
<feFlood flood-opacity="0" result="BackgroundImageFix"/>
<feBlend mode="normal" in="SourceGraphic" in2="BackgroundImageFix" result="shape"/>
<feColorMatrix in="SourceAlpha" type="matrix" values="0 0 0 0 0 0 0 0 0 0 0 0 0 0 0 0 0 0 127 0" result="hardAlpha"/>
<feOffset dy="0.831782"/>
<feGaussianBlur stdDeviation="0.485206"/>
<feComposite in2="hardAlpha" operator="arithmetic" k2="-1" k3="1"/>
<feColorMatrix type="matrix" values="0 0 0 0 0 0 0 0 0 0 0 0 0 0 0 0 0 0 0.4 0"/>
<feBlend mode="normal" in2="shape" result="effect1_innerShadow_163_113"/>
</filter>
<linearGradient id="paint0_linear_163_113" x1="544" y1="6.00002" x2="101" y2="358" gradientUnits="userSpaceOnUse">
<stop stop-color="#FFDE28"/>
<stop offset="1" stop-color="#FFDE28" stop-opacity="0.1"/>
</linearGradient>
<linearGradient id="paint1_linear_163_113" x1="453.5" y1="267.5" x2="66.5" y2="286" gradientUnits="userSpaceOnUse">
<stop stop-color="#FFEF9A"/>
<stop offset="1" stop-color="#423B17"/>
</linearGradient>
</defs>
</svg>
