<svg width="942" height="523" viewBox="0 0 942 523" fill="none" xmlns="http://www.w3.org/2000/svg">
<path d="M891.248 340.834C976.725 228.604 851.604 130.553 767.16 146.32L56.783 383.443C40.988 531.197 263.15 559.053 456.859 471.198C650.724 383.272 802.878 456.862 891.248 340.834Z" fill="url(#paint0_linear_177_397)" stroke="url(#paint1_linear_177_397)" stroke-width="3.96859" stroke-linecap="round"/>
<path d="M469.061 437.205L303.756 344.461C302.026 343.489 302.248 340.931 304.12 340.273L629.43 225.921C629.988 225.725 630.601 225.751 631.141 225.994L810.612 306.659C812.493 307.504 812.404 310.205 810.472 310.924L470.994 437.355C470.359 437.592 469.652 437.537 469.061 437.205Z" fill="#222222" stroke="black" stroke-width="5.38201" stroke-linecap="round"/>
<path d="M521.891 26.4823C559.104 47.3952 649.484 146.884 664.605 179.689L127.942 359.217C127.924 250.673 157.429 180.012 157.068 170.259C156.76 161.955 166.912 148.305 168.896 139.375C179.81 114.572 188.204 95.7297 198.66 88.9637C211.731 80.5063 212.901 73.2021 230.969 88.9637C245.424 101.573 243.527 117.924 248.653 118.565C273.872 99.1896 383.2 57.0271 461.242 48.2142C455.567 21.508 452.326 -1.31874 479.438 6.42759C486.383 8.41187 478.157 -2.86539 521.891 26.4823Z" fill="#F8F8F8"/>
<path d="M128.711 342.687L126.861 358.103L90.268 369.982L75.6597 344.994L70.6621 276.565L59.1292 252.73L9.15368 233.894L12.6133 204.677L46.8278 198.526L86.8087 212.75L109.106 251.962L116.409 324.619L128.711 342.687Z" fill="#F8F8F8"/>
<path d="M95.6476 354.605L107.95 366.521L94.1107 369.981L86.0801 360.835L95.6476 354.605Z" fill="#FFDE28"/>
<rect x="94.7388" y="264.8" width="17.2309" height="12.3963" transform="rotate(-12.6189 94.7388 264.8)" fill="#FFDE28"/>
<path d="M23.7607 216.594L18.2083 238.904L32.042 242.01L33.3218 220.683L23.7607 216.594Z" fill="#FFDE28"/>
<circle cx="38.6556" cy="219.584" r="6.91973" transform="rotate(-14.0798 38.6556 219.584)" stroke="black" stroke-width="5.38201"/>
<path d="M32.6025 240.044C32.8924 236.978 34.1913 228.634 36.3269 226.46" stroke="black" stroke-width="5.38201" stroke-linecap="round"/>
<path d="M30.4425 218.182L23.7862 216.309C23.357 216.188 22.9162 216.453 22.8237 216.889C21.5214 223.034 18.9867 233.65 18.7637 236.584" stroke="black" stroke-width="5.38201" stroke-linecap="round"/>
<path d="M127.305 342.687C119.769 334.921 114.118 322.743 114.323 303.522C114.946 244.943 96.5873 205.545 49.2907 200.073C23.1664 197.051 10.7682 203.265 8.58305 217.813C6.11594 234.24 18.6615 242.845 42.2739 246.084C74.8455 250.551 73.2027 285.668 72.6178 312.298C72.2295 329.975 76.9661 352.448 91.8062 369.864" stroke="black" stroke-width="7.68858" stroke-linecap="round"/>
<circle cx="71.0083" cy="233.592" r="6.91973" transform="rotate(10.2834 71.0083 233.592)" stroke="black" stroke-width="5.38201"/>
<circle cx="79.5825" cy="279.57" r="6.91973" transform="rotate(24.7179 79.5825 279.57)" stroke="black" stroke-width="5.38201"/>
<circle cx="94.781" cy="321.259" r="6.91972" transform="rotate(-130.829 94.781 321.259)" stroke="black" stroke-width="5.38201"/>
<path d="M77.4388 228.404C79.3656 226.002 85.5114 221.117 88.4771 219.705" stroke="black" stroke-width="5.38201" stroke-linecap="round"/>
<path d="M86.8077 278.871C94.4963 276.949 105.26 275.411 113.574 275.235" stroke="black" stroke-width="5.38201" stroke-linecap="round"/>
<path d="M96.7694 274.673L94.068 266.453C93.9288 266.029 94.1767 265.577 94.6098 265.471C100.434 264.052 107.959 262.743 110.878 262.394" stroke="black" stroke-width="5.38201" stroke-linecap="round"/>
<path d="M86.6021 361.379C89.612 358.331 92.3263 355.808 95.3421 354.444C95.6664 354.297 96.0441 354.409 96.2525 354.698C97.1822 355.985 99.8018 359.539 102.267 362.206C103.865 363.935 104.585 364.791 106.029 366.137" stroke="black" stroke-width="5.38201" stroke-linecap="round"/>
<path d="M85.4821 323.238C84.1197 323.534 78.2195 324.22 74.5058 324.234" stroke="black" stroke-width="5.38201" stroke-linecap="round"/>
<path fill-rule="evenodd" clip-rule="evenodd" d="M120.43 360.98L116.272 364.407C113.039 360.735 113.066 355.138 116.479 351.494C120.107 347.62 126.189 347.421 130.063 351.049C130.444 351.406 130.789 351.787 131.099 352.187L126.941 355.614C126.78 355.388 126.594 355.174 126.384 354.977C124.679 353.381 122.003 353.468 120.407 355.173C118.866 356.818 118.894 359.369 120.43 360.98Z" fill="black"/>
<path d="M172.193 245.427L135.16 260.115L131.898 279.174L177.936 260.222L172.193 245.427Z" fill="#FFDE28"/>
<circle cx="200.954" cy="234.846" r="7.68858" transform="rotate(-25.9734 200.954 234.846)" stroke="black" stroke-width="5.38201"/>
<circle cx="228.799" cy="266.268" r="7.68858" transform="rotate(17.9669 228.799 266.268)" stroke="black" stroke-width="5.38201"/>
<circle cx="228.799" cy="266.268" r="7.68858" transform="rotate(17.9669 228.799 266.268)" stroke="black" stroke-width="5.38201"/>
<circle cx="214.889" cy="199.229" r="7.68858" transform="rotate(18.48 214.889 199.229)" stroke="black" stroke-width="5.38201"/>
<path d="M221.498 268.994C199.705 274.81 157.977 290.808 130.247 302.706" stroke="black" stroke-width="5.38201" stroke-linecap="round"/>
<path d="M221.498 268.994C199.705 274.81 157.977 290.808 130.247 302.706" stroke="black" stroke-width="5.38201" stroke-linecap="round"/>
<path d="M207.01 202.507C185.906 207.938 166.016 214.179 142.166 223.129" stroke="black" stroke-width="5.38201" stroke-linecap="round"/>
<path d="M192.601 238.058C185.097 240.154 188.297 239.275 174.073 243.889M174.073 243.889C175.601 250.517 175.479 252.545 177.436 258.068C177.655 258.685 177.369 259.37 176.766 259.627C166.839 263.844 147.222 271.19 134.782 277.457M174.073 243.889C166.132 246.708 147.113 253.721 134.782 258.657" stroke="black" stroke-width="5.38201" stroke-linecap="round"/>
<path d="M202.869 114.411C208.158 112.406 211.19 125.105 212.196 132.677C212.286 133.355 211.908 134.003 211.28 134.276L194.988 141.366C193.875 141.851 192.666 140.934 192.863 139.736C194.349 130.711 197.851 116.312 202.869 114.411Z" fill="#FFDE28" stroke="black" stroke-width="5.38201"/>
<path d="M523.428 28.0201C505.066 14.8183 475.849 -2.86537 463.547 6.74537C454.459 13.8455 457.013 30.964 460.472 47.8786C437.101 50.4422 398.195 57.9489 362.059 70.1755C310.929 87.4748 263.809 106.468 249.33 117.592C243.654 107.85 240.688 101.28 233.274 91.7043C224.048 79.787 217.513 74.7887 204.442 83.2461C193.986 90.012 178.685 115.923 172.15 130.531C168.993 137.589 159.343 162.514 156.989 171.124C154.341 180.812 125.5 243.202 127.466 357.86" stroke="black" stroke-width="7.68858" stroke-linecap="round"/>
<path d="M774.132 143.187L57.2073 382.709" stroke="black" stroke-width="5.38201" stroke-linecap="round"/>
<path d="M439.501 307.821L519.221 279.093C519.777 278.893 520.388 278.914 520.929 279.151L565.451 298.658C567.355 299.493 567.27 302.224 565.317 302.937L482.533 333.199C480.43 333.968 478.096 333.781 476.141 332.688L439.157 312.004C437.431 311.039 437.641 308.492 439.501 307.821Z" fill="#4D4D4D" stroke="black" stroke-width="5.38201"/>
<path d="M347.836 276.746L233.66 302.707L240.104 325.953L264.323 349.019L321.603 378.619L363.122 369.009L376.576 342.483L367.35 302.887L357.831 293.865L347.836 276.746Z" fill="#F8F8F8"/>
<path d="M666.052 176.794H543.035L545.048 221.207L583.784 242.147L638.373 259.062L676.431 244.069L677.2 209.471L675.369 201.217L666.052 176.794Z" fill="#F8F8F8"/>
<path fill-rule="evenodd" clip-rule="evenodd" d="M616.708 105.177C615.556 108.238 612.979 110.707 609.57 111.582C604.017 113.006 598.361 109.66 596.936 104.107C595.571 98.7847 598.589 93.3674 603.731 91.6726L608.683 96.8249C607.772 96.4963 606.757 96.4282 605.749 96.6869C603.075 97.3728 601.464 100.096 602.15 102.77C602.835 105.443 605.559 107.054 608.232 106.369C610.906 105.683 612.517 102.959 611.831 100.286C611.808 100.197 611.783 100.11 611.756 100.023L616.708 105.177Z" fill="black"/>
<circle cx="10.3796" cy="10.3796" r="7.68858" transform="matrix(-0.57407 0.818806 0.818806 0.57407 601.648 122.081)" stroke="black" stroke-width="5.38201"/>
<circle cx="10.3796" cy="10.3796" r="7.68858" transform="matrix(-0.564212 0.82563 0.82563 0.564212 569.05 67.271)" stroke="black" stroke-width="5.38201"/>
<path d="M611.66 134.323C617.432 131.97 624.649 129.347 632.676 126.629" stroke="black" stroke-width="5.38201" stroke-linecap="round"/>
<path d="M580.656 77.6362C582.545 76.6034 584.578 75.5227 586.735 74.4022" stroke="black" stroke-width="5.38201" stroke-linecap="round"/>
<path d="M524.582 28.7888C614.154 86.8376 704.91 206.78 672.587 245.991C649.137 274.439 572.251 246.376 544.956 219.85" stroke="black" stroke-width="7.68858" stroke-linecap="round"/>
<path fill-rule="evenodd" clip-rule="evenodd" d="M652.295 220.657C656.982 220.732 660.842 216.994 660.918 212.307C660.928 211.673 660.868 211.053 660.746 210.456C665.757 208.16 670.979 206.297 676.203 204.786L675.126 201.227C669.776 202.777 664.399 204.694 659.214 207.068C657.694 205.05 655.291 203.729 652.569 203.685C647.882 203.609 644.021 207.347 643.946 212.034C643.87 216.721 647.608 220.581 652.295 220.657ZM668.309 177.429L667.823 177.11L669.612 183.019C669.096 187.484 665.16 190.805 660.625 190.507C655.948 190.199 652.406 186.158 652.713 181.481C653.021 176.804 657.061 173.262 661.739 173.569C664.521 173.752 666.901 175.256 668.309 177.429ZM652.348 217.338C654.981 217.381 657.58 214.953 657.622 212.319C657.665 209.686 655.237 207.087 652.604 207.044C649.97 207.002 647.371 209.43 647.329 212.063C647.286 214.697 649.714 217.296 652.348 217.338ZM671.178 241.161C675.855 241.468 679.896 237.926 680.203 233.249C680.511 228.572 676.968 224.531 672.291 224.223C667.614 223.916 663.573 227.458 663.266 232.135C662.958 236.813 666.501 240.854 671.178 241.161ZM671.422 237.451C674.05 237.624 676.321 235.633 676.494 233.005C676.667 230.377 674.676 228.106 672.047 227.933C669.419 227.76 667.148 229.751 666.975 232.379C666.803 235.008 668.793 237.279 671.422 237.451ZM660.869 186.797C663.498 186.97 665.768 184.979 665.941 182.351C666.114 179.722 664.123 177.451 661.495 177.279C658.866 177.106 656.596 179.097 656.423 181.725C656.25 184.353 658.241 186.624 660.869 186.797Z" fill="black"/>
<path d="M660.918 212.307L661.571 212.318L661.571 212.318L660.918 212.307ZM652.295 220.657L652.285 221.31L652.295 220.657ZM660.746 210.456L660.474 209.862L660.001 210.078L660.106 210.587L660.746 210.456ZM676.203 204.786L676.385 205.414L677.021 205.23L676.829 204.596L676.203 204.786ZM675.126 201.227L675.751 201.038L675.564 200.42L674.944 200.6L675.126 201.227ZM659.214 207.068L658.692 207.461L659.009 207.881L659.486 207.662L659.214 207.068ZM652.569 203.685L652.558 204.338L652.569 203.685ZM643.946 212.034L643.292 212.023L643.292 212.023L643.946 212.034ZM668.309 177.429L667.951 177.975L668.857 177.073L668.309 177.429ZM667.823 177.11L668.181 176.564L666.676 175.578L667.198 177.3L667.823 177.11ZM669.612 183.019L670.262 183.094L670.277 182.96L670.238 182.83L669.612 183.019ZM660.625 190.507L660.668 189.855L660.625 190.507ZM652.713 181.481L652.061 181.438L652.713 181.481ZM661.739 173.569L661.781 172.917L661.781 172.917L661.739 173.569ZM657.622 212.319L656.969 212.309L656.969 212.309L657.622 212.319ZM652.348 217.338L652.337 217.992L652.337 217.992L652.348 217.338ZM652.604 207.044L652.614 206.391L652.604 207.044ZM647.329 212.063L647.982 212.074L647.329 212.063ZM680.203 233.249L679.551 233.206L679.551 233.206L680.203 233.249ZM671.178 241.161L671.135 241.813L671.135 241.813L671.178 241.161ZM672.291 224.223L672.248 224.875L672.291 224.223ZM663.266 232.135L662.614 232.093L663.266 232.135ZM676.494 233.005L675.842 232.962L676.494 233.005ZM671.422 237.451L671.465 236.799L671.465 236.799L671.422 237.451ZM672.047 227.933L672.005 228.585L672.047 227.933ZM665.941 182.351L665.289 182.308L665.941 182.351ZM660.869 186.797L660.912 186.145L660.912 186.145L660.869 186.797ZM661.495 177.279L661.538 176.627L661.538 176.627L661.495 177.279ZM656.423 181.725L657.075 181.768L657.075 181.768L656.423 181.725ZM660.264 212.297C660.195 216.623 656.631 220.073 652.306 220.003L652.285 221.31C657.332 221.391 661.49 217.366 661.571 212.318L660.264 212.297ZM660.106 210.587C660.219 211.138 660.274 211.71 660.265 212.297L661.571 212.318C661.582 211.635 661.518 210.968 661.386 210.324L660.106 210.587ZM676.022 204.158C670.772 205.677 665.519 207.551 660.474 209.862L661.018 211.05C665.995 208.77 671.186 206.918 676.385 205.414L676.022 204.158ZM674.5 201.417L675.578 204.975L676.829 204.596L675.751 201.038L674.5 201.417ZM659.486 207.662C664.637 205.304 669.984 203.398 675.308 201.855L674.944 200.6C669.569 202.157 664.161 204.085 658.942 206.474L659.486 207.662ZM652.558 204.338C655.071 204.379 657.288 205.597 658.692 207.461L659.736 206.675C658.1 204.502 655.512 203.078 652.579 203.031L652.558 204.338ZM644.599 212.044C644.669 207.719 648.232 204.268 652.558 204.338L652.579 203.031C647.532 202.95 643.374 206.976 643.292 212.023L644.599 212.044ZM652.306 220.003C647.98 219.933 644.53 216.37 644.599 212.044L643.292 212.023C643.211 217.071 647.237 221.229 652.285 221.31L652.306 220.003ZM668.667 176.882L668.181 176.564L667.465 177.657L667.951 177.975L668.667 176.882ZM667.198 177.3L668.987 183.209L670.238 182.83L668.448 176.921L667.198 177.3ZM668.963 182.944C668.487 187.065 664.853 190.13 660.668 189.855L660.582 191.159C665.466 191.48 669.706 187.904 670.262 183.094L668.963 182.944ZM660.668 189.855C656.351 189.571 653.081 185.841 653.365 181.524L652.061 181.438C651.73 186.476 655.545 190.828 660.582 191.159L660.668 189.855ZM653.365 181.524C653.649 177.207 657.379 173.937 661.696 174.221L661.781 172.917C656.744 172.586 652.392 176.401 652.061 181.438L653.365 181.524ZM661.696 174.221C664.263 174.39 666.46 175.777 667.76 177.784L668.857 177.073C667.342 174.735 664.778 173.114 661.781 172.917L661.696 174.221ZM656.969 212.309C656.951 213.415 656.392 214.522 655.508 215.358C654.624 216.193 653.474 216.703 652.358 216.685L652.337 217.992C653.855 218.016 655.321 217.333 656.406 216.307C657.49 215.281 658.251 213.857 658.276 212.33L656.969 212.309ZM652.593 207.698C653.699 207.716 654.806 208.275 655.642 209.159C656.478 210.043 656.987 211.193 656.969 212.309L658.276 212.33C658.3 210.812 657.617 209.346 656.591 208.261C655.566 207.177 654.142 206.416 652.614 206.391L652.593 207.698ZM647.982 212.074C648 210.968 648.56 209.861 649.444 209.025C650.327 208.189 651.477 207.68 652.593 207.698L652.614 206.391C651.097 206.367 649.63 207.05 648.545 208.076C647.461 209.101 646.7 210.525 646.675 212.053L647.982 212.074ZM652.358 216.685C651.252 216.667 650.145 216.107 649.309 215.223C648.474 214.34 647.964 213.19 647.982 212.074L646.675 212.053C646.651 213.57 647.334 215.037 648.36 216.122C649.386 217.206 650.81 217.967 652.337 217.992L652.358 216.685ZM679.551 233.206C679.268 237.523 675.538 240.793 671.221 240.509L671.135 241.813C676.172 242.144 680.524 238.329 680.856 233.292L679.551 233.206ZM672.248 224.875C676.565 225.159 679.835 228.889 679.551 233.206L680.856 233.292C681.187 228.254 677.371 223.902 672.334 223.571L672.248 224.875ZM663.918 232.178C664.202 227.861 667.931 224.592 672.248 224.875L672.334 223.571C667.297 223.24 662.945 227.055 662.614 232.093L663.918 232.178ZM671.221 240.509C666.904 240.225 663.634 236.495 663.918 232.178L662.614 232.093C662.283 237.13 666.098 241.482 671.135 241.813L671.221 240.509ZM675.842 232.962C675.693 235.23 673.733 236.948 671.465 236.799L671.379 238.103C674.367 238.3 676.949 236.036 677.146 233.048L675.842 232.962ZM672.005 228.585C674.273 228.734 675.991 230.694 675.842 232.962L677.146 233.048C677.342 230.059 675.079 227.477 672.09 227.281L672.005 228.585ZM667.628 232.422C667.777 230.154 669.736 228.436 672.005 228.585L672.09 227.281C669.102 227.084 666.52 229.348 666.323 232.336L667.628 232.422ZM671.465 236.799C669.196 236.65 667.478 234.69 667.628 232.422L666.323 232.336C666.127 235.325 668.39 237.907 671.379 238.103L671.465 236.799ZM665.289 182.308C665.14 184.576 663.18 186.294 660.912 186.145L660.826 187.449C663.815 187.646 666.397 185.382 666.593 182.394L665.289 182.308ZM661.452 177.931C663.72 178.08 665.438 180.04 665.289 182.308L666.593 182.394C666.79 179.405 664.526 176.823 661.538 176.627L661.452 177.931ZM657.075 181.768C657.224 179.5 659.184 177.782 661.452 177.931L661.538 176.627C658.549 176.43 655.967 178.694 655.771 181.682L657.075 181.768ZM660.912 186.145C658.644 185.996 656.926 184.036 657.075 181.768L655.771 181.682C655.574 184.671 657.838 187.253 660.826 187.449L660.912 186.145Z" fill="black"/>
<path d="M239.335 322.492C256.081 348.219 323.525 398.721 364.275 367.086C381.282 353.883 379.228 318.781 352.159 284.818C349.246 281.165 346.107 277.564 342.747 274.054" stroke="black" stroke-width="7.68858" stroke-linecap="round"/>
<ellipse cx="13.0245" cy="23.7231" rx="13.0245" ry="23.7231" transform="matrix(-0.348635 -0.937259 -0.937259 0.348635 551.198 165.086)" fill="#FFDE28"/>
<ellipse cx="13.0245" cy="23.7231" rx="13.0245" ry="23.7231" transform="matrix(-0.24784 -0.968801 -0.968801 0.24784 353.516 233.812)" fill="#FFDE28"/>
<ellipse cx="13.0245" cy="23.7231" rx="13.0245" ry="23.7231" transform="matrix(-0.345927 -0.938262 -0.938262 0.345927 520.555 166.111)" fill="black"/>
<ellipse cx="13.0245" cy="23.7231" rx="13.0245" ry="23.7231" transform="matrix(0.331964 0.943292 0.943292 -0.331964 323.263 205.502)" fill="black"/>
<path d="M544.427 248.148L472.897 432.704C472.184 434.543 473.96 436.371 475.819 435.711L812.175 316.303C812.794 316.083 813.29 315.609 813.539 315L886.972 134.959C887.718 133.128 885.966 131.268 884.094 131.903L545.836 246.798C545.19 247.017 544.674 247.512 544.427 248.148Z" fill="#222222" stroke="black" stroke-width="5.38201" stroke-linecap="round"/>
<path d="M691.471 305.919C716.039 301.005 723.214 271.512 716.848 258.745C716.623 258.294 716.028 258.221 715.672 258.579L700.43 273.891C700.147 274.176 699.692 274.195 699.386 273.934L686.377 262.826C686.052 262.548 685.565 262.584 685.297 262.919C672.635 278.748 666.483 310.918 691.471 305.919Z" stroke="#FFDE28" stroke-width="3.84429"/>
<mask id="path-51-outside-1_177_397" maskUnits="userSpaceOnUse" x="681.731" y="280.33" width="27.6463" height="13.5351" fill="black">
<rect fill="white" x="681.731" y="280.33" width="27.6463" height="13.5351"/>
<path d="M688.583 281.664C688.892 281.707 689.148 281.734 689.353 281.746L689.975 281.782C690.185 281.794 690.406 281.787 690.638 281.76L690.281 287.959C690.21 289.188 689.781 290.154 688.993 290.855C688.248 291.519 687.343 291.821 686.279 291.759C685.114 291.692 684.19 291.335 683.505 290.689C682.74 289.963 682.394 288.961 682.468 287.681L682.834 281.332C683.247 281.381 683.636 281.416 684.001 281.437C684.371 281.458 684.677 281.456 684.919 281.43L684.546 287.899C684.51 288.529 684.674 289.029 685.038 289.401C685.38 289.742 685.82 289.928 686.36 289.959C687.159 290.005 687.715 289.626 688.027 288.822C688.139 288.532 688.208 288.17 688.233 287.736L688.583 281.664ZM697.171 282.009C698.106 282.063 698.894 282.271 699.535 282.634L699.402 284.928L699.386 284.942C699.131 284.496 698.558 284.177 697.667 283.985C697.404 283.925 697.071 283.883 696.666 283.86C696.261 283.837 695.86 283.891 695.461 284.024C695.062 284.151 694.73 284.347 694.464 284.613C693.948 285.13 693.661 285.893 693.603 286.902C693.535 288.076 693.792 288.969 694.373 289.579C694.855 290.088 695.516 290.367 696.356 290.415C697.305 290.47 698.086 290.312 698.699 289.941C698.923 289.809 699.115 289.639 699.278 289.433L699.299 289.449L699.178 291.548C698.377 292.139 697.329 292.397 696.035 292.322C694.511 292.234 693.344 291.681 692.536 290.661C691.76 289.689 691.415 288.441 691.503 286.916C691.597 285.302 692.125 284.057 693.088 283.18C694.061 282.298 695.422 281.908 697.171 282.009ZM702.98 292.723C702.171 292.676 701.413 292.567 700.705 292.396L701.284 282.366C701.948 282.325 702.715 282.329 703.585 282.379C704.459 282.429 705.242 282.595 705.933 282.875C706.629 283.151 707.201 283.523 707.651 283.99C708.559 284.925 708.968 286.184 708.877 287.768C708.774 289.542 708.162 290.858 707.04 291.716C706.033 292.485 704.679 292.821 702.98 292.723ZM702.749 290.874C703.07 290.953 703.393 291.002 703.718 291.02C704.043 291.039 704.396 290.997 704.778 290.894C705.16 290.785 705.497 290.604 705.787 290.35C706.41 289.814 706.752 289.002 706.815 287.913C706.918 286.124 706.33 284.986 705.049 284.501C704.627 284.342 704.134 284.246 703.569 284.213L703.367 284.201C703.292 284.197 703.214 284.195 703.134 284.195L702.749 290.874Z"/>
</mask>
<path d="M688.583 281.664C688.892 281.707 689.148 281.734 689.353 281.746L689.975 281.782C690.185 281.794 690.406 281.787 690.638 281.76L690.281 287.959C690.21 289.188 689.781 290.154 688.993 290.855C688.248 291.519 687.343 291.821 686.279 291.759C685.114 291.692 684.19 291.335 683.505 290.689C682.74 289.963 682.394 288.961 682.468 287.681L682.834 281.332C683.247 281.381 683.636 281.416 684.001 281.437C684.371 281.458 684.677 281.456 684.919 281.43L684.546 287.899C684.51 288.529 684.674 289.029 685.038 289.401C685.38 289.742 685.82 289.928 686.36 289.959C687.159 290.005 687.715 289.626 688.027 288.822C688.139 288.532 688.208 288.17 688.233 287.736L688.583 281.664ZM697.171 282.009C698.106 282.063 698.894 282.271 699.535 282.634L699.402 284.928L699.386 284.942C699.131 284.496 698.558 284.177 697.667 283.985C697.404 283.925 697.071 283.883 696.666 283.86C696.261 283.837 695.86 283.891 695.461 284.024C695.062 284.151 694.73 284.347 694.464 284.613C693.948 285.13 693.661 285.893 693.603 286.902C693.535 288.076 693.792 288.969 694.373 289.579C694.855 290.088 695.516 290.367 696.356 290.415C697.305 290.47 698.086 290.312 698.699 289.941C698.923 289.809 699.115 289.639 699.278 289.433L699.299 289.449L699.178 291.548C698.377 292.139 697.329 292.397 696.035 292.322C694.511 292.234 693.344 291.681 692.536 290.661C691.76 289.689 691.415 288.441 691.503 286.916C691.597 285.302 692.125 284.057 693.088 283.18C694.061 282.298 695.422 281.908 697.171 282.009ZM702.98 292.723C702.171 292.676 701.413 292.567 700.705 292.396L701.284 282.366C701.948 282.325 702.715 282.329 703.585 282.379C704.459 282.429 705.242 282.595 705.933 282.875C706.629 283.151 707.201 283.523 707.651 283.99C708.559 284.925 708.968 286.184 708.877 287.768C708.774 289.542 708.162 290.858 707.04 291.716C706.033 292.485 704.679 292.821 702.98 292.723ZM702.749 290.874C703.07 290.953 703.393 291.002 703.718 291.02C704.043 291.039 704.396 290.997 704.778 290.894C705.16 290.785 705.497 290.604 705.787 290.35C706.41 289.814 706.752 289.002 706.815 287.913C706.918 286.124 706.33 284.986 705.049 284.501C704.627 284.342 704.134 284.246 703.569 284.213L703.367 284.201C703.292 284.197 703.214 284.195 703.134 284.195L702.749 290.874Z" fill="#FFDE28"/>
<path d="M688.583 281.664L688.604 281.512L688.439 281.489L688.43 281.655L688.583 281.664ZM690.638 281.76L690.792 281.769L690.802 281.586L690.621 281.607L690.638 281.76ZM688.993 290.855L689.095 290.97L688.993 290.855ZM683.505 290.689L683.399 290.801L683.399 290.801L683.505 290.689ZM682.834 281.332L682.852 281.179L682.69 281.16L682.68 281.323L682.834 281.332ZM684.919 281.43L685.073 281.439L685.083 281.258L684.903 281.277L684.919 281.43ZM685.038 289.401L684.928 289.509L684.93 289.51L685.038 289.401ZM688.027 288.822L688.171 288.877L688.171 288.877L688.027 288.822ZM688.562 281.816C688.873 281.859 689.134 281.887 689.344 281.899L689.362 281.592C689.163 281.581 688.911 281.554 688.604 281.512L688.562 281.816ZM689.344 281.899L689.966 281.935L689.984 281.628L689.362 281.592L689.344 281.899ZM689.966 281.935C690.186 281.948 690.416 281.94 690.656 281.913L690.621 281.607C690.396 281.633 690.184 281.64 689.984 281.628L689.966 281.935ZM690.485 281.751L690.127 287.95L690.434 287.968L690.792 281.769L690.485 281.751ZM690.127 287.95C690.058 289.146 689.643 290.071 688.891 290.741L689.095 290.97C689.919 290.237 690.361 289.231 690.434 287.968L690.127 287.95ZM688.891 290.741C688.178 291.375 687.314 291.665 686.287 291.606L686.27 291.913C687.372 291.976 688.317 291.663 689.095 290.97L688.891 290.741ZM686.287 291.606C685.15 291.54 684.263 291.193 683.61 290.577L683.399 290.801C684.116 291.478 685.078 291.844 686.27 291.913L686.287 291.606ZM683.611 290.578C682.885 289.889 682.549 288.935 682.621 287.69L682.314 287.672C682.238 288.986 682.594 290.037 683.399 290.801L683.611 290.578ZM682.621 287.69L682.987 281.341L682.68 281.323L682.314 287.672L682.621 287.69ZM682.816 281.485C683.232 281.534 683.624 281.569 683.992 281.591L684.01 281.284C683.649 281.263 683.263 281.228 682.852 281.179L682.816 281.485ZM683.992 281.591C684.367 281.612 684.682 281.61 684.936 281.583L684.903 281.277C684.672 281.302 684.375 281.305 684.01 281.284L683.992 281.591ZM684.766 281.421L684.392 287.89L684.699 287.908L685.073 281.439L684.766 281.421ZM684.392 287.89C684.354 288.553 684.527 289.1 684.928 289.509L685.148 289.294C684.82 288.959 684.665 288.504 684.699 287.908L684.392 287.89ZM684.93 289.51C685.301 289.881 685.779 290.079 686.351 290.112L686.369 289.805C685.862 289.776 685.458 289.603 685.147 289.293L684.93 289.51ZM686.351 290.112C686.778 290.137 687.152 290.048 687.463 289.836C687.773 289.625 688.007 289.3 688.171 288.877L687.884 288.766C687.736 289.147 687.536 289.415 687.29 289.582C687.045 289.749 686.741 289.827 686.369 289.805L686.351 290.112ZM688.171 288.877C688.29 288.568 688.361 288.189 688.387 287.744L688.079 287.727C688.055 288.151 687.988 288.496 687.884 288.766L688.171 288.877ZM688.387 287.744L688.737 281.673L688.43 281.655L688.079 287.727L688.387 287.744ZM699.535 282.634L699.688 282.643L699.694 282.547L699.61 282.5L699.535 282.634ZM699.402 284.928L699.504 285.043L699.552 285L699.556 284.937L699.402 284.928ZM699.386 284.942L699.253 285.018L699.347 285.183L699.489 285.057L699.386 284.942ZM697.667 283.985L697.632 284.135L697.634 284.136L697.667 283.985ZM695.461 284.024L695.508 284.17L695.509 284.169L695.461 284.024ZM694.464 284.613L694.356 284.504L694.355 284.504L694.464 284.613ZM694.373 289.579L694.485 289.473L694.484 289.473L694.373 289.579ZM698.699 289.941L698.621 289.809L698.62 289.81L698.699 289.941ZM699.278 289.433L699.37 289.31L699.25 289.22L699.157 289.338L699.278 289.433ZM699.299 289.449L699.453 289.458L699.458 289.376L699.392 289.327L699.299 289.449ZM699.178 291.548L699.269 291.672L699.328 291.629L699.332 291.557L699.178 291.548ZM692.536 290.661L692.656 290.566L692.656 290.565L692.536 290.661ZM693.088 283.18L692.985 283.066L692.984 283.066L693.088 283.18ZM697.163 282.162C698.08 282.215 698.843 282.419 699.459 282.768L699.61 282.5C698.944 282.123 698.132 281.91 697.18 281.855L697.163 282.162ZM699.381 282.625L699.249 284.919L699.556 284.937L699.688 282.643L699.381 282.625ZM699.3 284.813L699.284 284.827L699.489 285.057L699.504 285.043L699.3 284.813ZM699.52 284.866C699.231 284.361 698.602 284.029 697.699 283.835L697.634 284.136C698.514 284.325 699.031 284.631 699.253 285.018L699.52 284.866ZM697.701 283.835C697.427 283.773 697.084 283.73 696.675 283.706L696.657 284.013C697.057 284.037 697.381 284.078 697.632 284.135L697.701 283.835ZM696.675 283.706C696.25 283.682 695.829 283.739 695.412 283.878L695.509 284.169C695.89 284.043 696.273 283.991 696.657 284.013L696.675 283.706ZM695.414 283.877C694.995 284.011 694.641 284.219 694.356 284.504L694.573 284.722C694.82 284.475 695.13 284.291 695.508 284.17L695.414 283.877ZM694.355 284.504C693.804 285.056 693.509 285.861 693.449 286.893L693.756 286.911C693.813 285.925 694.092 285.203 694.573 284.722L694.355 284.504ZM693.449 286.893C693.38 288.093 693.641 289.033 694.262 289.685L694.484 289.473C693.942 288.904 693.69 288.06 693.756 286.911L693.449 286.893ZM694.262 289.685C694.776 290.228 695.476 290.519 696.347 290.569L696.364 290.262C695.556 290.215 694.935 289.948 694.485 289.473L694.262 289.685ZM696.347 290.569C697.317 290.625 698.132 290.464 698.779 290.073L698.62 289.81C698.041 290.16 697.293 290.315 696.364 290.262L696.347 290.569ZM698.778 290.074C699.018 289.931 699.225 289.749 699.399 289.528L699.157 289.338C699.006 289.53 698.828 289.686 698.621 289.809L698.778 290.074ZM699.185 289.556L699.207 289.572L699.392 289.327L699.37 289.31L699.185 289.556ZM699.146 289.441L699.025 291.539L699.332 291.557L699.453 289.458L699.146 289.441ZM699.087 291.425C698.322 291.988 697.313 292.242 696.044 292.169L696.026 292.476C697.345 292.552 698.432 292.29 699.269 291.672L699.087 291.425ZM696.044 292.169C694.555 292.083 693.433 291.545 692.656 290.566L692.415 290.757C693.256 291.816 694.467 292.386 696.026 292.476L696.044 292.169ZM692.656 290.565C691.909 289.629 691.571 288.421 691.657 286.925L691.35 286.908C691.26 288.461 691.611 289.749 692.416 290.757L692.656 290.565ZM691.657 286.925C691.748 285.341 692.265 284.137 693.191 283.293L692.984 283.066C691.985 283.976 691.445 285.264 691.35 286.908L691.657 286.925ZM693.191 283.294C694.125 282.448 695.44 282.063 697.163 282.162L697.18 281.855C695.404 281.753 693.998 282.148 692.985 283.066L693.191 283.294ZM700.705 292.396L700.552 292.387L700.544 292.515L700.669 292.545L700.705 292.396ZM701.284 282.366L701.274 282.213L701.138 282.222L701.13 282.358L701.284 282.366ZM705.933 282.875L705.875 283.018L705.876 283.018L705.933 282.875ZM707.651 283.99L707.54 284.096L707.54 284.097L707.651 283.99ZM707.04 291.716L707.133 291.838L707.133 291.838L707.04 291.716ZM702.749 290.874L702.595 290.865L702.588 290.993L702.712 291.024L702.749 290.874ZM704.778 290.894L704.818 291.042L704.82 291.042L704.778 290.894ZM705.787 290.35L705.687 290.234L705.686 290.234L705.787 290.35ZM705.049 284.501L705.104 284.358L705.104 284.358L705.049 284.501ZM703.134 284.195L703.133 284.042L702.989 284.042L702.98 284.187L703.134 284.195ZM702.989 292.569C702.188 292.523 701.439 292.415 700.742 292.247L700.669 292.545C701.386 292.719 702.154 292.829 702.972 292.876L702.989 292.569ZM700.859 292.405L701.437 282.375L701.13 282.358L700.552 292.387L700.859 292.405ZM701.294 282.52C701.95 282.478 702.711 282.482 703.576 282.532L703.594 282.225C702.72 282.175 701.946 282.171 701.274 282.213L701.294 282.52ZM703.576 282.532C704.436 282.582 705.202 282.745 705.875 283.018L705.99 282.733C705.282 282.445 704.482 282.277 703.594 282.225L703.576 282.532ZM705.876 283.018C706.555 283.287 707.108 283.647 707.54 284.096L707.762 283.883C707.295 283.398 706.703 283.015 705.989 282.732L705.876 283.018ZM707.54 284.097C708.413 284.994 708.813 286.208 708.723 287.759L709.03 287.777C709.124 286.16 708.706 284.855 707.761 283.883L707.54 284.097ZM708.723 287.759C708.623 289.501 708.024 290.77 706.946 291.594L707.133 291.838C708.3 290.946 708.926 289.583 709.03 287.777L708.723 287.759ZM706.946 291.594C705.977 292.334 704.664 292.666 702.989 292.569L702.972 292.876C704.695 292.976 706.088 292.636 707.133 291.838L706.946 291.594ZM702.712 291.024C703.042 291.105 703.375 291.155 703.709 291.174L703.727 290.867C703.411 290.849 703.098 290.801 702.785 290.725L702.712 291.024ZM703.709 291.174C704.053 291.194 704.424 291.149 704.818 291.042L704.738 290.745C704.369 290.845 704.032 290.885 703.727 290.867L703.709 291.174ZM704.82 291.042C705.224 290.927 705.58 290.735 705.888 290.466L705.686 290.234C705.413 290.473 705.097 290.643 704.736 290.746L704.82 291.042ZM705.887 290.467C706.551 289.896 706.904 289.038 706.969 287.921L706.662 287.904C706.6 288.966 706.268 289.733 705.687 290.234L705.887 290.467ZM706.969 287.921C707.021 287.01 706.899 286.248 706.588 285.647C706.275 285.043 705.777 284.613 705.104 284.358L704.995 284.645C705.602 284.875 706.039 285.256 706.315 285.789C706.592 286.325 706.712 287.026 706.662 287.904L706.969 287.921ZM705.104 284.358C704.664 284.191 704.154 284.093 703.578 284.06L703.56 284.367C704.113 284.398 704.59 284.492 704.995 284.645L705.104 284.358ZM703.578 284.06L703.376 284.048L703.358 284.355L703.56 284.367L703.578 284.06ZM703.376 284.048C703.297 284.043 703.216 284.041 703.133 284.042L703.135 284.349C703.212 284.349 703.286 284.351 703.358 284.355L703.376 284.048ZM702.98 284.187L702.595 290.865L702.902 290.883L703.287 284.204L702.98 284.187Z" fill="#FFDE28" mask="url(#path-51-outside-1_177_397)"/>
<path d="M421.485 92.6206C408.732 95.3683 394.013 98.9055 373.391 105.839C352.769 112.773 342.666 117.067 331.146 122.094" stroke="black" stroke-width="5.38201" stroke-linecap="round"/>
<circle cx="9.99516" cy="9.99516" r="7.30415" transform="matrix(-0.96244 0.271494 0.271494 0.96244 435.901 79.6304)" stroke="black" stroke-width="5.38201"/>
<circle cx="9.99516" cy="9.99516" r="7.30415" transform="matrix(-0.96244 0.271494 0.271494 0.96244 329.975 113.574)" stroke="black" stroke-width="5.38201"/>
<path d="M433.867 70.2256C415.222 73.5522 398.342 77.1023 366.158 87.8896C333.974 98.6769 318.663 105.287 304.2 111.724" stroke="black" stroke-width="5.38201" stroke-linecap="round"/>
<circle cx="9.99516" cy="9.99516" r="7.30415" transform="matrix(-0.958276 0.285845 0.285845 0.958276 302.683 102.523)" stroke="black" stroke-width="5.38201"/>
<circle cx="9.99516" cy="9.99516" r="7.30415" transform="matrix(-0.958276 0.285845 0.285845 0.958276 448.709 55.8726)" stroke="black" stroke-width="5.38201"/>
<path d="M454.407 150.031C455.121 151.015 456.881 151.834 460.096 151.416C463.195 151.013 467.004 149.493 470.678 146.828C474.352 144.163 476.979 141.013 478.324 138.193C479.719 135.266 479.486 133.338 478.772 132.354C478.058 131.37 476.298 130.55 473.083 130.968C469.984 131.371 466.175 132.891 462.501 135.556C458.827 138.222 456.2 141.371 454.855 144.192C453.46 147.119 453.693 149.046 454.407 150.031Z" stroke="black" stroke-width="5.38201"/>
<path d="M367.694 176.38C367.75 177.595 366.884 179.333 364.109 181.01C361.435 182.627 357.509 183.813 352.975 184.019C348.44 184.225 344.423 183.4 341.613 182.033C338.697 180.614 337.677 178.962 337.622 177.747C337.567 176.532 338.433 174.794 341.208 173.117C343.882 171.501 347.808 170.314 352.342 170.108C356.876 169.902 360.894 170.727 363.704 172.094C366.619 173.513 367.639 175.165 367.694 176.38Z" stroke="black" stroke-width="5.38201"/>
<path d="M453.17 198.141C453.17 196.655 454.374 195.45 455.861 195.45C457.347 195.45 458.552 196.655 458.552 198.141L453.17 198.141ZM431.642 203.908L428.951 203.859C428.971 202.783 429.629 201.823 430.625 201.416C431.622 201.01 432.764 201.236 433.531 201.991L431.642 203.908ZM407.919 216.954C406.658 216.166 406.275 214.506 407.062 213.246C407.85 211.985 409.51 211.602 410.77 212.389L407.919 216.954ZM445.906 206.47L446.478 209.099L445.906 206.47ZM422.669 214.103L423.757 216.564L422.669 214.103ZM458.552 198.141C458.552 200.984 456.832 203.443 454.739 205.202C452.586 207.01 449.686 208.402 446.478 209.099L445.335 203.84C447.791 203.306 449.869 202.264 451.277 201.081C452.744 199.848 453.17 198.758 453.17 198.141L458.552 198.141ZM446.478 209.099C443.567 209.732 440.378 209.812 437.479 209.33C434.634 208.857 431.745 207.788 429.753 205.824L433.531 201.991C434.424 202.871 436.086 203.643 438.361 204.021C440.582 204.39 443.084 204.329 445.335 203.84L446.478 209.099ZM434.332 203.956C434.232 209.558 429.397 214.071 423.757 216.564L421.581 211.642C426.549 209.446 428.908 206.282 428.951 203.859L434.332 203.956ZM423.757 216.564C420.831 217.858 417.59 218.34 414.854 218.355C413.475 218.362 412.168 218.252 411.033 218.041C409.958 217.842 408.815 217.514 407.919 216.954L410.77 212.389C410.764 212.386 410.787 212.4 410.848 212.428C410.908 212.454 410.993 212.488 411.105 212.525C411.333 212.601 411.636 212.679 412.014 212.75C412.772 212.89 413.737 212.979 414.825 212.973C417.022 212.961 419.493 212.565 421.581 211.642L423.757 216.564Z" fill="black"/>
<path fill-rule="evenodd" clip-rule="evenodd" d="M309.115 345.309C306.923 349.943 301.39 351.924 296.756 349.733C296.128 349.436 295.549 349.078 295.022 348.669C290.871 352.05 286.973 355.76 283.345 359.626L279.981 357.272C283.822 353.145 287.979 349.163 292.439 345.529C291.194 343.062 291.059 340.066 292.332 337.374C294.523 332.74 300.056 330.759 304.691 332.95C309.325 335.141 311.306 340.674 309.115 345.309ZM302.423 368.372C302.54 367.793 302.714 367.217 302.949 366.65C304.908 361.913 310.336 359.661 315.073 361.62C319.811 363.579 322.063 369.008 320.104 373.745C319.992 374.015 319.869 374.277 319.736 374.53L315.833 373.142C316.033 372.849 316.205 372.532 316.346 372.191C317.447 369.529 316.182 366.478 313.52 365.377C310.857 364.276 307.807 365.542 306.706 368.204C306.495 368.714 306.371 369.239 306.327 369.761L302.423 368.372ZM305.834 343.756C304.602 346.361 300.965 347.737 298.36 346.506C295.756 345.274 294.38 341.637 295.611 339.032C296.842 336.428 300.48 335.052 303.084 336.283C305.689 337.514 307.065 341.152 305.834 343.756ZM275.509 338.908C273.55 343.646 268.122 345.898 263.384 343.939C258.647 341.98 256.395 336.551 258.354 331.814C260.313 327.077 265.742 324.825 270.479 326.784C275.216 328.743 277.468 334.171 275.509 338.908ZM271.752 337.355C270.651 340.017 267.6 341.282 264.938 340.181C262.276 339.08 261.01 336.03 262.111 333.368C263.212 330.706 266.263 329.44 268.925 330.541C271.587 331.642 272.853 334.692 271.752 337.355Z" fill="black"/>
<path d="M296.756 349.733L296.476 350.324L296.756 349.733ZM309.115 345.309L309.705 345.588L309.705 345.588L309.115 345.309ZM295.022 348.669L294.609 348.162L295.012 347.834L295.423 348.153L295.022 348.669ZM283.345 359.626L283.822 360.074L283.434 360.487L282.97 360.162L283.345 359.626ZM279.981 357.272L279.606 357.807L278.99 357.376L279.502 356.826L279.981 357.272ZM292.439 345.529L293.022 345.235L293.259 345.704L292.852 346.036L292.439 345.529ZM292.332 337.374L292.922 337.653L292.332 337.374ZM304.691 332.95L304.97 332.359L304.97 332.359L304.691 332.95ZM302.949 366.65L303.552 366.9L302.949 366.65ZM302.423 368.372L302.204 368.988L301.671 368.798L301.783 368.243L302.423 368.372ZM315.073 361.62L315.323 361.016L315.323 361.016L315.073 361.62ZM320.104 373.745L320.708 373.995L320.708 373.995L320.104 373.745ZM319.736 374.53L320.314 374.835L320.05 375.336L319.517 375.146L319.736 374.53ZM315.833 373.142L315.614 373.758L314.815 373.474L315.293 372.774L315.833 373.142ZM316.346 372.191L315.742 371.941L315.742 371.941L316.346 372.191ZM306.706 368.204L307.31 368.454L307.31 368.454L306.706 368.204ZM306.327 369.761L306.978 369.816L306.907 370.661L306.108 370.377L306.327 369.761ZM298.36 346.506L298.639 345.915L298.36 346.506ZM305.834 343.756L306.424 344.036L306.424 344.036L305.834 343.756ZM295.611 339.032L295.02 338.753L295.611 339.032ZM303.084 336.283L302.805 336.874L303.084 336.283ZM263.384 343.939L263.135 344.543L263.135 344.543L263.384 343.939ZM275.509 338.908L274.905 338.659L275.509 338.908ZM258.354 331.814L258.958 332.064L258.354 331.814ZM270.479 326.784L270.229 327.388L270.479 326.784ZM264.938 340.181L264.688 340.785L264.938 340.181ZM271.752 337.355L271.148 337.105L271.752 337.355ZM262.111 333.368L262.715 333.617L262.715 333.617L262.111 333.368ZM268.925 330.541L269.175 329.937L268.925 330.541ZM297.035 349.142C301.343 351.179 306.487 349.338 308.524 345.03L309.705 345.588C307.36 350.549 301.437 352.669 296.476 350.324L297.035 349.142ZM295.423 348.153C295.912 348.533 296.451 348.866 297.035 349.142L296.476 350.324C295.805 350.006 295.185 349.623 294.621 349.185L295.423 348.153ZM282.868 359.179C286.513 355.295 290.432 351.565 294.609 348.162L295.435 349.176C291.309 352.536 287.433 356.225 283.822 360.074L282.868 359.179ZM280.355 356.736L283.72 359.091L282.97 360.162L279.606 357.807L280.355 356.736ZM292.852 346.036C288.419 349.648 284.283 353.608 280.459 357.717L279.502 356.826C283.36 352.681 287.54 348.678 292.026 345.022L292.852 346.036ZM292.922 337.653C291.739 340.156 291.864 342.939 293.022 345.235L291.855 345.824C290.523 343.184 290.378 339.977 291.741 337.095L292.922 337.653ZM304.411 333.541C300.103 331.504 294.959 333.345 292.922 337.653L291.741 337.095C294.086 332.134 300.009 330.014 304.97 332.359L304.411 333.541ZM308.524 345.03C310.561 340.721 308.719 335.578 304.411 333.541L304.97 332.359C309.931 334.705 312.051 340.628 309.705 345.588L308.524 345.03ZM303.552 366.9C303.334 367.427 303.173 367.964 303.064 368.502L301.783 368.243C301.908 367.623 302.094 367.006 302.345 366.4L303.552 366.9ZM314.824 362.224C310.42 360.403 305.374 362.496 303.552 366.9L302.345 366.4C304.442 361.33 310.252 358.919 315.323 361.016L314.824 362.224ZM319.5 373.495C321.321 369.091 319.227 364.045 314.824 362.224L315.323 361.016C320.394 363.113 322.805 368.924 320.708 373.995L319.5 373.495ZM319.157 374.226C319.281 373.99 319.396 373.747 319.5 373.495L320.708 373.995C320.588 374.283 320.457 374.563 320.314 374.835L319.157 374.226ZM316.052 372.526L319.955 373.915L319.517 375.146L315.614 373.758L316.052 372.526ZM315.293 372.774C315.468 372.518 315.619 372.24 315.742 371.941L316.95 372.441C316.792 372.823 316.598 373.181 316.373 373.511L315.293 372.774ZM315.742 371.941C316.705 369.613 315.598 366.944 313.27 365.981L313.769 364.773C316.765 366.012 318.189 369.445 316.95 372.441L315.742 371.941ZM313.27 365.981C310.941 365.018 308.273 366.125 307.31 368.454L306.102 367.954C307.341 364.959 310.774 363.534 313.769 364.773L313.27 365.981ZM307.31 368.454C307.125 368.901 307.016 369.36 306.978 369.816L305.676 369.706C305.725 369.118 305.865 368.527 306.102 367.954L307.31 368.454ZM302.642 367.757L306.546 369.145L306.108 370.377L302.204 368.988L302.642 367.757ZM298.639 345.915C299.751 346.44 301.125 346.424 302.384 345.957C303.644 345.489 304.713 344.598 305.243 343.477L306.424 344.036C305.723 345.519 304.357 346.618 302.839 347.182C301.321 347.746 299.573 347.802 298.081 347.096L298.639 345.915ZM296.202 339.312C295.676 340.423 295.692 341.797 296.16 343.056C296.627 344.316 297.519 345.385 298.639 345.915L298.081 347.096C296.597 346.395 295.498 345.03 294.935 343.511C294.371 341.993 294.315 340.245 295.02 338.753L296.202 339.312ZM302.805 336.874C301.693 336.348 300.32 336.364 299.06 336.832C297.801 337.299 296.732 338.191 296.202 339.312L295.02 338.753C295.722 337.269 297.087 336.17 298.605 335.607C300.124 335.043 301.871 334.987 303.364 335.692L302.805 336.874ZM305.243 343.477C305.768 342.365 305.752 340.992 305.285 339.732C304.817 338.473 303.926 337.404 302.805 336.874L303.364 335.692C304.847 336.394 305.946 337.759 306.51 339.277C307.074 340.796 307.13 342.543 306.424 344.036L305.243 343.477ZM263.634 343.335C268.038 345.156 273.084 343.062 274.905 338.659L276.113 339.158C274.016 344.229 268.205 346.64 263.135 344.543L263.634 343.335ZM258.958 332.064C257.137 336.467 259.23 341.514 263.634 343.335L263.135 344.543C258.064 342.446 255.653 336.635 257.75 331.564L258.958 332.064ZM270.229 327.388C265.825 325.566 260.779 327.66 258.958 332.064L257.75 331.564C259.847 326.493 265.658 324.083 270.729 326.18L270.229 327.388ZM274.905 338.659C276.726 334.255 274.633 329.209 270.229 327.388L270.729 326.18C275.799 328.277 278.21 334.087 276.113 339.158L274.905 338.659ZM265.188 339.577C267.517 340.54 270.185 339.433 271.148 337.105L272.356 337.604C271.117 340.6 267.684 342.024 264.688 340.785L265.188 339.577ZM262.715 333.617C261.752 335.946 262.859 338.614 265.188 339.577L264.688 340.785C261.693 339.546 260.269 336.114 261.507 333.118L262.715 333.617ZM268.675 331.145C266.347 330.182 263.678 331.289 262.715 333.617L261.507 333.118C262.746 330.122 266.179 328.698 269.175 329.937L268.675 331.145ZM271.148 337.105C272.111 334.776 271.004 332.108 268.675 331.145L269.175 329.937C272.171 331.176 273.595 334.609 272.356 337.604L271.148 337.105Z" fill="black"/>
<path d="M488.535 24.9649C483.639 26.5443 488.746 37.3357 492.316 43.239C492.615 43.7332 493.167 44.0081 493.743 43.9648L513.644 42.4684C514.99 42.3672 515.552 40.7471 514.523 39.8735C507.281 33.7257 493.023 23.5175 488.535 24.9649Z" fill="#FFDE28" stroke="black" stroke-width="5.38201"/>
<defs>
<linearGradient id="paint0_linear_177_397" x1="-137.678" y1="-134.458" x2="741.365" y2="564.014" gradientUnits="userSpaceOnUse">
<stop stop-color="#FFDE28"/>
<stop offset="1" stop-color="#FFDE28" stop-opacity="0.1"/>
</linearGradient>
<linearGradient id="paint1_linear_177_397" x1="41.9008" y1="384.435" x2="809.823" y2="421.145" gradientUnits="userSpaceOnUse">
<stop stop-color="#FFEF9A"/>
<stop offset="1" stop-color="#423B17"/>
</linearGradient>
</defs>
</svg>
