<svg width="268" height="150" viewBox="0 0 268 150" fill="none" xmlns="http://www.w3.org/2000/svg">
<path d="M14.3349 97.5575C-9.91438 65.7186 25.5817 37.9022 49.5377 42.3752L251.067 109.646C255.548 151.562 192.522 159.465 137.568 134.541C82.5698 109.597 39.4049 130.474 14.3349 97.5575Z" fill="url(#paint0_linear_333_2919)" stroke="url(#paint1_linear_333_2919)" stroke-width="1.12586" stroke-linecap="round"/>
<path d="M134.107 124.898L181.003 98.5865C181.494 98.311 181.43 97.5852 180.899 97.3985L88.611 64.9577C88.4526 64.9021 88.2789 64.9094 88.1257 64.9782L37.2108 87.8625C36.6772 88.1023 36.7024 88.8684 37.2507 89.0725L133.558 124.94C133.738 125.007 133.939 124.992 134.107 124.898Z" fill="#222222" stroke="black" stroke-width="1.52684" stroke-linecap="round"/>
<path d="M119.119 8.37797C108.562 14.3108 82.922 42.5353 78.6323 51.8417L230.88 102.773C230.885 71.9793 222.515 51.9333 222.617 49.1664C222.705 46.8107 219.825 42.9382 219.262 40.405C216.166 33.3683 213.784 28.023 210.818 26.1035C207.11 23.7042 206.778 21.6321 201.652 26.1035C197.551 29.6807 198.089 34.3194 196.635 34.5012C189.481 29.0045 158.465 17.0433 136.325 14.5432C137.935 6.96681 138.855 0.491002 131.163 2.68859C129.193 3.25151 131.526 0.0522268 119.119 8.37797Z" fill="#F8F8F8"/>
<path d="M230.662 98.0832L231.187 102.457L241.568 105.826L245.712 98.7375L247.13 79.3248L250.402 72.563L264.58 67.2191L263.598 58.9305L253.892 57.1856L242.549 61.2209L236.224 72.345L234.152 92.9574L230.662 98.0832Z" fill="#F8F8F8"/>
<path d="M240.041 101.464L236.551 104.845L240.477 105.826L242.756 103.232L240.041 101.464Z" fill="#FFDE28"/>
<rect width="4.88829" height="3.51674" transform="matrix(-0.975845 -0.218465 -0.218465 0.975845 240.3 75.9872)" fill="#FFDE28"/>
<path d="M260.435 62.3117L262.01 68.6409L258.086 69.522L257.723 63.4717L260.435 62.3117Z" fill="#FFDE28"/>
<circle cx="2.7265" cy="2.7265" r="1.96308" transform="matrix(-0.969958 -0.243273 -0.243273 0.969958 259.518 61.1785)" stroke="black" stroke-width="1.52684"/>
<path d="M257.927 68.9641C257.845 68.0944 257.476 65.7272 256.871 65.1106" stroke="black" stroke-width="1.52684" stroke-linecap="round"/>
<path d="M258.54 62.7621L260.428 62.2306C260.55 62.1963 260.675 62.2715 260.701 62.3952C261.071 64.1384 261.79 67.1502 261.853 67.9826" stroke="black" stroke-width="1.52684" stroke-linecap="round"/>
<path d="M231.061 98.0833C233.199 95.8801 234.802 92.4253 234.744 86.9724C234.567 70.3538 239.775 59.177 253.193 57.6246C260.604 56.7672 264.121 58.53 264.741 62.6574C265.441 67.3174 261.882 69.7587 255.183 70.6775C245.943 71.9449 246.409 81.9071 246.575 89.4619C246.685 94.4769 245.342 100.852 241.131 105.793" stroke="black" stroke-width="2.1812" stroke-linecap="round"/>
<circle cx="2.7265" cy="2.7265" r="1.96308" transform="matrix(-0.983937 0.178516 0.178516 0.983937 249.228 63.9642)" stroke="black" stroke-width="1.52684"/>
<circle cx="2.7265" cy="2.7265" r="1.96308" transform="matrix(-0.908377 0.418152 0.418152 0.908377 245.936 76.5605)" stroke="black" stroke-width="1.52684"/>
<circle cx="2.7265" cy="2.7265" r="1.96308" transform="matrix(0.653805 -0.756663 -0.756663 -0.653805 240.568 95.8501)" stroke="black" stroke-width="1.52684"/>
<path d="M245.207 65.6619C244.661 64.9804 242.917 63.5945 242.076 63.1941" stroke="black" stroke-width="1.52684" stroke-linecap="round"/>
<path d="M242.549 79.9792C240.368 79.4339 237.315 78.9977 234.956 78.9478" stroke="black" stroke-width="1.52684" stroke-linecap="round"/>
<path d="M239.723 78.7881L240.49 76.4561C240.529 76.3359 240.459 76.2075 240.336 76.1776C238.684 75.775 236.549 75.4037 235.721 75.3047" stroke="black" stroke-width="1.52684" stroke-linecap="round"/>
<path d="M242.608 103.386C241.754 102.521 240.984 101.806 240.128 101.419C240.036 101.377 239.929 101.409 239.87 101.491C239.606 101.856 238.863 102.864 238.164 103.621C237.71 104.111 237.506 104.354 237.096 104.736" stroke="black" stroke-width="1.52684" stroke-linecap="round"/>
<path d="M242.926 92.5657C243.312 92.6497 244.986 92.8445 246.039 92.8484" stroke="black" stroke-width="1.52684" stroke-linecap="round"/>
<path fill-rule="evenodd" clip-rule="evenodd" d="M233.011 103.273L234.19 104.245C235.108 103.204 235.1 101.615 234.132 100.582C233.102 99.4826 231.377 99.4262 230.278 100.456C230.17 100.557 230.072 100.665 229.984 100.778L231.164 101.751C231.209 101.686 231.262 101.626 231.322 101.57C231.805 101.117 232.564 101.142 233.017 101.625C233.455 102.092 233.447 102.816 233.011 103.273Z" fill="black"/>
<path d="M218.326 70.4911L228.832 74.6582L229.757 80.0651L216.697 74.6884L218.326 70.4911Z" fill="#FFDE28"/>
<circle cx="2.94462" cy="2.94462" r="2.1812" transform="matrix(-0.898998 -0.437953 -0.437953 0.898998 214.104 66.1318)" stroke="black" stroke-width="1.52684"/>
<circle cx="2.94462" cy="2.94462" r="2.1812" transform="matrix(-0.951235 0.308468 0.308468 0.951235 204.16 72.6942)" stroke="black" stroke-width="1.52684"/>
<circle cx="2.94462" cy="2.94462" r="2.1812" transform="matrix(-0.951235 0.308468 0.308468 0.951235 204.16 72.6942)" stroke="black" stroke-width="1.52684"/>
<circle cx="2.94462" cy="2.94462" r="2.1812" transform="matrix(-0.948435 0.316973 0.316973 0.948435 208.073 53.6589)" stroke="black" stroke-width="1.52684"/>
<path d="M204.338 77.1768C210.521 78.8268 222.359 83.3655 230.226 86.7408" stroke="black" stroke-width="1.52684" stroke-linecap="round"/>
<path d="M204.338 77.1768C210.521 78.8268 222.359 83.3655 230.226 86.7408" stroke="black" stroke-width="1.52684" stroke-linecap="round"/>
<path d="M208.449 58.315C214.436 59.8556 220.079 61.6263 226.845 64.1654" stroke="black" stroke-width="1.52684" stroke-linecap="round"/>
<path d="M212.537 68.4007C214.665 68.9953 213.758 68.746 217.793 70.0548M217.793 70.0548C217.359 71.9351 217.394 72.5105 216.839 74.0773C216.777 74.2525 216.858 74.4469 217.029 74.5196C219.845 75.7161 225.41 77.8001 228.94 79.5779M217.793 70.0548C220.046 70.8546 225.441 72.8441 228.94 74.2444" stroke="black" stroke-width="1.52684" stroke-linecap="round"/>
<path d="M209.623 33.3228C208.123 32.7541 207.263 36.3568 206.977 38.5048C206.952 38.6973 207.059 38.8809 207.237 38.9584L211.859 40.9699C212.175 41.1074 212.518 40.8474 212.462 40.5074C212.041 37.9471 211.047 33.8624 209.623 33.3228Z" fill="#FFDE28" stroke="black" stroke-width="1.52684"/>
<path d="M118.683 8.81423C123.892 5.06896 132.181 0.0522173 135.671 2.77872C138.249 4.79299 137.524 9.64938 136.543 14.448C143.173 15.1752 154.211 17.3048 164.462 20.7734C178.967 25.6811 192.335 31.0693 196.443 34.2252C198.053 31.4615 198.894 29.5976 200.998 26.881C203.615 23.5001 205.469 22.0822 209.177 24.4815C212.143 26.4009 216.484 33.7518 218.338 37.896C219.234 39.8982 221.971 46.9692 222.639 49.4118C223.39 52.1604 231.572 69.8599 231.015 102.388" stroke="black" stroke-width="2.1812" stroke-linecap="round"/>
<path d="M47.5603 41.4863L250.947 109.437" stroke="black" stroke-width="1.52684" stroke-linecap="round"/>
<path d="M142.493 88.1919L119.877 80.042C119.719 79.9852 119.545 79.991 119.392 80.0582L106.761 85.5925C106.221 85.8292 106.245 86.6039 106.799 86.8064L130.285 95.3913C130.881 95.6095 131.544 95.5565 132.098 95.2464L142.59 89.3786C143.08 89.1048 143.02 88.3821 142.493 88.1919Z" fill="#4D4D4D" stroke="black" stroke-width="1.52684"/>
<path d="M168.498 79.3761L200.888 86.741L199.06 93.3358L192.189 99.8793L175.939 108.277L164.161 105.55L160.344 98.0253L162.961 86.7921L165.662 84.2326L168.498 79.3761Z" fill="#F8F8F8"/>
<path d="M78.2219 51.0205H113.121L112.55 63.6202L101.561 69.5607L86.0742 74.3594L75.2773 70.106L75.0591 60.2906L75.5786 57.9491L78.2219 51.0205Z" fill="#F8F8F8"/>
<path fill-rule="evenodd" clip-rule="evenodd" d="M92.2199 30.7031C92.5469 31.5714 93.2781 32.2719 94.2451 32.52C95.8203 32.9241 97.4249 31.9747 97.829 30.3994C98.2164 28.8896 97.3603 27.3529 95.9016 26.872L94.4972 28.3333C94.7554 28.2403 95.0432 28.2211 95.3291 28.2944C96.0875 28.489 96.5447 29.2616 96.3501 30.02C96.1555 30.7785 95.3829 31.2356 94.6245 31.041C93.866 30.8464 93.4089 30.0739 93.6035 29.3154C93.6099 29.2904 93.6169 29.2658 93.6246 29.2414L92.2199 30.7031Z" fill="black"/>
<circle cx="95.7718" cy="39.6" r="2.1812" transform="rotate(54.9655 95.7718 39.6)" stroke="black" stroke-width="1.52684"/>
<circle cx="104.97" cy="24.0419" r="2.1812" transform="rotate(55.6524 104.97 24.0419)" stroke="black" stroke-width="1.52684"/>
<path d="M93.6524 38.9714C92.015 38.3039 89.9675 37.5598 87.6903 36.7888" stroke="black" stroke-width="1.52684" stroke-linecap="round"/>
<path d="M102.448 22.8899C101.912 22.5969 101.335 22.2903 100.723 21.9724" stroke="black" stroke-width="1.52684" stroke-linecap="round"/>
<path d="M118.356 9.03235C92.9447 25.5004 67.1977 59.5271 76.3676 70.6513C83.0202 78.7217 104.832 70.7603 112.576 63.2352" stroke="black" stroke-width="2.1812" stroke-linecap="round"/>
<path fill-rule="evenodd" clip-rule="evenodd" d="M82.1244 63.4641C80.7948 63.4855 79.6996 62.425 79.6782 61.0954C79.6753 60.9153 79.6922 60.7395 79.727 60.5701C78.3053 59.9189 76.8239 59.3904 75.3418 58.9616L75.6474 57.9521C77.1651 58.3917 78.6905 58.9356 80.1615 59.609C80.5929 59.0364 81.2744 58.6616 82.0468 58.6492C83.3764 58.6278 84.4716 59.6882 84.493 61.0178C84.5145 62.3474 83.454 63.4426 82.1244 63.4641ZM77.5815 51.2004L77.7192 51.1102L77.2116 52.7864C77.358 54.0532 78.4747 54.9953 79.7612 54.9107C81.0881 54.8235 82.0931 53.6771 82.0059 52.3502C81.9186 51.0233 80.7723 50.0184 79.4454 50.1056C78.6562 50.1575 77.9809 50.584 77.5815 51.2004ZM82.1095 62.5226C81.3624 62.5347 80.6251 61.846 80.6131 61.0988C80.6011 60.3516 81.2897 59.6144 82.0369 59.6024C82.7841 59.5903 83.5213 60.279 83.5333 61.0262C83.5454 61.7733 82.8567 62.5106 82.1095 62.5226ZM76.7675 69.281C75.4406 69.3682 74.2942 68.3632 74.207 67.0363C74.1198 65.7094 75.1248 64.5631 76.4517 64.4759C77.7786 64.3887 78.9249 65.3936 79.0121 66.7205C79.0993 68.0474 78.0944 69.1938 76.7675 69.281ZM76.6983 68.2286C75.9527 68.2776 75.3084 67.7128 75.2594 66.9672C75.2104 66.2215 75.7752 65.5773 76.5208 65.5283C77.2665 65.4793 77.9107 66.044 77.9597 66.7897C78.0087 67.5354 77.444 68.1796 76.6983 68.2286ZM79.692 53.8583C78.9464 53.9073 78.3022 53.3425 78.2532 52.5969C78.2041 51.8512 78.7689 51.207 79.5146 51.158C80.2602 51.109 80.9044 51.6737 80.9534 52.4194C81.0025 53.1651 80.4377 53.8093 79.692 53.8583Z" fill="black"/>
<path d="M79.6782 61.0954L79.4928 61.0984L79.6782 61.0954ZM82.1244 63.4641L82.1274 63.6494L82.1274 63.6494L82.1244 63.4641ZM79.727 60.5701L79.8042 60.4015L79.9383 60.4629L79.9086 60.6074L79.727 60.5701ZM75.3418 58.9616L75.2902 59.1396L75.1099 59.0875L75.1643 58.9078L75.3418 58.9616ZM75.6474 57.9521L75.47 57.8983L75.5231 57.723L75.699 57.774L75.6474 57.9521ZM80.1615 59.609L80.3096 59.7206L80.2199 59.8397L80.0843 59.7776L80.1615 59.609ZM82.0468 58.6492L82.0498 58.8346L82.0498 58.8346L82.0468 58.6492ZM84.493 61.0178L84.6784 61.0148L84.6784 61.0148L84.493 61.0178ZM77.5815 51.2004L77.6831 51.3555L77.4259 51.0996L77.5815 51.2004ZM77.7192 51.1102L77.6176 50.9551L78.0446 50.6754L77.8967 51.1639L77.7192 51.1102ZM77.2116 52.7864L77.0275 52.8077L77.023 52.7695L77.0342 52.7327L77.2116 52.7864ZM79.7612 54.9107L79.749 54.7257L79.749 54.7257L79.7612 54.9107ZM82.0059 52.3502L81.8208 52.3624L82.0059 52.3502ZM79.4454 50.1056L79.4332 49.9206L79.4454 50.1056ZM82.1095 62.5226L82.1125 62.708L82.1095 62.5226ZM82.0369 59.6024L82.0339 59.417L82.0339 59.417L82.0369 59.6024ZM83.5333 61.0262L83.348 61.0292L83.5333 61.0262ZM74.207 67.0363L74.022 67.0485L74.207 67.0363ZM76.7675 69.281L76.7797 69.466L76.7797 69.466L76.7675 69.281ZM76.4517 64.4759L76.4638 64.6609L76.4517 64.4759ZM79.0121 66.7205L79.1971 66.7084L79.0121 66.7205ZM75.2594 66.9672L75.4444 66.955L75.2594 66.9672ZM76.6983 68.2286L76.6862 68.0436L76.6862 68.0436L76.6983 68.2286ZM76.5208 65.5283L76.533 65.7133L76.533 65.7133L76.5208 65.5283ZM77.9597 66.7897L77.7747 66.8018L77.9597 66.7897ZM78.2532 52.5969L78.0681 52.609L78.2532 52.5969ZM79.692 53.8583L79.6799 53.6733L79.692 53.8583ZM79.5146 51.158L79.5024 50.973L79.5024 50.973L79.5146 51.158ZM80.9534 52.4194L80.7684 52.4316L80.9534 52.4194ZM79.8636 61.0924C79.8834 62.3196 80.8942 63.2985 82.1214 63.2787L82.1274 63.6494C80.6954 63.6725 79.5159 62.5304 79.4928 61.0984L79.8636 61.0924ZM79.9086 60.6074C79.8766 60.7636 79.8609 60.9259 79.8636 61.0924L79.4928 61.0984C79.4897 60.9047 79.5079 60.7154 79.5454 60.5328L79.9086 60.6074ZM75.3933 58.7835C76.8826 59.2144 78.3729 59.7459 79.8042 60.4015L79.6498 60.7387C78.2378 60.0919 76.7651 59.5664 75.2902 59.1396L75.3933 58.7835ZM75.8249 58.0058L75.5192 59.0153L75.1643 58.9078L75.47 57.8983L75.8249 58.0058ZM80.0843 59.7776C78.623 59.1086 77.1063 58.5677 75.5959 58.1301L75.699 57.774C77.2239 58.2158 78.7581 58.7627 80.2387 59.4405L80.0843 59.7776ZM82.0498 58.8346C81.337 58.8461 80.7081 59.1917 80.3096 59.7206L80.0134 59.4975C80.4777 58.8812 81.2119 58.4772 82.0438 58.4638L82.0498 58.8346ZM84.3077 61.0208C84.2879 59.7936 83.277 58.8148 82.0498 58.8346L82.0438 58.4638C83.4758 58.4407 84.6553 59.5829 84.6784 61.0148L84.3077 61.0208ZM82.1214 63.2787C83.3486 63.2589 84.3274 62.248 84.3077 61.0208L84.6784 61.0148C84.7015 62.4468 83.5594 63.6263 82.1274 63.6494L82.1214 63.2787ZM77.4799 51.0453L77.6176 50.9551L77.8208 51.2652L77.6831 51.3555L77.4799 51.0453ZM77.8967 51.1639L77.3891 52.8402L77.0342 52.7327L77.5418 51.0564L77.8967 51.1639ZM77.3958 52.7652C77.5309 53.9342 78.5617 54.8037 79.749 54.7257L79.7734 55.0957C78.3878 55.1868 77.1851 54.1722 77.0275 52.8077L77.3958 52.7652ZM79.749 54.7257C80.9738 54.6452 81.9013 53.5871 81.8208 52.3624L82.1909 52.3381C82.2848 53.7671 81.2024 55.0018 79.7734 55.0957L79.749 54.7257ZM81.8208 52.3624C81.7404 51.1377 80.6823 50.2101 79.4575 50.2906L79.4332 49.9206C80.8623 49.8267 82.0969 50.909 82.1909 52.3381L81.8208 52.3624ZM79.4575 50.2906C78.7292 50.3385 78.106 50.7318 77.7371 51.3012L77.4259 51.0996C77.8557 50.4362 78.5831 49.9765 79.4332 49.9206L79.4575 50.2906ZM80.7985 61.0958C80.8035 61.4097 80.9623 61.7236 81.213 61.9607C81.4638 62.1979 81.7899 62.3423 82.1065 62.3372L82.1125 62.708C81.682 62.7149 81.2659 62.5211 80.9582 62.2301C80.6506 61.9391 80.4347 61.5351 80.4277 61.1018L80.7985 61.0958ZM82.0399 59.7877C81.726 59.7928 81.4121 59.9516 81.175 60.2023C80.9379 60.453 80.7934 60.7792 80.7985 61.0958L80.4277 61.1018C80.4208 60.6713 80.6146 60.2552 80.9056 59.9475C81.1966 59.6398 81.6006 59.424 82.0339 59.417L82.0399 59.7877ZM83.348 61.0292C83.3429 60.7153 83.1841 60.4014 82.9334 60.1643C82.6827 59.9271 82.3566 59.7826 82.0399 59.7877L82.0339 59.417C82.4644 59.41 82.8805 59.6039 83.1882 59.8949C83.4959 60.1858 83.7117 60.5899 83.7187 61.0232L83.348 61.0292ZM82.1065 62.3372C82.4204 62.3322 82.7343 62.1734 82.9714 61.9227C83.2086 61.6719 83.3531 61.3458 83.348 61.0292L83.7187 61.0232C83.7257 61.4537 83.5318 61.8698 83.2409 62.1775C82.9499 62.4851 82.5458 62.701 82.1125 62.708L82.1065 62.3372ZM74.392 67.0242C74.4725 68.2489 75.5306 69.1765 76.7553 69.096L76.7797 69.466C75.3506 69.5599 74.116 68.4776 74.022 67.0485L74.392 67.0242ZM76.4638 64.6609C75.2391 64.7414 74.3115 65.7995 74.392 67.0242L74.022 67.0485C73.9281 65.6194 75.0104 64.3848 76.4395 64.2909L76.4638 64.6609ZM78.8271 66.7327C78.7466 65.508 77.6885 64.5804 76.4638 64.6609L76.4395 64.2909C77.8686 64.1969 79.1032 65.2793 79.1971 66.7084L78.8271 66.7327ZM76.7553 69.096C77.9801 69.0155 78.9076 67.9574 78.8271 66.7327L79.1971 66.7084C79.2911 68.1374 78.2087 69.3721 76.7797 69.466L76.7553 69.096ZM75.4444 66.955C75.4867 67.5985 76.0427 68.0859 76.6862 68.0436L76.7105 68.4136C75.8626 68.4693 75.1302 67.8272 75.0744 66.9793L75.4444 66.955ZM76.533 65.7133C75.8895 65.7556 75.4021 66.3115 75.4444 66.955L75.0744 66.9793C75.0187 66.1315 75.6608 65.399 76.5087 65.3433L76.533 65.7133ZM77.7747 66.8018C77.7324 66.1584 77.1765 65.671 76.533 65.7133L76.5087 65.3433C77.3565 65.2876 78.089 65.9297 78.1447 66.7775L77.7747 66.8018ZM76.6862 68.0436C77.3297 68.0013 77.817 67.4453 77.7747 66.8018L78.1447 66.7775C78.2005 67.6254 77.5583 68.3579 76.7105 68.4136L76.6862 68.0436ZM78.4382 52.5847C78.4805 53.2282 79.0364 53.7156 79.6799 53.6733L79.7042 54.0433C78.8564 54.099 78.1239 53.4569 78.0681 52.609L78.4382 52.5847ZM79.5267 51.343C78.8832 51.3853 78.3959 51.9412 78.4382 52.5847L78.0681 52.609C78.0124 51.7612 78.6546 51.0287 79.5024 50.973L79.5267 51.343ZM80.7684 52.4316C80.7261 51.7881 80.1702 51.3007 79.5267 51.343L79.5024 50.973C80.3502 50.9173 81.0827 51.5594 81.1384 52.4072L80.7684 52.4316ZM79.6799 53.6733C80.3234 53.631 80.8107 53.075 80.7684 52.4316L81.1384 52.4072C81.1942 53.2551 80.552 53.9876 79.7042 54.0433L79.6799 53.6733Z" fill="black"/>
<path d="M199.278 92.3542C194.528 99.6527 175.394 113.98 163.834 105.005C159.009 101.259 159.591 91.3012 167.271 81.6662C168.097 80.6297 168.988 79.6083 169.941 78.6126" stroke="black" stroke-width="2.1812" stroke-linecap="round"/>
<ellipse cx="118.401" cy="46.5822" rx="3.69495" ry="6.73009" transform="rotate(-69.5962 118.401 46.5822)" fill="#FFDE28"/>
<ellipse cx="174.322" cy="65.2845" rx="3.69495" ry="6.73009" transform="rotate(-75.6503 174.322 65.2845)" fill="#FFDE28"/>
<ellipse cx="127.091" cy="46.8509" rx="3.69495" ry="6.73009" transform="rotate(-69.7616 127.091 46.8509)" fill="black"/>
<ellipse cx="167.894" cy="60.4162" rx="3.69495" ry="6.73009" transform="rotate(109.388 167.894 60.4162)" fill="black"/>
<path d="M112.726 71.2632L133.019 123.62C133.221 124.142 132.717 124.661 132.19 124.474L36.7677 90.5982C36.5919 90.5358 36.4512 90.4013 36.3807 90.2286L15.5483 39.1521C15.3365 38.6327 15.8335 38.1049 16.3647 38.2853L112.326 70.8801C112.51 70.9424 112.656 71.0826 112.726 71.2632Z" fill="#222222" stroke="black" stroke-width="1.52684" stroke-linecap="round"/>
<path d="M70.7037 87.7111C63.8035 86.0055 62.1455 77.5556 64.1123 74.0183C64.1819 73.8933 64.3515 73.8804 64.4478 73.9862L68.5723 78.52C68.649 78.6044 68.7777 78.6154 68.8677 78.5453L72.696 75.563C72.7918 75.4883 72.9294 75.5048 73.001 75.603C76.3878 80.2503 77.7218 89.4459 70.7037 87.7111Z" stroke="#FFDE28" stroke-width="1.0906"/>
<mask id="path-51-outside-1_333_2919" maskUnits="userSpaceOnUse" x="65.4334" y="80.4932" width="9.36215" height="4.90018" fill="black">
<rect fill="white" x="65.4334" y="80.4932" width="9.36215" height="4.90018"/>
<path d="M68.2509 80.8981C68.3377 80.9142 68.4101 80.9252 68.468 80.9312L68.6439 80.9493C68.7032 80.9554 68.766 80.9561 68.8321 80.9515L68.6518 82.7038C68.616 83.0513 68.4821 83.3195 68.25 83.5083C68.0303 83.687 67.77 83.7608 67.4691 83.7299C67.14 83.696 66.8825 83.5832 66.6967 83.3913C66.489 83.1758 66.4038 82.8872 66.441 82.5256L66.6257 80.7309C66.7422 80.75 66.852 80.7649 66.9551 80.7755C67.0597 80.7863 67.1464 80.7895 67.2154 80.7851L67.0272 82.6137C67.0089 82.7917 67.0491 82.9358 67.1476 83.0458C67.2401 83.1467 67.3625 83.205 67.5151 83.2207C67.7411 83.2439 67.9035 83.1436 68.0022 82.9196C68.0376 82.839 68.0616 82.7373 68.0743 82.6144L68.2509 80.8981ZM70.6804 81.1053C70.9446 81.1325 71.1652 81.2015 71.3422 81.3126L71.2755 81.9609L71.2708 81.9647C71.2042 81.8351 71.0458 81.7374 70.7956 81.6717C70.722 81.6513 70.628 81.6352 70.5136 81.6234C70.3992 81.6117 70.2846 81.622 70.17 81.6545C70.0554 81.6855 69.9588 81.7369 69.88 81.8088C69.7271 81.9487 69.636 82.1613 69.6066 82.4466C69.5725 82.7786 69.6339 83.0347 69.791 83.215C69.9211 83.3655 70.1048 83.4529 70.3421 83.4773C70.6105 83.5049 70.834 83.4701 71.0124 83.3728C71.0774 83.3381 71.1342 83.2926 71.1828 83.2362L71.1887 83.2411L71.1277 83.8344C70.8931 83.9915 70.5929 84.0513 70.227 84.0136C69.7962 83.9693 69.4726 83.7976 69.2565 83.4984C69.0489 83.2129 68.9672 82.8548 69.0116 82.4239C69.0585 81.9677 69.224 81.6214 69.5082 81.3851C69.7953 81.1477 70.186 81.0544 70.6804 81.1053ZM72.1903 84.2157C71.9614 84.1921 71.7479 84.1516 71.5497 84.0941L71.8414 81.259C72.0302 81.2556 72.2475 81.2665 72.4933 81.2918C72.7405 81.3172 72.9602 81.3741 73.1524 81.4624C73.3461 81.5494 73.5037 81.662 73.6251 81.8001C73.8707 82.0767 73.9705 82.4388 73.9245 82.8866C73.8729 83.3881 73.6825 83.7532 73.3535 83.982C73.0583 84.1872 72.6706 84.2651 72.1903 84.2157ZM72.1481 83.6888C72.2382 83.7152 72.3291 83.7332 72.421 83.7426C72.5128 83.7521 72.6135 83.7446 72.7231 83.7202C72.8328 83.6943 72.9304 83.6473 73.016 83.579C73.1992 83.4351 73.3067 83.2092 73.3384 82.9012C73.3904 82.3955 73.238 82.0658 72.8813 81.912C72.7637 81.8614 72.6251 81.8279 72.4655 81.8114L72.4083 81.8055C72.3871 81.8034 72.3651 81.8018 72.3424 81.8009L72.1481 83.6888Z"/>
</mask>
<path d="M68.2509 80.8981C68.3377 80.9142 68.4101 80.9252 68.468 80.9312L68.6439 80.9493C68.7032 80.9554 68.766 80.9561 68.8321 80.9515L68.6518 82.7038C68.616 83.0513 68.4821 83.3195 68.25 83.5083C68.0303 83.687 67.77 83.7608 67.4691 83.7299C67.14 83.696 66.8825 83.5832 66.6967 83.3913C66.489 83.1758 66.4038 82.8872 66.441 82.5256L66.6257 80.7309C66.7422 80.75 66.852 80.7649 66.9551 80.7755C67.0597 80.7863 67.1464 80.7895 67.2154 80.7851L67.0272 82.6137C67.0089 82.7917 67.0491 82.9358 67.1476 83.0458C67.2401 83.1467 67.3625 83.205 67.5151 83.2207C67.7411 83.2439 67.9035 83.1436 68.0022 82.9196C68.0376 82.839 68.0616 82.7373 68.0743 82.6144L68.2509 80.8981ZM70.6804 81.1053C70.9446 81.1325 71.1652 81.2015 71.3422 81.3126L71.2755 81.9609L71.2708 81.9647C71.2042 81.8351 71.0458 81.7374 70.7956 81.6717C70.722 81.6513 70.628 81.6352 70.5136 81.6234C70.3992 81.6117 70.2846 81.622 70.17 81.6545C70.0554 81.6855 69.9588 81.7369 69.88 81.8088C69.7271 81.9487 69.636 82.1613 69.6066 82.4466C69.5725 82.7786 69.6339 83.0347 69.791 83.215C69.9211 83.3655 70.1048 83.4529 70.3421 83.4773C70.6105 83.5049 70.834 83.4701 71.0124 83.3728C71.0774 83.3381 71.1342 83.2926 71.1828 83.2362L71.1887 83.2411L71.1277 83.8344C70.8931 83.9915 70.5929 84.0513 70.227 84.0136C69.7962 83.9693 69.4726 83.7976 69.2565 83.4984C69.0489 83.2129 68.9672 82.8548 69.0116 82.4239C69.0585 81.9677 69.224 81.6214 69.5082 81.3851C69.7953 81.1477 70.186 81.0544 70.6804 81.1053ZM72.1903 84.2157C71.9614 84.1921 71.7479 84.1516 71.5497 84.0941L71.8414 81.259C72.0302 81.2556 72.2475 81.2665 72.4933 81.2918C72.7405 81.3172 72.9602 81.3741 73.1524 81.4624C73.3461 81.5494 73.5037 81.662 73.6251 81.8001C73.8707 82.0767 73.9705 82.4388 73.9245 82.8866C73.8729 83.3881 73.6825 83.7532 73.3535 83.982C73.0583 84.1872 72.6706 84.2651 72.1903 84.2157ZM72.1481 83.6888C72.2382 83.7152 72.3291 83.7332 72.421 83.7426C72.5128 83.7521 72.6135 83.7446 72.7231 83.7202C72.8328 83.6943 72.9304 83.6473 73.016 83.579C73.1992 83.4351 73.3067 83.2092 73.3384 82.9012C73.3904 82.3955 73.238 82.0658 72.8813 81.912C72.7637 81.8614 72.6251 81.8279 72.4655 81.8114L72.4083 81.8055C72.3871 81.8034 72.3651 81.8018 72.3424 81.8009L72.1481 83.6888Z" fill="#FFDE28"/>
<path d="M68.2509 80.8981L68.2588 80.8552L68.2123 80.8466L68.2075 80.8936L68.2509 80.8981ZM68.8321 80.9515L68.8755 80.956L68.8808 80.9044L68.8291 80.908L68.8321 80.9515ZM66.6967 83.3913L66.6653 83.4216L66.6654 83.4216L66.6967 83.3913ZM66.6257 80.7309L66.6327 80.6878L66.587 80.6803L66.5823 80.7264L66.6257 80.7309ZM67.2154 80.7851L67.2588 80.7896L67.264 80.7384L67.2126 80.7416L67.2154 80.7851ZM67.1476 83.0458L67.1152 83.0749L67.1155 83.0753L67.1476 83.0458ZM68.0022 82.9196L68.0421 82.9372L68.0421 82.9372L68.0022 82.9196ZM68.2429 80.941C68.3304 80.9572 68.404 80.9684 68.4636 80.9746L68.4725 80.8878C68.4162 80.882 68.345 80.8712 68.2588 80.8552L68.2429 80.941ZM68.4636 80.9746L68.6394 80.9927L68.6484 80.9059L68.4725 80.8878L68.4636 80.9746ZM68.6394 80.9927C68.7015 80.999 68.7668 80.9998 68.8351 80.995L68.8291 80.908C68.7651 80.9124 68.7049 80.9117 68.6484 80.9059L68.6394 80.9927ZM68.7887 80.947L68.6084 82.6994L68.6952 82.7083L68.8755 80.956L68.7887 80.947ZM68.6084 82.6994C68.5736 83.0374 68.4441 83.2942 68.2224 83.4745L68.2775 83.5421C68.5201 83.3448 68.6585 83.0652 68.6952 82.7083L68.6084 82.6994ZM68.2224 83.4745C68.0124 83.6453 67.7638 83.7163 67.4736 83.6865L67.4647 83.7733C67.7762 83.8053 68.0482 83.7287 68.2775 83.5421L68.2224 83.4745ZM67.4736 83.6865C67.1522 83.6534 66.9051 83.5438 66.728 83.3609L66.6654 83.4216C66.8599 83.6225 67.1278 83.7386 67.4647 83.7733L67.4736 83.6865ZM66.7281 83.361C66.5313 83.1567 66.4482 82.8819 66.4844 82.5301L66.3976 82.5211C66.3594 82.8925 66.4468 83.1948 66.6653 83.4216L66.7281 83.361ZM66.4844 82.5301L66.6691 80.7354L66.5823 80.7264L66.3976 82.5211L66.4844 82.5301ZM66.6186 80.7739C66.7359 80.7932 66.8466 80.8082 66.9507 80.8189L66.9596 80.7321C66.8575 80.7216 66.7485 80.7068 66.6327 80.6878L66.6186 80.7739ZM66.9507 80.8189C67.0565 80.8298 67.1459 80.8332 67.2181 80.8287L67.2126 80.7416C67.147 80.7457 67.0628 80.7427 66.9596 80.7321L66.9507 80.8189ZM67.172 80.7807L66.9838 82.6093L67.0706 82.6182L67.2588 80.7896L67.172 80.7807ZM66.9838 82.6093C66.9645 82.7967 67.0067 82.9538 67.1152 83.0749L67.1801 83.0167C67.0915 82.9177 67.0533 82.7868 67.0706 82.6182L66.9838 82.6093ZM67.1155 83.0753C67.216 83.185 67.3488 83.2474 67.5106 83.2641L67.5196 83.1773C67.3762 83.1625 67.2641 83.1084 67.1798 83.0164L67.1155 83.0753ZM67.5106 83.2641C67.6313 83.2765 67.7385 83.2561 67.8293 83.2C67.9199 83.144 67.9902 83.055 68.0421 82.9372L67.9623 82.902C67.9155 83.0082 67.8553 83.0814 67.7834 83.1258C67.7119 83.17 67.6249 83.1881 67.5196 83.1773L67.5106 83.2641ZM68.0421 82.9372C68.0799 82.8511 68.1047 82.7446 68.1177 82.6189L68.0309 82.6099C68.0185 82.73 67.9953 82.827 67.9622 82.9021L68.0421 82.9372ZM68.1177 82.6189L68.2943 80.9026L68.2075 80.8936L68.0309 82.6099L68.1177 82.6189ZM71.3422 81.3126L71.3856 81.317L71.3884 81.29L71.3654 81.2756L71.3422 81.3126ZM71.2755 81.9609L71.303 81.9948L71.317 81.9834L71.3189 81.9654L71.2755 81.9609ZM71.2708 81.9647L71.232 81.9847L71.2566 82.0325L71.2983 81.9986L71.2708 81.9647ZM70.7956 81.6717L70.7839 81.7138L70.7845 81.7139L70.7956 81.6717ZM70.17 81.6545L70.1814 81.6966L70.1818 81.6964L70.17 81.6545ZM69.88 81.8088L69.8506 81.7765L69.8505 81.7766L69.88 81.8088ZM69.791 83.215L69.824 83.1865L69.8239 83.1864L69.791 83.215ZM71.0124 83.3728L70.9919 83.3344L70.9915 83.3345L71.0124 83.3728ZM71.1828 83.2362L71.2106 83.2026L71.1777 83.1754L71.1498 83.2077L71.1828 83.2362ZM71.1887 83.2411L71.2321 83.2455L71.2345 83.2223L71.2165 83.2075L71.1887 83.2411ZM71.1277 83.8344L71.1519 83.8706L71.169 83.8592L71.1711 83.8388L71.1277 83.8344ZM69.2565 83.4984L69.2918 83.4728L69.2917 83.4727L69.2565 83.4984ZM69.5082 81.3851L69.4804 81.3515L69.4803 81.3515L69.5082 81.3851ZM70.676 81.1487C70.9352 81.1753 71.149 81.2429 71.319 81.3495L71.3654 81.2756C71.1814 81.1602 70.9539 81.0896 70.6849 81.0619L70.676 81.1487ZM71.2988 81.3081L71.2321 81.9565L71.3189 81.9654L71.3856 81.317L71.2988 81.3081ZM71.2479 81.9271L71.2433 81.9309L71.2983 81.9986L71.303 81.9948L71.2479 81.9271ZM71.3096 81.9448C71.2342 81.7981 71.0602 81.6961 70.8067 81.6295L70.7845 81.7139C71.0314 81.7788 71.1741 81.8721 71.232 81.9847L71.3096 81.9448ZM70.8073 81.6297C70.7305 81.6084 70.6338 81.592 70.5181 81.58L70.5092 81.6668C70.6222 81.6785 70.7136 81.6942 70.7839 81.7138L70.8073 81.6297ZM70.5181 81.58C70.398 81.5677 70.2779 81.5786 70.1581 81.6125L70.1818 81.6964C70.2914 81.6654 70.4004 81.6556 70.5092 81.6668L70.5181 81.58ZM70.1585 81.6124C70.0381 81.645 69.935 81.6995 69.8506 81.7765L69.9094 81.841C69.9825 81.7744 70.0727 81.726 70.1814 81.6966L70.1585 81.6124ZM69.8505 81.7766C69.6872 81.9261 69.5933 82.1503 69.5633 82.4421L69.65 82.4511C69.6787 82.1723 69.767 81.9713 69.9094 81.841L69.8505 81.7766ZM69.5633 82.4421C69.5284 82.7812 69.5904 83.0511 69.7581 83.2437L69.8239 83.1864C69.6775 83.0183 69.6166 82.7759 69.65 82.4511L69.5633 82.4421ZM69.758 83.2436C69.8968 83.404 70.0916 83.4954 70.3377 83.5207L70.3466 83.4339C70.118 83.4104 69.9454 83.3269 69.824 83.1865L69.758 83.2436ZM70.3377 83.5207C70.612 83.5489 70.8449 83.5138 71.0333 83.4111L70.9915 83.3345C70.823 83.4264 70.6091 83.4609 70.3466 83.4339L70.3377 83.5207ZM71.033 83.4113C71.1027 83.374 71.1637 83.3251 71.2158 83.2647L71.1498 83.2077C71.1046 83.2601 71.052 83.3022 70.9919 83.3344L71.033 83.4113ZM71.155 83.2698L71.1609 83.2747L71.2165 83.2075L71.2106 83.2026L71.155 83.2698ZM71.1453 83.2366L71.0843 83.8299L71.1711 83.8388L71.2321 83.2455L71.1453 83.2366ZM71.1034 83.7981C70.8795 83.9481 70.5903 84.0072 70.2315 83.9703L70.2225 84.057C70.5954 84.0954 70.9066 84.035 71.1519 83.8706L71.1034 83.7981ZM70.2315 83.9703C69.8106 83.927 69.4994 83.7602 69.2918 83.4728L69.2211 83.5239C69.4458 83.835 69.7817 84.0117 70.2225 84.057L70.2315 83.9703ZM69.2917 83.4727C69.0918 83.1978 69.0115 82.8511 69.0549 82.4284L68.9682 82.4195C68.923 82.8585 69.0059 83.228 69.2212 83.524L69.2917 83.4727ZM69.0549 82.4284C69.101 81.9806 69.2627 81.646 69.5361 81.4186L69.4803 81.3515C69.1854 81.5968 69.016 81.9547 68.9682 82.4195L69.0549 82.4284ZM69.536 81.4187C69.8114 81.191 70.1892 81.0986 70.676 81.1487L70.6849 81.0619C70.1829 81.0102 69.7792 81.1044 69.4804 81.3515L69.536 81.4187ZM71.5497 84.0941L71.5063 84.0896L71.5026 84.1258L71.5375 84.136L71.5497 84.0941ZM71.8414 81.259L71.8406 81.2154L71.802 81.2161L71.798 81.2545L71.8414 81.259ZM73.1524 81.4624L73.1342 81.502L73.1345 81.5022L73.1524 81.4624ZM73.6251 81.8001L73.5923 81.8289L73.5925 81.8291L73.6251 81.8001ZM73.3535 83.982L73.3784 84.0178L73.3784 84.0178L73.3535 83.982ZM72.1481 83.6888L72.1047 83.6844L72.101 83.7205L72.1359 83.7307L72.1481 83.6888ZM72.7231 83.7202L72.7325 83.7627L72.7331 83.7626L72.7231 83.7202ZM73.016 83.579L72.989 83.5447L72.9887 83.5449L73.016 83.579ZM72.8813 81.912L72.8985 81.872L72.8985 81.872L72.8813 81.912ZM72.3424 81.8009L72.3441 81.7573L72.3032 81.7557L72.299 81.7964L72.3424 81.8009ZM72.1947 84.1723C71.9682 84.149 71.7573 84.1089 71.5618 84.0522L71.5375 84.136C71.7385 84.1943 71.9547 84.2353 72.1858 84.2591L72.1947 84.1723ZM71.5931 84.0985L71.8848 81.2635L71.798 81.2545L71.5063 84.0896L71.5931 84.0985ZM71.8422 81.3026C72.0288 81.2992 72.2443 81.31 72.4888 81.3352L72.4977 81.2484C72.2507 81.223 72.0316 81.2119 71.8406 81.2154L71.8422 81.3026ZM72.4888 81.3352C72.7321 81.3602 72.947 81.4161 73.1342 81.502L73.1706 81.4228C72.9734 81.3322 72.7489 81.2743 72.4977 81.2484L72.4888 81.3352ZM73.1345 81.5022C73.3234 81.5871 73.4757 81.6962 73.5923 81.8289L73.6579 81.7713C73.5318 81.6278 73.3688 81.5118 73.1702 81.4226L73.1345 81.5022ZM73.5925 81.8291C73.8283 82.0945 73.9262 82.4437 73.8811 82.8821L73.9679 82.8911C74.0149 82.434 73.9132 82.0588 73.6577 81.7712L73.5925 81.8291ZM73.8811 82.8821C73.8304 83.3745 73.6446 83.7265 73.3286 83.9462L73.3784 84.0178C73.7205 83.78 73.9153 83.4017 73.9679 82.8911L73.8811 82.8821ZM73.3286 83.9462C73.0445 84.1436 72.6682 84.221 72.1947 84.1723L72.1858 84.2591C72.6729 84.3092 73.0721 84.2308 73.3784 84.0178L73.3286 83.9462ZM72.1359 83.7307C72.2284 83.7578 72.322 83.7763 72.4165 83.786L72.4254 83.6992C72.3363 83.69 72.248 83.6726 72.1604 83.647L72.1359 83.7307ZM72.4165 83.786C72.5139 83.796 72.6193 83.788 72.7325 83.7627L72.7136 83.6776C72.6076 83.7012 72.5117 83.7081 72.4254 83.6992L72.4165 83.786ZM72.7331 83.7626C72.8489 83.7354 72.9524 83.6855 73.0432 83.6131L72.9887 83.5449C72.9084 83.609 72.8167 83.6533 72.7131 83.6777L72.7331 83.7626ZM73.0429 83.6133C73.2382 83.4599 73.3493 83.2214 73.3818 82.9057L73.295 82.8968C73.2641 83.197 73.1602 83.4103 72.989 83.5447L73.0429 83.6133ZM73.3818 82.9057C73.4083 82.648 73.3832 82.4306 73.3027 82.2564C73.2217 82.081 73.086 81.9528 72.8985 81.872L72.864 81.9521C73.0333 82.025 73.1522 82.1386 73.2235 82.293C73.2954 82.4484 73.3205 82.6487 73.295 82.8968L73.3818 82.9057ZM72.8985 81.872C72.776 81.8192 72.6329 81.7848 72.47 81.768L72.461 81.8548C72.6173 81.8709 72.7514 81.9036 72.864 81.9521L72.8985 81.872ZM72.47 81.768L72.4127 81.7621L72.4038 81.8489L72.461 81.8548L72.47 81.768ZM72.4127 81.7621C72.3906 81.7599 72.3677 81.7583 72.3441 81.7573L72.3406 81.8445C72.3625 81.8454 72.3836 81.8469 72.4038 81.8489L72.4127 81.7621ZM72.299 81.7964L72.1047 83.6844L72.1915 83.6933L72.3858 81.8054L72.299 81.7964Z" fill="#FFDE28" mask="url(#path-51-outside-1_333_2919)"/>
<path d="M147.604 27.1409C151.222 27.9205 155.397 28.9239 161.247 30.8909C167.098 32.858 169.964 34.0762 173.232 35.5024" stroke="black" stroke-width="1.52684" stroke-linecap="round"/>
<circle cx="145.473" cy="26.9546" r="2.07214" transform="rotate(15.7532 145.473 26.9546)" stroke="black" stroke-width="1.52684"/>
<circle cx="175.524" cy="36.5843" r="2.07214" transform="rotate(15.7532 175.524 36.5843)" stroke="black" stroke-width="1.52684"/>
<path d="M144.091 20.7877C149.38 21.7314 154.169 22.7386 163.3 25.7989C172.43 28.8592 176.774 30.7344 180.877 32.5605" stroke="black" stroke-width="1.52684" stroke-linecap="round"/>
<circle cx="183.214" cy="33.4781" r="2.07214" transform="rotate(16.6093 183.214 33.4781)" stroke="black" stroke-width="1.52684"/>
<circle cx="141.787" cy="20.2435" r="2.07214" transform="rotate(16.6093 141.787 20.2435)" stroke="black" stroke-width="1.52684"/>
<path d="M138.264 43.4276C138.061 43.7069 137.562 43.9393 136.65 43.8207C135.771 43.7064 134.69 43.2752 133.648 42.5191C132.606 41.763 131.86 40.8694 131.479 40.0693C131.083 39.239 131.149 38.6921 131.352 38.4129C131.554 38.1336 132.054 37.9012 132.966 38.0198C133.845 38.1341 134.926 38.5653 135.968 39.3214C137.01 40.0775 137.755 40.9711 138.137 41.7713C138.533 42.6015 138.467 43.1484 138.264 43.4276Z" stroke="black" stroke-width="1.52684"/>
<path d="M162.863 50.9031C162.848 51.2477 163.093 51.7407 163.881 52.2166C164.639 52.6752 165.753 53.0118 167.039 53.0703C168.326 53.1287 169.465 52.8946 170.263 52.5068C171.09 52.1043 171.379 51.6355 171.395 51.2909C171.41 50.9463 171.165 50.4533 170.378 49.9774C169.619 49.5188 168.505 49.1822 167.219 49.1238C165.932 49.0653 164.793 49.2994 163.996 49.6873C163.168 50.0897 162.879 50.5585 162.863 50.9031Z" stroke="black" stroke-width="1.52684"/>
<path d="M138.615 57.0765C138.615 56.6548 138.273 56.3131 137.852 56.3131C137.43 56.3131 137.088 56.6548 137.088 57.0765L138.615 57.0765ZM144.723 58.7124L145.486 58.6987C145.48 58.3935 145.294 58.1209 145.011 58.0056C144.728 57.8903 144.404 57.9544 144.187 58.1687L144.723 58.7124ZM151.453 62.4135C151.81 62.1901 151.919 61.7192 151.696 61.3616C151.472 61.004 151.001 60.8952 150.644 61.1186L151.453 62.4135ZM140.676 59.4393L140.514 60.1853L140.676 59.4393ZM147.268 61.6048L146.959 62.3031L147.268 61.6048ZM137.088 57.0765C137.088 57.8831 137.576 58.5805 138.17 59.0795C138.781 59.5926 139.603 59.9875 140.514 60.1853L140.838 58.6932C140.141 58.5418 139.552 58.2461 139.152 57.9105C138.736 57.5608 138.615 57.2514 138.615 57.0765L137.088 57.0765ZM140.514 60.1853C141.34 60.3647 142.244 60.3874 143.067 60.2507C143.874 60.1167 144.693 59.8131 145.258 59.2562L144.187 58.1687C143.933 58.4183 143.462 58.6373 142.816 58.7445C142.186 58.8492 141.477 58.832 140.838 58.6932L140.514 60.1853ZM143.959 58.7262C143.988 60.3154 145.359 61.5957 146.959 62.3031L147.577 60.9066C146.167 60.2835 145.498 59.3859 145.486 58.6987L143.959 58.7262ZM146.959 62.3031C147.79 62.67 148.709 62.8067 149.485 62.811C149.876 62.8131 150.247 62.7818 150.569 62.7221C150.874 62.6655 151.198 62.5724 151.453 62.4135L150.644 61.1186C150.645 61.1176 150.639 61.1217 150.621 61.1295C150.604 61.1371 150.58 61.1466 150.549 61.1572C150.484 61.1786 150.398 61.2009 150.291 61.2208C150.076 61.2607 149.802 61.2859 149.493 61.2842C148.87 61.2808 148.169 61.1684 147.577 60.9066L146.959 62.3031Z" fill="black"/>
<path fill-rule="evenodd" clip-rule="evenodd" d="M179.483 98.8269C180.104 100.142 181.674 100.704 182.989 100.082C183.167 99.9977 183.331 99.8961 183.48 99.7801C184.658 100.739 185.764 101.792 186.793 102.889L187.748 102.221C186.658 101.05 185.479 99.9202 184.213 98.8894C184.567 98.1894 184.605 97.3396 184.244 96.5758C183.622 95.261 182.052 94.6991 180.738 95.3208C179.423 95.9424 178.861 97.5121 179.483 98.8269ZM181.381 105.37C181.348 105.206 181.298 105.042 181.232 104.881C180.676 103.537 179.136 102.898 177.792 103.454C176.448 104.01 175.809 105.55 176.365 106.894C176.397 106.971 176.432 107.045 176.469 107.117L177.577 106.723C177.52 106.64 177.471 106.55 177.431 106.453C177.119 105.698 177.478 104.832 178.233 104.52C178.988 104.208 179.854 104.567 180.166 105.322C180.226 105.467 180.261 105.616 180.273 105.764L181.381 105.37ZM180.413 98.3865C180.763 99.1253 181.795 99.5157 182.534 99.1664C183.272 98.817 183.663 97.7851 183.313 97.0462C182.964 96.3074 181.932 95.917 181.193 96.2663C180.454 96.6156 180.064 97.6476 180.413 98.3865ZM189.016 97.0111C189.572 98.3551 191.112 98.994 192.456 98.4382C193.8 97.8824 194.439 96.3424 193.883 94.9984C193.327 93.6545 191.787 93.0156 190.443 93.5714C189.099 94.1272 188.46 95.6672 189.016 97.0111ZM190.082 96.5703C190.394 97.3255 191.26 97.6846 192.015 97.3723C192.77 97.0599 193.129 96.1945 192.817 95.4393C192.505 94.684 191.639 94.325 190.884 94.6373C190.129 94.9496 189.77 95.8151 190.082 96.5703Z" fill="black"/>
<path d="M182.989 100.082L182.909 99.9143L182.909 99.9143L182.989 100.082ZM179.483 98.8269L179.315 98.9061L179.315 98.9061L179.483 98.8269ZM183.48 99.7801L183.598 99.6364L183.483 99.5433L183.367 99.6337L183.48 99.7801ZM186.793 102.889L186.658 103.016L186.768 103.133L186.899 103.041L186.793 102.889ZM187.748 102.221L187.854 102.373L188.029 102.25L187.883 102.094L187.748 102.221ZM184.213 98.8894L184.048 98.8058L183.981 98.9389L184.096 99.0331L184.213 98.8894ZM184.244 96.5758L184.411 96.4966L184.244 96.5758ZM180.738 95.3208L180.658 95.1531L180.658 95.1531L180.738 95.3208ZM181.232 104.881L181.06 104.952L181.232 104.881ZM181.381 105.37L181.443 105.544L181.594 105.491L181.563 105.333L181.381 105.37ZM177.792 103.454L177.721 103.283L177.721 103.283L177.792 103.454ZM176.365 106.894L176.194 106.965L176.194 106.965L176.365 106.894ZM176.469 107.117L176.305 107.203L176.38 107.345L176.532 107.291L176.469 107.117ZM177.577 106.723L177.639 106.898L177.865 106.817L177.73 106.618L177.577 106.723ZM177.431 106.453L177.602 106.382L177.602 106.382L177.431 106.453ZM178.233 104.52L178.162 104.349L178.162 104.349L178.233 104.52ZM180.166 105.322L180.337 105.251L180.166 105.322ZM180.273 105.764L180.089 105.779L180.109 106.019L180.336 105.938L180.273 105.764ZM182.534 99.1664L182.613 99.334L182.534 99.1664ZM183.313 97.0462L183.146 97.1255L183.146 97.1255L183.313 97.0462ZM181.193 96.2663L181.273 96.4339L181.193 96.2663ZM192.456 98.4382L192.527 98.6095L192.456 98.4382ZM189.016 97.0111L189.188 96.9403L189.016 97.0111ZM193.883 94.9984L193.712 95.0693L193.883 94.9984ZM190.443 93.5714L190.372 93.4001L190.443 93.5714ZM192.015 97.3723L191.944 97.2009L192.015 97.3723ZM190.082 96.5703L190.253 96.4995L190.253 96.4995L190.082 96.5703ZM192.817 95.4393L192.646 95.5101L192.646 95.5101L192.817 95.4393ZM182.909 99.9143C181.687 100.492 180.228 99.9699 179.65 98.7477L179.315 98.9061C179.98 100.313 181.661 100.915 183.068 100.25L182.909 99.9143ZM183.367 99.6337C183.228 99.7415 183.075 99.8359 182.909 99.9143L183.068 100.25C183.258 100.16 183.434 100.051 183.594 99.9266L183.367 99.6337ZM186.928 102.762C185.894 101.66 184.783 100.602 183.598 99.6364L183.363 99.9239C184.534 100.877 185.633 101.924 186.658 103.016L186.928 102.762ZM187.641 102.069L186.687 102.737L186.899 103.041L187.854 102.373L187.641 102.069ZM184.096 99.0331C185.354 100.058 186.527 101.181 187.612 102.347L187.883 102.094C186.789 100.918 185.603 99.7827 184.33 98.7456L184.096 99.0331ZM184.076 96.655C184.412 97.3649 184.376 98.1547 184.048 98.8058L184.379 98.9729C184.757 98.224 184.798 97.3142 184.411 96.4966L184.076 96.655ZM180.817 95.4884C182.039 94.9105 183.498 95.4329 184.076 96.655L184.411 96.4966C183.746 95.0892 182.066 94.4878 180.658 95.1531L180.817 95.4884ZM179.65 98.7477C179.072 97.5255 179.595 96.0662 180.817 95.4884L180.658 95.1531C179.251 95.8185 178.65 97.4988 179.315 98.9061L179.65 98.7477ZM181.06 104.952C181.122 105.102 181.168 105.254 181.199 105.406L181.563 105.333C181.527 105.157 181.474 104.982 181.403 104.81L181.06 104.952ZM177.863 103.626C179.112 103.109 180.544 103.703 181.06 104.952L181.403 104.81C180.808 103.372 179.16 102.688 177.721 103.283L177.863 103.626ZM176.536 106.823C176.02 105.574 176.614 104.142 177.863 103.626L177.721 103.283C176.283 103.878 175.599 105.526 176.194 106.965L176.536 106.823ZM176.633 107.03C176.598 106.964 176.566 106.894 176.536 106.823L176.194 106.965C176.228 107.047 176.265 107.126 176.305 107.203L176.633 107.03ZM177.514 106.548L176.407 106.942L176.532 107.291L177.639 106.898L177.514 106.548ZM177.73 106.618C177.68 106.546 177.637 106.467 177.602 106.382L177.26 106.524C177.304 106.633 177.36 106.734 177.423 106.827L177.73 106.618ZM177.602 106.382C177.329 105.722 177.643 104.965 178.304 104.691L178.162 104.349C177.312 104.7 176.908 105.674 177.26 106.524L177.602 106.382ZM178.304 104.691C178.964 104.418 179.721 104.732 179.995 105.393L180.337 105.251C179.986 104.401 179.012 103.997 178.162 104.349L178.304 104.691ZM179.995 105.393C180.047 105.52 180.078 105.65 180.089 105.779L180.458 105.748C180.444 105.581 180.404 105.414 180.337 105.251L179.995 105.393ZM181.319 105.195L180.211 105.589L180.336 105.938L181.443 105.544L181.319 105.195ZM182.454 98.9988C182.139 99.1479 181.749 99.1433 181.392 99.0107C181.035 98.878 180.731 98.6252 180.581 98.3072L180.246 98.4657C180.445 98.8866 180.832 99.1984 181.263 99.3583C181.694 99.5182 182.189 99.5342 182.613 99.334L182.454 98.9988ZM183.146 97.1255C183.295 97.4409 183.29 97.8306 183.158 98.1878C183.025 98.5451 182.772 98.8484 182.454 98.9988L182.613 99.334C183.034 99.135 183.345 98.7476 183.505 98.3169C183.665 97.8862 183.681 97.3904 183.481 96.967L183.146 97.1255ZM181.273 96.4339C181.588 96.2848 181.978 96.2894 182.335 96.422C182.692 96.5547 182.995 96.8075 183.146 97.1255L183.481 96.967C183.282 96.5461 182.895 96.2343 182.464 96.0744C182.033 95.9145 181.537 95.8985 181.114 96.0987L181.273 96.4339ZM180.581 98.3072C180.432 97.9918 180.436 97.6021 180.569 97.2449C180.702 96.8876 180.955 96.5843 181.273 96.4339L181.114 96.0987C180.693 96.2977 180.381 96.6851 180.221 97.1158C180.062 97.5465 180.046 98.0423 180.246 98.4657L180.581 98.3072ZM192.385 98.2668C191.136 98.7835 189.704 98.1896 189.188 96.9403L188.845 97.082C189.44 98.5205 191.088 99.2044 192.527 98.6095L192.385 98.2668ZM193.712 95.0693C194.228 96.3186 193.634 97.7502 192.385 98.2668L192.527 98.6095C193.965 98.0146 194.649 96.3661 194.054 94.9276L193.712 95.0693ZM190.514 93.7427C191.763 93.2261 193.195 93.82 193.712 95.0693L194.054 94.9276C193.459 93.489 191.811 92.8051 190.372 93.4001L190.514 93.7427ZM189.188 96.9403C188.671 95.691 189.265 94.2594 190.514 93.7427L190.372 93.4001C188.934 93.995 188.25 95.6434 188.845 97.082L189.188 96.9403ZM191.944 97.2009C191.284 97.4741 190.527 97.1601 190.253 96.4995L189.911 96.6412C190.262 97.491 191.236 97.895 192.086 97.5436L191.944 97.2009ZM192.646 95.5101C192.919 96.1707 192.605 96.9277 191.944 97.2009L192.086 97.5436C192.936 97.1921 193.34 96.2183 192.988 95.3684L192.646 95.5101ZM190.955 94.8086C191.616 94.5354 192.373 94.8495 192.646 95.5101L192.988 95.3684C192.637 94.5185 191.663 94.1145 190.813 94.466L190.955 94.8086ZM190.253 96.4995C189.98 95.8388 190.294 95.0818 190.955 94.8086L190.813 94.466C189.963 94.8174 189.559 95.7913 189.911 96.6412L190.253 96.4995Z" fill="black"/>
<path d="M128.582 7.94759C129.971 8.39564 128.522 11.4571 127.51 13.1318C127.425 13.272 127.268 13.35 127.105 13.3377L121.459 12.9132C121.077 12.8845 120.918 12.4249 121.21 12.1771C123.264 10.433 127.309 7.53696 128.582 7.94759Z" fill="#FFDE28" stroke="black" stroke-width="1.52684"/>
<defs>
<linearGradient id="paint0_linear_333_2919" x1="306.234" y1="-37.2796" x2="56.8557" y2="160.872" gradientUnits="userSpaceOnUse">
<stop stop-color="#FFDE28"/>
<stop offset="1" stop-color="#FFDE28" stop-opacity="0.1"/>
</linearGradient>
<linearGradient id="paint1_linear_333_2919" x1="255.289" y1="109.927" x2="37.4347" y2="120.341" gradientUnits="userSpaceOnUse">
<stop stop-color="#FFEF9A"/>
<stop offset="1" stop-color="#423B17"/>
</linearGradient>
</defs>
</svg>
