<svg width="463" height="257" viewBox="0 0 463 257" fill="none" xmlns="http://www.w3.org/2000/svg">
<path d="M25.3202 167.303C-16.6231 112.232 44.7734 64.119 86.2094 71.8558L434.789 188.211C442.539 260.713 333.525 274.382 238.473 231.272C143.344 188.127 68.683 224.238 25.3202 167.303Z" fill="url(#paint0_linear_323_2496)" stroke="url(#paint1_linear_323_2496)" stroke-width="1.94737" stroke-linecap="round"/>
<path d="M232.486 214.592L313.601 169.083C314.45 168.606 314.341 167.351 313.422 167.028L153.794 110.916C153.52 110.82 153.219 110.832 152.954 110.952L64.8883 150.534C63.9653 150.949 64.009 152.274 64.9573 152.627L231.538 214.666C231.849 214.782 232.196 214.755 232.486 214.592Z" fill="#222222" stroke="black" stroke-width="2.64093" stroke-linecap="round"/>
<path d="M206.562 13.0517C188.302 23.3136 143.953 72.1326 136.533 88.2297L399.872 176.324C399.88 123.061 385.403 88.3881 385.58 83.6023C385.731 79.5278 380.75 72.8295 379.776 68.4479C374.421 56.2768 370.301 47.0312 365.171 43.7111C358.757 39.5611 358.183 35.977 349.317 43.7111C342.224 49.8985 343.155 57.9219 340.639 58.2363C328.265 48.7289 274.618 28.04 236.323 23.7155C239.108 10.6109 240.698 -0.590116 227.394 3.21098C223.986 4.18466 228.023 -1.34905 206.562 13.0517Z" fill="#F7F7F7"/>
<path d="M399.494 168.212L400.402 175.777L418.358 181.606L425.526 169.344L427.979 135.767L433.638 124.071L458.16 114.828L456.463 100.491L439.674 97.4731L420.055 104.453L409.114 123.694L405.53 159.346L399.494 168.212Z" fill="#F7F7F7"/>
<path d="M415.717 174.06L409.68 179.908L416.471 181.605L420.412 177.117L415.717 174.06Z" fill="#FFDE28"/>
<rect width="8.45512" height="6.08279" transform="matrix(-0.975845 -0.218465 -0.218465 0.975845 416.164 129.993)" fill="#FFDE28"/>
<path d="M450.992 106.339L453.717 117.287L446.929 118.811L446.301 108.346L450.992 106.339Z" fill="#FFDE28"/>
<circle cx="4.71595" cy="4.71595" r="3.39548" transform="matrix(-0.969958 -0.243273 -0.243273 0.969958 449.405 104.379)" stroke="black" stroke-width="2.64093"/>
<path d="M446.654 117.846C446.512 116.341 445.875 112.247 444.827 111.18" stroke="black" stroke-width="2.64093" stroke-linecap="round"/>
<path d="M447.714 107.118L450.98 106.199C451.191 106.14 451.407 106.27 451.453 106.484C452.092 109.499 453.335 114.708 453.445 116.148" stroke="black" stroke-width="2.64093" stroke-linecap="round"/>
<path d="M400.184 168.212C403.882 164.402 406.655 158.426 406.554 148.994C406.248 120.25 415.257 100.917 438.465 98.2322C451.284 96.7491 457.368 99.7982 458.44 106.937C459.651 114.997 453.495 119.22 441.908 120.809C425.926 123.002 426.732 140.233 427.019 153.3C427.209 161.974 424.885 173.002 417.603 181.548" stroke="black" stroke-width="3.77276" stroke-linecap="round"/>
<circle cx="4.71595" cy="4.71595" r="3.39548" transform="matrix(-0.983937 0.178516 0.178516 0.983937 431.607 109.198)" stroke="black" stroke-width="2.64093"/>
<circle cx="4.71595" cy="4.71595" r="3.39548" transform="matrix(-0.908377 0.418152 0.418152 0.908377 425.913 130.985)" stroke="black" stroke-width="2.64093"/>
<circle cx="4.71595" cy="4.71595" r="3.39548" transform="matrix(0.653805 -0.756663 -0.756663 -0.653805 416.629 164.35)" stroke="black" stroke-width="2.64093"/>
<path d="M424.653 112.134C423.708 110.955 420.692 108.558 419.237 107.866" stroke="black" stroke-width="2.64093" stroke-linecap="round"/>
<path d="M420.056 136.898C416.283 135.955 411.001 135.201 406.922 135.114" stroke="black" stroke-width="2.64093" stroke-linecap="round"/>
<path d="M415.168 134.838L416.493 130.804C416.562 130.597 416.44 130.375 416.228 130.323C413.37 129.626 409.677 128.984 408.245 128.813" stroke="black" stroke-width="2.64093" stroke-linecap="round"/>
<path d="M420.157 177.384C418.68 175.889 417.348 174.651 415.868 173.981C415.709 173.909 415.523 173.964 415.421 174.106C414.965 174.738 413.68 176.482 412.47 177.79C411.686 178.639 411.332 179.059 410.624 179.719" stroke="black" stroke-width="2.64093" stroke-linecap="round"/>
<path d="M420.707 158.669C421.375 158.814 424.27 159.151 426.093 159.158" stroke="black" stroke-width="2.64093" stroke-linecap="round"/>
<path fill-rule="evenodd" clip-rule="evenodd" d="M403.557 177.188L405.598 178.87C407.184 177.068 407.171 174.322 405.496 172.534C403.716 170.633 400.732 170.535 398.831 172.316C398.644 172.491 398.474 172.677 398.322 172.874L400.363 174.555C400.442 174.445 400.533 174.34 400.636 174.243C401.472 173.46 402.786 173.503 403.569 174.339C404.325 175.146 404.311 176.398 403.557 177.188Z" fill="black"/>
<path d="M378.157 120.487L396.329 127.695L397.93 137.047L375.339 127.747L378.157 120.487Z" fill="#FFDE28"/>
<circle cx="5.09322" cy="5.09322" r="3.77276" transform="matrix(-0.898998 -0.437953 -0.437953 0.898998 370.854 112.947)" stroke="black" stroke-width="2.64093"/>
<circle cx="5.09322" cy="5.09322" r="3.77276" transform="matrix(-0.951235 0.308468 0.308468 0.951235 353.655 124.298)" stroke="black" stroke-width="2.64093"/>
<circle cx="5.09322" cy="5.09322" r="3.77276" transform="matrix(-0.951235 0.308468 0.308468 0.951235 353.655 124.298)" stroke="black" stroke-width="2.64093"/>
<circle cx="5.09322" cy="5.09322" r="3.77276" transform="matrix(-0.948435 0.316973 0.316973 0.948435 360.423 91.3729)" stroke="black" stroke-width="2.64093"/>
<path d="M353.964 132.051C364.657 134.905 385.133 142.755 398.74 148.594" stroke="black" stroke-width="2.64093" stroke-linecap="round"/>
<path d="M353.964 132.051C364.657 134.905 385.133 142.755 398.74 148.594" stroke="black" stroke-width="2.64093" stroke-linecap="round"/>
<path d="M361.073 99.4265C371.429 102.091 381.189 105.154 392.892 109.546" stroke="black" stroke-width="2.64093" stroke-linecap="round"/>
<path d="M368.144 116.871C371.826 117.9 370.256 117.469 377.235 119.732M377.235 119.732C376.485 122.985 376.546 123.98 375.585 126.69C375.478 126.993 375.618 127.329 375.914 127.455C380.785 129.524 390.411 133.129 396.515 136.204M377.235 119.732C381.132 121.116 390.465 124.557 396.515 126.979" stroke="black" stroke-width="2.64093" stroke-linecap="round"/>
<path d="M363.105 56.198C360.51 55.2144 359.022 61.4458 358.529 65.1611C358.484 65.4942 358.67 65.8117 358.978 65.9458L366.972 69.425C367.519 69.6628 368.112 69.213 368.015 68.625C367.286 64.1965 365.568 57.1312 363.105 56.198Z" fill="#FFDE28" stroke="black" stroke-width="2.64093"/>
<path d="M205.809 13.8065C214.819 7.32838 229.155 -1.34893 235.192 3.36703C239.651 6.85104 238.398 15.251 236.701 23.5509C248.169 24.8089 267.26 28.4924 284.992 34.4919C310.081 42.9807 333.203 52.3005 340.307 57.7591C343.093 52.9788 344.548 49.7549 348.186 45.056C352.713 39.2083 355.92 36.7556 362.334 40.9056C367.465 44.2257 374.972 56.9402 378.179 64.1083C379.729 67.5715 384.464 79.8019 385.619 84.0269C386.918 88.781 401.07 119.395 400.106 175.658" stroke="black" stroke-width="3.77276" stroke-linecap="round"/>
<path d="M82.7891 70.3184L434.581 187.851" stroke="black" stroke-width="2.64093" stroke-linecap="round"/>
<path d="M246.991 151.104L207.873 137.007C207.6 136.909 207.3 136.919 207.035 137.035L185.188 146.608C184.254 147.017 184.296 148.357 185.254 148.707L225.876 163.556C226.908 163.934 228.053 163.842 229.012 163.306L247.16 153.156C248.007 152.683 247.904 151.433 246.991 151.104Z" fill="#4D4D4D" stroke="black" stroke-width="2.64093"/>
<path d="M291.971 135.855L347.997 148.594L344.834 160.001L332.95 171.319L304.843 185.844L284.47 181.128L277.868 168.112L282.395 148.683L287.066 144.255L291.971 135.855Z" fill="#F7F7F7"/>
<path d="M135.823 86.8093H196.187L195.199 108.603L176.192 118.878L149.405 127.178L130.73 119.821L130.353 102.844L131.251 98.7935L135.823 86.8093Z" fill="#F7F7F7"/>
<path fill-rule="evenodd" clip-rule="evenodd" d="M160.036 51.6668C160.602 53.1689 161.867 54.3805 163.539 54.8096C166.264 55.5086 169.04 53.8665 169.738 51.1418C170.408 48.5303 168.928 45.8721 166.404 45.0404L163.975 47.5684C164.422 47.4073 164.92 47.3739 165.414 47.5008C166.726 47.8373 167.517 49.1737 167.18 50.4856C166.844 51.7974 165.508 52.5881 164.196 52.2515C162.884 51.915 162.093 50.5787 162.43 49.2668C162.441 49.2234 162.453 49.1806 162.466 49.1383L160.036 51.6668Z" fill="black"/>
<circle cx="166.179" cy="67.0557" r="3.77276" transform="rotate(54.9655 166.179 67.0557)" stroke="black" stroke-width="2.64093"/>
<circle cx="182.09" cy="40.1454" r="3.77276" transform="rotate(55.6524 182.09 40.1454)" stroke="black" stroke-width="2.64093"/>
<path d="M162.513 65.9685C159.681 64.814 156.139 63.527 152.201 62.1933" stroke="black" stroke-width="2.64093" stroke-linecap="round"/>
<path d="M177.727 38.1528C176.8 37.646 175.803 37.1157 174.744 36.5659" stroke="black" stroke-width="2.64093" stroke-linecap="round"/>
<path d="M205.242 14.1837C161.29 42.668 116.756 101.523 132.617 120.764C144.124 134.723 181.851 120.953 195.245 107.937" stroke="black" stroke-width="3.77276" stroke-linecap="round"/>
<path fill-rule="evenodd" clip-rule="evenodd" d="M142.574 108.333C140.274 108.37 138.38 106.535 138.343 104.236C138.337 103.924 138.367 103.62 138.427 103.327C135.968 102.201 133.405 101.286 130.842 100.545L131.371 98.7987C133.996 99.5592 136.634 100.5 139.178 101.665C139.925 100.674 141.103 100.026 142.439 100.004C144.739 99.9674 146.634 101.802 146.671 104.101C146.708 106.401 144.873 108.296 142.574 108.333ZM134.716 87.1203L134.954 86.9644L134.076 89.8636C134.329 92.0548 136.261 93.6844 138.486 93.5381C140.781 93.3873 142.519 91.4045 142.369 89.1094C142.218 86.8143 140.235 85.076 137.94 85.2269C136.575 85.3166 135.407 86.0543 134.716 87.1203ZM142.548 106.704C141.256 106.725 139.98 105.534 139.96 104.242C139.939 102.949 141.13 101.674 142.422 101.653C143.715 101.632 144.99 102.824 145.011 104.116C145.031 105.408 143.84 106.683 142.548 106.704ZM133.308 118.394C131.013 118.545 129.03 116.807 128.879 114.511C128.728 112.216 130.467 110.234 132.762 110.083C135.057 109.932 137.04 111.67 137.19 113.965C137.341 116.26 135.603 118.243 133.308 118.394ZM133.188 116.574C131.899 116.658 130.784 115.682 130.7 114.392C130.615 113.102 131.592 111.988 132.881 111.903C134.171 111.818 135.285 112.795 135.37 114.085C135.455 115.375 134.478 116.489 133.188 116.574ZM138.366 91.7178C137.077 91.8026 135.962 90.8257 135.878 89.536C135.793 88.2462 136.77 87.132 138.059 87.0472C139.349 86.9624 140.463 87.9393 140.548 89.229C140.633 90.5188 139.656 91.633 138.366 91.7178Z" fill="black"/>
<path d="M138.343 104.236L138.663 104.231L138.663 104.231L138.343 104.236ZM142.574 108.333L142.579 108.653L142.579 108.653L142.574 108.333ZM138.427 103.327L138.56 103.035L138.792 103.142L138.741 103.392L138.427 103.327ZM130.842 100.545L130.753 100.853L130.441 100.763L130.535 100.452L130.842 100.545ZM131.371 98.7987L131.064 98.7057L131.155 98.4025L131.46 98.4906L131.371 98.7987ZM139.178 101.665L139.435 101.858L139.279 102.064L139.045 101.956L139.178 101.665ZM142.439 100.004L142.445 100.325L142.445 100.325L142.439 100.004ZM146.671 104.101L146.991 104.096L146.991 104.096L146.671 104.101ZM134.716 87.1203L134.892 87.3886L134.447 86.9459L134.716 87.1203ZM134.954 86.9644L134.778 86.6961L135.517 86.2124L135.261 87.0573L134.954 86.9644ZM134.076 89.8636L133.758 89.9004L133.75 89.8343L133.769 89.7706L134.076 89.8636ZM138.486 93.5381L138.465 93.2181L138.486 93.5381ZM142.369 89.1094L142.689 89.0883L142.369 89.1094ZM137.94 85.2269L137.919 84.9069L137.919 84.9069L137.94 85.2269ZM139.96 104.242L140.28 104.236L139.96 104.242ZM142.548 106.704L142.553 107.025L142.553 107.025L142.548 106.704ZM142.422 101.653L142.417 101.333L142.422 101.653ZM145.011 104.116L144.69 104.121L145.011 104.116ZM128.879 114.511L128.559 114.533L128.879 114.511ZM133.308 118.394L133.287 118.074L133.308 118.394ZM132.762 110.083L132.783 110.403L132.762 110.083ZM137.19 113.965L137.51 113.944L137.51 113.944L137.19 113.965ZM130.7 114.392L130.38 114.413L130.7 114.392ZM133.188 116.574L133.167 116.254L133.167 116.254L133.188 116.574ZM132.881 111.903L132.902 112.223L132.881 111.903ZM135.37 114.085L135.69 114.064L135.69 114.064L135.37 114.085ZM135.878 89.536L136.198 89.515L135.878 89.536ZM138.366 91.7178L138.345 91.3978L138.366 91.7178ZM138.059 87.0472L138.081 87.3672L138.081 87.3672L138.059 87.0472ZM140.548 89.229L140.868 89.208L140.548 89.229ZM138.663 104.231C138.697 106.353 140.446 108.046 142.569 108.012L142.579 108.653C140.102 108.693 138.062 106.718 138.022 104.241L138.663 104.231ZM138.741 103.392C138.686 103.662 138.659 103.943 138.663 104.231L138.022 104.241C138.016 103.906 138.048 103.578 138.113 103.263L138.741 103.392ZM130.931 100.237C133.507 100.982 136.085 101.901 138.56 103.035L138.293 103.619C135.851 102.5 133.304 101.591 130.753 100.853L130.931 100.237ZM131.677 98.8916L131.149 100.638L130.535 100.452L131.064 98.7057L131.677 98.8916ZM139.045 101.956C136.517 100.799 133.894 99.8636 131.281 99.1067L131.46 98.4906C134.097 99.2548 136.751 100.201 139.312 101.373L139.045 101.956ZM142.445 100.325C141.212 100.345 140.124 100.943 139.435 101.858L138.922 101.472C139.725 100.406 140.995 99.7071 142.434 99.6839L142.445 100.325ZM146.35 104.107C146.316 101.984 144.567 100.291 142.445 100.325L142.434 99.6839C144.911 99.6439 146.951 101.619 146.991 104.096L146.35 104.107ZM142.569 108.012C144.691 107.978 146.384 106.229 146.35 104.107L146.991 104.096C147.031 106.573 145.056 108.613 142.579 108.653L142.569 108.012ZM134.54 86.852L134.778 86.6961L135.13 87.2326L134.892 87.3886L134.54 86.852ZM135.261 87.0573L134.383 89.9565L133.769 89.7706L134.647 86.8714L135.261 87.0573ZM134.395 89.8268C134.628 91.849 136.411 93.3531 138.465 93.2181L138.507 93.8581C136.11 94.0157 134.03 92.2606 133.758 89.9004L134.395 89.8268ZM138.465 93.2181C140.583 93.0789 142.188 91.2488 142.049 89.1304L142.689 89.0883C142.851 91.5601 140.979 93.6957 138.507 93.8581L138.465 93.2181ZM142.049 89.1304C141.909 87.012 140.079 85.4076 137.961 85.5469L137.919 84.9069C140.391 84.7444 142.526 86.6165 142.689 89.0883L142.049 89.1304ZM137.961 85.5469C136.701 85.6297 135.623 86.31 134.985 87.2947L134.447 86.9459C135.19 85.7986 136.448 85.0035 137.919 84.9069L137.961 85.5469ZM140.28 104.236C140.289 104.779 140.564 105.322 140.997 105.732C141.431 106.143 141.995 106.392 142.543 106.384L142.553 107.025C141.808 107.037 141.089 106.702 140.557 106.198C140.024 105.695 139.651 104.996 139.639 104.247L140.28 104.236ZM142.427 101.974C141.885 101.983 141.342 102.257 140.931 102.691C140.521 103.125 140.271 103.689 140.28 104.236L139.639 104.247C139.627 103.502 139.962 102.782 140.466 102.25C140.969 101.718 141.668 101.345 142.417 101.333L142.427 101.974ZM144.69 104.121C144.681 103.578 144.407 103.035 143.973 102.625C143.539 102.215 142.975 101.965 142.427 101.974L142.417 101.333C143.162 101.321 143.881 101.656 144.414 102.159C144.946 102.662 145.319 103.361 145.331 104.111L144.69 104.121ZM142.543 106.384C143.086 106.375 143.629 106.1 144.039 105.667C144.449 105.233 144.699 104.669 144.69 104.121L145.331 104.111C145.343 104.855 145.008 105.575 144.505 106.107C144.001 106.639 143.303 107.013 142.553 107.025L142.543 106.384ZM129.199 114.49C129.338 116.609 131.169 118.213 133.287 118.074L133.329 118.714C130.857 118.876 128.722 117.004 128.559 114.533L129.199 114.49ZM132.783 110.403C130.664 110.542 129.06 112.372 129.199 114.49L128.559 114.533C128.397 112.061 130.269 109.925 132.741 109.763L132.783 110.403ZM136.87 113.986C136.731 111.868 134.901 110.263 132.783 110.403L132.741 109.763C135.212 109.6 137.348 111.472 137.51 113.944L136.87 113.986ZM133.287 118.074C135.405 117.935 137.01 116.105 136.87 113.986L137.51 113.944C137.673 116.416 135.801 118.552 133.329 118.714L133.287 118.074ZM131.02 114.371C131.093 115.484 132.054 116.327 133.167 116.254L133.209 116.894C131.743 116.99 130.476 115.879 130.38 114.413L131.02 114.371ZM132.902 112.223C131.789 112.296 130.946 113.258 131.02 114.371L130.38 114.413C130.283 112.946 131.394 111.679 132.86 111.583L132.902 112.223ZM135.05 114.106C134.977 112.993 134.015 112.15 132.902 112.223L132.86 111.583C134.327 111.487 135.594 112.597 135.69 114.064L135.05 114.106ZM133.167 116.254C134.28 116.181 135.123 115.219 135.05 114.106L135.69 114.064C135.787 115.53 134.676 116.797 133.209 116.894L133.167 116.254ZM136.198 89.515C136.271 90.628 137.232 91.471 138.345 91.3978L138.387 92.0378C136.921 92.1342 135.654 91.0235 135.558 89.557L136.198 89.515ZM138.081 87.3672C136.967 87.4403 136.124 88.4019 136.198 89.515L135.558 89.557C135.461 88.0905 136.572 86.8236 138.038 86.7272L138.081 87.3672ZM140.228 89.25C140.155 88.137 139.194 87.294 138.081 87.3672L138.038 86.7272C139.505 86.6308 140.772 87.7415 140.868 89.208L140.228 89.25ZM138.345 91.3978C139.458 91.3247 140.301 90.3631 140.228 89.25L140.868 89.208C140.965 90.6745 139.854 91.9414 138.387 92.0378L138.345 91.3978Z" fill="black"/>
<path d="M345.211 158.303C336.995 170.927 303.9 195.708 283.904 180.185C275.559 173.706 276.567 156.482 289.85 139.816C291.278 138.024 292.819 136.257 294.468 134.535" stroke="black" stroke-width="3.77276" stroke-linecap="round"/>
<ellipse cx="205.32" cy="79.1324" rx="6.39105" ry="11.6408" transform="rotate(-69.5962 205.32 79.1324)" fill="#FFDE28"/>
<ellipse cx="302.045" cy="111.481" rx="6.39105" ry="11.6408" transform="rotate(-75.6503 302.045 111.481)" fill="#FFDE28"/>
<ellipse cx="220.351" cy="79.5974" rx="6.39105" ry="11.6408" transform="rotate(-69.7616 220.351 79.5974)" fill="black"/>
<ellipse cx="290.926" cy="103.061" rx="6.39105" ry="11.6408" transform="rotate(109.388 290.926 103.061)" fill="black"/>
<path d="M195.504 121.823L230.604 212.383C230.954 213.286 230.082 214.183 229.17 213.859L64.1214 155.266C63.8174 155.158 63.5739 154.925 63.4521 154.627L27.4188 66.2809C27.0524 65.3825 27.9122 64.4697 28.8308 64.7818L194.813 121.16C195.13 121.268 195.383 121.51 195.504 121.823Z" fill="#222222" stroke="black" stroke-width="2.64093" stroke-linecap="round"/>
<path d="M122.82 150.272C110.885 147.322 108.017 132.706 111.419 126.588C111.539 126.372 111.833 126.349 111.999 126.532L119.133 134.374C119.266 134.52 119.489 134.539 119.644 134.418L126.266 129.26C126.432 129.13 126.669 129.159 126.793 129.329C132.651 137.367 134.959 153.273 122.82 150.272Z" stroke="#FFDE28" stroke-width="1.88638"/>
<mask id="path-51-outside-1_323_2496" maskUnits="userSpaceOnUse" x="113.798" y="136.793" width="14.6429" height="8.39619" fill="black">
<rect fill="white" x="113.798" y="136.793" width="14.6429" height="8.39619"/>
<path d="M117.817 138.219C117.967 138.247 118.093 138.266 118.193 138.277L118.497 138.308C118.6 138.319 118.708 138.32 118.823 138.312L118.511 141.343C118.449 141.944 118.217 142.408 117.816 142.734C117.436 143.043 116.986 143.171 116.465 143.118C115.896 143.059 115.45 142.864 115.129 142.532C114.77 142.159 114.622 141.66 114.687 141.034L115.006 137.93C115.208 137.963 115.398 137.989 115.576 138.007C115.757 138.026 115.907 138.032 116.026 138.024L115.701 141.187C115.669 141.495 115.739 141.744 115.909 141.934C116.069 142.109 116.281 142.21 116.545 142.237C116.936 142.277 117.216 142.103 117.387 141.716C117.448 141.577 117.49 141.401 117.512 141.188L117.817 138.219ZM122.02 138.578C122.476 138.625 122.858 138.744 123.164 138.936L123.049 140.058L123.041 140.064C122.926 139.84 122.652 139.671 122.219 139.558C122.092 139.522 121.929 139.494 121.731 139.474C121.533 139.454 121.335 139.472 121.137 139.528C120.939 139.581 120.771 139.67 120.635 139.795C120.371 140.037 120.213 140.404 120.162 140.898C120.103 141.472 120.21 141.915 120.481 142.227C120.706 142.487 121.024 142.638 121.434 142.681C121.899 142.728 122.285 142.668 122.594 142.5C122.706 142.44 122.804 142.361 122.889 142.264L122.899 142.272L122.793 143.298C122.387 143.57 121.868 143.673 121.235 143.608C120.49 143.532 119.931 143.235 119.557 142.717C119.198 142.223 119.056 141.604 119.133 140.859C119.214 140.069 119.501 139.47 119.992 139.062C120.489 138.651 121.164 138.49 122.02 138.578ZM124.631 143.958C124.235 143.917 123.866 143.847 123.523 143.747L124.028 138.844C124.354 138.838 124.73 138.857 125.155 138.9C125.583 138.944 125.963 139.043 126.295 139.196C126.63 139.346 126.903 139.541 127.113 139.78C127.538 140.258 127.71 140.884 127.631 141.659C127.541 142.526 127.212 143.158 126.643 143.554C126.133 143.909 125.462 144.043 124.631 143.958ZM124.558 143.047C124.714 143.092 124.871 143.123 125.03 143.14C125.189 143.156 125.363 143.143 125.553 143.101C125.742 143.056 125.911 142.975 126.059 142.857C126.376 142.608 126.562 142.217 126.617 141.684C126.707 140.81 126.443 140.239 125.826 139.973C125.623 139.886 125.383 139.828 125.107 139.799L125.008 139.789C124.972 139.785 124.934 139.783 124.894 139.781L124.558 143.047Z"/>
</mask>
<path d="M117.817 138.219C117.967 138.247 118.093 138.266 118.193 138.277L118.497 138.308C118.6 138.319 118.708 138.32 118.823 138.312L118.511 141.343C118.449 141.944 118.217 142.408 117.816 142.734C117.436 143.043 116.986 143.171 116.465 143.118C115.896 143.059 115.45 142.864 115.129 142.532C114.77 142.159 114.622 141.66 114.687 141.034L115.006 137.93C115.208 137.963 115.398 137.989 115.576 138.007C115.757 138.026 115.907 138.032 116.026 138.024L115.701 141.187C115.669 141.495 115.739 141.744 115.909 141.934C116.069 142.109 116.281 142.21 116.545 142.237C116.936 142.277 117.216 142.103 117.387 141.716C117.448 141.577 117.49 141.401 117.512 141.188L117.817 138.219ZM122.02 138.578C122.476 138.625 122.858 138.744 123.164 138.936L123.049 140.058L123.041 140.064C122.926 139.84 122.652 139.671 122.219 139.558C122.092 139.522 121.929 139.494 121.731 139.474C121.533 139.454 121.335 139.472 121.137 139.528C120.939 139.581 120.771 139.67 120.635 139.795C120.371 140.037 120.213 140.404 120.162 140.898C120.103 141.472 120.21 141.915 120.481 142.227C120.706 142.487 121.024 142.638 121.434 142.681C121.899 142.728 122.285 142.668 122.594 142.5C122.706 142.44 122.804 142.361 122.889 142.264L122.899 142.272L122.793 143.298C122.387 143.57 121.868 143.673 121.235 143.608C120.49 143.532 119.931 143.235 119.557 142.717C119.198 142.223 119.056 141.604 119.133 140.859C119.214 140.069 119.501 139.47 119.992 139.062C120.489 138.651 121.164 138.49 122.02 138.578ZM124.631 143.958C124.235 143.917 123.866 143.847 123.523 143.747L124.028 138.844C124.354 138.838 124.73 138.857 125.155 138.9C125.583 138.944 125.963 139.043 126.295 139.196C126.63 139.346 126.903 139.541 127.113 139.78C127.538 140.258 127.71 140.884 127.631 141.659C127.541 142.526 127.212 143.158 126.643 143.554C126.133 143.909 125.462 144.043 124.631 143.958ZM124.558 143.047C124.714 143.092 124.871 143.123 125.03 143.14C125.189 143.156 125.363 143.143 125.553 143.101C125.742 143.056 125.911 142.975 126.059 142.857C126.376 142.608 126.562 142.217 126.617 141.684C126.707 140.81 126.443 140.239 125.826 139.973C125.623 139.886 125.383 139.828 125.107 139.799L125.008 139.789C124.972 139.785 124.934 139.783 124.894 139.781L124.558 143.047Z" fill="#FFDE28"/>
<path d="M117.817 138.219L117.831 138.145L117.751 138.13L117.742 138.212L117.817 138.219ZM118.823 138.312L118.898 138.32L118.907 138.23L118.817 138.237L118.823 138.312ZM115.129 142.532L115.075 142.584L115.075 142.584L115.129 142.532ZM115.006 137.93L115.018 137.856L114.939 137.843L114.931 137.923L115.006 137.93ZM116.026 138.024L116.101 138.032L116.11 137.943L116.021 137.949L116.026 138.024ZM115.909 141.934L115.853 141.985L115.853 141.985L115.909 141.934ZM117.387 141.716L117.456 141.746L117.456 141.746L117.387 141.716ZM117.804 138.294C117.955 138.322 118.082 138.341 118.185 138.352L118.201 138.202C118.103 138.192 117.98 138.173 117.831 138.145L117.804 138.294ZM118.185 138.352L118.489 138.383L118.505 138.233L118.201 138.202L118.185 138.352ZM118.489 138.383C118.597 138.394 118.71 138.395 118.828 138.387L118.817 138.237C118.707 138.244 118.603 138.243 118.505 138.233L118.489 138.383ZM118.748 138.304L118.436 141.335L118.586 141.35L118.898 138.32L118.748 138.304ZM118.436 141.335C118.375 141.92 118.151 142.364 117.768 142.676L117.863 142.793C118.283 142.451 118.522 141.968 118.586 141.35L118.436 141.335ZM117.768 142.676C117.405 142.971 116.975 143.094 116.473 143.042L116.457 143.193C116.996 143.248 117.467 143.115 117.863 142.793L117.768 142.676ZM116.473 143.042C115.917 142.985 115.49 142.796 115.183 142.479L115.075 142.584C115.411 142.932 115.875 143.133 116.457 143.193L116.473 143.042ZM115.183 142.48C114.843 142.126 114.699 141.651 114.762 141.042L114.612 141.027C114.546 141.669 114.697 142.192 115.075 142.584L115.183 142.48ZM114.762 141.042L115.081 137.938L114.931 137.923L114.612 141.027L114.762 141.042ZM114.994 138.005C115.197 138.038 115.388 138.064 115.568 138.082L115.584 137.932C115.407 137.914 115.219 137.889 115.018 137.856L114.994 138.005ZM115.568 138.082C115.751 138.101 115.906 138.107 116.031 138.099L116.021 137.949C115.908 137.956 115.762 137.951 115.584 137.932L115.568 138.082ZM115.951 138.016L115.626 141.179L115.776 141.195L116.101 138.032L115.951 138.016ZM115.626 141.179C115.592 141.503 115.665 141.775 115.853 141.985L115.965 141.884C115.812 141.713 115.746 141.486 115.776 141.195L115.626 141.179ZM115.853 141.985C116.027 142.175 116.257 142.283 116.537 142.312L116.552 142.162C116.304 142.136 116.111 142.043 115.965 141.883L115.853 141.985ZM116.537 142.312C116.746 142.333 116.931 142.298 117.088 142.201C117.245 142.104 117.366 141.95 117.456 141.746L117.318 141.686C117.237 141.869 117.133 141.996 117.009 142.073C116.885 142.149 116.735 142.18 116.552 142.162L116.537 142.312ZM117.456 141.746C117.522 141.598 117.564 141.413 117.587 141.196L117.437 141.18C117.415 141.388 117.375 141.556 117.318 141.686L117.456 141.746ZM117.587 141.196L117.892 138.227L117.742 138.212L117.437 141.18L117.587 141.196ZM123.164 138.936L123.239 138.944L123.244 138.897L123.204 138.872L123.164 138.936ZM123.049 140.058L123.096 140.116L123.121 140.097L123.124 140.066L123.049 140.058ZM123.041 140.064L122.974 140.099L123.016 140.182L123.088 140.123L123.041 140.064ZM122.219 139.558L122.199 139.63L122.2 139.631L122.219 139.558ZM121.137 139.528L121.156 139.601L121.157 139.6L121.137 139.528ZM120.635 139.795L120.584 139.739L120.584 139.739L120.635 139.795ZM120.481 142.227L120.538 142.178L120.538 142.177L120.481 142.227ZM122.594 142.5L122.558 142.433L122.558 142.434L122.594 142.5ZM122.889 142.264L122.937 142.205L122.88 142.158L122.831 142.214L122.889 142.264ZM122.899 142.272L122.974 142.28L122.978 142.24L122.947 142.214L122.899 142.272ZM122.793 143.298L122.835 143.361L122.865 143.341L122.868 143.306L122.793 143.298ZM119.557 142.717L119.618 142.673L119.618 142.673L119.557 142.717ZM119.992 139.062L119.944 139.004L119.944 139.004L119.992 139.062ZM122.012 138.653C122.46 138.699 122.83 138.816 123.124 139L123.204 138.872C122.886 138.673 122.493 138.551 122.027 138.503L122.012 138.653ZM123.089 138.929L122.974 140.05L123.124 140.066L123.239 138.944L123.089 138.929ZM123.001 139.999L122.993 140.006L123.088 140.123L123.096 140.116L123.001 139.999ZM123.108 140.03C122.977 139.776 122.676 139.6 122.238 139.485L122.2 139.631C122.627 139.743 122.874 139.904 122.974 140.099L123.108 140.03ZM122.239 139.485C122.106 139.448 121.939 139.42 121.739 139.399L121.723 139.549C121.919 139.569 122.077 139.597 122.199 139.63L122.239 139.485ZM121.739 139.399C121.531 139.378 121.323 139.396 121.116 139.455L121.157 139.6C121.347 139.547 121.535 139.53 121.723 139.549L121.739 139.399ZM121.117 139.455C120.909 139.511 120.73 139.606 120.584 139.739L120.686 139.85C120.812 139.735 120.969 139.651 121.156 139.601L121.117 139.455ZM120.584 139.739C120.302 139.997 120.139 140.385 120.087 140.89L120.237 140.906C120.287 140.423 120.44 140.076 120.686 139.85L120.584 139.739ZM120.087 140.89C120.027 141.477 120.134 141.943 120.424 142.277L120.538 142.177C120.285 141.887 120.18 141.467 120.237 140.906L120.087 140.89ZM120.424 142.276C120.664 142.554 121.001 142.712 121.427 142.756L121.442 142.606C121.047 142.565 120.748 142.421 120.538 142.178L120.424 142.276ZM121.427 142.756C121.901 142.805 122.304 142.744 122.63 142.566L122.558 142.434C122.266 142.593 121.896 142.652 121.442 142.606L121.427 142.756ZM122.629 142.567C122.75 142.502 122.856 142.417 122.946 142.313L122.831 142.214C122.753 142.305 122.662 142.378 122.558 142.433L122.629 142.567ZM122.84 142.322L122.851 142.33L122.947 142.214L122.937 142.205L122.84 142.322ZM122.824 142.264L122.718 143.291L122.868 143.306L122.974 142.28L122.824 142.264ZM122.751 143.236C122.364 143.495 121.864 143.597 121.243 143.533L121.228 143.683C121.873 143.75 122.411 143.645 122.835 143.361L122.751 143.236ZM121.243 143.533C120.515 143.458 119.977 143.17 119.618 142.673L119.495 142.761C119.884 143.299 120.465 143.605 121.228 143.683L121.243 143.533ZM119.618 142.673C119.272 142.197 119.133 141.597 119.208 140.866L119.058 140.851C118.98 141.61 119.123 142.249 119.496 142.761L119.618 142.673ZM119.208 140.866C119.288 140.092 119.567 139.513 120.04 139.12L119.944 139.004C119.434 139.428 119.141 140.047 119.058 140.851L119.208 140.866ZM120.04 139.12C120.516 138.726 121.17 138.566 122.012 138.653L122.027 138.503C121.159 138.413 120.461 138.576 119.944 139.004L120.04 139.12ZM123.523 143.747L123.448 143.74L123.442 143.802L123.502 143.82L123.523 143.747ZM124.028 138.844L124.026 138.768L123.959 138.769L123.953 138.836L124.028 138.844ZM126.295 139.196L126.264 139.264L126.264 139.264L126.295 139.196ZM127.113 139.78L127.056 139.83L127.057 139.83L127.113 139.78ZM126.643 143.554L126.686 143.616L126.686 143.616L126.643 143.554ZM124.558 143.047L124.483 143.039L124.477 143.101L124.537 143.119L124.558 143.047ZM125.553 143.101L125.569 143.174L125.57 143.174L125.553 143.101ZM126.059 142.857L126.013 142.797L126.012 142.798L126.059 142.857ZM125.826 139.973L125.856 139.904L125.856 139.904L125.826 139.973ZM124.894 139.781L124.897 139.706L124.826 139.703L124.819 139.773L124.894 139.781ZM124.639 143.883C124.247 143.842 123.882 143.773 123.544 143.675L123.502 143.82C123.85 143.921 124.224 143.992 124.623 144.033L124.639 143.883ZM123.598 143.755L124.103 138.851L123.953 138.836L123.448 143.74L123.598 143.755ZM124.029 138.919C124.352 138.913 124.725 138.932 125.147 138.976L125.163 138.825C124.736 138.781 124.357 138.762 124.026 138.768L124.029 138.919ZM125.147 138.976C125.568 139.019 125.94 139.115 126.264 139.264L126.327 139.127C125.986 138.97 125.597 138.87 125.163 138.825L125.147 138.976ZM126.264 139.264C126.591 139.411 126.854 139.6 127.056 139.83L127.17 139.73C126.951 139.482 126.67 139.281 126.326 139.127L126.264 139.264ZM127.057 139.83C127.464 140.289 127.634 140.893 127.556 141.651L127.706 141.667C127.787 140.876 127.611 140.227 127.169 139.73L127.057 139.83ZM127.556 141.651C127.468 142.503 127.147 143.112 126.6 143.492L126.686 143.616C127.278 143.204 127.615 142.55 127.706 141.667L127.556 141.651ZM126.6 143.492C126.109 143.833 125.458 143.967 124.639 143.883L124.623 144.033C125.466 144.12 126.156 143.984 126.686 143.616L126.6 143.492ZM124.537 143.119C124.697 143.166 124.859 143.198 125.022 143.215L125.038 143.064C124.884 143.049 124.731 143.019 124.579 142.974L124.537 143.119ZM125.022 143.215C125.191 143.232 125.373 143.218 125.569 143.174L125.536 143.027C125.353 143.068 125.187 143.08 125.038 143.064L125.022 143.215ZM125.57 143.174C125.77 143.127 125.949 143.041 126.106 142.915L126.012 142.798C125.873 142.908 125.715 142.985 125.535 143.027L125.57 143.174ZM126.106 142.916C126.444 142.651 126.636 142.238 126.692 141.692L126.542 141.677C126.488 142.196 126.309 142.565 126.013 142.797L126.106 142.916ZM126.692 141.692C126.738 141.246 126.695 140.87 126.555 140.569C126.415 140.266 126.181 140.044 125.856 139.904L125.796 140.043C126.089 140.169 126.295 140.365 126.418 140.632C126.543 140.901 126.586 141.248 126.542 141.677L126.692 141.692ZM125.856 139.904C125.644 139.813 125.397 139.753 125.115 139.724L125.099 139.874C125.37 139.902 125.602 139.959 125.796 140.043L125.856 139.904ZM125.115 139.724L125.016 139.714L125 139.864L125.099 139.874L125.115 139.724ZM125.016 139.714C124.978 139.71 124.938 139.707 124.897 139.706L124.891 139.856C124.929 139.858 124.966 139.861 125 139.864L125.016 139.714ZM124.819 139.773L124.483 143.039L124.633 143.054L124.969 139.789L124.819 139.773Z" fill="#FFDE28" mask="url(#path-51-outside-1_323_2496)"/>
<path d="M255.832 45.5056C262.09 46.854 269.312 48.5896 279.431 51.9919C289.55 55.3942 294.508 57.5013 300.161 59.9682" stroke="black" stroke-width="2.64093" stroke-linecap="round"/>
<circle cx="252.147" cy="45.1832" r="3.58412" transform="rotate(15.7532 252.147 45.1832)" stroke="black" stroke-width="2.64093"/>
<circle cx="304.124" cy="61.8396" r="3.58412" transform="rotate(15.7532 304.124 61.8396)" stroke="black" stroke-width="2.64093"/>
<path d="M249.756 34.5164C258.904 36.1488 267.187 37.8908 282.98 43.1841C298.772 48.4774 306.286 51.721 313.383 54.8796" stroke="black" stroke-width="2.64093" stroke-linecap="round"/>
<circle cx="317.425" cy="56.4667" r="3.58412" transform="rotate(16.6093 317.425 56.4667)" stroke="black" stroke-width="2.64093"/>
<circle cx="245.771" cy="33.5752" r="3.58412" transform="rotate(16.6093 245.771 33.5752)" stroke="black" stroke-width="2.64093"/>
<path d="M239.677 73.6763C239.326 74.1593 238.462 74.5614 236.885 74.3562C235.364 74.1585 233.495 73.4127 231.692 72.1049C229.89 70.797 228.601 69.2515 227.941 67.8675C227.256 66.4314 227.37 65.4855 227.721 65.0025C228.071 64.5195 228.935 64.1175 230.513 64.3226C232.033 64.5203 233.902 65.2661 235.705 66.5739C237.508 67.8818 238.797 69.4273 239.456 70.8114C240.141 72.2475 240.027 73.1934 239.677 73.6763Z" stroke="black" stroke-width="2.64093"/>
<path d="M282.226 86.6062C282.199 87.2023 282.624 88.0551 283.985 88.8782C285.298 89.6715 287.224 90.2536 289.449 90.3547C291.674 90.4559 293.645 90.051 295.024 89.3801C296.455 88.6839 296.955 87.8732 296.982 87.2771C297.009 86.681 296.585 85.8282 295.223 85.0051C293.911 84.2119 291.984 83.6297 289.759 83.5286C287.534 83.4274 285.563 83.8324 284.184 84.5033C282.754 85.1994 282.253 86.0102 282.226 86.6062Z" stroke="black" stroke-width="2.64093"/>
<path d="M240.284 97.2842C240.284 96.5549 239.693 95.9637 238.963 95.9637C238.234 95.9637 237.643 96.5549 237.643 97.2842L240.284 97.2842ZM250.847 100.114L252.168 100.09C252.158 99.5622 251.835 99.0907 251.346 98.8912C250.857 98.6918 250.297 98.8027 249.92 99.1733L250.847 100.114ZM262.488 106.516C263.107 106.129 263.295 105.315 262.908 104.696C262.522 104.078 261.707 103.889 261.089 104.276L262.488 106.516ZM243.848 101.371L243.567 102.661L243.848 101.371ZM255.25 105.117L254.716 106.324L255.25 105.117ZM237.643 97.2842C237.643 98.6794 238.486 99.8857 239.514 100.749C240.57 101.636 241.993 102.319 243.567 102.661L244.128 100.081C242.923 99.8188 241.904 99.3072 241.213 98.7267C240.493 98.1218 240.284 97.5867 240.284 97.2842L237.643 97.2842ZM243.567 102.661C244.996 102.972 246.56 103.011 247.983 102.775C249.379 102.543 250.797 102.018 251.774 101.054L249.92 99.1733C249.482 99.6051 248.667 99.9839 247.55 100.169C246.46 100.35 245.233 100.321 244.128 100.081L243.567 102.661ZM249.527 100.138C249.576 102.886 251.949 105.101 254.716 106.324L255.784 103.909C253.346 102.831 252.189 101.279 252.168 100.09L249.527 100.138ZM254.716 106.324C256.152 106.959 257.742 107.196 259.085 107.203C259.762 107.207 260.403 107.152 260.96 107.049C261.487 106.951 262.048 106.79 262.488 106.516L261.089 104.276C261.092 104.274 261.081 104.281 261.051 104.295C261.021 104.308 260.98 104.324 260.924 104.342C260.813 104.38 260.664 104.418 260.479 104.453C260.107 104.521 259.633 104.565 259.099 104.562C258.021 104.556 256.808 104.362 255.784 103.909L254.716 106.324Z" fill="black"/>
<path fill-rule="evenodd" clip-rule="evenodd" d="M310.971 169.499C312.046 171.773 314.761 172.745 317.035 171.67C317.343 171.524 317.627 171.348 317.886 171.148C319.923 172.807 321.835 174.627 323.616 176.524L325.267 175.369C323.382 173.344 321.342 171.39 319.153 169.607C319.764 168.396 319.831 166.926 319.206 165.605C318.131 163.331 315.416 162.359 313.142 163.434C310.867 164.51 309.896 167.225 310.971 169.499ZM314.254 180.816C314.197 180.532 314.111 180.249 313.996 179.971C313.035 177.647 310.371 176.541 308.047 177.503C305.722 178.464 304.617 181.128 305.578 183.452C305.633 183.585 305.694 183.713 305.759 183.838L307.674 183.156C307.576 183.013 307.491 182.857 307.422 182.69C306.882 181.384 307.503 179.887 308.809 179.346C310.116 178.806 311.612 179.427 312.153 180.734C312.256 180.984 312.317 181.241 312.339 181.497L314.254 180.816ZM312.581 168.737C313.185 170.015 314.97 170.69 316.248 170.086C317.526 169.482 318.201 167.697 317.597 166.419C316.993 165.141 315.208 164.466 313.93 165.07C312.652 165.674 311.977 167.459 312.581 168.737ZM327.461 166.358C328.422 168.683 331.086 169.788 333.41 168.827C335.735 167.865 336.84 165.202 335.879 162.877C334.917 160.552 332.254 159.447 329.929 160.409C327.605 161.37 326.499 164.034 327.461 166.358ZM329.304 165.596C329.845 166.902 331.342 167.523 332.648 166.983C333.954 166.443 334.575 164.946 334.035 163.639C333.495 162.333 331.998 161.712 330.692 162.252C329.385 162.793 328.764 164.289 329.304 165.596Z" fill="black"/>
<path d="M317.035 171.67L316.898 171.38L317.035 171.67ZM310.971 169.499L311.261 169.362L310.971 169.499ZM317.886 171.148L318.088 170.899L317.891 170.738L317.689 170.894L317.886 171.148ZM323.616 176.524L323.382 176.744L323.572 176.946L323.799 176.787L323.616 176.524ZM325.267 175.369L325.45 175.632L325.752 175.42L325.501 175.15L325.267 175.369ZM319.153 169.607L318.867 169.463L318.751 169.693L318.951 169.856L319.153 169.607ZM319.206 165.605L319.496 165.468L319.496 165.468L319.206 165.605ZM313.142 163.434L313.005 163.145L313.005 163.145L313.142 163.434ZM313.996 179.971L313.7 180.094L313.996 179.971ZM314.254 180.816L314.362 181.118L314.623 181.025L314.568 180.753L314.254 180.816ZM308.047 177.503L307.924 177.206L308.047 177.503ZM305.578 183.452L305.875 183.33L305.875 183.33L305.578 183.452ZM305.759 183.838L305.475 183.987L305.605 184.233L305.866 184.14L305.759 183.838ZM307.674 183.156L307.781 183.459L308.173 183.319L307.939 182.976L307.674 183.156ZM307.422 182.69L307.718 182.567L307.718 182.567L307.422 182.69ZM308.809 179.346L308.932 179.643L308.809 179.346ZM312.153 180.734L311.856 180.856L312.153 180.734ZM312.339 181.497L312.019 181.524L312.054 181.939L312.446 181.799L312.339 181.497ZM316.248 170.086L316.385 170.376L316.248 170.086ZM317.597 166.419L317.887 166.282L317.887 166.282L317.597 166.419ZM313.93 165.07L314.067 165.36L313.93 165.07ZM333.41 168.827L333.533 169.123L333.41 168.827ZM327.461 166.358L327.757 166.236L327.757 166.236L327.461 166.358ZM335.879 162.877L335.582 163L335.879 162.877ZM329.929 160.409L329.807 160.112L329.929 160.409ZM332.648 166.983L332.77 167.279L332.77 167.279L332.648 166.983ZM329.304 165.596L329.601 165.473L329.304 165.596ZM334.035 163.639L333.739 163.762L333.739 163.762L334.035 163.639ZM330.692 162.252L330.569 161.956L330.692 162.252ZM316.898 171.38C314.784 172.379 312.26 171.476 311.261 169.362L310.681 169.636C311.832 172.07 314.738 173.111 317.172 171.96L316.898 171.38ZM317.689 170.894C317.449 171.081 317.185 171.244 316.898 171.38L317.172 171.96C317.502 171.804 317.806 171.616 318.083 171.401L317.689 170.894ZM323.849 176.305C322.061 174.399 320.138 172.569 318.088 170.899L317.683 171.396C319.708 173.045 321.61 174.855 323.382 176.744L323.849 176.305ZM325.083 175.106L323.432 176.262L323.799 176.787L325.45 175.632L325.083 175.106ZM318.951 169.856C321.126 171.628 323.155 173.571 325.032 175.587L325.501 175.15C323.608 173.116 321.557 171.152 319.356 169.358L318.951 169.856ZM318.916 165.742C319.497 166.97 319.436 168.336 318.867 169.463L319.44 169.751C320.093 168.456 320.165 166.882 319.496 165.468L318.916 165.742ZM313.279 163.724C315.393 162.725 317.917 163.628 318.916 165.742L319.496 165.468C318.345 163.034 315.439 161.994 313.005 163.145L313.279 163.724ZM311.261 169.362C310.261 167.248 311.165 164.724 313.279 163.724L313.005 163.145C310.57 164.295 309.53 167.202 310.681 169.636L311.261 169.362ZM313.7 180.094C313.807 180.352 313.886 180.615 313.94 180.879L314.568 180.753C314.507 180.448 314.416 180.146 314.293 179.848L313.7 180.094ZM308.169 177.799C310.33 176.905 312.806 177.933 313.7 180.094L314.293 179.848C313.264 177.36 310.412 176.177 307.924 177.206L308.169 177.799ZM305.875 183.33C304.981 181.169 306.008 178.693 308.169 177.799L307.924 177.206C305.436 178.235 304.253 181.087 305.282 183.575L305.875 183.33ZM306.043 183.688C305.982 183.573 305.926 183.453 305.875 183.33L305.282 183.575C305.341 183.716 305.405 183.854 305.475 183.987L306.043 183.688ZM307.567 182.854L305.652 183.535L305.866 184.14L307.781 183.459L307.567 182.854ZM307.939 182.976C307.853 182.85 307.779 182.714 307.718 182.567L307.126 182.812C307.203 183 307.299 183.175 307.409 183.337L307.939 182.976ZM307.718 182.567C307.246 181.425 307.789 180.115 308.932 179.643L308.687 179.05C307.217 179.658 306.518 181.342 307.126 182.812L307.718 182.567ZM308.932 179.643C310.074 179.17 311.384 179.713 311.856 180.856L312.449 180.611C311.841 179.141 310.157 178.442 308.687 179.05L308.932 179.643ZM311.856 180.856C311.947 181.075 312 181.3 312.019 181.524L312.658 181.47C312.634 181.182 312.565 180.892 312.449 180.611L311.856 180.856ZM314.147 180.514L312.231 181.195L312.446 181.799L314.362 181.118L314.147 180.514ZM316.111 169.796C315.565 170.054 314.891 170.046 314.273 169.817C313.655 169.587 313.131 169.15 312.871 168.6L312.291 168.874C312.635 169.602 313.305 170.141 314.05 170.418C314.795 170.695 315.653 170.722 316.385 170.376L316.111 169.796ZM317.307 166.556C317.565 167.102 317.557 167.776 317.328 168.394C317.098 169.012 316.661 169.536 316.111 169.796L316.385 170.376C317.113 170.032 317.652 169.362 317.929 168.617C318.205 167.872 318.233 167.014 317.887 166.282L317.307 166.556ZM314.067 165.36C314.612 165.102 315.286 165.11 315.904 165.339C316.522 165.569 317.047 166.006 317.307 166.556L317.887 166.282C317.543 165.554 316.873 165.015 316.128 164.738C315.383 164.461 314.525 164.434 313.793 164.78L314.067 165.36ZM312.871 168.6C312.613 168.054 312.621 167.381 312.85 166.763C313.079 166.145 313.517 165.62 314.067 165.36L313.793 164.78C313.065 165.124 312.525 165.794 312.249 166.539C311.972 167.284 311.945 168.142 312.291 168.874L312.871 168.6ZM333.288 168.53C331.127 169.424 328.651 168.397 327.757 166.236L327.164 166.481C328.193 168.969 331.045 170.152 333.533 169.123L333.288 168.53ZM335.582 163C336.476 165.16 335.449 167.637 333.288 168.53L333.533 169.123C336.021 168.094 337.204 165.243 336.175 162.754L335.582 163ZM330.052 160.705C332.213 159.811 334.689 160.839 335.582 163L336.175 162.754C335.146 160.266 332.295 159.083 329.807 160.112L330.052 160.705ZM327.757 166.236C326.863 164.075 327.891 161.599 330.052 160.705L329.807 160.112C327.318 161.141 326.135 163.993 327.164 166.481L327.757 166.236ZM332.525 166.687C331.383 167.159 330.073 166.616 329.601 165.473L329.008 165.718C329.616 167.188 331.301 167.887 332.77 167.279L332.525 166.687ZM333.739 163.762C334.211 164.905 333.668 166.214 332.525 166.687L332.77 167.279C334.24 166.671 334.939 164.987 334.331 163.517L333.739 163.762ZM330.814 162.549C331.957 162.076 333.266 162.619 333.739 163.762L334.331 163.517C333.723 162.047 332.039 161.348 330.569 161.956L330.814 162.549ZM329.601 165.473C329.128 164.331 329.671 163.021 330.814 162.549L330.569 161.956C329.099 162.564 328.4 164.248 329.008 165.718L329.601 165.473Z" fill="black"/>
<path d="M222.93 12.3073C225.333 13.0823 222.827 18.3776 221.075 21.2743C220.929 21.5169 220.658 21.6517 220.375 21.6305L210.61 20.8962C209.949 20.8466 209.673 20.0516 210.178 19.6229C213.732 16.6062 220.728 11.5971 222.93 12.3073Z" fill="#FFDE28" stroke="black" stroke-width="2.64093"/>
<defs>
<linearGradient id="paint0_linear_323_2496" x1="530.21" y1="-65.9207" x2="98.8672" y2="276.817" gradientUnits="userSpaceOnUse">
<stop stop-color="#FFDE28"/>
<stop offset="1" stop-color="#FFDE28" stop-opacity="0.1"/>
</linearGradient>
<linearGradient id="paint1_linear_323_2496" x1="442.091" y1="188.698" x2="65.2752" y2="206.711" gradientUnits="userSpaceOnUse">
<stop stop-color="#FFEF9A"/>
<stop offset="1" stop-color="#423B17"/>
</linearGradient>
</defs>
</svg>
