<svg width="31" height="23" viewBox="0 0 31 23" fill="none" xmlns="http://www.w3.org/2000/svg">
<path d="M25.4153 1.90241C23.5129 1.01557 21.4532 0.3719 19.3076 0C19.2698 0.000537403 19.2339 0.0159614 19.2074 0.0429119C18.95 0.514939 18.6496 1.13 18.4493 1.60203C16.1736 1.25895 13.8593 1.25895 11.5835 1.60203C11.3832 1.1157 11.0829 0.514939 10.8111 0.0429119C10.7968 0.0143042 10.7539 0 10.711 0C8.56538 0.3719 6.51993 1.01557 4.60321 1.90241C4.58891 1.90241 4.57461 1.91672 4.5603 1.93102C0.669655 7.75269 -0.403134 13.417 0.126109 19.0241C0.126109 19.0527 0.140412 19.0813 0.16902 19.0956C2.74371 20.9838 5.21828 22.1281 7.66424 22.8862C7.70715 22.9005 7.75006 22.8862 7.76437 22.8576C8.33652 22.0708 8.85146 21.2412 9.29488 20.3687C9.32349 20.3115 9.29488 20.2543 9.23766 20.24C8.42234 19.9253 7.64993 19.5534 6.89183 19.1243C6.83462 19.0956 6.83461 19.0098 6.87753 18.9669C7.03487 18.8525 7.19221 18.7237 7.34955 18.6093C7.37816 18.5807 7.42107 18.5807 7.44968 18.595C12.3702 20.8407 17.6769 20.8407 22.5402 18.595C22.5689 18.5807 22.6118 18.5807 22.6404 18.6093C22.7977 18.738 22.9551 18.8525 23.1124 18.9812C23.1696 19.0241 23.1696 19.1099 23.0981 19.1386C22.3543 19.582 21.5676 19.9396 20.7523 20.2543C20.695 20.2686 20.6807 20.3401 20.695 20.383C21.1528 21.2555 21.6677 22.0851 22.2256 22.8719C22.2685 22.8862 22.3114 22.9005 22.3543 22.8862C24.8146 22.1281 27.2891 20.9838 29.8638 19.0956C29.8924 19.0813 29.9067 19.0527 29.9067 19.0241C30.5361 12.5445 28.8625 6.92306 25.4725 1.93102C25.4582 1.91672 25.4439 1.90241 25.4153 1.90241ZM10.0387 15.6055C8.56538 15.6055 7.33525 14.2466 7.33525 12.5731C7.33525 10.8995 8.53677 9.54067 10.0387 9.54067C11.5549 9.54067 12.7564 10.9138 12.7421 12.5731C12.7421 14.2466 11.5406 15.6055 10.0387 15.6055ZM20.0085 15.6055C18.5352 15.6055 17.305 14.2466 17.305 12.5731C17.305 10.8995 18.5066 9.54067 20.0085 9.54067C21.5247 9.54067 22.7262 10.9138 22.7119 12.5731C22.7119 14.2466 21.5247 15.6055 20.0085 15.6055Z" fill="#F0F0F0"/>
</svg>
