<svg width="94" height="72" viewBox="0 0 94 72" fill="none" xmlns="http://www.w3.org/2000/svg">
<path d="M79.3474 6.54664C73.4718 3.80763 67.1102 1.81964 60.4836 0.671021C60.367 0.67268 60.2559 0.720317 60.1743 0.803554C59.3791 2.26141 58.4514 4.16105 57.8329 5.61891C50.8042 4.55931 43.6564 4.55931 36.6277 5.61891C36.0092 4.11687 35.0815 2.26141 34.2421 0.803554C34.1979 0.715199 34.0654 0.671021 33.9328 0.671021C27.3062 1.81964 20.9888 3.80763 15.069 6.54664C15.0248 6.54664 14.9806 6.59082 14.9365 6.635C2.92017 24.6153 -0.393154 42.1096 1.24142 59.4272C1.24142 59.5156 1.28559 59.6039 1.37395 59.6481C9.32592 65.4796 16.9686 69.0138 24.523 71.3552C24.6555 71.3993 24.7881 71.3552 24.8322 71.2668C26.5994 68.837 28.1897 66.2747 29.5593 63.5799C29.6476 63.4032 29.5593 63.2265 29.3825 63.1823C26.8644 62.2104 24.4788 61.0618 22.1374 59.7365C21.9607 59.6481 21.9607 59.383 22.0932 59.2505C22.5792 58.8971 23.0651 58.4995 23.5511 58.1461C23.6395 58.0577 23.772 58.0577 23.8603 58.1019C39.0574 65.0378 55.4473 65.0378 70.4677 58.1019C70.5561 58.0577 70.6886 58.0577 70.7769 58.1461C71.2629 58.5437 71.7488 58.8971 72.2348 59.2947C72.4115 59.4272 72.4115 59.6923 72.1906 59.7806C69.8934 61.1501 67.4636 62.2546 64.9455 63.2265C64.7688 63.2707 64.7246 63.4916 64.7688 63.6241C66.1825 66.3189 67.7729 68.8812 69.4958 71.311C69.6283 71.3552 69.7609 71.3993 69.8934 71.3552C77.4919 69.0138 85.1347 65.4796 93.0866 59.6481C93.175 59.6039 93.2192 59.5156 93.2192 59.4272C95.163 39.4148 89.9942 22.053 79.5241 6.635C79.4799 6.59082 79.4357 6.54664 79.3474 6.54664ZM31.8565 48.8688C27.3062 48.8688 23.5069 44.6719 23.5069 39.5031C23.5069 34.3343 27.2178 30.1375 31.8565 30.1375C36.5393 30.1375 40.2502 34.3785 40.2061 39.5031C40.2061 44.6719 36.4951 48.8688 31.8565 48.8688ZM62.6483 48.8688C58.098 48.8688 54.2987 44.6719 54.2987 39.5031C54.2987 34.3343 58.0096 30.1375 62.6483 30.1375C67.3311 30.1375 71.042 34.3785 70.9978 39.5031C70.9978 44.6719 67.3311 48.8688 62.6483 48.8688Z" fill="url(#paint0_linear_698_3872)"/>
<defs>
<linearGradient id="paint0_linear_698_3872" x1="128.669" y1="109.191" x2="101.732" y2="-53.8041" gradientUnits="userSpaceOnUse">
<stop stop-color="#FFDE28" stop-opacity="0.1"/>
<stop offset="0.7" stop-color="#FFDE28" stop-opacity="0.7"/>
</linearGradient>
</defs>
</svg>
