<svg width="204" height="107" viewBox="0 0 204 107" fill="none" xmlns="http://www.w3.org/2000/svg">
<path d="M136.347 23.5466C130.472 20.8076 124.11 18.8196 117.484 17.671C117.367 17.6727 117.256 17.7203 117.174 17.8036C116.379 19.2614 115.451 21.161 114.833 22.6189C107.804 21.5593 100.656 21.5593 93.6277 22.6189C93.0092 21.1169 92.0815 19.2614 91.2421 17.8036C91.1979 17.7152 91.0654 17.671 90.9328 17.671C84.3062 18.8196 77.9888 20.8076 72.069 23.5466C72.0248 23.5466 71.9806 23.5908 71.9365 23.635C59.9202 41.6153 56.6068 59.1096 58.2414 76.4272C58.2414 76.5156 58.2856 76.6039 58.3739 76.6481C66.3259 82.4796 73.9686 86.0138 81.523 88.3552C81.6555 88.3993 81.7881 88.3552 81.8322 88.2668C83.5994 85.837 85.1897 83.2747 86.5593 80.5799C86.6476 80.4032 86.5593 80.2265 86.3825 80.1823C83.8644 79.2104 81.4788 78.0618 79.1374 76.7365C78.9607 76.6481 78.9607 76.383 79.0932 76.2505C79.5792 75.8971 80.0651 75.4995 80.5511 75.1461C80.6395 75.0577 80.772 75.0577 80.8603 75.1019C96.0574 82.0378 112.447 82.0378 127.468 75.1019C127.556 75.0577 127.689 75.0577 127.777 75.1461C128.263 75.5437 128.749 75.8971 129.235 76.2947C129.412 76.4272 129.412 76.6923 129.191 76.7806C126.893 78.1501 124.464 79.2546 121.946 80.2265C121.769 80.2707 121.725 80.4916 121.769 80.6241C123.182 83.3189 124.773 85.8812 126.496 88.311C126.628 88.3552 126.761 88.3993 126.893 88.3552C134.492 86.0138 142.135 82.4796 150.087 76.6481C150.175 76.6039 150.219 76.5156 150.219 76.4272C152.163 56.4148 146.994 39.053 136.524 23.635C136.48 23.5908 136.436 23.5466 136.347 23.5466ZM88.8565 65.8688C84.3062 65.8688 80.5069 61.6719 80.5069 56.5031C80.5069 51.3343 84.2178 47.1375 88.8565 47.1375C93.5393 47.1375 97.2502 51.3785 97.2061 56.5031C97.2061 61.6719 93.4951 65.8688 88.8565 65.8688ZM119.648 65.8688C115.098 65.8688 111.299 61.6719 111.299 56.5031C111.299 51.3343 115.01 47.1375 119.648 47.1375C124.331 47.1375 128.042 51.3785 127.998 56.5031C127.998 61.6719 124.331 65.8688 119.648 65.8688Z" fill="url(#paint0_linear_515_2954)"/>
<path d="M16.7689 17.3127L26.3507 27.7856" stroke="#FFDE28" stroke-width="5" stroke-linecap="round"/>
<path d="M187.381 16L177.799 26.4728" stroke="#FFDE28" stroke-width="5" stroke-linecap="round"/>
<path d="M22.0054 71.4054L6.85877 75.733" stroke="#FFDE28" stroke-width="5" stroke-linecap="round"/>
<path d="M182.144 70.0925L197.291 74.4201" stroke="#FFDE28" stroke-width="5" stroke-linecap="round"/>
<path d="M3 47.1559L17.822 48.9139" stroke="#FFDE28" stroke-width="5" stroke-linecap="round"/>
<path d="M201.15 45.843L186.328 47.601" stroke="#FFDE28" stroke-width="5" stroke-linecap="round"/>
<defs>
<linearGradient id="paint0_linear_515_2954" x1="192.332" y1="97.3711" x2="128.109" y2="-28.9648" gradientUnits="userSpaceOnUse">
<stop offset="0.379733" stop-color="#FFDE28" stop-opacity="0.7"/>
<stop offset="0.988905" stop-color="#FFDE28" stop-opacity="0.1"/>
</linearGradient>
</defs>
</svg>
