<svg width="323" height="70" viewBox="0 0 323 70" fill="none" xmlns="http://www.w3.org/2000/svg">
<rect x="0.5" y="0.5" width="322" height="69" rx="4.5" fill="url(#paint0_linear_323_1616)" stroke="url(#paint1_linear_323_1616)"/>
<path d="M100.366 50.3779L100.613 47.9072H102.235V52H90.9668V50.6465L92.7178 50.3457V38.0244L90.9668 37.7236V36.3594H96.585V37.7236L94.834 38.0244V50.3779H100.366ZM109.143 52.2256C108.076 52.2256 107.152 51.9714 106.371 51.4629C105.59 50.9544 104.989 50.2562 104.566 49.3682C104.144 48.4801 103.933 47.4632 103.933 46.3174V46.0811C103.933 44.9424 104.144 43.9219 104.566 43.0195C104.989 42.1243 105.587 41.4261 106.36 40.9248C107.141 40.4163 108.061 40.1621 109.121 40.1621C110.188 40.1621 111.116 40.4163 111.903 40.9248C112.677 41.4333 113.275 42.1315 113.697 43.0195C114.12 43.9076 114.331 44.9281 114.331 46.0811V46.3174C114.331 47.4561 114.12 48.4766 113.697 49.3789C113.275 50.2669 112.677 50.9652 111.903 51.4736C111.13 51.9749 110.21 52.2256 109.143 52.2256ZM109.143 50.5713C109.816 50.5713 110.382 50.3851 110.84 50.0127C111.291 49.6475 111.631 49.1462 111.86 48.5088C112.097 47.8643 112.215 47.1338 112.215 46.3174V46.0811C112.215 45.2718 112.1 44.5413 111.871 43.8896C111.635 43.2523 111.287 42.751 110.829 42.3857C110.371 42.0133 109.801 41.8271 109.121 41.8271C108.455 41.8271 107.889 42.0098 107.424 42.375C106.965 42.7474 106.622 43.2559 106.393 43.9004C106.163 44.5378 106.049 45.2646 106.049 46.0811V46.3174C106.049 47.1266 106.163 47.8535 106.393 48.498C106.622 49.1426 106.965 49.651 107.424 50.0234C107.889 50.3887 108.462 50.5713 109.143 50.5713ZM127.34 40.377V41.7305L125.9 42.042V51.8496C125.9 52.8594 125.714 53.7223 125.342 54.4385C124.969 55.1618 124.422 55.7168 123.698 56.1035C122.975 56.4974 122.098 56.6943 121.066 56.6943C120.508 56.6943 119.903 56.6156 119.251 56.458C118.599 56.3076 118.026 56.0999 117.532 55.835L118.08 54.1914C118.474 54.3991 118.939 54.571 119.477 54.707C120.014 54.8431 120.536 54.9111 121.045 54.9111C121.99 54.9111 122.681 54.6462 123.118 54.1162C123.562 53.5863 123.784 52.8307 123.784 51.8496V50.7432C123.011 51.7314 121.947 52.2256 120.594 52.2256C119.648 52.2256 118.832 51.9893 118.145 51.5166C117.457 51.0511 116.927 50.3994 116.555 49.5615C116.189 48.7165 116.007 47.7389 116.007 46.6289V46.4033C116.007 45.1429 116.193 44.0508 116.565 43.127C116.931 42.1888 117.457 41.4619 118.145 40.9463C118.832 40.4235 119.656 40.1621 120.615 40.1621C122.055 40.1621 123.158 40.7207 123.924 41.8379L124.117 40.377H127.34ZM123.784 48.8418V43.4922C123.512 42.998 123.158 42.6077 122.721 42.3213C122.284 42.0277 121.757 41.8809 121.142 41.8809C120.468 41.8809 119.91 42.0742 119.466 42.4609C119.015 42.8477 118.678 43.3812 118.456 44.0615C118.234 44.7347 118.123 45.5153 118.123 46.4033V46.6289C118.123 47.7962 118.37 48.7344 118.864 49.4434C119.358 50.1523 120.11 50.5068 121.12 50.5068C121.757 50.5068 122.291 50.3636 122.721 50.0771C123.15 49.7835 123.505 49.3717 123.784 48.8418ZM139.865 38.0244V50.3457L141.616 50.6465V52H135.998V50.6465L137.749 50.3457V38.0244L135.998 37.7236V36.3594H141.616V37.7236L139.865 38.0244ZM147.159 50.3457L148.91 50.6465V52H143.292V50.6465L145.043 50.3457V42.042L143.292 41.7412V40.377H146.934L147.084 42.1064C147.471 41.4906 147.954 41.0143 148.534 40.6777C149.121 40.334 149.787 40.1621 150.532 40.1621C151.785 40.1621 152.756 40.5309 153.443 41.2686C154.131 41.999 154.475 43.1305 154.475 44.6631V50.3457L156.226 50.6465V52H150.607V50.6465L152.358 50.3457V44.7061C152.358 43.682 152.154 42.9551 151.746 42.5254C151.345 42.0957 150.729 41.8809 149.898 41.8809C149.29 41.8809 148.749 42.0277 148.276 42.3213C147.811 42.6149 147.438 43.016 147.159 43.5244V50.3457ZM174.326 43.1484L174.262 43.1592L173.714 45.0176L171.189 52H169.374L166.312 41.8916L165.013 41.7412V40.377H169.814V41.7412L168.386 41.9775L169.986 47.7676L170.352 49.1426H170.416L170.889 47.7676L173.413 40.377H175.196L177.603 47.7461L178.118 49.3789H178.183L178.688 47.7461L180.31 41.9668L178.849 41.7412V40.377H183.543V41.7412L182.254 41.9238L179.246 52H177.237L174.885 45.0176L174.326 43.1484ZM186.411 37.5088V35.2422H188.635V37.5088H186.411ZM188.635 40.377V50.3457L190.386 50.6465V52H184.768V50.6465L186.519 50.3457V42.042L184.768 41.7412V40.377H188.635ZM195.95 52.1826C195.091 52.1826 194.407 51.932 193.898 51.4307C193.397 50.9222 193.146 50.113 193.146 49.0029V41.9453H191.31V40.377H193.146V37.5732H195.263V40.377H197.787V41.9453H195.263V49.0029C195.263 49.5615 195.374 49.9733 195.596 50.2383C195.818 50.5033 196.115 50.6357 196.487 50.6357C196.738 50.6357 197.017 50.6143 197.325 50.5713C197.633 50.5212 197.873 50.4782 198.045 50.4424L198.335 51.8281C198.027 51.9212 197.647 52.0036 197.196 52.0752C196.752 52.1468 196.337 52.1826 195.95 52.1826ZM203.287 50.3457L205.038 50.6465V52H199.42V50.6465L201.171 50.3457V36.9072L199.42 36.6064V35.2422H203.287V41.9238C203.688 41.3652 204.179 40.932 204.759 40.624C205.339 40.3161 205.983 40.1621 206.692 40.1621C207.938 40.1621 208.905 40.5345 209.593 41.2793C210.28 42.0241 210.624 43.1699 210.624 44.7168V50.3457L212.375 50.6465V52H206.757V50.6465L208.508 50.3457V44.6953C208.508 42.819 207.688 41.8809 206.048 41.8809C205.468 41.8809 204.938 42.0205 204.458 42.2998C203.985 42.5719 203.595 42.9443 203.287 43.417V50.3457ZM227.65 52H221.42V50.6465L223.171 50.3457V38.0244L221.42 37.7236V36.3594H227.543C228.918 36.3594 230.125 36.6888 231.163 37.3477C232.187 38.0065 232.986 38.9124 233.559 40.0654C234.132 41.2184 234.418 42.5361 234.418 44.0186V44.3516C234.418 45.791 234.142 47.0908 233.591 48.251C233.039 49.4111 232.255 50.3278 231.238 51.001C230.229 51.667 229.033 52 227.65 52ZM227.543 38.0244H225.287V50.3457H227.543C228.538 50.3457 229.387 50.0736 230.089 49.5293C230.798 48.9922 231.342 48.2725 231.722 47.3701C232.108 46.4606 232.302 45.4544 232.302 44.3516V43.9971C232.302 42.8656 232.112 41.8451 231.732 40.9355C231.346 40.0404 230.798 39.3314 230.089 38.8086C229.38 38.2858 228.531 38.0244 227.543 38.0244ZM237.479 37.5088V35.2422H239.703V37.5088H237.479ZM239.703 40.377V50.3457L241.454 50.6465V52H235.836V50.6465L237.587 50.3457V42.042L235.836 41.7412V40.377H239.703ZM247.62 52.2256C246.84 52.2256 246.109 52.1468 245.429 51.9893C244.748 51.8317 244.025 51.5882 243.259 51.2588L243.237 48.498H244.838L245.235 50.1631C245.994 50.4782 246.789 50.6357 247.62 50.6357C248.479 50.6357 249.095 50.471 249.468 50.1416C249.84 49.8122 250.026 49.404 250.026 48.917C250.026 48.4587 249.837 48.0719 249.457 47.7568C249.085 47.4346 248.404 47.1624 247.416 46.9404C246.012 46.6182 244.978 46.1885 244.312 45.6514C243.653 45.1071 243.323 44.3838 243.323 43.4814C243.323 42.8512 243.506 42.2855 243.871 41.7842C244.236 41.29 244.745 40.8962 245.396 40.6025C246.048 40.3089 246.807 40.1621 247.674 40.1621C248.555 40.1621 249.307 40.2624 249.93 40.4629C250.56 40.6634 251.108 40.932 251.573 41.2686L251.681 43.9219H250.091L249.747 42.375C249.224 41.9883 248.533 41.7949 247.674 41.7949C247.015 41.7949 246.478 41.9489 246.062 42.2568C245.654 42.5648 245.45 42.9515 245.45 43.417C245.45 43.682 245.511 43.9183 245.633 44.126C245.762 44.348 246.02 44.5413 246.406 44.7061C246.793 44.8708 247.255 45.0176 247.792 45.1465C249.41 45.526 250.538 46.0094 251.176 46.5967C251.82 47.1839 252.143 47.9072 252.143 48.7666C252.143 49.7477 251.777 50.5713 251.047 51.2373C250.324 51.8962 249.181 52.2256 247.62 52.2256ZM259.146 52.2256C258.101 52.2256 257.184 51.9785 256.396 51.4844C255.616 50.9974 255.011 50.3171 254.581 49.4434C254.151 48.5697 253.937 47.5599 253.937 46.4141V45.9629C253.937 44.8457 254.144 43.8574 254.56 42.998C254.975 42.1243 255.573 41.4333 256.354 40.9248C257.134 40.4163 258.065 40.1621 259.146 40.1621C260.085 40.1621 260.905 40.3161 261.606 40.624C262.315 40.932 262.91 41.3545 263.39 41.8916L263.443 44.6846H261.789L261.424 42.6543C261.18 42.4036 260.876 42.2031 260.511 42.0527C260.146 41.9023 259.716 41.8271 259.222 41.8271C258.584 41.8271 258.033 42.0133 257.567 42.3857C257.088 42.7581 256.715 43.2559 256.45 43.8789C256.185 44.502 256.053 45.1966 256.053 45.9629V46.4141C256.053 47.252 256.178 47.986 256.429 48.6162C256.679 49.2393 257.034 49.7227 257.492 50.0664C257.951 50.403 258.498 50.5713 259.136 50.5713C259.852 50.5713 260.446 50.3743 260.919 49.9805C261.392 49.5866 261.682 49.0459 261.789 48.3584H263.69L263.712 48.4229C263.683 49.0745 263.486 49.6976 263.121 50.292C262.763 50.8721 262.251 51.3411 261.585 51.6992C260.926 52.0501 260.113 52.2256 259.146 52.2256ZM270.619 52.2256C269.552 52.2256 268.628 51.9714 267.848 51.4629C267.067 50.9544 266.465 50.2562 266.043 49.3682C265.62 48.4801 265.409 47.4632 265.409 46.3174V46.0811C265.409 44.9424 265.62 43.9219 266.043 43.0195C266.465 42.1243 267.063 41.4261 267.837 40.9248C268.618 40.4163 269.538 40.1621 270.598 40.1621C271.665 40.1621 272.592 40.4163 273.38 40.9248C274.153 41.4333 274.751 42.1315 275.174 43.0195C275.596 43.9076 275.808 44.9281 275.808 46.0811V46.3174C275.808 47.4561 275.596 48.4766 275.174 49.3789C274.751 50.2669 274.153 50.9652 273.38 51.4736C272.606 51.9749 271.686 52.2256 270.619 52.2256ZM270.619 50.5713C271.292 50.5713 271.858 50.3851 272.316 50.0127C272.768 49.6475 273.108 49.1462 273.337 48.5088C273.573 47.8643 273.691 47.1338 273.691 46.3174V46.0811C273.691 45.2718 273.577 44.5413 273.348 43.8896C273.111 43.2523 272.764 42.751 272.306 42.3857C271.847 42.0133 271.278 41.8271 270.598 41.8271C269.932 41.8271 269.366 42.0098 268.9 42.375C268.442 42.7474 268.098 43.2559 267.869 43.9004C267.64 44.5378 267.525 45.2646 267.525 46.0811V46.3174C267.525 47.1266 267.64 47.8535 267.869 48.498C268.098 49.1426 268.442 49.651 268.9 50.0234C269.366 50.3887 269.939 50.5713 270.619 50.5713ZM281.286 50.3457L283.037 50.6465V52H277.419V50.6465L279.17 50.3457V42.042L277.419 41.7412V40.377H281.061L281.243 41.8594L281.265 42.0635C281.594 41.4691 281.999 41.0036 282.479 40.667C282.965 40.3304 283.521 40.1621 284.144 40.1621C284.366 40.1621 284.591 40.1836 284.82 40.2266C285.057 40.2624 285.225 40.2982 285.325 40.334L285.046 42.2998L283.574 42.2139C283.016 42.1781 282.547 42.307 282.167 42.6006C281.787 42.887 281.494 43.2738 281.286 43.7607V50.3457ZM291.18 52.2256C290.242 52.2256 289.432 51.9893 288.752 51.5166C288.079 51.0511 287.56 50.3994 287.194 49.5615C286.836 48.7236 286.657 47.7461 286.657 46.6289V46.4033C286.657 45.1644 286.836 44.0723 287.194 43.127C287.552 42.1888 288.072 41.4619 288.752 40.9463C289.432 40.4235 290.249 40.1621 291.201 40.1621C291.889 40.1621 292.494 40.291 293.017 40.5488C293.547 40.7995 293.998 41.1647 294.37 41.6445V36.9072L292.619 36.6064V35.2422H296.486V50.3457L298.237 50.6465V52H294.649L294.478 50.6143C293.704 51.6885 292.605 52.2256 291.18 52.2256ZM291.717 50.5068C292.347 50.5068 292.877 50.3636 293.307 50.0771C293.736 49.7907 294.091 49.3861 294.37 48.8633V43.4707C294.098 42.9837 293.743 42.597 293.307 42.3105C292.87 42.0241 292.347 41.8809 291.738 41.8809C291.072 41.8809 290.517 42.0706 290.073 42.4502C289.636 42.8369 289.311 43.3704 289.096 44.0508C288.881 44.724 288.773 45.5081 288.773 46.4033V46.6289C288.773 47.7962 289.013 48.7344 289.493 49.4434C289.973 50.1523 290.714 50.5068 291.717 50.5068Z" fill="#F7F7F7"/>
<path d="M66.3795 21.1847C66.3405 21.1522 66.2825 21.1469 66.2365 21.1256C63.1109 19.6802 59.7317 18.6274 56.2128 18.0128C56.164 18.0042 56.113 17.9967 56.0661 18.0126C55.9961 18.0364 55.9547 18.104 55.9195 18.169C55.869 18.2624 55.8176 18.3588 55.7657 18.4575C55.0965 19.73 53.7183 20.4962 52.2859 20.3732C50.2462 20.198 48.196 20.1861 46.1549 20.3373C44.4611 20.4629 42.8454 19.5422 41.9961 18.0712C41.9395 17.9584 41.7668 18.0107 41.6425 18.0327C38.1596 18.6511 34.8365 19.6992 31.7175 21.1326C31.6813 21.1493 31.6428 21.1573 31.6132 21.1841C31.5998 21.1962 31.5859 21.2131 31.5758 21.2282C25.1119 30.8839 23.3296 40.279 24.2099 49.5793C24.2099 49.6765 24.3212 49.7273 24.3998 49.7844C28.6431 52.8672 32.7239 54.7433 36.7579 55.9902C36.8765 56.0296 36.9617 55.892 37.0348 55.7907C37.9432 54.53 38.7627 53.2035 39.4722 51.8112C39.5199 51.7163 39.4722 51.6213 39.377 51.5976C38.0198 51.0752 36.7341 50.4578 35.4721 49.7455C35.292 49.6557 35.5306 49.4255 35.6905 49.3034C35.8236 49.2017 35.9567 49.0976 36.0898 48.9975C36.1853 48.9257 36.2939 48.8137 36.4007 48.867C44.5914 52.5948 53.425 52.5948 61.5205 48.867C61.5681 48.8433 61.6395 48.8433 61.6871 48.8908C61.9491 49.1044 62.211 49.2944 62.4729 49.5081C62.6453 49.637 62.3565 49.8253 62.1697 49.9323C61.0145 50.5938 59.7997 51.1381 58.5442 51.6213C58.3759 51.6633 58.4893 51.9123 58.5712 52.0652C59.2669 53.3637 60.0389 54.6043 60.8698 55.787C60.9519 55.9038 61.0755 56.0352 61.2109 55.9902C65.2686 54.7433 69.3495 52.8672 73.5928 49.7844C73.6715 49.7273 73.7827 49.6765 73.7827 49.5793C74.8292 38.8352 72.0507 29.5125 66.4202 21.2328C66.4078 21.2146 66.3963 21.1987 66.3795 21.1847ZM40.7104 43.9045C38.2579 43.9045 36.2102 41.6489 36.2102 38.8708C36.2102 36.0928 38.2103 33.8372 40.7104 33.8372C43.2343 33.8372 45.2343 36.1166 45.2105 38.8708C45.2105 41.6489 43.2104 43.9045 40.7104 43.9045ZM57.3061 43.9045C54.8536 43.9045 52.8059 41.6489 52.8059 38.8708C52.8059 36.0928 54.806 33.8372 57.3061 33.8372C59.8299 33.8372 61.83 36.1166 61.8062 38.8708C61.8062 41.6489 59.8299 43.9045 57.3061 43.9045Z" fill="url(#paint2_linear_323_1616)"/>
<path d="M66.3795 21.1847C66.3405 21.1522 66.2825 21.1469 66.2365 21.1256C63.1109 19.6802 59.7317 18.6274 56.2128 18.0128C56.164 18.0042 56.113 17.9967 56.0661 18.0126C55.9961 18.0364 55.9547 18.104 55.9195 18.169C55.869 18.2624 55.8176 18.3588 55.7657 18.4575C55.0965 19.73 53.7183 20.4962 52.2859 20.3732C50.2462 20.198 48.196 20.1861 46.1549 20.3373C44.4611 20.4629 42.8454 19.5422 41.9961 18.0712C41.9395 17.9584 41.7668 18.0107 41.6425 18.0327C38.1596 18.6511 34.8365 19.6992 31.7175 21.1326C31.6813 21.1493 31.6428 21.1573 31.6132 21.1841C31.5998 21.1962 31.5859 21.2131 31.5758 21.2282C25.1119 30.8839 23.3296 40.279 24.2099 49.5793C24.2099 49.6765 24.3212 49.7273 24.3998 49.7844C28.6431 52.8672 32.7239 54.7433 36.7579 55.9902C36.8765 56.0296 36.9617 55.892 37.0348 55.7907C37.9432 54.53 38.7627 53.2035 39.4722 51.8112C39.5199 51.7163 39.4722 51.6213 39.377 51.5976C38.0198 51.0752 36.7341 50.4578 35.4721 49.7455C35.292 49.6557 35.5306 49.4255 35.6905 49.3034C35.8236 49.2017 35.9567 49.0976 36.0898 48.9975C36.1853 48.9257 36.2939 48.8137 36.4007 48.867C44.5914 52.5948 53.425 52.5948 61.5205 48.867C61.5681 48.8433 61.6395 48.8433 61.6871 48.8908C61.9491 49.1044 62.211 49.2944 62.4729 49.5081C62.6453 49.637 62.3565 49.8253 62.1697 49.9323C61.0145 50.5938 59.7997 51.1381 58.5442 51.6213C58.3759 51.6633 58.4893 51.9123 58.5712 52.0652C59.2669 53.3637 60.0389 54.6043 60.8698 55.787C60.9519 55.9038 61.0755 56.0352 61.2109 55.9902C65.2686 54.7433 69.3495 52.8672 73.5928 49.7844C73.6715 49.7273 73.7827 49.6765 73.7827 49.5793C74.8292 38.8352 72.0507 29.5125 66.4202 21.2328C66.4078 21.2146 66.3963 21.1987 66.3795 21.1847ZM40.7104 43.9045C38.2579 43.9045 36.2102 41.6489 36.2102 38.8708C36.2102 36.0928 38.2103 33.8372 40.7104 33.8372C43.2343 33.8372 45.2343 36.1166 45.2105 38.8708C45.2105 41.6489 43.2104 43.9045 40.7104 43.9045ZM57.3061 43.9045C54.8536 43.9045 52.8059 41.6489 52.8059 38.8708C52.8059 36.0928 54.806 33.8372 57.3061 33.8372C59.8299 33.8372 61.83 36.1166 61.8062 38.8708C61.8062 41.6489 59.8299 43.9045 57.3061 43.9045Z" fill="url(#paint3_linear_323_1616)"/>
<path d="M95.6875 18.3418V25.0977L96.6426 25.2617V26H93.5781V25.2617L94.5332 25.0977V18.3418H92.5996L92.4297 19.5254H91.5625V17.4688H98.6523V19.5254H97.7969L97.6211 18.3418H95.6875ZM102.461 26.123C101.773 26.123 101.236 25.9023 100.85 25.4609C100.463 25.0195 100.27 24.332 100.27 23.3984V20.5684L99.543 20.4043V19.6602H101.424V23.4102C101.424 24.0859 101.523 24.5508 101.723 24.8047C101.922 25.0586 102.232 25.1855 102.654 25.1855C103.064 25.1855 103.402 25.1035 103.668 24.9395C103.938 24.7715 104.141 24.5352 104.277 24.2305V20.5684L103.428 20.4043V19.6602H105.432V25.0977L106.158 25.2617V26H104.395L104.318 25.0625C104.119 25.4023 103.861 25.6641 103.545 25.8477C103.232 26.0312 102.871 26.123 102.461 26.123ZM109.211 26.0996C108.742 26.0996 108.369 25.9629 108.092 25.6895C107.818 25.4121 107.682 24.9707 107.682 24.3652V20.5156H106.68V19.6602H107.682V18.1309H108.836V19.6602H110.213V20.5156H108.836V24.3652C108.836 24.6699 108.896 24.8945 109.018 25.0391C109.139 25.1836 109.301 25.2559 109.504 25.2559C109.641 25.2559 109.793 25.2441 109.961 25.2207C110.129 25.1934 110.26 25.1699 110.354 25.1504L110.512 25.9062C110.344 25.957 110.137 26.002 109.891 26.041C109.648 26.0801 109.422 26.0996 109.211 26.0996ZM114.115 26.123C113.533 26.123 113.029 25.9844 112.604 25.707C112.178 25.4297 111.85 25.0488 111.619 24.5645C111.389 24.0801 111.273 23.5254 111.273 22.9004V22.7715C111.273 22.1504 111.389 21.5938 111.619 21.1016C111.85 20.6133 112.176 20.2324 112.598 19.959C113.023 19.6816 113.525 19.543 114.104 19.543C114.686 19.543 115.191 19.6816 115.621 19.959C116.043 20.2363 116.369 20.6172 116.6 21.1016C116.83 21.5859 116.945 22.1426 116.945 22.7715V22.9004C116.945 23.5215 116.83 24.0781 116.6 24.5703C116.369 25.0547 116.043 25.4355 115.621 25.7129C115.199 25.9863 114.697 26.123 114.115 26.123ZM114.115 25.2207C114.482 25.2207 114.791 25.1191 115.041 24.916C115.287 24.7168 115.473 24.4434 115.598 24.0957C115.727 23.7441 115.791 23.3457 115.791 22.9004V22.7715C115.791 22.3301 115.729 21.9316 115.604 21.5762C115.475 21.2285 115.285 20.9551 115.035 20.7559C114.785 20.5527 114.475 20.4512 114.104 20.4512C113.74 20.4512 113.432 20.5508 113.178 20.75C112.928 20.9531 112.74 21.2305 112.615 21.582C112.49 21.9297 112.428 22.3262 112.428 22.7715V22.9004C112.428 23.3418 112.49 23.7383 112.615 24.0898C112.74 24.4414 112.928 24.7188 113.178 24.9219C113.432 25.1211 113.744 25.2207 114.115 25.2207ZM119.934 25.0977L120.889 25.2617V26H117.824V25.2617L118.779 25.0977V20.5684L117.824 20.4043V19.6602H119.811L119.91 20.4688L119.922 20.5801C120.102 20.2559 120.322 20.002 120.584 19.8184C120.85 19.6348 121.152 19.543 121.492 19.543C121.613 19.543 121.736 19.5547 121.861 19.5781C121.99 19.5977 122.082 19.6172 122.137 19.6367L121.984 20.709L121.182 20.6621C120.877 20.6426 120.621 20.7129 120.414 20.873C120.207 21.0293 120.047 21.2402 119.934 21.5059V25.0977ZM129.719 26.123C129.152 26.123 128.664 26.0195 128.254 25.8125C127.84 25.6055 127.518 25.3223 127.287 24.9629C127.057 24.5996 126.941 24.1797 126.941 23.7031C126.941 23.2344 127.074 22.8242 127.34 22.4727C127.605 22.1211 128.002 21.7676 128.529 21.4121C128.553 21.3926 128.572 21.3809 128.588 21.377C128.283 20.9902 128.057 20.6465 127.908 20.3457C127.76 20.041 127.686 19.7285 127.686 19.4082C127.686 18.9707 127.771 18.5957 127.943 18.2832C128.299 17.6582 128.928 17.3457 129.83 17.3457C130.248 17.3457 130.611 17.4277 130.92 17.5918C131.232 17.7559 131.477 17.9746 131.652 18.248C131.828 18.5215 131.916 18.8262 131.916 19.1621C131.916 19.5449 131.812 19.877 131.605 20.1582C131.402 20.4355 131.1 20.7207 130.697 21.0137L130.059 21.4824L132.051 23.8789C132.211 23.625 132.336 23.3438 132.426 23.0352C132.516 22.7266 132.561 22.4004 132.561 22.0566H133.592C133.592 23.0762 133.295 23.9434 132.701 24.6582L133.785 25.9707L133.773 26H132.432L131.934 25.4023C131.289 25.8828 130.551 26.123 129.719 26.123ZM129.473 20.7793L130.281 20.2227C130.504 20.0742 130.654 19.9141 130.732 19.7422C130.814 19.5664 130.855 19.373 130.855 19.1621C130.855 18.9238 130.76 18.7129 130.568 18.5293C130.381 18.3457 130.135 18.2539 129.83 18.2539C129.514 18.2539 129.27 18.3652 129.098 18.5879C128.926 18.8066 128.84 19.0762 128.84 19.3965C128.84 19.6035 128.893 19.8203 128.998 20.0469C129.104 20.2695 129.262 20.5137 129.473 20.7793ZM129.719 25.2207C130.285 25.2207 130.82 25.0352 131.324 24.6641L129.209 22.1152L128.975 22.2852C128.619 22.5508 128.383 22.8047 128.266 23.0469C128.152 23.2891 128.096 23.5078 128.096 23.7031C128.096 24.1445 128.234 24.5078 128.512 24.793C128.789 25.0781 129.191 25.2207 129.719 25.2207ZM140.752 22.2266V25.0977L141.707 25.2617V26H138.643V25.2617L139.598 25.0977V18.377L138.643 18.2129V17.4688H145.059V19.5195H144.133L144.004 18.3652H140.752V21.3184H143.875V22.2266H140.752ZM147.531 26.123C146.871 26.123 146.369 25.9629 146.025 25.6426C145.682 25.3184 145.51 24.8633 145.51 24.2773C145.51 23.8711 145.621 23.5195 145.844 23.2227C146.062 22.9219 146.381 22.6895 146.799 22.5254C147.217 22.3613 147.717 22.2793 148.299 22.2793H149.43V21.6582C149.43 21.2754 149.312 20.9785 149.078 20.7676C148.848 20.5566 148.521 20.4512 148.1 20.4512C147.834 20.4512 147.604 20.4844 147.408 20.5508C147.213 20.6133 147.035 20.7012 146.875 20.8145L146.752 21.6992H145.861V20.2461C146.436 19.7773 147.188 19.543 148.117 19.543C148.887 19.543 149.49 19.7266 149.928 20.0938C150.365 20.4609 150.584 20.9863 150.584 21.6699V24.7227C150.584 24.8047 150.584 24.8848 150.584 24.9629C150.588 25.041 150.594 25.1191 150.602 25.1973L151.217 25.2617V26H149.559C149.492 25.6797 149.451 25.3887 149.436 25.127C149.213 25.4121 148.934 25.6504 148.598 25.8418C148.266 26.0293 147.91 26.123 147.531 26.123ZM147.701 25.1562C148.084 25.1562 148.434 25.0645 148.75 24.8809C149.066 24.6973 149.293 24.4766 149.43 24.2188V23.0703H148.258C147.727 23.0703 147.328 23.1973 147.062 23.4512C146.797 23.7051 146.664 23.9883 146.664 24.3008C146.664 24.8711 147.01 25.1562 147.701 25.1562ZM154.979 26.123C154.408 26.123 153.908 25.9883 153.479 25.7188C153.053 25.4531 152.723 25.082 152.488 24.6055C152.254 24.1289 152.137 23.5781 152.137 22.9531V22.707C152.137 22.0977 152.25 21.5586 152.477 21.0898C152.703 20.6133 153.029 20.2363 153.455 19.959C153.881 19.6816 154.389 19.543 154.979 19.543C155.49 19.543 155.938 19.627 156.32 19.7949C156.707 19.9629 157.031 20.1934 157.293 20.4863L157.322 22.0098H156.42L156.221 20.9023C156.088 20.7656 155.922 20.6562 155.723 20.5742C155.523 20.4922 155.289 20.4512 155.02 20.4512C154.672 20.4512 154.371 20.5527 154.117 20.7559C153.855 20.959 153.652 21.2305 153.508 21.5703C153.363 21.9102 153.291 22.2891 153.291 22.707V22.9531C153.291 23.4102 153.359 23.8105 153.496 24.1543C153.633 24.4941 153.826 24.7578 154.076 24.9453C154.326 25.1289 154.625 25.2207 154.973 25.2207C155.363 25.2207 155.688 25.1133 155.945 24.8984C156.203 24.6836 156.361 24.3887 156.42 24.0137H157.457L157.469 24.0488C157.453 24.4043 157.346 24.7441 157.146 25.0684C156.951 25.3848 156.672 25.6406 156.309 25.8359C155.949 26.0273 155.506 26.123 154.979 26.123ZM161.16 26.123C160.473 26.123 159.936 25.9023 159.549 25.4609C159.162 25.0195 158.969 24.332 158.969 23.3984V20.5684L158.242 20.4043V19.6602H160.123V23.4102C160.123 24.0859 160.223 24.5508 160.422 24.8047C160.621 25.0586 160.932 25.1855 161.354 25.1855C161.764 25.1855 162.102 25.1035 162.367 24.9395C162.637 24.7715 162.84 24.5352 162.977 24.2305V20.5684L162.127 20.4043V19.6602H164.131V25.0977L164.857 25.2617V26H163.094L163.018 25.0625C162.818 25.4023 162.561 25.6641 162.244 25.8477C161.932 26.0312 161.57 26.123 161.16 26.123ZM167.723 16.8594V25.0977L168.678 25.2617V26H165.613V25.2617L166.568 25.0977V17.7676L165.613 17.6035V16.8594H167.723ZM171.742 26.0996C171.273 26.0996 170.9 25.9629 170.623 25.6895C170.35 25.4121 170.213 24.9707 170.213 24.3652V20.5156H169.211V19.6602H170.213V18.1309H171.367V19.6602H172.744V20.5156H171.367V24.3652C171.367 24.6699 171.428 24.8945 171.549 25.0391C171.67 25.1836 171.832 25.2559 172.035 25.2559C172.172 25.2559 172.324 25.2441 172.492 25.2207C172.66 25.1934 172.791 25.1699 172.885 25.1504L173.043 25.9062C172.875 25.957 172.668 26.002 172.422 26.041C172.18 26.0801 171.953 26.0996 171.742 26.0996ZM175.158 28.5605C175.068 28.5605 174.951 28.5488 174.807 28.5254C174.662 28.5059 174.551 28.4863 174.473 28.4668L174.59 27.5586C174.656 27.5664 174.748 27.5723 174.865 27.5762C174.982 27.584 175.062 27.5879 175.105 27.5879C175.352 27.5879 175.551 27.4941 175.703 27.3066C175.859 27.1191 176.004 26.8633 176.137 26.5391L176.412 25.8711L174.168 20.498L173.488 20.4043V19.6602H176.148V20.4043L175.381 20.5215L176.617 23.6914L176.916 24.5176H176.951L178.416 20.5215L177.607 20.4043V19.6602H180.215V20.4043L179.559 20.498L177.062 26.9727C176.945 27.2812 176.805 27.5547 176.641 27.793C176.473 28.0312 176.268 28.2188 176.025 28.3555C175.787 28.4922 175.498 28.5605 175.158 28.5605Z" fill="white"/>
<defs>
<linearGradient id="paint0_linear_323_1616" x1="40.2102" y1="-87.1521" x2="205.086" y2="148.031" gradientUnits="userSpaceOnUse">
<stop stop-color="#FFDE28" stop-opacity="0.8"/>
<stop offset="1" stop-color="#FFDE28" stop-opacity="0.1"/>
</linearGradient>
<linearGradient id="paint1_linear_323_1616" x1="53.0882" y1="-25.9677" x2="268.599" y2="85.1457" gradientUnits="userSpaceOnUse">
<stop offset="0.605" stop-color="#E5D477"/>
<stop offset="1" stop-color="#5E5419"/>
</linearGradient>
<linearGradient id="paint2_linear_323_1616" x1="29.8673" y1="23.5733" x2="71.7219" y2="58.3125" gradientUnits="userSpaceOnUse">
<stop stop-color="#51491E"/>
<stop offset="1" stop-color="#2E290A"/>
</linearGradient>
<linearGradient id="paint3_linear_323_1616" x1="24" y1="3.3297" x2="65.9257" y2="64.8599" gradientUnits="userSpaceOnUse">
<stop offset="0.162071" stop-color="#A59645"/>
<stop offset="0.31" stop-color="#5E5419"/>
<stop offset="0.52" stop-color="#4A4217"/>
<stop offset="0.75" stop-color="#231F09"/>
<stop offset="0.955" stop-color="#524603"/>
</linearGradient>
</defs>
</svg>
