<svg width="225" height="96" viewBox="0 0 225 96" fill="none" xmlns="http://www.w3.org/2000/svg">
<path d="M173.619 83.4007L173.587 83.4034L173.555 83.4098C171.976 83.7255 170.995 84.5199 170.678 85.692C170.379 86.7985 170.726 88.0738 171.363 89.2734C172.407 91.2388 174.38 93.2822 176.535 94.6222C175.201 94.8083 173.94 94.8518 172.748 94.7793C166.56 94.4028 160.425 92.2452 154.198 90.0555C153.798 89.915 153.398 89.7744 152.998 89.6341C146.396 87.3202 139.686 85.0989 132.875 85.2335C126.073 85.3679 118.82 85.3679 112.73 85.3679C69.143 85.3679 41.2182 81.6282 24.2055 74.4748C15.7114 70.9033 9.97318 66.4951 6.35439 61.3094C2.73844 56.1278 1.20305 50.119 1.20305 43.2793C1.20305 36.4412 2.76159 30.4329 6.40703 25.2509C10.0556 20.0645 15.83 15.6558 24.3487 12.0839C41.4097 4.93028 69.3351 1.19063 112.73 1.19063C156.115 1.19063 184.041 5.64714 201.102 13.1578C209.624 16.9093 215.405 21.4099 219.057 26.4693C222.705 31.5225 224.257 37.1724 224.257 43.2793C224.257 55.549 220.008 64.8267 211.614 71.412C203.19 78.0213 190.529 81.9677 173.619 83.4007Z" stroke="#FFDE28" stroke-width="1.14976"/>
<path d="M93.7141 49.4081H92.1619V43.6651H85.8497V49.4081H84.2975V37.0942H85.8497V42.3026H92.1619V37.0942H93.7141V49.4081ZM104.566 44.7689C104.566 45.5392 104.462 46.2233 104.255 46.8212C104.06 47.4076 103.772 47.9077 103.393 48.3216C103.025 48.7355 102.571 49.0517 102.03 49.2702C101.502 49.4771 100.909 49.5806 100.254 49.5806C99.6447 49.5806 99.0814 49.4771 98.564 49.2702C98.0466 49.0517 97.5982 48.7355 97.2187 48.3216C96.8393 47.9077 96.5404 47.4076 96.3219 46.8212C96.115 46.2233 96.0115 45.5392 96.0115 44.7689C96.0115 43.7456 96.184 42.8832 96.5289 42.1819C96.8738 41.469 97.3682 40.9286 98.0121 40.5607C98.6559 40.1813 99.4205 39.9916 100.306 39.9916C101.145 39.9916 101.881 40.1813 102.513 40.5607C103.157 40.9286 103.657 41.469 104.014 42.1819C104.382 42.8832 104.566 43.7456 104.566 44.7689ZM97.5809 44.7689C97.5809 45.4932 97.6729 46.1256 97.8569 46.666C98.0523 47.1948 98.3513 47.603 98.7537 47.8905C99.1561 48.1779 99.6677 48.3216 100.289 48.3216C100.909 48.3216 101.421 48.1779 101.824 47.8905C102.226 47.603 102.519 47.1948 102.703 46.666C102.899 46.1256 102.996 45.4932 102.996 44.7689C102.996 44.033 102.899 43.4064 102.703 42.889C102.508 42.3716 102.209 41.9749 101.806 41.699C101.415 41.4115 100.904 41.2678 100.271 41.2678C99.3286 41.2678 98.6444 41.5783 98.219 42.1991C97.7936 42.82 97.5809 43.6766 97.5809 44.7689ZM112.257 44.1825C112.188 43.941 112.119 43.7053 112.05 43.4754C111.981 43.2339 111.917 43.0097 111.86 42.8028C111.814 42.5843 111.768 42.3831 111.722 42.1991C111.676 42.0152 111.641 41.86 111.618 41.7335H111.549C111.526 41.86 111.492 42.0152 111.446 42.1991C111.411 42.3831 111.365 42.5843 111.308 42.8028C111.262 43.0212 111.205 43.2512 111.136 43.4926C111.078 43.7226 111.009 43.9583 110.929 44.1997L109.273 49.3909H107.548L105.013 40.1468H106.582L107.859 45.0793C107.951 45.4127 108.037 45.7519 108.117 46.0968C108.198 46.4303 108.267 46.7522 108.324 47.0626C108.393 47.3616 108.439 47.6203 108.462 47.8387H108.531C108.566 47.7007 108.606 47.5283 108.652 47.3213C108.698 47.1144 108.744 46.8959 108.79 46.666C108.848 46.436 108.905 46.2061 108.962 45.9761C109.031 45.7461 109.095 45.5392 109.152 45.3552L110.791 40.1468H112.446L114.033 45.3552C114.113 45.6197 114.194 45.9014 114.274 46.2003C114.366 46.4992 114.447 46.7924 114.516 47.0799C114.585 47.3558 114.631 47.603 114.654 47.8215H114.723C114.746 47.626 114.786 47.3846 114.844 47.0971C114.913 46.7982 114.987 46.4762 115.068 46.1313C115.16 45.7749 115.252 45.4242 115.344 45.0793L116.637 40.1468H118.189L115.62 49.3909H113.843L112.257 44.1825ZM122.779 49.5806C121.629 49.5806 120.71 49.1839 120.02 48.3906C119.33 47.5858 118.985 46.39 118.985 44.8033C118.985 43.2167 119.33 42.0209 120.02 41.2161C120.721 40.3998 121.647 39.9916 122.796 39.9916C123.279 39.9916 123.699 40.0548 124.055 40.1813C124.412 40.2963 124.722 40.4572 124.987 40.6642C125.251 40.8712 125.475 41.1011 125.659 41.3541H125.763C125.751 41.2046 125.728 40.9861 125.694 40.6987C125.671 40.3998 125.659 40.1641 125.659 39.9916V36.3009H127.177V49.4081H125.953L125.728 48.1664H125.659C125.475 48.4308 125.251 48.6723 124.987 48.8907C124.722 49.0977 124.406 49.2644 124.038 49.3909C123.682 49.5174 123.262 49.5806 122.779 49.5806ZM123.021 48.3216C123.998 48.3216 124.682 48.0572 125.073 47.5283C125.475 46.9879 125.677 46.1773 125.677 45.0965V44.8206C125.677 43.6708 125.487 42.7913 125.107 42.1819C124.728 41.561 124.027 41.2506 123.003 41.2506C122.187 41.2506 121.572 41.5783 121.158 42.2336C120.756 42.8775 120.554 43.7456 120.554 44.8378C120.554 45.9416 120.756 46.7982 121.158 47.4076C121.572 48.0169 122.193 48.3216 123.021 48.3216ZM128.319 40.1641H129.94L131.941 45.4242C132.056 45.7347 132.16 46.0336 132.252 46.321C132.355 46.6085 132.447 46.8902 132.527 47.1661C132.608 47.4306 132.671 47.6892 132.717 47.9422H132.786C132.855 47.6548 132.964 47.2811 133.114 46.8212C133.263 46.3498 133.419 45.8784 133.579 45.407L135.459 40.1641H137.098L133.114 50.6844C132.895 51.2593 132.637 51.7594 132.338 52.1848C132.05 52.6217 131.694 52.9552 131.268 53.1851C130.855 53.4266 130.349 53.5473 129.751 53.5473C129.475 53.5473 129.233 53.53 129.026 53.4955C128.819 53.4726 128.641 53.4438 128.492 53.4093V52.2021C128.618 52.2251 128.768 52.2481 128.94 52.2711C129.124 52.294 129.314 52.3055 129.509 52.3055C129.866 52.3055 130.17 52.2366 130.423 52.0986C130.688 51.9721 130.912 51.7824 131.096 51.5295C131.28 51.288 131.435 51.0006 131.562 50.6671L132.045 49.4426L128.319 40.1641ZM139.56 45.9416H138.577L138.146 37.0942H139.991L139.56 45.9416ZM137.991 48.4768C137.991 48.0514 138.094 47.7525 138.301 47.58C138.508 47.4076 138.761 47.3213 139.06 47.3213C139.347 47.3213 139.594 47.4076 139.801 47.58C140.02 47.7525 140.129 48.0514 140.129 48.4768C140.129 48.8907 140.02 49.1897 139.801 49.3736C139.594 49.5576 139.347 49.6496 139.06 49.6496C138.761 49.6496 138.508 49.5576 138.301 49.3736C138.094 49.1897 137.991 48.8907 137.991 48.4768Z" fill="#F8F8F8"/>
</svg>
