<svg width="117" height="74" viewBox="0 0 117 74" fill="none" xmlns="http://www.w3.org/2000/svg">
<path d="M79.7727 31.7143C88.6009 31.7143 95.6741 24.6314 95.6741 15.8571C95.6741 7.08286 88.6009 0 79.7727 0C70.9445 0 63.8182 7.08286 63.8182 15.8571C63.8182 24.6314 70.9445 31.7143 79.7727 31.7143ZM37.2273 31.7143C46.0555 31.7143 53.1286 24.6314 53.1286 15.8571C53.1286 7.08286 46.0555 0 37.2273 0C28.3991 0 21.2727 7.08286 21.2727 15.8571C21.2727 24.6314 28.3991 31.7143 37.2273 31.7143ZM37.2273 42.2857C24.8359 42.2857 0 48.47 0 60.7857V74H74.4545V60.7857C74.4545 48.47 49.6186 42.2857 37.2273 42.2857ZM79.7727 42.2857C78.2305 42.2857 76.4755 42.3914 74.6141 42.55C80.7832 46.99 85.0909 52.9629 85.0909 60.7857V74H117V60.7857C117 48.47 92.1641 42.2857 79.7727 42.2857Z" fill="url(#paint0_linear_515_3000)"/>
<defs>
<linearGradient id="paint0_linear_515_3000" x1="169.604" y1="83.4173" x2="110.01" y2="-57.8407" gradientUnits="userSpaceOnUse">
<stop offset="0.379733" stop-color="#FFDE28" stop-opacity="0.7"/>
<stop offset="0.988905" stop-color="#FFDE28" stop-opacity="0.1"/>
</linearGradient>
</defs>
</svg>
