<svg width="283" height="50" viewBox="0 0 283 50" fill="none" xmlns="http://www.w3.org/2000/svg">
<rect x="1.1145" y="1.1145" width="280.771" height="47.771" rx="10.8855" fill="#313131" stroke="#FFDE28" stroke-width="2.22899"/>
<path d="M46.4644 19.03C44.2644 19.03 43.1644 19.8587 43.1644 21.516C43.1644 21.9707 43.2157 22.352 43.3184 22.66C43.4357 22.9533 43.6337 23.21 43.9124 23.43C44.2057 23.6353 44.6017 23.8113 45.1004 23.958C45.599 24.1047 46.237 24.266 47.0144 24.442C47.7917 24.618 48.4444 24.8087 48.9724 25.014C49.515 25.2193 49.955 25.476 50.2924 25.784C50.6297 26.092 50.8717 26.466 51.0184 26.906C51.1797 27.346 51.2604 27.8813 51.2604 28.512C51.2604 31.636 49.6397 33.198 46.3984 33.198C45.8557 33.198 45.247 33.1613 44.5724 33.088C43.9124 33.0293 43.179 32.9413 42.3724 32.824L41.5804 32.714L41.7564 31.306C43.7657 31.57 45.2837 31.702 46.3104 31.702C48.481 31.702 49.5664 30.6827 49.5664 28.644C49.5664 28.2333 49.5077 27.8887 49.3904 27.61C49.2877 27.3167 49.1044 27.0747 48.8404 26.884C48.591 26.6787 48.2464 26.51 47.8064 26.378C47.381 26.2313 46.8384 26.092 46.1784 25.96C45.3277 25.784 44.6017 25.586 44.0004 25.366C43.399 25.146 42.9077 24.8747 42.5264 24.552C42.145 24.2147 41.8664 23.8113 41.6904 23.342C41.529 22.8727 41.4484 22.3007 41.4484 21.626C41.4484 18.898 43.0837 17.534 46.3544 17.534C47.425 17.534 48.7084 17.644 50.2044 17.864L50.9524 17.974L50.7984 19.404C49.7717 19.2867 48.899 19.1987 48.1804 19.14C47.4617 19.0667 46.8897 19.03 46.4644 19.03ZM63.8882 33H54.6262V17.776H63.8882V19.272H56.3202V24.53H62.5682V26.004H56.3202V31.504H63.8882V33ZM76.4884 33H67.2264V17.776H76.4884V19.272H68.9204V24.53H75.1684V26.004H68.9204V31.504H76.4884V33ZM91.1065 27.17H86.7945V33H85.1005V17.776H90.7325C92.3605 17.776 93.5778 18.15 94.3845 18.898C95.1912 19.6313 95.5945 20.7973 95.5945 22.396C95.5945 24.7573 94.6632 26.2313 92.8005 26.818L95.7265 33H93.8565L91.1065 27.17ZM86.7945 25.674H90.7545C92.8225 25.674 93.8565 24.6033 93.8565 22.462C93.8565 20.3353 92.8152 19.272 90.7325 19.272H86.7945V25.674ZM108.359 33H99.0971V17.776H108.359V19.272H100.791V24.53H107.039V26.004H100.791V31.504H108.359V33ZM117.087 33.22C115.943 33.22 114.99 33.066 114.227 32.758C113.465 32.45 112.849 31.9807 112.379 31.35C111.91 30.7193 111.573 29.9127 111.367 28.93C111.177 27.9473 111.081 26.7887 111.081 25.454C111.081 24.1193 111.184 22.9607 111.389 21.978C111.595 20.9807 111.932 20.1593 112.401 19.514C112.871 18.854 113.487 18.3627 114.249 18.04C115.027 17.7173 115.973 17.556 117.087 17.556C118.217 17.556 119.163 17.7173 119.925 18.04C120.688 18.3627 121.304 18.8467 121.773 19.492C122.257 20.1373 122.602 20.9587 122.807 21.956C123.013 22.9387 123.115 24.1047 123.115 25.454C123.115 27.3313 122.925 28.8273 122.543 29.942C122.162 31.0567 121.509 31.8853 120.585 32.428L122.455 35.442L120.871 36.19L118.935 33.022C118.451 33.154 117.835 33.22 117.087 33.22ZM112.819 25.454C112.819 26.5687 112.885 27.522 113.017 28.314C113.149 29.106 113.377 29.7587 113.699 30.272C114.022 30.7707 114.462 31.1373 115.019 31.372C115.577 31.6067 116.273 31.724 117.109 31.724C117.945 31.724 118.635 31.614 119.177 31.394C119.735 31.1593 120.167 30.8 120.475 30.316C120.798 29.8173 121.025 29.172 121.157 28.38C121.289 27.588 121.355 26.6273 121.355 25.498C121.355 24.3687 121.289 23.4007 121.157 22.594C121.025 21.7873 120.791 21.12 120.453 20.592C120.131 20.064 119.691 19.6753 119.133 19.426C118.591 19.1767 117.909 19.052 117.087 19.052C116.266 19.052 115.577 19.1767 115.019 19.426C114.477 19.6753 114.037 20.064 113.699 20.592C113.377 21.1053 113.149 21.7653 113.017 22.572C112.885 23.3787 112.819 24.3393 112.819 25.454ZM128.245 17.776V28.424C128.245 30.624 129.433 31.724 131.809 31.724C133.055 31.724 133.987 31.4673 134.603 30.954C135.219 30.426 135.527 29.5827 135.527 28.424V17.776H137.199V28.38C137.199 30.096 136.751 31.3353 135.857 32.098C134.962 32.846 133.627 33.22 131.853 33.22C130.078 33.22 128.751 32.846 127.871 32.098C126.991 31.3353 126.551 30.096 126.551 28.38V17.776H128.245ZM142.953 33H141.259V17.776H142.953V33ZM153.119 27.17H148.807V33H147.113V17.776H152.745C154.373 17.776 155.59 18.15 156.397 18.898C157.204 19.6313 157.607 20.7973 157.607 22.396C157.607 24.7573 156.676 26.2313 154.813 26.818L157.739 33H155.869L153.119 27.17ZM148.807 25.674H152.767C154.835 25.674 155.869 24.6033 155.869 22.462C155.869 20.3353 154.828 19.272 152.745 19.272H148.807V25.674ZM170.372 33H161.11V17.776H170.372V19.272H162.804V24.53H169.052V26.004H162.804V31.504H170.372V33ZM175.404 33H173.71V17.776H176.768L181.08 30.646L185.392 17.776H188.45V33H186.756V19.58H186.448L182.026 32.45H180.134L175.712 19.58H175.404V33ZM201.888 33H192.626V17.776H201.888V19.272H194.32V24.53H200.568V26.004H194.32V31.504H201.888V33ZM206.921 33H205.227V17.776H208.395L214.225 31.504H214.687V17.776H216.359V33H213.257L207.339 19.272H206.921V33ZM223.636 19.294H218.95V17.776H229.95V19.294H225.308V33H223.636V19.294ZM236.756 19.03C234.556 19.03 233.456 19.8587 233.456 21.516C233.456 21.9707 233.507 22.352 233.61 22.66C233.727 22.9533 233.925 23.21 234.204 23.43C234.497 23.6353 234.893 23.8113 235.392 23.958C235.89 24.1047 236.528 24.266 237.306 24.442C238.083 24.618 238.736 24.8087 239.264 25.014C239.806 25.2193 240.246 25.476 240.584 25.784C240.921 26.092 241.163 26.466 241.31 26.906C241.471 27.346 241.552 27.8813 241.552 28.512C241.552 31.636 239.931 33.198 236.69 33.198C236.147 33.198 235.538 33.1613 234.864 33.088C234.204 33.0293 233.47 32.9413 232.664 32.824L231.872 32.714L232.048 31.306C234.057 31.57 235.575 31.702 236.602 31.702C238.772 31.702 239.858 30.6827 239.858 28.644C239.858 28.2333 239.799 27.8887 239.682 27.61C239.579 27.3167 239.396 27.0747 239.132 26.884C238.882 26.6787 238.538 26.51 238.098 26.378C237.672 26.2313 237.13 26.092 236.47 25.96C235.619 25.784 234.893 25.586 234.292 25.366C233.69 25.146 233.199 24.8747 232.818 24.552C232.436 24.2147 232.158 23.8113 231.982 23.342C231.82 22.8727 231.74 22.3007 231.74 21.626C231.74 18.898 233.375 17.534 236.646 17.534C237.716 17.534 239 17.644 240.496 17.864L241.244 17.974L241.09 19.404C240.063 19.2867 239.19 19.1987 238.472 19.14C237.753 19.0667 237.181 19.03 236.756 19.03Z" fill="#FFDE28"/>
</svg>
