<svg width="16" height="16" viewBox="0 0 16 16" fill="none" xmlns="http://www.w3.org/2000/svg">
<path fill-rule="evenodd" clip-rule="evenodd" d="M11.7873 1.13445C11.7437 0.308109 10.7541 -0.090226 10.1502 0.475455L6.58981 3.81028C6.42237 3.96711 6.20491 4.05975 5.97581 4.07184L1.10433 4.32888C0.277987 4.37248 -0.120348 5.36204 0.445333 5.96598L3.78016 9.52637C3.93699 9.69381 4.02963 9.91127 4.04172 10.1404L4.29876 15.0119C4.34236 15.8382 5.33192 16.2365 5.93586 15.6709L9.49625 12.336C9.66369 12.1792 9.88115 12.0866 10.1103 12.0745L14.9817 11.8174C15.8081 11.7738 16.2064 10.7843 15.6407 10.1803L12.3059 6.61993C12.1491 6.4525 12.0564 6.23503 12.0443 6.00594L11.7873 1.13445ZM10.4111 3.8893C10.3654 3.33029 9.70142 3.06303 9.28112 3.43442L7.05098 5.40499C6.93087 5.51112 6.7772 5.5715 6.61697 5.57551L3.63524 5.65023C3.03835 5.66519 2.74812 6.3862 3.16818 6.81051L5.26659 8.93018C5.37935 9.04408 5.44834 9.19409 5.46142 9.35383L5.70438 12.3199C5.75016 12.8789 6.4141 13.1462 6.8344 12.7748L9.06454 10.8042C9.18465 10.6981 9.33833 10.6377 9.49855 10.6337L12.4803 10.559C13.0772 10.544 13.3674 9.82302 12.9473 9.3987L10.8489 7.27903C10.7362 7.16513 10.6672 7.01512 10.6541 6.85538L10.4111 3.8893Z" fill="#F0F0F0"/>
</svg>
