<svg width="25" height="25" viewBox="0 0 25 25" fill="none" xmlns="http://www.w3.org/2000/svg">
<path fill-rule="evenodd" clip-rule="evenodd" d="M11.5575 0.868737C10.8481 -0.119442 9.3074 0.172385 9.00856 1.35153L7.24681 8.30289C7.16396 8.6298 6.96828 8.91693 6.69432 9.1136L0.86875 13.2955C-0.119429 14.0048 0.172398 15.5455 1.35154 15.8444L8.30291 17.6061C8.62982 17.689 8.91695 17.8846 9.11361 18.1586L13.2955 23.9842C14.0048 24.9723 15.5455 24.6805 15.8444 23.5014L17.6061 16.55C17.689 16.2231 17.8847 15.936 18.1586 15.7393L23.9842 11.5575C24.9724 10.8481 24.6805 9.30738 23.5014 9.00854L16.55 7.2468C16.2231 7.16395 15.936 6.96827 15.7393 6.6943L11.5575 0.868737ZM11.9081 4.87943C11.408 4.22387 10.3743 4.41967 10.1487 5.21269L8.85284 9.76658C8.78836 9.99319 8.64604 10.1898 8.45091 10.3219L4.5071 12.9908C3.7802 13.4827 3.99282 14.6053 4.84927 14.7973L9.49595 15.8391C9.72585 15.8906 9.93021 16.0216 10.0731 16.2089L12.9445 19.9735C13.4446 20.629 14.4783 20.4332 14.7039 19.6402L15.9998 15.0863C16.0642 14.8597 16.2066 14.6631 16.4017 14.531L20.3455 11.8621C21.0724 11.3702 20.8598 10.2476 20.0033 10.0556L15.3567 9.01382C15.1268 8.96228 14.9224 8.83132 14.7795 8.64399L11.9081 4.87943Z" fill="#F0F0F0"/>
</svg>
