<svg width="247" height="303" viewBox="0 0 247 303" fill="none" xmlns="http://www.w3.org/2000/svg">
<path d="M57.5358 268.481H55.8258V262.154H48.8718V268.481H47.1618V254.915H48.8718V260.653H55.8258V254.915H57.5358V268.481ZM69.8708 263.37C69.8708 264.218 69.7568 264.972 69.5288 265.631C69.3135 266.277 68.9968 266.828 68.5788 267.284C68.1735 267.74 67.6732 268.088 67.0778 268.329C66.4952 268.557 65.8428 268.671 65.1208 268.671C64.4495 268.671 63.8288 268.557 63.2588 268.329C62.6888 268.088 62.1948 267.74 61.7768 267.284C61.3588 266.828 61.0295 266.277 60.7888 265.631C60.5608 264.972 60.4468 264.218 60.4468 263.37C60.4468 262.242 60.6368 261.292 61.0168 260.52C61.3968 259.734 61.9415 259.139 62.6508 258.734C63.3602 258.316 64.2025 258.107 65.1778 258.107C66.1025 258.107 66.9132 258.316 67.6098 258.734C68.3192 259.139 68.8702 259.734 69.2628 260.52C69.6682 261.292 69.8708 262.242 69.8708 263.37ZM62.1758 263.37C62.1758 264.168 62.2772 264.864 62.4798 265.46C62.6952 266.042 63.0245 266.492 63.4678 266.809C63.9112 267.125 64.4748 267.284 65.1588 267.284C65.8428 267.284 66.4065 267.125 66.8498 266.809C67.2932 266.492 67.6162 266.042 67.8188 265.46C68.0342 264.864 68.1418 264.168 68.1418 263.37C68.1418 262.559 68.0342 261.869 67.8188 261.299C67.6035 260.729 67.2742 260.292 66.8308 259.988C66.4002 259.671 65.8365 259.513 65.1398 259.513C64.1012 259.513 63.3475 259.855 62.8788 260.539C62.4102 261.223 62.1758 262.166 62.1758 263.37ZM81.0327 258.297V268.481H79.6647L79.4177 267.132H79.3417C79.1264 267.486 78.8477 267.778 78.5057 268.006C78.1637 268.234 77.7901 268.398 77.3847 268.5C76.9794 268.614 76.5551 268.671 76.1117 268.671C75.3011 268.671 74.6171 268.544 74.0597 268.291C73.5151 268.025 73.1034 267.619 72.8247 267.075C72.5461 266.53 72.4067 265.827 72.4067 264.966V258.297H74.0977V264.852C74.0977 265.662 74.2814 266.27 74.6487 266.676C75.0161 267.081 75.5861 267.284 76.3587 267.284C77.1187 267.284 77.7141 267.144 78.1447 266.866C78.5881 266.574 78.8984 266.156 79.0757 265.612C79.2657 265.054 79.3607 264.383 79.3607 263.598V258.297H81.0327ZM89.0159 258.107C89.2059 258.107 89.4085 258.119 89.6239 258.145C89.8519 258.157 90.0482 258.183 90.2129 258.221L90.0039 259.76C89.8392 259.722 89.6555 259.69 89.4529 259.665C89.2629 259.639 89.0792 259.627 88.9019 259.627C88.5092 259.627 88.1355 259.709 87.7809 259.874C87.4262 260.038 87.1095 260.273 86.8309 260.577C86.5522 260.868 86.3305 261.223 86.1659 261.641C86.0139 262.059 85.9379 262.527 85.9379 263.047V268.481H84.2659V258.297H85.6339L85.8239 260.159H85.8999C86.1152 259.779 86.3749 259.437 86.6789 259.133C86.9829 258.816 87.3312 258.569 87.7239 258.392C88.1165 258.202 88.5472 258.107 89.0159 258.107ZM98.7455 265.669C98.7455 266.327 98.5808 266.878 98.2515 267.322C97.9222 267.765 97.4535 268.101 96.8455 268.329C96.2375 268.557 95.5155 268.671 94.6795 268.671C93.9702 268.671 93.3558 268.614 92.8365 268.5C92.3298 268.386 91.8802 268.227 91.4875 268.025V266.505C91.8928 266.707 92.3805 266.897 92.9505 267.075C93.5332 267.239 94.1222 267.322 94.7175 267.322C95.5662 267.322 96.1805 267.189 96.5605 266.923C96.9405 266.644 97.1305 266.277 97.1305 265.821C97.1305 265.567 97.0608 265.339 96.9215 265.137C96.7822 264.934 96.5288 264.731 96.1615 264.529C95.8068 264.326 95.2938 264.098 94.6225 263.845C93.9638 263.591 93.4002 263.338 92.9315 263.085C92.4628 262.831 92.1018 262.527 91.8485 262.173C91.5952 261.818 91.4685 261.362 91.4685 260.805C91.4685 259.943 91.8168 259.278 92.5135 258.81C93.2228 258.341 94.1475 258.107 95.2875 258.107C95.9082 258.107 96.4845 258.17 97.0165 258.297C97.5612 258.411 98.0678 258.575 98.5365 258.791L97.9665 260.121C97.6878 259.994 97.3902 259.886 97.0735 259.798C96.7695 259.696 96.4592 259.62 96.1425 259.57C95.8258 259.506 95.5028 259.475 95.1735 259.475C94.4895 259.475 93.9638 259.589 93.5965 259.817C93.2418 260.032 93.0645 260.33 93.0645 260.71C93.0645 260.988 93.1468 261.229 93.3115 261.432C93.4762 261.622 93.7485 261.812 94.1285 262.002C94.5212 262.179 95.0405 262.394 95.6865 262.648C96.3325 262.888 96.8835 263.135 97.3395 263.389C97.7955 263.642 98.1438 263.952 98.3845 264.32C98.6252 264.674 98.7455 265.124 98.7455 265.669ZM115.979 263.37C115.979 264.218 115.865 264.972 115.637 265.631C115.422 266.277 115.105 266.828 114.687 267.284C114.282 267.74 113.782 268.088 113.186 268.329C112.604 268.557 111.951 268.671 111.229 268.671C110.558 268.671 109.937 268.557 109.367 268.329C108.797 268.088 108.303 267.74 107.885 267.284C107.467 266.828 107.138 266.277 106.897 265.631C106.669 264.972 106.555 264.218 106.555 263.37C106.555 262.242 106.745 261.292 107.125 260.52C107.505 259.734 108.05 259.139 108.759 258.734C109.469 258.316 110.311 258.107 111.286 258.107C112.211 258.107 113.022 258.316 113.718 258.734C114.428 259.139 114.979 259.734 115.371 260.52C115.777 261.292 115.979 262.242 115.979 263.37ZM108.284 263.37C108.284 264.168 108.386 264.864 108.588 265.46C108.804 266.042 109.133 266.492 109.576 266.809C110.02 267.125 110.583 267.284 111.267 267.284C111.951 267.284 112.515 267.125 112.958 266.809C113.402 266.492 113.725 266.042 113.927 265.46C114.143 264.864 114.25 264.168 114.25 263.37C114.25 262.559 114.143 261.869 113.927 261.299C113.712 260.729 113.383 260.292 112.939 259.988C112.509 259.671 111.945 259.513 111.248 259.513C110.21 259.513 109.456 259.855 108.987 260.539C108.519 261.223 108.284 262.166 108.284 263.37ZM123.322 259.589H120.757V268.481H119.085V259.589H117.299V258.81L119.085 258.24V257.651C119.085 256.777 119.212 256.067 119.465 255.523C119.731 254.978 120.111 254.579 120.605 254.326C121.099 254.072 121.694 253.946 122.391 253.946C122.796 253.946 123.164 253.984 123.493 254.06C123.835 254.123 124.126 254.199 124.367 254.288L123.93 255.599C123.727 255.535 123.493 255.472 123.227 255.409C122.961 255.345 122.689 255.314 122.41 255.314C121.853 255.314 121.435 255.504 121.156 255.884C120.89 256.251 120.757 256.834 120.757 257.632V258.297H123.322V259.589ZM134.48 267.303C134.734 267.303 134.993 267.284 135.259 267.246C135.525 267.195 135.741 267.144 135.905 267.094V268.367C135.728 268.455 135.475 268.525 135.145 268.576C134.816 268.639 134.499 268.671 134.195 268.671C133.663 268.671 133.169 268.582 132.713 268.405C132.27 268.215 131.909 267.892 131.63 267.436C131.352 266.98 131.212 266.34 131.212 265.517V259.589H129.768V258.791L131.231 258.126L131.896 255.96H132.884V258.297H135.829V259.589H132.884V265.479C132.884 266.099 133.03 266.562 133.321 266.866C133.625 267.157 134.012 267.303 134.48 267.303ZM146.457 258.297V268.481H145.089L144.842 267.132H144.766C144.55 267.486 144.272 267.778 143.93 268.006C143.588 268.234 143.214 268.398 142.809 268.5C142.403 268.614 141.979 268.671 141.536 268.671C140.725 268.671 140.041 268.544 139.484 268.291C138.939 268.025 138.527 267.619 138.249 267.075C137.97 266.53 137.831 265.827 137.831 264.966V258.297H139.522V264.852C139.522 265.662 139.705 266.27 140.073 266.676C140.44 267.081 141.01 267.284 141.783 267.284C142.543 267.284 143.138 267.144 143.569 266.866C144.012 266.574 144.322 266.156 144.5 265.612C144.69 265.054 144.785 264.383 144.785 263.598V258.297H146.457ZM153.091 267.303C153.344 267.303 153.604 267.284 153.87 267.246C154.136 267.195 154.351 267.144 154.516 267.094V268.367C154.338 268.455 154.085 268.525 153.756 268.576C153.426 268.639 153.11 268.671 152.806 268.671C152.274 268.671 151.78 268.582 151.324 268.405C150.88 268.215 150.519 267.892 150.241 267.436C149.962 266.98 149.823 266.34 149.823 265.517V259.589H148.379V258.791L149.842 258.126L150.507 255.96H151.495V258.297H154.44V259.589H151.495V265.479C151.495 266.099 151.64 266.562 151.932 266.866C152.236 267.157 152.622 267.303 153.091 267.303ZM165.409 263.37C165.409 264.218 165.295 264.972 165.067 265.631C164.852 266.277 164.535 266.828 164.117 267.284C163.712 267.74 163.211 268.088 162.616 268.329C162.033 268.557 161.381 268.671 160.659 268.671C159.988 268.671 159.367 268.557 158.797 268.329C158.227 268.088 157.733 267.74 157.315 267.284C156.897 266.828 156.568 266.277 156.327 265.631C156.099 264.972 155.985 264.218 155.985 263.37C155.985 262.242 156.175 261.292 156.555 260.52C156.935 259.734 157.48 259.139 158.189 258.734C158.898 258.316 159.741 258.107 160.716 258.107C161.641 258.107 162.451 258.316 163.148 258.734C163.857 259.139 164.408 259.734 164.801 260.52C165.206 261.292 165.409 262.242 165.409 263.37ZM157.714 263.37C157.714 264.168 157.815 264.864 158.018 265.46C158.233 266.042 158.563 266.492 159.006 266.809C159.449 267.125 160.013 267.284 160.697 267.284C161.381 267.284 161.945 267.125 162.388 266.809C162.831 266.492 163.154 266.042 163.357 265.46C163.572 264.864 163.68 264.168 163.68 263.37C163.68 262.559 163.572 261.869 163.357 261.299C163.142 260.729 162.812 260.292 162.369 259.988C161.938 259.671 161.375 259.513 160.678 259.513C159.639 259.513 158.886 259.855 158.417 260.539C157.948 261.223 157.714 262.166 157.714 263.37ZM172.809 258.107C172.999 258.107 173.201 258.119 173.417 258.145C173.645 258.157 173.841 258.183 174.006 258.221L173.797 259.76C173.632 259.722 173.448 259.69 173.246 259.665C173.056 259.639 172.872 259.627 172.695 259.627C172.302 259.627 171.928 259.709 171.574 259.874C171.219 260.038 170.902 260.273 170.624 260.577C170.345 260.868 170.123 261.223 169.959 261.641C169.807 262.059 169.731 262.527 169.731 263.047V268.481H168.059V258.297H169.427L169.617 260.159H169.693C169.908 259.779 170.168 259.437 170.472 259.133C170.776 258.816 171.124 258.569 171.517 258.392C171.909 258.202 172.34 258.107 172.809 258.107ZM177.579 258.297V268.481H175.907V258.297H177.579ZM176.762 254.478C177.016 254.478 177.237 254.566 177.427 254.744C177.63 254.908 177.731 255.174 177.731 255.542C177.731 255.896 177.63 256.162 177.427 256.34C177.237 256.517 177.016 256.606 176.762 256.606C176.484 256.606 176.249 256.517 176.059 256.34C175.869 256.162 175.774 255.896 175.774 255.542C175.774 255.174 175.869 254.908 176.059 254.744C176.249 254.566 176.484 254.478 176.762 254.478ZM185.708 258.107C186.924 258.107 187.842 258.404 188.463 259C189.084 259.582 189.394 260.532 189.394 261.85V268.481H187.741V261.964C187.741 261.14 187.557 260.526 187.19 260.121C186.823 259.715 186.246 259.513 185.461 259.513C184.334 259.513 183.555 259.829 183.124 260.463C182.693 261.096 182.478 262.008 182.478 263.199V268.481H180.806V258.297H182.155L182.402 259.684H182.497C182.725 259.329 183.004 259.038 183.333 258.81C183.675 258.569 184.049 258.392 184.454 258.278C184.859 258.164 185.277 258.107 185.708 258.107ZM196.161 258.107C196.832 258.107 197.434 258.233 197.966 258.487C198.511 258.74 198.973 259.126 199.353 259.646H199.448L199.676 258.297H201.006V268.652C201.006 269.614 200.841 270.419 200.512 271.065C200.183 271.723 199.682 272.217 199.011 272.547C198.34 272.876 197.485 273.041 196.446 273.041C195.711 273.041 195.034 272.984 194.413 272.87C193.805 272.768 193.26 272.61 192.779 272.395V270.856C193.108 271.02 193.469 271.16 193.862 271.274C194.255 271.4 194.679 271.495 195.135 271.559C195.591 271.622 196.06 271.654 196.541 271.654C197.415 271.654 198.099 271.394 198.593 270.875C199.1 270.368 199.353 269.671 199.353 268.785V268.386C199.353 268.234 199.359 268.018 199.372 267.74C199.385 267.448 199.397 267.246 199.41 267.132H199.334C198.979 267.651 198.536 268.037 198.004 268.291C197.485 268.544 196.877 268.671 196.18 268.671C194.863 268.671 193.83 268.208 193.083 267.284C192.348 266.359 191.981 265.067 191.981 263.408C191.981 262.318 192.146 261.381 192.475 260.596C192.817 259.798 193.298 259.183 193.919 258.753C194.54 258.322 195.287 258.107 196.161 258.107ZM196.389 259.513C195.819 259.513 195.331 259.665 194.926 259.969C194.533 260.273 194.229 260.716 194.014 261.299C193.811 261.881 193.71 262.591 193.71 263.427C193.71 264.681 193.938 265.643 194.394 266.315C194.863 266.973 195.54 267.303 196.427 267.303C196.946 267.303 197.39 267.239 197.757 267.113C198.124 266.973 198.428 266.764 198.669 266.486C198.91 266.194 199.087 265.827 199.201 265.384C199.315 264.94 199.372 264.415 199.372 263.807V263.408C199.372 262.483 199.264 261.736 199.049 261.166C198.846 260.596 198.523 260.178 198.08 259.912C197.637 259.646 197.073 259.513 196.389 259.513ZM50.9822 292.37C50.9822 293.218 50.8682 293.972 50.6402 294.631C50.4248 295.277 50.1082 295.828 49.6902 296.284C49.2848 296.74 48.7845 297.088 48.1892 297.329C47.6065 297.557 46.9542 297.671 46.2322 297.671C45.5608 297.671 44.9402 297.557 44.3702 297.329C43.8002 297.088 43.3062 296.74 42.8882 296.284C42.4702 295.828 42.1408 295.277 41.9002 294.631C41.6722 293.972 41.5582 293.218 41.5582 292.37C41.5582 291.242 41.7482 290.292 42.1282 289.52C42.5082 288.734 43.0528 288.139 43.7622 287.734C44.4715 287.316 45.3138 287.107 46.2892 287.107C47.2138 287.107 48.0245 287.316 48.7212 287.734C49.4305 288.139 49.9815 288.734 50.3742 289.52C50.7795 290.292 50.9822 291.242 50.9822 292.37ZM43.2872 292.37C43.2872 293.168 43.3885 293.864 43.5912 294.46C43.8065 295.042 44.1358 295.492 44.5792 295.809C45.0225 296.125 45.5862 296.284 46.2702 296.284C46.9542 296.284 47.5178 296.125 47.9612 295.809C48.4045 295.492 48.7275 295.042 48.9302 294.46C49.1455 293.864 49.2532 293.168 49.2532 292.37C49.2532 291.559 49.1455 290.869 48.9302 290.299C48.7148 289.729 48.3855 289.292 47.9422 288.988C47.5115 288.671 46.9478 288.513 46.2512 288.513C45.2125 288.513 44.4588 288.855 43.9902 289.539C43.5215 290.223 43.2872 291.166 43.2872 292.37ZM58.3251 288.589H55.7601V297.481H54.0881V288.589H52.3021V287.81L54.0881 287.24V286.651C54.0881 285.777 54.2147 285.067 54.4681 284.523C54.7341 283.978 55.1141 283.579 55.6081 283.326C56.1021 283.072 56.6974 282.946 57.3941 282.946C57.7994 282.946 58.1667 282.984 58.4961 283.06C58.8381 283.123 59.1294 283.199 59.3701 283.288L58.9331 284.599C58.7304 284.535 58.4961 284.472 58.2301 284.409C57.9641 284.345 57.6917 284.314 57.4131 284.314C56.8557 284.314 56.4377 284.504 56.1591 284.884C55.8931 285.251 55.7601 285.834 55.7601 286.632V287.297H58.3251V288.589ZM64.8611 288.589H62.2961V297.481H60.6241V288.589H58.8381V287.81L60.6241 287.24V286.651C60.6241 285.777 60.7507 285.067 61.0041 284.523C61.2701 283.978 61.6501 283.579 62.1441 283.326C62.6381 283.072 63.2334 282.946 63.9301 282.946C64.3354 282.946 64.7027 282.984 65.0321 283.06C65.3741 283.123 65.6654 283.199 65.9061 283.288L65.4691 284.599C65.2664 284.535 65.0321 284.472 64.7661 284.409C64.5001 284.345 64.2277 284.314 63.9491 284.314C63.3917 284.314 62.9737 284.504 62.6951 284.884C62.4291 285.251 62.2961 285.834 62.2961 286.632V287.297H64.8611V288.589ZM70.6461 287.107C71.5201 287.107 72.2675 287.297 72.8881 287.677C73.5215 288.057 74.0028 288.595 74.3321 289.292C74.6741 289.976 74.8451 290.78 74.8451 291.705V292.712H67.8721C67.8975 293.864 68.1888 294.745 68.7461 295.353C69.3161 295.948 70.1078 296.246 71.1211 296.246C71.7671 296.246 72.3371 296.189 72.8311 296.075C73.3378 295.948 73.8571 295.771 74.3891 295.543V297.006C73.8698 297.234 73.3568 297.398 72.8501 297.5C72.3435 297.614 71.7418 297.671 71.0451 297.671C70.0825 297.671 69.2275 297.474 68.4801 297.082C67.7455 296.689 67.1691 296.106 66.7511 295.334C66.3458 294.548 66.1431 293.592 66.1431 292.465C66.1431 291.35 66.3268 290.394 66.6941 289.596C67.0741 288.798 67.5998 288.183 68.2711 287.753C68.9551 287.322 69.7468 287.107 70.6461 287.107ZM70.6271 288.475C69.8291 288.475 69.1958 288.734 68.7271 289.254C68.2711 289.76 67.9988 290.47 67.9101 291.382H73.0971C73.0971 290.799 73.0085 290.292 72.8311 289.862C72.6538 289.431 72.3815 289.095 72.0141 288.855C71.6595 288.601 71.1971 288.475 70.6271 288.475ZM82.1877 287.107C82.3777 287.107 82.5804 287.119 82.7957 287.145C83.0237 287.157 83.2201 287.183 83.3847 287.221L83.1757 288.76C83.0111 288.722 82.8274 288.69 82.6247 288.665C82.4347 288.639 82.2511 288.627 82.0737 288.627C81.6811 288.627 81.3074 288.709 80.9527 288.874C80.5981 289.038 80.2814 289.273 80.0027 289.577C79.7241 289.868 79.5024 290.223 79.3377 290.641C79.1857 291.059 79.1097 291.527 79.1097 292.047V297.481H77.4377V287.297H78.8057L78.9957 289.159H79.0717C79.2871 288.779 79.5467 288.437 79.8507 288.133C80.1547 287.816 80.5031 287.569 80.8957 287.392C81.2884 287.202 81.7191 287.107 82.1877 287.107ZM88.8483 287.107C89.7223 287.107 90.4696 287.297 91.0903 287.677C91.7236 288.057 92.2049 288.595 92.5343 289.292C92.8763 289.976 93.0473 290.78 93.0473 291.705V292.712H86.0743C86.0996 293.864 86.3909 294.745 86.9483 295.353C87.5183 295.948 88.3099 296.246 89.3233 296.246C89.9693 296.246 90.5393 296.189 91.0333 296.075C91.5399 295.948 92.0593 295.771 92.5913 295.543V297.006C92.0719 297.234 91.5589 297.398 91.0523 297.5C90.5456 297.614 89.9439 297.671 89.2473 297.671C88.2846 297.671 87.4296 297.474 86.6823 297.082C85.9476 296.689 85.3713 296.106 84.9533 295.334C84.5479 294.548 84.3453 293.592 84.3453 292.465C84.3453 291.35 84.5289 290.394 84.8963 289.596C85.2763 288.798 85.8019 288.183 86.4733 287.753C87.1573 287.322 87.9489 287.107 88.8483 287.107ZM88.8293 288.475C88.0313 288.475 87.3979 288.734 86.9293 289.254C86.4733 289.76 86.2009 290.47 86.1123 291.382H91.2993C91.2993 290.799 91.2106 290.292 91.0333 289.862C90.8559 289.431 90.5836 289.095 90.2163 288.855C89.8616 288.601 89.3993 288.475 88.8293 288.475ZM99.2499 297.671C97.9832 297.671 96.9699 297.234 96.2099 296.36C95.4499 295.473 95.0699 294.156 95.0699 292.408C95.0699 290.66 95.4499 289.342 96.2099 288.456C96.9825 287.556 98.0022 287.107 99.2689 287.107C99.8009 287.107 100.263 287.176 100.656 287.316C101.049 287.442 101.391 287.62 101.682 287.848C101.973 288.076 102.22 288.329 102.423 288.608H102.537C102.524 288.443 102.499 288.202 102.461 287.886C102.436 287.556 102.423 287.297 102.423 287.107V283.041H104.095V297.481H102.746L102.499 296.113H102.423C102.22 296.404 101.973 296.67 101.682 296.911C101.391 297.139 101.042 297.322 100.637 297.462C100.244 297.601 99.7819 297.671 99.2499 297.671ZM99.5159 296.284C100.593 296.284 101.346 295.992 101.777 295.41C102.22 294.814 102.442 293.921 102.442 292.731V292.427C102.442 291.16 102.233 290.191 101.815 289.52C101.397 288.836 100.624 288.494 99.4969 288.494C98.5975 288.494 97.9199 288.855 97.4639 289.577C97.0205 290.286 96.7989 291.242 96.7989 292.446C96.7989 293.662 97.0205 294.605 97.4639 295.277C97.9199 295.948 98.6039 296.284 99.5159 296.284ZM118.093 287.107C119.347 287.107 120.354 287.544 121.114 288.418C121.887 289.292 122.273 290.609 122.273 292.37C122.273 293.522 122.096 294.498 121.741 295.296C121.399 296.081 120.912 296.676 120.278 297.082C119.658 297.474 118.923 297.671 118.074 297.671C117.555 297.671 117.093 297.601 116.687 297.462C116.282 297.322 115.934 297.145 115.642 296.93C115.364 296.702 115.123 296.455 114.92 296.189H114.806C114.832 296.404 114.857 296.676 114.882 297.006C114.908 297.335 114.92 297.62 114.92 297.861V302.041H113.248V287.297H114.616L114.844 288.684H114.92C115.123 288.392 115.364 288.126 115.642 287.886C115.934 287.645 116.276 287.455 116.668 287.316C117.074 287.176 117.549 287.107 118.093 287.107ZM117.789 288.513C117.105 288.513 116.554 288.646 116.136 288.912C115.718 289.165 115.414 289.551 115.224 290.071C115.034 290.59 114.933 291.249 114.92 292.047V292.37C114.92 293.206 115.009 293.915 115.186 294.498C115.364 295.08 115.661 295.524 116.079 295.828C116.51 296.132 117.093 296.284 117.827 296.284C118.448 296.284 118.955 296.113 119.347 295.771C119.753 295.429 120.05 294.966 120.24 294.384C120.443 293.788 120.544 293.111 120.544 292.351C120.544 291.185 120.316 290.254 119.86 289.558C119.417 288.861 118.727 288.513 117.789 288.513ZM128.871 287.107C129.745 287.107 130.492 287.297 131.113 287.677C131.746 288.057 132.227 288.595 132.557 289.292C132.899 289.976 133.07 290.78 133.07 291.705V292.712H126.097C126.122 293.864 126.413 294.745 126.971 295.353C127.541 295.948 128.332 296.246 129.346 296.246C129.992 296.246 130.562 296.189 131.056 296.075C131.562 295.948 132.082 295.771 132.614 295.543V297.006C132.094 297.234 131.581 297.398 131.075 297.5C130.568 297.614 129.966 297.671 129.27 297.671C128.307 297.671 127.452 297.474 126.705 297.082C125.97 296.689 125.394 296.106 124.976 295.334C124.57 294.548 124.368 293.592 124.368 292.465C124.368 291.35 124.551 290.394 124.919 289.596C125.299 288.798 125.824 288.183 126.496 287.753C127.18 287.322 127.971 287.107 128.871 287.107ZM128.852 288.475C128.054 288.475 127.42 288.734 126.952 289.254C126.496 289.76 126.223 290.47 126.135 291.382H131.322C131.322 290.799 131.233 290.292 131.056 289.862C130.878 289.431 130.606 289.095 130.239 288.855C129.884 288.601 129.422 288.475 128.852 288.475ZM140.412 287.107C140.602 287.107 140.805 287.119 141.02 287.145C141.248 287.157 141.445 287.183 141.609 287.221L141.4 288.76C141.236 288.722 141.052 288.69 140.849 288.665C140.659 288.639 140.476 288.627 140.298 288.627C139.906 288.627 139.532 288.709 139.177 288.874C138.823 289.038 138.506 289.273 138.227 289.577C137.949 289.868 137.727 290.223 137.562 290.641C137.41 291.059 137.334 291.527 137.334 292.047V297.481H135.662V287.297H137.03L137.22 289.159H137.296C137.512 288.779 137.771 288.437 138.075 288.133C138.379 287.816 138.728 287.569 139.12 287.392C139.513 287.202 139.944 287.107 140.412 287.107ZM160.602 287.107C161.755 287.107 162.616 287.404 163.186 288C163.756 288.582 164.041 289.532 164.041 290.85V297.481H162.388V290.926C162.388 290.128 162.217 289.526 161.875 289.121C161.546 288.715 161.026 288.513 160.317 288.513C159.329 288.513 158.62 288.798 158.189 289.368C157.771 289.938 157.562 290.767 157.562 291.857V297.481H155.909V290.926C155.909 290.394 155.833 289.95 155.681 289.596C155.529 289.228 155.301 288.956 154.997 288.779C154.693 288.601 154.3 288.513 153.819 288.513C153.135 288.513 152.597 288.658 152.204 288.95C151.811 289.228 151.526 289.64 151.349 290.185C151.184 290.729 151.102 291.401 151.102 292.199V297.481H149.43V287.297H150.779L151.026 288.684H151.121C151.336 288.329 151.596 288.038 151.9 287.81C152.217 287.569 152.565 287.392 152.945 287.278C153.325 287.164 153.718 287.107 154.123 287.107C154.908 287.107 155.561 287.246 156.08 287.525C156.612 287.803 156.998 288.234 157.239 288.817H157.334C157.676 288.234 158.138 287.803 158.721 287.525C159.316 287.246 159.943 287.107 160.602 287.107ZM176.041 292.37C176.041 293.218 175.927 293.972 175.699 294.631C175.483 295.277 175.167 295.828 174.749 296.284C174.343 296.74 173.843 297.088 173.248 297.329C172.665 297.557 172.013 297.671 171.291 297.671C170.619 297.671 169.999 297.557 169.429 297.329C168.859 297.088 168.365 296.74 167.947 296.284C167.529 295.828 167.199 295.277 166.959 294.631C166.731 293.972 166.617 293.218 166.617 292.37C166.617 291.242 166.807 290.292 167.187 289.52C167.567 288.734 168.111 288.139 168.821 287.734C169.53 287.316 170.372 287.107 171.348 287.107C172.272 287.107 173.083 287.316 173.78 287.734C174.489 288.139 175.04 288.734 175.433 289.52C175.838 290.292 176.041 291.242 176.041 292.37ZM168.346 292.37C168.346 293.168 168.447 293.864 168.65 294.46C168.865 295.042 169.194 295.492 169.638 295.809C170.081 296.125 170.645 296.284 171.329 296.284C172.013 296.284 172.576 296.125 173.02 295.809C173.463 295.492 173.786 295.042 173.989 294.46C174.204 293.864 174.312 293.168 174.312 292.37C174.312 291.559 174.204 290.869 173.989 290.299C173.773 289.729 173.444 289.292 173.001 288.988C172.57 288.671 172.006 288.513 171.31 288.513C170.271 288.513 169.517 288.855 169.049 289.539C168.58 290.223 168.346 291.166 168.346 292.37ZM183.593 287.107C184.809 287.107 185.727 287.404 186.348 288C186.968 288.582 187.279 289.532 187.279 290.85V297.481H185.626V290.964C185.626 290.14 185.442 289.526 185.075 289.121C184.707 288.715 184.131 288.513 183.346 288.513C182.218 288.513 181.439 288.829 181.009 289.463C180.578 290.096 180.363 291.008 180.363 292.199V297.481H178.691V287.297H180.04L180.287 288.684H180.382C180.61 288.329 180.888 288.038 181.218 287.81C181.56 287.569 181.933 287.392 182.339 287.278C182.744 287.164 183.162 287.107 183.593 287.107ZM193.837 296.303C194.09 296.303 194.35 296.284 194.616 296.246C194.882 296.195 195.097 296.144 195.262 296.094V297.367C195.084 297.455 194.831 297.525 194.502 297.576C194.172 297.639 193.856 297.671 193.552 297.671C193.02 297.671 192.526 297.582 192.07 297.405C191.626 297.215 191.265 296.892 190.987 296.436C190.708 295.98 190.569 295.34 190.569 294.517V288.589H189.125V287.791L190.588 287.126L191.253 284.96H192.241V287.297H195.186V288.589H192.241V294.479C192.241 295.099 192.386 295.562 192.678 295.866C192.982 296.157 193.368 296.303 193.837 296.303ZM198.973 287.278C198.973 287.518 198.96 287.765 198.935 288.019C198.922 288.272 198.903 288.5 198.878 288.703H198.992C199.207 288.348 199.48 288.057 199.809 287.829C200.138 287.601 200.506 287.43 200.911 287.316C201.316 287.189 201.734 287.126 202.165 287.126C202.988 287.126 203.672 287.259 204.217 287.525C204.774 287.778 205.192 288.177 205.471 288.722C205.75 289.266 205.889 289.976 205.889 290.85V297.481H204.236V290.964C204.236 290.14 204.052 289.526 203.685 289.121C203.318 288.715 202.741 288.513 201.956 288.513C201.196 288.513 200.601 288.658 200.17 288.95C199.739 289.228 199.429 289.646 199.239 290.204C199.062 290.748 198.973 291.42 198.973 292.218V297.481H197.301V283.041H198.973V287.278Z" fill="#F0F0F0"/>
<path d="M207.071 81.3867C207.03 78.2613 205.368 75.3817 202.681 73.7838L127.249 28.9158C124.455 27.254 120.981 27.2314 118.166 28.8567L44.2237 71.5472C41.4086 73.1726 39.6913 76.1922 39.7335 79.4426L40.874 167.203C40.9146 170.329 42.5771 173.208 45.2635 174.806L120.696 219.674C123.49 221.336 126.964 221.359 129.779 219.733L203.721 177.043C206.536 175.418 208.254 172.398 208.211 169.148L207.071 81.3867Z" fill="url(#paint0_linear_287_50)" stroke="url(#paint1_linear_287_50)" stroke-width="2.34313"/>
<path d="M87.5723 155.88H74.6134V120.436C74.6134 119.463 74.6134 118.262 74.6134 116.831C74.6706 115.401 74.7278 113.913 74.7851 112.369C74.8423 110.824 74.8995 109.451 74.9567 108.249C74.6706 108.592 74.0413 109.222 73.0687 110.137C72.1532 110.995 71.295 111.768 70.494 112.454L63.4568 118.119L57.1919 110.309L76.9306 94.6037H87.5723V155.88ZM145.781 155.88H102.957V146.868L118.319 131.335C121.408 128.131 123.897 125.47 125.785 123.354C127.673 121.179 129.046 119.234 129.905 117.518C130.763 115.744 131.192 113.856 131.192 111.854C131.192 109.393 130.505 107.563 129.132 106.361C127.816 105.16 126.014 104.559 123.726 104.559C121.38 104.559 119.091 105.102 116.86 106.189C114.629 107.277 112.283 108.821 109.823 110.824L102.785 102.499C104.559 100.954 106.418 99.5241 108.364 98.2082C110.366 96.8923 112.655 95.8338 115.229 95.0328C117.861 94.1746 121.008 93.7455 124.67 93.7455C128.674 93.7455 132.107 94.4893 134.968 95.9768C137.886 97.4072 140.117 99.3811 141.662 101.898C143.264 104.359 144.065 107.162 144.065 110.309C144.065 112.883 143.664 115.258 142.863 117.432C142.12 119.606 141.004 121.723 139.516 123.783C138.086 125.785 136.313 127.873 134.196 130.048C132.079 132.164 129.676 134.482 126.987 136.999L119.091 144.38V144.98H145.781V155.88ZM192.834 125.242C192.834 130.162 192.433 134.567 191.632 138.458C190.889 142.348 189.658 145.667 187.942 148.413C186.283 151.102 184.08 153.162 181.334 154.592C178.645 156.023 175.326 156.738 171.379 156.738C166.458 156.738 162.425 155.479 159.278 152.962C156.131 150.444 153.785 146.84 152.241 142.148C150.753 137.457 150.009 131.821 150.009 125.242C150.009 118.605 150.696 112.941 152.069 108.249C153.442 103.558 155.702 99.9532 158.849 97.4358C161.996 94.9184 166.172 93.6597 171.379 93.6597C176.299 93.6597 180.333 94.9184 183.479 97.4358C186.626 99.896 188.972 103.5 190.517 108.249C192.061 112.941 192.834 118.605 192.834 125.242ZM162.882 125.242C162.882 129.876 163.14 133.766 163.655 136.913C164.17 140.003 165.028 142.348 166.229 143.95C167.488 145.495 169.205 146.268 171.379 146.268C173.553 146.268 175.241 145.495 176.442 143.95C177.701 142.406 178.588 140.089 179.103 136.999C179.675 133.852 179.961 129.933 179.961 125.242C179.961 120.55 179.675 116.66 179.103 113.57C178.588 110.423 177.701 108.078 176.442 106.533C175.241 104.931 173.553 104.13 171.379 104.13C169.205 104.13 167.488 104.931 166.229 106.533C165.028 108.078 164.17 110.423 163.655 113.57C163.14 116.66 162.882 120.55 162.882 125.242Z" fill="url(#paint2_linear_287_50)"/>
<defs>
<linearGradient id="paint0_linear_287_50" x1="312.629" y1="280.61" x2="179.018" y2="1.12171" gradientUnits="userSpaceOnUse">
<stop offset="0.379733" stop-color="#FFDE28" stop-opacity="0.7"/>
<stop offset="0.988905" stop-color="#FFDE28" stop-opacity="0.1"/>
</linearGradient>
<linearGradient id="paint1_linear_287_50" x1="29.346" y1="58.1917" x2="320.424" y2="252.524" gradientUnits="userSpaceOnUse">
<stop offset="0.129324" stop-color="#5D4E00"/>
<stop offset="0.247324" stop-color="#FFDE28"/>
<stop offset="0.401695" stop-color="#FFFD8F"/>
<stop offset="0.520532" stop-color="#DAC139"/>
<stop offset="0.659271" stop-color="#978000"/>
</linearGradient>
<linearGradient id="paint2_linear_287_50" x1="89.013" y1="98.8795" x2="163.135" y2="192.387" gradientUnits="userSpaceOnUse">
<stop/>
<stop offset="1" stop-color="#454000"/>
</linearGradient>
</defs>
</svg>
