<svg width="237" height="284" viewBox="0 0 237 284" fill="none" xmlns="http://www.w3.org/2000/svg">
<path d="M66.4739 251.836C66.4739 252.538 66.3039 253.136 65.9638 253.63C65.6237 254.113 65.1355 254.486 64.4992 254.749C63.8739 255.012 63.1334 255.144 62.2777 255.144C61.8388 255.144 61.4165 255.122 61.0106 255.078C60.6156 255.034 60.2536 254.974 59.9245 254.897C59.5954 254.809 59.3046 254.705 59.0523 254.584V253.169C59.4473 253.345 59.9354 253.504 60.5169 253.646C61.1093 253.789 61.7182 253.86 62.3435 253.86C62.9249 253.86 63.4131 253.783 63.8081 253.63C64.203 253.476 64.4992 253.257 64.6967 252.972C64.8941 252.686 64.9929 252.352 64.9929 251.968C64.9929 251.584 64.9106 251.26 64.746 250.997C64.5815 250.734 64.2962 250.492 63.8903 250.273C63.4954 250.042 62.9414 249.801 62.2283 249.549C61.7236 249.362 61.2793 249.165 60.8954 248.956C60.5224 248.737 60.2097 248.49 59.9574 248.216C59.7051 247.942 59.5131 247.629 59.3814 247.278C59.2608 246.927 59.2004 246.521 59.2004 246.06C59.2004 245.435 59.3595 244.903 59.6776 244.464C59.9958 244.014 60.4346 243.669 60.9941 243.427C61.5646 243.186 62.2173 243.065 62.9524 243.065C63.5996 243.065 64.192 243.126 64.7296 243.246C65.2671 243.367 65.7553 243.526 66.1942 243.723L65.7334 244.991C65.3275 244.815 64.8832 244.667 64.4005 244.546C63.9287 244.426 63.4351 244.365 62.9194 244.365C62.4258 244.365 62.0144 244.437 61.6853 244.579C61.3561 244.722 61.1093 244.925 60.9447 245.188C60.7802 245.44 60.6979 245.737 60.6979 246.077C60.6979 246.472 60.7802 246.801 60.9447 247.064C61.1093 247.327 61.3781 247.563 61.7511 247.772C62.1241 247.98 62.6287 248.205 63.265 248.446C63.9562 248.699 64.5376 248.973 65.0093 249.269C65.492 249.554 65.8541 249.9 66.0954 250.306C66.3477 250.712 66.4739 251.222 66.4739 251.836ZM71.5889 253.959C71.8083 253.959 72.0332 253.943 72.2635 253.91C72.4939 253.866 72.6804 253.822 72.823 253.778V254.881C72.6695 254.957 72.45 255.018 72.1648 255.062C71.8796 255.116 71.6053 255.144 71.342 255.144C70.8813 255.144 70.4534 255.067 70.0585 254.913C69.6745 254.749 69.3618 254.469 69.1205 254.074C68.8791 253.679 68.7584 253.125 68.7584 252.412V247.278H67.5078V246.587L68.7749 246.011L69.3509 244.135H70.2066V246.159H72.7572V247.278H70.2066V252.379C70.2066 252.917 70.3327 253.317 70.585 253.58C70.8483 253.833 71.1829 253.959 71.5889 253.959ZM81.9615 246.159V254.979H80.7766L80.5627 253.811H80.4969C80.3104 254.118 80.069 254.37 79.7728 254.568C79.4766 254.765 79.153 254.908 78.8019 254.996C78.4509 255.094 78.0833 255.144 77.6994 255.144C76.9973 255.144 76.4049 255.034 75.9221 254.815C75.4504 254.584 75.0939 254.233 74.8525 253.762C74.6112 253.29 74.4905 252.681 74.4905 251.935V246.159H75.9551V251.836C75.9551 252.538 76.1141 253.065 76.4323 253.416C76.7504 253.767 77.2441 253.943 77.9133 253.943C78.5715 253.943 79.0872 253.822 79.4602 253.58C79.8441 253.328 80.1129 252.966 80.2665 252.494C80.4311 252.012 80.5133 251.43 80.5133 250.75V246.159H81.9615ZM87.8883 255.144C86.7912 255.144 85.9136 254.765 85.2553 254.008C84.5971 253.24 84.268 252.099 84.268 250.586C84.268 249.072 84.5971 247.931 85.2553 247.163C85.9245 246.384 86.8077 245.994 87.9047 245.994C88.3655 245.994 88.7659 246.055 89.106 246.175C89.4461 246.285 89.7423 246.439 89.9946 246.636C90.2469 246.834 90.4609 247.053 90.6364 247.294H90.7351C90.7242 247.152 90.7022 246.943 90.6693 246.669C90.6474 246.384 90.6364 246.159 90.6364 245.994V242.473H92.0845V254.979H90.9161L90.7022 253.794H90.6364C90.4609 254.047 90.2469 254.277 89.9946 254.486C89.7423 254.683 89.4406 254.842 89.0895 254.963C88.7495 255.083 88.349 255.144 87.8883 255.144ZM88.1186 253.943C89.0511 253.943 89.7039 253.69 90.0769 253.186C90.4609 252.67 90.6528 251.897 90.6528 250.865V250.602C90.6528 249.505 90.4718 248.666 90.1098 248.084C89.7478 247.492 89.0786 247.196 88.1022 247.196C87.3233 247.196 86.7364 247.508 86.3414 248.134C85.9574 248.748 85.7655 249.576 85.7655 250.618C85.7655 251.672 85.9574 252.489 86.3414 253.07C86.7364 253.652 87.3288 253.943 88.1186 253.943ZM98.2922 245.994C99.0492 245.994 99.6965 246.159 100.234 246.488C100.783 246.817 101.199 247.283 101.485 247.887C101.781 248.479 101.929 249.176 101.929 249.977V250.849H95.8897C95.9116 251.847 96.1639 252.61 96.6466 253.136C97.1403 253.652 97.826 253.91 98.7036 253.91C99.2631 253.91 99.7568 253.86 100.185 253.762C100.623 253.652 101.073 253.498 101.534 253.301V254.568C101.084 254.765 100.64 254.908 100.201 254.996C99.7623 255.094 99.2412 255.144 98.6378 255.144C97.804 255.144 97.0635 254.974 96.4163 254.634C95.78 254.294 95.2808 253.789 94.9188 253.12C94.5677 252.44 94.3922 251.611 94.3922 250.635C94.3922 249.669 94.5513 248.841 94.8694 248.15C95.1985 247.459 95.6538 246.927 96.2352 246.554C96.8277 246.181 97.5133 245.994 98.2922 245.994ZM98.2758 247.179C97.5846 247.179 97.0361 247.404 96.6302 247.854C96.2352 248.293 95.9994 248.907 95.9226 249.697H100.415C100.415 249.192 100.338 248.753 100.185 248.38C100.031 248.007 99.7952 247.717 99.4771 247.508C99.1699 247.289 98.7694 247.179 98.2758 247.179ZM108.42 245.994C109.473 245.994 110.269 246.252 110.806 246.768C111.344 247.272 111.612 248.095 111.612 249.236V254.979H110.181V249.335C110.181 248.622 110.022 248.09 109.704 247.739C109.385 247.388 108.886 247.212 108.206 247.212C107.23 247.212 106.555 247.486 106.182 248.035C105.809 248.583 105.623 249.373 105.623 250.405V254.979H104.174V246.159H105.343L105.557 247.36H105.639C105.836 247.053 106.078 246.801 106.363 246.603C106.659 246.395 106.983 246.241 107.334 246.142C107.685 246.044 108.047 245.994 108.42 245.994ZM117.292 253.959C117.512 253.959 117.737 253.943 117.967 253.91C118.198 253.866 118.384 253.822 118.527 253.778V254.881C118.373 254.957 118.154 255.018 117.868 255.062C117.583 255.116 117.309 255.144 117.046 255.144C116.585 255.144 116.157 255.067 115.762 254.913C115.378 254.749 115.065 254.469 114.824 254.074C114.583 253.679 114.462 253.125 114.462 252.412V247.278H113.211V246.587L114.479 246.011L115.054 244.135H115.91V246.159H118.461V247.278H115.91V252.379C115.91 252.917 116.036 253.317 116.289 253.58C116.552 253.833 116.887 253.959 117.292 253.959ZM126.036 252.544C126.036 253.114 125.893 253.591 125.608 253.975C125.323 254.359 124.917 254.65 124.39 254.848C123.864 255.045 123.238 255.144 122.514 255.144C121.9 255.144 121.368 255.094 120.918 254.996C120.479 254.897 120.09 254.76 119.75 254.584V253.268C120.101 253.443 120.523 253.608 121.017 253.762C121.522 253.904 122.032 253.975 122.547 253.975C123.282 253.975 123.814 253.86 124.143 253.63C124.473 253.389 124.637 253.07 124.637 252.675C124.637 252.456 124.577 252.259 124.456 252.083C124.335 251.907 124.116 251.732 123.798 251.556C123.491 251.381 123.046 251.183 122.465 250.964C121.895 250.745 121.406 250.525 121 250.306C120.595 250.086 120.282 249.823 120.062 249.516C119.843 249.209 119.733 248.814 119.733 248.331C119.733 247.585 120.035 247.009 120.638 246.603C121.253 246.197 122.054 245.994 123.041 245.994C123.579 245.994 124.078 246.049 124.538 246.159C125.01 246.258 125.449 246.4 125.855 246.587L125.361 247.739C125.12 247.629 124.862 247.536 124.588 247.459C124.325 247.371 124.056 247.305 123.781 247.261C123.507 247.207 123.227 247.179 122.942 247.179C122.35 247.179 121.895 247.278 121.576 247.475C121.269 247.662 121.116 247.92 121.116 248.249C121.116 248.49 121.187 248.699 121.33 248.874C121.472 249.039 121.708 249.203 122.037 249.368C122.377 249.521 122.827 249.708 123.387 249.927C123.946 250.136 124.423 250.35 124.818 250.569C125.213 250.788 125.515 251.057 125.723 251.375C125.932 251.683 126.036 252.072 126.036 252.544ZM134.742 246.159V254.979H133.294V246.159H134.742ZM134.034 242.851C134.254 242.851 134.446 242.928 134.61 243.082C134.786 243.224 134.873 243.455 134.873 243.773C134.873 244.08 134.786 244.31 134.61 244.464C134.446 244.618 134.254 244.694 134.034 244.694C133.793 244.694 133.59 244.618 133.425 244.464C133.261 244.31 133.178 244.08 133.178 243.773C133.178 243.455 133.261 243.224 133.425 243.082C133.59 242.928 133.793 242.851 134.034 242.851ZM141.782 245.994C142.835 245.994 143.63 246.252 144.168 246.768C144.705 247.272 144.974 248.095 144.974 249.236V254.979H143.543V249.335C143.543 248.622 143.383 248.09 143.065 247.739C142.747 247.388 142.248 247.212 141.568 247.212C140.591 247.212 139.917 247.486 139.544 248.035C139.171 248.583 138.984 249.373 138.984 250.405V254.979H137.536V246.159H138.704L138.918 247.36H139.001C139.198 247.053 139.44 246.801 139.725 246.603C140.021 246.395 140.345 246.241 140.696 246.142C141.047 246.044 141.409 245.994 141.782 245.994ZM160.503 250.553C160.503 251.288 160.405 251.94 160.207 252.511C160.021 253.07 159.746 253.548 159.384 253.943C159.033 254.337 158.6 254.639 158.084 254.848C157.58 255.045 157.015 255.144 156.389 255.144C155.808 255.144 155.27 255.045 154.777 254.848C154.283 254.639 153.855 254.337 153.493 253.943C153.131 253.548 152.846 253.07 152.637 252.511C152.44 251.94 152.341 251.288 152.341 250.553C152.341 249.576 152.506 248.753 152.835 248.084C153.164 247.404 153.636 246.888 154.25 246.537C154.864 246.175 155.594 245.994 156.439 245.994C157.24 245.994 157.942 246.175 158.545 246.537C159.159 246.888 159.637 247.404 159.977 248.084C160.328 248.753 160.503 249.576 160.503 250.553ZM153.839 250.553C153.839 251.244 153.927 251.847 154.102 252.363C154.289 252.867 154.574 253.257 154.958 253.531C155.342 253.805 155.83 253.943 156.422 253.943C157.015 253.943 157.503 253.805 157.887 253.531C158.271 253.257 158.551 252.867 158.726 252.363C158.913 251.847 159.006 251.244 159.006 250.553C159.006 249.851 158.913 249.253 158.726 248.759C158.54 248.265 158.254 247.887 157.87 247.623C157.497 247.349 157.009 247.212 156.406 247.212C155.506 247.212 154.854 247.508 154.448 248.101C154.042 248.693 153.839 249.51 153.839 250.553ZM170.171 246.159V254.979H168.986L168.772 253.811H168.706C168.52 254.118 168.278 254.37 167.982 254.568C167.686 254.765 167.362 254.908 167.011 254.996C166.66 255.094 166.293 255.144 165.909 255.144C165.206 255.144 164.614 255.034 164.131 254.815C163.66 254.584 163.303 254.233 163.062 253.762C162.82 253.29 162.7 252.681 162.7 251.935V246.159H164.164V251.836C164.164 252.538 164.323 253.065 164.642 253.416C164.96 253.767 165.453 253.943 166.123 253.943C166.781 253.943 167.296 253.822 167.669 253.58C168.053 253.328 168.322 252.966 168.476 252.494C168.64 252.012 168.723 251.43 168.723 250.75V246.159H170.171ZM177.085 245.994C177.249 245.994 177.425 246.005 177.611 246.027C177.809 246.038 177.979 246.06 178.122 246.093L177.941 247.426C177.798 247.393 177.639 247.366 177.463 247.344C177.299 247.322 177.14 247.311 176.986 247.311C176.646 247.311 176.322 247.382 176.015 247.525C175.708 247.667 175.434 247.87 175.192 248.134C174.951 248.386 174.759 248.693 174.616 249.055C174.485 249.417 174.419 249.823 174.419 250.273V254.979H172.971V246.159H174.156L174.32 247.772H174.386C174.573 247.442 174.797 247.146 175.061 246.883C175.324 246.609 175.626 246.395 175.966 246.241C176.306 246.077 176.679 245.994 177.085 245.994ZM79.453 280.144C78.6741 280.144 77.9775 279.985 77.3631 279.667C76.7597 279.348 76.2825 278.855 75.9315 278.186C75.5914 277.516 75.4213 276.661 75.4213 275.618C75.4213 274.532 75.6023 273.649 75.9644 272.969C76.3264 272.289 76.8146 271.79 77.429 271.472C78.0543 271.153 78.7619 270.994 79.5518 270.994C80.0016 270.994 80.4349 271.044 80.8518 271.142C81.2687 271.23 81.6087 271.34 81.872 271.472L81.4277 272.673C81.1644 272.574 80.8573 272.481 80.5062 272.393C80.1551 272.305 79.826 272.261 79.5188 272.261C78.9264 272.261 78.4382 272.388 78.0543 272.64C77.6703 272.892 77.3851 273.265 77.1986 273.759C77.0121 274.253 76.9188 274.867 76.9188 275.602C76.9188 276.304 77.0121 276.902 77.1986 277.396C77.3851 277.889 77.6648 278.262 78.0378 278.515C78.4108 278.767 78.8771 278.893 79.4366 278.893C79.9193 278.893 80.3416 278.844 80.7037 278.745C81.0767 278.646 81.4168 278.526 81.7239 278.383V279.667C81.4277 279.82 81.0986 279.935 80.7366 280.012C80.3855 280.1 79.9577 280.144 79.453 280.144ZM91.49 275.553C91.49 276.288 91.3912 276.94 91.1938 277.511C91.0073 278.07 90.733 278.548 90.371 278.943C90.0199 279.337 89.5866 279.639 89.071 279.848C88.5663 280.045 88.0013 280.144 87.376 280.144C86.7946 280.144 86.257 280.045 85.7633 279.848C85.2697 279.639 84.8418 279.337 84.4798 278.943C84.1177 278.548 83.8325 278.07 83.6241 277.511C83.4266 276.94 83.3279 276.288 83.3279 275.553C83.3279 274.576 83.4924 273.753 83.8215 273.084C84.1507 272.404 84.6224 271.888 85.2367 271.537C85.8511 271.175 86.5806 270.994 87.4254 270.994C88.2262 270.994 88.9283 271.175 89.5317 271.537C90.1461 271.888 90.6233 272.404 90.9634 273.084C91.3144 273.753 91.49 274.576 91.49 275.553ZM84.8253 275.553C84.8253 276.244 84.9131 276.847 85.0886 277.363C85.2751 277.867 85.5604 278.257 85.9443 278.531C86.3283 278.805 86.8165 278.943 87.4089 278.943C88.0013 278.943 88.4895 278.805 88.8735 278.531C89.2575 278.257 89.5372 277.867 89.7127 277.363C89.8992 276.847 89.9925 276.244 89.9925 275.553C89.9925 274.851 89.8992 274.253 89.7127 273.759C89.5262 273.265 89.241 272.887 88.857 272.623C88.484 272.349 87.9958 272.212 87.3925 272.212C86.4929 272.212 85.8401 272.508 85.4342 273.101C85.0283 273.693 84.8253 274.51 84.8253 275.553ZM103.461 270.994C104.459 270.994 105.205 271.252 105.699 271.768C106.193 272.272 106.44 273.095 106.44 274.236V279.979H105.008V274.302C105.008 273.611 104.86 273.09 104.564 272.739C104.278 272.388 103.829 272.212 103.214 272.212C102.359 272.212 101.744 272.459 101.371 272.953C101.009 273.446 100.828 274.165 100.828 275.108V279.979H99.3965V274.302C99.3965 273.841 99.3307 273.457 99.199 273.15C99.0674 272.832 98.8699 272.596 98.6066 272.442C98.3433 272.289 98.0032 272.212 97.5864 272.212C96.994 272.212 96.5277 272.338 96.1876 272.591C95.8475 272.832 95.6007 273.188 95.4471 273.66C95.3045 274.132 95.2332 274.713 95.2332 275.405V279.979H93.7851V271.159H94.9534L95.1673 272.36H95.2496C95.4361 272.053 95.661 271.801 95.9243 271.603C96.1986 271.395 96.5003 271.241 96.8294 271.142C97.1585 271.044 97.4986 270.994 97.8497 270.994C98.5298 270.994 99.0948 271.115 99.5446 271.356C100.005 271.598 100.34 271.971 100.548 272.475H100.631C100.927 271.971 101.327 271.598 101.832 271.356C102.348 271.115 102.891 270.994 103.461 270.994ZM118.84 270.994C119.839 270.994 120.585 271.252 121.078 271.768C121.572 272.272 121.819 273.095 121.819 274.236V279.979H120.387V274.302C120.387 273.611 120.239 273.09 119.943 272.739C119.658 272.388 119.208 272.212 118.593 272.212C117.738 272.212 117.123 272.459 116.75 272.953C116.388 273.446 116.207 274.165 116.207 275.108V279.979H114.776V274.302C114.776 273.841 114.71 273.457 114.578 273.15C114.447 272.832 114.249 272.596 113.986 272.442C113.722 272.289 113.382 272.212 112.966 272.212C112.373 272.212 111.907 272.338 111.567 272.591C111.227 272.832 110.98 273.188 110.826 273.66C110.684 274.132 110.612 274.713 110.612 275.405V279.979H109.164V271.159H110.333L110.547 272.36H110.629C110.815 272.053 111.04 271.801 111.303 271.603C111.578 271.395 111.879 271.241 112.209 271.142C112.538 271.044 112.878 270.994 113.229 270.994C113.909 270.994 114.474 271.115 114.924 271.356C115.385 271.598 115.719 271.971 115.928 272.475H116.01C116.306 271.971 116.706 271.598 117.211 271.356C117.727 271.115 118.27 270.994 118.84 270.994ZM131.916 271.159V279.979H130.731L130.517 278.811H130.451C130.265 279.118 130.023 279.37 129.727 279.568C129.431 279.765 129.107 279.908 128.756 279.996C128.405 280.094 128.038 280.144 127.654 280.144C126.951 280.144 126.359 280.034 125.876 279.815C125.405 279.584 125.048 279.233 124.807 278.762C124.565 278.29 124.445 277.681 124.445 276.935V271.159H125.909V276.836C125.909 277.538 126.068 278.065 126.386 278.416C126.705 278.767 127.198 278.943 127.867 278.943C128.526 278.943 129.041 278.822 129.414 278.58C129.798 278.328 130.067 277.966 130.221 277.494C130.385 277.012 130.467 276.43 130.467 275.75V271.159H131.916ZM138.961 270.994C140.015 270.994 140.81 271.252 141.348 271.768C141.885 272.272 142.154 273.095 142.154 274.236V279.979H140.722V274.335C140.722 273.622 140.563 273.09 140.245 272.739C139.927 272.388 139.428 272.212 138.747 272.212C137.771 272.212 137.096 272.486 136.723 273.035C136.35 273.583 136.164 274.373 136.164 275.405V279.979H134.716V271.159H135.884L136.098 272.36H136.18C136.378 272.053 136.619 271.801 136.904 271.603C137.201 271.395 137.524 271.241 137.875 271.142C138.226 271.044 138.588 270.994 138.961 270.994ZM146.336 271.159V279.979H144.888V271.159H146.336ZM145.629 267.851C145.848 267.851 146.04 267.928 146.205 268.082C146.38 268.224 146.468 268.455 146.468 268.773C146.468 269.08 146.38 269.31 146.205 269.464C146.04 269.618 145.848 269.694 145.629 269.694C145.387 269.694 145.184 269.618 145.02 269.464C144.855 269.31 144.773 269.08 144.773 268.773C144.773 268.455 144.855 268.224 145.02 268.082C145.184 267.928 145.387 267.851 145.629 267.851ZM152.076 278.959C152.296 278.959 152.521 278.943 152.751 278.91C152.981 278.866 153.168 278.822 153.311 278.778V279.881C153.157 279.957 152.938 280.018 152.652 280.062C152.367 280.116 152.093 280.144 151.83 280.144C151.369 280.144 150.941 280.067 150.546 279.913C150.162 279.749 149.849 279.469 149.608 279.074C149.367 278.679 149.246 278.125 149.246 277.412V272.278H147.995V271.587L149.262 271.011L149.838 269.135H150.694V271.159H153.245V272.278H150.694V277.379C150.694 277.917 150.82 278.317 151.073 278.58C151.336 278.833 151.67 278.959 152.076 278.959ZM153.694 271.159H155.241L157.15 276.178C157.26 276.474 157.359 276.759 157.446 277.034C157.545 277.308 157.633 277.577 157.71 277.84C157.786 278.092 157.847 278.339 157.891 278.58H157.957C158.022 278.306 158.127 277.95 158.269 277.511C158.412 277.061 158.56 276.611 158.713 276.161L160.507 271.159H162.07L158.269 281.197C158.061 281.746 157.814 282.223 157.529 282.629C157.254 283.046 156.914 283.364 156.508 283.583C156.113 283.813 155.631 283.929 155.06 283.929C154.797 283.929 154.567 283.912 154.369 283.879C154.172 283.857 154.002 283.83 153.859 283.797V282.645C153.98 282.667 154.122 282.689 154.287 282.711C154.462 282.733 154.643 282.744 154.83 282.744C155.17 282.744 155.461 282.678 155.702 282.546C155.954 282.426 156.168 282.245 156.344 282.003C156.519 281.773 156.667 281.499 156.788 281.181L157.249 280.012L153.694 271.159Z" fill="#F0F0F0"/>
<path d="M193.315 80.5877C193.276 77.5945 191.684 74.8368 189.111 73.3065L121.499 33.0902C118.824 31.4987 115.497 31.4771 112.801 33.0337L46.5463 71.2857C43.8502 72.8423 42.2056 75.7341 42.246 78.847L43.2682 157.509C43.3071 160.502 44.8993 163.26 47.4721 164.79L115.084 205.007C117.76 206.598 121.087 206.62 123.783 205.063L190.037 166.811C192.733 165.254 194.378 162.363 194.337 159.25L193.315 80.5877Z" fill="url(#paint0_linear_296_525)" stroke="url(#paint1_linear_296_525)" stroke-width="2.24398"/>
<path d="M86.6885 150.02H75.468V119.331C75.468 118.489 75.468 117.448 75.468 116.21C75.5176 114.971 75.5671 113.683 75.6166 112.346C75.6662 111.008 75.7157 109.819 75.7653 108.779C75.5176 109.076 74.9726 109.621 74.1305 110.414C73.3379 111.157 72.5948 111.826 71.9012 112.42L65.808 117.325L60.3835 110.562L77.4743 96.9641H86.6885V150.02ZM108.044 142.26C108.044 145.306 106.532 146.829 103.508 146.829C102.165 146.829 101.067 146.426 100.216 145.619C99.3877 144.791 98.9734 143.705 98.9734 142.361C98.9734 139.293 100.552 137.759 103.71 137.759C104.987 137.759 106.028 138.195 106.834 139.069C107.64 139.92 108.044 140.983 108.044 142.26ZM121.111 150.02L141.025 106.401H114.869V96.9641H152.914V104.023L132.851 150.02H121.111ZM179.383 150.02H172.205L164.4 137.458L161.729 139.378V150.02H155.427V120.221H161.729V133.868C162.146 133.284 162.564 132.7 162.981 132.116C163.398 131.531 163.816 130.947 164.233 130.363L172.288 120.221H179.3L168.908 133.409L179.383 150.02Z" fill="url(#paint2_linear_296_525)"/>
<defs>
<linearGradient id="paint0_linear_296_525" x1="288.46" y1="260.045" x2="167.943" y2="7.94566" gradientUnits="userSpaceOnUse">
<stop offset="0.379733" stop-color="#FFDE28" stop-opacity="0.7"/>
<stop offset="0.988905" stop-color="#FFDE28" stop-opacity="0.1"/>
</linearGradient>
<linearGradient id="paint1_linear_296_525" x1="32.9384" y1="59.4229" x2="295.491" y2="234.711" gradientUnits="userSpaceOnUse">
<stop offset="0.129324" stop-color="#5D4E00"/>
<stop offset="0.247324" stop-color="#FFDE28"/>
<stop offset="0.401695" stop-color="#FFFD8F"/>
<stop offset="0.520532" stop-color="#DAC139"/>
<stop offset="0.659271" stop-color="#978000"/>
</linearGradient>
<linearGradient id="paint2_linear_296_525" x1="87.4957" y1="100.02" x2="145.349" y2="173.137" gradientUnits="userSpaceOnUse">
<stop/>
<stop offset="1" stop-color="#454000"/>
</linearGradient>
</defs>
</svg>
