<svg width="236" height="284" viewBox="0 0 236 284" fill="none" xmlns="http://www.w3.org/2000/svg">
<path d="M57.7899 254.979L56.3747 251.343H51.7177L50.3189 254.979H48.8214L53.4126 243.18H54.7455L59.3203 254.979H57.7899ZM54.6139 246.472C54.581 246.384 54.5261 246.225 54.4493 245.994C54.3725 245.764 54.2957 245.528 54.2189 245.287C54.1531 245.034 54.0983 244.842 54.0544 244.711C53.9995 244.93 53.9392 245.155 53.8734 245.385C53.8185 245.605 53.7582 245.808 53.6924 245.994C53.6375 246.181 53.5881 246.34 53.5443 246.472L52.2113 250.026H55.9304L54.6139 246.472ZM64.7947 247.278H62.5731V254.979H61.125V247.278H59.5782V246.603L61.125 246.11V245.599C61.125 244.842 61.2347 244.228 61.4541 243.756C61.6845 243.285 62.0136 242.939 62.4415 242.72C62.8693 242.5 63.3849 242.391 63.9883 242.391C64.3394 242.391 64.6575 242.423 64.9428 242.489C65.239 242.544 65.4913 242.61 65.6997 242.687L65.3213 243.822C65.1457 243.767 64.9428 243.712 64.7124 243.658C64.482 243.603 64.2461 243.575 64.0048 243.575C63.5221 243.575 63.16 243.74 62.9187 244.069C62.6883 244.387 62.5731 244.892 62.5731 245.583V246.159H64.7947V247.278ZM70.4555 247.278H68.2339V254.979H66.7858V247.278H65.239V246.603L66.7858 246.11V245.599C66.7858 244.842 66.8955 244.228 67.1149 243.756C67.3453 243.285 67.6744 242.939 68.1023 242.72C68.5301 242.5 69.0458 242.391 69.6491 242.391C70.0002 242.391 70.3184 242.423 70.6036 242.489C70.8998 242.544 71.1521 242.61 71.3606 242.687L70.9821 243.822C70.8065 243.767 70.6036 243.712 70.3732 243.658C70.1428 243.603 69.907 243.575 69.6656 243.575C69.1829 243.575 68.8209 243.74 68.5795 244.069C68.3491 244.387 68.2339 244.892 68.2339 245.583V246.159H70.4555V247.278ZM73.4998 246.159V254.979H72.0517V246.159H73.4998ZM72.7922 242.851C73.0116 242.851 73.2036 242.928 73.3682 243.082C73.5437 243.224 73.6315 243.455 73.6315 243.773C73.6315 244.08 73.5437 244.31 73.3682 244.464C73.2036 244.618 73.0116 244.694 72.7922 244.694C72.5509 244.694 72.3479 244.618 72.1834 244.464C72.0188 244.31 71.9365 244.08 71.9365 243.773C71.9365 243.455 72.0188 243.224 72.1834 243.082C72.3479 242.928 72.5509 242.851 72.7922 242.851ZM77.7502 254.979H76.3021V242.473H77.7502V254.979ZM81.9927 246.159V254.979H80.5446V246.159H81.9927ZM81.2851 242.851C81.5045 242.851 81.6965 242.928 81.8611 243.082C82.0366 243.224 82.1244 243.455 82.1244 243.773C82.1244 244.08 82.0366 244.31 81.8611 244.464C81.6965 244.618 81.5045 244.694 81.2851 244.694C81.0438 244.694 80.8408 244.618 80.6763 244.464C80.5117 244.31 80.4294 244.08 80.4294 243.773C80.4294 243.455 80.5117 243.224 80.6763 243.082C80.8408 242.928 81.0438 242.851 81.2851 242.851ZM88.1277 246.011C89.2028 246.011 89.9982 246.247 90.5138 246.718C91.0294 247.19 91.2872 247.942 91.2872 248.973V254.979H90.234L89.9543 253.729H89.8884C89.6361 254.047 89.3728 254.316 89.0986 254.535C88.8353 254.743 88.5281 254.897 88.177 254.996C87.837 255.094 87.4201 255.144 86.9264 255.144C86.3998 255.144 85.9226 255.051 85.4947 254.864C85.0779 254.678 84.7487 254.392 84.5074 254.008C84.266 253.613 84.1454 253.12 84.1454 252.527C84.1454 251.65 84.4909 250.975 85.1821 250.503C85.8732 250.021 86.9374 249.757 88.3745 249.713L89.872 249.664V249.137C89.872 248.402 89.7129 247.892 89.3948 247.607C89.0766 247.322 88.6268 247.179 88.0454 247.179C87.5846 247.179 87.1458 247.25 86.7289 247.393C86.312 247.525 85.9226 247.678 85.5606 247.854L85.1162 246.768C85.5002 246.559 85.9555 246.384 86.4821 246.241C87.0087 246.088 87.5572 246.011 88.1277 246.011ZM88.5555 250.717C87.4585 250.761 86.696 250.937 86.2682 251.244C85.8513 251.551 85.6428 251.984 85.6428 252.544C85.6428 253.037 85.7909 253.399 86.0871 253.63C86.3943 253.86 86.7838 253.975 87.2555 253.975C88.0015 253.975 88.6213 253.772 89.115 253.367C89.6087 252.95 89.8555 252.313 89.8555 251.458V250.668L88.5555 250.717ZM96.957 253.959C97.1764 253.959 97.4013 253.943 97.6317 253.91C97.8621 253.866 98.0486 253.822 98.1912 253.778V254.881C98.0376 254.957 97.8182 255.018 97.533 255.062C97.2477 255.116 96.9735 255.144 96.7102 255.144C96.2494 255.144 95.8216 255.067 95.4266 254.913C95.0427 254.749 94.73 254.469 94.4886 254.074C94.2473 253.679 94.1266 253.125 94.1266 252.412V247.278H92.876V246.587L94.1431 246.011L94.719 244.135H95.5747V246.159H98.1254V247.278H95.5747V252.379C95.5747 252.917 95.7009 253.317 95.9532 253.58C96.2165 253.833 96.5511 253.959 96.957 253.959ZM103.364 245.994C104.121 245.994 104.768 246.159 105.306 246.488C105.854 246.817 106.271 247.283 106.556 247.887C106.852 248.479 107 249.176 107 249.977V250.849H100.961C100.983 251.847 101.235 252.61 101.718 253.136C102.212 253.652 102.898 253.91 103.775 253.91C104.335 253.91 104.828 253.86 105.256 253.762C105.695 253.652 106.145 253.498 106.606 253.301V254.568C106.156 254.765 105.711 254.908 105.273 254.996C104.834 255.094 104.313 255.144 103.709 255.144C102.876 255.144 102.135 254.974 101.488 254.634C100.851 254.294 100.352 253.789 99.9903 253.12C99.6392 252.44 99.4637 251.611 99.4637 250.635C99.4637 249.669 99.6228 248.841 99.9409 248.15C100.27 247.459 100.725 246.927 101.307 246.554C101.899 246.181 102.585 245.994 103.364 245.994ZM103.347 247.179C102.656 247.179 102.108 247.404 101.702 247.854C101.307 248.293 101.071 248.907 100.994 249.697H105.487C105.487 249.192 105.41 248.753 105.256 248.38C105.103 248.007 104.867 247.717 104.549 247.508C104.241 247.289 103.841 247.179 103.347 247.179ZM112.373 255.144C111.276 255.144 110.398 254.765 109.74 254.008C109.081 253.24 108.752 252.099 108.752 250.586C108.752 249.072 109.081 247.931 109.74 247.163C110.409 246.384 111.292 245.994 112.389 245.994C112.85 245.994 113.25 246.055 113.59 246.175C113.93 246.285 114.227 246.439 114.479 246.636C114.731 246.834 114.945 247.053 115.121 247.294H115.219C115.208 247.152 115.187 246.943 115.154 246.669C115.132 246.384 115.121 246.159 115.121 245.994V242.473H116.569V254.979H115.4L115.187 253.794H115.121C114.945 254.047 114.731 254.277 114.479 254.486C114.227 254.683 113.925 254.842 113.574 254.963C113.234 255.083 112.833 255.144 112.373 255.144ZM112.603 253.943C113.535 253.943 114.188 253.69 114.561 253.186C114.945 252.67 115.137 251.897 115.137 250.865V250.602C115.137 249.505 114.956 248.666 114.594 248.084C114.232 247.492 113.563 247.196 112.586 247.196C111.808 247.196 111.221 247.508 110.826 248.134C110.442 248.748 110.25 249.576 110.25 250.618C110.25 251.672 110.442 252.489 110.826 253.07C111.221 253.652 111.813 253.943 112.603 253.943ZM130.19 249.993C130.124 249.763 130.059 249.538 129.993 249.318C129.927 249.088 129.867 248.874 129.812 248.677C129.768 248.468 129.724 248.276 129.68 248.101C129.636 247.925 129.603 247.777 129.581 247.656H129.516C129.494 247.777 129.461 247.925 129.417 248.101C129.384 248.276 129.34 248.468 129.285 248.677C129.241 248.885 129.186 249.105 129.121 249.335C129.066 249.554 129 249.779 128.923 250.01L127.343 254.963H125.698L123.279 246.142H124.776L125.994 250.849C126.082 251.167 126.164 251.491 126.241 251.82C126.318 252.138 126.383 252.445 126.438 252.741C126.504 253.026 126.548 253.273 126.57 253.482H126.636C126.669 253.35 126.707 253.186 126.751 252.988C126.795 252.791 126.839 252.582 126.883 252.363C126.938 252.143 126.992 251.924 127.047 251.705C127.113 251.485 127.173 251.288 127.228 251.112L128.792 246.142H130.371L131.885 251.112C131.962 251.364 132.039 251.633 132.116 251.918C132.203 252.204 132.28 252.483 132.346 252.758C132.412 253.021 132.456 253.257 132.478 253.465H132.543C132.565 253.279 132.604 253.048 132.659 252.774C132.724 252.489 132.796 252.182 132.873 251.853C132.96 251.513 133.048 251.178 133.136 250.849L134.37 246.142H135.851L133.399 254.963H131.704L130.19 249.993ZM138.881 246.159V254.979H137.433V246.159H138.881ZM138.174 242.851C138.393 242.851 138.585 242.928 138.75 243.082C138.925 243.224 139.013 243.455 139.013 243.773C139.013 244.08 138.925 244.31 138.75 244.464C138.585 244.618 138.393 244.694 138.174 244.694C137.932 244.694 137.729 244.618 137.565 244.464C137.4 244.31 137.318 244.08 137.318 243.773C137.318 243.455 137.4 243.224 137.565 243.082C137.729 242.928 137.932 242.851 138.174 242.851ZM144.621 253.959C144.841 253.959 145.065 253.943 145.296 253.91C145.526 253.866 145.713 253.822 145.855 253.778V254.881C145.702 254.957 145.482 255.018 145.197 255.062C144.912 255.116 144.638 255.144 144.374 255.144C143.914 255.144 143.486 255.067 143.091 254.913C142.707 254.749 142.394 254.469 142.153 254.074C141.911 253.679 141.791 253.125 141.791 252.412V247.278H140.54V246.587L141.807 246.011L142.383 244.135H143.239V246.159H145.79V247.278H143.239V252.379C143.239 252.917 143.365 253.317 143.617 253.58C143.881 253.833 144.215 253.959 144.621 253.959ZM149.07 246.142C149.07 246.351 149.059 246.565 149.037 246.784C149.026 247.004 149.009 247.201 148.987 247.377H149.086C149.273 247.069 149.508 246.817 149.794 246.62C150.079 246.422 150.397 246.274 150.748 246.175C151.099 246.066 151.461 246.011 151.834 246.011C152.547 246.011 153.14 246.126 153.611 246.356C154.094 246.576 154.456 246.921 154.698 247.393C154.939 247.865 155.06 248.479 155.06 249.236V254.979H153.628V249.335C153.628 248.622 153.469 248.09 153.151 247.739C152.833 247.388 152.333 247.212 151.653 247.212C150.995 247.212 150.479 247.338 150.106 247.591C149.733 247.832 149.465 248.194 149.3 248.677C149.146 249.148 149.07 249.73 149.07 250.421V254.979H147.622V242.473H149.07V246.142ZM165.866 253.959C166.085 253.959 166.31 253.943 166.541 253.91C166.771 253.866 166.958 253.822 167.1 253.778V254.881C166.947 254.957 166.727 255.018 166.442 255.062C166.157 255.116 165.882 255.144 165.619 255.144C165.158 255.144 164.731 255.067 164.336 254.913C163.952 254.749 163.639 254.469 163.398 254.074C163.156 253.679 163.036 253.125 163.036 252.412V247.278H161.785V246.587L163.052 246.011L163.628 244.135H164.484V246.159H167.034V247.278H164.484V252.379C164.484 252.917 164.61 253.317 164.862 253.58C165.125 253.833 165.46 253.959 165.866 253.959ZM170.314 246.142C170.314 246.351 170.303 246.565 170.282 246.784C170.271 247.004 170.254 247.201 170.232 247.377H170.331C170.517 247.069 170.753 246.817 171.039 246.62C171.324 246.422 171.642 246.274 171.993 246.175C172.344 246.066 172.706 246.011 173.079 246.011C173.792 246.011 174.385 246.126 174.856 246.356C175.339 246.576 175.701 246.921 175.942 247.393C176.184 247.865 176.304 248.479 176.304 249.236V254.979H174.873V249.335C174.873 248.622 174.714 248.09 174.396 247.739C174.077 247.388 173.578 247.212 172.898 247.212C172.24 247.212 171.724 247.338 171.351 247.591C170.978 247.832 170.709 248.194 170.545 248.677C170.391 249.148 170.314 249.73 170.314 250.421V254.979H168.866V242.473H170.314V246.142ZM182.445 245.994C183.202 245.994 183.849 246.159 184.387 246.488C184.935 246.817 185.352 247.283 185.638 247.887C185.934 248.479 186.082 249.176 186.082 249.977V250.849H180.043C180.065 251.847 180.317 252.61 180.8 253.136C181.293 253.652 181.979 253.91 182.857 253.91C183.416 253.91 183.91 253.86 184.338 253.762C184.776 253.652 185.226 253.498 185.687 253.301V254.568C185.237 254.765 184.793 254.908 184.354 254.996C183.915 255.094 183.394 255.144 182.791 255.144C181.957 255.144 181.216 254.974 180.569 254.634C179.933 254.294 179.434 253.789 179.072 253.12C178.721 252.44 178.545 251.611 178.545 250.635C178.545 249.669 178.704 248.841 179.022 248.15C179.351 247.459 179.807 246.927 180.388 246.554C180.981 246.181 181.666 245.994 182.445 245.994ZM182.429 247.179C181.738 247.179 181.189 247.404 180.783 247.854C180.388 248.293 180.152 248.907 180.075 249.697H184.568C184.568 249.192 184.491 248.753 184.338 248.38C184.184 248.007 183.948 247.717 183.63 247.508C183.323 247.289 182.922 247.179 182.429 247.179ZM49.245 275.832C49.245 276.644 49.0805 277.379 48.7514 278.037C48.4222 278.685 47.9176 279.2 47.2374 279.584C46.5682 279.957 45.7125 280.144 44.6703 280.144C43.2112 280.144 42.0977 279.749 41.3298 278.959C40.5728 278.158 40.1943 277.105 40.1943 275.799V268.23H41.6753V275.849C41.6753 276.803 41.9277 277.544 42.4323 278.07C42.9479 278.597 43.7213 278.86 44.7526 278.86C45.4657 278.86 46.0416 278.734 46.4804 278.482C46.9302 278.218 47.2594 277.862 47.4678 277.412C47.6762 276.951 47.7805 276.425 47.7805 275.832V268.23H49.245V275.832ZM57.3816 269.365C56.7562 269.365 56.1913 269.475 55.6866 269.694C55.182 269.903 54.7541 270.215 54.4031 270.632C54.052 271.038 53.7832 271.537 53.5967 272.13C53.4102 272.711 53.317 273.369 53.317 274.105C53.317 275.07 53.4651 275.909 53.7613 276.622C54.0684 277.335 54.5182 277.884 55.1107 278.268C55.714 278.652 56.4655 278.844 57.3651 278.844C57.8807 278.844 58.3689 278.8 58.8297 278.712C59.2904 278.624 59.7402 278.515 60.1791 278.383V279.667C59.7402 279.831 59.285 279.952 58.8132 280.029C58.3525 280.105 57.7984 280.144 57.1512 280.144C55.9554 280.144 54.9571 279.897 54.1562 279.403C53.3554 278.91 52.752 278.207 52.3461 277.297C51.9511 276.386 51.7537 275.317 51.7537 274.088C51.7537 273.199 51.8743 272.388 52.1157 271.653C52.368 270.918 52.73 270.281 53.2018 269.744C53.6845 269.206 54.2769 268.795 54.979 268.51C55.6811 268.213 56.4875 268.065 57.398 268.065C58.0014 268.065 58.5828 268.126 59.1423 268.246C59.7018 268.367 60.201 268.537 60.6398 268.756L60.0474 270.007C59.6854 269.842 59.2795 269.694 58.8297 269.563C58.3909 269.431 57.9082 269.365 57.3816 269.365ZM72.1562 273.989C72.1562 275.306 71.9094 276.408 71.4157 277.297C70.933 278.186 70.2364 278.855 69.3258 279.305C68.4153 279.754 67.3127 279.979 66.0182 279.979H62.7435V268.23H66.3638C67.5486 268.23 68.5743 268.449 69.441 268.888C70.3077 269.327 70.9769 269.974 71.4486 270.83C71.9204 271.675 72.1562 272.728 72.1562 273.989ZM70.5929 274.039C70.5929 272.996 70.4174 272.141 70.0663 271.472C69.7262 270.802 69.2216 270.309 68.5524 269.991C67.8942 269.661 67.0933 269.497 66.1498 269.497H64.2245V278.712H65.8207C67.4115 278.712 68.6018 278.323 69.3916 277.544C70.1925 276.754 70.5929 275.586 70.5929 274.039ZM84.9259 269.365C84.3005 269.365 83.7356 269.475 83.2309 269.694C82.7263 269.903 82.2984 270.215 81.9473 270.632C81.5963 271.038 81.3275 271.537 81.141 272.13C80.9545 272.711 80.8613 273.369 80.8613 274.105C80.8613 275.07 81.0094 275.909 81.3056 276.622C81.6127 277.335 82.0625 277.884 82.6549 278.268C83.2583 278.652 84.0098 278.844 84.9094 278.844C85.425 278.844 85.9132 278.8 86.374 278.712C86.8347 278.624 87.2845 278.515 87.7234 278.383V279.667C87.2845 279.831 86.8293 279.952 86.3575 280.029C85.8968 280.105 85.3427 280.144 84.6955 280.144C83.4997 280.144 82.5014 279.897 81.7005 279.403C80.8997 278.91 80.2963 278.207 79.8904 277.297C79.4954 276.386 79.298 275.317 79.298 274.088C79.298 273.199 79.4186 272.388 79.66 271.653C79.9123 270.918 80.2743 270.281 80.7461 269.744C81.2288 269.206 81.8212 268.795 82.5233 268.51C83.2254 268.213 84.0318 268.065 84.9423 268.065C85.5457 268.065 86.1271 268.126 86.6866 268.246C87.2461 268.367 87.7453 268.537 88.1841 268.756L87.5917 270.007C87.2297 269.842 86.8238 269.694 86.374 269.563C85.9352 269.431 85.4524 269.365 84.9259 269.365ZM96.9524 276.836C96.9524 277.538 96.7824 278.136 96.4423 278.63C96.1022 279.113 95.614 279.486 94.9777 279.749C94.3524 280.012 93.6119 280.144 92.7562 280.144C92.3173 280.144 91.895 280.122 91.489 280.078C91.0941 280.034 90.7321 279.974 90.403 279.897C90.0738 279.809 89.7831 279.705 89.5308 279.584V278.169C89.9257 278.345 90.4139 278.504 90.9954 278.646C91.5878 278.789 92.1967 278.86 92.822 278.86C93.4034 278.86 93.8916 278.783 94.2865 278.63C94.6815 278.476 94.9777 278.257 95.1752 277.972C95.3726 277.686 95.4714 277.352 95.4714 276.968C95.4714 276.584 95.3891 276.26 95.2245 275.997C95.06 275.734 94.7747 275.492 94.3688 275.273C93.9739 275.042 93.4199 274.801 92.7068 274.549C92.2021 274.362 91.7578 274.165 91.3739 273.956C91.0009 273.737 90.6882 273.49 90.4359 273.216C90.1835 272.942 89.9916 272.629 89.8599 272.278C89.7392 271.927 89.6789 271.521 89.6789 271.06C89.6789 270.435 89.838 269.903 90.1561 269.464C90.4743 269.014 90.9131 268.669 91.4726 268.427C92.0431 268.186 92.6958 268.065 93.4308 268.065C94.0781 268.065 94.6705 268.126 95.2081 268.246C95.7456 268.367 96.2338 268.526 96.6726 268.723L96.2119 269.991C95.806 269.815 95.3617 269.667 94.879 269.546C94.4072 269.426 93.9135 269.365 93.3979 269.365C92.9043 269.365 92.4929 269.437 92.1637 269.579C91.8346 269.722 91.5878 269.925 91.4232 270.188C91.2587 270.44 91.1764 270.737 91.1764 271.077C91.1764 271.472 91.2587 271.801 91.4232 272.064C91.5878 272.327 91.8566 272.563 92.2296 272.772C92.6026 272.98 93.1072 273.205 93.7435 273.446C94.4346 273.699 95.0161 273.973 95.4878 274.269C95.9705 274.554 96.3326 274.9 96.5739 275.306C96.8262 275.712 96.9524 276.222 96.9524 276.836ZM113.858 273.989C113.858 275.306 113.612 276.408 113.118 277.297C112.635 278.186 111.939 278.855 111.028 279.305C110.117 279.754 109.015 279.979 107.72 279.979H104.446V268.23H108.066C109.251 268.23 110.276 268.449 111.143 268.888C112.01 269.327 112.679 269.974 113.151 270.83C113.622 271.675 113.858 272.728 113.858 273.989ZM112.295 274.039C112.295 272.996 112.12 272.141 111.768 271.472C111.428 270.802 110.924 270.309 110.255 269.991C109.596 269.661 108.795 269.497 107.852 269.497H105.927V278.712H107.523C109.114 278.712 110.304 278.323 111.094 277.544C111.895 276.754 112.295 275.586 112.295 274.039ZM119.675 270.994C120.432 270.994 121.079 271.159 121.617 271.488C122.165 271.817 122.582 272.283 122.867 272.887C123.164 273.479 123.312 274.176 123.312 274.977V275.849H117.272C117.294 276.847 117.547 277.61 118.029 278.136C118.523 278.652 119.209 278.91 120.086 278.91C120.646 278.91 121.14 278.86 121.567 278.762C122.006 278.652 122.456 278.498 122.917 278.301V279.568C122.467 279.765 122.023 279.908 121.584 279.996C121.145 280.094 120.624 280.144 120.021 280.144C119.187 280.144 118.446 279.974 117.799 279.634C117.163 279.294 116.664 278.789 116.302 278.12C115.95 277.44 115.775 276.611 115.775 275.635C115.775 274.669 115.934 273.841 116.252 273.15C116.581 272.459 117.037 271.927 117.618 271.554C118.21 271.181 118.896 270.994 119.675 270.994ZM119.659 272.179C118.967 272.179 118.419 272.404 118.013 272.854C117.618 273.293 117.382 273.907 117.305 274.697H121.798C121.798 274.192 121.721 273.753 121.567 273.38C121.414 273.007 121.178 272.717 120.86 272.508C120.553 272.289 120.152 272.179 119.659 272.179ZM129.753 270.994C130.84 270.994 131.712 271.373 132.37 272.13C133.039 272.887 133.374 274.028 133.374 275.553C133.374 276.551 133.22 277.396 132.913 278.087C132.617 278.767 132.194 279.283 131.646 279.634C131.108 279.974 130.472 280.144 129.737 280.144C129.287 280.144 128.887 280.083 128.536 279.963C128.185 279.842 127.883 279.689 127.631 279.502C127.389 279.305 127.181 279.091 127.005 278.86H126.907C126.929 279.047 126.95 279.283 126.972 279.568C126.994 279.853 127.005 280.1 127.005 280.308V283.929H125.557V271.159H126.742L126.939 272.36H127.005C127.181 272.108 127.389 271.877 127.631 271.669C127.883 271.461 128.179 271.296 128.519 271.175C128.87 271.055 129.282 270.994 129.753 270.994ZM129.49 272.212C128.898 272.212 128.421 272.327 128.058 272.558C127.696 272.777 127.433 273.112 127.269 273.561C127.104 274.011 127.016 274.582 127.005 275.273V275.553C127.005 276.277 127.082 276.891 127.236 277.396C127.389 277.9 127.647 278.284 128.009 278.548C128.382 278.811 128.887 278.943 129.523 278.943C130.061 278.943 130.499 278.794 130.84 278.498C131.191 278.202 131.448 277.802 131.613 277.297C131.788 276.781 131.876 276.194 131.876 275.536C131.876 274.527 131.679 273.721 131.284 273.117C130.9 272.514 130.302 272.212 129.49 272.212ZM139.022 271.011C140.097 271.011 140.892 271.247 141.408 271.718C141.924 272.19 142.181 272.942 142.181 273.973V279.979H141.128L140.849 278.729H140.783C140.53 279.047 140.267 279.316 139.993 279.535C139.73 279.743 139.422 279.897 139.071 279.996C138.731 280.094 138.314 280.144 137.821 280.144C137.294 280.144 136.817 280.051 136.389 279.864C135.972 279.678 135.643 279.392 135.402 279.008C135.16 278.613 135.04 278.12 135.04 277.527C135.04 276.65 135.385 275.975 136.076 275.503C136.767 275.021 137.832 274.757 139.269 274.713L140.766 274.664V274.137C140.766 273.402 140.607 272.892 140.289 272.607C139.971 272.322 139.521 272.179 138.94 272.179C138.479 272.179 138.04 272.25 137.623 272.393C137.206 272.525 136.817 272.678 136.455 272.854L136.011 271.768C136.394 271.559 136.85 271.384 137.376 271.241C137.903 271.088 138.451 271.011 139.022 271.011ZM139.45 275.717C138.353 275.761 137.59 275.937 137.162 276.244C136.746 276.551 136.537 276.984 136.537 277.544C136.537 278.037 136.685 278.399 136.981 278.63C137.289 278.86 137.678 278.975 138.15 278.975C138.896 278.975 139.516 278.772 140.009 278.367C140.503 277.95 140.75 277.313 140.75 276.458V275.668L139.45 275.717ZM149.02 270.994C149.184 270.994 149.36 271.005 149.546 271.027C149.744 271.038 149.914 271.06 150.056 271.093L149.875 272.426C149.733 272.393 149.574 272.366 149.398 272.344C149.234 272.322 149.075 272.311 148.921 272.311C148.581 272.311 148.257 272.382 147.95 272.525C147.643 272.667 147.369 272.87 147.127 273.134C146.886 273.386 146.694 273.693 146.551 274.055C146.42 274.417 146.354 274.823 146.354 275.273V279.979H144.906V271.159H146.091L146.255 272.772H146.321C146.507 272.442 146.732 272.146 146.996 271.883C147.259 271.609 147.561 271.395 147.901 271.241C148.241 271.077 148.614 270.994 149.02 270.994ZM154.649 278.959C154.868 278.959 155.093 278.943 155.324 278.91C155.554 278.866 155.741 278.822 155.883 278.778V279.881C155.73 279.957 155.51 280.018 155.225 280.062C154.94 280.116 154.665 280.144 154.402 280.144C153.941 280.144 153.514 280.067 153.119 279.913C152.735 279.749 152.422 279.469 152.181 279.074C151.939 278.679 151.819 278.125 151.819 277.412V272.278H150.568V271.587L151.835 271.011L152.411 269.135H153.267V271.159H155.817V272.278H153.267V277.379C153.267 277.917 153.393 278.317 153.645 278.58C153.908 278.833 154.243 278.959 154.649 278.959ZM167.325 270.994C168.324 270.994 169.07 271.252 169.563 271.768C170.057 272.272 170.304 273.095 170.304 274.236V279.979H168.872V274.302C168.872 273.611 168.724 273.09 168.428 272.739C168.143 272.388 167.693 272.212 167.079 272.212C166.223 272.212 165.609 272.459 165.236 272.953C164.873 273.446 164.692 274.165 164.692 275.108V279.979H163.261V274.302C163.261 273.841 163.195 273.457 163.063 273.15C162.932 272.832 162.734 272.596 162.471 272.442C162.208 272.289 161.868 272.212 161.451 272.212C160.858 272.212 160.392 272.338 160.052 272.591C159.712 272.832 159.465 273.188 159.311 273.66C159.169 274.132 159.097 274.713 159.097 275.405V279.979H157.649V271.159H158.818L159.032 272.36H159.114C159.3 272.053 159.525 271.801 159.789 271.603C160.063 271.395 160.365 271.241 160.694 271.142C161.023 271.044 161.363 270.994 161.714 270.994C162.394 270.994 162.959 271.115 163.409 271.356C163.87 271.598 164.204 271.971 164.413 272.475H164.495C164.791 271.971 165.192 271.598 165.696 271.356C166.212 271.115 166.755 270.994 167.325 270.994ZM176.435 270.994C177.192 270.994 177.839 271.159 178.377 271.488C178.925 271.817 179.342 272.283 179.627 272.887C179.924 273.479 180.072 274.176 180.072 274.977V275.849H174.032C174.054 276.847 174.307 277.61 174.789 278.136C175.283 278.652 175.969 278.91 176.846 278.91C177.406 278.91 177.899 278.86 178.327 278.762C178.766 278.652 179.216 278.498 179.677 278.301V279.568C179.227 279.765 178.783 279.908 178.344 279.996C177.905 280.094 177.384 280.144 176.78 280.144C175.947 280.144 175.206 279.974 174.559 279.634C173.923 279.294 173.423 278.789 173.061 278.12C172.71 277.44 172.535 276.611 172.535 275.635C172.535 274.669 172.694 273.841 173.012 273.15C173.341 272.459 173.796 271.927 174.378 271.554C174.97 271.181 175.656 270.994 176.435 270.994ZM176.418 272.179C175.727 272.179 175.179 272.404 174.773 272.854C174.378 273.293 174.142 273.907 174.065 274.697H178.558C178.558 274.192 178.481 273.753 178.327 273.38C178.174 273.007 177.938 272.717 177.62 272.508C177.313 272.289 176.912 272.179 176.418 272.179ZM186.563 270.994C187.616 270.994 188.411 271.252 188.949 271.768C189.486 272.272 189.755 273.095 189.755 274.236V279.979H188.323V274.335C188.323 273.622 188.164 273.09 187.846 272.739C187.528 272.388 187.029 272.212 186.349 272.212C185.372 272.212 184.698 272.486 184.325 273.035C183.952 273.583 183.765 274.373 183.765 275.405V279.979H182.317V271.159H183.485L183.699 272.36H183.782C183.979 272.053 184.22 271.801 184.506 271.603C184.802 271.395 185.126 271.241 185.477 271.142C185.828 271.044 186.19 270.994 186.563 270.994ZM195.435 278.959C195.655 278.959 195.879 278.943 196.11 278.91C196.34 278.866 196.527 278.822 196.669 278.778V279.881C196.516 279.957 196.296 280.018 196.011 280.062C195.726 280.116 195.452 280.144 195.188 280.144C194.728 280.144 194.3 280.067 193.905 279.913C193.521 279.749 193.208 279.469 192.967 279.074C192.725 278.679 192.605 278.125 192.605 277.412V272.278H191.354V271.587L192.621 271.011L193.197 269.135H194.053V271.159H196.603V272.278H194.053V277.379C194.053 277.917 194.179 278.317 194.431 278.58C194.695 278.833 195.029 278.959 195.435 278.959Z" fill="#F0F0F0"/>
<path d="M192.899 80.5877C192.86 77.5945 191.268 74.8368 188.695 73.3065L121.083 33.0902C118.407 31.4987 115.08 31.4771 112.384 33.0337L46.1298 71.2857C43.4337 72.8423 41.7891 75.7341 41.8295 78.847L42.8517 157.509C42.8906 160.502 44.4828 163.26 47.0555 164.79L114.668 205.007C117.343 206.598 120.67 206.62 123.366 205.063L189.621 166.811C192.317 165.254 193.961 162.363 193.921 159.25L192.899 80.5877Z" fill="url(#paint0_linear_287_38)" stroke="url(#paint1_linear_287_38)" stroke-width="2.24398"/>
<path d="M121.73 132.409H112.887L111.029 96.9641H123.587L121.73 132.409ZM110.881 144.818C110.881 142.54 111.5 140.954 112.738 140.063C113.977 139.122 115.488 138.651 117.271 138.651C119.005 138.651 120.491 139.122 121.73 140.063C122.968 140.954 123.587 142.54 123.587 144.818C123.587 146.998 122.968 148.583 121.73 149.574C120.491 150.515 119.005 150.986 117.271 150.986C115.488 150.986 113.977 150.515 112.738 149.574C111.5 148.583 110.881 146.998 110.881 144.818Z" fill="url(#paint2_linear_287_38)"/>
<defs>
<linearGradient id="paint0_linear_287_38" x1="288.044" y1="260.045" x2="167.527" y2="7.94566" gradientUnits="userSpaceOnUse">
<stop offset="0.379733" stop-color="#FFDE28" stop-opacity="0.7"/>
<stop offset="0.988905" stop-color="#FFDE28" stop-opacity="0.1"/>
</linearGradient>
<linearGradient id="paint1_linear_287_38" x1="32.5219" y1="59.4229" x2="295.075" y2="234.711" gradientUnits="userSpaceOnUse">
<stop offset="0.129324" stop-color="#5D4E00"/>
<stop offset="0.247324" stop-color="#FFDE28"/>
<stop offset="0.401695" stop-color="#FFFD8F"/>
<stop offset="0.520532" stop-color="#DAC139"/>
<stop offset="0.659271" stop-color="#978000"/>
</linearGradient>
<linearGradient id="paint2_linear_287_38" x1="111.919" y1="100.02" x2="137.302" y2="105.712" gradientUnits="userSpaceOnUse">
<stop/>
<stop offset="1" stop-color="#454000"/>
</linearGradient>
</defs>
</svg>
