<svg width="236" height="281" viewBox="0 0 236 281" fill="none" xmlns="http://www.w3.org/2000/svg">
<path d="M63.0477 250.832C63.0477 251.644 62.8831 252.379 62.554 253.037C62.2249 253.685 61.7203 254.2 61.0401 254.584C60.3709 254.957 59.5152 255.144 58.473 255.144C57.0139 255.144 55.9004 254.749 55.1324 253.959C54.3755 253.158 53.997 252.105 53.997 250.799V243.23H55.478V250.849C55.478 251.803 55.7303 252.544 56.235 253.07C56.7506 253.597 57.524 253.86 58.5552 253.86C59.2683 253.86 59.8443 253.734 60.2831 253.482C60.7329 253.218 61.062 252.862 61.2705 252.412C61.4789 251.951 61.5831 251.425 61.5831 250.832V243.23H63.0477V250.832ZM70.1475 245.994C71.2336 245.994 72.1058 246.373 72.764 247.13C73.4332 247.887 73.7678 249.028 73.7678 250.553C73.7678 251.551 73.6142 252.396 73.307 253.087C73.0108 253.767 72.5885 254.283 72.0399 254.634C71.5024 254.974 70.8661 255.144 70.1311 255.144C69.6813 255.144 69.2808 255.083 68.9298 254.963C68.5787 254.842 68.277 254.689 68.0247 254.502C67.7833 254.305 67.5749 254.091 67.3994 253.86H67.3006C67.3226 254.047 67.3445 254.283 67.3665 254.568C67.3884 254.853 67.3994 255.1 67.3994 255.308V258.929H65.9513V246.159H67.1361L67.3336 247.36H67.3994C67.5749 247.108 67.7833 246.877 68.0247 246.669C68.277 246.461 68.5732 246.296 68.9133 246.175C69.2644 246.055 69.6758 245.994 70.1475 245.994ZM69.8842 247.212C69.2918 247.212 68.8146 247.327 68.4526 247.558C68.0905 247.777 67.8272 248.112 67.6627 248.561C67.4981 249.011 67.4103 249.582 67.3994 250.273V250.553C67.3994 251.277 67.4762 251.891 67.6298 252.396C67.7833 252.9 68.0412 253.284 68.4032 253.548C68.7762 253.811 69.2808 253.943 69.9171 253.943C70.4547 253.943 70.8935 253.794 71.2336 253.498C71.5847 253.202 71.8425 252.802 72.007 252.297C72.1826 251.781 72.2703 251.194 72.2703 250.536C72.2703 249.527 72.0728 248.721 71.6779 248.117C71.2939 247.514 70.696 247.212 69.8842 247.212ZM80.2717 245.994C81.3578 245.994 82.23 246.373 82.8882 247.13C83.5574 247.887 83.892 249.028 83.892 250.553C83.892 251.551 83.7384 252.396 83.4312 253.087C83.135 253.767 82.7127 254.283 82.1641 254.634C81.6266 254.974 80.9903 255.144 80.2553 255.144C79.8055 255.144 79.405 255.083 79.054 254.963C78.7029 254.842 78.4012 254.689 78.1489 254.502C77.9076 254.305 77.6991 254.091 77.5236 253.86H77.4249C77.4468 254.047 77.4687 254.283 77.4907 254.568C77.5126 254.853 77.5236 255.1 77.5236 255.308V258.929H76.0755V246.159H77.2603L77.4578 247.36H77.5236C77.6991 247.108 77.9076 246.877 78.1489 246.669C78.4012 246.461 78.6974 246.296 79.0375 246.175C79.3886 246.055 79.8 245.994 80.2717 245.994ZM80.0084 247.212C79.416 247.212 78.9388 247.327 78.5768 247.558C78.2147 247.777 77.9514 248.112 77.7869 248.561C77.6223 249.011 77.5346 249.582 77.5236 250.273V250.553C77.5236 251.277 77.6004 251.891 77.754 252.396C77.9076 252.9 78.1654 253.284 78.5274 253.548C78.9004 253.811 79.405 253.943 80.0413 253.943C80.5789 253.943 81.0177 253.794 81.3578 253.498C81.7089 253.202 81.9667 252.802 82.1312 252.297C82.3068 251.781 82.3945 251.194 82.3945 250.536C82.3945 249.527 82.1971 248.721 81.8021 248.117C81.4181 247.514 80.8203 247.212 80.0084 247.212ZM89.6061 245.994C90.363 245.994 91.0103 246.159 91.5478 246.488C92.0964 246.817 92.5133 247.283 92.7985 247.887C93.0947 248.479 93.2428 249.176 93.2428 249.977V250.849H87.2035C87.2254 251.847 87.4778 252.61 87.9605 253.136C88.4541 253.652 89.1398 253.91 90.0175 253.91C90.577 253.91 91.0706 253.86 91.4985 253.762C91.9373 253.652 92.3871 253.498 92.8479 253.301V254.568C92.3981 254.765 91.9538 254.908 91.5149 254.996C91.0761 255.094 90.555 255.144 89.9516 255.144C89.1179 255.144 88.3774 254.974 87.7301 254.634C87.0938 254.294 86.5946 253.789 86.2326 253.12C85.8815 252.44 85.706 251.611 85.706 250.635C85.706 249.669 85.8651 248.841 86.1832 248.15C86.5124 247.459 86.9676 246.927 87.5491 246.554C88.1415 246.181 88.8271 245.994 89.6061 245.994ZM89.5896 247.179C88.8985 247.179 88.3499 247.404 87.944 247.854C87.5491 248.293 87.3132 248.907 87.2364 249.697H91.7289C91.7289 249.192 91.6521 248.753 91.4985 248.38C91.3449 248.007 91.109 247.717 90.7909 247.508C90.4837 247.289 90.0833 247.179 89.5896 247.179ZM99.6022 245.994C99.7668 245.994 99.9423 246.005 100.129 246.027C100.326 246.038 100.496 246.06 100.639 246.093L100.458 247.426C100.315 247.393 100.156 247.366 99.9807 247.344C99.8162 247.322 99.6571 247.311 99.5035 247.311C99.1634 247.311 98.8398 247.382 98.5326 247.525C98.2254 247.667 97.9512 247.87 97.7098 248.134C97.4684 248.386 97.2765 248.693 97.1338 249.055C97.0022 249.417 96.9364 249.823 96.9364 250.273V254.979H95.4883V246.159H96.6731L96.8376 247.772H96.9035C97.09 247.442 97.3149 247.146 97.5782 246.883C97.8414 246.609 98.1431 246.395 98.4832 246.241C98.8233 246.077 99.1963 245.994 99.6022 245.994ZM110.753 246.011C111.828 246.011 112.623 246.247 113.139 246.718C113.655 247.19 113.912 247.942 113.912 248.973V254.979H112.859L112.579 253.729H112.514C112.261 254.047 111.998 254.316 111.724 254.535C111.46 254.743 111.153 254.897 110.802 254.996C110.462 255.094 110.045 255.144 109.552 255.144C109.025 255.144 108.548 255.051 108.12 254.864C107.703 254.678 107.374 254.392 107.133 254.008C106.891 253.613 106.771 253.12 106.771 252.527C106.771 251.65 107.116 250.975 107.807 250.503C108.498 250.021 109.563 249.757 111 249.713L112.497 249.664V249.137C112.497 248.402 112.338 247.892 112.02 247.607C111.702 247.322 111.252 247.179 110.671 247.179C110.21 247.179 109.771 247.25 109.354 247.393C108.937 247.525 108.548 247.678 108.186 247.854L107.741 246.768C108.125 246.559 108.581 246.384 109.107 246.241C109.634 246.088 110.182 246.011 110.753 246.011ZM111.181 250.717C110.084 250.761 109.321 250.937 108.893 251.244C108.476 251.551 108.268 251.984 108.268 252.544C108.268 253.037 108.416 253.399 108.712 253.63C109.02 253.86 109.409 253.975 109.881 253.975C110.627 253.975 111.247 253.772 111.74 253.367C112.234 252.95 112.481 252.313 112.481 251.458V250.668L111.181 250.717ZM120.882 245.994C121.935 245.994 122.731 246.252 123.268 246.768C123.806 247.272 124.075 248.095 124.075 249.236V254.979H122.643V249.335C122.643 248.622 122.484 248.09 122.166 247.739C121.848 247.388 121.348 247.212 120.668 247.212C119.692 247.212 119.017 247.486 118.644 248.035C118.271 248.583 118.085 249.373 118.085 250.405V254.979H116.637V246.159H117.805L118.019 247.36H118.101C118.299 247.053 118.54 246.801 118.825 246.603C119.121 246.395 119.445 246.241 119.796 246.142C120.147 246.044 120.509 245.994 120.882 245.994ZM129.936 255.144C128.839 255.144 127.961 254.765 127.303 254.008C126.644 253.24 126.315 252.099 126.315 250.586C126.315 249.072 126.644 247.931 127.303 247.163C127.972 246.384 128.855 245.994 129.952 245.994C130.413 245.994 130.813 246.055 131.153 246.175C131.493 246.285 131.79 246.439 132.042 246.636C132.294 246.834 132.508 247.053 132.684 247.294H132.783C132.772 247.152 132.75 246.943 132.717 246.669C132.695 246.384 132.684 246.159 132.684 245.994V242.473H134.132V254.979H132.964L132.75 253.794H132.684C132.508 254.047 132.294 254.277 132.042 254.486C131.79 254.683 131.488 254.842 131.137 254.963C130.797 255.083 130.396 255.144 129.936 255.144ZM130.166 253.943C131.099 253.943 131.751 253.69 132.124 253.186C132.508 252.67 132.7 251.897 132.7 250.865V250.602C132.7 249.505 132.519 248.666 132.157 248.084C131.795 247.492 131.126 247.196 130.15 247.196C129.371 247.196 128.784 247.508 128.389 248.134C128.005 248.748 127.813 249.576 127.813 250.618C127.813 251.672 128.005 252.489 128.389 253.07C128.784 253.652 129.376 253.943 130.166 253.943ZM143.508 254.979H142.06V242.473H143.508V254.979ZM153.971 250.553C153.971 251.288 153.872 251.94 153.674 252.511C153.488 253.07 153.214 253.548 152.852 253.943C152.501 254.337 152.067 254.639 151.552 254.848C151.047 255.045 150.482 255.144 149.857 255.144C149.275 255.144 148.738 255.045 148.244 254.848C147.75 254.639 147.322 254.337 146.96 253.943C146.598 253.548 146.313 253.07 146.105 252.511C145.907 251.94 145.808 251.288 145.808 250.553C145.808 249.576 145.973 248.753 146.302 248.084C146.631 247.404 147.103 246.888 147.717 246.537C148.332 246.175 149.061 245.994 149.906 245.994C150.707 245.994 151.409 246.175 152.012 246.537C152.627 246.888 153.104 247.404 153.444 248.084C153.795 248.753 153.971 249.576 153.971 250.553ZM147.306 250.553C147.306 251.244 147.394 251.847 147.569 252.363C147.756 252.867 148.041 253.257 148.425 253.531C148.809 253.805 149.297 253.943 149.89 253.943C150.482 253.943 150.97 253.805 151.354 253.531C151.738 253.257 152.018 252.867 152.193 252.363C152.38 251.847 152.473 251.244 152.473 250.553C152.473 249.851 152.38 249.253 152.193 248.759C152.007 248.265 151.722 247.887 151.338 247.623C150.965 247.349 150.476 247.212 149.873 247.212C148.974 247.212 148.321 247.508 147.915 248.101C147.509 248.693 147.306 249.51 147.306 250.553ZM161.638 249.993C161.572 249.763 161.506 249.538 161.441 249.318C161.375 249.088 161.314 248.874 161.26 248.677C161.216 248.468 161.172 248.276 161.128 248.101C161.084 247.925 161.051 247.777 161.029 247.656H160.963C160.941 247.777 160.908 247.925 160.865 248.101C160.832 248.276 160.788 248.468 160.733 248.677C160.689 248.885 160.634 249.105 160.568 249.335C160.514 249.554 160.448 249.779 160.371 250.01L158.791 254.963H157.146L154.727 246.142H156.224L157.442 250.849C157.53 251.167 157.612 251.491 157.689 251.82C157.765 252.138 157.831 252.445 157.886 252.741C157.952 253.026 157.996 253.273 158.018 253.482H158.084C158.116 253.35 158.155 253.186 158.199 252.988C158.243 252.791 158.287 252.582 158.33 252.363C158.385 252.143 158.44 251.924 158.495 251.705C158.561 251.485 158.621 251.288 158.676 251.112L160.239 246.142H161.819L163.333 251.112C163.41 251.364 163.487 251.633 163.563 251.918C163.651 252.204 163.728 252.483 163.794 252.758C163.86 253.021 163.903 253.257 163.925 253.465H163.991C164.013 253.279 164.052 253.048 164.106 252.774C164.172 252.489 164.244 252.182 164.32 251.853C164.408 251.513 164.496 251.178 164.584 250.849L165.818 246.142H167.299L164.847 254.963H163.152L161.638 249.993ZM172.287 245.994C173.044 245.994 173.691 246.159 174.229 246.488C174.777 246.817 175.194 247.283 175.48 247.887C175.776 248.479 175.924 249.176 175.924 249.977V250.849H169.885C169.907 251.847 170.159 252.61 170.642 253.136C171.135 253.652 171.821 253.91 172.699 253.91C173.258 253.91 173.752 253.86 174.18 253.762C174.618 253.652 175.068 253.498 175.529 253.301V254.568C175.079 254.765 174.635 254.908 174.196 254.996C173.757 255.094 173.236 255.144 172.633 255.144C171.799 255.144 171.058 254.974 170.411 254.634C169.775 254.294 169.276 253.789 168.914 253.12C168.563 252.44 168.387 251.611 168.387 250.635C168.387 249.669 168.546 248.841 168.864 248.15C169.193 247.459 169.649 246.927 170.23 246.554C170.823 246.181 171.508 245.994 172.287 245.994ZM172.271 247.179C171.58 247.179 171.031 247.404 170.625 247.854C170.23 248.293 169.994 248.907 169.917 249.697H174.41C174.41 249.192 174.333 248.753 174.18 248.38C174.026 248.007 173.79 247.717 173.472 247.508C173.165 247.289 172.764 247.179 172.271 247.179ZM182.283 245.994C182.448 245.994 182.623 246.005 182.81 246.027C183.007 246.038 183.177 246.06 183.32 246.093L183.139 247.426C182.996 247.393 182.837 247.366 182.662 247.344C182.497 247.322 182.338 247.311 182.185 247.311C181.844 247.311 181.521 247.382 181.214 247.525C180.907 247.667 180.632 247.87 180.391 248.134C180.15 248.386 179.958 248.693 179.815 249.055C179.683 249.417 179.617 249.823 179.617 250.273V254.979H178.169V246.159H179.354L179.519 247.772H179.585C179.771 247.442 179.996 247.146 180.259 246.883C180.523 246.609 180.824 246.395 181.164 246.241C181.504 246.077 181.877 245.994 182.283 245.994ZM67.045 280.144C65.9479 280.144 65.0703 279.765 64.4121 279.008C63.7538 278.24 63.4247 277.099 63.4247 275.586C63.4247 274.072 63.7538 272.931 64.4121 272.163C65.0813 271.384 65.9644 270.994 67.0615 270.994C67.5222 270.994 67.9226 271.055 68.2627 271.175C68.6028 271.285 68.899 271.439 69.1513 271.636C69.4037 271.834 69.6176 272.053 69.7931 272.294H69.8919C69.8809 272.152 69.8589 271.943 69.826 271.669C69.8041 271.384 69.7931 271.159 69.7931 270.994V267.473H71.2412V279.979H70.0729L69.8589 278.794H69.7931C69.6176 279.047 69.4037 279.277 69.1513 279.486C68.899 279.683 68.5973 279.842 68.2463 279.963C67.9062 280.083 67.5058 280.144 67.045 280.144ZM67.2754 278.943C68.2079 278.943 68.8606 278.69 69.2336 278.186C69.6176 277.67 69.8096 276.897 69.8096 275.865V275.602C69.8096 274.505 69.6286 273.666 69.2665 273.084C68.9045 272.492 68.2353 272.196 67.2589 272.196C66.48 272.196 65.8931 272.508 65.4981 273.134C65.1142 273.748 64.9222 274.576 64.9222 275.618C64.9222 276.672 65.1142 277.489 65.4981 278.07C65.8931 278.652 66.4855 278.943 67.2754 278.943ZM75.4907 271.159V279.979H74.0426V271.159H75.4907ZM74.7831 267.851C75.0025 267.851 75.1945 267.928 75.3591 268.082C75.5346 268.224 75.6224 268.455 75.6224 268.773C75.6224 269.08 75.5346 269.31 75.3591 269.464C75.1945 269.618 75.0025 269.694 74.7831 269.694C74.5418 269.694 74.3388 269.618 74.1742 269.464C74.0097 269.31 73.9274 269.08 73.9274 268.773C73.9274 268.455 74.0097 268.224 74.1742 268.082C74.3388 267.928 74.5418 267.851 74.7831 267.851ZM80.2269 279.979L76.8864 271.159H78.4332L80.3092 276.359C80.397 276.6 80.4902 276.869 80.5889 277.165C80.6877 277.462 80.7754 277.747 80.8522 278.021C80.929 278.284 80.9839 278.509 81.0168 278.696H81.0826C81.1265 278.509 81.1868 278.279 81.2636 278.005C81.3514 277.73 81.4447 277.445 81.5434 277.149C81.6531 276.853 81.7463 276.589 81.8231 276.359L83.6991 271.159H85.246L81.889 279.979H80.2269ZM88.0897 271.159V279.979H86.6416V271.159H88.0897ZM87.3821 267.851C87.6015 267.851 87.7935 267.928 87.9581 268.082C88.1336 268.224 88.2214 268.455 88.2214 268.773C88.2214 269.08 88.1336 269.31 87.9581 269.464C87.7935 269.618 87.6015 269.694 87.3821 269.694C87.1408 269.694 86.9378 269.618 86.7733 269.464C86.6087 269.31 86.5264 269.08 86.5264 268.773C86.5264 268.455 86.6087 268.224 86.7733 268.082C86.9378 267.928 87.1408 267.851 87.3821 267.851ZM96.6272 277.544C96.6272 278.114 96.4846 278.591 96.1994 278.975C95.9142 279.359 95.5082 279.65 94.9817 279.848C94.4551 280.045 93.8297 280.144 93.1057 280.144C92.4913 280.144 91.9593 280.094 91.5095 279.996C91.0706 279.897 90.6812 279.76 90.3411 279.584V278.268C90.6922 278.443 91.1145 278.608 91.6082 278.762C92.1129 278.904 92.623 278.975 93.1386 278.975C93.8736 278.975 94.4057 278.86 94.7348 278.63C95.0639 278.389 95.2285 278.07 95.2285 277.675C95.2285 277.456 95.1682 277.259 95.0475 277.083C94.9268 276.907 94.7074 276.732 94.3892 276.556C94.0821 276.381 93.6378 276.183 93.0563 275.964C92.4859 275.745 91.9977 275.525 91.5917 275.306C91.1858 275.086 90.8732 274.823 90.6538 274.516C90.4344 274.209 90.3246 273.814 90.3246 273.331C90.3246 272.585 90.6263 272.009 91.2297 271.603C91.8441 271.197 92.6449 270.994 93.6323 270.994C94.1698 270.994 94.669 271.049 95.1298 271.159C95.6015 271.258 96.0403 271.4 96.4462 271.587L95.9526 272.739C95.7112 272.629 95.4534 272.536 95.1791 272.459C94.9158 272.371 94.6471 272.305 94.3728 272.261C94.0985 272.207 93.8188 272.179 93.5335 272.179C92.9411 272.179 92.4859 272.278 92.1677 272.475C91.8605 272.662 91.7069 272.92 91.7069 273.249C91.7069 273.49 91.7782 273.699 91.9209 273.874C92.0635 274.039 92.2994 274.203 92.6285 274.368C92.9686 274.521 93.4183 274.708 93.9778 274.927C94.5373 275.136 95.0146 275.35 95.4095 275.569C95.8045 275.788 96.1061 276.057 96.3146 276.375C96.523 276.683 96.6272 277.072 96.6272 277.544ZM100.207 271.159V279.979H98.7585V271.159H100.207ZM99.499 267.851C99.7185 267.851 99.9104 267.928 100.075 268.082C100.251 268.224 100.338 268.455 100.338 268.773C100.338 269.08 100.251 269.31 100.075 269.464C99.9104 269.618 99.7185 269.694 99.499 269.694C99.2577 269.694 99.0547 269.618 98.8902 269.464C98.7256 269.31 98.6433 269.08 98.6433 268.773C98.6433 268.455 98.7256 268.224 98.8902 268.082C99.0547 267.928 99.2577 267.851 99.499 267.851ZM110.669 275.553C110.669 276.288 110.571 276.94 110.373 277.511C110.187 278.07 109.913 278.548 109.55 278.943C109.199 279.337 108.766 279.639 108.25 279.848C107.746 280.045 107.181 280.144 106.556 280.144C105.974 280.144 105.437 280.045 104.943 279.848C104.449 279.639 104.021 279.337 103.659 278.943C103.297 278.548 103.012 278.07 102.804 277.511C102.606 276.94 102.507 276.288 102.507 275.553C102.507 274.576 102.672 273.753 103.001 273.084C103.33 272.404 103.802 271.888 104.416 271.537C105.031 271.175 105.76 270.994 106.605 270.994C107.406 270.994 108.108 271.175 108.711 271.537C109.326 271.888 109.803 272.404 110.143 273.084C110.494 273.753 110.669 274.576 110.669 275.553ZM104.005 275.553C104.005 276.244 104.093 276.847 104.268 277.363C104.455 277.867 104.74 278.257 105.124 278.531C105.508 278.805 105.996 278.943 106.588 278.943C107.181 278.943 107.669 278.805 108.053 278.531C108.437 278.257 108.717 277.867 108.892 277.363C109.079 276.847 109.172 276.244 109.172 275.553C109.172 274.851 109.079 274.253 108.892 273.759C108.706 273.265 108.421 272.887 108.037 272.623C107.664 272.349 107.175 272.212 106.572 272.212C105.672 272.212 105.02 272.508 104.614 273.101C104.208 273.693 104.005 274.51 104.005 275.553ZM117.21 270.994C118.263 270.994 119.059 271.252 119.596 271.768C120.134 272.272 120.403 273.095 120.403 274.236V279.979H118.971V274.335C118.971 273.622 118.812 273.09 118.494 272.739C118.176 272.388 117.676 272.212 116.996 272.212C116.02 272.212 115.345 272.486 114.972 273.035C114.599 273.583 114.413 274.373 114.413 275.405V279.979H112.965V271.159H114.133L114.347 272.36H114.429C114.627 272.053 114.868 271.801 115.153 271.603C115.449 271.395 115.773 271.241 116.124 271.142C116.475 271.044 116.837 270.994 117.21 270.994ZM131.209 278.959C131.428 278.959 131.653 278.943 131.884 278.91C132.114 278.866 132.301 278.822 132.443 278.778V279.881C132.29 279.957 132.07 280.018 131.785 280.062C131.5 280.116 131.225 280.144 130.962 280.144C130.501 280.144 130.074 280.067 129.679 279.913C129.295 279.749 128.982 279.469 128.741 279.074C128.499 278.679 128.379 278.125 128.379 277.412V272.278H127.128V271.587L128.395 271.011L128.971 269.135H129.827V271.159H132.377V272.278H129.827V277.379C129.827 277.917 129.953 278.317 130.205 278.58C130.468 278.833 130.803 278.959 131.209 278.959ZM141.582 271.159V279.979H140.397L140.183 278.811H140.117C139.931 279.118 139.689 279.37 139.393 279.568C139.097 279.765 138.773 279.908 138.422 279.996C138.071 280.094 137.703 280.144 137.32 280.144C136.617 280.144 136.025 280.034 135.542 279.815C135.071 279.584 134.714 279.233 134.473 278.762C134.231 278.29 134.111 277.681 134.111 276.935V271.159H135.575V276.836C135.575 277.538 135.734 278.065 136.052 278.416C136.371 278.767 136.864 278.943 137.533 278.943C138.192 278.943 138.707 278.822 139.08 278.58C139.464 278.328 139.733 277.966 139.887 277.494C140.051 277.012 140.133 276.43 140.133 275.75V271.159H141.582ZM147.327 278.959C147.547 278.959 147.772 278.943 148.002 278.91C148.232 278.866 148.419 278.822 148.562 278.778V279.881C148.408 279.957 148.189 280.018 147.903 280.062C147.618 280.116 147.344 280.144 147.081 280.144C146.62 280.144 146.192 280.067 145.797 279.913C145.413 279.749 145.1 279.469 144.859 279.074C144.618 278.679 144.497 278.125 144.497 277.412V272.278H143.246V271.587L144.513 271.011L145.089 269.135H145.945V271.159H148.496V272.278H145.945V277.379C145.945 277.917 146.071 278.317 146.324 278.58C146.587 278.833 146.921 278.959 147.327 278.959ZM157.996 275.553C157.996 276.288 157.897 276.94 157.7 277.511C157.513 278.07 157.239 278.548 156.877 278.943C156.526 279.337 156.093 279.639 155.577 279.848C155.073 280.045 154.508 280.144 153.882 280.144C153.301 280.144 152.763 280.045 152.27 279.848C151.776 279.639 151.348 279.337 150.986 278.943C150.624 278.548 150.339 278.07 150.13 277.511C149.933 276.94 149.834 276.288 149.834 275.553C149.834 274.576 149.999 273.753 150.328 273.084C150.657 272.404 151.129 271.888 151.743 271.537C152.357 271.175 153.087 270.994 153.932 270.994C154.732 270.994 155.435 271.175 156.038 271.537C156.652 271.888 157.13 272.404 157.47 273.084C157.821 273.753 157.996 274.576 157.996 275.553ZM151.332 275.553C151.332 276.244 151.419 276.847 151.595 277.363C151.781 277.867 152.067 278.257 152.451 278.531C152.835 278.805 153.323 278.943 153.915 278.943C154.508 278.943 154.996 278.805 155.38 278.531C155.764 278.257 156.043 277.867 156.219 277.363C156.405 276.847 156.499 276.244 156.499 275.553C156.499 274.851 156.405 274.253 156.219 273.759C156.032 273.265 155.747 272.887 155.363 272.623C154.99 272.349 154.502 272.212 153.899 272.212C152.999 272.212 152.346 272.508 151.94 273.101C151.535 273.693 151.332 274.51 151.332 275.553ZM164.405 270.994C164.57 270.994 164.745 271.005 164.932 271.027C165.129 271.038 165.299 271.06 165.442 271.093L165.261 272.426C165.118 272.393 164.959 272.366 164.784 272.344C164.619 272.322 164.46 272.311 164.306 272.311C163.966 272.311 163.643 272.382 163.336 272.525C163.028 272.667 162.754 272.87 162.513 273.134C162.271 273.386 162.079 273.693 161.937 274.055C161.805 274.417 161.739 274.823 161.739 275.273V279.979H160.291V271.159H161.476L161.641 272.772H161.706C161.893 272.442 162.118 272.146 162.381 271.883C162.644 271.609 162.946 271.395 163.286 271.241C163.626 271.077 163.999 270.994 164.405 270.994ZM172.832 277.544C172.832 278.114 172.689 278.591 172.404 278.975C172.119 279.359 171.713 279.65 171.186 279.848C170.66 280.045 170.035 280.144 169.311 280.144C168.696 280.144 168.164 280.094 167.714 279.996C167.275 279.897 166.886 279.76 166.546 279.584V278.268C166.897 278.443 167.319 278.608 167.813 278.762C168.318 278.904 168.828 278.975 169.343 278.975C170.078 278.975 170.611 278.86 170.94 278.63C171.269 278.389 171.433 278.07 171.433 277.675C171.433 277.456 171.373 277.259 171.252 277.083C171.132 276.907 170.912 276.732 170.594 276.556C170.287 276.381 169.843 276.183 169.261 275.964C168.691 275.745 168.202 275.525 167.797 275.306C167.391 275.086 167.078 274.823 166.859 274.516C166.639 274.209 166.529 273.814 166.529 273.331C166.529 272.585 166.831 272.009 167.435 271.603C168.049 271.197 168.85 270.994 169.837 270.994C170.375 270.994 170.874 271.049 171.335 271.159C171.806 271.258 172.245 271.4 172.651 271.587L172.157 272.739C171.916 272.629 171.658 272.536 171.384 272.459C171.121 272.371 170.852 272.305 170.578 272.261C170.303 272.207 170.024 272.179 169.738 272.179C169.146 272.179 168.691 272.278 168.373 272.475C168.065 272.662 167.912 272.92 167.912 273.249C167.912 273.49 167.983 273.699 168.126 273.874C168.268 274.039 168.504 274.203 168.833 274.368C169.173 274.521 169.623 274.708 170.183 274.927C170.742 275.136 171.219 275.35 171.614 275.569C172.009 275.788 172.311 276.057 172.519 276.375C172.728 276.683 172.832 277.072 172.832 277.544Z" fill="#F0F0F0"/>
<path d="M193.066 80.5877C193.027 77.5945 191.435 74.8368 188.862 73.3065L121.25 33.0902C118.574 31.4987 115.247 31.4771 112.551 33.0337L46.2969 71.2857C43.6008 72.8423 41.9562 75.7341 41.9967 78.847L43.0189 157.509C43.0578 160.502 44.6499 163.26 47.2227 164.79L114.835 205.007C117.51 206.598 120.837 206.62 123.533 205.063L189.788 166.811C192.484 165.254 194.128 162.363 194.088 159.25L193.066 80.5877Z" fill="url(#paint0_linear_287_42)" stroke="url(#paint1_linear_287_42)" stroke-width="2.24398"/>
<path d="M69.3782 131.146L85.2801 96.6669H90.4817L108.464 131.146H99.7702L88.1038 107.813L77.9236 131.146H69.3782ZM141.367 150.02L125.911 109.448H137.503L145.305 132.558C145.603 133.449 145.85 134.391 146.048 135.381C146.296 136.372 146.469 137.338 146.569 138.279C146.717 139.221 146.816 140.088 146.866 140.88H147.163C147.213 140.038 147.312 139.146 147.46 138.205C147.609 137.264 147.782 136.323 147.98 135.381C148.228 134.391 148.501 133.449 148.798 132.558L156.6 109.448H168.192L152.736 150.02H141.367Z" fill="url(#paint2_linear_287_42)"/>
<defs>
<linearGradient id="paint0_linear_287_42" x1="288.211" y1="260.045" x2="167.694" y2="7.94566" gradientUnits="userSpaceOnUse">
<stop offset="0.379733" stop-color="#FFDE28" stop-opacity="0.7"/>
<stop offset="0.988905" stop-color="#FFDE28" stop-opacity="0.1"/>
</linearGradient>
<linearGradient id="paint1_linear_287_42" x1="32.689" y1="59.4229" x2="295.242" y2="234.711" gradientUnits="userSpaceOnUse">
<stop offset="0.129324" stop-color="#5D4E00"/>
<stop offset="0.247324" stop-color="#FFDE28"/>
<stop offset="0.401695" stop-color="#FFFD8F"/>
<stop offset="0.520532" stop-color="#DAC139"/>
<stop offset="0.659271" stop-color="#978000"/>
</linearGradient>
<linearGradient id="paint2_linear_287_42" x1="93.3474" y1="100.02" x2="152.769" y2="161.19" gradientUnits="userSpaceOnUse">
<stop/>
<stop offset="1" stop-color="#454000"/>
</linearGradient>
</defs>
</svg>
