<svg width="237" height="284" viewBox="0 0 237 284" fill="none" xmlns="http://www.w3.org/2000/svg">
<path d="M60.9181 254.979H59.4371V249.499H53.4142V254.979H51.9332V243.23H53.4142V248.199H59.4371V243.23H60.9181V254.979ZM71.6014 250.553C71.6014 251.288 71.5027 251.94 71.3052 252.511C71.1187 253.07 70.8445 253.548 70.4824 253.943C70.1314 254.337 69.698 254.639 69.1824 254.848C68.6778 255.045 68.1128 255.144 67.4875 255.144C66.906 255.144 66.3685 255.045 65.8748 254.848C65.3811 254.639 64.9533 254.337 64.5912 253.943C64.2292 253.548 63.944 253.07 63.7355 252.511C63.5381 251.94 63.4393 251.288 63.4393 250.553C63.4393 249.576 63.6039 248.753 63.933 248.084C64.2621 247.404 64.7339 246.888 65.3482 246.537C65.9626 246.175 66.6921 245.994 67.5368 245.994C68.3377 245.994 69.0398 246.175 69.6432 246.537C70.2575 246.888 70.7348 247.404 71.0749 248.084C71.4259 248.753 71.6014 249.576 71.6014 250.553ZM64.9368 250.553C64.9368 251.244 65.0246 251.847 65.2001 252.363C65.3866 252.867 65.6718 253.257 66.0558 253.531C66.4398 253.805 66.928 253.943 67.5204 253.943C68.1128 253.943 68.601 253.805 68.985 253.531C69.3689 253.257 69.6487 252.867 69.8242 252.363C70.0107 251.847 70.104 251.244 70.104 250.553C70.104 249.851 70.0107 249.253 69.8242 248.759C69.6377 248.265 69.3525 247.887 68.9685 247.623C68.5955 247.349 68.1073 247.212 67.5039 247.212C66.6043 247.212 65.9516 247.508 65.5457 248.101C65.1398 248.693 64.9368 249.51 64.9368 250.553ZM81.2688 246.159V254.979H80.0839L79.87 253.811H79.8042C79.6177 254.118 79.3763 254.37 79.0801 254.568C78.7839 254.765 78.4603 254.908 78.1092 254.996C77.7582 255.094 77.3907 255.144 77.0067 255.144C76.3046 255.144 75.7122 255.034 75.2294 254.815C74.7577 254.584 74.4012 254.233 74.1598 253.762C73.9185 253.29 73.7978 252.681 73.7978 251.935V246.159H75.2624V251.836C75.2624 252.538 75.4214 253.065 75.7396 253.416C76.0577 253.767 76.5514 253.943 77.2206 253.943C77.8788 253.943 78.3945 253.822 78.7675 253.58C79.1514 253.328 79.4202 252.966 79.5738 252.494C79.7384 252.012 79.8206 251.43 79.8206 250.75V246.159H81.2688ZM88.1829 245.994C88.3475 245.994 88.523 246.005 88.7095 246.027C88.907 246.038 89.077 246.06 89.2196 246.093L89.0386 247.426C88.896 247.393 88.7369 247.366 88.5614 247.344C88.3968 247.322 88.2378 247.311 88.0842 247.311C87.7441 247.311 87.4205 247.382 87.1133 247.525C86.8061 247.667 86.5318 247.87 86.2905 248.134C86.0491 248.386 85.8572 248.693 85.7145 249.055C85.5829 249.417 85.5171 249.823 85.5171 250.273V254.979H84.0689V246.159H85.2538L85.4183 247.772H85.4842C85.6707 247.442 85.8956 247.146 86.1588 246.883C86.4221 246.609 86.7238 246.395 87.0639 246.241C87.404 246.077 87.777 245.994 88.1829 245.994ZM96.6097 252.544C96.6097 253.114 96.4671 253.591 96.1819 253.975C95.8966 254.359 95.4907 254.65 94.9641 254.848C94.4376 255.045 93.8122 255.144 93.0882 255.144C92.4738 255.144 91.9418 255.094 91.492 254.996C91.0531 254.897 90.6637 254.76 90.3236 254.584V253.268C90.6747 253.443 91.097 253.608 91.5907 253.762C92.0953 253.904 92.6055 253.975 93.1211 253.975C93.8561 253.975 94.3882 253.86 94.7173 253.63C95.0464 253.389 95.211 253.07 95.211 252.675C95.211 252.456 95.1506 252.259 95.03 252.083C94.9093 251.907 94.6899 251.732 94.3717 251.556C94.0646 251.381 93.6203 251.183 93.0388 250.964C92.4683 250.745 91.9802 250.525 91.5742 250.306C91.1683 250.086 90.8557 249.823 90.6363 249.516C90.4168 249.209 90.3071 248.814 90.3071 248.331C90.3071 247.585 90.6088 247.009 91.2122 246.603C91.8266 246.197 92.6274 245.994 93.6148 245.994C94.1523 245.994 94.6515 246.049 95.1123 246.159C95.584 246.258 96.0228 246.4 96.4287 246.587L95.935 247.739C95.6937 247.629 95.4359 247.536 95.1616 247.459C94.8983 247.371 94.6295 247.305 94.3553 247.261C94.081 247.207 93.8013 247.179 93.516 247.179C92.9236 247.179 92.4683 247.278 92.1502 247.475C91.843 247.662 91.6894 247.92 91.6894 248.249C91.6894 248.49 91.7607 248.699 91.9034 248.874C92.046 249.039 92.2818 249.203 92.611 249.368C92.951 249.521 93.4008 249.708 93.9603 249.927C94.5198 250.136 94.9971 250.35 95.392 250.569C95.7869 250.788 96.0886 251.057 96.2971 251.375C96.5055 251.683 96.6097 252.072 96.6097 252.544ZM111.536 250.553C111.536 251.288 111.437 251.94 111.24 252.511C111.053 253.07 110.779 253.548 110.417 253.943C110.066 254.337 109.632 254.639 109.117 254.848C108.612 255.045 108.047 255.144 107.422 255.144C106.84 255.144 106.303 255.045 105.809 254.848C105.316 254.639 104.888 254.337 104.526 253.943C104.164 253.548 103.878 253.07 103.67 252.511C103.472 251.94 103.374 251.288 103.374 250.553C103.374 249.576 103.538 248.753 103.867 248.084C104.197 247.404 104.668 246.888 105.283 246.537C105.897 246.175 106.627 245.994 107.471 245.994C108.272 245.994 108.974 246.175 109.578 246.537C110.192 246.888 110.669 247.404 111.009 248.084C111.36 248.753 111.536 249.576 111.536 250.553ZM104.871 250.553C104.871 251.244 104.959 251.847 105.135 252.363C105.321 252.867 105.606 253.257 105.99 253.531C106.374 253.805 106.862 253.943 107.455 253.943C108.047 253.943 108.535 253.805 108.919 253.531C109.303 253.257 109.583 252.867 109.759 252.363C109.945 251.847 110.038 251.244 110.038 250.553C110.038 249.851 109.945 249.253 109.759 248.759C109.572 248.265 109.287 247.887 108.903 247.623C108.53 247.349 108.042 247.212 107.438 247.212C106.539 247.212 105.886 247.508 105.48 248.101C105.074 248.693 104.871 249.51 104.871 250.553ZM117.896 247.278H115.674V254.979H114.226V247.278H112.679V246.603L114.226 246.11V245.599C114.226 244.842 114.336 244.228 114.555 243.756C114.785 243.285 115.114 242.939 115.542 242.72C115.97 242.5 116.486 242.391 117.089 242.391C117.44 242.391 117.758 242.423 118.044 242.489C118.34 242.544 118.592 242.61 118.801 242.687L118.422 243.822C118.247 243.767 118.044 243.712 117.813 243.658C117.583 243.603 117.347 243.575 117.106 243.575C116.623 243.575 116.261 243.74 116.02 244.069C115.789 244.387 115.674 244.892 115.674 245.583V246.159H117.896V247.278ZM127.56 253.959C127.779 253.959 128.004 253.943 128.234 253.91C128.465 253.866 128.651 253.822 128.794 253.778V254.881C128.64 254.957 128.421 255.018 128.136 255.062C127.85 255.116 127.576 255.144 127.313 255.144C126.852 255.144 126.424 255.067 126.029 254.913C125.645 254.749 125.333 254.469 125.091 254.074C124.85 253.679 124.729 253.125 124.729 252.412V247.278H123.479V246.587L124.746 246.011L125.322 244.135H126.177V246.159H128.728V247.278H126.177V252.379C126.177 252.917 126.303 253.317 126.556 253.58C126.819 253.833 127.154 253.959 127.56 253.959ZM137.932 246.159V254.979H136.747L136.533 253.811H136.468C136.281 254.118 136.04 254.37 135.744 254.568C135.447 254.765 135.124 254.908 134.773 254.996C134.422 255.094 134.054 255.144 133.67 255.144C132.968 255.144 132.376 255.034 131.893 254.815C131.421 254.584 131.065 254.233 130.823 253.762C130.582 253.29 130.461 252.681 130.461 251.935V246.159H131.926V251.836C131.926 252.538 132.085 253.065 132.403 253.416C132.721 253.767 133.215 253.943 133.884 253.943C134.542 253.943 135.058 253.822 135.431 253.58C135.815 253.328 136.084 252.966 136.237 252.494C136.402 252.012 136.484 251.43 136.484 250.75V246.159H137.932ZM143.678 253.959C143.897 253.959 144.122 253.943 144.353 253.91C144.583 253.866 144.77 253.822 144.912 253.778V254.881C144.759 254.957 144.539 255.018 144.254 255.062C143.969 255.116 143.694 255.144 143.431 255.144C142.97 255.144 142.543 255.067 142.148 254.913C141.764 254.749 141.451 254.469 141.21 254.074C140.968 253.679 140.848 253.125 140.848 252.412V247.278H139.597V246.587L140.864 246.011L141.44 244.135H142.296V246.159H144.846V247.278H142.296V252.379C142.296 252.917 142.422 253.317 142.674 253.58C142.937 253.833 143.272 253.959 143.678 253.959ZM154.347 250.553C154.347 251.288 154.248 251.94 154.051 252.511C153.864 253.07 153.59 253.548 153.228 253.943C152.877 254.337 152.443 254.639 151.928 254.848C151.423 255.045 150.858 255.144 150.233 255.144C149.651 255.144 149.114 255.045 148.62 254.848C148.126 254.639 147.699 254.337 147.337 253.943C146.975 253.548 146.689 253.07 146.481 252.511C146.283 251.94 146.185 251.288 146.185 250.553C146.185 249.576 146.349 248.753 146.678 248.084C147.007 247.404 147.479 246.888 148.094 246.537C148.708 246.175 149.437 245.994 150.282 245.994C151.083 245.994 151.785 246.175 152.389 246.537C153.003 246.888 153.48 247.404 153.82 248.084C154.171 248.753 154.347 249.576 154.347 250.553ZM147.682 250.553C147.682 251.244 147.77 251.847 147.945 252.363C148.132 252.867 148.417 253.257 148.801 253.531C149.185 253.805 149.673 253.943 150.266 253.943C150.858 253.943 151.346 253.805 151.73 253.531C152.114 253.257 152.394 252.867 152.57 252.363C152.756 251.847 152.849 251.244 152.849 250.553C152.849 249.851 152.756 249.253 152.57 248.759C152.383 248.265 152.098 247.887 151.714 247.623C151.341 247.349 150.853 247.212 150.249 247.212C149.35 247.212 148.697 247.508 148.291 248.101C147.885 248.693 147.682 249.51 147.682 250.553ZM160.756 245.994C160.92 245.994 161.096 246.005 161.282 246.027C161.48 246.038 161.65 246.06 161.793 246.093L161.612 247.426C161.469 247.393 161.31 247.366 161.134 247.344C160.97 247.322 160.811 247.311 160.657 247.311C160.317 247.311 159.993 247.382 159.686 247.525C159.379 247.667 159.105 247.87 158.863 248.134C158.622 248.386 158.43 248.693 158.287 249.055C158.156 249.417 158.09 249.823 158.09 250.273V254.979H156.642V246.159H157.827L157.991 247.772H158.057C158.244 247.442 158.468 247.146 158.732 246.883C158.995 246.609 159.297 246.395 159.637 246.241C159.977 246.077 160.35 245.994 160.756 245.994ZM164.888 246.159V254.979H163.44V246.159H164.888ZM164.18 242.851C164.4 242.851 164.591 242.928 164.756 243.082C164.932 243.224 165.019 243.455 165.019 243.773C165.019 244.08 164.932 244.31 164.756 244.464C164.591 244.618 164.4 244.694 164.18 244.694C163.939 244.694 163.736 244.618 163.571 244.464C163.407 244.31 163.324 244.08 163.324 243.773C163.324 243.455 163.407 243.224 163.571 243.082C163.736 242.928 163.939 242.851 164.18 242.851ZM171.928 245.994C172.981 245.994 173.776 246.252 174.314 246.768C174.851 247.272 175.12 248.095 175.12 249.236V254.979H173.688V249.335C173.688 248.622 173.529 248.09 173.211 247.739C172.893 247.388 172.394 247.212 171.714 247.212C170.737 247.212 170.063 247.486 169.69 248.035C169.317 248.583 169.13 249.373 169.13 250.405V254.979H167.682V246.159H168.85L169.064 247.36H169.147C169.344 247.053 169.585 246.801 169.871 246.603C170.167 246.395 170.491 246.241 170.842 246.142C171.193 246.044 171.555 245.994 171.928 245.994ZM180.981 245.994C181.563 245.994 182.084 246.104 182.544 246.323C183.016 246.543 183.417 246.877 183.746 247.327H183.828L184.025 246.159H185.177V255.127C185.177 255.961 185.035 256.658 184.75 257.217C184.464 257.788 184.031 258.216 183.45 258.501C182.868 258.786 182.128 258.929 181.228 258.929C180.592 258.929 180.005 258.879 179.467 258.781C178.941 258.693 178.469 258.556 178.052 258.369V257.036C178.337 257.179 178.65 257.3 178.99 257.398C179.33 257.508 179.698 257.59 180.093 257.645C180.487 257.7 180.893 257.727 181.31 257.727C182.067 257.727 182.66 257.502 183.087 257.053C183.526 256.614 183.746 256.01 183.746 255.243V254.897C183.746 254.765 183.751 254.579 183.762 254.337C183.773 254.085 183.784 253.91 183.795 253.811H183.729C183.422 254.261 183.038 254.595 182.577 254.815C182.128 255.034 181.601 255.144 180.998 255.144C179.857 255.144 178.963 254.743 178.315 253.943C177.679 253.142 177.361 252.023 177.361 250.586C177.361 249.642 177.503 248.83 177.789 248.15C178.085 247.459 178.502 246.927 179.039 246.554C179.577 246.181 180.224 245.994 180.981 245.994ZM181.179 247.212C180.685 247.212 180.263 247.344 179.912 247.607C179.571 247.87 179.308 248.254 179.122 248.759C178.946 249.264 178.858 249.878 178.858 250.602C178.858 251.688 179.056 252.522 179.451 253.103C179.857 253.674 180.444 253.959 181.212 253.959C181.661 253.959 182.045 253.904 182.363 253.794C182.682 253.674 182.945 253.493 183.153 253.251C183.362 252.999 183.515 252.681 183.614 252.297C183.713 251.913 183.762 251.458 183.762 250.931V250.586C183.762 249.785 183.669 249.137 183.482 248.644C183.307 248.15 183.027 247.788 182.643 247.558C182.259 247.327 181.771 247.212 181.179 247.212ZM60.9067 275.553C60.9067 276.288 60.808 276.94 60.6105 277.511C60.424 278.07 60.1498 278.548 59.7877 278.943C59.4367 279.337 59.0033 279.639 58.4877 279.848C57.9831 280.045 57.4181 280.144 56.7928 280.144C56.2113 280.144 55.6738 280.045 55.1801 279.848C54.6864 279.639 54.2586 279.337 53.8965 278.943C53.5345 278.548 53.2493 278.07 53.0408 277.511C52.8434 276.94 52.7446 276.288 52.7446 275.553C52.7446 274.576 52.9092 273.753 53.2383 273.084C53.5674 272.404 54.0392 271.888 54.6535 271.537C55.2679 271.175 55.9974 270.994 56.8421 270.994C57.643 270.994 58.3451 271.175 58.9485 271.537C59.5628 271.888 60.0401 272.404 60.3802 273.084C60.7312 273.753 60.9067 274.576 60.9067 275.553ZM54.2421 275.553C54.2421 276.244 54.3299 276.847 54.5054 277.363C54.6919 277.867 54.9771 278.257 55.3611 278.531C55.7451 278.805 56.2333 278.943 56.8257 278.943C57.4181 278.943 57.9063 278.805 58.2903 278.531C58.6742 278.257 58.954 277.867 59.1295 277.363C59.316 276.847 59.4093 276.244 59.4093 275.553C59.4093 274.851 59.316 274.253 59.1295 273.759C58.943 273.265 58.6578 272.887 58.2738 272.623C57.9008 272.349 57.4126 272.212 56.8092 272.212C55.9096 272.212 55.2569 272.508 54.851 273.101C54.4451 273.693 54.2421 274.51 54.2421 275.553ZM67.2664 272.278H65.0449V279.979H63.5968V272.278H62.0499V271.603L63.5968 271.11V270.599C63.5968 269.842 63.7065 269.228 63.9259 268.756C64.1563 268.285 64.4854 267.939 64.9132 267.72C65.3411 267.5 65.8567 267.391 66.4601 267.391C66.8111 267.391 67.1293 267.423 67.4145 267.489C67.7107 267.544 67.963 267.61 68.1715 267.687L67.793 268.822C67.6175 268.767 67.4145 268.712 67.1841 268.658C66.9538 268.603 66.7179 268.575 66.4765 268.575C65.9938 268.575 65.6318 268.74 65.3904 269.069C65.1601 269.387 65.0449 269.892 65.0449 270.583V271.159H67.2664V272.278ZM72.9272 272.278H70.7057V279.979H69.2576V272.278H67.7107V271.603L69.2576 271.11V270.599C69.2576 269.842 69.3673 269.228 69.5867 268.756C69.8171 268.285 70.1462 267.939 70.574 267.72C71.0019 267.5 71.5175 267.391 72.1209 267.391C72.472 267.391 72.7901 267.423 73.0753 267.489C73.3715 267.544 73.6239 267.61 73.8323 267.687L73.4538 268.822C73.2783 268.767 73.0753 268.712 72.845 268.658C72.6146 268.603 72.3787 268.575 72.1374 268.575C71.6546 268.575 71.2926 268.74 71.0513 269.069C70.8209 269.387 70.7057 269.892 70.7057 270.583V271.159H72.9272V272.278ZM77.9377 270.994C78.6946 270.994 79.3419 271.159 79.8795 271.488C80.428 271.817 80.8449 272.283 81.1301 272.887C81.4263 273.479 81.5744 274.176 81.5744 274.977V275.849H75.5351C75.557 276.847 75.8094 277.61 76.2921 278.136C76.7857 278.652 77.4714 278.91 78.3491 278.91C78.9086 278.91 79.4022 278.86 79.8301 278.762C80.2689 278.652 80.7187 278.498 81.1795 278.301V279.568C80.7297 279.765 80.2854 279.908 79.8465 279.996C79.4077 280.094 78.8866 280.144 78.2832 280.144C77.4495 280.144 76.709 279.974 76.0617 279.634C75.4254 279.294 74.9262 278.789 74.5642 278.12C74.2131 277.44 74.0376 276.611 74.0376 275.635C74.0376 274.669 74.1967 273.841 74.5148 273.15C74.844 272.459 75.2992 271.927 75.8807 271.554C76.4731 271.181 77.1587 270.994 77.9377 270.994ZM77.9212 272.179C77.2301 272.179 76.6815 272.404 76.2756 272.854C75.8807 273.293 75.6448 273.907 75.568 274.697H80.0605C80.0605 274.192 79.9837 273.753 79.8301 273.38C79.6765 273.007 79.4406 272.717 79.1225 272.508C78.8153 272.289 78.4149 272.179 77.9212 272.179ZM87.9338 270.994C88.0984 270.994 88.2739 271.005 88.4604 271.027C88.6579 271.038 88.8279 271.06 88.9705 271.093L88.7895 272.426C88.6469 272.393 88.4878 272.366 88.3123 272.344C88.1478 272.322 87.9887 272.311 87.8351 272.311C87.495 272.311 87.1714 272.382 86.8642 272.525C86.557 272.667 86.2828 272.87 86.0414 273.134C85.8001 273.386 85.6081 273.693 85.4654 274.055C85.3338 274.417 85.268 274.823 85.268 275.273V279.979H83.8199V271.159H85.0047L85.1692 272.772H85.2351C85.4216 272.442 85.6465 272.146 85.9098 271.883C86.1731 271.609 86.4747 271.395 86.8148 271.241C87.1549 271.077 87.5279 270.994 87.9338 270.994ZM93.7025 270.994C94.4595 270.994 95.1067 271.159 95.6443 271.488C96.1928 271.817 96.6097 272.283 96.8949 272.887C97.1912 273.479 97.3393 274.176 97.3393 274.977V275.849H91.3C91.3219 276.847 91.5742 277.61 92.0569 278.136C92.5506 278.652 93.2363 278.91 94.1139 278.91C94.6734 278.91 95.1671 278.86 95.5949 278.762C96.0338 278.652 96.4836 278.498 96.9443 278.301V279.568C96.4945 279.765 96.0502 279.908 95.6114 279.996C95.1726 280.094 94.6515 280.144 94.0481 280.144C93.2143 280.144 92.4738 279.974 91.8265 279.634C91.1902 279.294 90.6911 278.789 90.3291 278.12C89.978 277.44 89.8025 276.611 89.8025 275.635C89.8025 274.669 89.9615 273.841 90.2797 273.15C90.6088 272.459 91.0641 271.927 91.6455 271.554C92.2379 271.181 92.9236 270.994 93.7025 270.994ZM93.6861 272.179C92.9949 272.179 92.4464 272.404 92.0405 272.854C91.6455 273.293 91.4097 273.907 91.3329 274.697H95.8253C95.8253 274.192 95.7485 273.753 95.5949 273.38C95.4413 273.007 95.2055 272.717 94.8873 272.508C94.5802 272.289 94.1797 272.179 93.6861 272.179ZM102.711 280.144C101.614 280.144 100.737 279.765 100.078 279.008C99.4201 278.24 99.091 277.099 99.091 275.586C99.091 274.072 99.4201 272.931 100.078 272.163C100.748 271.384 101.631 270.994 102.728 270.994C103.189 270.994 103.589 271.055 103.929 271.175C104.269 271.285 104.565 271.439 104.818 271.636C105.07 271.834 105.284 272.053 105.459 272.294H105.558C105.547 272.152 105.525 271.943 105.492 271.669C105.47 271.384 105.459 271.159 105.459 270.994V267.473H106.908V279.979H105.739L105.525 278.794H105.459C105.284 279.047 105.07 279.277 104.818 279.486C104.565 279.683 104.264 279.842 103.913 279.963C103.573 280.083 103.172 280.144 102.711 280.144ZM102.942 278.943C103.874 278.943 104.527 278.69 104.9 278.186C105.284 277.67 105.476 276.897 105.476 275.865V275.602C105.476 274.505 105.295 273.666 104.933 273.084C104.571 272.492 103.902 272.196 102.925 272.196C102.146 272.196 101.559 272.508 101.164 273.134C100.781 273.748 100.589 274.576 100.589 275.618C100.589 276.672 100.781 277.489 101.164 278.07C101.559 278.652 102.152 278.943 102.942 278.943ZM119.032 270.994C120.118 270.994 120.99 271.373 121.648 272.13C122.317 272.887 122.652 274.028 122.652 275.553C122.652 276.551 122.498 277.396 122.191 278.087C121.895 278.767 121.473 279.283 120.924 279.634C120.386 279.974 119.75 280.144 119.015 280.144C118.565 280.144 118.165 280.083 117.814 279.963C117.463 279.842 117.161 279.689 116.909 279.502C116.667 279.305 116.459 279.091 116.283 278.86H116.185C116.207 279.047 116.229 279.283 116.251 279.568C116.272 279.853 116.283 280.1 116.283 280.308V283.929H114.835V271.159H116.02L116.218 272.36H116.283C116.459 272.108 116.667 271.877 116.909 271.669C117.161 271.461 117.457 271.296 117.797 271.175C118.148 271.055 118.56 270.994 119.032 270.994ZM118.768 272.212C118.176 272.212 117.699 272.327 117.337 272.558C116.975 272.777 116.711 273.112 116.547 273.561C116.382 274.011 116.294 274.582 116.283 275.273V275.553C116.283 276.277 116.36 276.891 116.514 277.396C116.667 277.9 116.925 278.284 117.287 278.548C117.66 278.811 118.165 278.943 118.801 278.943C119.339 278.943 119.778 278.794 120.118 278.498C120.469 278.202 120.727 277.802 120.891 277.297C121.067 276.781 121.154 276.194 121.154 275.536C121.154 274.527 120.957 273.721 120.562 273.117C120.178 272.514 119.58 272.212 118.768 272.212ZM128.366 270.994C129.123 270.994 129.77 271.159 130.308 271.488C130.856 271.817 131.273 272.283 131.558 272.887C131.855 273.479 132.003 274.176 132.003 274.977V275.849H125.963C125.985 276.847 126.238 277.61 126.72 278.136C127.214 278.652 127.9 278.91 128.777 278.91C129.337 278.91 129.83 278.86 130.258 278.762C130.697 278.652 131.147 278.498 131.608 278.301V279.568C131.158 279.765 130.714 279.908 130.275 279.996C129.836 280.094 129.315 280.144 128.711 280.144C127.878 280.144 127.137 279.974 126.49 279.634C125.854 279.294 125.354 278.789 124.992 278.12C124.641 277.44 124.466 276.611 124.466 275.635C124.466 274.669 124.625 273.841 124.943 273.15C125.272 272.459 125.727 271.927 126.309 271.554C126.901 271.181 127.587 270.994 128.366 270.994ZM128.349 272.179C127.658 272.179 127.11 272.404 126.704 272.854C126.309 273.293 126.073 273.907 125.996 274.697H130.489C130.489 274.192 130.412 273.753 130.258 273.38C130.105 273.007 129.869 272.717 129.551 272.508C129.244 272.289 128.843 272.179 128.349 272.179ZM138.362 270.994C138.527 270.994 138.702 271.005 138.889 271.027C139.086 271.038 139.256 271.06 139.399 271.093L139.218 272.426C139.075 272.393 138.916 272.366 138.741 272.344C138.576 272.322 138.417 272.311 138.263 272.311C137.923 272.311 137.6 272.382 137.292 272.525C136.985 272.667 136.711 272.87 136.47 273.134C136.228 273.386 136.036 273.693 135.894 274.055C135.762 274.417 135.696 274.823 135.696 275.273V279.979H134.248V271.159H135.433L135.597 272.772H135.663C135.85 272.442 136.075 272.146 136.338 271.883C136.601 271.609 136.903 271.395 137.243 271.241C137.583 271.077 137.956 270.994 138.362 270.994ZM151.866 274.993C151.8 274.763 151.734 274.538 151.668 274.318C151.603 274.088 151.542 273.874 151.487 273.677C151.444 273.468 151.4 273.276 151.356 273.101C151.312 272.925 151.279 272.777 151.257 272.656H151.191C151.169 272.777 151.136 272.925 151.092 273.101C151.06 273.276 151.016 273.468 150.961 273.677C150.917 273.885 150.862 274.105 150.796 274.335C150.741 274.554 150.676 274.779 150.599 275.01L149.019 279.963H147.373L144.954 271.142H146.452L147.67 275.849C147.757 276.167 147.84 276.491 147.916 276.82C147.993 277.138 148.059 277.445 148.114 277.741C148.18 278.026 148.224 278.273 148.246 278.482H148.311C148.344 278.35 148.383 278.186 148.427 277.988C148.471 277.791 148.514 277.582 148.558 277.363C148.613 277.143 148.668 276.924 148.723 276.705C148.789 276.485 148.849 276.288 148.904 276.112L150.467 271.142H152.047L153.561 276.112C153.638 276.364 153.714 276.633 153.791 276.918C153.879 277.204 153.956 277.483 154.022 277.758C154.087 278.021 154.131 278.257 154.153 278.465H154.219C154.241 278.279 154.279 278.048 154.334 277.774C154.4 277.489 154.471 277.182 154.548 276.853C154.636 276.513 154.724 276.178 154.812 275.849L156.046 271.142H157.527L155.075 279.963H153.38L151.866 274.993ZM162.515 270.994C163.272 270.994 163.919 271.159 164.457 271.488C165.005 271.817 165.422 272.283 165.707 272.887C166.004 273.479 166.152 274.176 166.152 274.977V275.849H160.112C160.134 276.847 160.387 277.61 160.869 278.136C161.363 278.652 162.049 278.91 162.926 278.91C163.486 278.91 163.98 278.86 164.407 278.762C164.846 278.652 165.296 278.498 165.757 278.301V279.568C165.307 279.765 164.863 279.908 164.424 279.996C163.985 280.094 163.464 280.144 162.861 280.144C162.027 280.144 161.286 279.974 160.639 279.634C160.003 279.294 159.504 278.789 159.142 278.12C158.791 277.44 158.615 276.611 158.615 275.635C158.615 274.669 158.774 273.841 159.092 273.15C159.421 272.459 159.877 271.927 160.458 271.554C161.05 271.181 161.736 270.994 162.515 270.994ZM162.499 272.179C161.807 272.179 161.259 272.404 160.853 272.854C160.458 273.293 160.222 273.907 160.145 274.697H164.638C164.638 274.192 164.561 273.753 164.407 273.38C164.254 273.007 164.018 272.717 163.7 272.508C163.393 272.289 162.992 272.179 162.499 272.179ZM171.804 270.994C172.561 270.994 173.208 271.159 173.745 271.488C174.294 271.817 174.711 272.283 174.996 272.887C175.292 273.479 175.44 274.176 175.44 274.977V275.849H169.401C169.423 276.847 169.675 277.61 170.158 278.136C170.652 278.652 171.337 278.91 172.215 278.91C172.774 278.91 173.268 278.86 173.696 278.762C174.135 278.652 174.585 278.498 175.045 278.301V279.568C174.596 279.765 174.151 279.908 173.712 279.996C173.274 280.094 172.753 280.144 172.149 280.144C171.315 280.144 170.575 279.974 169.928 279.634C169.291 279.294 168.792 278.789 168.43 278.12C168.079 277.44 167.904 276.611 167.904 275.635C167.904 274.669 168.063 273.841 168.381 273.15C168.71 272.459 169.165 271.927 169.747 271.554C170.339 271.181 171.025 270.994 171.804 270.994ZM171.787 272.179C171.096 272.179 170.547 272.404 170.142 272.854C169.747 273.293 169.511 273.907 169.434 274.697H173.926C173.926 274.192 173.85 273.753 173.696 273.38C173.542 273.007 173.307 272.717 172.988 272.508C172.681 272.289 172.281 272.179 171.787 272.179ZM179.117 274.006C179.117 274.181 179.106 274.412 179.085 274.697C179.074 274.982 179.063 275.229 179.052 275.437H179.117C179.183 275.35 179.282 275.224 179.414 275.059C179.545 274.894 179.677 274.73 179.809 274.565C179.951 274.39 180.072 274.247 180.171 274.137L182.985 271.159H184.68L181.109 274.927L184.926 279.979H183.182L180.121 275.865L179.117 276.737V279.979H177.686V267.473H179.117V274.006Z" fill="#F0F0F0"/>
<path d="M193.482 80.5877C193.443 77.5945 191.851 74.8368 189.278 73.3065L121.666 33.0902C118.991 31.4987 115.664 31.4771 112.968 33.0337L46.7133 71.2857C44.0172 72.8423 42.3726 75.7341 42.413 78.847L43.4352 157.509C43.4741 160.502 45.0663 163.26 47.639 164.79L115.251 205.007C117.927 206.598 121.254 206.62 123.95 205.063L190.204 166.811C192.9 165.254 194.545 162.363 194.504 159.25L193.482 80.5877Z" fill="url(#paint0_linear_287_50)" stroke="url(#paint1_linear_287_50)" stroke-width="2.24398"/>
<path d="M130.602 119.405L128.893 127.802H138.256V135.307H127.481L124.658 150.02H116.707L119.53 135.307H112.471L109.722 150.02H101.919L104.595 135.307H95.9748V127.802H106.006L107.715 119.405H98.5756V111.826H109.053L111.877 97.0384H119.828L117.004 111.826H124.212L127.036 97.0384H134.838L132.014 111.826H140.708V119.405H130.602ZM113.883 127.802H121.017L122.726 119.405H115.592L113.883 127.802Z" fill="url(#paint2_linear_287_50)"/>
<defs>
<linearGradient id="paint0_linear_287_50" x1="288.627" y1="260.045" x2="168.11" y2="7.94566" gradientUnits="userSpaceOnUse">
<stop offset="0.379733" stop-color="#FFDE28" stop-opacity="0.7"/>
<stop offset="0.988905" stop-color="#FFDE28" stop-opacity="0.1"/>
</linearGradient>
<linearGradient id="paint1_linear_287_50" x1="33.1054" y1="59.4229" x2="295.658" y2="234.711" gradientUnits="userSpaceOnUse">
<stop offset="0.129324" stop-color="#5D4E00"/>
<stop offset="0.247324" stop-color="#FFDE28"/>
<stop offset="0.401695" stop-color="#FFFD8F"/>
<stop offset="0.520532" stop-color="#DAC139"/>
<stop offset="0.659271" stop-color="#978000"/>
</linearGradient>
<linearGradient id="paint2_linear_287_50" x1="106.427" y1="100.02" x2="153.951" y2="123.755" gradientUnits="userSpaceOnUse">
<stop/>
<stop offset="1" stop-color="#454000"/>
</linearGradient>
</defs>
</svg>
