<svg width="246" height="303" viewBox="0 0 246 303" fill="none" xmlns="http://www.w3.org/2000/svg">
<path d="M63.1671 264.852C63.1671 265.662 62.9707 266.353 62.5781 266.923C62.1854 267.48 61.6217 267.911 60.8871 268.215C60.1651 268.519 59.3101 268.671 58.3221 268.671C57.8154 268.671 57.3277 268.645 56.8591 268.595C56.4031 268.544 55.9851 268.474 55.6051 268.386C55.2251 268.284 54.8894 268.164 54.5981 268.025V266.391C55.0541 266.593 55.6177 266.777 56.2891 266.942C56.9731 267.106 57.6761 267.189 58.3981 267.189C59.0694 267.189 59.6331 267.1 60.0891 266.923C60.5451 266.745 60.8871 266.492 61.1151 266.163C61.3431 265.833 61.4571 265.447 61.4571 265.004C61.4571 264.56 61.3621 264.187 61.1721 263.883C60.9821 263.579 60.6527 263.3 60.1841 263.047C59.7281 262.781 59.0884 262.502 58.2651 262.211C57.6824 261.995 57.1694 261.767 56.7261 261.527C56.2954 261.273 55.9344 260.988 55.6431 260.672C55.3517 260.355 55.1301 259.994 54.9781 259.589C54.8387 259.183 54.7691 258.715 54.7691 258.183C54.7691 257.461 54.9527 256.846 55.3201 256.34C55.6874 255.82 56.1941 255.421 56.8401 255.143C57.4987 254.864 58.2524 254.725 59.1011 254.725C59.8484 254.725 60.5324 254.794 61.1531 254.934C61.7737 255.073 62.3374 255.257 62.8441 255.485L62.3121 256.948C61.8434 256.745 61.3304 256.574 60.7731 256.435C60.2284 256.295 59.6584 256.226 59.0631 256.226C58.4931 256.226 58.0181 256.308 57.6381 256.473C57.2581 256.637 56.9731 256.872 56.7831 257.176C56.5931 257.467 56.4981 257.809 56.4981 258.202C56.4981 258.658 56.5931 259.038 56.7831 259.342C56.9731 259.646 57.2834 259.918 57.7141 260.159C58.1447 260.399 58.7274 260.659 59.4621 260.938C60.2601 261.229 60.9314 261.546 61.4761 261.888C62.0334 262.217 62.4514 262.616 62.7301 263.085C63.0214 263.553 63.1671 264.142 63.1671 264.852ZM69.0728 267.303C69.3261 267.303 69.5858 267.284 69.8518 267.246C70.1178 267.195 70.3331 267.144 70.4978 267.094V268.367C70.3205 268.455 70.0671 268.525 69.7378 268.576C69.4085 268.639 69.0918 268.671 68.7878 268.671C68.2558 268.671 67.7618 268.582 67.3058 268.405C66.8625 268.215 66.5015 267.892 66.2228 267.436C65.9441 266.98 65.8048 266.34 65.8048 265.517V259.589H64.3608V258.791L65.8238 258.126L66.4888 255.96H67.4768V258.297H70.4218V259.589H67.4768V265.479C67.4768 266.099 67.6225 266.562 67.9138 266.866C68.2178 267.157 68.6041 267.303 69.0728 267.303ZM81.049 258.297V268.481H79.681L79.434 267.132H79.358C79.1427 267.486 78.864 267.778 78.522 268.006C78.18 268.234 77.8064 268.398 77.401 268.5C76.9957 268.614 76.5714 268.671 76.128 268.671C75.3174 268.671 74.6334 268.544 74.076 268.291C73.5314 268.025 73.1197 267.619 72.841 267.075C72.5624 266.53 72.423 265.827 72.423 264.966V258.297H74.114V264.852C74.114 265.662 74.2977 266.27 74.665 266.676C75.0324 267.081 75.6024 267.284 76.375 267.284C77.135 267.284 77.7304 267.144 78.161 266.866C78.6044 266.574 78.9147 266.156 79.092 265.612C79.282 265.054 79.377 264.383 79.377 263.598V258.297H81.049ZM87.8922 268.671C86.6255 268.671 85.6122 268.234 84.8522 267.36C84.0922 266.473 83.7122 265.156 83.7122 263.408C83.7122 261.66 84.0922 260.342 84.8522 259.456C85.6248 258.556 86.6445 258.107 87.9112 258.107C88.4432 258.107 88.9055 258.176 89.2982 258.316C89.6908 258.442 90.0328 258.62 90.3242 258.848C90.6155 259.076 90.8625 259.329 91.0652 259.608H91.1792C91.1665 259.443 91.1412 259.202 91.1032 258.886C91.0778 258.556 91.0652 258.297 91.0652 258.107V254.041H92.7372V268.481H91.3882L91.1412 267.113H91.0652C90.8625 267.404 90.6155 267.67 90.3242 267.911C90.0328 268.139 89.6845 268.322 89.2792 268.462C88.8865 268.601 88.4242 268.671 87.8922 268.671ZM88.1582 267.284C89.2348 267.284 89.9885 266.992 90.4192 266.41C90.8625 265.814 91.0842 264.921 91.0842 263.731V263.427C91.0842 262.16 90.8752 261.191 90.4572 260.52C90.0392 259.836 89.2665 259.494 88.1392 259.494C87.2398 259.494 86.5622 259.855 86.1062 260.577C85.6628 261.286 85.4412 262.242 85.4412 263.446C85.4412 264.662 85.6628 265.605 86.1062 266.277C86.5622 266.948 87.2462 267.284 88.1582 267.284ZM99.9046 258.107C100.779 258.107 101.526 258.297 102.147 258.677C102.78 259.057 103.261 259.595 103.591 260.292C103.933 260.976 104.104 261.78 104.104 262.705V263.712H97.1306C97.1559 264.864 97.4473 265.745 98.0046 266.353C98.5746 266.948 99.3663 267.246 100.38 267.246C101.026 267.246 101.596 267.189 102.09 267.075C102.596 266.948 103.116 266.771 103.648 266.543V268.006C103.128 268.234 102.615 268.398 102.109 268.5C101.602 268.614 101 268.671 100.304 268.671C99.3409 268.671 98.4859 268.474 97.7386 268.082C97.0039 267.689 96.4276 267.106 96.0096 266.334C95.6043 265.548 95.4016 264.592 95.4016 263.465C95.4016 262.35 95.5853 261.394 95.9526 260.596C96.3326 259.798 96.8583 259.183 97.5296 258.753C98.2136 258.322 99.0053 258.107 99.9046 258.107ZM99.8856 259.475C99.0876 259.475 98.4543 259.734 97.9856 260.254C97.5296 260.76 97.2573 261.47 97.1686 262.382H102.356C102.356 261.799 102.267 261.292 102.09 260.862C101.912 260.431 101.64 260.095 101.273 259.855C100.918 259.601 100.456 259.475 99.8856 259.475ZM111.598 258.107C112.814 258.107 113.733 258.404 114.353 259C114.974 259.582 115.284 260.532 115.284 261.85V268.481H113.631V261.964C113.631 261.14 113.448 260.526 113.08 260.121C112.713 259.715 112.137 259.513 111.351 259.513C110.224 259.513 109.445 259.829 109.014 260.463C108.584 261.096 108.368 262.008 108.368 263.199V268.481H106.696V258.297H108.045L108.292 259.684H108.387C108.615 259.329 108.894 259.038 109.223 258.81C109.565 258.569 109.939 258.392 110.344 258.278C110.75 258.164 111.168 258.107 111.598 258.107ZM121.842 267.303C122.096 267.303 122.355 267.284 122.621 267.246C122.887 267.195 123.103 267.144 123.267 267.094V268.367C123.09 268.455 122.837 268.525 122.507 268.576C122.178 268.639 121.861 268.671 121.557 268.671C121.025 268.671 120.531 268.582 120.075 268.405C119.632 268.215 119.271 267.892 118.992 267.436C118.714 266.98 118.574 266.34 118.574 265.517V259.589H117.13V258.791L118.593 258.126L119.258 255.96H120.246V258.297H123.191V259.589H120.246V265.479C120.246 266.099 120.392 266.562 120.683 266.866C120.987 267.157 121.374 267.303 121.842 267.303ZM131.938 265.669C131.938 266.327 131.773 266.878 131.444 267.322C131.114 267.765 130.646 268.101 130.038 268.329C129.43 268.557 128.708 268.671 127.872 268.671C127.162 268.671 126.548 268.614 126.029 268.5C125.522 268.386 125.072 268.227 124.68 268.025V266.505C125.085 266.707 125.573 266.897 126.143 267.075C126.725 267.239 127.314 267.322 127.91 267.322C128.758 267.322 129.373 267.189 129.753 266.923C130.133 266.644 130.323 266.277 130.323 265.821C130.323 265.567 130.253 265.339 130.114 265.137C129.974 264.934 129.721 264.731 129.354 264.529C128.999 264.326 128.486 264.098 127.815 263.845C127.156 263.591 126.592 263.338 126.124 263.085C125.655 262.831 125.294 262.527 125.041 262.173C124.787 261.818 124.661 261.362 124.661 260.805C124.661 259.943 125.009 259.278 125.706 258.81C126.415 258.341 127.34 258.107 128.48 258.107C129.1 258.107 129.677 258.17 130.209 258.297C130.753 258.411 131.26 258.575 131.729 258.791L131.159 260.121C130.88 259.994 130.582 259.886 130.266 259.798C129.962 259.696 129.651 259.62 129.335 259.57C129.018 259.506 128.695 259.475 128.366 259.475C127.682 259.475 127.156 259.589 126.789 259.817C126.434 260.032 126.257 260.33 126.257 260.71C126.257 260.988 126.339 261.229 126.504 261.432C126.668 261.622 126.941 261.812 127.321 262.002C127.713 262.179 128.233 262.394 128.879 262.648C129.525 262.888 130.076 263.135 130.532 263.389C130.988 263.642 131.336 263.952 131.577 264.32C131.817 264.674 131.938 265.124 131.938 265.669ZM141.989 258.297V268.481H140.317V258.297H141.989ZM141.172 254.478C141.426 254.478 141.647 254.566 141.837 254.744C142.04 254.908 142.141 255.174 142.141 255.542C142.141 255.896 142.04 256.162 141.837 256.34C141.647 256.517 141.426 256.606 141.172 256.606C140.894 256.606 140.659 256.517 140.469 256.34C140.279 256.162 140.184 255.896 140.184 255.542C140.184 255.174 140.279 254.908 140.469 254.744C140.659 254.566 140.894 254.478 141.172 254.478ZM150.118 258.107C151.334 258.107 152.252 258.404 152.873 259C153.493 259.582 153.804 260.532 153.804 261.85V268.481H152.151V261.964C152.151 261.14 151.967 260.526 151.6 260.121C151.232 259.715 150.656 259.513 149.871 259.513C148.743 259.513 147.964 259.829 147.534 260.463C147.103 261.096 146.888 262.008 146.888 263.199V268.481H145.216V258.297H146.565L146.812 259.684H146.907C147.135 259.329 147.413 259.038 147.743 258.81C148.085 258.569 148.458 258.392 148.864 258.278C149.269 258.164 149.687 258.107 150.118 258.107ZM171.734 263.37C171.734 264.218 171.62 264.972 171.392 265.631C171.176 266.277 170.86 266.828 170.442 267.284C170.036 267.74 169.536 268.088 168.941 268.329C168.358 268.557 167.706 268.671 166.984 268.671C166.312 268.671 165.692 268.557 165.122 268.329C164.552 268.088 164.058 267.74 163.64 267.284C163.222 266.828 162.892 266.277 162.652 265.631C162.424 264.972 162.31 264.218 162.31 263.37C162.31 262.242 162.5 261.292 162.88 260.52C163.26 259.734 163.804 259.139 164.514 258.734C165.223 258.316 166.065 258.107 167.041 258.107C167.965 258.107 168.776 258.316 169.473 258.734C170.182 259.139 170.733 259.734 171.126 260.52C171.531 261.292 171.734 262.242 171.734 263.37ZM164.039 263.37C164.039 264.168 164.14 264.864 164.343 265.46C164.558 266.042 164.887 266.492 165.331 266.809C165.774 267.125 166.338 267.284 167.022 267.284C167.706 267.284 168.269 267.125 168.713 266.809C169.156 266.492 169.479 266.042 169.682 265.46C169.897 264.864 170.005 264.168 170.005 263.37C170.005 262.559 169.897 261.869 169.682 261.299C169.466 260.729 169.137 260.292 168.694 259.988C168.263 259.671 167.699 259.513 167.003 259.513C165.964 259.513 165.21 259.855 164.742 260.539C164.273 261.223 164.039 262.166 164.039 263.37ZM182.896 258.297V268.481H181.528L181.281 267.132H181.205C180.989 267.486 180.711 267.778 180.369 268.006C180.027 268.234 179.653 268.398 179.248 268.5C178.842 268.614 178.418 268.671 177.975 268.671C177.164 268.671 176.48 268.544 175.923 268.291C175.378 268.025 174.966 267.619 174.688 267.075C174.409 266.53 174.27 265.827 174.27 264.966V258.297H175.961V264.852C175.961 265.662 176.144 266.27 176.512 266.676C176.879 267.081 177.449 267.284 178.222 267.284C178.982 267.284 179.577 267.144 180.008 266.866C180.451 266.574 180.761 266.156 180.939 265.612C181.129 265.054 181.224 264.383 181.224 263.598V258.297H182.896ZM190.879 258.107C191.069 258.107 191.271 258.119 191.487 258.145C191.715 258.157 191.911 258.183 192.076 258.221L191.867 259.76C191.702 259.722 191.518 259.69 191.316 259.665C191.126 259.639 190.942 259.627 190.765 259.627C190.372 259.627 189.998 259.709 189.644 259.874C189.289 260.038 188.972 260.273 188.694 260.577C188.415 260.868 188.193 261.223 188.029 261.641C187.877 262.059 187.801 262.527 187.801 263.047V268.481H186.129V258.297H187.497L187.687 260.159H187.763C187.978 259.779 188.238 259.437 188.542 259.133C188.846 258.816 189.194 258.569 189.587 258.392C189.979 258.202 190.41 258.107 190.879 258.107ZM78.1528 297.671C77.2535 297.671 76.4491 297.487 75.7398 297.12C75.0431 296.752 74.4921 296.182 74.0868 295.41C73.6941 294.637 73.4978 293.649 73.4978 292.446C73.4978 291.192 73.7068 290.172 74.1248 289.387C74.5428 288.601 75.1065 288.025 75.8158 287.658C76.5378 287.29 77.3548 287.107 78.2668 287.107C78.7861 287.107 79.2865 287.164 79.7678 287.278C80.2491 287.379 80.6418 287.506 80.9458 287.658L80.4328 289.045C80.1288 288.931 79.7741 288.823 79.3688 288.722C78.9635 288.62 78.5835 288.57 78.2288 288.57C77.5448 288.57 76.9811 288.715 76.5378 289.007C76.0945 289.298 75.7651 289.729 75.5498 290.299C75.3345 290.869 75.2268 291.578 75.2268 292.427C75.2268 293.237 75.3345 293.928 75.5498 294.498C75.7651 295.068 76.0881 295.498 76.5188 295.79C76.9495 296.081 77.4878 296.227 78.1338 296.227C78.6911 296.227 79.1788 296.17 79.5968 296.056C80.0275 295.942 80.4201 295.802 80.7748 295.638V297.12C80.4328 297.297 80.0528 297.43 79.6348 297.519C79.2295 297.62 78.7355 297.671 78.1528 297.671ZM92.0507 292.37C92.0507 293.218 91.9367 293.972 91.7087 294.631C91.4934 295.277 91.1767 295.828 90.7587 296.284C90.3534 296.74 89.853 297.088 89.2577 297.329C88.675 297.557 88.0227 297.671 87.3007 297.671C86.6294 297.671 86.0087 297.557 85.4387 297.329C84.8687 297.088 84.3747 296.74 83.9567 296.284C83.5387 295.828 83.2094 295.277 82.9687 294.631C82.7407 293.972 82.6267 293.218 82.6267 292.37C82.6267 291.242 82.8167 290.292 83.1967 289.52C83.5767 288.734 84.1214 288.139 84.8307 287.734C85.54 287.316 86.3824 287.107 87.3577 287.107C88.2824 287.107 89.093 287.316 89.7897 287.734C90.499 288.139 91.05 288.734 91.4427 289.52C91.848 290.292 92.0507 291.242 92.0507 292.37ZM84.3557 292.37C84.3557 293.168 84.457 293.864 84.6597 294.46C84.875 295.042 85.2044 295.492 85.6477 295.809C86.091 296.125 86.6547 296.284 87.3387 296.284C88.0227 296.284 88.5864 296.125 89.0297 295.809C89.473 295.492 89.796 295.042 89.9987 294.46C90.214 293.864 90.3217 293.168 90.3217 292.37C90.3217 291.559 90.214 290.869 89.9987 290.299C89.7834 289.729 89.454 289.292 89.0107 288.988C88.58 288.671 88.0164 288.513 87.3197 288.513C86.281 288.513 85.5274 288.855 85.0587 289.539C84.59 290.223 84.3557 291.166 84.3557 292.37ZM105.873 287.107C107.025 287.107 107.887 287.404 108.457 288C109.027 288.582 109.312 289.532 109.312 290.85V297.481H107.659V290.926C107.659 290.128 107.488 289.526 107.146 289.121C106.816 288.715 106.297 288.513 105.588 288.513C104.6 288.513 103.89 288.798 103.46 289.368C103.042 289.938 102.833 290.767 102.833 291.857V297.481H101.18V290.926C101.18 290.394 101.104 289.95 100.952 289.596C100.8 289.228 100.572 288.956 100.268 288.779C99.9636 288.601 99.5709 288.513 99.0896 288.513C98.4056 288.513 97.8673 288.658 97.4746 288.95C97.0819 289.228 96.7969 289.64 96.6196 290.185C96.4549 290.729 96.3726 291.401 96.3726 292.199V297.481H94.7006V287.297H96.0496L96.2966 288.684H96.3916C96.6069 288.329 96.8666 288.038 97.1706 287.81C97.4873 287.569 97.8356 287.392 98.2156 287.278C98.5956 287.164 98.9883 287.107 99.3936 287.107C100.179 287.107 100.831 287.246 101.351 287.525C101.883 287.803 102.269 288.234 102.51 288.817H102.605C102.947 288.234 103.409 287.803 103.992 287.525C104.587 287.246 105.214 287.107 105.873 287.107ZM123.629 287.107C124.782 287.107 125.643 287.404 126.213 288C126.783 288.582 127.068 289.532 127.068 290.85V297.481H125.415V290.926C125.415 290.128 125.244 289.526 124.902 289.121C124.573 288.715 124.054 288.513 123.344 288.513C122.356 288.513 121.647 288.798 121.216 289.368C120.798 289.938 120.589 290.767 120.589 291.857V297.481H118.936V290.926C118.936 290.394 118.86 289.95 118.708 289.596C118.556 289.228 118.328 288.956 118.024 288.779C117.72 288.601 117.328 288.513 116.846 288.513C116.162 288.513 115.624 288.658 115.231 288.95C114.839 289.228 114.554 289.64 114.376 290.185C114.212 290.729 114.129 291.401 114.129 292.199V297.481H112.457V287.297H113.806L114.053 288.684H114.148C114.364 288.329 114.623 288.038 114.927 287.81C115.244 287.569 115.592 287.392 115.972 287.278C116.352 287.164 116.745 287.107 117.15 287.107C117.936 287.107 118.588 287.246 119.107 287.525C119.639 287.803 120.026 288.234 120.266 288.817H120.361C120.703 288.234 121.166 287.803 121.748 287.525C122.344 287.246 122.971 287.107 123.629 287.107ZM138.726 287.297V297.481H137.358L137.111 296.132H137.035C136.82 296.486 136.541 296.778 136.199 297.006C135.857 297.234 135.484 297.398 135.078 297.5C134.673 297.614 134.249 297.671 133.805 297.671C132.995 297.671 132.311 297.544 131.753 297.291C131.209 297.025 130.797 296.619 130.518 296.075C130.24 295.53 130.1 294.827 130.1 293.966V287.297H131.791V293.852C131.791 294.662 131.975 295.27 132.342 295.676C132.71 296.081 133.28 296.284 134.052 296.284C134.812 296.284 135.408 296.144 135.838 295.866C136.282 295.574 136.592 295.156 136.769 294.612C136.959 294.054 137.054 293.383 137.054 292.598V287.297H138.726ZM146.861 287.107C148.077 287.107 148.996 287.404 149.616 288C150.237 288.582 150.547 289.532 150.547 290.85V297.481H148.894V290.964C148.894 290.14 148.711 289.526 148.343 289.121C147.976 288.715 147.4 288.513 146.614 288.513C145.487 288.513 144.708 288.829 144.277 289.463C143.847 290.096 143.631 291.008 143.631 292.199V297.481H141.959V287.297H143.308L143.555 288.684H143.65C143.878 288.329 144.157 288.038 144.486 287.81C144.828 287.569 145.202 287.392 145.607 287.278C146.013 287.164 146.431 287.107 146.861 287.107ZM155.377 287.297V297.481H153.705V287.297H155.377ZM154.56 283.478C154.813 283.478 155.035 283.566 155.225 283.744C155.427 283.908 155.529 284.174 155.529 284.542C155.529 284.896 155.427 285.162 155.225 285.34C155.035 285.517 154.813 285.606 154.56 285.606C154.281 285.606 154.047 285.517 153.857 285.34C153.667 285.162 153.572 284.896 153.572 284.542C153.572 284.174 153.667 283.908 153.857 283.744C154.047 283.566 154.281 283.478 154.56 283.478ZM162.004 296.303C162.257 296.303 162.517 296.284 162.783 296.246C163.049 296.195 163.264 296.144 163.429 296.094V297.367C163.252 297.455 162.998 297.525 162.669 297.576C162.34 297.639 162.023 297.671 161.719 297.671C161.187 297.671 160.693 297.582 160.237 297.405C159.794 297.215 159.433 296.892 159.154 296.436C158.875 295.98 158.736 295.34 158.736 294.517V288.589H157.292V287.791L158.755 287.126L159.42 284.96H160.408V287.297H163.353V288.589H160.408V294.479C160.408 295.099 160.554 295.562 160.845 295.866C161.149 296.157 161.535 296.303 162.004 296.303ZM163.872 287.297H165.658L167.862 293.092C167.989 293.434 168.103 293.763 168.204 294.08C168.318 294.396 168.42 294.707 168.508 295.011C168.597 295.302 168.667 295.587 168.717 295.866H168.793C168.869 295.549 168.99 295.137 169.154 294.631C169.319 294.111 169.49 293.592 169.667 293.073L171.738 287.297H173.543L169.154 298.887C168.914 299.52 168.629 300.071 168.299 300.54C167.983 301.021 167.59 301.388 167.121 301.642C166.665 301.908 166.108 302.041 165.449 302.041C165.145 302.041 164.879 302.022 164.651 301.984C164.423 301.958 164.227 301.927 164.062 301.889V300.559C164.202 300.584 164.366 300.609 164.556 300.635C164.759 300.66 164.968 300.673 165.183 300.673C165.576 300.673 165.912 300.597 166.19 300.445C166.482 300.305 166.729 300.096 166.931 299.818C167.134 299.552 167.305 299.235 167.444 298.868L167.976 297.519L163.872 287.297Z" fill="#F0F0F0"/>
<path d="M201.334 84.135C201.294 81.0096 199.631 78.13 196.945 76.5321L126.345 34.539C123.551 32.8772 120.078 32.8547 117.263 34.48L48.0808 74.4221C45.2656 76.0475 43.5483 79.0671 43.5905 82.3175L44.6579 164.455C44.6985 167.58 46.361 170.46 49.0475 172.058L119.647 214.051C122.441 215.713 125.914 215.735 128.73 214.11L197.911 174.168C200.727 172.543 202.444 169.523 202.402 166.273L201.334 84.135Z" fill="url(#paint0_linear_296_525)" stroke="url(#paint1_linear_296_525)" stroke-width="2.34313"/>
<path d="M88.8311 155.88H75.8722V120.436C75.8722 119.463 75.8722 118.262 75.8722 116.831C75.9294 115.401 75.9866 113.913 76.0438 112.369C76.1011 110.824 76.1583 109.451 76.2155 108.249C75.9294 108.592 75.3001 109.222 74.3274 110.137C73.412 110.995 72.5538 111.768 71.7528 112.454L64.7155 118.119L58.4506 110.309L78.1893 94.6037H88.8311V155.88ZM113.495 146.917C113.495 150.435 111.749 152.194 108.257 152.194C106.705 152.194 105.438 151.728 104.455 150.797C103.498 149.84 103.019 148.586 103.019 147.034C103.019 143.49 104.843 141.718 108.49 141.718C109.964 141.718 111.167 142.223 112.098 143.231C113.029 144.214 113.495 145.443 113.495 146.917ZM128.586 155.88L151.586 105.503H121.377V94.6037H165.317V102.757L142.146 155.88H128.586ZM192.818 155.88H185.322L177.173 142.762L174.384 144.767V155.88H167.803V124.764H174.384V139.014C174.819 138.404 175.255 137.794 175.691 137.184C176.127 136.574 176.563 135.964 176.998 135.354L185.409 124.764H192.731L181.879 138.535L192.818 155.88Z" fill="url(#paint2_linear_296_525)"/>
<defs>
<linearGradient id="paint0_linear_296_525" x1="300.683" y1="271.521" x2="174.841" y2="8.28353" gradientUnits="userSpaceOnUse">
<stop offset="0.379733" stop-color="#FFDE28" stop-opacity="0.7"/>
<stop offset="0.988905" stop-color="#FFDE28" stop-opacity="0.1"/>
</linearGradient>
<linearGradient id="paint1_linear_296_525" x1="33.8717" y1="62.0352" x2="308.025" y2="245.068" gradientUnits="userSpaceOnUse">
<stop offset="0.129324" stop-color="#5D4E00"/>
<stop offset="0.247324" stop-color="#FFDE28"/>
<stop offset="0.401695" stop-color="#FFFD8F"/>
<stop offset="0.520532" stop-color="#DAC139"/>
<stop offset="0.659271" stop-color="#978000"/>
</linearGradient>
<linearGradient id="paint2_linear_296_525" x1="89.0107" y1="98.8795" x2="155.107" y2="181.611" gradientUnits="userSpaceOnUse">
<stop/>
<stop offset="1" stop-color="#454000"/>
</linearGradient>
</defs>
</svg>
