<svg width="246" height="303" viewBox="0 0 246 303" fill="none" xmlns="http://www.w3.org/2000/svg">
<path d="M62.9776 265.005C62.9776 265.815 62.7813 266.506 62.3886 267.076C61.996 267.633 61.4323 268.064 60.6976 268.368C59.9756 268.672 59.1206 268.824 58.1326 268.824C57.626 268.824 57.1383 268.798 56.6696 268.748C56.2136 268.697 55.7956 268.627 55.4156 268.539C55.0356 268.437 54.7 268.317 54.4086 268.178V266.544C54.8646 266.746 55.4283 266.93 56.0996 267.095C56.7836 267.259 57.4866 267.342 58.2086 267.342C58.88 267.342 59.4436 267.253 59.8996 267.076C60.3556 266.898 60.6976 266.645 60.9256 266.316C61.1536 265.986 61.2676 265.6 61.2676 265.157C61.2676 264.713 61.1726 264.34 60.9826 264.036C60.7926 263.732 60.4633 263.453 59.9946 263.2C59.5386 262.934 58.899 262.655 58.0756 262.364C57.493 262.148 56.98 261.92 56.5366 261.68C56.106 261.426 55.745 261.141 55.4536 260.825C55.1623 260.508 54.9406 260.147 54.7886 259.742C54.6493 259.336 54.5796 258.868 54.5796 258.336C54.5796 257.614 54.7633 256.999 55.1306 256.493C55.498 255.973 56.0046 255.574 56.6506 255.296C57.3093 255.017 58.063 254.878 58.9116 254.878C59.659 254.878 60.343 254.947 60.9636 255.087C61.5843 255.226 62.148 255.41 62.6546 255.638L62.1226 257.101C61.654 256.898 61.141 256.727 60.5836 256.588C60.039 256.448 59.469 256.379 58.8736 256.379C58.3036 256.379 57.8286 256.461 57.4486 256.626C57.0686 256.79 56.7836 257.025 56.5936 257.329C56.4036 257.62 56.3086 257.962 56.3086 258.355C56.3086 258.811 56.4036 259.191 56.5936 259.495C56.7836 259.799 57.094 260.071 57.5246 260.312C57.9553 260.552 58.538 260.812 59.2726 261.091C60.0706 261.382 60.742 261.699 61.2866 262.041C61.844 262.37 62.262 262.769 62.5406 263.238C62.832 263.706 62.9776 264.295 62.9776 265.005ZM68.8834 267.456C69.1367 267.456 69.3964 267.437 69.6624 267.399C69.9284 267.348 70.1437 267.297 70.3084 267.247V268.52C70.131 268.608 69.8777 268.678 69.5484 268.729C69.219 268.792 68.9024 268.824 68.5984 268.824C68.0664 268.824 67.5724 268.735 67.1164 268.558C66.673 268.368 66.312 268.045 66.0334 267.589C65.7547 267.133 65.6154 266.493 65.6154 265.67V259.742H64.1714V258.944L65.6344 258.279L66.2994 256.113H67.2874V258.45H70.2324V259.742H67.2874V265.632C67.2874 266.252 67.433 266.715 67.7244 267.019C68.0284 267.31 68.4147 267.456 68.8834 267.456ZM80.8596 258.45V268.634H79.4916L79.2446 267.285H79.1686C78.9533 267.639 78.6746 267.931 78.3326 268.159C77.9906 268.387 77.6169 268.551 77.2116 268.653C76.8063 268.767 76.3819 268.824 75.9386 268.824C75.1279 268.824 74.4439 268.697 73.8866 268.444C73.3419 268.178 72.9303 267.772 72.6516 267.228C72.3729 266.683 72.2336 265.98 72.2336 265.119V258.45H73.9246V265.005C73.9246 265.815 74.1083 266.423 74.4756 266.829C74.8429 267.234 75.4129 267.437 76.1856 267.437C76.9456 267.437 77.5409 267.297 77.9716 267.019C78.4149 266.727 78.7253 266.309 78.9026 265.765C79.0926 265.207 79.1876 264.536 79.1876 263.751V258.45H80.8596ZM87.7027 268.824C86.436 268.824 85.4227 268.387 84.6627 267.513C83.9027 266.626 83.5227 265.309 83.5227 263.561C83.5227 261.813 83.9027 260.495 84.6627 259.609C85.4354 258.709 86.455 258.26 87.7217 258.26C88.2537 258.26 88.716 258.329 89.1087 258.469C89.5014 258.595 89.8434 258.773 90.1347 259.001C90.426 259.229 90.673 259.482 90.8757 259.761H90.9897C90.977 259.596 90.9517 259.355 90.9137 259.039C90.8884 258.709 90.8757 258.45 90.8757 258.26V254.194H92.5477V268.634H91.1987L90.9517 267.266H90.8757C90.673 267.557 90.426 267.823 90.1347 268.064C89.8434 268.292 89.495 268.475 89.0897 268.615C88.697 268.754 88.2347 268.824 87.7027 268.824ZM87.9687 267.437C89.0454 267.437 89.799 267.145 90.2297 266.563C90.673 265.967 90.8947 265.074 90.8947 263.884V263.58C90.8947 262.313 90.6857 261.344 90.2677 260.673C89.8497 259.989 89.077 259.647 87.9497 259.647C87.0504 259.647 86.3727 260.008 85.9167 260.73C85.4734 261.439 85.2517 262.395 85.2517 263.599C85.2517 264.815 85.4734 265.758 85.9167 266.43C86.3727 267.101 87.0567 267.437 87.9687 267.437ZM99.7152 258.26C100.589 258.26 101.336 258.45 101.957 258.83C102.59 259.21 103.072 259.748 103.401 260.445C103.743 261.129 103.914 261.933 103.914 262.858V263.865H96.9412C96.9665 265.017 97.2578 265.898 97.8152 266.506C98.3852 267.101 99.1768 267.399 100.19 267.399C100.836 267.399 101.406 267.342 101.9 267.228C102.407 267.101 102.926 266.924 103.458 266.696V268.159C102.939 268.387 102.426 268.551 101.919 268.653C101.412 268.767 100.811 268.824 100.114 268.824C99.1515 268.824 98.2965 268.627 97.5492 268.235C96.8145 267.842 96.2382 267.259 95.8202 266.487C95.4148 265.701 95.2122 264.745 95.2122 263.618C95.2122 262.503 95.3958 261.547 95.7632 260.749C96.1432 259.951 96.6688 259.336 97.3402 258.906C98.0242 258.475 98.8158 258.26 99.7152 258.26ZM99.6962 259.628C98.8982 259.628 98.2648 259.887 97.7962 260.407C97.3402 260.913 97.0678 261.623 96.9792 262.535H102.166C102.166 261.952 102.077 261.445 101.9 261.015C101.723 260.584 101.45 260.248 101.083 260.008C100.728 259.754 100.266 259.628 99.6962 259.628ZM111.409 258.26C112.625 258.26 113.543 258.557 114.164 259.153C114.784 259.735 115.095 260.685 115.095 262.003V268.634H113.442V262.117C113.442 261.293 113.258 260.679 112.891 260.274C112.523 259.868 111.947 259.666 111.162 259.666C110.034 259.666 109.255 259.982 108.825 260.616C108.394 261.249 108.179 262.161 108.179 263.352V268.634H106.507V258.45H107.856L108.103 259.837H108.198C108.426 259.482 108.704 259.191 109.034 258.963C109.376 258.722 109.749 258.545 110.155 258.431C110.56 258.317 110.978 258.26 111.409 258.26ZM121.653 267.456C121.906 267.456 122.166 267.437 122.432 267.399C122.698 267.348 122.913 267.297 123.078 267.247V268.52C122.901 268.608 122.647 268.678 122.318 268.729C121.989 268.792 121.672 268.824 121.368 268.824C120.836 268.824 120.342 268.735 119.886 268.558C119.443 268.368 119.082 268.045 118.803 267.589C118.524 267.133 118.385 266.493 118.385 265.67V259.742H116.941V258.944L118.404 258.279L119.069 256.113H120.057V258.45H123.002V259.742H120.057V265.632C120.057 266.252 120.203 266.715 120.494 267.019C120.798 267.31 121.184 267.456 121.653 267.456ZM131.748 265.822C131.748 266.48 131.583 267.031 131.254 267.475C130.925 267.918 130.456 268.254 129.848 268.482C129.24 268.71 128.518 268.824 127.682 268.824C126.973 268.824 126.358 268.767 125.839 268.653C125.332 268.539 124.883 268.38 124.49 268.178V266.658C124.895 266.86 125.383 267.05 125.953 267.228C126.536 267.392 127.125 267.475 127.72 267.475C128.569 267.475 129.183 267.342 129.563 267.076C129.943 266.797 130.133 266.43 130.133 265.974C130.133 265.72 130.063 265.492 129.924 265.29C129.785 265.087 129.531 264.884 129.164 264.682C128.809 264.479 128.296 264.251 127.625 263.998C126.966 263.744 126.403 263.491 125.934 263.238C125.465 262.984 125.104 262.68 124.851 262.326C124.598 261.971 124.471 261.515 124.471 260.958C124.471 260.096 124.819 259.431 125.516 258.963C126.225 258.494 127.15 258.26 128.29 258.26C128.911 258.26 129.487 258.323 130.019 258.45C130.564 258.564 131.07 258.728 131.539 258.944L130.969 260.274C130.69 260.147 130.393 260.039 130.076 259.951C129.772 259.849 129.462 259.773 129.145 259.723C128.828 259.659 128.505 259.628 128.176 259.628C127.492 259.628 126.966 259.742 126.599 259.97C126.244 260.185 126.067 260.483 126.067 260.863C126.067 261.141 126.149 261.382 126.314 261.585C126.479 261.775 126.751 261.965 127.131 262.155C127.524 262.332 128.043 262.547 128.689 262.801C129.335 263.041 129.886 263.288 130.342 263.542C130.798 263.795 131.146 264.105 131.387 264.473C131.628 264.827 131.748 265.277 131.748 265.822ZM141.8 258.45V268.634H140.128V258.45H141.8ZM140.983 254.631C141.236 254.631 141.458 254.719 141.648 254.897C141.851 255.061 141.952 255.327 141.952 255.695C141.952 256.049 141.851 256.315 141.648 256.493C141.458 256.67 141.236 256.759 140.983 256.759C140.704 256.759 140.47 256.67 140.28 256.493C140.09 256.315 139.995 256.049 139.995 255.695C139.995 255.327 140.09 255.061 140.28 254.897C140.47 254.719 140.704 254.631 140.983 254.631ZM149.928 258.26C151.144 258.26 152.063 258.557 152.683 259.153C153.304 259.735 153.614 260.685 153.614 262.003V268.634H151.961V262.117C151.961 261.293 151.778 260.679 151.41 260.274C151.043 259.868 150.467 259.666 149.681 259.666C148.554 259.666 147.775 259.982 147.344 260.616C146.914 261.249 146.698 262.161 146.698 263.352V268.634H145.026V258.45H146.375L146.622 259.837H146.717C146.945 259.482 147.224 259.191 147.553 258.963C147.895 258.722 148.269 258.545 148.674 258.431C149.08 258.317 149.498 258.26 149.928 258.26ZM171.544 263.523C171.544 264.371 171.43 265.125 171.202 265.784C170.987 266.43 170.67 266.981 170.252 267.437C169.847 267.893 169.347 268.241 168.751 268.482C168.169 268.71 167.516 268.824 166.794 268.824C166.123 268.824 165.502 268.71 164.932 268.482C164.362 268.241 163.868 267.893 163.45 267.437C163.032 266.981 162.703 266.43 162.462 265.784C162.234 265.125 162.12 264.371 162.12 263.523C162.12 262.395 162.31 261.445 162.69 260.673C163.07 259.887 163.615 259.292 164.324 258.887C165.034 258.469 165.876 258.26 166.851 258.26C167.776 258.26 168.587 258.469 169.283 258.887C169.993 259.292 170.544 259.887 170.936 260.673C171.342 261.445 171.544 262.395 171.544 263.523ZM163.849 263.523C163.849 264.321 163.951 265.017 164.153 265.613C164.369 266.195 164.698 266.645 165.141 266.962C165.585 267.278 166.148 267.437 166.832 267.437C167.516 267.437 168.08 267.278 168.523 266.962C168.967 266.645 169.29 266.195 169.492 265.613C169.708 265.017 169.815 264.321 169.815 263.523C169.815 262.712 169.708 262.022 169.492 261.452C169.277 260.882 168.948 260.445 168.504 260.141C168.074 259.824 167.51 259.666 166.813 259.666C165.775 259.666 165.021 260.008 164.552 260.692C164.084 261.376 163.849 262.319 163.849 263.523ZM182.706 258.45V268.634H181.338L181.091 267.285H181.015C180.8 267.639 180.521 267.931 180.179 268.159C179.837 268.387 179.464 268.551 179.058 268.653C178.653 268.767 178.229 268.824 177.785 268.824C176.975 268.824 176.291 268.697 175.733 268.444C175.189 268.178 174.777 267.772 174.498 267.228C174.22 266.683 174.08 265.98 174.08 265.119V258.45H175.771V265.005C175.771 265.815 175.955 266.423 176.322 266.829C176.69 267.234 177.26 267.437 178.032 267.437C178.792 267.437 179.388 267.297 179.818 267.019C180.262 266.727 180.572 266.309 180.749 265.765C180.939 265.207 181.034 264.536 181.034 263.751V258.45H182.706ZM190.689 258.26C190.879 258.26 191.082 258.272 191.297 258.298C191.525 258.31 191.722 258.336 191.886 258.374L191.677 259.913C191.513 259.875 191.329 259.843 191.126 259.818C190.936 259.792 190.753 259.78 190.575 259.78C190.183 259.78 189.809 259.862 189.454 260.027C189.1 260.191 188.783 260.426 188.504 260.73C188.226 261.021 188.004 261.376 187.839 261.794C187.687 262.212 187.611 262.68 187.611 263.2V268.634H185.939V258.45H187.307L187.497 260.312H187.573C187.789 259.932 188.048 259.59 188.352 259.286C188.656 258.969 189.005 258.722 189.397 258.545C189.79 258.355 190.221 258.26 190.689 258.26ZM77.9634 297.824C77.064 297.824 76.2597 297.64 75.5504 297.273C74.8537 296.905 74.3027 296.335 73.8974 295.563C73.5047 294.79 73.3084 293.802 73.3084 292.599C73.3084 291.345 73.5174 290.325 73.9354 289.54C74.3534 288.754 74.917 288.178 75.6264 287.811C76.3484 287.443 77.1654 287.26 78.0774 287.26C78.5967 287.26 79.097 287.317 79.5784 287.431C80.0597 287.532 80.4524 287.659 80.7564 287.811L80.2434 289.198C79.9394 289.084 79.5847 288.976 79.1794 288.875C78.774 288.773 78.394 288.723 78.0394 288.723C77.3554 288.723 76.7917 288.868 76.3484 289.16C75.905 289.451 75.5757 289.882 75.3604 290.452C75.145 291.022 75.0374 291.731 75.0374 292.58C75.0374 293.39 75.145 294.081 75.3604 294.651C75.5757 295.221 75.8987 295.651 76.3294 295.943C76.76 296.234 77.2984 296.38 77.9444 296.38C78.5017 296.38 78.9894 296.323 79.4074 296.209C79.838 296.095 80.2307 295.955 80.5854 295.791V297.273C80.2434 297.45 79.8634 297.583 79.4454 297.672C79.04 297.773 78.546 297.824 77.9634 297.824ZM91.8613 292.523C91.8613 293.371 91.7473 294.125 91.5193 294.784C91.3039 295.43 90.9873 295.981 90.5693 296.437C90.1639 296.893 89.6636 297.241 89.0683 297.482C88.4856 297.71 87.8333 297.824 87.1113 297.824C86.4399 297.824 85.8193 297.71 85.2493 297.482C84.6793 297.241 84.1853 296.893 83.7673 296.437C83.3493 295.981 83.0199 295.43 82.7793 294.784C82.5513 294.125 82.4373 293.371 82.4373 292.523C82.4373 291.395 82.6273 290.445 83.0073 289.673C83.3873 288.887 83.9319 288.292 84.6413 287.887C85.3506 287.469 86.1929 287.26 87.1683 287.26C88.0929 287.26 88.9036 287.469 89.6003 287.887C90.3096 288.292 90.8606 288.887 91.2533 289.673C91.6586 290.445 91.8613 291.395 91.8613 292.523ZM84.1663 292.523C84.1663 293.321 84.2676 294.017 84.4703 294.613C84.6856 295.195 85.0149 295.645 85.4583 295.962C85.9016 296.278 86.4653 296.437 87.1493 296.437C87.8333 296.437 88.3969 296.278 88.8403 295.962C89.2836 295.645 89.6066 295.195 89.8093 294.613C90.0246 294.017 90.1323 293.321 90.1323 292.523C90.1323 291.712 90.0246 291.022 89.8093 290.452C89.5939 289.882 89.2646 289.445 88.8213 289.141C88.3906 288.824 87.8269 288.666 87.1303 288.666C86.0916 288.666 85.3379 289.008 84.8693 289.692C84.4006 290.376 84.1663 291.319 84.1663 292.523ZM105.683 287.26C106.836 287.26 107.697 287.557 108.267 288.153C108.837 288.735 109.122 289.685 109.122 291.003V297.634H107.469V291.079C107.469 290.281 107.298 289.679 106.956 289.274C106.627 288.868 106.107 288.666 105.398 288.666C104.41 288.666 103.701 288.951 103.27 289.521C102.852 290.091 102.643 290.92 102.643 292.01V297.634H100.99V291.079C100.99 290.547 100.914 290.103 100.762 289.749C100.61 289.381 100.382 289.109 100.078 288.932C99.7742 288.754 99.3815 288.666 98.9002 288.666C98.2162 288.666 97.6778 288.811 97.2852 289.103C96.8925 289.381 96.6075 289.793 96.4302 290.338C96.2655 290.882 96.1832 291.554 96.1832 292.352V297.634H94.5112V287.45H95.8602L96.1072 288.837H96.2022C96.4175 288.482 96.6772 288.191 96.9812 287.963C97.2978 287.722 97.6462 287.545 98.0262 287.431C98.4062 287.317 98.7988 287.26 99.2042 287.26C99.9895 287.26 100.642 287.399 101.161 287.678C101.693 287.956 102.079 288.387 102.32 288.97H102.415C102.757 288.387 103.219 287.956 103.802 287.678C104.397 287.399 105.024 287.26 105.683 287.26ZM123.44 287.26C124.593 287.26 125.454 287.557 126.024 288.153C126.594 288.735 126.879 289.685 126.879 291.003V297.634H125.226V291.079C125.226 290.281 125.055 289.679 124.713 289.274C124.384 288.868 123.864 288.666 123.155 288.666C122.167 288.666 121.458 288.951 121.027 289.521C120.609 290.091 120.4 290.92 120.4 292.01V297.634H118.747V291.079C118.747 290.547 118.671 290.103 118.519 289.749C118.367 289.381 118.139 289.109 117.835 288.932C117.531 288.754 117.138 288.666 116.657 288.666C115.973 288.666 115.435 288.811 115.042 289.103C114.649 289.381 114.364 289.793 114.187 290.338C114.022 290.882 113.94 291.554 113.94 292.352V297.634H112.268V287.45H113.617L113.864 288.837H113.959C114.174 288.482 114.434 288.191 114.738 287.963C115.055 287.722 115.403 287.545 115.783 287.431C116.163 287.317 116.556 287.26 116.961 287.26C117.746 287.26 118.399 287.399 118.918 287.678C119.45 287.956 119.836 288.387 120.077 288.97H120.172C120.514 288.387 120.976 287.956 121.559 287.678C122.154 287.399 122.781 287.26 123.44 287.26ZM138.537 287.45V297.634H137.169L136.922 296.285H136.846C136.631 296.639 136.352 296.931 136.01 297.159C135.668 297.387 135.294 297.551 134.889 297.653C134.484 297.767 134.059 297.824 133.616 297.824C132.805 297.824 132.121 297.697 131.564 297.444C131.019 297.178 130.608 296.772 130.329 296.228C130.05 295.683 129.911 294.98 129.911 294.119V287.45H131.602V294.005C131.602 294.815 131.786 295.423 132.153 295.829C132.52 296.234 133.09 296.437 133.863 296.437C134.623 296.437 135.218 296.297 135.649 296.019C136.092 295.727 136.403 295.309 136.58 294.765C136.77 294.207 136.865 293.536 136.865 292.751V287.45H138.537ZM146.672 287.26C147.888 287.26 148.806 287.557 149.427 288.153C150.048 288.735 150.358 289.685 150.358 291.003V297.634H148.705V291.117C148.705 290.293 148.521 289.679 148.154 289.274C147.787 288.868 147.21 288.666 146.425 288.666C145.298 288.666 144.519 288.982 144.088 289.616C143.657 290.249 143.442 291.161 143.442 292.352V297.634H141.77V287.45H143.119L143.366 288.837H143.461C143.689 288.482 143.968 288.191 144.297 287.963C144.639 287.722 145.013 287.545 145.418 287.431C145.823 287.317 146.241 287.26 146.672 287.26ZM155.187 287.45V297.634H153.515V287.45H155.187ZM154.37 283.631C154.623 283.631 154.845 283.719 155.035 283.897C155.238 284.061 155.339 284.327 155.339 284.695C155.339 285.049 155.238 285.315 155.035 285.493C154.845 285.67 154.623 285.759 154.37 285.759C154.091 285.759 153.857 285.67 153.667 285.493C153.477 285.315 153.382 285.049 153.382 284.695C153.382 284.327 153.477 284.061 153.667 283.897C153.857 283.719 154.091 283.631 154.37 283.631ZM161.815 296.456C162.068 296.456 162.328 296.437 162.594 296.399C162.86 296.348 163.075 296.297 163.24 296.247V297.52C163.062 297.608 162.809 297.678 162.48 297.729C162.15 297.792 161.834 297.824 161.53 297.824C160.998 297.824 160.504 297.735 160.048 297.558C159.604 297.368 159.243 297.045 158.965 296.589C158.686 296.133 158.547 295.493 158.547 294.67V288.742H157.103V287.944L158.566 287.279L159.231 285.113H160.219V287.45H163.164V288.742H160.219V294.632C160.219 295.252 160.364 295.715 160.656 296.019C160.96 296.31 161.346 296.456 161.815 296.456ZM163.683 287.45H165.469L167.673 293.245C167.799 293.587 167.913 293.916 168.015 294.233C168.129 294.549 168.23 294.86 168.319 295.164C168.407 295.455 168.477 295.74 168.528 296.019H168.604C168.68 295.702 168.8 295.29 168.965 294.784C169.129 294.264 169.3 293.745 169.478 293.226L171.549 287.45H173.354L168.965 299.04C168.724 299.673 168.439 300.224 168.11 300.693C167.793 301.174 167.4 301.541 166.932 301.795C166.476 302.061 165.918 302.194 165.26 302.194C164.956 302.194 164.69 302.175 164.462 302.137C164.234 302.111 164.037 302.08 163.873 302.042V300.712C164.012 300.737 164.177 300.762 164.367 300.788C164.569 300.813 164.778 300.826 164.994 300.826C165.386 300.826 165.722 300.75 166.001 300.598C166.292 300.458 166.539 300.249 166.742 299.971C166.944 299.705 167.115 299.388 167.255 299.021L167.787 297.672L163.683 287.45Z" fill="#F0F0F0"/>
<path d="M206.087 81.3867C206.046 78.2613 204.384 75.3817 201.697 73.7838L126.264 28.9158C123.47 27.254 119.997 27.2314 117.182 28.8567L43.2395 71.5472C40.4243 73.1726 38.707 76.1922 38.7493 79.4426L39.8897 167.203C39.9303 170.329 41.5928 173.208 44.2792 174.806L119.712 219.674C122.506 221.336 125.98 221.359 128.795 219.733L202.737 177.043C205.552 175.418 207.269 172.398 207.227 169.148L206.087 81.3867Z" fill="url(#paint0_linear_296_525)" stroke="url(#paint1_linear_296_525)" stroke-width="2.34313"/>
<path d="M85.0322 155.88H72.0733V120.436C72.0733 119.463 72.0733 118.262 72.0733 116.831C72.1305 115.401 72.1877 113.913 72.2449 112.369C72.3022 110.824 72.3594 109.451 72.4166 108.249C72.1305 108.592 71.5012 109.222 70.5285 110.137C69.6131 110.995 68.7549 111.768 67.9539 112.454L60.9166 118.119L54.6517 110.309L74.3905 94.6037H85.0322V155.88ZM109.696 146.917C109.696 150.435 107.95 152.194 104.458 152.194C102.906 152.194 101.639 151.728 100.656 150.797C99.6988 149.84 99.2203 148.586 99.2203 147.034C99.2203 143.49 101.044 141.718 104.691 141.718C106.165 141.718 107.368 142.223 108.299 143.231C109.23 144.214 109.696 145.443 109.696 146.917ZM139.806 93.8313C143.353 93.8313 146.586 94.3749 149.503 95.4619C152.479 96.549 154.853 98.1796 156.627 100.354C158.457 102.528 159.373 105.274 159.373 108.592C159.373 111.053 158.886 113.227 157.914 115.115C156.941 116.946 155.625 118.548 153.966 119.921C152.364 121.294 150.505 122.495 148.388 123.525C150.562 124.669 152.622 126.014 154.567 127.559C156.569 129.046 158.171 130.82 159.373 132.88C160.632 134.882 161.261 137.256 161.261 140.003C161.261 143.378 160.345 146.325 158.515 148.842C156.741 151.36 154.224 153.305 150.962 154.678C147.758 156.051 144.04 156.738 139.806 156.738C135.229 156.738 131.338 156.08 128.134 154.764C124.93 153.448 122.47 151.56 120.754 149.1C119.094 146.64 118.265 143.722 118.265 140.346C118.265 137.543 118.78 135.111 119.81 133.051C120.897 130.992 122.327 129.218 124.101 127.73C125.874 126.186 127.848 124.898 130.022 123.868C128.191 122.724 126.532 121.437 125.045 120.007C123.557 118.519 122.356 116.86 121.44 115.029C120.582 113.141 120.153 110.967 120.153 108.507C120.153 105.245 121.068 102.528 122.899 100.354C124.73 98.1796 127.133 96.549 130.108 95.4619C133.14 94.3749 136.373 93.8313 139.806 93.8313ZM130.28 139.574C130.28 141.805 131.052 143.636 132.597 145.066C134.199 146.496 136.545 147.212 139.634 147.212C141.808 147.212 143.582 146.897 144.955 146.268C146.385 145.638 147.444 144.751 148.13 143.607C148.874 142.463 149.246 141.147 149.246 139.659C149.246 138.115 148.788 136.77 147.873 135.626C146.957 134.424 145.813 133.366 144.44 132.451C143.124 131.478 141.751 130.591 140.321 129.79L139.205 129.189C137.431 129.99 135.858 130.906 134.485 131.936C133.169 132.965 132.139 134.11 131.395 135.368C130.652 136.57 130.28 137.972 130.28 139.574ZM139.72 103.272C137.603 103.272 135.829 103.815 134.399 104.902C133.026 105.989 132.339 107.534 132.339 109.536C132.339 110.91 132.683 112.14 133.369 113.227C134.056 114.257 134.971 115.172 136.115 115.973C137.26 116.717 138.49 117.432 139.806 118.119C141.122 117.489 142.323 116.803 143.41 116.059C144.554 115.315 145.47 114.428 146.156 113.398C146.843 112.311 147.186 111.024 147.186 109.536C147.186 107.534 146.471 105.989 145.041 104.902C143.668 103.815 141.894 103.272 139.72 103.272ZM197.601 155.88H190.105L181.956 142.762L179.167 144.767V155.88H172.586V124.764H179.167V139.014C179.603 138.404 180.038 137.794 180.474 137.184C180.91 136.574 181.346 135.964 181.782 135.354L190.192 124.764H197.514L186.662 138.535L197.601 155.88Z" fill="url(#paint2_linear_296_525)"/>
<defs>
<linearGradient id="paint0_linear_296_525" x1="311.645" y1="280.61" x2="178.034" y2="1.12171" gradientUnits="userSpaceOnUse">
<stop offset="0.379733" stop-color="#FFDE28" stop-opacity="0.7"/>
<stop offset="0.988905" stop-color="#FFDE28" stop-opacity="0.1"/>
</linearGradient>
<linearGradient id="paint1_linear_296_525" x1="28.3618" y1="58.1917" x2="319.439" y2="252.524" gradientUnits="userSpaceOnUse">
<stop offset="0.129324" stop-color="#5D4E00"/>
<stop offset="0.247324" stop-color="#FFDE28"/>
<stop offset="0.401695" stop-color="#FFFD8F"/>
<stop offset="0.520532" stop-color="#DAC139"/>
<stop offset="0.659271" stop-color="#978000"/>
</linearGradient>
<linearGradient id="paint2_linear_296_525" x1="87.3111" y1="98.8795" x2="156.734" y2="192.674" gradientUnits="userSpaceOnUse">
<stop/>
<stop offset="1" stop-color="#454000"/>
</linearGradient>
</defs>
</svg>
