<svg width="247" height="298" viewBox="0 0 247 298" fill="none" xmlns="http://www.w3.org/2000/svg">
<path d="M60.4754 263.693C60.4754 264.63 60.2854 265.479 59.9054 266.239C59.5254 266.986 58.9427 267.581 58.1574 268.025C57.3847 268.455 56.3967 268.671 55.1934 268.671C53.5087 268.671 52.2231 268.215 51.3364 267.303C50.4624 266.378 50.0254 265.162 50.0254 263.655V254.915H51.7354V263.712C51.7354 264.814 52.0267 265.669 52.6094 266.277C53.2047 266.885 54.0977 267.189 55.2884 267.189C56.1117 267.189 56.7767 267.043 57.2834 266.752C57.8027 266.448 58.1827 266.036 58.4234 265.517C58.6641 264.985 58.7844 264.377 58.7844 263.693V254.915H60.4754V263.693ZM68.6729 258.107C69.9269 258.107 70.9339 258.544 71.6939 259.418C72.4665 260.292 72.8529 261.609 72.8529 263.37C72.8529 264.522 72.6755 265.498 72.3209 266.296C71.9789 267.081 71.4912 267.676 70.8579 268.082C70.2372 268.474 69.5025 268.671 68.6539 268.671C68.1345 268.671 67.6722 268.601 67.2669 268.462C66.8615 268.322 66.5132 268.145 66.2219 267.93C65.9432 267.702 65.7025 267.455 65.4999 267.189H65.3859C65.4112 267.404 65.4365 267.676 65.4619 268.006C65.4872 268.335 65.4999 268.62 65.4999 268.861V273.041H63.8279V258.297H65.1959L65.4239 259.684H65.4999C65.7025 259.392 65.9432 259.126 66.2219 258.886C66.5132 258.645 66.8552 258.455 67.2479 258.316C67.6532 258.176 68.1282 258.107 68.6729 258.107ZM68.3689 259.513C67.6849 259.513 67.1339 259.646 66.7159 259.912C66.2979 260.165 65.9939 260.551 65.8039 261.071C65.6139 261.59 65.5125 262.249 65.4999 263.047V263.37C65.4999 264.206 65.5885 264.915 65.7659 265.498C65.9432 266.08 66.2409 266.524 66.6589 266.828C67.0895 267.132 67.6722 267.284 68.4069 267.284C69.0275 267.284 69.5342 267.113 69.9269 266.771C70.3322 266.429 70.6299 265.966 70.8199 265.384C71.0225 264.788 71.1239 264.111 71.1239 263.351C71.1239 262.185 70.8959 261.254 70.4399 260.558C69.9965 259.861 69.3062 259.513 68.3689 259.513ZM80.3623 258.107C81.6163 258.107 82.6233 258.544 83.3833 259.418C84.156 260.292 84.5423 261.609 84.5423 263.37C84.5423 264.522 84.365 265.498 84.0103 266.296C83.6683 267.081 83.1807 267.676 82.5473 268.082C81.9267 268.474 81.192 268.671 80.3433 268.671C79.824 268.671 79.3617 268.601 78.9563 268.462C78.551 268.322 78.2027 268.145 77.9113 267.93C77.6327 267.702 77.392 267.455 77.1893 267.189H77.0753C77.1007 267.404 77.126 267.676 77.1513 268.006C77.1767 268.335 77.1893 268.62 77.1893 268.861V273.041H75.5173V258.297H76.8853L77.1133 259.684H77.1893C77.392 259.392 77.6327 259.126 77.9113 258.886C78.2027 258.645 78.5447 258.455 78.9373 258.316C79.3427 258.176 79.8177 258.107 80.3623 258.107ZM80.0583 259.513C79.3743 259.513 78.8233 259.646 78.4053 259.912C77.9873 260.165 77.6833 260.551 77.4933 261.071C77.3033 261.59 77.202 262.249 77.1893 263.047V263.37C77.1893 264.206 77.278 264.915 77.4553 265.498C77.6327 266.08 77.9303 266.524 78.3483 266.828C78.779 267.132 79.3617 267.284 80.0963 267.284C80.717 267.284 81.2237 267.113 81.6163 266.771C82.0217 266.429 82.3193 265.966 82.5093 265.384C82.712 264.788 82.8133 264.111 82.8133 263.351C82.8133 262.185 82.5853 261.254 82.1293 260.558C81.686 259.861 80.9957 259.513 80.0583 259.513ZM91.1398 258.107C92.0138 258.107 92.7611 258.297 93.3818 258.677C94.0151 259.057 94.4964 259.595 94.8258 260.292C95.1678 260.976 95.3388 261.78 95.3388 262.705V263.712H88.3658C88.3911 264.864 88.6824 265.745 89.2398 266.353C89.8098 266.948 90.6014 267.246 91.6148 267.246C92.2608 267.246 92.8308 267.189 93.3248 267.075C93.8314 266.948 94.3508 266.771 94.8828 266.543V268.006C94.3634 268.234 93.8504 268.398 93.3438 268.5C92.8371 268.614 92.2354 268.671 91.5388 268.671C90.5761 268.671 89.7211 268.474 88.9738 268.082C88.2391 267.689 87.6628 267.106 87.2448 266.334C86.8394 265.548 86.6368 264.592 86.6368 263.465C86.6368 262.35 86.8204 261.394 87.1878 260.596C87.5678 259.798 88.0934 259.183 88.7648 258.753C89.4488 258.322 90.2404 258.107 91.1398 258.107ZM91.1208 259.475C90.3228 259.475 89.6894 259.734 89.2208 260.254C88.7648 260.76 88.4924 261.47 88.4038 262.382H93.5908C93.5908 261.799 93.5021 261.292 93.3248 260.862C93.1474 260.431 92.8751 260.095 92.5078 259.855C92.1531 259.601 91.6908 259.475 91.1208 259.475ZM102.681 258.107C102.871 258.107 103.074 258.119 103.289 258.145C103.517 258.157 103.714 258.183 103.878 258.221L103.669 259.76C103.505 259.722 103.321 259.69 103.118 259.665C102.928 259.639 102.745 259.627 102.567 259.627C102.175 259.627 101.801 259.709 101.446 259.874C101.092 260.038 100.775 260.273 100.496 260.577C100.218 260.868 99.9961 261.223 99.8314 261.641C99.6794 262.059 99.6034 262.527 99.6034 263.047V268.481H97.9314V258.297H99.2994L99.4894 260.159H99.5654C99.7807 259.779 100.04 259.437 100.344 259.133C100.648 258.816 100.997 258.569 101.389 258.392C101.782 258.202 102.213 258.107 102.681 258.107ZM115.556 258.126C116.797 258.126 117.716 258.398 118.311 258.943C118.906 259.487 119.204 260.355 119.204 261.546V268.481H117.988L117.665 267.037H117.589C117.298 267.404 116.994 267.714 116.677 267.968C116.373 268.208 116.018 268.386 115.613 268.5C115.22 268.614 114.739 268.671 114.169 268.671C113.561 268.671 113.01 268.563 112.516 268.348C112.035 268.132 111.655 267.803 111.376 267.36C111.097 266.904 110.958 266.334 110.958 265.65C110.958 264.636 111.357 263.857 112.155 263.313C112.953 262.755 114.182 262.451 115.841 262.401L117.57 262.344V261.736C117.57 260.887 117.386 260.298 117.019 259.969C116.652 259.639 116.132 259.475 115.461 259.475C114.929 259.475 114.422 259.557 113.941 259.722C113.46 259.874 113.01 260.051 112.592 260.254L112.079 259C112.522 258.759 113.048 258.556 113.656 258.392C114.264 258.214 114.897 258.126 115.556 258.126ZM116.05 263.56C114.783 263.61 113.903 263.813 113.409 264.168C112.928 264.522 112.687 265.023 112.687 265.669C112.687 266.239 112.858 266.657 113.2 266.923C113.555 267.189 114.004 267.322 114.549 267.322C115.41 267.322 116.126 267.087 116.696 266.619C117.266 266.137 117.551 265.403 117.551 264.415V263.503L116.05 263.56ZM127.251 258.107C128.467 258.107 129.386 258.404 130.006 259C130.627 259.582 130.937 260.532 130.937 261.85V268.481H129.284V261.964C129.284 261.14 129.101 260.526 128.733 260.121C128.366 259.715 127.79 259.513 127.004 259.513C125.877 259.513 125.098 259.829 124.667 260.463C124.237 261.096 124.021 262.008 124.021 263.199V268.481H122.349V258.297H123.698L123.945 259.684H124.04C124.268 259.329 124.547 259.038 124.876 258.81C125.218 258.569 125.592 258.392 125.997 258.278C126.403 258.164 126.821 258.107 127.251 258.107ZM137.704 268.671C136.438 268.671 135.424 268.234 134.664 267.36C133.904 266.473 133.524 265.156 133.524 263.408C133.524 261.66 133.904 260.342 134.664 259.456C135.437 258.556 136.457 258.107 137.723 258.107C138.255 258.107 138.718 258.176 139.11 258.316C139.503 258.442 139.845 258.62 140.136 258.848C140.428 259.076 140.675 259.329 140.877 259.608H140.991C140.979 259.443 140.953 259.202 140.915 258.886C140.89 258.556 140.877 258.297 140.877 258.107V254.041H142.549V268.481H141.2L140.953 267.113H140.877C140.675 267.404 140.428 267.67 140.136 267.911C139.845 268.139 139.497 268.322 139.091 268.462C138.699 268.601 138.236 268.671 137.704 268.671ZM137.97 267.284C139.047 267.284 139.801 266.992 140.231 266.41C140.675 265.814 140.896 264.921 140.896 263.731V263.427C140.896 262.16 140.687 261.191 140.269 260.52C139.851 259.836 139.079 259.494 137.951 259.494C137.052 259.494 136.374 259.855 135.918 260.577C135.475 261.286 135.253 262.242 135.253 263.446C135.253 264.662 135.475 265.605 135.918 266.277C136.374 266.948 137.058 267.284 137.97 267.284ZM153.375 268.481H151.703V254.041H153.375V268.481ZM165.455 263.37C165.455 264.218 165.341 264.972 165.113 265.631C164.898 266.277 164.581 266.828 164.163 267.284C163.758 267.74 163.258 268.088 162.662 268.329C162.08 268.557 161.427 268.671 160.705 268.671C160.034 268.671 159.413 268.557 158.843 268.329C158.273 268.088 157.779 267.74 157.361 267.284C156.943 266.828 156.614 266.277 156.373 265.631C156.145 264.972 156.031 264.218 156.031 263.37C156.031 262.242 156.221 261.292 156.601 260.52C156.981 259.734 157.526 259.139 158.235 258.734C158.945 258.316 159.787 258.107 160.762 258.107C161.687 258.107 162.498 258.316 163.194 258.734C163.904 259.139 164.455 259.734 164.847 260.52C165.253 261.292 165.455 262.242 165.455 263.37ZM157.76 263.37C157.76 264.168 157.862 264.864 158.064 265.46C158.28 266.042 158.609 266.492 159.052 266.809C159.496 267.125 160.059 267.284 160.743 267.284C161.427 267.284 161.991 267.125 162.434 266.809C162.878 266.492 163.201 266.042 163.403 265.46C163.619 264.864 163.726 264.168 163.726 263.37C163.726 262.559 163.619 261.869 163.403 261.299C163.188 260.729 162.859 260.292 162.415 259.988C161.985 259.671 161.421 259.513 160.724 259.513C159.686 259.513 158.932 259.855 158.463 260.539C157.995 261.223 157.76 262.166 157.76 263.37ZM174.308 262.724C174.232 262.458 174.156 262.198 174.08 261.945C174.004 261.679 173.934 261.432 173.871 261.204C173.82 260.963 173.77 260.741 173.719 260.539C173.668 260.336 173.63 260.165 173.605 260.026H173.529C173.504 260.165 173.466 260.336 173.415 260.539C173.377 260.741 173.326 260.963 173.263 261.204C173.212 261.444 173.149 261.698 173.073 261.964C173.01 262.217 172.934 262.477 172.845 262.743L171.021 268.462H169.121L166.328 258.278H168.057L169.463 263.712C169.564 264.079 169.659 264.453 169.748 264.833C169.837 265.2 169.913 265.555 169.976 265.897C170.052 266.226 170.103 266.511 170.128 266.752H170.204C170.242 266.6 170.286 266.41 170.337 266.182C170.388 265.954 170.438 265.713 170.489 265.46C170.552 265.206 170.616 264.953 170.679 264.7C170.755 264.446 170.825 264.218 170.888 264.016L172.693 258.278H174.517L176.265 264.016C176.354 264.307 176.442 264.617 176.531 264.947C176.632 265.276 176.721 265.599 176.797 265.916C176.873 266.22 176.924 266.492 176.949 266.733H177.025C177.05 266.517 177.095 266.251 177.158 265.935C177.234 265.605 177.316 265.251 177.405 264.871C177.506 264.478 177.608 264.092 177.709 263.712L179.134 258.278H180.844L178.013 268.462H176.056L174.308 262.724ZM186.604 258.107C187.478 258.107 188.225 258.297 188.846 258.677C189.479 259.057 189.96 259.595 190.29 260.292C190.632 260.976 190.803 261.78 190.803 262.705V263.712H183.83C183.855 264.864 184.146 265.745 184.704 266.353C185.274 266.948 186.065 267.246 187.079 267.246C187.725 267.246 188.295 267.189 188.789 267.075C189.295 266.948 189.815 266.771 190.347 266.543V268.006C189.827 268.234 189.314 268.398 188.808 268.5C188.301 268.614 187.699 268.671 187.003 268.671C186.04 268.671 185.185 268.474 184.438 268.082C183.703 267.689 183.127 267.106 182.709 266.334C182.303 265.548 182.101 264.592 182.101 263.465C182.101 262.35 182.284 261.394 182.652 260.596C183.032 259.798 183.557 259.183 184.229 258.753C184.913 258.322 185.704 258.107 186.604 258.107ZM186.585 259.475C185.787 259.475 185.153 259.734 184.685 260.254C184.229 260.76 183.956 261.47 183.868 262.382H189.055C189.055 261.799 188.966 261.292 188.789 260.862C188.611 260.431 188.339 260.095 187.972 259.855C187.617 259.601 187.155 259.475 186.585 259.475ZM198.145 258.107C198.335 258.107 198.538 258.119 198.753 258.145C198.981 258.157 199.178 258.183 199.342 258.221L199.133 259.76C198.969 259.722 198.785 259.69 198.582 259.665C198.392 259.639 198.209 259.627 198.031 259.627C197.639 259.627 197.265 259.709 196.91 259.874C196.556 260.038 196.239 260.273 195.96 260.577C195.682 260.868 195.46 261.223 195.295 261.641C195.143 262.059 195.067 262.527 195.067 263.047V268.481H193.395V258.297H194.763L194.953 260.159H195.029C195.245 259.779 195.504 259.437 195.808 259.133C196.112 258.816 196.461 258.569 196.853 258.392C197.246 258.202 197.677 258.107 198.145 258.107ZM65.0907 297.671C63.824 297.671 62.8107 297.234 62.0507 296.36C61.2907 295.473 60.9107 294.156 60.9107 292.408C60.9107 290.66 61.2907 289.342 62.0507 288.456C62.8234 287.556 63.843 287.107 65.1097 287.107C65.6417 287.107 66.104 287.176 66.4967 287.316C66.8894 287.442 67.2314 287.62 67.5227 287.848C67.814 288.076 68.061 288.329 68.2637 288.608H68.3777C68.365 288.443 68.3397 288.202 68.3017 287.886C68.2764 287.556 68.2637 287.297 68.2637 287.107V283.041H69.9357V297.481H68.5867L68.3397 296.113H68.2637C68.061 296.404 67.814 296.67 67.5227 296.911C67.2314 297.139 66.883 297.322 66.4777 297.462C66.085 297.601 65.6227 297.671 65.0907 297.671ZM65.3567 296.284C66.4334 296.284 67.187 295.992 67.6177 295.41C68.061 294.814 68.2827 293.921 68.2827 292.731V292.427C68.2827 291.16 68.0737 290.191 67.6557 289.52C67.2377 288.836 66.465 288.494 65.3377 288.494C64.4384 288.494 63.7607 288.855 63.3047 289.577C62.8614 290.286 62.6397 291.242 62.6397 292.446C62.6397 293.662 62.8614 294.605 63.3047 295.277C63.7607 295.948 64.4447 296.284 65.3567 296.284ZM74.8422 287.297V297.481H73.1702V287.297H74.8422ZM74.0252 283.478C74.2785 283.478 74.5002 283.566 74.6902 283.744C74.8928 283.908 74.9942 284.174 74.9942 284.542C74.9942 284.896 74.8928 285.162 74.6902 285.34C74.5002 285.517 74.2785 285.606 74.0252 285.606C73.7465 285.606 73.5122 285.517 73.3222 285.34C73.1322 285.162 73.0372 284.896 73.0372 284.542C73.0372 284.174 73.1322 283.908 73.3222 283.744C73.5122 283.566 73.7465 283.478 74.0252 283.478ZM80.3106 297.481L76.4536 287.297H78.2396L80.4056 293.301C80.5069 293.579 80.6146 293.89 80.7286 294.232C80.8426 294.574 80.9439 294.903 81.0326 295.22C81.1213 295.524 81.1846 295.783 81.2226 295.999H81.2986C81.3493 295.783 81.4189 295.517 81.5076 295.201C81.6089 294.884 81.7166 294.555 81.8306 294.213C81.9573 293.871 82.0649 293.567 82.1536 293.301L84.3196 287.297H86.1056L82.2296 297.481H80.3106ZM89.389 287.297V297.481H87.717V287.297H89.389ZM88.572 283.478C88.8254 283.478 89.047 283.566 89.237 283.744C89.4397 283.908 89.541 284.174 89.541 284.542C89.541 284.896 89.4397 285.162 89.237 285.34C89.047 285.517 88.8254 285.606 88.572 285.606C88.2934 285.606 88.059 285.517 87.869 285.34C87.679 285.162 87.584 284.896 87.584 284.542C87.584 284.174 87.679 283.908 87.869 283.744C88.059 283.566 88.2934 283.478 88.572 283.478ZM99.2465 294.669C99.2465 295.327 99.0818 295.878 98.7525 296.322C98.4231 296.765 97.9545 297.101 97.3465 297.329C96.7385 297.557 96.0165 297.671 95.1805 297.671C94.4711 297.671 93.8568 297.614 93.3375 297.5C92.8308 297.386 92.3811 297.227 91.9885 297.025V295.505C92.3938 295.707 92.8815 295.897 93.4515 296.075C94.0341 296.239 94.6231 296.322 95.2185 296.322C96.0671 296.322 96.6815 296.189 97.0615 295.923C97.4415 295.644 97.6315 295.277 97.6315 294.821C97.6315 294.567 97.5618 294.339 97.4225 294.137C97.2831 293.934 97.0298 293.731 96.6625 293.529C96.3078 293.326 95.7948 293.098 95.1235 292.845C94.4648 292.591 93.9011 292.338 93.4325 292.085C92.9638 291.831 92.6028 291.527 92.3495 291.173C92.0961 290.818 91.9695 290.362 91.9695 289.805C91.9695 288.943 92.3178 288.278 93.0145 287.81C93.7238 287.341 94.6485 287.107 95.7885 287.107C96.4091 287.107 96.9855 287.17 97.5175 287.297C98.0621 287.411 98.5688 287.575 99.0375 287.791L98.4675 289.121C98.1888 288.994 97.8911 288.886 97.5745 288.798C97.2705 288.696 96.9601 288.62 96.6435 288.57C96.3268 288.506 96.0038 288.475 95.6745 288.475C94.9905 288.475 94.4648 288.589 94.0975 288.817C93.7428 289.032 93.5655 289.33 93.5655 289.71C93.5655 289.988 93.6478 290.229 93.8125 290.432C93.9771 290.622 94.2495 290.812 94.6295 291.002C95.0221 291.179 95.5415 291.394 96.1875 291.648C96.8335 291.888 97.3845 292.135 97.8405 292.389C98.2965 292.642 98.6448 292.952 98.8855 293.32C99.1261 293.674 99.2465 294.124 99.2465 294.669ZM103.379 287.297V297.481H101.707V287.297H103.379ZM102.562 283.478C102.816 283.478 103.037 283.566 103.227 283.744C103.43 283.908 103.531 284.174 103.531 284.542C103.531 284.896 103.43 285.162 103.227 285.34C103.037 285.517 102.816 285.606 102.562 285.606C102.284 285.606 102.049 285.517 101.859 285.34C101.669 285.162 101.574 284.896 101.574 284.542C101.574 284.174 101.669 283.908 101.859 283.744C102.049 283.566 102.284 283.478 102.562 283.478ZM115.46 292.37C115.46 293.218 115.346 293.972 115.118 294.631C114.902 295.277 114.586 295.828 114.168 296.284C113.762 296.74 113.262 297.088 112.667 297.329C112.084 297.557 111.432 297.671 110.71 297.671C110.038 297.671 109.418 297.557 108.848 297.329C108.278 297.088 107.784 296.74 107.366 296.284C106.948 295.828 106.618 295.277 106.378 294.631C106.15 293.972 106.036 293.218 106.036 292.37C106.036 291.242 106.226 290.292 106.606 289.52C106.986 288.734 107.53 288.139 108.24 287.734C108.949 287.316 109.791 287.107 110.767 287.107C111.691 287.107 112.502 287.316 113.199 287.734C113.908 288.139 114.459 288.734 114.852 289.52C115.257 290.292 115.46 291.242 115.46 292.37ZM107.765 292.37C107.765 293.168 107.866 293.864 108.069 294.46C108.284 295.042 108.613 295.492 109.057 295.809C109.5 296.125 110.064 296.284 110.748 296.284C111.432 296.284 111.995 296.125 112.439 295.809C112.882 295.492 113.205 295.042 113.408 294.46C113.623 293.864 113.731 293.168 113.731 292.37C113.731 291.559 113.623 290.869 113.408 290.299C113.192 289.729 112.863 289.292 112.42 288.988C111.989 288.671 111.425 288.513 110.729 288.513C109.69 288.513 108.936 288.855 108.468 289.539C107.999 290.223 107.765 291.166 107.765 292.37ZM123.012 287.107C124.228 287.107 125.146 287.404 125.767 288C126.387 288.582 126.698 289.532 126.698 290.85V297.481H125.045V290.964C125.045 290.14 124.861 289.526 124.494 289.121C124.126 288.715 123.55 288.513 122.765 288.513C121.637 288.513 120.858 288.829 120.428 289.463C119.997 290.096 119.782 291.008 119.782 292.199V297.481H118.11V287.297H119.459L119.706 288.684H119.801C120.029 288.329 120.307 288.038 120.637 287.81C120.979 287.569 121.352 287.392 121.758 287.278C122.163 287.164 122.581 287.107 123.012 287.107ZM139.175 296.303C139.428 296.303 139.688 296.284 139.954 296.246C140.22 296.195 140.435 296.144 140.6 296.094V297.367C140.422 297.455 140.169 297.525 139.84 297.576C139.51 297.639 139.194 297.671 138.89 297.671C138.358 297.671 137.864 297.582 137.408 297.405C136.964 297.215 136.603 296.892 136.325 296.436C136.046 295.98 135.907 295.34 135.907 294.517V288.589H134.463V287.791L135.926 287.126L136.591 284.96H137.579V287.297H140.524V288.589H137.579V294.479C137.579 295.099 137.724 295.562 138.016 295.866C138.32 296.157 138.706 296.303 139.175 296.303ZM151.151 287.297V297.481H149.783L149.536 296.132H149.46C149.245 296.486 148.966 296.778 148.624 297.006C148.282 297.234 147.908 297.398 147.503 297.5C147.098 297.614 146.673 297.671 146.23 297.671C145.419 297.671 144.735 297.544 144.178 297.291C143.633 297.025 143.222 296.619 142.943 296.075C142.664 295.53 142.525 294.827 142.525 293.966V287.297H144.216V293.852C144.216 294.662 144.4 295.27 144.767 295.676C145.134 296.081 145.704 296.284 146.477 296.284C147.237 296.284 147.832 296.144 148.263 295.866C148.706 295.574 149.017 295.156 149.194 294.612C149.384 294.054 149.479 293.383 149.479 292.598V287.297H151.151ZM157.785 296.303C158.038 296.303 158.298 296.284 158.564 296.246C158.83 296.195 159.045 296.144 159.21 296.094V297.367C159.033 297.455 158.779 297.525 158.45 297.576C158.121 297.639 157.804 297.671 157.5 297.671C156.968 297.671 156.474 297.582 156.018 297.405C155.575 297.215 155.214 296.892 154.935 296.436C154.656 295.98 154.517 295.34 154.517 294.517V288.589H153.073V287.791L154.536 287.126L155.201 284.96H156.189V287.297H159.134V288.589H156.189V294.479C156.189 295.099 156.335 295.562 156.626 295.866C156.93 296.157 157.316 296.303 157.785 296.303ZM170.103 292.37C170.103 293.218 169.989 293.972 169.761 294.631C169.546 295.277 169.229 295.828 168.811 296.284C168.406 296.74 167.906 297.088 167.31 297.329C166.728 297.557 166.075 297.671 165.353 297.671C164.682 297.671 164.061 297.557 163.491 297.329C162.921 297.088 162.427 296.74 162.009 296.284C161.591 295.828 161.262 295.277 161.021 294.631C160.793 293.972 160.679 293.218 160.679 292.37C160.679 291.242 160.869 290.292 161.249 289.52C161.629 288.734 162.174 288.139 162.883 287.734C163.593 287.316 164.435 287.107 165.41 287.107C166.335 287.107 167.146 287.316 167.842 287.734C168.552 288.139 169.103 288.734 169.495 289.52C169.901 290.292 170.103 291.242 170.103 292.37ZM162.408 292.37C162.408 293.168 162.51 293.864 162.712 294.46C162.928 295.042 163.257 295.492 163.7 295.809C164.144 296.125 164.707 296.284 165.391 296.284C166.075 296.284 166.639 296.125 167.082 295.809C167.526 295.492 167.849 295.042 168.051 294.46C168.267 293.864 168.374 293.168 168.374 292.37C168.374 291.559 168.267 290.869 168.051 290.299C167.836 289.729 167.507 289.292 167.063 288.988C166.633 288.671 166.069 288.513 165.372 288.513C164.334 288.513 163.58 288.855 163.111 289.539C162.643 290.223 162.408 291.166 162.408 292.37ZM177.503 287.107C177.693 287.107 177.896 287.119 178.111 287.145C178.339 287.157 178.535 287.183 178.7 287.221L178.491 288.76C178.326 288.722 178.143 288.69 177.94 288.665C177.75 288.639 177.566 288.627 177.389 288.627C176.996 288.627 176.623 288.709 176.268 288.874C175.913 289.038 175.597 289.273 175.318 289.577C175.039 289.868 174.818 290.223 174.653 290.641C174.501 291.059 174.425 291.527 174.425 292.047V297.481H172.753V287.297H174.121L174.311 289.159H174.387C174.602 288.779 174.862 288.437 175.166 288.133C175.47 287.816 175.818 287.569 176.211 287.392C176.604 287.202 177.034 287.107 177.503 287.107ZM187.233 294.669C187.233 295.327 187.068 295.878 186.739 296.322C186.409 296.765 185.941 297.101 185.333 297.329C184.725 297.557 184.003 297.671 183.167 297.671C182.457 297.671 181.843 297.614 181.324 297.5C180.817 297.386 180.367 297.227 179.975 297.025V295.505C180.38 295.707 180.868 295.897 181.438 296.075C182.02 296.239 182.609 296.322 183.205 296.322C184.053 296.322 184.668 296.189 185.048 295.923C185.428 295.644 185.618 295.277 185.618 294.821C185.618 294.567 185.548 294.339 185.409 294.137C185.269 293.934 185.016 293.731 184.649 293.529C184.294 293.326 183.781 293.098 183.11 292.845C182.451 292.591 181.887 292.338 181.419 292.085C180.95 291.831 180.589 291.527 180.336 291.173C180.082 290.818 179.956 290.362 179.956 289.805C179.956 288.943 180.304 288.278 181.001 287.81C181.71 287.341 182.635 287.107 183.775 287.107C184.395 287.107 184.972 287.17 185.504 287.297C186.048 287.411 186.555 287.575 187.024 287.791L186.454 289.121C186.175 288.994 185.877 288.886 185.561 288.798C185.257 288.696 184.946 288.62 184.63 288.57C184.313 288.506 183.99 288.475 183.661 288.475C182.977 288.475 182.451 288.589 182.084 288.817C181.729 289.032 181.552 289.33 181.552 289.71C181.552 289.988 181.634 290.229 181.799 290.432C181.963 290.622 182.236 290.812 182.616 291.002C183.008 291.179 183.528 291.394 184.174 291.648C184.82 291.888 185.371 292.135 185.827 292.389C186.283 292.642 186.631 292.952 186.872 293.32C187.112 293.674 187.233 294.124 187.233 294.669Z" fill="#F0F0F0"/>
<path d="M202.311 84.135C202.27 81.0096 200.607 78.13 197.921 76.5321L127.322 34.539C124.528 32.8772 121.054 32.8547 118.239 34.48L49.0571 74.4221C46.2419 76.0475 44.5246 79.0671 44.5668 82.3175L45.6342 164.455C45.6748 167.58 47.3374 170.46 50.0238 172.058L120.623 214.051C123.417 215.713 126.891 215.735 129.706 214.11L198.888 174.168C201.703 172.543 203.42 169.523 203.378 166.273L202.311 84.135Z" fill="url(#paint0_linear_495_2778)" stroke="url(#paint1_linear_495_2778)" stroke-width="2.34313"/>
<path d="M203.5 168L202 80.5L195.5 75L160.5 78L153.5 105.5L124.5 108L120 134L86 137V165L50 170L51.5 173L122.5 215H127.5L200 173.5L203.5 168Z" fill="url(#paint2_linear_495_2778)"/>
<path d="M197 78.95C197 80.2628 196.477 81.5219 195.545 82.4502C194.614 83.3785 193.351 83.9 192.033 83.9H162.233V108.65C162.233 109.963 161.71 111.222 160.779 112.15C159.847 113.078 158.584 113.6 157.267 113.6H127.467V138.35C127.467 139.663 126.943 140.922 126.012 141.85C125.081 142.778 123.817 143.3 122.5 143.3H92.7V168.05C92.7 169.363 92.1767 170.622 91.2453 171.55C90.3139 172.478 89.0506 173 87.7333 173H52.9667C51.6494 173 50.3861 172.478 49.4547 171.55C48.5233 170.622 48 169.363 48 168.05C48 166.737 48.5233 165.478 49.4547 164.55C50.3861 163.622 51.6494 163.1 52.9667 163.1H82.7667V138.35C82.7667 137.037 83.2899 135.778 84.2214 134.85C85.1528 133.922 86.4161 133.4 87.7333 133.4H117.533V108.65C117.533 107.337 118.057 106.078 118.988 105.15C119.919 104.222 121.183 103.7 122.5 103.7H152.3V78.95C152.3 77.6372 152.823 76.3781 153.755 75.4498C154.686 74.5215 155.949 74 157.267 74H192.033C193.351 74 194.614 74.5215 195.545 75.4498C196.477 76.3781 197 77.6372 197 78.95Z" fill="black"/>
<path d="M197 78.95C197 80.2628 196.477 81.5219 195.545 82.4502C194.614 83.3785 193.351 83.9 192.033 83.9H162.233V108.65C162.233 109.963 161.71 111.222 160.779 112.15C159.847 113.078 158.584 113.6 157.267 113.6H127.467V138.35C127.467 139.663 126.943 140.922 126.012 141.85C125.081 142.778 123.817 143.3 122.5 143.3H92.7V168.05C92.7 169.363 92.1767 170.622 91.2453 171.55C90.3139 172.478 89.0506 173 87.7333 173H52.9667C51.6494 173 50.3861 172.478 49.4547 171.55C48.5233 170.622 48 169.363 48 168.05C48 166.737 48.5233 165.478 49.4547 164.55C50.3861 163.622 51.6494 163.1 52.9667 163.1H82.7667V138.35C82.7667 137.037 83.2899 135.778 84.2214 134.85C85.1528 133.922 86.4161 133.4 87.7333 133.4H117.533V108.65C117.533 107.337 118.057 106.078 118.988 105.15C119.919 104.222 121.183 103.7 122.5 103.7H152.3V78.95C152.3 77.6372 152.823 76.3781 153.755 75.4498C154.686 74.5215 155.949 74 157.267 74H192.033C193.351 74 194.614 74.5215 195.545 75.4498C196.477 76.3781 197 77.6372 197 78.95Z" fill="url(#paint3_linear_495_2778)"/>
<path d="M202.311 84.135C202.27 81.0096 200.607 78.13 197.921 76.5321L127.322 34.539C124.528 32.8772 121.054 32.8547 118.239 34.48L49.0571 74.4221C46.2419 76.0475 44.5246 79.0671 44.5668 82.3175L45.6342 164.455C45.6748 167.58 47.3374 170.46 50.0238 172.058L120.623 214.051C123.417 215.713 126.891 215.735 129.706 214.11L198.888 174.168C201.703 172.543 203.42 169.523 203.378 166.273L202.311 84.135Z" stroke="url(#paint4_linear_495_2778)" stroke-width="2.34313"/>
<defs>
<linearGradient id="paint0_linear_495_2778" x1="301.659" y1="271.521" x2="175.817" y2="8.28353" gradientUnits="userSpaceOnUse">
<stop offset="0.379733" stop-color="#FFDE28" stop-opacity="0.7"/>
<stop offset="0.988905" stop-color="#FFDE28" stop-opacity="0.1"/>
</linearGradient>
<linearGradient id="paint1_linear_495_2778" x1="34.848" y1="62.0352" x2="309.001" y2="245.068" gradientUnits="userSpaceOnUse">
<stop offset="0.129324" stop-color="#5D4E00"/>
<stop offset="0.247324" stop-color="#FFDE28"/>
<stop offset="0.401695" stop-color="#FFFD8F"/>
<stop offset="0.520532" stop-color="#DAC139"/>
<stop offset="0.659271" stop-color="#978000"/>
</linearGradient>
<linearGradient id="paint2_linear_495_2778" x1="247.5" y1="87" x2="52.3461" y2="85.3339" gradientUnits="userSpaceOnUse">
<stop offset="0.124936" stop-color="#141413"/>
<stop offset="0.546354" stop-color="#181715" stop-opacity="0.7"/>
<stop offset="0.988905" stop-color="#181715" stop-opacity="0.1"/>
</linearGradient>
<linearGradient id="paint3_linear_495_2778" x1="201.967" y1="60.14" x2="138.208" y2="219.338" gradientUnits="userSpaceOnUse">
<stop stop-color="#413A12"/>
<stop offset="1"/>
</linearGradient>
<linearGradient id="paint4_linear_495_2778" x1="34.848" y1="62.0352" x2="309.001" y2="245.068" gradientUnits="userSpaceOnUse">
<stop offset="0.129324" stop-color="#5D4E00"/>
<stop offset="0.247324" stop-color="#FFDE28"/>
<stop offset="0.401695" stop-color="#FFFD8F"/>
<stop offset="0.520532" stop-color="#DAC139"/>
<stop offset="0.659271" stop-color="#978000"/>
</linearGradient>
</defs>
</svg>
