<svg width="247" height="303" viewBox="0 0 247 303" fill="none" xmlns="http://www.w3.org/2000/svg">
<path d="M57.5438 268.481H55.8338V262.154H48.8798V268.481H47.1698V254.915H48.8798V260.653H55.8338V254.915H57.5438V268.481ZM69.8788 263.37C69.8788 264.218 69.7648 264.972 69.5368 265.631C69.3214 266.277 69.0048 266.828 68.5868 267.284C68.1814 267.74 67.6811 268.088 67.0858 268.329C66.5031 268.557 65.8508 268.671 65.1288 268.671C64.4574 268.671 63.8368 268.557 63.2668 268.329C62.6968 268.088 62.2028 267.74 61.7848 267.284C61.3668 266.828 61.0374 266.277 60.7968 265.631C60.5688 264.972 60.4548 264.218 60.4548 263.37C60.4548 262.242 60.6448 261.292 61.0248 260.52C61.4048 259.734 61.9494 259.139 62.6588 258.734C63.3681 258.316 64.2104 258.107 65.1858 258.107C66.1104 258.107 66.9211 258.316 67.6178 258.734C68.3271 259.139 68.8781 259.734 69.2708 260.52C69.6761 261.292 69.8788 262.242 69.8788 263.37ZM62.1838 263.37C62.1838 264.168 62.2851 264.864 62.4878 265.46C62.7031 266.042 63.0324 266.492 63.4758 266.809C63.9191 267.125 64.4828 267.284 65.1668 267.284C65.8508 267.284 66.4144 267.125 66.8578 266.809C67.3011 266.492 67.6241 266.042 67.8268 265.46C68.0421 264.864 68.1498 264.168 68.1498 263.37C68.1498 262.559 68.0421 261.869 67.8268 261.299C67.6114 260.729 67.2821 260.292 66.8388 259.988C66.4081 259.671 65.8444 259.513 65.1478 259.513C64.1091 259.513 63.3554 259.855 62.8868 260.539C62.4181 261.223 62.1838 262.166 62.1838 263.37ZM81.0407 258.297V268.481H79.6727L79.4257 267.132H79.3497C79.1343 267.486 78.8557 267.778 78.5137 268.006C78.1717 268.234 77.798 268.398 77.3927 268.5C76.9873 268.614 76.563 268.671 76.1197 268.671C75.309 268.671 74.625 268.544 74.0677 268.291C73.523 268.025 73.1113 267.619 72.8327 267.075C72.554 266.53 72.4147 265.827 72.4147 264.966V258.297H74.1057V264.852C74.1057 265.662 74.2893 266.27 74.6567 266.676C75.024 267.081 75.594 267.284 76.3667 267.284C77.1267 267.284 77.722 267.144 78.1527 266.866C78.596 266.574 78.9063 266.156 79.0837 265.612C79.2737 265.054 79.3687 264.383 79.3687 263.598V258.297H81.0407ZM89.0238 258.107C89.2138 258.107 89.4165 258.119 89.6318 258.145C89.8598 258.157 90.0561 258.183 90.2208 258.221L90.0118 259.76C89.8471 259.722 89.6635 259.69 89.4608 259.665C89.2708 259.639 89.0871 259.627 88.9098 259.627C88.5171 259.627 88.1435 259.709 87.7888 259.874C87.4341 260.038 87.1175 260.273 86.8388 260.577C86.5601 260.868 86.3385 261.223 86.1738 261.641C86.0218 262.059 85.9458 262.527 85.9458 263.047V268.481H84.2738V258.297H85.6418L85.8318 260.159H85.9078C86.1231 259.779 86.3828 259.437 86.6868 259.133C86.9908 258.816 87.3391 258.569 87.7318 258.392C88.1245 258.202 88.5551 258.107 89.0238 258.107ZM98.7534 265.669C98.7534 266.327 98.5888 266.878 98.2594 267.322C97.9301 267.765 97.4614 268.101 96.8534 268.329C96.2454 268.557 95.5234 268.671 94.6874 268.671C93.9781 268.671 93.3638 268.614 92.8444 268.5C92.3378 268.386 91.8881 268.227 91.4954 268.025V266.505C91.9008 266.707 92.3884 266.897 92.9584 267.075C93.5411 267.239 94.1301 267.322 94.7254 267.322C95.5741 267.322 96.1884 267.189 96.5684 266.923C96.9484 266.644 97.1384 266.277 97.1384 265.821C97.1384 265.567 97.0688 265.339 96.9294 265.137C96.7901 264.934 96.5368 264.731 96.1694 264.529C95.8148 264.326 95.3018 264.098 94.6304 263.845C93.9718 263.591 93.4081 263.338 92.9394 263.085C92.4708 262.831 92.1098 262.527 91.8564 262.173C91.6031 261.818 91.4764 261.362 91.4764 260.805C91.4764 259.943 91.8248 259.278 92.5214 258.81C93.2308 258.341 94.1554 258.107 95.2954 258.107C95.9161 258.107 96.4924 258.17 97.0244 258.297C97.5691 258.411 98.0758 258.575 98.5444 258.791L97.9744 260.121C97.6958 259.994 97.3981 259.886 97.0814 259.798C96.7774 259.696 96.4671 259.62 96.1504 259.57C95.8338 259.506 95.5108 259.475 95.1814 259.475C94.4974 259.475 93.9718 259.589 93.6044 259.817C93.2498 260.032 93.0724 260.33 93.0724 260.71C93.0724 260.988 93.1548 261.229 93.3194 261.432C93.4841 261.622 93.7564 261.812 94.1364 262.002C94.5291 262.179 95.0484 262.394 95.6944 262.648C96.3404 262.888 96.8914 263.135 97.3474 263.389C97.8034 263.642 98.1518 263.952 98.3924 264.32C98.6331 264.674 98.7534 265.124 98.7534 265.669ZM115.987 263.37C115.987 264.218 115.873 264.972 115.645 265.631C115.43 266.277 115.113 266.828 114.695 267.284C114.29 267.74 113.789 268.088 113.194 268.329C112.611 268.557 111.959 268.671 111.237 268.671C110.566 268.671 109.945 268.557 109.375 268.329C108.805 268.088 108.311 267.74 107.893 267.284C107.475 266.828 107.146 266.277 106.905 265.631C106.677 264.972 106.563 264.218 106.563 263.37C106.563 262.242 106.753 261.292 107.133 260.52C107.513 259.734 108.058 259.139 108.767 258.734C109.476 258.316 110.319 258.107 111.294 258.107C112.219 258.107 113.029 258.316 113.726 258.734C114.435 259.139 114.986 259.734 115.379 260.52C115.784 261.292 115.987 262.242 115.987 263.37ZM108.292 263.37C108.292 264.168 108.393 264.864 108.596 265.46C108.811 266.042 109.141 266.492 109.584 266.809C110.027 267.125 110.591 267.284 111.275 267.284C111.959 267.284 112.523 267.125 112.966 266.809C113.409 266.492 113.732 266.042 113.935 265.46C114.15 264.864 114.258 264.168 114.258 263.37C114.258 262.559 114.15 261.869 113.935 261.299C113.72 260.729 113.39 260.292 112.947 259.988C112.516 259.671 111.953 259.513 111.256 259.513C110.217 259.513 109.464 259.855 108.995 260.539C108.526 261.223 108.292 262.166 108.292 263.37ZM123.33 259.589H120.765V268.481H119.093V259.589H117.307V258.81L119.093 258.24V257.651C119.093 256.777 119.22 256.067 119.473 255.523C119.739 254.978 120.119 254.579 120.613 254.326C121.107 254.072 121.702 253.946 122.399 253.946C122.804 253.946 123.172 253.984 123.501 254.06C123.843 254.123 124.134 254.199 124.375 254.288L123.938 255.599C123.735 255.535 123.501 255.472 123.235 255.409C122.969 255.345 122.697 255.314 122.418 255.314C121.861 255.314 121.443 255.504 121.164 255.884C120.898 256.251 120.765 256.834 120.765 257.632V258.297H123.33V259.589ZM134.488 267.303C134.742 267.303 135.001 267.284 135.267 267.246C135.533 267.195 135.749 267.144 135.913 267.094V268.367C135.736 268.455 135.483 268.525 135.153 268.576C134.824 268.639 134.507 268.671 134.203 268.671C133.671 268.671 133.177 268.582 132.721 268.405C132.278 268.215 131.917 267.892 131.638 267.436C131.36 266.98 131.22 266.34 131.22 265.517V259.589H129.776V258.791L131.239 258.126L131.904 255.96H132.892V258.297H135.837V259.589H132.892V265.479C132.892 266.099 133.038 266.562 133.329 266.866C133.633 267.157 134.02 267.303 134.488 267.303ZM146.465 258.297V268.481H145.097L144.85 267.132H144.774C144.558 267.486 144.28 267.778 143.938 268.006C143.596 268.234 143.222 268.398 142.817 268.5C142.411 268.614 141.987 268.671 141.544 268.671C140.733 268.671 140.049 268.544 139.492 268.291C138.947 268.025 138.535 267.619 138.257 267.075C137.978 266.53 137.839 265.827 137.839 264.966V258.297H139.53V264.852C139.53 265.662 139.713 266.27 140.081 266.676C140.448 267.081 141.018 267.284 141.791 267.284C142.551 267.284 143.146 267.144 143.577 266.866C144.02 266.574 144.33 266.156 144.508 265.612C144.698 265.054 144.793 264.383 144.793 263.598V258.297H146.465ZM153.099 267.303C153.352 267.303 153.612 267.284 153.878 267.246C154.144 267.195 154.359 267.144 154.524 267.094V268.367C154.346 268.455 154.093 268.525 153.764 268.576C153.434 268.639 153.118 268.671 152.814 268.671C152.282 268.671 151.788 268.582 151.332 268.405C150.888 268.215 150.527 267.892 150.249 267.436C149.97 266.98 149.831 266.34 149.831 265.517V259.589H148.387V258.791L149.85 258.126L150.515 255.96H151.503V258.297H154.448V259.589H151.503V265.479C151.503 266.099 151.648 266.562 151.94 266.866C152.244 267.157 152.63 267.303 153.099 267.303ZM165.417 263.37C165.417 264.218 165.303 264.972 165.075 265.631C164.86 266.277 164.543 266.828 164.125 267.284C163.72 267.74 163.219 268.088 162.624 268.329C162.041 268.557 161.389 268.671 160.667 268.671C159.996 268.671 159.375 268.557 158.805 268.329C158.235 268.088 157.741 267.74 157.323 267.284C156.905 266.828 156.576 266.277 156.335 265.631C156.107 264.972 155.993 264.218 155.993 263.37C155.993 262.242 156.183 261.292 156.563 260.52C156.943 259.734 157.488 259.139 158.197 258.734C158.906 258.316 159.749 258.107 160.724 258.107C161.649 258.107 162.459 258.316 163.156 258.734C163.865 259.139 164.416 259.734 164.809 260.52C165.214 261.292 165.417 262.242 165.417 263.37ZM157.722 263.37C157.722 264.168 157.823 264.864 158.026 265.46C158.241 266.042 158.571 266.492 159.014 266.809C159.457 267.125 160.021 267.284 160.705 267.284C161.389 267.284 161.953 267.125 162.396 266.809C162.839 266.492 163.162 266.042 163.365 265.46C163.58 264.864 163.688 264.168 163.688 263.37C163.688 262.559 163.58 261.869 163.365 261.299C163.15 260.729 162.82 260.292 162.377 259.988C161.946 259.671 161.383 259.513 160.686 259.513C159.647 259.513 158.894 259.855 158.425 260.539C157.956 261.223 157.722 262.166 157.722 263.37ZM172.817 258.107C173.007 258.107 173.209 258.119 173.425 258.145C173.653 258.157 173.849 258.183 174.014 258.221L173.805 259.76C173.64 259.722 173.456 259.69 173.254 259.665C173.064 259.639 172.88 259.627 172.703 259.627C172.31 259.627 171.936 259.709 171.582 259.874C171.227 260.038 170.91 260.273 170.632 260.577C170.353 260.868 170.131 261.223 169.967 261.641C169.815 262.059 169.739 262.527 169.739 263.047V268.481H168.067V258.297H169.435L169.625 260.159H169.701C169.916 259.779 170.176 259.437 170.48 259.133C170.784 258.816 171.132 258.569 171.525 258.392C171.917 258.202 172.348 258.107 172.817 258.107ZM177.587 258.297V268.481H175.915V258.297H177.587ZM176.77 254.478C177.024 254.478 177.245 254.566 177.435 254.744C177.638 254.908 177.739 255.174 177.739 255.542C177.739 255.896 177.638 256.162 177.435 256.34C177.245 256.517 177.024 256.606 176.77 256.606C176.492 256.606 176.257 256.517 176.067 256.34C175.877 256.162 175.782 255.896 175.782 255.542C175.782 255.174 175.877 254.908 176.067 254.744C176.257 254.566 176.492 254.478 176.77 254.478ZM185.716 258.107C186.932 258.107 187.85 258.404 188.471 259C189.091 259.582 189.402 260.532 189.402 261.85V268.481H187.749V261.964C187.749 261.14 187.565 260.526 187.198 260.121C186.83 259.715 186.254 259.513 185.469 259.513C184.341 259.513 183.562 259.829 183.132 260.463C182.701 261.096 182.486 262.008 182.486 263.199V268.481H180.814V258.297H182.163L182.41 259.684H182.505C182.733 259.329 183.011 259.038 183.341 258.81C183.683 258.569 184.056 258.392 184.462 258.278C184.867 258.164 185.285 258.107 185.716 258.107ZM196.169 258.107C196.84 258.107 197.442 258.233 197.974 258.487C198.519 258.74 198.981 259.126 199.361 259.646H199.456L199.684 258.297H201.014V268.652C201.014 269.614 200.849 270.419 200.52 271.065C200.191 271.723 199.69 272.217 199.019 272.547C198.348 272.876 197.493 273.041 196.454 273.041C195.719 273.041 195.042 272.984 194.421 272.87C193.813 272.768 193.268 272.61 192.787 272.395V270.856C193.116 271.02 193.477 271.16 193.87 271.274C194.263 271.4 194.687 271.495 195.143 271.559C195.599 271.622 196.068 271.654 196.549 271.654C197.423 271.654 198.107 271.394 198.601 270.875C199.108 270.368 199.361 269.671 199.361 268.785V268.386C199.361 268.234 199.367 268.018 199.38 267.74C199.393 267.448 199.405 267.246 199.418 267.132H199.342C198.987 267.651 198.544 268.037 198.012 268.291C197.493 268.544 196.885 268.671 196.188 268.671C194.871 268.671 193.838 268.208 193.091 267.284C192.356 266.359 191.989 265.067 191.989 263.408C191.989 262.318 192.154 261.381 192.483 260.596C192.825 259.798 193.306 259.183 193.927 258.753C194.548 258.322 195.295 258.107 196.169 258.107ZM196.397 259.513C195.827 259.513 195.339 259.665 194.934 259.969C194.541 260.273 194.237 260.716 194.022 261.299C193.819 261.881 193.718 262.591 193.718 263.427C193.718 264.681 193.946 265.643 194.402 266.315C194.871 266.973 195.548 267.303 196.435 267.303C196.954 267.303 197.398 267.239 197.765 267.113C198.132 266.973 198.436 266.764 198.677 266.486C198.918 266.194 199.095 265.827 199.209 265.384C199.323 264.94 199.38 264.415 199.38 263.807V263.408C199.38 262.483 199.272 261.736 199.057 261.166C198.854 260.596 198.531 260.178 198.088 259.912C197.645 259.646 197.081 259.513 196.397 259.513ZM57.5306 292.37C57.5306 293.218 57.4166 293.972 57.1886 294.631C56.9733 295.277 56.6566 295.828 56.2386 296.284C55.8333 296.74 55.333 297.088 54.7376 297.329C54.155 297.557 53.5026 297.671 52.7806 297.671C52.1093 297.671 51.4886 297.557 50.9186 297.329C50.3486 297.088 49.8546 296.74 49.4366 296.284C49.0186 295.828 48.6893 295.277 48.4486 294.631C48.2206 293.972 48.1066 293.218 48.1066 292.37C48.1066 291.242 48.2966 290.292 48.6766 289.52C49.0566 288.734 49.6013 288.139 50.3106 287.734C51.02 287.316 51.8623 287.107 52.8376 287.107C53.7623 287.107 54.573 287.316 55.2696 287.734C55.979 288.139 56.53 288.734 56.9226 289.52C57.328 290.292 57.5306 291.242 57.5306 292.37ZM49.8356 292.37C49.8356 293.168 49.937 293.864 50.1396 294.46C50.355 295.042 50.6843 295.492 51.1276 295.809C51.571 296.125 52.1346 296.284 52.8186 296.284C53.5026 296.284 54.0663 296.125 54.5096 295.809C54.953 295.492 55.276 295.042 55.4786 294.46C55.694 293.864 55.8016 293.168 55.8016 292.37C55.8016 291.559 55.694 290.869 55.4786 290.299C55.2633 289.729 54.934 289.292 54.4906 288.988C54.06 288.671 53.4963 288.513 52.7996 288.513C51.761 288.513 51.0073 288.855 50.5386 289.539C50.07 290.223 49.8356 291.166 49.8356 292.37ZM64.8735 288.589H62.3085V297.481H60.6365V288.589H58.8505V287.81L60.6365 287.24V286.651C60.6365 285.777 60.7632 285.067 61.0165 284.523C61.2825 283.978 61.6625 283.579 62.1565 283.326C62.6505 283.072 63.2459 282.946 63.9425 282.946C64.3479 282.946 64.7152 282.984 65.0445 283.06C65.3865 283.123 65.6779 283.199 65.9185 283.288L65.4815 284.599C65.2789 284.535 65.0445 284.472 64.7785 284.409C64.5125 284.345 64.2402 284.314 63.9615 284.314C63.4042 284.314 62.9862 284.504 62.7075 284.884C62.4415 285.251 62.3085 285.834 62.3085 286.632V287.297H64.8735V288.589ZM71.4095 288.589H68.8445V297.481H67.1725V288.589H65.3865V287.81L67.1725 287.24V286.651C67.1725 285.777 67.2992 285.067 67.5525 284.523C67.8185 283.978 68.1985 283.579 68.6925 283.326C69.1865 283.072 69.7819 282.946 70.4785 282.946C70.8839 282.946 71.2512 282.984 71.5805 283.06C71.9225 283.123 72.2139 283.199 72.4545 283.288L72.0175 284.599C71.8149 284.535 71.5805 284.472 71.3145 284.409C71.0485 284.345 70.7762 284.314 70.4975 284.314C69.9402 284.314 69.5222 284.504 69.2435 284.884C68.9775 285.251 68.8445 285.834 68.8445 286.632V287.297H71.4095V288.589ZM77.1946 287.107C78.0686 287.107 78.8159 287.297 79.4366 287.677C80.0699 288.057 80.5513 288.595 80.8806 289.292C81.2226 289.976 81.3936 290.78 81.3936 291.705V292.712H74.4206C74.4459 293.864 74.7373 294.745 75.2946 295.353C75.8646 295.948 76.6563 296.246 77.6696 296.246C78.3156 296.246 78.8856 296.189 79.3796 296.075C79.8863 295.948 80.4056 295.771 80.9376 295.543V297.006C80.4183 297.234 79.9053 297.398 79.3986 297.5C78.8919 297.614 78.2903 297.671 77.5936 297.671C76.6309 297.671 75.7759 297.474 75.0286 297.082C74.2939 296.689 73.7176 296.106 73.2996 295.334C72.8943 294.548 72.6916 293.592 72.6916 292.465C72.6916 291.35 72.8753 290.394 73.2426 289.596C73.6226 288.798 74.1483 288.183 74.8196 287.753C75.5036 287.322 76.2953 287.107 77.1946 287.107ZM77.1756 288.475C76.3776 288.475 75.7443 288.734 75.2756 289.254C74.8196 289.76 74.5473 290.47 74.4586 291.382H79.6456C79.6456 290.799 79.5569 290.292 79.3796 289.862C79.2023 289.431 78.9299 289.095 78.5626 288.855C78.2079 288.601 77.7456 288.475 77.1756 288.475ZM88.7362 287.107C88.9262 287.107 89.1289 287.119 89.3442 287.145C89.5722 287.157 89.7685 287.183 89.9332 287.221L89.7242 288.76C89.5595 288.722 89.3759 288.69 89.1732 288.665C88.9832 288.639 88.7995 288.627 88.6222 288.627C88.2295 288.627 87.8559 288.709 87.5012 288.874C87.1465 289.038 86.8299 289.273 86.5512 289.577C86.2725 289.868 86.0509 290.223 85.8862 290.641C85.7342 291.059 85.6582 291.527 85.6582 292.047V297.481H83.9862V287.297H85.3542L85.5442 289.159H85.6202C85.8355 288.779 86.0952 288.437 86.3992 288.133C86.7032 287.816 87.0515 287.569 87.4442 287.392C87.8369 287.202 88.2675 287.107 88.7362 287.107ZM95.3967 287.107C96.2707 287.107 97.0181 287.297 97.6387 287.677C98.2721 288.057 98.7534 288.595 99.0827 289.292C99.4247 289.976 99.5957 290.78 99.5957 291.705V292.712H92.6227C92.6481 293.864 92.9394 294.745 93.4967 295.353C94.0667 295.948 94.8584 296.246 95.8717 296.246C96.5177 296.246 97.0877 296.189 97.5817 296.075C98.0884 295.948 98.6077 295.771 99.1397 295.543V297.006C98.6204 297.234 98.1074 297.398 97.6007 297.5C97.0941 297.614 96.4924 297.671 95.7957 297.671C94.8331 297.671 93.9781 297.474 93.2307 297.082C92.4961 296.689 91.9197 296.106 91.5017 295.334C91.0964 294.548 90.8937 293.592 90.8937 292.465C90.8937 291.35 91.0774 290.394 91.4447 289.596C91.8247 288.798 92.3504 288.183 93.0217 287.753C93.7057 287.322 94.4974 287.107 95.3967 287.107ZM95.3777 288.475C94.5797 288.475 93.9464 288.734 93.4777 289.254C93.0217 289.76 92.7494 290.47 92.6607 291.382H97.8477C97.8477 290.799 97.7591 290.292 97.5817 289.862C97.4044 289.431 97.1321 289.095 96.7647 288.855C96.4101 288.601 95.9477 288.475 95.3777 288.475ZM105.798 297.671C104.532 297.671 103.518 297.234 102.758 296.36C101.998 295.473 101.618 294.156 101.618 292.408C101.618 290.66 101.998 289.342 102.758 288.456C103.531 287.556 104.551 287.107 105.817 287.107C106.349 287.107 106.812 287.176 107.204 287.316C107.597 287.442 107.939 287.62 108.23 287.848C108.522 288.076 108.769 288.329 108.971 288.608H109.085C109.073 288.443 109.047 288.202 109.009 287.886C108.984 287.556 108.971 287.297 108.971 287.107V283.041H110.643V297.481H109.294L109.047 296.113H108.971C108.769 296.404 108.522 296.67 108.23 296.911C107.939 297.139 107.591 297.322 107.185 297.462C106.793 297.601 106.33 297.671 105.798 297.671ZM106.064 296.284C107.141 296.284 107.895 295.992 108.325 295.41C108.769 294.814 108.99 293.921 108.99 292.731V292.427C108.99 291.16 108.781 290.191 108.363 289.52C107.945 288.836 107.173 288.494 106.045 288.494C105.146 288.494 104.468 288.855 104.012 289.577C103.569 290.286 103.347 291.242 103.347 292.446C103.347 293.662 103.569 294.605 104.012 295.277C104.468 295.948 105.152 296.284 106.064 296.284ZM124.642 287.107C125.896 287.107 126.903 287.544 127.663 288.418C128.435 289.292 128.822 290.609 128.822 292.37C128.822 293.522 128.644 294.498 128.29 295.296C127.948 296.081 127.46 296.676 126.827 297.082C126.206 297.474 125.471 297.671 124.623 297.671C124.103 297.671 123.641 297.601 123.236 297.462C122.83 297.322 122.482 297.145 122.191 296.93C121.912 296.702 121.671 296.455 121.469 296.189H121.355C121.38 296.404 121.405 296.676 121.431 297.006C121.456 297.335 121.469 297.62 121.469 297.861V302.041H119.797V287.297H121.165L121.393 288.684H121.469C121.671 288.392 121.912 288.126 122.191 287.886C122.482 287.645 122.824 287.455 123.217 287.316C123.622 287.176 124.097 287.107 124.642 287.107ZM124.338 288.513C123.654 288.513 123.103 288.646 122.685 288.912C122.267 289.165 121.963 289.551 121.773 290.071C121.583 290.59 121.481 291.249 121.469 292.047V292.37C121.469 293.206 121.557 293.915 121.735 294.498C121.912 295.08 122.21 295.524 122.628 295.828C123.058 296.132 123.641 296.284 124.376 296.284C124.996 296.284 125.503 296.113 125.896 295.771C126.301 295.429 126.599 294.966 126.789 294.384C126.991 293.788 127.093 293.111 127.093 292.351C127.093 291.185 126.865 290.254 126.409 289.558C125.965 288.861 125.275 288.513 124.338 288.513ZM135.419 287.107C136.293 287.107 137.041 287.297 137.661 287.677C138.295 288.057 138.776 288.595 139.105 289.292C139.447 289.976 139.618 290.78 139.618 291.705V292.712H132.645C132.671 293.864 132.962 294.745 133.519 295.353C134.089 295.948 134.881 296.246 135.894 296.246C136.54 296.246 137.11 296.189 137.604 296.075C138.111 295.948 138.63 295.771 139.162 295.543V297.006C138.643 297.234 138.13 297.398 137.623 297.5C137.117 297.614 136.515 297.671 135.818 297.671C134.856 297.671 134.001 297.474 133.253 297.082C132.519 296.689 131.942 296.106 131.524 295.334C131.119 294.548 130.916 293.592 130.916 292.465C130.916 291.35 131.1 290.394 131.467 289.596C131.847 288.798 132.373 288.183 133.044 287.753C133.728 287.322 134.52 287.107 135.419 287.107ZM135.4 288.475C134.602 288.475 133.969 288.734 133.5 289.254C133.044 289.76 132.772 290.47 132.683 291.382H137.87C137.87 290.799 137.782 290.292 137.604 289.862C137.427 289.431 137.155 289.095 136.787 288.855C136.433 288.601 135.97 288.475 135.4 288.475ZM146.961 287.107C147.151 287.107 147.353 287.119 147.569 287.145C147.797 287.157 147.993 287.183 148.158 287.221L147.949 288.76C147.784 288.722 147.6 288.69 147.398 288.665C147.208 288.639 147.024 288.627 146.847 288.627C146.454 288.627 146.08 288.709 145.726 288.874C145.371 289.038 145.054 289.273 144.776 289.577C144.497 289.868 144.275 290.223 144.111 290.641C143.959 291.059 143.883 291.527 143.883 292.047V297.481H142.211V287.297H143.579L143.769 289.159H143.845C144.06 288.779 144.32 288.437 144.624 288.133C144.928 287.816 145.276 287.569 145.669 287.392C146.061 287.202 146.492 287.107 146.961 287.107ZM162.552 291.724C162.476 291.458 162.4 291.198 162.324 290.945C162.248 290.679 162.179 290.432 162.115 290.204C162.065 289.963 162.014 289.741 161.963 289.539C161.913 289.336 161.875 289.165 161.849 289.026H161.773C161.748 289.165 161.71 289.336 161.659 289.539C161.621 289.741 161.571 289.963 161.507 290.204C161.457 290.444 161.393 290.698 161.317 290.964C161.254 291.217 161.178 291.477 161.089 291.743L159.265 297.462H157.365L154.572 287.278H156.301L157.707 292.712C157.809 293.079 157.904 293.453 157.992 293.833C158.081 294.2 158.157 294.555 158.22 294.897C158.296 295.226 158.347 295.511 158.372 295.752H158.448C158.486 295.6 158.531 295.41 158.581 295.182C158.632 294.954 158.683 294.713 158.733 294.46C158.797 294.206 158.86 293.953 158.923 293.7C158.999 293.446 159.069 293.218 159.132 293.016L160.937 287.278H162.761L164.509 293.016C164.598 293.307 164.687 293.617 164.775 293.947C164.877 294.276 164.965 294.599 165.041 294.916C165.117 295.22 165.168 295.492 165.193 295.733H165.269C165.295 295.517 165.339 295.251 165.402 294.935C165.478 294.605 165.561 294.251 165.649 293.871C165.751 293.478 165.852 293.092 165.953 292.712L167.378 287.278H169.088L166.257 297.462H164.3L162.552 291.724ZM174.848 287.107C175.722 287.107 176.469 287.297 177.09 287.677C177.723 288.057 178.205 288.595 178.534 289.292C178.876 289.976 179.047 290.78 179.047 291.705V292.712H172.074C172.099 293.864 172.391 294.745 172.948 295.353C173.518 295.948 174.31 296.246 175.323 296.246C175.969 296.246 176.539 296.189 177.033 296.075C177.54 295.948 178.059 295.771 178.591 295.543V297.006C178.072 297.234 177.559 297.398 177.052 297.5C176.545 297.614 175.944 297.671 175.247 297.671C174.284 297.671 173.429 297.474 172.682 297.082C171.947 296.689 171.371 296.106 170.953 295.334C170.548 294.548 170.345 293.592 170.345 292.465C170.345 291.35 170.529 290.394 170.896 289.596C171.276 288.798 171.802 288.183 172.473 287.753C173.157 287.322 173.949 287.107 174.848 287.107ZM174.829 288.475C174.031 288.475 173.398 288.734 172.929 289.254C172.473 289.76 172.201 290.47 172.112 291.382H177.299C177.299 290.799 177.21 290.292 177.033 289.862C176.856 289.431 176.583 289.095 176.216 288.855C175.861 288.601 175.399 288.475 174.829 288.475ZM185.573 287.107C186.447 287.107 187.194 287.297 187.815 287.677C188.448 288.057 188.929 288.595 189.259 289.292C189.601 289.976 189.772 290.78 189.772 291.705V292.712H182.799C182.824 293.864 183.115 294.745 183.673 295.353C184.243 295.948 185.034 296.246 186.048 296.246C186.694 296.246 187.264 296.189 187.758 296.075C188.264 295.948 188.784 295.771 189.316 295.543V297.006C188.796 297.234 188.283 297.398 187.777 297.5C187.27 297.614 186.668 297.671 185.972 297.671C185.009 297.671 184.154 297.474 183.407 297.082C182.672 296.689 182.096 296.106 181.678 295.334C181.272 294.548 181.07 293.592 181.07 292.465C181.07 291.35 181.253 290.394 181.621 289.596C182.001 288.798 182.526 288.183 183.198 287.753C183.882 287.322 184.673 287.107 185.573 287.107ZM185.554 288.475C184.756 288.475 184.122 288.734 183.654 289.254C183.198 289.76 182.925 290.47 182.837 291.382H188.024C188.024 290.799 187.935 290.292 187.758 289.862C187.58 289.431 187.308 289.095 186.941 288.855C186.586 288.601 186.124 288.475 185.554 288.475ZM194.017 290.584C194.017 290.786 194.004 291.052 193.979 291.382C193.966 291.711 193.954 291.996 193.941 292.237H194.017C194.093 292.135 194.207 291.99 194.359 291.8C194.511 291.61 194.663 291.42 194.815 291.23C194.98 291.027 195.119 290.862 195.233 290.736L198.482 287.297H200.439L196.316 291.648L200.724 297.481H198.71L195.176 292.731L194.017 293.738V297.481H192.364V283.041H194.017V290.584Z" fill="#F0F0F0"/>
<path d="M203.386 166.273L202.319 84.135C202.278 81.0096 200.615 78.13 197.929 76.5321L127.33 34.539C124.536 32.8772 121.062 32.8547 118.247 34.48L49.065 74.4221C46.2498 76.0475 44.5325 79.0671 44.5748 82.3175L45.6422 164.455C45.6828 167.58 47.3453 170.46 50.0317 172.058L120.631 214.051C123.425 215.713 126.899 215.735 129.714 214.11L198.896 174.168C201.711 172.543 203.428 169.523 203.386 166.273Z" fill="url(#paint0_linear_287_50)" stroke="url(#paint1_linear_287_50)" stroke-width="2.34313"/>
<path d="M119.33 108.335C119.33 111.138 118.73 113.57 117.528 115.63C116.384 117.689 114.81 119.377 112.808 120.693C110.863 122.009 108.631 122.982 106.114 123.611V123.868C111.034 124.441 114.753 125.928 117.271 128.331C119.845 130.734 121.133 133.967 121.133 138.029C121.133 141.576 120.246 144.78 118.472 147.641C116.756 150.444 114.067 152.676 110.405 154.335C106.801 155.937 102.138 156.738 96.4162 156.738C93.0406 156.738 89.8939 156.452 86.976 155.88C84.0581 155.307 81.3118 154.478 78.7372 153.391V142.406C81.369 143.722 84.1153 144.723 86.976 145.409C89.8939 146.096 92.5829 146.439 95.0431 146.439C99.6774 146.439 102.91 145.638 104.741 144.036C106.629 142.434 107.573 140.174 107.573 137.256C107.573 135.54 107.144 134.11 106.286 132.965C105.427 131.764 103.911 130.877 101.737 130.305C99.6202 129.676 96.6451 129.361 92.8118 129.361H88.1775V119.406H92.8976C96.6737 119.406 99.5344 119.063 101.48 118.376C103.482 117.632 104.827 116.66 105.513 115.458C106.257 114.199 106.629 112.769 106.629 111.167C106.629 108.993 105.942 107.305 104.569 106.104C103.253 104.845 101.022 104.216 97.8752 104.216C95.9299 104.216 94.1563 104.473 92.5543 104.988C90.9523 105.446 89.4934 106.018 88.1775 106.704C86.9188 107.391 85.8031 108.049 84.8305 108.678L78.823 99.7529C80.425 98.6087 82.1986 97.5788 84.1439 96.6634C86.1464 95.748 88.3491 95.0328 90.7521 94.5179C93.1551 94.003 95.8441 93.7455 98.8192 93.7455C105.113 93.7455 110.09 95.0328 113.752 97.6074C117.471 100.125 119.33 103.701 119.33 108.335ZM170.502 125.242C170.502 130.162 170.102 134.567 169.301 138.458C168.557 142.348 167.327 145.667 165.61 148.413C163.951 151.102 161.748 153.162 159.002 154.592C156.313 156.023 152.995 156.738 149.047 156.738C144.127 156.738 140.093 155.479 136.946 152.962C133.8 150.444 131.454 146.84 129.909 142.148C128.421 137.457 127.678 131.821 127.678 125.242C127.678 118.605 128.364 112.941 129.737 108.249C131.11 103.558 133.37 99.9532 136.517 97.4358C139.664 94.9184 143.841 93.6597 149.047 93.6597C153.967 93.6597 158.001 94.9184 161.148 97.4358C164.294 99.896 166.64 103.5 168.185 108.249C169.73 112.941 170.502 118.605 170.502 125.242ZM140.551 125.242C140.551 129.876 140.808 133.766 141.323 136.913C141.838 140.003 142.696 142.348 143.898 143.95C145.156 145.495 146.873 146.268 149.047 146.268C151.221 146.268 152.909 145.495 154.11 143.95C155.369 142.406 156.256 140.089 156.771 136.999C157.343 133.852 157.629 129.933 157.629 125.242C157.629 120.55 157.343 116.66 156.771 113.57C156.256 110.423 155.369 108.078 154.11 106.533C152.909 104.931 151.221 104.13 149.047 104.13C146.873 104.13 145.156 104.931 143.898 106.533C142.696 108.078 141.838 110.423 141.323 113.57C140.808 116.66 140.551 120.55 140.551 125.242Z" fill="url(#paint2_linear_287_50)"/>
<defs>
<linearGradient id="paint0_linear_287_50" x1="301.667" y1="271.521" x2="175.825" y2="8.28353" gradientUnits="userSpaceOnUse">
<stop offset="0.379733" stop-color="#FFDE28" stop-opacity="0.7"/>
<stop offset="0.988905" stop-color="#FFDE28" stop-opacity="0.1"/>
</linearGradient>
<linearGradient id="paint1_linear_287_50" x1="34.8559" y1="62.0352" x2="309.009" y2="245.068" gradientUnits="userSpaceOnUse">
<stop offset="0.129324" stop-color="#5D4E00"/>
<stop offset="0.247324" stop-color="#FFDE28"/>
<stop offset="0.401695" stop-color="#FFFD8F"/>
<stop offset="0.520532" stop-color="#DAC139"/>
<stop offset="0.659271" stop-color="#978000"/>
</linearGradient>
<linearGradient id="paint2_linear_287_50" x1="100.479" y1="98.8795" x2="167.747" y2="158.419" gradientUnits="userSpaceOnUse">
<stop/>
<stop offset="1" stop-color="#454000"/>
</linearGradient>
</defs>
</svg>
