<svg width="246" height="302" viewBox="0 0 246 302" fill="none" xmlns="http://www.w3.org/2000/svg">
<path d="M53.6213 268.182L51.9873 263.983H46.6103L44.9953 268.182H43.2663L48.5673 254.559H50.1063L55.3883 268.182H53.6213ZM49.9543 258.359C49.9163 258.258 49.853 258.074 49.7643 257.808C49.6757 257.542 49.587 257.27 49.4983 256.991C49.4223 256.7 49.359 256.478 49.3083 256.326C49.245 256.579 49.1753 256.839 49.0993 257.105C49.036 257.358 48.9663 257.593 48.8903 257.808C48.827 258.023 48.77 258.207 48.7193 258.359L47.1803 262.463H51.4743L49.9543 258.359ZM61.7091 259.29H59.1441V268.182H57.4721V259.29H55.6861V258.511L57.4721 257.941V257.352C57.4721 256.478 57.5988 255.769 57.8521 255.224C58.1181 254.679 58.4981 254.28 58.9921 254.027C59.4861 253.774 60.0814 253.647 60.7781 253.647C61.1834 253.647 61.5508 253.685 61.8801 253.761C62.2221 253.824 62.5134 253.9 62.7541 253.989L62.3171 255.3C62.1144 255.237 61.8801 255.173 61.6141 255.11C61.3481 255.047 61.0758 255.015 60.7971 255.015C60.2398 255.015 59.8218 255.205 59.5431 255.585C59.2771 255.952 59.1441 256.535 59.1441 257.333V257.998H61.7091V259.29ZM68.2451 259.29H65.6801V268.182H64.0081V259.29H62.2221V258.511L64.0081 257.941V257.352C64.0081 256.478 64.1348 255.769 64.3881 255.224C64.6541 254.679 65.0341 254.28 65.5281 254.027C66.0221 253.774 66.6174 253.647 67.3141 253.647C67.7194 253.647 68.0868 253.685 68.4161 253.761C68.7581 253.824 69.0494 253.9 69.2901 253.989L68.8531 255.3C68.6504 255.237 68.4161 255.173 68.1501 255.11C67.8841 255.047 67.6118 255.015 67.3331 255.015C66.7758 255.015 66.3578 255.205 66.0791 255.585C65.8131 255.952 65.6801 256.535 65.6801 257.333V257.998H68.2451V259.29ZM71.7601 257.998V268.182H70.0881V257.998H71.7601ZM70.9431 254.179C71.1964 254.179 71.4181 254.268 71.6081 254.445C71.8108 254.61 71.9121 254.876 71.9121 255.243C71.9121 255.598 71.8108 255.864 71.6081 256.041C71.4181 256.218 71.1964 256.307 70.9431 256.307C70.6644 256.307 70.4301 256.218 70.2401 256.041C70.0501 255.864 69.9551 255.598 69.9551 255.243C69.9551 254.876 70.0501 254.61 70.2401 254.445C70.4301 254.268 70.6644 254.179 70.9431 254.179ZM76.6676 268.182H74.9956V253.742H76.6676V268.182ZM81.566 257.998V268.182H79.894V257.998H81.566ZM80.749 254.179C81.0024 254.179 81.224 254.268 81.414 254.445C81.6167 254.61 81.718 254.876 81.718 255.243C81.718 255.598 81.6167 255.864 81.414 256.041C81.224 256.218 81.0024 256.307 80.749 256.307C80.4704 256.307 80.236 256.218 80.046 256.041C79.856 255.864 79.761 255.598 79.761 255.243C79.761 254.876 79.856 254.61 80.046 254.445C80.236 254.268 80.4704 254.179 80.749 254.179ZM88.6495 257.827C89.8908 257.827 90.8091 258.099 91.4045 258.644C91.9998 259.189 92.2975 260.056 92.2975 261.247V268.182H91.0815L90.7585 266.738H90.6825C90.3911 267.105 90.0871 267.416 89.7705 267.669C89.4665 267.91 89.1118 268.087 88.7065 268.201C88.3138 268.315 87.8325 268.372 87.2625 268.372C86.6545 268.372 86.1035 268.264 85.6095 268.049C85.1281 267.834 84.7481 267.504 84.4695 267.061C84.1908 266.605 84.0515 266.035 84.0515 265.351C84.0515 264.338 84.4505 263.559 85.2485 263.014C86.0465 262.457 87.2751 262.153 88.9345 262.102L90.6635 262.045V261.437C90.6635 260.588 90.4798 259.999 90.1125 259.67C89.7451 259.341 89.2258 259.176 88.5545 259.176C88.0225 259.176 87.5158 259.258 87.0345 259.423C86.5531 259.575 86.1035 259.752 85.6855 259.955L85.1725 258.701C85.6158 258.46 86.1415 258.258 86.7495 258.093C87.3575 257.916 87.9908 257.827 88.6495 257.827ZM89.1435 263.261C87.8768 263.312 86.9965 263.514 86.5025 263.869C86.0211 264.224 85.7805 264.724 85.7805 265.37C85.7805 265.94 85.9515 266.358 86.2935 266.624C86.6481 266.89 87.0978 267.023 87.6425 267.023C88.5038 267.023 89.2195 266.789 89.7895 266.32C90.3595 265.839 90.6445 265.104 90.6445 264.116V263.204L89.1435 263.261ZM98.8439 267.004C99.0972 267.004 99.3569 266.985 99.6229 266.947C99.8889 266.896 100.104 266.846 100.269 266.795V268.068C100.092 268.157 99.8382 268.226 99.5089 268.277C99.1795 268.34 98.8629 268.372 98.5589 268.372C98.0269 268.372 97.5329 268.283 97.0769 268.106C96.6335 267.916 96.2725 267.593 95.9939 267.137C95.7152 266.681 95.5759 266.041 95.5759 265.218V259.29H94.1319V258.492L95.5949 257.827L96.2599 255.661H97.2479V257.998H100.193V259.29H97.2479V265.18C97.2479 265.801 97.3935 266.263 97.6849 266.567C97.9889 266.858 98.3752 267.004 98.8439 267.004ZM106.241 257.808C107.115 257.808 107.862 257.998 108.483 258.378C109.116 258.758 109.598 259.296 109.927 259.993C110.269 260.677 110.44 261.481 110.44 262.406V263.413H103.467C103.492 264.566 103.784 265.446 104.341 266.054C104.911 266.649 105.703 266.947 106.716 266.947C107.362 266.947 107.932 266.89 108.426 266.776C108.933 266.649 109.452 266.472 109.984 266.244V267.707C109.465 267.935 108.952 268.1 108.445 268.201C107.938 268.315 107.337 268.372 106.64 268.372C105.677 268.372 104.822 268.176 104.075 267.783C103.34 267.39 102.764 266.808 102.346 266.035C101.941 265.25 101.738 264.293 101.738 263.166C101.738 262.051 101.922 261.095 102.289 260.297C102.669 259.499 103.195 258.885 103.866 258.454C104.55 258.023 105.342 257.808 106.241 257.808ZM106.222 259.176C105.424 259.176 104.791 259.436 104.322 259.955C103.866 260.462 103.594 261.171 103.505 262.083H108.692C108.692 261.5 108.603 260.994 108.426 260.563C108.249 260.132 107.976 259.797 107.609 259.556C107.254 259.303 106.792 259.176 106.222 259.176ZM116.643 268.372C115.376 268.372 114.363 267.935 113.603 267.061C112.843 266.174 112.463 264.857 112.463 263.109C112.463 261.361 112.843 260.044 113.603 259.157C114.375 258.258 115.395 257.808 116.662 257.808C117.194 257.808 117.656 257.878 118.049 258.017C118.441 258.144 118.783 258.321 119.075 258.549C119.366 258.777 119.613 259.03 119.816 259.309H119.93C119.917 259.144 119.892 258.904 119.854 258.587C119.828 258.258 119.816 257.998 119.816 257.808V253.742H121.488V268.182H120.139L119.892 266.814H119.816C119.613 267.105 119.366 267.371 119.075 267.612C118.783 267.84 118.435 268.024 118.03 268.163C117.637 268.302 117.175 268.372 116.643 268.372ZM116.909 266.985C117.985 266.985 118.739 266.694 119.17 266.111C119.613 265.516 119.835 264.623 119.835 263.432V263.128C119.835 261.861 119.626 260.892 119.208 260.221C118.79 259.537 118.017 259.195 116.89 259.195C115.99 259.195 115.313 259.556 114.857 260.278C114.413 260.987 114.192 261.944 114.192 263.147C114.192 264.363 114.413 265.307 114.857 265.978C115.313 266.649 115.997 266.985 116.909 266.985ZM137.215 262.425C137.139 262.159 137.063 261.899 136.987 261.646C136.911 261.38 136.841 261.133 136.778 260.905C136.727 260.664 136.677 260.443 136.626 260.24C136.575 260.037 136.537 259.866 136.512 259.727H136.436C136.411 259.866 136.373 260.037 136.322 260.24C136.284 260.443 136.233 260.664 136.17 260.905C136.119 261.146 136.056 261.399 135.98 261.665C135.917 261.918 135.841 262.178 135.752 262.444L133.928 268.163H132.028L129.235 257.979H130.964L132.37 263.413C132.471 263.78 132.566 264.154 132.655 264.534C132.744 264.901 132.82 265.256 132.883 265.598C132.959 265.927 133.01 266.212 133.035 266.453H133.111C133.149 266.301 133.193 266.111 133.244 265.883C133.295 265.655 133.345 265.414 133.396 265.161C133.459 264.908 133.523 264.654 133.586 264.401C133.662 264.148 133.732 263.92 133.795 263.717L135.6 257.979H137.424L139.172 263.717C139.261 264.008 139.349 264.319 139.438 264.648C139.539 264.977 139.628 265.3 139.704 265.617C139.78 265.921 139.831 266.193 139.856 266.434H139.932C139.957 266.219 140.002 265.953 140.065 265.636C140.141 265.307 140.223 264.952 140.312 264.572C140.413 264.179 140.515 263.793 140.616 263.413L142.041 257.979H143.751L140.92 268.163H138.963L137.215 262.425ZM147.25 257.998V268.182H145.578V257.998H147.25ZM146.433 254.179C146.686 254.179 146.908 254.268 147.098 254.445C147.3 254.61 147.402 254.876 147.402 255.243C147.402 255.598 147.3 255.864 147.098 256.041C146.908 256.218 146.686 256.307 146.433 256.307C146.154 256.307 145.92 256.218 145.73 256.041C145.54 255.864 145.445 255.598 145.445 255.243C145.445 254.876 145.54 254.61 145.73 254.445C145.92 254.268 146.154 254.179 146.433 254.179ZM153.877 267.004C154.13 267.004 154.39 266.985 154.656 266.947C154.922 266.896 155.137 266.846 155.302 266.795V268.068C155.125 268.157 154.871 268.226 154.542 268.277C154.213 268.34 153.896 268.372 153.592 268.372C153.06 268.372 152.566 268.283 152.11 268.106C151.667 267.916 151.306 267.593 151.027 267.137C150.748 266.681 150.609 266.041 150.609 265.218V259.29H149.165V258.492L150.628 257.827L151.293 255.661H152.281V257.998H155.226V259.29H152.281V265.18C152.281 265.801 152.427 266.263 152.718 266.567C153.022 266.858 153.408 267.004 153.877 267.004ZM159.013 257.979C159.013 258.22 159.001 258.467 158.975 258.72C158.963 258.973 158.944 259.201 158.918 259.404H159.032C159.248 259.049 159.52 258.758 159.849 258.53C160.179 258.302 160.546 258.131 160.951 258.017C161.357 257.89 161.775 257.827 162.205 257.827C163.029 257.827 163.713 257.96 164.257 258.226C164.815 258.479 165.233 258.878 165.511 259.423C165.79 259.968 165.929 260.677 165.929 261.551V268.182H164.276V261.665C164.276 260.842 164.093 260.227 163.725 259.822C163.358 259.417 162.782 259.214 161.996 259.214C161.236 259.214 160.641 259.36 160.21 259.651C159.78 259.93 159.469 260.348 159.279 260.905C159.102 261.45 159.013 262.121 159.013 262.919V268.182H157.341V253.742H159.013V257.979ZM178.406 267.004C178.66 267.004 178.919 266.985 179.185 266.947C179.451 266.896 179.667 266.846 179.831 266.795V268.068C179.654 268.157 179.401 268.226 179.071 268.277C178.742 268.34 178.425 268.372 178.121 268.372C177.589 268.372 177.095 268.283 176.639 268.106C176.196 267.916 175.835 267.593 175.556 267.137C175.278 266.681 175.138 266.041 175.138 265.218V259.29H173.694V258.492L175.157 257.827L175.822 255.661H176.81V257.998H179.755V259.29H176.81V265.18C176.81 265.801 176.956 266.263 177.247 266.567C177.551 266.858 177.938 267.004 178.406 267.004ZM183.543 257.979C183.543 258.22 183.53 258.467 183.505 258.72C183.492 258.973 183.473 259.201 183.448 259.404H183.562C183.777 259.049 184.049 258.758 184.379 258.53C184.708 258.302 185.075 258.131 185.481 258.017C185.886 257.89 186.304 257.827 186.735 257.827C187.558 257.827 188.242 257.96 188.787 258.226C189.344 258.479 189.762 258.878 190.041 259.423C190.319 259.968 190.459 260.677 190.459 261.551V268.182H188.806V261.665C188.806 260.842 188.622 260.227 188.255 259.822C187.887 259.417 187.311 259.214 186.526 259.214C185.766 259.214 185.17 259.36 184.74 259.651C184.309 259.93 183.999 260.348 183.809 260.905C183.631 261.45 183.543 262.121 183.543 262.919V268.182H181.871V253.742H183.543V257.979ZM197.549 257.808C198.423 257.808 199.17 257.998 199.791 258.378C200.424 258.758 200.905 259.296 201.235 259.993C201.577 260.677 201.748 261.481 201.748 262.406V263.413H194.775C194.8 264.566 195.091 265.446 195.649 266.054C196.219 266.649 197.01 266.947 198.024 266.947C198.67 266.947 199.24 266.89 199.734 266.776C200.24 266.649 200.76 266.472 201.292 266.244V267.707C200.772 267.935 200.259 268.1 199.753 268.201C199.246 268.315 198.644 268.372 197.948 268.372C196.985 268.372 196.13 268.176 195.383 267.783C194.648 267.39 194.072 266.808 193.654 266.035C193.248 265.25 193.046 264.293 193.046 263.166C193.046 262.051 193.229 261.095 193.597 260.297C193.977 259.499 194.502 258.885 195.174 258.454C195.858 258.023 196.649 257.808 197.549 257.808ZM197.53 259.176C196.732 259.176 196.098 259.436 195.63 259.955C195.174 260.462 194.901 261.171 194.813 262.083H200C200 261.5 199.911 260.994 199.734 260.563C199.556 260.132 199.284 259.797 198.917 259.556C198.562 259.303 198.1 259.176 197.53 259.176ZM43.7554 292.394C43.7554 293.331 43.5654 294.18 43.1854 294.94C42.8054 295.687 42.2228 296.283 41.4374 296.726C40.6648 297.157 39.6768 297.372 38.4734 297.372C36.7888 297.372 35.5031 296.916 34.6164 296.004C33.7424 295.079 33.3054 293.863 33.3054 292.356V283.616H35.0154V292.413C35.0154 293.515 35.3068 294.37 35.8894 294.978C36.4848 295.586 37.3778 295.89 38.5684 295.89C39.3918 295.89 40.0568 295.744 40.5634 295.453C41.0828 295.149 41.4628 294.737 41.7034 294.218C41.9441 293.686 42.0644 293.078 42.0644 292.394V283.616H43.7554V292.394ZM53.1499 284.927C52.4279 284.927 51.7756 285.054 51.1929 285.307C50.6102 285.548 50.1162 285.909 49.7109 286.39C49.3056 286.859 48.9952 287.435 48.7799 288.119C48.5646 288.79 48.4569 289.55 48.4569 290.399C48.4569 291.514 48.6279 292.483 48.9699 293.306C49.3246 294.129 49.8439 294.763 50.5279 295.206C51.2246 295.649 52.0922 295.871 53.1309 295.871C53.7262 295.871 54.2899 295.82 54.8219 295.719C55.3539 295.618 55.8732 295.491 56.3799 295.339V296.821C55.8732 297.011 55.3476 297.15 54.8029 297.239C54.2709 297.328 53.6312 297.372 52.8839 297.372C51.5032 297.372 50.3506 297.087 49.4259 296.517C48.5012 295.947 47.8046 295.136 47.3359 294.085C46.8799 293.034 46.6519 291.799 46.6519 290.38C46.6519 289.354 46.7912 288.417 47.0699 287.568C47.3612 286.719 47.7792 285.985 48.3239 285.364C48.8812 284.743 49.5652 284.268 50.3759 283.939C51.1866 283.597 52.1176 283.426 53.1689 283.426C53.8656 283.426 54.5369 283.496 55.1829 283.635C55.8289 283.774 56.4052 283.971 56.9119 284.224L56.2279 285.668C55.8099 285.478 55.3412 285.307 54.8219 285.155C54.3152 285.003 53.7579 284.927 53.1499 284.927ZM70.2088 290.266C70.2088 291.786 69.9238 293.059 69.3538 294.085C68.7964 295.111 67.9921 295.884 66.9408 296.403C65.8894 296.922 64.6164 297.182 63.1218 297.182H59.3408V283.616H63.5208C64.8888 283.616 66.0731 283.869 67.0738 284.376C68.0744 284.883 68.8471 285.63 69.3918 286.618C69.9364 287.593 70.2088 288.809 70.2088 290.266ZM68.4038 290.323C68.4038 289.12 68.2011 288.132 67.7958 287.359C67.4031 286.586 66.8204 286.016 66.0478 285.649C65.2878 285.269 64.3631 285.079 63.2738 285.079H61.0508V295.719H62.8938C64.7304 295.719 66.1048 295.269 67.0168 294.37C67.9414 293.458 68.4038 292.109 68.4038 290.323ZM84.9526 284.927C84.2306 284.927 83.5783 285.054 82.9956 285.307C82.413 285.548 81.919 285.909 81.5136 286.39C81.1083 286.859 80.798 287.435 80.5826 288.119C80.3673 288.79 80.2596 289.55 80.2596 290.399C80.2596 291.514 80.4306 292.483 80.7726 293.306C81.1273 294.129 81.6466 294.763 82.3306 295.206C83.0273 295.649 83.895 295.871 84.9336 295.871C85.529 295.871 86.0926 295.82 86.6246 295.719C87.1566 295.618 87.676 295.491 88.1826 295.339V296.821C87.676 297.011 87.1503 297.15 86.6056 297.239C86.0736 297.328 85.434 297.372 84.6866 297.372C83.306 297.372 82.1533 297.087 81.2286 296.517C80.304 295.947 79.6073 295.136 79.1386 294.085C78.6826 293.034 78.4546 291.799 78.4546 290.38C78.4546 289.354 78.594 288.417 78.8726 287.568C79.164 286.719 79.582 285.985 80.1266 285.364C80.684 284.743 81.368 284.268 82.1786 283.939C82.9893 283.597 83.9203 283.426 84.9716 283.426C85.6683 283.426 86.3396 283.496 86.9856 283.635C87.6316 283.774 88.208 283.971 88.7146 284.224L88.0306 285.668C87.6126 285.478 87.144 285.307 86.6246 285.155C86.118 285.003 85.5606 284.927 84.9526 284.927ZM98.8385 293.553C98.8385 294.364 98.6422 295.054 98.2495 295.624C97.8568 296.181 97.2932 296.612 96.5585 296.916C95.8365 297.22 94.9815 297.372 93.9935 297.372C93.4868 297.372 92.9992 297.347 92.5305 297.296C92.0745 297.245 91.6565 297.176 91.2765 297.087C90.8965 296.986 90.5608 296.865 90.2695 296.726V295.092C90.7255 295.295 91.2892 295.478 91.9605 295.643C92.6445 295.808 93.3475 295.89 94.0695 295.89C94.7408 295.89 95.3045 295.801 95.7605 295.624C96.2165 295.447 96.5585 295.193 96.7865 294.864C97.0145 294.535 97.1285 294.148 97.1285 293.705C97.1285 293.262 97.0335 292.888 96.8435 292.584C96.6535 292.28 96.3242 292.001 95.8555 291.748C95.3995 291.482 94.7598 291.203 93.9365 290.912C93.3538 290.697 92.8408 290.469 92.3975 290.228C91.9668 289.975 91.6058 289.69 91.3145 289.373C91.0232 289.056 90.8015 288.695 90.6495 288.29C90.5102 287.885 90.4405 287.416 90.4405 286.884C90.4405 286.162 90.6242 285.548 90.9915 285.041C91.3588 284.522 91.8655 284.123 92.5115 283.844C93.1702 283.565 93.9238 283.426 94.7725 283.426C95.5198 283.426 96.2038 283.496 96.8245 283.635C97.4452 283.774 98.0088 283.958 98.5155 284.186L97.9835 285.649C97.5148 285.446 97.0018 285.275 96.4445 285.136C95.8998 284.997 95.3298 284.927 94.7345 284.927C94.1645 284.927 93.6895 285.009 93.3095 285.174C92.9295 285.339 92.6445 285.573 92.4545 285.877C92.2645 286.168 92.1695 286.51 92.1695 286.903C92.1695 287.359 92.2645 287.739 92.4545 288.043C92.6445 288.347 92.9548 288.619 93.3855 288.86C93.8162 289.101 94.3988 289.36 95.1335 289.639C95.9315 289.93 96.6028 290.247 97.1475 290.589C97.7048 290.918 98.1228 291.317 98.4015 291.786C98.6928 292.255 98.8385 292.844 98.8385 293.553ZM118.358 290.266C118.358 291.786 118.073 293.059 117.503 294.085C116.946 295.111 116.142 295.884 115.09 296.403C114.039 296.922 112.766 297.182 111.271 297.182H107.49V283.616H111.67C113.038 283.616 114.223 283.869 115.223 284.376C116.224 284.883 116.997 285.63 117.541 286.618C118.086 287.593 118.358 288.809 118.358 290.266ZM116.553 290.323C116.553 289.12 116.351 288.132 115.945 287.359C115.553 286.586 114.97 286.016 114.197 285.649C113.437 285.269 112.513 285.079 111.423 285.079H109.2V295.719H111.043C112.88 295.719 114.254 295.269 115.166 294.37C116.091 293.458 116.553 292.109 116.553 290.323ZM125.074 286.808C125.948 286.808 126.695 286.998 127.316 287.378C127.949 287.758 128.431 288.296 128.76 288.993C129.102 289.677 129.273 290.481 129.273 291.406V292.413H122.3C122.325 293.566 122.617 294.446 123.174 295.054C123.744 295.649 124.536 295.947 125.549 295.947C126.195 295.947 126.765 295.89 127.259 295.776C127.766 295.649 128.285 295.472 128.817 295.244V296.707C128.298 296.935 127.785 297.1 127.278 297.201C126.771 297.315 126.17 297.372 125.473 297.372C124.51 297.372 123.655 297.176 122.908 296.783C122.173 296.39 121.597 295.808 121.179 295.035C120.774 294.25 120.571 293.293 120.571 292.166C120.571 291.051 120.755 290.095 121.122 289.297C121.502 288.499 122.028 287.885 122.699 287.454C123.383 287.023 124.175 286.808 125.074 286.808ZM125.055 288.176C124.257 288.176 123.624 288.436 123.155 288.955C122.699 289.462 122.427 290.171 122.338 291.083H127.525C127.525 290.5 127.436 289.994 127.259 289.563C127.082 289.132 126.809 288.797 126.442 288.556C126.087 288.303 125.625 288.176 125.055 288.176ZM136.711 286.808C137.965 286.808 138.972 287.245 139.732 288.119C140.504 288.993 140.891 290.31 140.891 292.071C140.891 293.224 140.713 294.199 140.359 294.997C140.017 295.782 139.529 296.378 138.896 296.783C138.275 297.176 137.54 297.372 136.692 297.372C136.172 297.372 135.71 297.302 135.305 297.163C134.899 297.024 134.551 296.846 134.26 296.631C133.981 296.403 133.74 296.156 133.538 295.89H133.424C133.449 296.105 133.474 296.378 133.5 296.707C133.525 297.036 133.538 297.321 133.538 297.562V301.742H131.866V286.998H133.234L133.462 288.385H133.538C133.74 288.094 133.981 287.828 134.26 287.587C134.551 287.346 134.893 287.156 135.286 287.017C135.691 286.878 136.166 286.808 136.711 286.808ZM136.407 288.214C135.723 288.214 135.172 288.347 134.754 288.613C134.336 288.866 134.032 289.253 133.842 289.772C133.652 290.291 133.55 290.95 133.538 291.748V292.071C133.538 292.907 133.626 293.616 133.804 294.199C133.981 294.782 134.279 295.225 134.697 295.529C135.127 295.833 135.71 295.985 136.445 295.985C137.065 295.985 137.572 295.814 137.965 295.472C138.37 295.13 138.668 294.668 138.858 294.085C139.06 293.49 139.162 292.812 139.162 292.052C139.162 290.887 138.934 289.956 138.478 289.259C138.034 288.562 137.344 288.214 136.407 288.214ZM147.412 286.827C148.653 286.827 149.572 287.099 150.167 287.644C150.762 288.189 151.06 289.056 151.06 290.247V297.182H149.844L149.521 295.738H149.445C149.154 296.105 148.85 296.416 148.533 296.669C148.229 296.91 147.874 297.087 147.469 297.201C147.076 297.315 146.595 297.372 146.025 297.372C145.417 297.372 144.866 297.264 144.372 297.049C143.891 296.834 143.511 296.504 143.232 296.061C142.953 295.605 142.814 295.035 142.814 294.351C142.814 293.338 143.213 292.559 144.011 292.014C144.809 291.457 146.038 291.153 147.697 291.102L149.426 291.045V290.437C149.426 289.588 149.242 288.999 148.875 288.67C148.508 288.341 147.988 288.176 147.317 288.176C146.785 288.176 146.278 288.258 145.797 288.423C145.316 288.575 144.866 288.752 144.448 288.955L143.935 287.701C144.378 287.46 144.904 287.258 145.512 287.093C146.12 286.916 146.753 286.827 147.412 286.827ZM147.906 292.261C146.639 292.312 145.759 292.514 145.265 292.869C144.784 293.224 144.543 293.724 144.543 294.37C144.543 294.94 144.714 295.358 145.056 295.624C145.411 295.89 145.86 296.023 146.405 296.023C147.266 296.023 147.982 295.789 148.552 295.32C149.122 294.839 149.407 294.104 149.407 293.116V292.204L147.906 292.261ZM158.956 286.808C159.146 286.808 159.348 286.821 159.564 286.846C159.792 286.859 159.988 286.884 160.153 286.922L159.944 288.461C159.779 288.423 159.595 288.391 159.393 288.366C159.203 288.341 159.019 288.328 158.842 288.328C158.449 288.328 158.075 288.41 157.721 288.575C157.366 288.74 157.049 288.974 156.771 289.278C156.492 289.569 156.27 289.924 156.106 290.342C155.954 290.76 155.878 291.229 155.878 291.748V297.182H154.206V286.998H155.574L155.764 288.86H155.84C156.055 288.48 156.315 288.138 156.619 287.834C156.923 287.517 157.271 287.27 157.664 287.093C158.056 286.903 158.487 286.808 158.956 286.808ZM165.455 296.004C165.709 296.004 165.968 295.985 166.234 295.947C166.5 295.896 166.716 295.846 166.88 295.795V297.068C166.703 297.157 166.45 297.226 166.12 297.277C165.791 297.34 165.474 297.372 165.17 297.372C164.638 297.372 164.144 297.283 163.688 297.106C163.245 296.916 162.884 296.593 162.605 296.137C162.327 295.681 162.187 295.041 162.187 294.218V288.29H160.743V287.492L162.206 286.827L162.871 284.661H163.859V286.998H166.804V288.29H163.859V294.18C163.859 294.801 164.005 295.263 164.296 295.567C164.6 295.858 164.987 296.004 165.455 296.004ZM180.091 286.808C181.244 286.808 182.105 287.106 182.675 287.701C183.245 288.284 183.53 289.234 183.53 290.551V297.182H181.877V290.627C181.877 289.829 181.706 289.227 181.364 288.822C181.035 288.417 180.516 288.214 179.806 288.214C178.818 288.214 178.109 288.499 177.678 289.069C177.26 289.639 177.051 290.469 177.051 291.558V297.182H175.398V290.627C175.398 290.095 175.322 289.652 175.17 289.297C175.018 288.93 174.79 288.657 174.486 288.48C174.182 288.303 173.79 288.214 173.308 288.214C172.624 288.214 172.086 288.36 171.693 288.651C171.301 288.93 171.016 289.341 170.838 289.886C170.674 290.431 170.591 291.102 170.591 291.9V297.182H168.919V286.998H170.268L170.515 288.385H170.61C170.826 288.03 171.085 287.739 171.389 287.511C171.706 287.27 172.054 287.093 172.434 286.979C172.814 286.865 173.207 286.808 173.612 286.808C174.398 286.808 175.05 286.947 175.569 287.226C176.101 287.505 176.488 287.935 176.728 288.518H176.823C177.165 287.935 177.628 287.505 178.21 287.226C178.806 286.947 179.433 286.808 180.091 286.808ZM190.609 286.808C191.483 286.808 192.231 286.998 192.851 287.378C193.485 287.758 193.966 288.296 194.295 288.993C194.637 289.677 194.808 290.481 194.808 291.406V292.413H187.835C187.861 293.566 188.152 294.446 188.709 295.054C189.279 295.649 190.071 295.947 191.084 295.947C191.73 295.947 192.3 295.89 192.794 295.776C193.301 295.649 193.82 295.472 194.352 295.244V296.707C193.833 296.935 193.32 297.1 192.813 297.201C192.307 297.315 191.705 297.372 191.008 297.372C190.046 297.372 189.191 297.176 188.443 296.783C187.709 296.39 187.132 295.808 186.714 295.035C186.309 294.25 186.106 293.293 186.106 292.166C186.106 291.051 186.29 290.095 186.657 289.297C187.037 288.499 187.563 287.885 188.234 287.454C188.918 287.023 189.71 286.808 190.609 286.808ZM190.59 288.176C189.792 288.176 189.159 288.436 188.69 288.955C188.234 289.462 187.962 290.171 187.873 291.083H193.06C193.06 290.5 192.972 289.994 192.794 289.563C192.617 289.132 192.345 288.797 191.977 288.556C191.623 288.303 191.16 288.176 190.59 288.176ZM202.303 286.808C203.519 286.808 204.437 287.106 205.058 287.701C205.679 288.284 205.989 289.234 205.989 290.551V297.182H204.336V290.665C204.336 289.842 204.152 289.227 203.785 288.822C203.418 288.417 202.841 288.214 202.056 288.214C200.929 288.214 200.15 288.531 199.719 289.164C199.288 289.797 199.073 290.709 199.073 291.9V297.182H197.401V286.998H198.75L198.997 288.385H199.092C199.32 288.03 199.599 287.739 199.928 287.511C200.27 287.27 200.644 287.093 201.049 286.979C201.454 286.865 201.872 286.808 202.303 286.808ZM212.547 296.004C212.8 296.004 213.06 295.985 213.326 295.947C213.592 295.896 213.807 295.846 213.972 295.795V297.068C213.795 297.157 213.541 297.226 213.212 297.277C212.883 297.34 212.566 297.372 212.262 297.372C211.73 297.372 211.236 297.283 210.78 297.106C210.337 296.916 209.976 296.593 209.697 296.137C209.418 295.681 209.279 295.041 209.279 294.218V288.29H207.835V287.492L209.298 286.827L209.963 284.661H210.951V286.998H213.896V288.29H210.951V294.18C210.951 294.801 211.097 295.263 211.388 295.567C211.692 295.858 212.078 296.004 212.547 296.004Z" fill="#F0F0F0"/>
<path d="M201.334 83.8367C201.294 80.7113 199.631 77.8317 196.945 76.2338L126.345 34.2407C123.551 32.5789 120.078 32.5563 117.263 34.1817L48.0808 74.1238C45.2656 75.7491 43.5483 78.7687 43.5905 82.0191L44.6579 164.157C44.6985 167.282 46.361 170.162 49.0475 171.76L119.647 213.753C122.441 215.414 125.914 215.437 128.73 213.812L197.911 173.87C200.727 172.244 202.444 169.225 202.402 165.974L201.334 83.8367Z" fill="url(#paint0_linear_495_2913)" stroke="url(#paint1_linear_495_2913)" stroke-width="2.34313"/>
<path d="M81.8333 157.25C78.9687 157.25 76.5173 156.231 74.4791 154.193C72.4409 152.155 71.4201 149.701 71.4166 146.833V89.5417C71.4166 86.6771 72.4374 84.2257 74.4791 82.1875C76.5208 80.1493 78.9721 79.1285 81.8333 79.125H165.167C168.031 79.125 170.484 80.1458 172.526 82.1875C174.568 84.2292 175.587 86.6806 175.583 89.5417V146.833C175.583 149.698 174.564 152.151 172.526 154.193C170.488 156.234 168.035 157.253 165.167 157.25H81.8333ZM66.2083 172.875V162.458H180.792V172.875H66.2083Z" fill="url(#paint2_linear_495_2913)"/>
<path d="M149.38 123.052C153.952 121.58 154.494 117.309 153.805 114.726L150.597 103.654C149.236 99.0278 145.071 98.5937 142.513 99.3572L136.282 101.384L130.16 98.1305C125.67 95.7434 121.776 96.796 118.964 98.8921L102.724 104.123L97.548 113.861L94.964 114.673C90.3791 116.17 89.85 120.416 90.5384 122.999L93.7471 134.072C94.3247 136.065 95.4368 137.28 96.7367 137.971C98.4149 138.863 100.404 138.828 101.831 138.368L111.719 135.163L120.204 139.673C124.223 141.809 127.627 140.309 129.705 138.167C132.764 138.856 135.343 137.541 137.021 135.81C141.202 136.784 144.475 133.934 145.808 131.426L149.69 124.123L148.295 123.381L149.38 123.052ZM141.081 128.914C140.498 130.009 139.337 131.109 137.423 130.092L135.059 128.835L133.765 131.27C133.183 132.365 132.022 133.466 130.108 132.448L127.744 131.192L126.45 133.626C125.868 134.722 124.707 135.822 122.792 134.804L112.369 129.264L100.372 133.128C99.2641 133.445 99.0586 132.805 98.9409 132.399L95.73 121.387C95.4457 120.268 96.0805 120.044 96.4828 119.914L101.214 118.37L106.39 108.632L113.705 106.276L111.648 110.147C110.082 113.092 109.657 118.455 114.857 121.219C120.056 123.983 124.264 120.63 125.829 117.685L142.375 126.479L141.081 128.914ZM147.861 117.811L141.63 119.839L123.69 110.303L121.102 115.172C120.52 116.267 119.359 117.368 117.445 116.35C115.53 115.332 115.793 113.755 116.375 112.659L120.257 105.356C120.852 104.236 123.247 100.7 127.572 102.999L135.632 107.284L143.972 104.597C145.08 104.281 145.285 104.921 145.403 105.327L148.614 116.338C148.898 117.457 148.263 117.682 147.861 117.811Z" fill="url(#paint3_linear_495_2913)"/>
<defs>
<linearGradient id="paint0_linear_495_2913" x1="300.683" y1="271.223" x2="174.841" y2="7.98519" gradientUnits="userSpaceOnUse">
<stop offset="0.379733" stop-color="#FFDE28" stop-opacity="0.7"/>
<stop offset="0.988905" stop-color="#FFDE28" stop-opacity="0.1"/>
</linearGradient>
<linearGradient id="paint1_linear_495_2913" x1="33.8717" y1="61.7369" x2="308.025" y2="244.77" gradientUnits="userSpaceOnUse">
<stop offset="0.129324" stop-color="#5D4E00"/>
<stop offset="0.247324" stop-color="#FFDE28"/>
<stop offset="0.401695" stop-color="#FFFD8F"/>
<stop offset="0.520532" stop-color="#DAC139"/>
<stop offset="0.659271" stop-color="#978000"/>
</linearGradient>
<linearGradient id="paint2_linear_495_2913" x1="199.021" y1="178.083" x2="147.346" y2="17.7657" gradientUnits="userSpaceOnUse">
<stop offset="0.124936" stop-color="#141413"/>
<stop offset="0.546354" stop-color="#181715" stop-opacity="0.8"/>
<stop offset="0.988905" stop-color="#181715" stop-opacity="0.5"/>
</linearGradient>
<linearGradient id="paint3_linear_495_2913" x1="146.33" y1="163.745" x2="138.568" y2="69.621" gradientUnits="userSpaceOnUse">
<stop offset="0.379733" stop-color="#FFDE28" stop-opacity="0.7"/>
<stop offset="0.988905" stop-color="#FFDE28" stop-opacity="0.1"/>
</linearGradient>
</defs>
</svg>
