<svg width="246" height="293" viewBox="0 0 246 293" fill="none" xmlns="http://www.w3.org/2000/svg">
<path d="M65.5716 261.852C65.5716 262.7 65.3998 263.467 65.0561 264.155C64.7125 264.831 64.1855 265.369 63.4753 265.77C62.7765 266.159 61.883 266.354 60.7948 266.354C59.2712 266.354 58.1085 265.942 57.3066 265.117C56.5162 264.281 56.121 263.181 56.121 261.818V253.914H57.6675V261.869C57.6675 262.866 57.931 263.639 58.4579 264.189C58.9963 264.739 59.8039 265.014 60.8807 265.014C61.6253 265.014 62.2267 264.882 62.6849 264.619C63.1546 264.344 63.4982 263.971 63.7159 263.502C63.9335 263.021 64.0423 262.471 64.0423 261.852V253.914H65.5716V261.852ZM72.9851 256.8C74.1192 256.8 75.0299 257.196 75.7172 257.986C76.416 258.776 76.7654 259.968 76.7654 261.56C76.7654 262.602 76.605 263.485 76.2842 264.206C75.9749 264.916 75.5339 265.455 74.9612 265.821C74.3998 266.177 73.7354 266.354 72.9679 266.354C72.4983 266.354 72.0802 266.291 71.7136 266.165C71.347 266.039 71.032 265.879 70.7685 265.684C70.5165 265.478 70.2989 265.254 70.1156 265.014H70.0125C70.0354 265.209 70.0583 265.455 70.0812 265.753C70.1041 266.051 70.1156 266.308 70.1156 266.526V270.306H68.6035V256.972H69.8406L70.0468 258.227H70.1156C70.2989 257.963 70.5165 257.723 70.7685 257.505C71.032 257.287 71.3413 257.115 71.6964 256.989C72.063 256.863 72.4925 256.8 72.9851 256.8ZM72.7102 258.072C72.0916 258.072 71.5933 258.192 71.2153 258.433C70.8373 258.662 70.5623 259.011 70.3905 259.481C70.2187 259.951 70.127 260.546 70.1156 261.268V261.56C70.1156 262.316 70.1958 262.958 70.3561 263.485C70.5165 264.011 70.7857 264.412 71.1637 264.687C71.5532 264.962 72.0802 265.1 72.7446 265.1C73.3059 265.1 73.7641 264.945 74.1192 264.636C74.4858 264.326 74.755 263.908 74.9268 263.381C75.1101 262.843 75.2017 262.23 75.2017 261.543C75.2017 260.489 74.9955 259.647 74.5831 259.017C74.1822 258.387 73.5579 258.072 72.7102 258.072ZM83.5566 256.8C84.6907 256.8 85.6014 257.196 86.2887 257.986C86.9875 258.776 87.3369 259.968 87.3369 261.56C87.3369 262.602 87.1765 263.485 86.8558 264.206C86.5465 264.916 86.1054 265.455 85.5327 265.821C84.9714 266.177 84.307 266.354 83.5395 266.354C83.0698 266.354 82.6517 266.291 82.2851 266.165C81.9185 266.039 81.6035 265.879 81.34 265.684C81.088 265.478 80.8704 265.254 80.6871 265.014H80.584C80.6069 265.209 80.6298 265.455 80.6527 265.753C80.6756 266.051 80.6871 266.308 80.6871 266.526V270.306H79.175V256.972H80.4122L80.6184 258.227H80.6871C80.8704 257.963 81.088 257.723 81.34 257.505C81.6035 257.287 81.9128 257.115 82.2679 256.989C82.6345 256.863 83.0641 256.8 83.5566 256.8ZM83.2817 258.072C82.6631 258.072 82.1648 258.192 81.7868 258.433C81.4088 258.662 81.1339 259.011 80.962 259.481C80.7902 259.951 80.6986 260.546 80.6871 261.268V261.56C80.6871 262.316 80.7673 262.958 80.9277 263.485C81.088 264.011 81.3572 264.412 81.7353 264.687C82.1247 264.962 82.6517 265.1 83.3161 265.1C83.8774 265.1 84.3356 264.945 84.6907 264.636C85.0573 264.326 85.3265 263.908 85.4983 263.381C85.6816 262.843 85.7732 262.23 85.7732 261.543C85.7732 260.489 85.567 259.647 85.1547 259.017C84.7537 258.387 84.1294 258.072 83.2817 258.072ZM93.3034 256.8C94.0938 256.8 94.7697 256.972 95.331 257.316C95.9037 257.66 96.339 258.146 96.6369 258.776C96.9462 259.395 97.1008 260.122 97.1008 260.959V261.869H90.7947C90.8176 262.912 91.0811 263.708 91.5851 264.258C92.1006 264.796 92.8165 265.065 93.733 265.065C94.3172 265.065 94.8327 265.014 95.2794 264.911C95.7376 264.796 96.2073 264.636 96.6884 264.43V265.753C96.2188 265.959 95.7548 266.108 95.2966 266.199C94.8384 266.303 94.2943 266.354 93.6642 266.354C92.7936 266.354 92.0204 266.177 91.3445 265.821C90.6801 265.466 90.1589 264.939 89.7809 264.241C89.4143 263.53 89.231 262.665 89.231 261.646C89.231 260.638 89.3971 259.773 89.7293 259.051C90.073 258.33 90.5484 257.774 91.1555 257.385C91.7741 256.995 92.4901 256.8 93.3034 256.8ZM93.2862 258.038C92.5645 258.038 91.9918 258.272 91.5679 258.742C91.1555 259.2 90.9092 259.842 90.8291 260.667H95.52C95.52 260.14 95.4398 259.681 95.2794 259.292C95.1191 258.902 94.8728 258.599 94.5406 258.381C94.2198 258.152 93.8017 258.038 93.2862 258.038ZM103.741 256.8C103.913 256.8 104.096 256.812 104.291 256.835C104.497 256.846 104.675 256.869 104.824 256.903L104.635 258.295C104.486 258.261 104.32 258.232 104.136 258.209C103.965 258.186 103.798 258.175 103.638 258.175C103.283 258.175 102.945 258.249 102.624 258.398C102.304 258.547 102.017 258.759 101.765 259.034C101.513 259.298 101.313 259.618 101.164 259.996C101.026 260.374 100.958 260.798 100.958 261.268V266.182H99.4455V256.972H100.683L100.854 258.656H100.923C101.118 258.312 101.353 258.003 101.628 257.728C101.903 257.442 102.218 257.218 102.573 257.058C102.928 256.886 103.317 256.8 103.741 256.8ZM115.385 256.818C116.507 256.818 117.338 257.064 117.876 257.556C118.414 258.049 118.684 258.834 118.684 259.91V266.182H117.584L117.292 264.876H117.223C116.96 265.209 116.685 265.489 116.398 265.718C116.123 265.936 115.803 266.096 115.436 266.199C115.081 266.303 114.646 266.354 114.13 266.354C113.58 266.354 113.082 266.257 112.635 266.062C112.2 265.867 111.856 265.569 111.604 265.168C111.352 264.756 111.226 264.241 111.226 263.622C111.226 262.706 111.587 262.001 112.309 261.508C113.03 261.004 114.142 260.73 115.642 260.684L117.206 260.632V260.082C117.206 259.315 117.04 258.782 116.708 258.484C116.375 258.186 115.906 258.038 115.299 258.038C114.817 258.038 114.359 258.112 113.924 258.261C113.489 258.398 113.082 258.559 112.704 258.742L112.24 257.608C112.641 257.39 113.116 257.207 113.666 257.058C114.216 256.898 114.789 256.818 115.385 256.818ZM115.831 261.732C114.686 261.778 113.89 261.961 113.443 262.282C113.008 262.602 112.79 263.055 112.79 263.639C112.79 264.155 112.945 264.533 113.254 264.773C113.575 265.014 113.981 265.134 114.474 265.134C115.253 265.134 115.9 264.922 116.416 264.498C116.931 264.063 117.189 263.399 117.189 262.505V261.68L115.831 261.732ZM125.961 256.8C127.061 256.8 127.892 257.07 128.453 257.608C129.014 258.135 129.295 258.994 129.295 260.185V266.182H127.8V260.289C127.8 259.544 127.634 258.988 127.302 258.622C126.969 258.255 126.448 258.072 125.738 258.072C124.719 258.072 124.014 258.358 123.625 258.931C123.235 259.504 123.04 260.329 123.04 261.405V266.182H121.528V256.972H122.748L122.972 258.227H123.058C123.264 257.906 123.516 257.642 123.814 257.436C124.123 257.218 124.461 257.058 124.827 256.955C125.194 256.852 125.572 256.8 125.961 256.8ZM135.415 266.354C134.269 266.354 133.353 265.959 132.666 265.168C131.978 264.367 131.635 263.175 131.635 261.594C131.635 260.014 131.978 258.822 132.666 258.02C133.364 257.207 134.287 256.8 135.432 256.8C135.913 256.8 136.331 256.863 136.686 256.989C137.042 257.104 137.351 257.264 137.614 257.471C137.878 257.677 138.101 257.906 138.284 258.158H138.387C138.376 258.009 138.353 257.791 138.319 257.505C138.296 257.207 138.284 256.972 138.284 256.8V253.123H139.796V266.182H138.577L138.353 264.945H138.284C138.101 265.209 137.878 265.449 137.614 265.667C137.351 265.873 137.036 266.039 136.669 266.165C136.314 266.291 135.896 266.354 135.415 266.354ZM135.655 265.1C136.629 265.1 137.311 264.836 137.7 264.309C138.101 263.771 138.302 262.963 138.302 261.887V261.612C138.302 260.466 138.113 259.59 137.735 258.983C137.357 258.364 136.658 258.055 135.638 258.055C134.825 258.055 134.212 258.381 133.8 259.034C133.399 259.676 133.198 260.541 133.198 261.629C133.198 262.728 133.399 263.582 133.8 264.189C134.212 264.796 134.831 265.1 135.655 265.1ZM149.587 266.182H148.075V253.123H149.587V266.182ZM160.512 261.56C160.512 262.328 160.409 263.009 160.202 263.605C160.008 264.189 159.721 264.687 159.343 265.1C158.977 265.512 158.524 265.827 157.986 266.045C157.459 266.251 156.869 266.354 156.216 266.354C155.609 266.354 155.048 266.251 154.532 266.045C154.017 265.827 153.57 265.512 153.192 265.1C152.814 264.687 152.516 264.189 152.298 263.605C152.092 263.009 151.989 262.328 151.989 261.56C151.989 260.541 152.161 259.681 152.504 258.983C152.848 258.272 153.341 257.734 153.982 257.367C154.624 256.989 155.385 256.8 156.268 256.8C157.104 256.8 157.837 256.989 158.467 257.367C159.108 257.734 159.607 258.272 159.962 258.983C160.328 259.681 160.512 260.541 160.512 261.56ZM153.553 261.56C153.553 262.282 153.644 262.912 153.828 263.45C154.022 263.977 154.32 264.384 154.721 264.67C155.122 264.957 155.632 265.1 156.25 265.1C156.869 265.1 157.379 264.957 157.78 264.67C158.181 264.384 158.473 263.977 158.656 263.45C158.851 262.912 158.948 262.282 158.948 261.56C158.948 260.827 158.851 260.203 158.656 259.687C158.461 259.172 158.163 258.776 157.762 258.501C157.373 258.215 156.863 258.072 156.233 258.072C155.294 258.072 154.612 258.381 154.188 259C153.765 259.618 153.553 260.472 153.553 261.56ZM168.518 260.976C168.449 260.735 168.38 260.5 168.312 260.271C168.243 260.031 168.18 259.807 168.123 259.601C168.077 259.384 168.031 259.183 167.985 259C167.939 258.817 167.905 258.662 167.882 258.536H167.813C167.79 258.662 167.756 258.817 167.71 259C167.676 259.183 167.63 259.384 167.573 259.601C167.527 259.819 167.47 260.048 167.401 260.289C167.344 260.518 167.275 260.752 167.195 260.993L165.545 266.165H163.827L161.301 256.955H162.865L164.136 261.869C164.228 262.202 164.314 262.539 164.394 262.883C164.474 263.215 164.543 263.536 164.6 263.845C164.669 264.143 164.715 264.401 164.738 264.619H164.806C164.841 264.481 164.881 264.309 164.927 264.103C164.972 263.897 165.018 263.679 165.064 263.45C165.121 263.221 165.179 262.992 165.236 262.763C165.305 262.534 165.368 262.328 165.425 262.144L167.057 256.955H168.707L170.288 262.144C170.368 262.408 170.448 262.688 170.528 262.986C170.62 263.284 170.7 263.576 170.769 263.863C170.838 264.137 170.883 264.384 170.906 264.601H170.975C170.998 264.407 171.038 264.166 171.095 263.88C171.164 263.582 171.239 263.261 171.319 262.917C171.41 262.562 171.502 262.213 171.594 261.869L172.882 256.955H174.429L171.869 266.165H170.099L168.518 260.976ZM179.638 256.8C180.428 256.8 181.104 256.972 181.665 257.316C182.238 257.66 182.673 258.146 182.971 258.776C183.28 259.395 183.435 260.122 183.435 260.959V261.869H177.129C177.152 262.912 177.415 263.708 177.919 264.258C178.435 264.796 179.151 265.065 180.067 265.065C180.651 265.065 181.167 265.014 181.614 264.911C182.072 264.796 182.541 264.636 183.023 264.43V265.753C182.553 265.959 182.089 266.108 181.631 266.199C181.173 266.303 180.628 266.354 179.998 266.354C179.128 266.354 178.355 266.177 177.679 265.821C177.014 265.466 176.493 264.939 176.115 264.241C175.748 263.53 175.565 262.665 175.565 261.646C175.565 260.638 175.731 259.773 176.063 259.051C176.407 258.33 176.883 257.774 177.49 257.385C178.108 256.995 178.824 256.8 179.638 256.8ZM179.62 258.038C178.899 258.038 178.326 258.272 177.902 258.742C177.49 259.2 177.243 259.842 177.163 260.667H181.854C181.854 260.14 181.774 259.681 181.614 259.292C181.453 258.902 181.207 258.599 180.875 258.381C180.554 258.152 180.136 258.038 179.62 258.038ZM190.075 256.8C190.247 256.8 190.43 256.812 190.625 256.835C190.831 256.846 191.009 256.869 191.158 256.903L190.969 258.295C190.82 258.261 190.654 258.232 190.471 258.209C190.299 258.186 190.133 258.175 189.972 258.175C189.617 258.175 189.279 258.249 188.958 258.398C188.638 258.547 188.351 258.759 188.099 259.034C187.847 259.298 187.647 259.618 187.498 259.996C187.36 260.374 187.292 260.798 187.292 261.268V266.182H185.78V256.972H187.017L187.189 258.656H187.257C187.452 258.312 187.687 258.003 187.962 257.728C188.237 257.442 188.552 257.218 188.907 257.058C189.262 256.886 189.652 256.8 190.075 256.8ZM69.7455 292.354C68.6 292.354 67.6836 291.959 66.9963 291.168C66.309 290.367 65.9653 289.175 65.9653 287.594C65.9653 286.014 66.309 284.822 66.9963 284.02C67.695 283.207 68.6172 282.8 69.7627 282.8C70.2438 282.8 70.662 282.863 71.0171 282.989C71.3722 283.104 71.6815 283.264 71.945 283.471C72.2084 283.677 72.4318 283.906 72.6151 284.158H72.7182C72.7067 284.009 72.6838 283.791 72.6495 283.505C72.6265 283.207 72.6151 282.972 72.6151 282.8V279.123H74.1272V292.182H72.9072L72.6838 290.945H72.6151C72.4318 291.209 72.2084 291.449 71.945 291.667C71.6815 291.873 71.3665 292.039 70.9999 292.165C70.6448 292.291 70.2267 292.354 69.7455 292.354ZM69.9861 291.1C70.9598 291.1 71.6414 290.836 72.0309 290.309C72.4318 289.771 72.6323 288.963 72.6323 287.887V287.612C72.6323 286.466 72.4433 285.59 72.0652 284.983C71.6872 284.364 70.9884 284.055 69.9689 284.055C69.1556 284.055 68.5427 284.381 68.1303 285.034C67.7294 285.676 67.5289 286.541 67.5289 287.629C67.5289 288.728 67.7294 289.582 68.1303 290.189C68.5427 290.796 69.1613 291.1 69.9861 291.1ZM78.5644 282.972V292.182H77.0523V282.972H78.5644ZM77.8255 279.518C78.0546 279.518 78.2551 279.599 78.4269 279.759C78.6102 279.908 78.7019 280.148 78.7019 280.481C78.7019 280.801 78.6102 281.042 78.4269 281.202C78.2551 281.363 78.0546 281.443 77.8255 281.443C77.5735 281.443 77.3616 281.363 77.1898 281.202C77.0179 281.042 76.932 280.801 76.932 280.481C76.932 280.148 77.0179 279.908 77.1898 279.759C77.3616 279.599 77.5735 279.518 77.8255 279.518ZM83.5099 292.182L80.0217 282.972H81.6369L83.5958 288.402C83.6874 288.654 83.7848 288.935 83.8879 289.244C83.991 289.553 84.0826 289.851 84.1628 290.137C84.243 290.412 84.3003 290.647 84.3346 290.842H84.4034C84.4492 290.647 84.5122 290.407 84.5924 290.12C84.684 289.834 84.7814 289.536 84.8845 289.227C84.9991 288.917 85.0964 288.643 85.1766 288.402L87.1355 282.972H88.7507L85.2453 292.182H83.5099ZM91.7201 282.972V292.182H90.208V282.972H91.7201ZM90.9812 279.518C91.2103 279.518 91.4108 279.599 91.5826 279.759C91.7659 279.908 91.8575 280.148 91.8575 280.481C91.8575 280.801 91.7659 281.042 91.5826 281.202C91.4108 281.363 91.2103 281.443 90.9812 281.443C90.7292 281.443 90.5173 281.363 90.3454 281.202C90.1736 281.042 90.0877 280.801 90.0877 280.481C90.0877 280.148 90.1736 279.908 90.3454 279.759C90.5173 279.599 90.7292 279.518 90.9812 279.518ZM100.635 289.639C100.635 290.235 100.486 290.733 100.188 291.134C99.8902 291.535 99.4664 291.839 98.9165 292.045C98.3667 292.251 97.7137 292.354 96.9577 292.354C96.3162 292.354 95.7606 292.303 95.2909 292.199C94.8327 292.096 94.426 291.953 94.0709 291.77V290.395C94.4375 290.579 94.8785 290.75 95.394 290.911C95.921 291.06 96.4536 291.134 96.992 291.134C97.7595 291.134 98.3151 291.014 98.6588 290.773C99.0024 290.521 99.1743 290.189 99.1743 289.777C99.1743 289.548 99.1112 289.341 98.9852 289.158C98.8592 288.975 98.6301 288.791 98.2979 288.608C97.9772 288.425 97.5132 288.219 96.9061 287.99C96.3104 287.761 95.8007 287.531 95.3768 287.302C94.953 287.073 94.6265 286.798 94.3974 286.478C94.1683 286.157 94.0537 285.744 94.0537 285.24C94.0537 284.461 94.3688 283.86 94.9988 283.436C95.6403 283.012 96.4765 282.8 97.5075 282.8C98.0688 282.8 98.59 282.858 99.0712 282.972C99.5637 283.075 100.022 283.224 100.446 283.419L99.9303 284.622C99.6783 284.507 99.4091 284.41 99.1227 284.33C98.8478 284.238 98.5671 284.169 98.2807 284.123C97.9944 284.066 97.7022 284.038 97.4044 284.038C96.7858 284.038 96.3104 284.141 95.9782 284.347C95.6575 284.542 95.4971 284.811 95.4971 285.154C95.4971 285.406 95.5716 285.624 95.7205 285.807C95.8694 285.979 96.1157 286.151 96.4593 286.323C96.8145 286.483 97.2841 286.678 97.8683 286.907C98.4526 287.125 98.9509 287.348 99.3633 287.577C99.7757 287.806 100.091 288.087 100.308 288.419C100.526 288.74 100.635 289.147 100.635 289.639ZM104.372 282.972V292.182H102.86V282.972H104.372ZM103.633 279.518C103.863 279.518 104.063 279.599 104.235 279.759C104.418 279.908 104.51 280.148 104.51 280.481C104.51 280.801 104.418 281.042 104.235 281.202C104.063 281.363 103.863 281.443 103.633 281.443C103.381 281.443 103.17 281.363 102.998 281.202C102.826 281.042 102.74 280.801 102.74 280.481C102.74 280.148 102.826 279.908 102.998 279.759C103.17 279.599 103.381 279.518 103.633 279.518ZM115.297 287.56C115.297 288.328 115.194 289.009 114.988 289.605C114.793 290.189 114.507 290.687 114.129 291.1C113.762 291.512 113.31 291.827 112.772 292.045C112.245 292.251 111.655 292.354 111.002 292.354C110.395 292.354 109.833 292.251 109.318 292.045C108.802 291.827 108.356 291.512 107.978 291.1C107.6 290.687 107.302 290.189 107.084 289.605C106.878 289.009 106.775 288.328 106.775 287.56C106.775 286.541 106.947 285.681 107.29 284.983C107.634 284.272 108.126 283.734 108.768 283.367C109.409 282.989 110.171 282.8 111.053 282.8C111.89 282.8 112.623 282.989 113.253 283.367C113.894 283.734 114.393 284.272 114.748 284.983C115.114 285.681 115.297 286.541 115.297 287.56ZM108.338 287.56C108.338 288.282 108.43 288.912 108.613 289.45C108.808 289.977 109.106 290.384 109.507 290.67C109.908 290.957 110.418 291.1 111.036 291.1C111.655 291.1 112.164 290.957 112.565 290.67C112.966 290.384 113.258 289.977 113.442 289.45C113.636 288.912 113.734 288.282 113.734 287.56C113.734 286.827 113.636 286.203 113.442 285.687C113.247 285.172 112.949 284.776 112.548 284.501C112.159 284.215 111.649 284.072 111.019 284.072C110.08 284.072 109.398 284.381 108.974 285C108.55 285.618 108.338 286.472 108.338 287.56ZM122.127 282.8C123.227 282.8 124.057 283.07 124.619 283.608C125.18 284.135 125.461 284.994 125.461 286.185V292.182H123.966V286.289C123.966 285.544 123.8 284.988 123.467 284.622C123.135 284.255 122.614 284.072 121.904 284.072C120.884 284.072 120.18 284.358 119.79 284.931C119.401 285.504 119.206 286.329 119.206 287.405V292.182H117.694V282.972H118.914L119.137 284.227H119.223C119.429 283.906 119.681 283.642 119.979 283.436C120.289 283.218 120.627 283.058 120.993 282.955C121.36 282.852 121.738 282.8 122.127 282.8ZM136.744 291.117C136.974 291.117 137.208 291.1 137.449 291.065C137.69 291.02 137.884 290.974 138.033 290.928V292.079C137.873 292.159 137.644 292.222 137.346 292.268C137.048 292.325 136.762 292.354 136.487 292.354C136.006 292.354 135.559 292.274 135.146 292.114C134.746 291.942 134.419 291.65 134.167 291.237C133.915 290.825 133.789 290.246 133.789 289.502V284.141H132.483V283.419L133.806 282.818L134.408 280.859H135.301V282.972H137.964V284.141H135.301V289.467C135.301 290.029 135.433 290.447 135.696 290.722C135.971 290.985 136.321 291.117 136.744 291.117ZM147.575 282.972V292.182H146.338L146.115 290.962H146.046C145.851 291.283 145.599 291.546 145.29 291.753C144.981 291.959 144.643 292.108 144.276 292.199C143.91 292.303 143.526 292.354 143.125 292.354C142.392 292.354 141.773 292.24 141.269 292.01C140.777 291.77 140.404 291.403 140.152 290.911C139.9 290.418 139.774 289.782 139.774 289.003V282.972H141.304V288.9C141.304 289.633 141.47 290.183 141.802 290.55C142.134 290.916 142.65 291.1 143.348 291.1C144.036 291.1 144.574 290.974 144.964 290.722C145.364 290.458 145.645 290.08 145.805 289.588C145.977 289.084 146.063 288.476 146.063 287.766V282.972H147.575ZM153.575 291.117C153.804 291.117 154.039 291.1 154.279 291.065C154.52 291.02 154.715 290.974 154.864 290.928V292.079C154.703 292.159 154.474 292.222 154.176 292.268C153.879 292.325 153.592 292.354 153.317 292.354C152.836 292.354 152.389 292.274 151.977 292.114C151.576 291.942 151.25 291.65 150.998 291.237C150.746 290.825 150.62 290.246 150.62 289.502V284.141H149.314V283.419L150.637 282.818L151.238 280.859H152.132V282.972H154.795V284.141H152.132V289.467C152.132 290.029 152.263 290.447 152.527 290.722C152.802 290.985 153.151 291.117 153.575 291.117ZM164.715 287.56C164.715 288.328 164.612 289.009 164.406 289.605C164.211 290.189 163.925 290.687 163.547 291.1C163.18 291.512 162.728 291.827 162.189 292.045C161.662 292.251 161.072 292.354 160.419 292.354C159.812 292.354 159.251 292.251 158.736 292.045C158.22 291.827 157.773 291.512 157.395 291.1C157.017 290.687 156.719 290.189 156.502 289.605C156.296 289.009 156.192 288.328 156.192 287.56C156.192 286.541 156.364 285.681 156.708 284.983C157.052 284.272 157.544 283.734 158.186 283.367C158.827 282.989 159.589 282.8 160.471 282.8C161.307 282.8 162.04 282.989 162.67 283.367C163.312 283.734 163.81 284.272 164.165 284.983C164.532 285.681 164.715 286.541 164.715 287.56ZM157.756 287.56C157.756 288.282 157.848 288.912 158.031 289.45C158.226 289.977 158.524 290.384 158.925 290.67C159.325 290.957 159.835 291.1 160.454 291.1C161.072 291.1 161.582 290.957 161.983 290.67C162.384 290.384 162.676 289.977 162.859 289.45C163.054 288.912 163.152 288.282 163.152 287.56C163.152 286.827 163.054 286.203 162.859 285.687C162.665 285.172 162.367 284.776 161.966 284.501C161.576 284.215 161.067 284.072 160.437 284.072C159.497 284.072 158.816 284.381 158.392 285C157.968 285.618 157.756 286.472 157.756 287.56ZM171.407 282.8C171.579 282.8 171.762 282.812 171.957 282.835C172.163 282.846 172.341 282.869 172.49 282.903L172.301 284.295C172.152 284.261 171.986 284.232 171.803 284.209C171.631 284.186 171.465 284.175 171.304 284.175C170.949 284.175 170.611 284.249 170.29 284.398C169.97 284.547 169.683 284.759 169.431 285.034C169.179 285.298 168.979 285.618 168.83 285.996C168.692 286.374 168.624 286.798 168.624 287.268V292.182H167.112V282.972H168.349L168.521 284.656H168.589C168.784 284.312 169.019 284.003 169.294 283.728C169.569 283.442 169.884 283.218 170.239 283.058C170.594 282.886 170.984 282.8 171.407 282.8ZM180.207 289.639C180.207 290.235 180.058 290.733 179.76 291.134C179.462 291.535 179.038 291.839 178.488 292.045C177.938 292.251 177.285 292.354 176.529 292.354C175.888 292.354 175.332 292.303 174.863 292.199C174.404 292.096 173.998 291.953 173.643 291.77V290.395C174.009 290.579 174.45 290.75 174.966 290.911C175.493 291.06 176.025 291.134 176.564 291.134C177.331 291.134 177.887 291.014 178.23 290.773C178.574 290.521 178.746 290.189 178.746 289.777C178.746 289.548 178.683 289.341 178.557 289.158C178.431 288.975 178.202 288.791 177.87 288.608C177.549 288.425 177.085 288.219 176.478 287.99C175.882 287.761 175.372 287.531 174.949 287.302C174.525 287.073 174.198 286.798 173.969 286.478C173.74 286.157 173.625 285.744 173.625 285.24C173.625 284.461 173.94 283.86 174.571 283.436C175.212 283.012 176.048 282.8 177.079 282.8C177.641 282.8 178.162 282.858 178.643 282.972C179.135 283.075 179.594 283.224 180.017 283.419L179.502 284.622C179.25 284.507 178.981 284.41 178.694 284.33C178.419 284.238 178.139 284.169 177.852 284.123C177.566 284.066 177.274 284.038 176.976 284.038C176.358 284.038 175.882 284.141 175.55 284.347C175.229 284.542 175.069 284.811 175.069 285.154C175.069 285.406 175.143 285.624 175.292 285.807C175.441 285.979 175.687 286.151 176.031 286.323C176.386 286.483 176.856 286.678 177.44 286.907C178.024 287.125 178.523 287.348 178.935 287.577C179.347 287.806 179.662 288.087 179.88 288.419C180.098 288.74 180.207 289.147 180.207 289.639Z" fill="#F0F0F0"/>
<path d="M201.334 83.8367C201.294 80.7113 199.631 77.8317 196.945 76.2338L126.345 34.2407C123.551 32.5789 120.078 32.5563 117.263 34.1817L48.0808 74.1238C45.2656 75.7491 43.5483 78.7687 43.5905 82.0191L44.6579 164.157C44.6985 167.282 46.361 170.162 49.0475 171.76L119.647 213.753C122.441 215.414 125.914 215.437 128.73 213.812L197.911 173.87C200.727 172.244 202.444 169.225 202.402 165.974L201.334 83.8367Z" fill="url(#paint0_linear_495_2801)" stroke="url(#paint1_linear_495_2801)" stroke-width="2.34313"/>
<path d="M202.5 167L201.5 82L197.524 77.7017L162.524 80.7017L155.524 108.202L126.524 110.702L122.024 136.702L88.0237 139.702V167.702L52.0237 172.702L53.5237 175.702L122.5 215L126 215.5L199.5 173.5L202.5 167Z" fill="url(#paint2_linear_495_2801)"/>
<path d="M199.024 81.6517C199.024 82.9645 198.5 84.2235 197.569 85.1518C196.638 86.0801 195.374 86.6017 194.057 86.6017H164.257V111.352C164.257 112.664 163.734 113.924 162.802 114.852C161.871 115.78 160.608 116.302 159.29 116.302H129.49V141.052C129.49 142.364 128.967 143.624 128.036 144.552C127.104 145.48 125.841 146.002 124.524 146.002H94.7237V170.752C94.7237 172.064 94.2004 173.324 93.269 174.252C92.3375 175.18 91.0743 175.702 89.757 175.702H54.9903C53.6731 175.702 52.4098 175.18 51.4784 174.252C50.547 173.324 50.0237 172.064 50.0237 170.752C50.0237 169.439 50.547 168.18 51.4784 167.251C52.4098 166.323 53.6731 165.802 54.9903 165.802H84.7903V141.052C84.7903 139.739 85.3136 138.48 86.2451 137.551C87.1765 136.623 88.4398 136.102 89.757 136.102H119.557V111.352C119.557 110.039 120.08 108.78 121.012 107.851C121.943 106.923 123.206 106.402 124.524 106.402H154.324V81.6517C154.324 80.3388 154.847 79.0798 155.778 78.1515C156.71 77.2232 157.973 76.7017 159.29 76.7017H194.057C195.374 76.7017 196.638 77.2232 197.569 78.1515C198.5 79.0798 199.024 80.3388 199.024 81.6517Z" fill="black"/>
<path d="M199.024 81.6517C199.024 82.9645 198.5 84.2235 197.569 85.1518C196.638 86.0801 195.374 86.6017 194.057 86.6017H164.257V111.352C164.257 112.664 163.734 113.924 162.802 114.852C161.871 115.78 160.608 116.302 159.29 116.302H129.49V141.052C129.49 142.364 128.967 143.624 128.036 144.552C127.104 145.48 125.841 146.002 124.524 146.002H94.7237V170.752C94.7237 172.064 94.2004 173.324 93.269 174.252C92.3375 175.18 91.0743 175.702 89.757 175.702H54.9903C53.6731 175.702 52.4098 175.18 51.4784 174.252C50.547 173.324 50.0237 172.064 50.0237 170.752C50.0237 169.439 50.547 168.18 51.4784 167.251C52.4098 166.323 53.6731 165.802 54.9903 165.802H84.7903V141.052C84.7903 139.739 85.3136 138.48 86.2451 137.551C87.1765 136.623 88.4398 136.102 89.757 136.102H119.557V111.352C119.557 110.039 120.08 108.78 121.012 107.851C121.943 106.923 123.206 106.402 124.524 106.402H154.324V81.6517C154.324 80.3388 154.847 79.0798 155.778 78.1515C156.71 77.2232 157.973 76.7017 159.29 76.7017H194.057C195.374 76.7017 196.638 77.2232 197.569 78.1515C198.5 79.0798 199.024 80.3388 199.024 81.6517Z" fill="url(#paint3_linear_495_2801)"/>
<path d="M201.334 83.8367C201.294 80.7113 199.631 77.8317 196.945 76.2338L126.345 34.2407C123.551 32.5789 120.078 32.5563 117.263 34.1817L48.0808 74.1238C45.2656 75.7491 43.5483 78.7687 43.5905 82.0191L44.6579 164.157C44.6985 167.282 46.361 170.162 49.0475 171.76L119.647 213.753C122.441 215.414 125.914 215.437 128.73 213.812L197.911 173.87C200.727 172.244 202.444 169.225 202.402 165.974L201.334 83.8367Z" stroke="url(#paint4_linear_495_2801)" stroke-width="2.34313"/>
<path d="M109.966 101.988C110.293 101.669 110.554 101.291 110.731 100.874C110.909 100.457 111 100.009 111 99.5573C111 99.1054 110.909 98.658 110.731 98.2409C110.554 97.8238 110.293 97.4452 109.966 97.127L92.4826 80.0125C92.1575 79.6917 91.7708 79.437 91.3447 79.2632C90.9186 79.0895 90.4616 79 90 79C89.5384 79 89.0814 79.0895 88.6553 79.2632C88.2292 79.437 87.8425 79.6917 87.5174 80.0125L70.0343 97.127C69.7066 97.4452 69.4464 97.8238 69.2689 98.2409C69.0914 98.658 69 99.1054 69 99.5573C69 100.009 69.0914 100.457 69.2689 100.874C69.4464 101.291 69.7066 101.669 70.0343 101.988C70.3594 102.308 70.7461 102.563 71.1722 102.737C71.5983 102.911 72.0553 103 72.5169 103C72.9785 103 73.4355 102.911 73.8616 102.737C74.2877 102.563 74.6744 102.308 74.9995 101.988L90 87.269L105.001 101.988C105.326 102.308 105.712 102.563 106.138 102.737C106.564 102.911 107.022 103 107.483 103C107.945 103 108.402 102.911 108.828 102.737C109.254 102.563 109.641 102.308 109.966 101.988Z" fill="#181818"/>
<path d="M125.034 154.012C124.707 154.331 124.446 154.709 124.269 155.126C124.091 155.543 124 155.991 124 156.443C124 156.895 124.091 157.342 124.269 157.759C124.446 158.176 124.707 158.555 125.034 158.873L142.517 175.988C142.842 176.308 143.229 176.563 143.655 176.737C144.081 176.911 144.538 177 145 177C145.462 177 145.919 176.911 146.345 176.737C146.771 176.563 147.158 176.308 147.483 175.988L164.966 158.873C165.293 158.555 165.554 158.176 165.731 157.759C165.909 157.342 166 156.895 166 156.443C166 155.991 165.909 155.543 165.731 155.126C165.554 154.709 165.293 154.331 164.966 154.012C164.641 153.692 164.254 153.437 163.828 153.263C163.402 153.089 162.945 153 162.483 153C162.022 153 161.564 153.089 161.138 153.263C160.712 153.437 160.326 153.692 160.001 154.012L145 168.731L129.999 154.012C129.674 153.692 129.288 153.437 128.862 153.263C128.436 153.089 127.978 153 127.517 153C127.055 153 126.598 153.089 126.172 153.263C125.746 153.437 125.359 153.692 125.034 154.012Z" fill="#B79E11"/>
<defs>
<linearGradient id="paint0_linear_495_2801" x1="300.683" y1="271.223" x2="174.841" y2="7.98519" gradientUnits="userSpaceOnUse">
<stop offset="0.379733" stop-color="#FFDE28" stop-opacity="0.7"/>
<stop offset="0.988905" stop-color="#FFDE28" stop-opacity="0.1"/>
</linearGradient>
<linearGradient id="paint1_linear_495_2801" x1="33.8717" y1="61.7369" x2="308.025" y2="244.77" gradientUnits="userSpaceOnUse">
<stop offset="0.129324" stop-color="#5D4E00"/>
<stop offset="0.247324" stop-color="#FFDE28"/>
<stop offset="0.401695" stop-color="#FFFD8F"/>
<stop offset="0.520532" stop-color="#DAC139"/>
<stop offset="0.659271" stop-color="#978000"/>
</linearGradient>
<linearGradient id="paint2_linear_495_2801" x1="249.524" y1="89.7017" x2="54.3698" y2="88.0356" gradientUnits="userSpaceOnUse">
<stop offset="0.124936" stop-color="#141413"/>
<stop offset="0.546354" stop-color="#181715" stop-opacity="0.8"/>
<stop offset="0.988905" stop-color="#181715" stop-opacity="0.5"/>
</linearGradient>
<linearGradient id="paint3_linear_495_2801" x1="199" y1="79.5" x2="51.5" y2="174.5" gradientUnits="userSpaceOnUse">
<stop stop-color="#1D1C15"/>
<stop offset="0.284481" stop-color="#262317"/>
<stop offset="0.560066" stop-color="#332F19"/>
<stop offset="0.803814" stop-color="#433D1C"/>
<stop offset="1" stop-color="#4D461E"/>
</linearGradient>
<linearGradient id="paint4_linear_495_2801" x1="33.8717" y1="61.7369" x2="308.025" y2="244.77" gradientUnits="userSpaceOnUse">
<stop offset="0.129324" stop-color="#5D4E00"/>
<stop offset="0.247324" stop-color="#FFDE28"/>
<stop offset="0.401695" stop-color="#FFFD8F"/>
<stop offset="0.520532" stop-color="#DAC139"/>
<stop offset="0.659271" stop-color="#978000"/>
</linearGradient>
</defs>
</svg>
