<svg width="40" height="46" viewBox="0 0 40 46" fill="none" xmlns="http://www.w3.org/2000/svg">
<g filter="url(#filter0_i_458_252)">
<path fill-rule="evenodd" clip-rule="evenodd" d="M20.6999 1.08587C20.265 0.842714 19.735 0.842714 19.3001 1.08587L0.734342 11.4657C0.280908 11.7192 0 12.1981 0 12.7176V33.3983C0 33.9178 0.280909 34.3966 0.734342 34.6502L19.3001 45.03C19.735 45.2731 20.265 45.2731 20.6999 45.03L39.2657 34.6502C39.7191 34.3966 40 33.9178 40 33.3983V12.7176C40 12.1981 39.7191 11.7192 39.2657 11.4657L20.6999 1.08587ZM12.9991 10.5866C13.6944 10.1428 14.6024 9.80562 15.4027 9.69398C17.1018 9.45686 18.8984 10.0089 20.1608 11.1559C21.187 12.0883 21.8507 13.41 21.966 14.7505L22.0061 15.2179L23.7246 15.2318L25.4432 15.2456V13.5676V11.8897H28.3389H31.2347V12.9904V14.091H29.5027H27.7706V18.0221V21.9532H29.5027H31.2347V23.0539V24.1546H29.5027H27.7706V28.0856V32.0167H29.5027H31.2347V33.1174V34.2181H28.3389H25.4432V32.5401V30.8621L23.7246 30.8759L22.0061 30.8898L21.966 31.3572C21.7711 33.6243 20.1037 35.5989 17.8501 36.2312C16.1763 36.701 14.4523 36.4486 12.9991 35.5211C12.136 34.9703 11.292 33.9841 10.9142 33.0848C10.7977 32.8075 10.77 32.7807 10.4837 32.6679C9.55506 32.3021 8.53667 31.4848 7.96779 30.649C6.67081 28.7434 6.67747 26.3391 7.98506 24.3904C8.10111 24.2174 8.43529 23.846 8.72768 23.5649L9.25936 23.0539L8.72768 22.5428C8.43529 22.2617 8.10111 21.8903 7.98506 21.7173C6.67747 19.7686 6.67081 17.3643 7.96779 15.4587C8.53667 14.6229 9.55506 13.8057 10.4837 13.4398C10.77 13.327 10.7977 13.3002 10.9142 13.0229C11.292 12.1236 12.136 11.1375 12.9991 10.5866ZM19.6471 14.7893C19.4622 13.496 18.5993 12.4915 17.2849 12.0395C16.8656 11.8953 15.8634 11.8583 15.4063 11.9702C14.6811 12.1477 13.8848 12.6542 13.4528 13.2125C12.9684 13.8386 12.7453 14.586 12.793 15.4228C12.838 16.212 13.0861 16.8117 13.62 17.4211L13.9185 17.7618L13.1783 18.5733C12.7713 19.0197 12.4201 19.3849 12.3979 19.3849C12.3239 19.3849 11.6706 18.6801 11.4619 18.3751C11.0475 17.7695 10.6525 16.852 10.5772 16.3201C10.5587 16.1896 10.5228 16.0828 10.4974 16.0828C10.411 16.0828 9.99083 16.5542 9.78461 16.8826C9.44767 17.4192 9.34045 17.834 9.34093 18.5987C9.34142 19.3233 9.40009 19.5629 9.72626 20.1722C10.2195 21.0937 11.1988 21.7476 12.3078 21.8964C12.5577 21.9299 13.6834 21.9532 15.0548 21.9532H17.3783V23.0539V24.1546H15.0548C13.6834 24.1546 12.5577 24.1778 12.3078 24.2113C10.9527 24.393 9.90033 25.2576 9.44231 26.5656C9.28967 27.0015 9.29893 28.0364 9.45985 28.5311C9.60123 28.9656 9.90071 29.4607 10.2205 29.7886C10.4752 30.0496 10.5583 30.0806 10.5583 29.9145C10.5583 29.7175 10.7239 29.1705 10.9214 28.7146C11.1574 28.1698 11.7018 27.3608 12.0604 27.0218L12.3264 26.7703L12.9142 27.3887C13.2374 27.7287 13.5858 28.0938 13.6884 28.2L13.8749 28.393L13.626 28.6685C12.5689 29.8387 12.4944 31.6563 13.4528 32.8952C13.9016 33.4753 14.6947 33.9688 15.4583 34.143C15.9555 34.2564 16.8395 34.2199 17.2849 34.0676C18.5969 33.619 19.4621 32.6119 19.6471 31.3184C19.7289 30.7466 19.7289 15.3611 19.6471 14.7893ZM25.4432 21.9546V19.7001V17.4455H23.7365C22.4206 17.4455 22.0238 17.4605 22.0038 17.5111C21.9895 17.5471 21.9842 18.5555 21.992 19.7518L22.0061 21.927L23.7246 21.9408L25.4432 21.9546ZM25.4432 28.6636V26.4091V24.1546H23.7365C22.4206 24.1546 22.0238 24.1695 22.0038 24.2201C21.9895 24.2561 21.9842 25.2645 21.992 26.4608L22.0061 28.636L23.7246 28.6498L25.4432 28.6636Z" fill="#FFDE28"/>
</g>
<defs>
<filter id="filter0_i_458_252" x="0" y="0.903503" width="40" height="44.8467" filterUnits="userSpaceOnUse" color-interpolation-filters="sRGB">
<feFlood flood-opacity="0" result="BackgroundImageFix"/>
<feBlend mode="normal" in="SourceGraphic" in2="BackgroundImageFix" result="shape"/>
<feColorMatrix in="SourceAlpha" type="matrix" values="0 0 0 0 0 0 0 0 0 0 0 0 0 0 0 0 0 0 127 0" result="hardAlpha"/>
<feOffset dy="0.537842"/>
<feGaussianBlur stdDeviation="0.313741"/>
<feComposite in2="hardAlpha" operator="arithmetic" k2="-1" k3="1"/>
<feColorMatrix type="matrix" values="0 0 0 0 0 0 0 0 0 0 0 0 0 0 0 0 0 0 0.4 0"/>
<feBlend mode="normal" in2="shape" result="effect1_innerShadow_458_252"/>
</filter>
</defs>
</svg>
