<svg width="271" height="67" viewBox="0 0 271 67" fill="none" xmlns="http://www.w3.org/2000/svg">
<rect x="0.847751" y="17.8478" width="252.305" height="48.3045" rx="11.1522" fill="url(#paint0_linear_313_951)" stroke="url(#paint1_linear_313_951)" stroke-width="1.6955"/>
<path d="M46.0366 50H43.5946L47.3126 34.93H52.1746L55.9146 50H53.4506L52.6366 46.766H46.8506L46.0366 50ZM50.3046 36.976H49.2046L47.3346 44.61H52.1526L50.3046 36.976ZM64.0246 45.314H60.9446V50H58.5026V34.93H64.0246C67.4419 34.93 69.1506 36.6167 69.1506 39.99C69.1506 41.7207 68.7252 43.0407 67.8746 43.95C67.0239 44.8593 65.7406 45.314 64.0246 45.314ZM60.9446 37.042V43.202H64.0026C65.7626 43.202 66.6426 42.1313 66.6426 39.99C66.6426 38.9633 66.4299 38.2153 66.0046 37.746C65.5939 37.2767 64.9266 37.042 64.0026 37.042H60.9446ZM77.4626 45.314H74.3826V50H71.9406V34.93H77.4626C80.8799 34.93 82.5886 36.6167 82.5886 39.99C82.5886 41.7207 82.1633 43.0407 81.3126 43.95C80.4619 44.8593 79.1786 45.314 77.4626 45.314ZM74.3826 37.042V43.202H77.4406C79.2006 43.202 80.0806 42.1313 80.0806 39.99C80.0806 38.9633 79.8679 38.2153 79.4426 37.746C79.0319 37.2767 78.3646 37.042 77.4406 37.042H74.3826ZM93.8267 47.822V50H85.3787V34.93H87.8207V47.822H93.8267ZM101.804 43.796V50H99.3401V43.796L94.6101 34.93H97.3601L100.55 41.398L103.762 34.93H106.49L101.804 43.796ZM115.192 50H112.75L116.468 34.93H121.33L125.07 50H122.606L121.792 46.766H116.006L115.192 50ZM119.46 36.976H118.36L116.49 44.61H121.308L119.46 36.976ZM132.08 36.822C130.218 36.822 129.286 37.4747 129.286 38.78C129.286 39.44 129.506 39.9167 129.946 40.21C130.386 40.5033 131.362 40.8553 132.872 41.266C133.62 41.4713 134.251 41.6913 134.764 41.926C135.292 42.1607 135.718 42.4393 136.04 42.762C136.363 43.0847 136.598 43.4733 136.744 43.928C136.891 44.368 136.964 44.896 136.964 45.512C136.964 47.1107 136.51 48.2987 135.6 49.076C134.706 49.8533 133.481 50.242 131.926 50.242C131.296 50.242 130.636 50.2053 129.946 50.132C129.272 50.0587 128.553 49.9487 127.79 49.802L126.998 49.648L127.24 47.69C129.22 47.954 130.731 48.086 131.772 48.086C133.591 48.086 134.5 47.2793 134.5 45.666C134.5 45.0353 134.295 44.566 133.884 44.258C133.474 43.9647 132.55 43.6347 131.112 43.268C130.394 43.092 129.763 42.8867 129.22 42.652C128.692 42.4173 128.252 42.1313 127.9 41.794C127.548 41.4567 127.284 41.046 127.108 40.562C126.932 40.0633 126.844 39.4767 126.844 38.802C126.844 37.4233 127.284 36.3893 128.164 35.7C129.044 35.0107 130.276 34.666 131.86 34.666C132.99 34.666 134.324 34.798 135.864 35.062L136.634 35.194L136.436 37.174C135.41 37.0567 134.53 36.9687 133.796 36.91C133.078 36.8513 132.506 36.822 132.08 36.822ZM148.155 37.108H143.865V34.93H154.865V37.108H150.619V50H148.155V37.108ZM159.67 34.93V45.182C159.67 47.1327 160.696 48.108 162.75 48.108C164.803 48.108 165.83 47.1327 165.83 45.182V34.93H168.294V45.138C168.294 46.9127 167.832 48.2107 166.908 49.032C165.984 49.8387 164.598 50.242 162.75 50.242C160.887 50.242 159.494 49.8387 158.57 49.032C157.66 48.2107 157.206 46.9127 157.206 45.138V34.93H159.67ZM174.924 37.108H170.634V34.93H181.634V37.108H177.388V50H174.924V37.108ZM189.584 50.242C188.44 50.242 187.48 50.088 186.702 49.78C185.925 49.472 185.294 49.0027 184.81 48.372C184.326 47.7413 183.974 46.942 183.754 45.974C183.549 45.006 183.446 43.862 183.446 42.542C183.446 41.222 183.556 40.0707 183.776 39.088C183.996 38.0907 184.348 37.2693 184.832 36.624C185.316 35.9787 185.947 35.4947 186.724 35.172C187.502 34.8493 188.455 34.688 189.584 34.688C190.714 34.688 191.667 34.8493 192.444 35.172C193.222 35.48 193.852 35.964 194.336 36.624C194.82 37.2693 195.165 38.0833 195.37 39.066C195.59 40.0487 195.7 41.2073 195.7 42.542C195.7 43.6713 195.62 44.7127 195.458 45.666C195.312 46.6047 195.011 47.4187 194.556 48.108C194.116 48.7827 193.493 49.3107 192.686 49.692C191.894 50.0587 190.86 50.242 189.584 50.242ZM186.724 46.81C187.238 47.6753 188.191 48.108 189.584 48.108C190.288 48.108 190.868 48.0053 191.322 47.8C191.792 47.5947 192.158 47.272 192.422 46.832C192.701 46.3773 192.892 45.798 192.994 45.094C193.112 44.39 193.17 43.5393 193.17 42.542C193.17 41.5447 193.112 40.6867 192.994 39.968C192.877 39.2347 192.679 38.6407 192.4 38.186C192.136 37.7167 191.77 37.372 191.3 37.152C190.846 36.932 190.274 36.822 189.584 36.822C188.895 36.822 188.316 36.932 187.846 37.152C187.392 37.372 187.025 37.7167 186.746 38.186C186.468 38.6553 186.27 39.2493 186.152 39.968C186.035 40.672 185.976 41.5227 185.976 42.52C185.976 44.5293 186.226 45.9593 186.724 46.81ZM204.968 44.632H201.426V50H198.984V34.93H204.704C208.106 34.93 209.808 36.5287 209.808 39.726C209.808 41.8673 208.986 43.3193 207.344 44.082L209.83 50H207.146L204.968 44.632ZM207.3 39.748C207.3 37.944 206.434 37.042 204.704 37.042H201.426V42.52H204.748C205.628 42.52 206.273 42.2707 206.684 41.772C207.094 41.2587 207.3 40.584 207.3 39.748Z" fill="white"/>
<path fill-rule="evenodd" clip-rule="evenodd" d="M250.557 2.86874C249.848 1.88056 248.307 2.17239 248.009 3.35153L246.247 10.3029C246.164 10.6298 245.968 10.9169 245.694 11.1136L239.869 15.2955C238.881 16.0048 239.172 17.5455 240.352 17.8444L247.303 19.6061C247.63 19.689 247.917 19.8846 248.114 20.1586L252.295 25.9842C253.005 26.9723 254.546 26.6805 254.844 25.5014L256.606 18.55C256.689 18.2231 256.885 17.936 257.159 17.7393L262.984 13.5575C263.972 12.8481 263.681 11.3074 262.501 11.0085L255.55 9.2468C255.223 9.16395 254.936 8.96827 254.739 8.6943L250.557 2.86874ZM250.908 6.87943C250.408 6.22387 249.374 6.41967 249.149 7.21269L247.853 11.7666C247.788 11.9932 247.646 12.1898 247.451 12.3219L243.507 14.9908C242.78 15.4827 242.993 16.6053 243.849 16.7973L248.496 17.8391C248.726 17.8906 248.93 18.0216 249.073 18.2089L251.945 21.9735C252.445 22.629 253.478 22.4332 253.704 21.6402L255 17.0863C255.064 16.8597 255.207 16.6631 255.402 16.531L259.346 13.8621C260.072 13.3702 259.86 12.2476 259.003 12.0556L254.357 11.0138C254.127 10.9623 253.922 10.8313 253.78 10.644L250.908 6.87943Z" fill="#F0F0F0"/>
<path fill-rule="evenodd" clip-rule="evenodd" d="M263.787 30.1345C263.744 29.3081 262.754 28.9098 262.15 29.4755L258.59 32.8103C258.422 32.9671 258.205 33.0597 257.976 33.0718L253.104 33.3289C252.278 33.3725 251.88 34.362 252.445 34.966L255.78 38.5264C255.937 38.6938 256.03 38.9113 256.042 39.1404L256.299 44.0119C256.342 44.8382 257.332 45.2365 257.936 44.6709L261.496 41.336C261.664 41.1792 261.881 41.0866 262.11 41.0745L266.982 40.8174C267.808 40.7738 268.206 39.7843 267.641 39.1803L264.306 35.6199C264.149 35.4525 264.056 35.235 264.044 35.0059L263.787 30.1345ZM262.411 32.8893C262.365 32.3303 261.701 32.063 261.281 32.4344L259.051 34.405C258.931 34.5111 258.777 34.5715 258.617 34.5755L255.635 34.6502C255.038 34.6652 254.748 35.3862 255.168 35.8105L257.267 37.9302C257.379 38.0441 257.448 38.1941 257.461 38.3538L257.704 41.3199C257.75 41.8789 258.414 42.1462 258.834 41.7748L261.065 39.8042C261.185 39.6981 261.338 39.6377 261.499 39.6337L264.48 39.559C265.077 39.544 265.367 38.823 264.947 38.3987L262.849 36.279C262.736 36.1651 262.667 36.0151 262.654 35.8554L262.411 32.8893Z" fill="#F0F0F0"/>
<defs>
<linearGradient id="paint0_linear_313_951" x1="31.6204" y1="-45.2515" x2="145.136" y2="133.013" gradientUnits="userSpaceOnUse">
<stop stop-color="#FFDE28" stop-opacity="0.8"/>
<stop offset="1" stop-color="#FFDE28" stop-opacity="0.1"/>
</linearGradient>
<linearGradient id="paint1_linear_313_951" x1="41.7474" y1="-1.54839" x2="203.996" y2="90.5467" gradientUnits="userSpaceOnUse">
<stop offset="0.605" stop-color="#E5D477"/>
<stop offset="1" stop-color="#5E5419"/>
</linearGradient>
</defs>
</svg>
