<svg width="21" height="21" viewBox="0 0 21 21" fill="none" xmlns="http://www.w3.org/2000/svg">
<path d="M6.01704 0.339355H14.3357C17.5047 0.339355 20.0796 2.91418 20.0796 6.0832V14.4019C20.0796 15.9252 19.4744 17.3862 18.3972 18.4634C17.32 19.5406 15.8591 20.1457 14.3357 20.1457H6.01704C2.84802 20.1457 0.273193 17.5709 0.273193 14.4019V6.0832C0.273193 4.55984 0.878347 3.09887 1.95553 2.02169C3.03271 0.944509 4.49368 0.339355 6.01704 0.339355ZM5.81897 2.31999C4.87344 2.31999 3.96663 2.6956 3.29804 3.3642C2.62944 4.03279 2.25383 4.9396 2.25383 5.88514V14.5999C2.25383 16.5707 3.84824 18.1651 5.81897 18.1651H14.5338C15.4793 18.1651 16.3861 17.7895 17.0547 17.1209C17.7233 16.4523 18.0989 15.5455 18.0989 14.5999V5.88514C18.0989 3.9144 16.5045 2.31999 14.5338 2.31999H5.81897ZM15.3755 3.80547C15.7039 3.80547 16.0187 3.93589 16.2509 4.16804C16.483 4.40019 16.6134 4.71506 16.6134 5.04337C16.6134 5.37168 16.483 5.68654 16.2509 5.91869C16.0187 6.15084 15.7039 6.28126 15.3755 6.28126C15.0472 6.28126 14.7324 6.15084 14.5002 5.91869C14.2681 5.68654 14.1376 5.37168 14.1376 5.04337C14.1376 4.71506 14.2681 4.40019 14.5002 4.16804C14.7324 3.93589 15.0472 3.80547 15.3755 3.80547ZM10.1764 5.29095C11.4896 5.29095 12.7491 5.81263 13.6777 6.74123C14.6063 7.66984 15.128 8.92929 15.128 10.2425C15.128 11.5558 14.6063 12.8152 13.6777 13.7438C12.7491 14.6724 11.4896 15.1941 10.1764 15.1941C8.86313 15.1941 7.60367 14.6724 6.67507 13.7438C5.74647 12.8152 5.22478 11.5558 5.22478 10.2425C5.22478 8.92929 5.74647 7.66984 6.67507 6.74123C7.60367 5.81263 8.86313 5.29095 10.1764 5.29095ZM10.1764 7.27158C9.38843 7.27158 8.63275 7.58459 8.07559 8.14175C7.51843 8.69892 7.20542 9.45459 7.20542 10.2425C7.20542 11.0305 7.51843 11.7862 8.07559 12.3433C8.63275 12.9005 9.38843 13.2135 10.1764 13.2135C10.9643 13.2135 11.72 12.9005 12.2772 12.3433C12.8343 11.7862 13.1473 11.0305 13.1473 10.2425C13.1473 9.45459 12.8343 8.69892 12.2772 8.14175C11.72 7.58459 10.9643 7.27158 10.1764 7.27158Z" fill="#FFDE28"/>
</svg>
